<svg width="310" height="232" viewBox="0 0 310 232" fill="none" xmlns="http://www.w3.org/2000/svg">
<path d="M224.351 113.418L215.721 107.745L218.529 104.88C220.154 103.227 221.243 101.123 221.655 98.841C222.066 96.5594 221.781 94.2068 220.836 92.0898C219.888 89.9742 218.325 88.1932 216.35 86.979C214.375 85.7649 212.08 85.1738 209.764 85.283L207.842 85.3714C208.917 83.5822 209.484 81.533 209.48 79.4453V70.7772C209.487 68.4343 209.03 66.1133 208.135 63.9482C207.24 61.7831 205.925 59.8169 204.265 58.1634C202.61 56.4931 200.64 55.1685 198.468 54.2667C196.297 53.3648 193.968 52.9037 191.617 52.9102H128.24C123.035 52.9173 118.044 54.9839 114.358 58.6588C110.672 62.3336 108.589 67.318 108.566 72.5231L105.901 71.8962C103.771 71.3974 101.543 71.5144 99.4776 72.2334C97.4117 72.9524 95.593 74.2439 94.2332 75.9573C92.8734 77.6702 92.0286 79.7343 91.7971 81.9091C91.5656 84.0838 91.9569 86.2795 92.9256 88.2403L97.6904 97.9044L86.8149 103.331C84.927 104.276 83.3349 105.722 82.2119 107.51C81.089 109.298 80.4783 111.36 80.4464 113.472C80.4168 115.588 80.9702 117.673 82.046 119.496C83.1218 121.319 84.6785 122.811 86.5457 123.809L91.9296 126.689L83.223 144.275C82.2666 146.202 81.8679 148.358 82.0717 150.499C82.2756 152.64 83.0739 154.682 84.3767 156.393C85.6815 158.103 87.4385 159.415 89.4493 160.179C91.4601 160.944 93.6445 161.131 95.756 160.719L121.522 155.72L128.486 171.845C129.275 173.672 130.523 175.264 132.108 176.466C133.694 177.668 135.563 178.439 137.535 178.706C138.045 178.774 138.559 178.809 139.074 178.809C140.802 178.809 142.509 178.42 144.067 177.671C145.626 176.922 146.996 175.833 148.076 174.483L156.59 163.838L164.447 172.653C165.531 173.864 166.859 174.833 168.343 175.496C169.828 176.159 171.436 176.5 173.061 176.498C174.221 176.498 175.373 176.323 176.48 175.979C178.595 175.323 180.477 174.071 181.9 172.375C183.323 170.678 184.228 168.608 184.506 166.411L185.525 158.335L197.67 163.431C199.72 164.291 201.975 164.54 204.164 164.148C206.353 163.757 208.382 162.741 210.007 161.223C211.631 159.705 212.782 157.751 213.322 155.594C213.862 153.438 213.767 151.171 213.049 149.067L209.38 138.299L221.847 133.904C223.873 133.191 225.659 131.928 227.006 130.256C228.352 128.584 229.205 126.57 229.47 124.439C229.726 122.308 229.383 120.147 228.479 118.2C227.575 116.253 226.145 114.597 224.351 113.418Z" fill="#F1F333" stroke="black" stroke-width="2" stroke-miterlimit="10"/>
<path d="M191.618 65.6719H191.62C192.317 65.6703 193.008 65.8069 193.652 66.0732C194.297 66.3396 194.881 66.7311 195.374 67.2246H195.375C195.868 67.7178 196.259 68.3038 196.525 68.9482C196.792 69.5928 196.929 70.2839 196.928 70.9814V78.6504H186.311V70.9824C186.311 69.5746 186.87 68.2243 187.865 67.2285C188.86 66.2327 190.21 65.6727 191.618 65.6719Z" fill="black" stroke="black" stroke-width="2"/>
<path d="M185.311 145.973V70.9826C185.311 69.3096 185.975 67.705 187.158 66.5216C188.34 65.3382 189.944 64.6729 191.617 64.6719C192.447 64.67 193.268 64.8321 194.034 65.1489C194.801 65.4657 195.497 65.9309 196.082 66.5178C196.668 67.1041 197.133 67.8002 197.45 68.5663C197.767 69.3325 197.929 70.1536 197.928 70.9826V79.6507H185.311" stroke="black" stroke-width="2" stroke-linecap="round" stroke-linejoin="round"/>
<path d="M191.617 64.6719H128.241C126.082 64.6719 124.011 65.5296 122.484 67.0564C120.957 68.5832 120.1 70.6539 120.1 72.8131V144.342" stroke="black" stroke-width="2" stroke-linecap="round" stroke-linejoin="round"/>
<path d="M156.121 146.182L173.061 165.176L175.992 142.048L185.31 145.955L202.134 153.016L194.774 131.457L218.017 123.266L197.666 109.898L210.287 97.0114L193.459 97.7998L195.539 87.3242L185.31 90.3584L185.044 90.4392" stroke="black" stroke-width="2" stroke-linecap="round" stroke-linejoin="round"/>
<path d="M120.098 87.2816L103.269 83.3398L113.122 103.283L91.9629 113.84L107.211 121.989L93.5396 149.601L120.113 144.428L128.431 142.809L139.076 167.456L156.12 146.182" stroke="black" stroke-width="2" stroke-linecap="round" stroke-linejoin="round"/>
</svg>
