<svg width="310" height="232" viewBox="0 0 310 232" fill="none" xmlns="http://www.w3.org/2000/svg">
<path d="M228.426 102.937C227.71 99.6826 226.161 96.6699 223.929 94.1951C223.561 92.9726 223.07 91.7907 222.463 90.6675C220.844 87.7162 218.492 85.2312 215.633 83.4519C212.775 81.6725 209.506 80.6587 206.142 80.508C204.692 80.4388 203.238 80.5328 201.809 80.7883L201.391 80.6825C200.291 80.437 199.173 80.2831 198.048 80.2224C197.308 78.2165 196.193 76.3697 194.762 74.7804L185.398 64.3564C184.635 63.5065 183.787 62.7357 182.869 62.0558C182.559 57.8646 180.7 53.9387 177.654 51.0421C174.607 48.1456 170.592 46.4857 166.389 46.3855L149.571 45.9624C147.017 45.898 144.481 46.4108 142.153 47.4628C139.826 48.5147 137.766 50.0785 136.127 52.0375C134.488 53.9966 133.313 56.3003 132.689 58.7767C132.065 61.2532 132.009 63.8384 132.525 66.3397L132.752 67.4503C132.042 67.8846 131.366 68.3726 130.731 68.9099L119.658 78.2762C118.783 79.0167 117.985 79.8442 117.277 80.746C114.423 80.0875 111.455 80.0875 108.601 80.746L108.183 80.8518C103.491 79.9694 98.6377 80.8497 94.5546 83.3238C90.4716 85.7979 87.4461 89.6917 86.0581 94.2585C83.8299 96.7361 82.2808 99.7477 81.5611 103.001C76.5404 109.876 76.5245 119.872 81.7462 130.713C83.5291 134.415 89.2376 144.464 93.7874 150.556C95.6761 153.074 99.8027 159.616 103.062 164.926V168.802C103.062 173.301 104.849 177.615 108.031 180.795C111.213 183.976 115.529 185.763 120.028 185.763L189.958 185.689C194.458 185.688 198.772 183.9 201.954 180.72C205.136 177.539 206.924 173.226 206.925 168.728V164.862C210.184 159.574 214.332 153.01 216.199 150.493C220.749 144.432 226.452 134.352 228.24 130.65C233.494 119.808 233.446 109.813 228.426 102.937Z" fill="#23A094" stroke="black" stroke-width="2" stroke-miterlimit="10"/>
<path d="M179.389 121.867C179.389 121.867 187.573 116.049 192.007 107.207C196.44 98.3641 197.826 95.3336 200.535 95.9524C205.54 97.0895 201.127 105.784 199.63 109.137C197.694 113.458 192.578 121.074 192.578 121.074" stroke="black" stroke-width="2" stroke-linecap="round" stroke-linejoin="round"/>
<path d="M200.08 108.454C200.08 108.454 204.54 99.8918 205.899 97.8768C207.719 95.1479 210.428 96.2374 211.126 97.5384C211.925 99.0139 211.015 102.081 209.65 105.381C208.285 108.682 202.598 120.613 199.984 124.251" stroke="black" stroke-width="2" stroke-linecap="round" stroke-linejoin="round"/>
<path d="M209.633 105.389C209.633 105.389 212.02 102.433 214.522 104.252C216.538 105.717 216.003 107.658 214.411 112.095C212.818 116.532 208.158 126.872 204.973 129.828" stroke="black" stroke-width="2" stroke-linecap="round" stroke-linejoin="round"/>
<path d="M188.143 119.09C188.143 119.09 199.681 123.659 206.448 132.042" stroke="black" stroke-width="2" stroke-linecap="round" stroke-linejoin="round"/>
<path d="M214.068 112.887C214.068 112.887 215.888 110.274 218.39 112.321C220.57 114.103 218.39 120.73 216.914 123.803C215.438 126.876 209.973 136.533 205.884 141.991C201.794 147.448 192.351 163.145 192.351 163.145V172.353H159.248C159.248 172.353 158.92 157.703 158.92 146.787C158.92 135.872 165.062 127.008 169.501 121.555C173.94 116.103 175.675 112.21 177.23 109.391C179.05 106.096 183.828 108.254 183.145 112.004C182.463 115.754 176.664 127.69 176.664 127.69C180.194 131.383 182.262 136.232 182.484 141.335" stroke="black" stroke-width="2" stroke-linecap="round" stroke-linejoin="round"/>
<path d="M187.467 130.621C187.467 130.621 192.921 134.942 194.514 139.263" stroke="black" stroke-width="2" stroke-linecap="round" stroke-linejoin="round"/>
<path d="M130.604 121.945C130.604 121.945 122.42 116.128 117.981 107.28C113.542 98.432 112.162 95.4122 109.453 96.0256C104.453 97.1627 108.866 105.863 110.363 109.216C112.299 113.531 117.415 121.147 117.415 121.147" stroke="black" stroke-width="2" stroke-linecap="round" stroke-linejoin="round"/>
<path d="M109.908 108.511C109.908 108.511 105.453 99.9488 104.088 97.9338C102.268 95.2049 99.5597 96.289 98.856 97.5901C98.0625 99.0709 98.9724 102.138 100.337 105.433C101.702 108.728 107.384 120.67 110.003 124.303" stroke="black" stroke-width="2" stroke-linecap="round" stroke-linejoin="round"/>
<path d="M100.357 105.457C100.357 105.457 97.9657 102.506 95.4685 104.32C93.4476 105.79 93.9872 107.731 95.5796 112.168C97.1721 116.606 101.833 126.945 105.018 129.896" stroke="black" stroke-width="2" stroke-linecap="round" stroke-linejoin="round"/>
<path d="M121.864 119.16C121.864 119.16 110.325 123.724 103.559 132.112" stroke="black" stroke-width="2" stroke-linecap="round" stroke-linejoin="round"/>
<path d="M95.9411 112.964C95.9411 112.964 94.1212 110.352 91.6188 112.393C89.4391 114.175 91.6188 120.807 93.0948 123.875C94.5709 126.942 100.031 136.61 104.125 142.062C108.22 147.515 117.659 163.217 117.659 163.217V172.425H151.089V146.838C151.089 135.927 144.947 127.058 140.508 121.6C136.07 116.143 134.329 112.255 132.774 109.437C130.959 106.136 126.182 108.299 126.864 112.049C127.547 115.799 133.345 127.735 133.345 127.735C129.814 131.426 127.746 136.273 127.525 141.375" stroke="black" stroke-width="2" stroke-linecap="round" stroke-linejoin="round"/>
<path d="M122.531 130.723C122.531 130.723 117.071 135.044 115.479 139.359" stroke="black" stroke-width="2" stroke-linecap="round" stroke-linejoin="round"/>
<path d="M164.438 101.821L173.987 72.9453L183.991 84.0832L164.438 101.821Z" stroke="black" stroke-width="2" stroke-linecap="round" stroke-linejoin="round"/>
<path d="M154.883 89.0852L166.712 59.7595L148.74 59.3047L154.883 89.0852Z" stroke="black" stroke-width="2" stroke-linecap="round" stroke-linejoin="round"/>
<path d="M148.513 110.688L140.783 79.543L128.959 89.5438L148.513 110.688Z" stroke="black" stroke-width="2" stroke-linecap="round" stroke-linejoin="round"/>
</svg>
