<svg width="310" height="232" viewBox="0 0 310 232" fill="none" xmlns="http://www.w3.org/2000/svg">
<path d="M212.537 165.93L212.816 165.581C212.881 165.49 212.956 165.404 213.021 165.313L213.305 164.91C213.364 164.835 213.418 164.755 213.472 164.674C213.525 164.594 213.654 164.39 213.745 164.25L213.896 164.009L214.137 163.585C214.186 163.499 214.239 163.413 214.288 163.322C214.336 163.23 214.427 163.053 214.492 162.914L214.648 162.608C214.707 162.484 214.76 162.361 214.814 162.238C214.868 162.114 214.921 161.996 214.97 161.878C215.018 161.76 215.061 161.653 215.104 161.545C215.147 161.438 215.206 161.272 215.26 161.132L215.356 160.837C215.41 160.681 215.458 160.531 215.507 160.375C215.555 160.22 215.555 160.198 215.582 160.112C215.63 159.946 215.673 159.78 215.716 159.608C215.716 159.527 215.754 159.447 215.77 159.366C215.813 159.195 215.85 159.017 215.888 158.83C215.888 158.749 215.915 158.669 215.931 158.588C215.963 158.411 215.995 158.239 216.022 158.051L216.055 157.767C216.055 157.606 216.098 157.44 216.114 157.273C216.13 157.107 216.114 157.021 216.146 156.898C216.178 156.774 216.146 156.629 216.173 156.495C216.173 156.259 216.173 156.023 216.173 155.787C216.173 155.76 216.173 155.728 216.173 155.701V70.8633C216.172 68.7479 215.755 66.6533 214.944 64.6992C214.133 62.7452 212.945 60.97 211.447 59.4751L202.205 50.2389C202.012 50.0511 201.818 49.8633 201.62 49.7023L201.362 49.4822L201.024 49.1924L200.669 48.9133C200.583 48.8436 200.497 48.7738 200.406 48.7094C200.315 48.645 200.138 48.5162 199.998 48.4196L199.767 48.2586C199.627 48.162 199.482 48.0761 199.337 47.9849C199.192 47.8937 199.182 47.8829 199.101 47.84L198.671 47.5878L198.414 47.4482C198.279 47.3731 198.14 47.3033 198 47.2335L197.705 47.0887L197.318 46.9115L196.969 46.7613L196.625 46.6271L196.223 46.4768L195.917 46.3695L195.465 46.2246L195.192 46.1495L194.703 46.0153L194.445 45.9562L193.935 45.8436L193.677 45.8006C193.505 45.7684 193.334 45.7362 193.14 45.7148L192.845 45.6772L192.362 45.6182L191.975 45.5859H191.577C191.363 45.5859 191.142 45.5859 190.922 45.5859H118.012C113.739 45.5859 109.641 47.2822 106.62 50.3016C103.599 53.321 101.901 57.4161 101.901 61.6862V73.815C101.901 74.2336 101.901 74.6469 101.955 75.0548C101.76 81.8371 101.08 88.5967 99.9198 95.282C97.5032 109.053 93.1857 120.012 87.7726 126.146C86.7557 127.292 85.9076 128.577 85.2539 129.962C85.2539 130.016 85.2056 130.064 85.1841 130.112C85.0391 130.423 84.9049 130.745 84.776 131.067V131.1C84.6954 131.314 84.6203 131.524 84.5451 131.744C84.5451 131.83 84.4967 131.915 84.4699 132.001L84.3786 132.286C84.2927 132.586 84.2122 132.887 84.1424 133.187C84.1424 133.187 84.1424 133.23 84.1424 133.252C84.0618 133.606 83.9973 133.966 83.9382 134.325C83.9382 134.352 83.9382 134.379 83.9382 134.406C83.8845 134.754 83.8416 135.109 83.8093 135.479V135.506C83.7459 136.248 83.7333 136.994 83.7717 137.738C83.7694 137.753 83.7694 137.767 83.7717 137.781C83.8103 138.503 83.9019 139.22 84.0456 139.928C84.052 139.973 84.061 140.018 84.0725 140.062C84.2031 140.759 84.3825 141.446 84.6095 142.118C84.6095 142.187 84.6579 142.257 84.6847 142.332C84.7975 142.644 84.9156 142.949 85.0499 143.25C85.0477 143.268 85.0477 143.286 85.0499 143.304C85.1841 143.615 85.3345 143.926 85.4956 144.227C85.5332 144.307 85.5762 144.388 85.6191 144.468C85.7749 144.747 85.9306 145.005 86.097 145.3L86.1347 145.359C86.3172 145.649 86.5106 145.933 86.7093 146.212L86.8436 146.4C87.2642 146.965 87.7197 147.503 88.2075 148.01L88.2773 148.085C89.051 148.889 89.9078 149.609 90.8335 150.232C91.4315 150.632 92.0559 150.99 92.7023 151.305L92.8903 151.397C93.1642 151.526 93.4273 151.649 93.7226 151.762L93.8622 151.821C94.1308 151.928 94.3993 152.025 94.6839 152.121C95.8425 152.525 97.048 152.779 98.2711 152.878C99.4525 153.001 101.037 153.077 103.249 153.087L103.287 153.168L103.464 153.549L103.62 153.86C103.684 153.994 103.754 154.123 103.829 154.252C103.904 154.381 103.931 154.445 103.985 154.536C104.039 154.627 104.141 154.799 104.221 154.933C104.302 155.068 104.334 155.116 104.393 155.207C104.452 155.298 104.554 155.459 104.64 155.583L104.834 155.862L105.091 156.211L105.322 156.511L105.569 156.817C105.66 156.93 105.757 157.037 105.848 157.144L106.079 157.407C106.192 157.526 106.305 157.649 106.423 157.767L106.579 157.933L115.837 167.18C118.858 170.2 122.955 171.897 127.227 171.898H200.046C200.309 171.898 200.583 171.898 200.841 171.898H201.212C201.351 171.898 201.491 171.898 201.625 171.865L202.098 171.812L202.404 171.769C202.57 171.769 202.742 171.715 202.908 171.683L203.172 171.64L203.682 171.527L203.945 171.468L204.428 171.334L204.708 171.259L205.153 171.114L205.465 171.007L205.857 170.857L206.211 170.717C206.324 170.674 206.437 170.62 206.549 170.572L206.947 170.395L207.231 170.255L207.656 170.035C207.742 169.992 207.822 169.944 207.903 169.896L208.343 169.644L208.563 169.504C208.714 169.413 208.864 169.322 209.009 169.22L209.229 169.069L209.648 168.774L209.895 168.581L210.26 168.291L210.593 168.007L210.856 167.776C211.254 167.422 211.63 167.041 211.989 166.649C212.065 166.568 212.134 166.483 212.204 166.397C212.274 166.311 212.44 166.048 212.537 165.93Z" fill="#FFC900" stroke="black" stroke-width="2" stroke-miterlimit="10"/>
<path d="M190.417 147.469L197.669 154.716H127.679L120.427 147.469H190.417Z" fill="black" stroke="black" stroke-width="2"/>
<path d="M165.743 112.229C168.904 115.811 172.38 119.175 175.729 121.501C177.562 122.774 179.394 123.764 181.146 124.293C181.223 124.316 181.301 124.338 181.379 124.359C173.794 127.562 163.747 129.934 153.242 131.661C145.926 132.864 138.424 133.748 131.438 134.389C136.541 133.06 141.354 131.33 145.765 129.181C148.213 129.079 150.274 128.979 151.734 128.902C152.485 128.863 153.077 128.83 153.481 128.807C153.684 128.795 153.839 128.786 153.944 128.78C153.997 128.777 154.038 128.775 154.064 128.773C154.078 128.773 154.088 128.772 154.095 128.771C154.098 128.771 154.101 128.771 154.103 128.771H154.105L154.395 128.753L154.629 128.584L154.045 127.772C154.63 128.584 154.63 128.583 154.631 128.583L154.632 128.582L154.641 128.576C154.645 128.573 154.65 128.569 154.655 128.565C154.666 128.557 154.678 128.547 154.692 128.535C154.722 128.512 154.759 128.481 154.804 128.442C154.892 128.365 155.01 128.254 155.152 128.104C155.437 127.805 155.818 127.348 156.261 126.683C157.124 125.384 158.217 123.289 159.281 120.006C161.747 117.687 163.918 115.076 165.743 112.229Z" fill="black" stroke="black" stroke-width="2"/>
<path d="M154.26 65.4219C155.485 65.4219 156.477 66.4142 156.477 67.6367C156.476 68.8592 155.485 69.8515 154.26 69.8516C153.035 69.8516 152.043 68.8592 152.043 67.6367C152.043 66.4142 153.035 65.4219 154.26 65.4219Z" fill="black" stroke="black" stroke-width="2"/>
<path d="M156.132 122.747C155.566 124.024 155.04 124.948 154.607 125.599C154.226 126.172 153.918 126.535 153.719 126.745C153.696 126.769 153.672 126.789 153.652 126.809C153.576 126.813 153.487 126.82 153.387 126.825C152.985 126.848 152.395 126.88 151.647 126.919C151.14 126.946 150.56 126.973 149.916 127.005C152.085 125.733 154.162 124.311 156.132 122.747Z" fill="black" stroke="black" stroke-width="2"/>
<path d="M118.011 73.7407V61.6172H190.83V73.7407V109.118V146.471H118.011L117.812 136.397V136.269" stroke="black" stroke-width="2" stroke-linecap="round" stroke-linejoin="round"/>
<path d="M190.831 61.6172L200.084 70.8587V82.4348V155.718H163.674H127.264L118.012 146.471" stroke="black" stroke-width="2" stroke-linecap="round" stroke-linejoin="round"/>
<path d="M200.085 155.716L190.832 146.469" stroke="black" stroke-width="2" stroke-linecap="round" stroke-linejoin="round"/>
<path d="M199.999 82.4363L190.832 73.7422H118.083C118.083 73.7422 118.319 115.866 99.8242 136.775C116.638 137.134 132.84 134.429 145.54 128.188C150.246 125.93 154.59 122.986 158.429 119.451C161.24 116.841 163.663 113.843 165.625 110.547C172.353 118.404 180.661 125.435 185.865 123.347C188.856 122.156 190.805 117.937 190.805 109.104C190.805 108.733 190.805 108.358 190.805 107.971" stroke="black" stroke-width="2" stroke-linecap="round" stroke-linejoin="round"/>
<path d="M99.8184 136.776C100.431 136.98 107.621 136.98 117.814 136.4C137.979 135.262 169.904 131.876 185.864 123.364L186.015 123.289" stroke="black" stroke-width="2" stroke-linecap="round" stroke-linejoin="round"/>
<path d="M145.533 128.205C150.603 127.996 154.061 127.786 154.061 127.786C154.061 127.786 156.295 126.176 158.427 119.468C159.079 117.39 159.617 115.277 160.038 113.14C162.465 101.017 160.339 84.6484 160.339 84.6484H147.332C143.97 90.7993 138.601 95.6137 132.119 98.2907C135.609 104.35 136.377 107.988 136.377 107.988C136.377 107.988 146.688 103.743 148.809 97.6843C148.809 110.028 146.506 115.244 143.756 120.112H133.37C133.37 120.112 130.54 125.768 127.914 128.597C134.186 128.597 140.614 128.398 145.533 128.205Z" stroke="black" stroke-width="2" stroke-linecap="round" stroke-linejoin="round"/>
</svg>
