<svg width="310" height="232" viewBox="0 0 310 232" fill="none" xmlns="http://www.w3.org/2000/svg">
<path d="M217.219 91.4689C216.786 88.3976 215.346 85.5559 213.125 83.3871C210.903 81.2182 208.024 79.8443 204.938 79.4796L200.819 79.0115L204.023 71.053C205.054 68.4996 205.31 65.7003 204.759 63.003C204.209 60.3057 202.876 57.8293 200.927 55.8816C198.978 53.9339 196.498 52.6007 193.796 52.0479C191.094 51.495 188.288 51.7468 185.728 52.7719L179.02 55.4544C178.202 52.9943 176.718 50.808 174.732 49.1376C172.747 47.4671 170.336 46.3778 167.768 45.99C165.2 45.6023 162.575 45.9314 160.182 46.9408C157.79 47.9502 155.724 49.6006 154.214 51.7092L148.665 59.4477C148.336 59.5132 148.008 59.5881 147.684 59.6771C147.215 59.5601 146.746 59.4571 146.249 59.3775C143.186 58.8672 135.389 58.5535 129.117 66.6291C127.184 69.1102 125.791 71.8863 124.557 74.3394L124.346 74.7514C120.8 74.0746 117.13 74.547 113.871 76.0996C110.236 77.8458 105.46 81.7174 103.373 90.2657C102.219 94.994 101.576 96.3516 101.454 96.5951C101.379 96.6981 101.201 96.9228 101.065 97.096C99.287 99.3384 97.3684 101.988 95.2059 107.493C91.6548 116.538 92.2317 125.012 94.3051 131.158C93.8032 140.919 97.5608 149.163 101.656 154.753L101.257 171.503C101.212 173.376 101.543 175.238 102.23 176.981C102.917 178.724 103.946 180.312 105.258 181.653C106.569 182.993 108.136 184.057 109.866 184.784C111.595 185.511 113.453 185.885 115.33 185.885H154.036C157.768 185.885 161.348 184.405 163.987 181.771C166.626 179.137 168.109 175.565 168.109 171.84V152.276L172.945 138.621L173.072 138.677C174.787 139.378 176.623 139.734 178.476 139.725C180.329 139.716 182.162 139.342 183.869 138.624C185.577 137.906 187.126 136.859 188.427 135.543C189.728 134.226 190.756 132.666 191.451 130.952L194.229 131.42C197.013 131.913 199.882 131.557 202.461 130.399C205.04 129.241 207.21 127.334 208.687 124.927C210.164 122.52 210.88 119.725 210.742 116.905C210.604 114.086 209.618 111.374 207.912 109.123L206.505 107.288L208.738 106.351C211.598 105.151 213.98 103.04 215.514 100.349C217.048 97.6574 217.647 94.5356 217.219 91.4689Z" fill="#90A8ED" stroke="black" stroke-width="2" stroke-miterlimit="10"/>
<path d="M162.099 104.66C162.099 104.66 164.445 99.3468 167.4 100.826C171.106 102.675 168.723 108.363 168.723 108.363L154.036 149.864V171.806H115.358L115.888 149.602C115.888 149.602 106.351 141.405 108.739 128.98C111.127 116.556 115.358 114.178 117.216 109.683C119.074 105.189 118.009 100.957 119.862 97.5117C121.715 94.0661 124.365 95.1335 125.96 98.3075C127.555 101.482 125.697 112.052 124.37 116.017C123.042 119.983 119.866 127.384 119.866 127.384" stroke="black" stroke-width="2" stroke-linecap="round" stroke-linejoin="round"/>
<path d="M126.209 110.475C126.209 110.475 137.069 92.4978 139.982 88.2704C142.895 84.0431 144.753 82.1845 147.398 82.7182C150.044 83.2519 150.978 86.1544 148.196 91.4398C145.541 96.4817 136.539 112.857 136.539 112.857" stroke="black" stroke-width="2" stroke-linecap="round" stroke-linejoin="round"/>
<path d="M148.196 91.4382C148.196 91.4382 152.3 82.4498 156.405 84.1725C160.289 85.797 158.525 90.7781 156.541 94.879C154.557 98.98 146.338 117.879 146.338 117.879" stroke="black" stroke-width="2" stroke-linecap="round" stroke-linejoin="round"/>
<path d="M154.797 98.7186C154.797 98.7186 158.367 89.5055 162.565 90.9802C166.538 92.3846 165.07 97.4499 163.33 101.659C161.589 105.867 155.355 121.976 155.355 121.976" stroke="black" stroke-width="2" stroke-linecap="round" stroke-linejoin="round"/>
<path d="M118.524 103.204C118.308 103.204 120.931 104.417 122.366 101.884C123.398 100.063 123.159 98.1809 121.428 96.7344" stroke="black" stroke-width="2" stroke-linecap="round" stroke-linejoin="round"/>
<path d="M149.128 87.463C150.061 85.8508 149.636 83.8637 148.18 83.0247C146.724 82.1857 144.787 82.8125 143.855 84.4247C142.922 86.0369 143.346 88.0239 144.803 88.8629C146.259 89.7019 148.195 89.0751 149.128 87.463Z" stroke="black" stroke-width="2" stroke-linecap="round" stroke-linejoin="round"/>
<path d="M157.79 88.9786C158.723 87.3664 158.298 85.3793 156.842 84.5403C155.386 83.7013 153.45 84.3282 152.517 85.9403C151.584 87.5525 152.009 89.5395 153.465 90.3785C154.921 91.2175 156.857 90.5907 157.79 88.9786Z" stroke="black" stroke-width="2" stroke-linecap="round" stroke-linejoin="round"/>
<path d="M164.144 95.8302C165.076 94.218 164.652 92.2309 163.196 91.3919C161.74 90.5529 159.803 91.1797 158.87 92.7919C157.938 94.404 158.362 96.3911 159.818 97.2301C161.274 98.0691 163.211 97.4423 164.144 95.8302Z" stroke="black" stroke-width="2" stroke-linecap="round" stroke-linejoin="round"/>
<path d="M169.106 104.74C169.638 103.072 168.847 101.332 167.339 100.852C165.83 100.373 164.176 101.336 163.644 103.004C163.111 104.671 163.902 106.412 165.411 106.892C166.919 107.371 168.573 106.408 169.106 104.74Z" stroke="black" stroke-width="2" stroke-linecap="round" stroke-linejoin="round"/>
<path d="M108.725 128.979C108.725 128.979 104.503 122.373 108.326 112.594C112.149 102.814 113.486 108.23 117.066 93.5588C118.266 88.6386 120.645 87.8755 122.629 88.8024C124.613 89.7293 125.148 93.4277 124.881 96.8639" stroke="black" stroke-width="2" stroke-linecap="round" stroke-linejoin="round"/>
<path d="M126.473 100.3C126.473 100.3 133.509 87.6131 136.01 82.852C138.51 78.091 140.597 72.6464 143.956 73.2035C147.137 73.7325 147.929 76.5086 145.832 82.4541" stroke="black" stroke-width="2" stroke-linecap="round" stroke-linejoin="round"/>
<path d="M146.736 79.5262C146.736 79.5262 149.054 72.5368 152.431 73.1828C155.809 73.8288 155.743 77.8081 154.153 84.2872" stroke="black" stroke-width="2" stroke-linecap="round" stroke-linejoin="round"/>
<path d="M154.82 80.8697C154.82 80.8697 156.697 76.9794 160.515 78.8847C163.691 80.4717 161.045 90.5181 161.045 90.5181" stroke="black" stroke-width="2" stroke-linecap="round" stroke-linejoin="round"/>
<path d="M161.645 87.4841C162.036 86.8722 162.604 86.3934 163.274 86.1109C163.945 85.8283 164.685 85.7554 165.397 85.9017C168.24 86.4963 168.447 90.1151 167.785 93.9632C167.124 97.8114 166.458 100.307 166.458 100.307" stroke="black" stroke-width="2" stroke-linecap="round" stroke-linejoin="round"/>
<path d="M154.688 75.1833L165.679 59.8516L169.122 74.5233L190.977 65.8017L180.91 90.782L203.296 93.427L184.354 101.357L196.672 117.616L175.745 113.913L178.396 125.678L164.487 119.994" stroke="black" stroke-width="2" stroke-linecap="round" stroke-linejoin="round"/>
</svg>
