<svg width="310" height="232" viewBox="0 0 310 232" fill="none" xmlns="http://www.w3.org/2000/svg">
<path d="M218.425 92.8173L214.837 89.6886L215.355 89.0492C217.41 86.5077 218.601 83.3762 218.754 80.1106C218.906 76.845 218.013 73.6159 216.203 70.8937C214.684 68.6085 212.58 66.7723 210.111 65.5761C207.642 64.38 204.898 63.8675 202.164 64.0921L201.955 61.8084C201.683 58.8446 200.556 56.0238 198.711 53.6896C196.865 51.3554 194.381 49.6085 191.56 48.6618C188.739 47.7138 185.704 47.6069 182.823 48.3544C179.943 49.1018 177.341 50.6713 175.337 52.8715L170.844 57.8005L165.806 54.3939C163.308 52.7053 160.369 51.7902 157.354 51.7632C154.34 51.7361 151.384 52.5982 148.856 54.2417C146.329 55.8821 144.34 58.2307 143.139 60.9943C141.937 63.758 141.576 66.8144 142.099 69.7823L142.89 74.2317L140.452 74.6771C137.543 75.2072 134.85 76.5671 132.696 78.5929C130.542 80.6187 129.019 83.2242 128.311 86.0956H101.659C97.5892 86.0956 93.6863 87.7129 90.8087 90.5916C87.9311 93.4703 86.3145 97.3748 86.3145 101.446V168.507C86.3155 172.577 87.9325 176.481 90.8101 179.359C93.6876 182.237 97.5899 183.853 101.659 183.853H189.38C193.449 183.853 197.351 182.237 200.229 179.359C203.106 176.481 204.723 172.577 204.724 168.507V120.404L210.466 119.601C213.379 119.193 216.113 117.956 218.344 116.036C220.574 114.117 222.205 111.597 223.044 108.777C223.886 105.954 223.899 102.948 223.08 100.118C222.261 97.2879 220.645 94.7536 218.425 92.8173Z" fill="#FF90E8" stroke="black" stroke-width="2" stroke-miterlimit="10"/>
<path d="M189.399 101.324H100.305V169.431H189.399V101.324Z" stroke="black" stroke-width="2" stroke-linecap="round" stroke-linejoin="round"/>
<path d="M120.652 124.796H108.332V162.828H120.652V124.796Z" stroke="black" stroke-width="2" stroke-linecap="round" stroke-linejoin="round"/>
<path d="M141.038 129.375H128.719V162.827H141.038V129.375Z" stroke="black" stroke-width="2" stroke-linecap="round" stroke-linejoin="round"/>
<path d="M161.423 111.699H149.104V162.827H161.423V111.699Z" stroke="black" stroke-width="2" stroke-linecap="round" stroke-linejoin="round"/>
<path d="M181.812 86.6753H169.492V162.825H181.812V86.6753Z" fill="black" stroke="black" stroke-width="2" stroke-linecap="round" stroke-linejoin="round"/>
<path d="M159.372 100.918L142.506 89.4616L160.251 86.2339L156.732 66.4266L173.012 77.4302L186.652 62.4644L188.558 83.2994L203.666 78.8994L193.691 91.2238L208.651 104.283L189.81 106.924" stroke="black" stroke-width="2" stroke-linecap="round" stroke-linejoin="round"/>
</svg>
