<svg width="310" height="232" viewBox="0 0 310 232" fill="none" xmlns="http://www.w3.org/2000/svg">
<path d="M129.45 158.753C129.624 158.23 129.972 157.783 130.437 157.487C130.901 157.191 131.454 157.064 132.001 157.128C132.549 157.192 133.057 157.443 133.441 157.838C133.825 158.233 134.061 158.748 134.109 159.297C134.316 161.62 134.768 163.703 135.589 165.221C141.374 175.933 153.353 179.969 162.409 181.465L190.829 186.361C191.746 186.519 192.674 186.599 193.604 186.601C196.2 186.6 198.759 185.981 201.068 184.794C203.377 183.607 205.369 181.887 206.88 179.777C208.39 177.666 209.376 175.226 209.754 172.659C210.132 170.091 209.893 167.471 209.055 165.014L203.368 148.351L213.855 136.873C215.521 135.083 216.772 132.949 217.519 130.622C218.267 128.295 218.493 125.832 218.182 123.408C217.725 120.098 216.262 117.007 213.991 114.555C211.72 112.102 208.751 110.405 205.485 109.694L196.102 107.648C197.303 103.83 197.71 99.8074 197.299 95.8265C196.888 91.8457 195.667 87.9907 193.712 84.4982C191.757 81.0057 189.109 77.9493 185.93 75.5165C182.751 73.0837 179.109 71.3258 175.226 70.3508L167.171 68.3271C166.96 64.6274 165.916 61.0231 164.116 57.7831C162.317 54.543 159.81 51.7508 156.78 49.6147C153.751 47.4786 150.278 46.0537 146.621 45.4463C142.964 44.8388 139.217 45.0645 135.66 46.1066C132.102 47.1486 128.826 48.9801 126.075 51.4645C123.324 53.9488 121.17 57.0218 119.773 60.4544C118.376 63.8869 117.773 67.5905 118.008 71.2887C118.242 74.987 119.309 78.5846 121.129 81.8131L92.6387 161.435C91.7565 163.898 91.4799 166.538 91.832 169.13C92.1842 171.723 93.1549 174.193 94.6621 176.332C96.1694 178.472 98.1691 180.217 100.493 181.422C102.816 182.627 105.396 183.255 108.013 183.255C114.713 183.255 122.55 179.093 124.939 172.424L129.45 158.753Z" fill="#F1F333" stroke="black" stroke-width="2" stroke-miterlimit="10"/>
<path d="M159.231 123.651C165.12 125.634 168.892 131.83 167.287 137.519L166.862 138.736C166.036 140.685 164.946 141.721 163.748 142.328C162.503 142.959 161.063 143.171 159.443 143.315C157.442 143.494 155.084 143.541 153.001 144.528C154.081 141.326 155.369 137.085 156.502 133.217C157.326 130.404 158.077 127.768 158.621 125.836C158.874 124.939 159.081 124.193 159.231 123.651Z" fill="black" stroke="black" stroke-width="2"/>
<path d="M140.916 77.823C141.466 77.9346 142.026 77.991 142.587 77.9916C144.671 77.9907 146.679 77.2053 148.21 75.7918C149.741 74.3783 150.684 72.4402 150.851 70.3634C151.017 68.2865 150.395 66.2231 149.109 64.5838C147.822 62.9445 145.966 61.8495 143.908 61.5167C141.851 61.1838 139.743 61.6376 138.005 62.7876C136.267 63.9377 135.026 65.6998 134.529 67.7231C134.031 69.7465 134.314 71.8828 135.322 73.707C136.329 75.5311 137.986 76.9093 139.964 77.5673C140.276 77.6723 140.594 77.7577 140.916 77.823V77.823Z" stroke="black" stroke-width="2" stroke-linecap="round" stroke-linejoin="round"/>
<path d="M140.438 78.4102L140.748 78.4863L171.225 86.1569C172.963 86.5914 174.593 87.3787 176.014 88.4699C177.435 89.5611 178.616 90.9329 179.484 92.4999C180.351 94.0669 180.887 95.7956 181.058 97.5785C181.229 99.3614 181.031 101.16 180.476 102.863L174.604 119.625L168.237 137.816L167.791 139.095" stroke="black" stroke-width="2" stroke-linecap="round" stroke-linejoin="round"/>
<path d="M108.014 166.931L126.828 114.336L139.819 77.9961" stroke="black" stroke-width="2" stroke-linecap="round" stroke-linejoin="round"/>
<path d="M149.963 149.166C150.336 148.737 150.616 148.235 150.785 147.692C153.13 142.056 158.54 122.406 158.54 122.406" stroke="black" stroke-width="2" stroke-linecap="round" stroke-linejoin="round"/>
<path d="M174.752 119.671L202.029 125.612L184.815 144.457L193.626 170.259L165.146 165.363C151.421 163.111 146.708 156.555 149.984 149.184C150.211 148.668 150.486 148.174 150.805 147.71C155.099 141.503 164.166 147.764 167.813 139.125C167.989 138.709 168.138 138.282 168.259 137.847C170.153 131.226 165.451 124.154 158.561 122.424L127.752 114.672" stroke="black" stroke-width="2" stroke-linecap="round" stroke-linejoin="round"/>
</svg>
