<svg width="310" height="232" viewBox="0 0 310 232" fill="none" xmlns="http://www.w3.org/2000/svg">
<path d="M219.365 144.231L212.217 131.973C214.759 130.331 216.807 128.029 218.144 125.314C219.48 122.599 220.054 119.572 219.805 116.556C219.555 113.54 218.492 110.648 216.728 108.189C214.963 105.73 212.565 103.796 209.788 102.594L204.372 100.248C204.372 100.187 204.372 100.126 204.344 100.07C203.883 97.4252 202.792 94.9306 201.162 92.7969C199.533 90.6633 197.414 88.9536 194.984 87.8123L182.108 81.767C181.574 81.5165 181.027 81.2934 180.47 81.0984C174.378 78.9856 167.931 78.0828 161.493 78.4408L141.363 58.3327L141.174 58.1544L140.834 57.8312L140.539 57.5694L140.227 57.2964L139.881 57.0178L139.597 56.8005C139.469 56.7002 139.335 56.6055 139.207 56.5163C139.079 56.4272 139.029 56.3882 138.94 56.3325L138.522 56.0539L138.26 55.8923L137.825 55.6305L137.552 55.48L137.118 55.2516C137.017 55.1959 136.917 55.1513 136.817 55.1011L136.393 54.9061C136.282 54.8504 136.171 54.8059 136.054 54.7557L135.658 54.5941C135.535 54.544 135.407 54.4938 135.274 54.4493L134.911 54.3211L134.488 54.1818L134.137 54.0815L133.697 53.959L133.351 53.8754L132.906 53.7807L132.538 53.7082L132.114 53.6358L131.708 53.5801L131.312 53.5299L130.855 53.4909H130.499H129.992H129.763L105.416 53.1734C103.209 53.1439 101.019 53.5516 98.9712 54.3728C96.9233 55.194 95.0583 56.4126 93.4837 57.9582C91.9091 59.5038 90.6562 61.3459 89.7971 63.3782C88.9379 65.4105 88.4896 67.5927 88.478 69.7991L88.3555 94.593V94.6431C88.3555 94.8047 88.3555 94.9607 88.3555 95.1223C88.3555 95.2838 88.3555 95.3618 88.3555 95.4788C88.3582 95.4973 88.3582 95.5161 88.3555 95.5346C88.3949 96.2939 88.4861 97.0497 88.6285 97.7966C88.6285 97.8245 88.6285 97.8524 88.6285 97.8802C88.673 98.0975 88.7232 98.3204 88.7733 98.5377L88.8067 98.677C88.8512 98.8775 88.907 99.0781 88.9683 99.2731L89.0185 99.4681C89.0742 99.6464 89.1299 99.8247 89.1912 99.9974L89.2747 100.254C89.3304 100.41 89.3862 100.56 89.4475 100.705C89.5088 100.85 89.531 100.922 89.5756 101.034C89.6202 101.145 89.6815 101.279 89.7372 101.407C89.7929 101.535 89.8485 101.663 89.9098 101.792C89.9711 101.92 90.0045 101.992 90.0547 102.092C90.1048 102.193 90.1996 102.388 90.2776 102.533L90.4113 102.767C90.5005 102.928 90.5896 103.09 90.6843 103.246L90.8013 103.441C90.9072 103.608 91.0075 103.775 91.1189 103.937C91.1566 103.996 91.1975 104.054 91.2415 104.109C91.3529 104.276 91.4643 104.444 91.5869 104.605L91.7317 104.789L92.094 105.257C92.2667 105.463 92.4394 105.664 92.6177 105.864L92.7402 105.993C92.8906 106.154 93.0355 106.316 93.1915 106.472V106.5L113.505 126.713C113.19 133.058 114.098 139.404 116.18 145.406C116.369 145.963 116.591 146.508 116.843 147.039L122.894 159.92C123.97 162.213 125.554 164.231 127.525 165.821C129.496 167.412 131.803 168.534 134.271 169.103L137.324 176.78C138.25 179.111 139.688 181.204 141.533 182.904C143.377 184.603 145.581 185.865 147.98 186.598C150.379 187.33 152.911 187.512 155.391 187.132C157.87 186.752 160.232 185.819 162.301 184.402C164.745 186.708 167.826 188.223 171.144 188.751C174.461 189.279 177.861 188.795 180.899 187.363C183.938 185.93 186.474 183.615 188.178 180.719C189.881 177.824 190.672 174.482 190.449 171.131L190.142 166.567L201.386 168.997C204.557 169.685 207.86 169.436 210.891 168.279C213.923 167.123 216.552 165.108 218.459 162.482C220.365 159.856 221.466 156.732 221.627 153.491C221.788 150.25 221.002 147.033 219.365 144.231Z" fill="#FF90E8" stroke="black" stroke-width="2" stroke-miterlimit="10"/>
<path d="M129.52 70.1435L105.047 94.6172L150.625 140.196L175.098 115.722L129.52 70.1435Z" stroke="black" stroke-width="2" stroke-linecap="round" stroke-linejoin="round"/>
<path d="M129.858 104.256C134.988 104.256 139.146 100.097 139.146 94.9676C139.146 89.838 134.988 85.6797 129.858 85.6797C124.729 85.6797 120.57 89.838 120.57 94.9676C120.57 100.097 124.729 104.256 129.858 104.256Z" fill="black" stroke="black" stroke-width="2" stroke-linecap="round" stroke-linejoin="round"/>
<path d="M134.556 89.9743C133.258 88.7542 131.536 88.087 129.754 88.1141C127.973 88.1411 126.272 88.8602 125.012 90.1192" stroke="white" stroke-width="2" stroke-linecap="round" stroke-linejoin="round"/>
<path d="M150.623 140.192L138.021 152.817L131.97 139.935C129.919 134.007 129.602 127.617 131.056 121.516V121.516" stroke="black" stroke-width="2" stroke-linecap="round" stroke-linejoin="round"/>
<path d="M175.238 115.582L187.852 102.973L174.976 96.9222C169.046 94.8725 162.655 94.5536 156.551 96.0029V96.0029" stroke="black" stroke-width="2" stroke-linecap="round" stroke-linejoin="round"/>
<path d="M164.765 125.747L160.614 129.898L142.963 112.247C142.69 111.975 142.473 111.651 142.325 111.295C142.178 110.939 142.102 110.557 142.102 110.171C142.102 109.786 142.178 109.404 142.325 109.048C142.473 108.692 142.69 108.368 142.963 108.096V108.096C143.235 107.823 143.559 107.606 143.915 107.458C144.271 107.31 144.653 107.234 145.038 107.234C145.424 107.234 145.806 107.31 146.162 107.458C146.518 107.606 146.842 107.823 147.114 108.096L164.765 125.747Z" stroke="black" stroke-width="2" stroke-linecap="round" stroke-linejoin="round"/>
<path d="M105.043 94.6219L105.171 69.8281L129.513 70.1513" stroke="black" stroke-width="2" stroke-linecap="round" stroke-linejoin="round"/>
<path d="M143.652 147.468L152.845 170.607L158.328 152.059L173.761 172.239L171.978 145.54L204.906 152.66L189.478 126.256L203.123 117.955L182.213 108.906" stroke="black" stroke-width="2" stroke-linecap="round" stroke-linejoin="round"/>
</svg>
