<svg width="310" height="232" viewBox="0 0 310 232" fill="none" xmlns="http://www.w3.org/2000/svg">
<path d="M213.421 166.483C224.152 159.066 229.558 146.001 227.548 132.144C226.141 122.54 221.372 113.744 214.087 107.317C207.813 101.778 200.275 98.4976 192.475 97.8134C192.425 89.8037 190.754 82.4251 187.587 76.3048C183.738 68.8691 177.689 63.4102 170.456 60.8557L170.147 60.7454L169.938 60.6694H169.888H169.843L160.999 57.8145L160.847 57.7651C160.436 57.6244 160.021 57.4914 159.606 57.3849C159.45 57.3393 159.297 57.2975 159.141 57.2595C153.5 55.7161 147.34 55.91 141.249 57.8335C138.805 58.618 136.442 59.6365 134.195 60.8747C133.052 60.0547 131.835 59.3433 130.559 58.7497C130.38 58.666 130.201 58.59 130.018 58.514C118.27 53.3706 101.581 57.2937 90.9136 67.7971C81.7769 76.7913 79.4662 88.7051 85.0357 97.6727L86.9962 101.162C87.0686 101.307 87.1409 101.451 87.2209 101.592L87.2475 101.638C87.5371 102.151 87.8654 102.641 88.2297 103.105C90.3951 106.002 93.2556 108.308 96.5478 109.811C98.596 110.755 100.759 111.429 102.982 111.814C102.867 112.955 102.772 114.095 102.719 115.235C102.258 124.982 104.116 133.904 108.094 141.036C111.722 147.54 117.044 152.364 123.322 154.953C123.474 155.018 123.63 155.078 123.79 155.139C124.765 155.521 125.76 155.848 126.771 156.12L135.036 158.804C135.253 158.891 135.474 158.971 135.695 159.043L135.794 159.078C136.421 159.283 137.066 159.433 137.72 159.526C139.705 159.941 141.729 160.15 143.758 160.15C147.188 160.132 150.595 159.584 153.857 158.526C154.999 158.173 156.104 157.766 157.215 157.283C159.261 160.468 161.737 163.355 164.574 165.863C171.64 172.105 180.308 175.485 189.155 175.485C189.73 175.485 190.297 175.485 190.884 175.443C194.938 175.25 198.921 174.309 202.632 172.668C202.978 172.512 203.317 172.341 203.644 172.155L209.713 168.703C210.6 168.25 211.468 167.752 212.309 167.22C212.694 166.997 213.065 166.75 213.421 166.483Z" fill="#FF90E8" stroke="black" stroke-width="2" stroke-miterlimit="10"/>
<path d="M132.575 76.9513C134.913 81.1823 133.447 87.1392 128.167 92.3358C120.816 99.5775 108.797 102.645 101.385 99.1784C99.6862 98.4224 98.2348 97.2038 97.1976 95.662L94.8867 91.5451C95.9269 93.0463 97.3633 94.2305 99.0363 94.9664C106.452 98.4371 118.452 95.3693 125.822 88.1238C131.034 82.9918 132.53 77.0996 130.318 72.918L132.575 76.9513Z" fill="#FF90E8"/>
<path d="M94.8728 91.5429C92.0404 87.2891 93.3804 81.0053 98.9157 75.5578C106.271 68.3351 118.285 65.2521 125.701 68.7152C127.498 69.5121 129.012 70.8299 130.049 72.4976L130.281 72.9044C132.493 77.124 130.997 82.9972 125.785 88.1102C118.43 95.3329 106.415 98.4159 98.9994 94.9528C97.3362 94.2165 95.9084 93.0367 94.8728 91.5429ZM121.141 83.1265C122.972 81.2258 124.635 77.105 119.618 74.7633C114.753 72.4824 108.917 74.5276 104.866 78.5153C100.968 82.3548 100.149 86.5212 104.105 88.3649C108.06 90.2086 112.179 87.6046 114.003 86.122L109.567 90.4785L112.769 91.9763L119.801 85.0538L112.506 81.6325L111.132 82.9858L114.608 84.6128C112.541 86.0878 109.929 87.3081 107.755 86.2969C105.361 85.1793 105.879 82.4232 108.399 79.9409C110.919 77.4585 114.532 76.1394 116.926 77.2799C119.165 78.3291 118.487 80.3438 117.494 81.431L121.141 83.1265Z" fill="#FF90E8"/>
<path d="M130.296 72.9021L130.064 72.4961C130.148 72.6479 130.224 72.7655 130.296 72.9021Z" fill="#FF90E8"/>
<path d="M119.618 74.7506C124.636 77.0999 122.972 81.213 121.141 83.1138L117.509 81.4145C118.503 80.3273 119.18 78.3125 116.942 77.2633C114.547 76.1457 110.938 77.4496 108.414 79.9244C105.89 82.3991 105.369 85.1627 107.771 86.2804C109.929 87.2916 112.541 86.0713 114.623 84.5963L111.148 82.9693L112.522 81.616L119.816 85.0373L112.784 91.9597L109.583 90.462L114.018 86.0979C112.179 87.5691 108.041 90.1845 104.12 88.3408C100.199 86.4971 100.998 82.3307 104.881 78.4912C108.917 74.5149 114.753 72.4735 119.618 74.7506Z" fill="black"/>
<path d="M97.1836 95.66C98.2209 97.2017 99.6722 98.4204 101.371 99.1763C108.783 102.647 120.787 99.5793 128.153 92.3337C133.433 87.1371 134.899 81.1802 132.561 76.9492" stroke="black" stroke-width="2" stroke-linecap="round" stroke-linejoin="round"/>
<path d="M130.296 72.9002C130.224 72.7634 130.148 72.6265 130.064 72.4935C129.023 70.8249 127.503 69.5082 125.701 68.7148" stroke="black" stroke-width="2" stroke-linecap="round" stroke-linejoin="round"/>
<path d="M125.701 68.7169C118.285 65.2499 106.286 68.3367 98.9157 75.5595C93.3804 81.0069 92.0404 87.2908 94.8728 91.5446C95.913 93.0458 97.3492 94.23 99.0223 94.9659C106.438 98.4366 118.438 95.3688 125.808 88.1233C131.02 82.9913 132.516 77.0991 130.304 72.9175" stroke="black" stroke-width="2" stroke-linecap="round" stroke-linejoin="round"/>
<path d="M130.053 72.4727L130.068 72.4955L130.296 72.9022L130.304 72.9174L132.577 76.947" stroke="black" stroke-width="2" stroke-linecap="round" stroke-linejoin="round"/>
<path d="M97.1758 95.668L97.1986 95.7098" stroke="black" stroke-width="2" stroke-linecap="round" stroke-linejoin="round"/>
<path d="M94.2637 90.457L94.8728 91.5366L97.1874 95.6574" stroke="black" stroke-width="2" stroke-linecap="round" stroke-linejoin="round"/>
<path d="M216.23 133.47C217.68 143.49 213.588 152.477 206.404 157.137L204.268 158.354C201.632 159.646 198.758 160.382 195.825 160.517C182.5 161.178 169.991 150.124 167.927 135.868C166.447 125.65 170.737 116.515 178.206 111.919C181.268 110.041 184.758 108.972 188.348 108.813C201.653 108.152 214.182 119.21 216.23 133.47ZM207.398 146.014L205.426 132.363L192.326 133.013L192.707 135.674L198.954 135.37C198.733 138.662 197.538 142.004 193.655 142.213C189.353 142.43 185.999 138.567 185.279 133.679C184.56 128.79 186.768 124.65 191.07 124.437C192.57 124.339 194.056 124.778 195.261 125.676C196.466 126.573 197.311 127.87 197.644 129.334L204.166 129.007C203.492 125.312 199.494 118.944 190.461 119.397C181.705 119.83 178.065 126.425 179.204 134.279C180.3 141.833 185.34 147.698 192.414 147.349C199.487 146.999 200.408 140.833 200.382 137.701L201.626 146.292L207.398 146.014Z" fill="#FF90E8"/>
<path d="M205.426 132.364L207.398 145.992L201.653 146.278L200.409 137.686C200.443 140.819 199.518 146.981 192.441 147.334C185.363 147.688 180.327 141.818 179.231 134.265C178.088 126.411 181.751 119.819 190.488 119.382C199.506 118.93 203.504 125.297 204.193 128.992L197.671 129.319C197.338 127.856 196.493 126.559 195.288 125.661C194.083 124.764 192.597 124.325 191.097 124.423C186.795 124.636 184.598 128.776 185.306 133.664C186.014 138.553 189.368 142.408 193.682 142.199C197.565 142.005 198.76 138.663 198.981 135.356L192.737 135.668L192.357 133.007L205.426 132.364Z" fill="black"/>
<path d="M204.285 158.353L206.421 157.137C205.733 157.583 205.02 157.99 204.285 158.353Z" fill="#FF90E8"/>
<path d="M204.284 158.352L198.018 161.918C195.592 162.989 192.988 163.601 190.339 163.724C177.015 164.385 164.505 153.331 162.442 139.075C161.083 129.705 164.574 121.25 170.912 116.369L178.202 111.91V111.937C170.745 116.529 166.454 125.664 167.924 135.886C169.987 150.141 182.504 161.196 195.821 160.535C198.762 160.397 201.643 159.654 204.284 158.352Z" fill="#FF90E8"/>
<path d="M206.404 157.134C213.587 152.458 217.68 143.487 216.229 133.466C214.166 119.211 201.652 108.152 188.332 108.818" stroke="black" stroke-width="2" stroke-linecap="round" stroke-linejoin="round"/>
<path d="M188.332 108.816C184.742 108.975 181.252 110.044 178.191 111.922C170.733 116.514 166.442 125.649 167.912 135.871C169.975 150.127 182.492 161.181 195.809 160.52C198.742 160.385 201.617 159.649 204.253 158.357C204.988 157.993 205.701 157.587 206.388 157.14" stroke="black" stroke-width="2" stroke-linecap="round" stroke-linejoin="round"/>
<path d="M170.82 116.394L170.885 116.356L178.175 111.896L179.218 111.258" stroke="black" stroke-width="2" stroke-linecap="round" stroke-linejoin="round"/>
<path d="M170.895 116.363C164.556 121.244 161.065 129.699 162.424 139.069C164.488 153.325 177.001 164.379 190.321 163.718C192.971 163.595 195.574 162.983 198 161.912L204.266 158.347L206.402 157.13L206.546 157.05" stroke="black" stroke-width="2" stroke-linecap="round" stroke-linejoin="round"/>
<path d="M166.333 71.1937C175.664 74.2957 181.702 85.2096 180.99 100.244C179.996 121.183 166.28 142.307 150.413 147.329C146.415 148.595 142.658 148.717 139.285 147.861L130.148 144.889C133.472 145.698 137.168 145.558 141.097 144.315C156.964 139.293 170.677 118.168 171.671 97.2336C172.375 82.408 166.501 71.5624 157.372 68.3008L166.333 71.1937Z" fill="#FF90E8"/>
<path d="M130.143 144.873C120.039 142.421 113.373 131.188 114.119 115.431C115.109 94.4885 128.826 73.3677 144.693 68.3459C148.934 67.0002 152.904 66.947 156.43 67.9658L157.336 68.2585H157.366C166.503 71.5202 172.369 82.3467 171.665 97.1913C170.671 118.126 156.959 139.251 141.091 144.272C137.163 145.557 133.474 145.698 130.143 144.873ZM157.766 96.146C157.861 90.7593 154.678 82.3353 143.935 85.7338C133.523 89.0296 127.626 100.111 127.078 111.648C126.553 122.745 131.087 130.097 139.519 127.432C147.952 124.767 150.517 115.161 151.229 110.432L150.632 123.056L157.484 120.89L158.432 100.867L142.824 105.809L142.641 109.725L150.076 107.372C149.021 112.424 146.809 117.837 142.184 119.301C137.064 120.924 134.033 116.096 134.372 108.915C134.711 101.734 138.301 94.8116 143.421 93.1884C148.214 91.6678 149.981 95.6137 150.003 98.6055L157.766 96.146Z" fill="#FF90E8"/>
<path d="M157.336 68.2888L156.43 67.9961C156.734 68.0835 157.035 68.1823 157.336 68.2888Z" fill="#FF90E8"/>
<path d="M143.937 85.749C154.68 82.3505 157.863 90.7745 157.768 96.1612L150.001 98.6169C149.979 95.6252 148.212 91.6831 143.419 93.1999C138.299 94.8231 134.713 101.742 134.37 108.926C134.028 116.111 137.062 120.935 142.182 119.312C146.807 117.848 149.035 112.435 150.074 107.383L142.639 109.736L142.822 105.821L158.43 100.879L157.478 120.924L150.626 123.091L151.224 110.466C150.512 115.195 147.938 124.798 139.513 127.466C131.089 130.135 126.547 122.779 127.072 111.683C127.628 100.126 133.525 89.0449 143.937 85.749Z" fill="black"/>
<path d="M139.285 147.867C142.658 148.722 146.416 148.601 150.413 147.335C166.28 142.313 179.996 121.188 180.99 100.25C181.702 85.2152 175.66 74.3012 166.333 71.1992" stroke="black" stroke-width="2" stroke-linecap="round" stroke-linejoin="round"/>
<path d="M157.338 68.2932C157.037 68.1868 156.737 68.088 156.432 68.0005C152.907 66.9666 148.936 67.0198 144.695 68.3807" stroke="black" stroke-width="2" stroke-linecap="round" stroke-linejoin="round"/>
<path d="M144.695 68.3616C128.828 73.3833 115.111 94.5042 114.121 115.446C113.36 131.203 120.041 142.437 130.145 144.889C133.468 145.698 137.165 145.558 141.094 144.315C156.961 139.293 170.673 118.168 171.667 97.2336C172.371 82.408 166.497 71.5624 157.368 68.3008" stroke="black" stroke-width="2" stroke-linecap="round" stroke-linejoin="round"/>
<path d="M156.379 67.9805L156.432 67.9995L157.338 68.2884L157.369 68.2998L166.334 71.1927" stroke="black" stroke-width="2" stroke-linecap="round" stroke-linejoin="round"/>
<path d="M139.281 147.887L139.378 147.918" stroke="black" stroke-width="2" stroke-linecap="round" stroke-linejoin="round"/>
<path d="M127.742 144.113L130.144 144.893L139.285 147.862" stroke="black" stroke-width="2" stroke-linecap="round" stroke-linejoin="round"/>
</svg>
