<svg width="303" height="232" viewBox="0 0 303 232" fill="none" xmlns="http://www.w3.org/2000/svg">
<path d="M187.249 89.3357C186.082 88.6742 184.866 88.1038 183.611 87.6295C182.313 86.2495 180.856 85.0278 179.269 83.9902L182.015 68.0065C182.747 63.7067 182.185 59.2874 180.4 55.3052C178.615 51.323 175.687 47.9561 171.985 45.6285C168.283 43.301 163.972 42.117 159.595 42.2256C155.219 42.3342 150.973 43.7306 147.391 46.2389C143.96 43.9285 139.949 42.6173 135.811 42.4525C131.672 42.2878 127.569 43.2762 123.964 45.3065C120.358 47.3369 117.392 50.3287 115.399 53.9459C113.406 57.5631 112.466 61.6623 112.683 65.7827L115 109.703C111.335 114.696 109.356 120.718 109.348 126.902V147.037C109.348 158.547 113.372 164.22 119.422 169.222C119.989 169.659 120.521 170.14 121.013 170.659C121.243 171.34 121.36 172.054 121.357 172.772C121.357 173.062 121.331 173.353 121.331 173.649C121.331 177.851 123.007 181.882 125.99 184.854C128.973 187.826 133.019 189.495 137.238 189.495H184.746C188.965 189.495 193.011 187.826 195.994 184.854C198.977 181.882 200.653 177.851 200.653 173.649V115.16C200.647 99.3083 192.249 92.1774 187.249 89.3357ZM121.373 172.407C121.373 172.513 121.373 172.619 121.373 172.73C121.357 172.524 121.373 172.407 121.373 172.407Z" fill="#F1F333" stroke="black" stroke-width="2" stroke-miterlimit="10"/>
<path d="M164.777 147.171V140.547C164.778 138.754 164.424 136.977 163.735 135.32C163.047 133.663 162.037 132.157 160.764 130.889C159.492 129.62 157.98 128.614 156.317 127.927C154.654 127.241 152.871 126.888 151.071 126.888H144.019L157.561 123.19C159.203 122.738 160.616 121.69 161.521 120.252C162.426 118.813 162.757 117.09 162.449 115.42C162.285 114.533 161.944 113.687 161.447 112.932C160.95 112.177 160.307 111.529 159.556 111.025C158.804 110.521 157.959 110.171 157.071 109.996C156.182 109.821 155.267 109.824 154.379 110.006L136.018 113.746C132.978 114.367 130.247 116.015 128.286 118.41C126.325 120.806 125.254 123.802 125.254 126.893V147.033C125.254 156.119 128.647 155.126 133.239 160.492C137.831 165.859 137.232 173.618 137.232 173.618" stroke="black" stroke-width="2" stroke-linecap="round" stroke-linejoin="round"/>
<path d="M162.45 115.398C162.45 115.398 162.583 106.419 167.975 103.223C171.978 100.857 184.741 99.4463 184.741 115.155V173.618H137.232" stroke="black" stroke-width="2" stroke-linecap="round" stroke-linejoin="round"/>
<path d="M173.96 101.699C173.96 101.699 172.162 96.0625 166.378 96.0625C160.593 96.0625 156.393 97.8531 154.797 103.817C153.201 109.78 153 110.182 153 110.182" stroke="black" stroke-width="2" stroke-linecap="round" stroke-linejoin="round"/>
<path d="M131.246 115.632L128.595 64.9233C128.507 63.2903 129.056 61.6865 130.127 60.4471C131.198 59.2078 132.709 58.4289 134.343 58.2731C136.019 58.1095 137.692 58.6147 138.996 59.6782C140.299 60.7416 141.125 62.2765 141.294 63.9461L145.244 102.606L154.12 62.9108C154.473 61.343 155.422 59.9723 156.767 59.086C158.113 58.1997 159.75 57.8668 161.337 58.1569V58.1569C162.951 58.4531 164.384 59.3707 165.325 60.7111C166.265 62.0516 166.638 63.7071 166.363 65.3195L161.013 96.4522" stroke="black" stroke-width="2" stroke-linecap="round" stroke-linejoin="round"/>
<path d="M137.832 103.023L154.799 103.821" stroke="black" stroke-width="2" stroke-linecap="round" stroke-linejoin="round"/>
<path d="M161.787 119.731L161.734 120.191C161.637 121.086 161.722 121.992 161.983 122.854C162.243 123.716 162.675 124.517 163.253 125.21C163.831 125.903 164.542 126.473 165.345 126.886C166.148 127.3 167.026 127.549 167.927 127.618V127.618C169.586 127.746 171.234 127.26 172.554 126.252C173.874 125.243 174.774 123.785 175.08 122.156L177.153 111.18" stroke="black" stroke-width="2" stroke-linecap="round" stroke-linejoin="round"/>
<path d="M180.148 117.738L175.758 119.328" stroke="black" stroke-width="2" stroke-linecap="round" stroke-linejoin="round"/>
<path d="M149.607 111.406C149.607 111.998 149.608 116.572 154.597 115.579C159.586 114.586 160.785 111.802 160.785 111.802" stroke="black" stroke-width="2" stroke-linecap="round" stroke-linejoin="round"/>
<path d="M163.182 123.901C163.383 121.714 163.781 117.736 167.572 117.937C171.639 118.148 173.362 122.11 172.964 125.892" stroke="black" stroke-width="2" stroke-linecap="round" stroke-linejoin="round"/>
</svg>
