<svg width="302" height="232" viewBox="0 0 302 232" fill="none" xmlns="http://www.w3.org/2000/svg">
<path d="M213.064 57.5796C206.355 50.8231 196.688 47.7599 186.548 49.1741C178.077 50.3594 169.83 54.585 163.315 61.0666C160.122 64.2346 157.437 67.877 155.354 71.8654L152.637 71.6821C148.929 71.4383 145.212 71.9894 141.734 73.2987C138.257 74.608 135.098 76.6453 132.47 79.2745L93.3596 118.433C90.1429 121.654 88.3359 126.023 88.3359 130.577C88.3359 135.132 90.1429 139.501 93.3596 142.722L128.449 177.855C131.667 181.075 136.03 182.884 140.58 182.884C145.13 182.884 149.493 181.075 152.711 177.855L192.239 138.284C194.731 135.789 196.665 132.791 197.91 129.49C199.156 126.188 199.685 122.659 199.463 119.137L199.194 114.883C202.9 112.876 206.296 110.342 209.277 107.359C215.792 100.878 220.064 92.6385 221.288 84.17C222.787 74.0297 219.79 64.336 213.064 57.5796Z" fill="#90A8ED" stroke="black" stroke-width="2" stroke-miterlimit="10"/>
<path d="M174.841 101C173.685 100.422 172.63 99.6599 171.718 98.7436C165.701 92.6858 167.365 81.2743 175.424 73.2525C183.483 65.2307 194.871 63.6332 200.91 69.6911C206.95 75.7489 205.263 87.1547 197.198 95.1822C192.823 99.5338 187.475 101.996 182.505 102.368" stroke="black" stroke-width="2" stroke-linecap="round" stroke-linejoin="round"/>
<path d="M140.596 165.706L105.535 130.562L144.651 91.4029C145.549 90.5029 146.63 89.8058 147.819 89.3584C149.009 88.911 150.281 88.7238 151.549 88.8092L176.028 90.4296C177.271 90.5156 178.44 91.0498 179.32 91.9332C180.199 92.8165 180.728 93.9891 180.81 95.2335L182.383 120.204C182.451 121.293 182.287 122.384 181.901 123.405C181.516 124.426 180.917 125.353 180.146 126.124L140.596 165.706Z" stroke="black" stroke-width="2" stroke-linecap="round" stroke-linejoin="round"/>
<path d="M135.781 147.928C136.061 147.918 136.34 147.891 136.616 147.848C137.414 147.705 138.127 147.26 138.607 146.606C138.802 146.382 138.928 146.106 138.967 145.812C139.007 145.518 138.959 145.218 138.83 144.951C138.568 144.429 138.173 143.985 137.686 143.663C136.346 142.76 134.949 141.943 133.505 141.218C131.452 140.13 129.37 139.076 127.311 137.994C126.15 137.387 125.028 136.706 123.953 135.956C123.262 135.504 122.697 134.883 122.312 134.152C122.088 133.691 121.984 133.18 122.009 132.668C122.034 132.156 122.187 131.658 122.455 131.221C122.644 130.877 122.655 130.98 122.455 130.751C121.757 130.012 121.042 129.28 120.339 128.547L120.207 128.409L122.243 126.445L122.369 126.577C123.107 127.321 123.839 128.06 124.571 128.81C124.645 128.879 124.697 128.867 124.794 128.81C125.363 128.384 126.023 128.098 126.722 127.974C126.893 128.741 127.065 129.52 127.225 130.264C126.893 130.39 126.561 130.482 126.253 130.625C125.812 130.84 125.44 131.173 125.177 131.587C125.04 131.782 124.961 132.013 124.951 132.251C124.941 132.49 124.999 132.727 125.12 132.933C125.396 133.379 125.78 133.749 126.235 134.009C128.05 135.143 129.923 136.181 131.846 137.118C133.848 138.155 135.85 139.174 137.835 140.244C138.681 140.711 139.496 141.236 140.271 141.813C141.088 142.38 141.692 143.205 141.987 144.155C142.113 144.605 142.146 145.075 142.084 145.538C142.022 146.001 141.866 146.446 141.627 146.846C141.541 147.012 141.541 147.11 141.661 147.224C142.422 147.974 143.171 148.741 143.949 149.514L144.16 149.738L142.101 151.719L139.608 149.125C139.259 149.314 138.939 149.509 138.595 149.698C138.028 149.977 137.423 150.17 136.799 150.27C136.779 150.276 136.757 150.276 136.737 150.27C136.715 150.261 136.696 150.245 136.685 150.224C136.325 149.457 136.062 148.696 135.781 147.928Z" fill="black" stroke="black" stroke-width="2" stroke-miterlimit="10"/>
<path d="M148.434 135.247C148.731 135.247 149.006 135.247 149.269 135.166C150.064 135.017 150.773 134.571 151.253 133.918C151.45 133.697 151.576 133.422 151.617 133.128C151.658 132.835 151.611 132.536 151.482 132.269C151.222 131.744 150.827 131.298 150.338 130.975C148.995 130.076 147.599 129.26 146.157 128.53C144.098 127.442 142.022 126.389 139.963 125.307C138.801 124.701 137.679 124.02 136.606 123.268C135.913 122.816 135.346 122.196 134.958 121.465C134.736 121.003 134.632 120.492 134.658 119.98C134.684 119.468 134.839 118.97 135.107 118.533C135.296 118.19 135.307 118.293 135.107 118.064L132.991 115.859L132.859 115.722L134.896 113.758C134.935 113.804 134.977 113.848 135.021 113.889L137.223 116.123C137.298 116.197 137.349 116.18 137.446 116.123C138.015 115.698 138.675 115.412 139.374 115.287C139.545 116.06 139.711 116.833 139.877 117.577C139.546 117.703 139.214 117.794 138.899 117.943C138.46 118.154 138.089 118.486 137.83 118.9C137.691 119.094 137.611 119.325 137.601 119.564C137.591 119.803 137.65 120.039 137.772 120.245C138.046 120.691 138.428 121.061 138.882 121.322C140.698 122.456 142.573 123.494 144.499 124.431C146.5 125.467 148.502 126.486 150.487 127.557C151.333 128.027 152.147 128.553 152.923 129.131C153.741 129.695 154.346 130.518 154.639 131.468C154.765 131.917 154.798 132.388 154.736 132.85C154.674 133.313 154.519 133.758 154.279 134.159C154.193 134.325 154.193 134.422 154.313 134.537C155.074 135.292 155.823 136.054 156.601 136.827L156.813 137.045L154.754 139.026L152.26 136.432C151.911 136.621 151.585 136.821 151.248 137.004C150.68 137.281 150.075 137.474 149.452 137.577H149.383C149.365 137.567 149.35 137.553 149.337 137.537C149.006 136.752 148.731 136.008 148.434 135.247Z" fill="black" stroke="black" stroke-width="2" stroke-miterlimit="10"/>
<path d="M161.249 122.434C161.547 122.434 161.822 122.434 162.085 122.354C162.88 122.204 163.589 121.758 164.069 121.106C164.266 120.884 164.392 120.609 164.433 120.316C164.474 120.022 164.427 119.723 164.298 119.457C164.039 118.931 163.644 118.484 163.154 118.163C161.813 117.264 160.419 116.447 158.979 115.718C156.92 114.63 154.844 113.582 152.785 112.494C151.622 111.889 150.501 111.208 149.427 110.456C148.735 110.004 148.168 109.383 147.78 108.652C147.557 108.191 147.454 107.682 147.48 107.17C147.506 106.659 147.66 106.162 147.929 105.726C148.118 105.377 148.129 105.48 147.9 105.251L145.784 103.047L145.652 102.909L147.689 100.945C147.728 100.992 147.77 101.036 147.814 101.077L150.016 103.31C150.085 103.384 150.142 103.367 150.234 103.31C150.805 102.886 151.467 102.599 152.167 102.474C152.339 103.247 152.504 104.02 152.67 104.764C152.338 104.89 152.007 104.982 151.692 105.131C151.253 105.342 150.882 105.674 150.623 106.087C150.484 106.282 150.404 106.512 150.394 106.751C150.384 106.99 150.443 107.227 150.565 107.433C150.839 107.879 151.221 108.249 151.675 108.509C153.491 109.644 155.366 110.682 157.292 111.618C159.293 112.654 161.295 113.674 163.28 114.744C164.126 115.215 164.94 115.741 165.716 116.319C166.533 116.884 167.137 117.706 167.432 118.655C167.558 119.105 167.591 119.575 167.529 120.038C167.467 120.501 167.312 120.946 167.072 121.346C166.986 121.518 166.986 121.61 167.106 121.724C167.867 122.48 168.611 123.241 169.394 124.014L169.6 124.232L167.541 126.219L165.053 123.619C164.704 123.808 164.378 124.009 164.041 124.192C163.473 124.468 162.868 124.661 162.245 124.765C162.222 124.77 162.199 124.77 162.176 124.765C162.158 124.754 162.143 124.741 162.13 124.724C161.793 123.94 161.524 123.196 161.249 122.434Z" fill="black" stroke="black" stroke-width="2" stroke-miterlimit="10"/>
<path d="M172.135 103.236C174.469 103.236 176.362 101.342 176.362 99.0048C176.362 96.6679 174.469 94.7734 172.135 94.7734C169.801 94.7734 167.908 96.6679 167.908 99.0048C167.908 101.342 169.801 103.236 172.135 103.236Z" stroke="black" stroke-width="2" stroke-linecap="round" stroke-linejoin="round"/>
</svg>
