<svg width="310" height="232" viewBox="0 0 310 232" fill="none" xmlns="http://www.w3.org/2000/svg">
<path d="M227.468 99.5804C228.755 95.9314 229.305 92.0631 229.088 88.1997C228.87 84.3363 227.888 80.5545 226.2 77.0734C222.883 70.1494 216.98 64.8065 209.764 62.1956L209.424 62.0789H209.399L159.941 44.79C152.573 42.2179 144.487 42.6755 137.456 46.0623C130.425 49.4492 125.024 55.4886 122.438 62.8555L98.1456 132.397C94.7546 132.013 91.3329 132.78 88.4304 134.576C85.5279 136.372 83.313 139.093 82.1414 142.3C81.3598 144.447 80.9315 146.706 80.8732 148.99C80.7514 153.425 82.0286 157.786 84.5235 161.453C87.0184 165.12 90.6043 167.908 94.7722 169.421L143.936 187.304C146.558 188.256 149.342 188.679 152.128 188.549C154.914 188.419 157.647 187.738 160.169 186.546C162.691 185.354 164.952 183.674 166.822 181.604C168.692 179.533 170.134 177.113 171.065 174.482C171.065 174.482 171.065 174.441 171.065 174.426L192.603 112.976L204.864 117.428C206.757 118.115 208.767 118.42 210.779 118.324C212.79 118.228 214.763 117.733 216.582 116.869C218.401 116.006 220.031 114.789 221.377 113.29C222.724 111.792 223.759 110.041 224.424 108.139L227.468 99.5804Z" fill="#FFC900" stroke="black" stroke-width="2" stroke-miterlimit="10"/>
<path d="M200.024 76.6436V76.6445C201.39 76.6815 202.742 76.932 204.031 77.3857L204.034 77.3867C205.674 77.9569 207.186 78.8446 208.482 80C209.779 81.1554 210.835 82.5558 211.59 84.1201C212.345 85.6844 212.784 87.3827 212.883 89.1172C212.981 90.8517 212.737 92.5886 212.164 94.2285L209.505 101.836L184.662 92.8184L187.223 85.5088L187.224 85.5068C188.144 82.8627 189.88 80.579 192.181 78.9863C194.481 77.3939 197.228 76.5731 200.024 76.6436Z" fill="black" stroke="black" stroke-width="2"/>
<path d="M158.295 123.183C158.119 124.393 157.926 125.82 157.723 127.296V127.297C157.462 129.208 157.215 131.144 156.943 132.903L158.812 133.53C159.522 132.212 160.287 130.797 161.037 129.418C161.989 127.669 162.896 125.993 163.607 124.653L164.593 124.976C161.93 129.179 159.533 133.067 157.597 136.299L156.904 137.454L158.21 137.782L159.037 137.99L159.039 137.991C159.187 138.028 159.34 138.065 159.488 138.101L158.924 139.811C158.466 139.669 157.876 139.5 157.294 139.337L156.375 139.079L156.075 139.985L155.771 140.904L155.433 141.924L156.474 142.188C156.877 142.291 157.162 142.352 157.47 142.437L157.481 142.44L157.493 142.443C157.669 142.487 157.847 142.53 158.017 142.572L157.452 144.283C156.993 144.143 156.402 143.976 155.822 143.813L154.902 143.557L154.604 144.464C152.857 149.758 151.071 155.273 150.337 157.596L149.157 157.264C150.012 154.852 151.855 149.289 153.515 144.252L153.84 143.268L152.844 142.979L152.266 142.812H152.265C151.939 142.706 151.61 142.615 151.277 142.534L151.821 140.893C152.365 141.087 152.917 141.254 153.478 141.393L154.382 141.616L154.668 140.729C154.77 140.413 154.88 140.084 154.972 139.765L155.248 138.805L154.289 138.527L153.71 138.359C153.393 138.258 153.072 138.17 152.748 138.091L153.305 136.408C153.687 136.538 154.176 136.695 154.755 136.864L155.929 137.207L156.032 135.989C156.351 132.248 156.773 127.063 157.093 122.916L158.295 123.183Z" fill="black" stroke="black" stroke-width="2"/>
<path d="M204.371 76.4441L154.903 59.1502C153.141 58.5329 151.275 58.2692 149.412 58.3739C147.548 58.4787 145.724 58.95 144.042 59.7608C142.361 60.5717 140.856 61.7062 139.613 63.0995C138.37 64.4928 137.414 66.1176 136.798 67.8809L107.818 150.899" stroke="black" stroke-width="2" stroke-linecap="round" stroke-linejoin="round"/>
<path d="M99.9866 155.123C98.8203 154.698 97.817 153.917 97.1187 152.891C96.4204 151.864 96.0626 150.643 96.0959 149.402C96.1104 148.766 96.2286 148.137 96.4459 147.539L107.57 151.6L145.615 165.442C145.404 166.029 145.286 166.646 145.265 167.269C145.231 168.678 145.699 170.052 146.587 171.145C147.474 172.239 148.723 172.979 150.107 173.235C151.492 173.49 152.921 173.242 154.14 172.537C155.358 171.831 156.285 170.714 156.755 169.386" stroke="black" stroke-width="2" stroke-linecap="round" stroke-linejoin="round"/>
<path d="M183.391 93.4218L210.114 103.122L213.107 94.5588C213.723 92.7954 213.987 90.9277 213.881 89.0625C213.776 87.1972 213.304 85.3711 212.493 83.6885C211.681 82.0059 210.547 80.4999 209.153 79.2565C207.76 78.0132 206.135 77.057 204.372 76.4425C202.985 75.9542 201.53 75.6853 200.06 75.6456C197.049 75.5658 194.091 76.4457 191.613 78.1583C189.134 79.8709 187.264 82.3275 186.273 85.1733L183.386 93.4167L156.76 169.404" stroke="black" stroke-width="2" stroke-linecap="round" stroke-linejoin="round"/>
<path d="M149.322 66.4062L172.048 74.3096" stroke="black" stroke-width="2" stroke-linecap="round" stroke-linejoin="round"/>
<path d="M142.998 75.8906L165.724 83.794" stroke="black" stroke-width="2" stroke-linecap="round" stroke-linejoin="round"/>
<path d="M135.754 96.7344L158.484 104.643" stroke="black" stroke-width="2" stroke-linecap="round" stroke-linejoin="round"/>
<path d="M132.131 107.164L149.672 113.265" stroke="black" stroke-width="2" stroke-linecap="round" stroke-linejoin="round"/>
<path d="M139.377 86.3164L168.027 96.2806" stroke="black" stroke-width="2" stroke-linecap="round" stroke-linejoin="round"/>
<path d="M99.9863 155.121L149.166 173.014" stroke="black" stroke-width="2" stroke-linecap="round" stroke-linejoin="round"/>
</svg>
