<svg width="310" height="232" viewBox="0 0 310 232" fill="none" xmlns="http://www.w3.org/2000/svg">
<path d="M217.576 109.694C217.474 105.39 216.37 101.169 214.352 97.366C212.333 93.5631 209.456 90.2831 205.949 87.7864C201.261 84.4255 195.666 82.6666 190.076 81.9272C190.519 78.7725 190.738 75.5903 190.731 72.4046C190.73 66.2392 188.401 60.3017 184.209 55.7808C180.017 51.2598 174.273 48.489 168.126 48.0231C161.979 47.5572 155.883 49.4304 151.058 53.268C146.233 57.1055 143.035 62.624 142.105 68.7188C141.976 69.5366 141.83 70.4665 141.657 71.5196C141.225 74.0907 140.783 76.7458 134.067 83.2324C130.836 85.6467 117.825 89.4333 106.595 91.2146C102.64 91.8365 99.0374 93.8503 96.4354 96.8931C93.8334 99.936 92.4031 103.808 92.4023 107.812V166.964C92.4023 171.421 94.1727 175.695 97.3238 178.847C100.475 181.998 104.749 183.769 109.205 183.769H173.296C180.269 183.755 187.014 181.28 192.342 176.781C197.67 172.281 201.239 166.046 202.421 159.172C202.869 158.612 203.306 158.052 203.709 157.492C206.741 153.16 208.372 148.003 208.38 142.715C209.268 141.479 210.046 140.167 210.704 138.794C212.752 134.606 213.729 129.975 213.549 125.317C216.384 120.612 217.784 115.183 217.576 109.694Z" fill="#23A094" stroke="black" stroke-width="2" stroke-miterlimit="10"/>
<path d="M186.06 152.068V154.168C186.06 157.554 184.716 160.801 182.322 163.195C179.928 165.589 176.681 166.934 173.296 166.934H109.205V107.782C109.205 107.782 137.355 103.357 145.577 95.4586C153.799 87.5605 156.964 81.8581 158.23 74.268C158.414 73.1477 158.571 72.1563 158.711 71.2768C158.987 69.4682 159.901 67.818 161.288 66.6251C162.675 65.4322 164.443 64.7753 166.273 64.7734V64.7734C167.277 64.772 168.271 64.9683 169.199 65.3512C170.127 65.7341 170.971 66.296 171.682 67.005C172.393 67.714 172.957 68.556 173.343 69.4831C173.728 70.4103 173.927 71.4042 173.929 72.4083C173.929 76.475 173.492 81.6004 171.829 86.2833C168.35 96.0916 158.23 108.426 158.23 108.426L186.06 109.059L181.636 106.214" stroke="black" stroke-width="2" stroke-linecap="round" stroke-linejoin="round"/>
<path d="M172.781 152.39C172.781 152.39 186.011 153.583 189.858 147.959C191.03 146.337 191.635 144.373 191.578 142.372C191.521 140.371 190.807 138.444 189.545 136.891" stroke="black" stroke-width="2" stroke-linecap="round" stroke-linejoin="round"/>
<path d="M177.205 138.786C177.205 138.786 191.655 139.693 195.548 131.504C198.712 124.86 194.921 121.062 194.921 121.062" stroke="black" stroke-width="2" stroke-linecap="round" stroke-linejoin="round"/>
<path d="M179.736 123.289C179.736 123.289 191.122 123.602 197.765 118.247C201.282 115.396 202.806 106.226 196.18 101.482C190.54 97.4487 179.103 97.684 173.093 99.9022C167.083 102.12 166.137 108.439 166.137 108.439" stroke="black" stroke-width="2" stroke-linecap="round" stroke-linejoin="round"/>
<path d="M157.598 78.37C157.598 78.37 163.96 79.1766 165.187 74.2585C166.772 67.9288 162.661 65.957 162.661 65.957" stroke="black" stroke-width="2" stroke-linecap="round" stroke-linejoin="round"/>
</svg>
