<svg width="400" height="292" viewBox="0 0 400 292" fill="none" xmlns="http://www.w3.org/2000/svg">
<path d="M260.085 88.4961C256.611 84.2122 252.119 80.8672 247.018 78.7671C246.754 75.3084 245.456 72.009 243.292 69.2968C241.129 66.5847 238.201 64.5849 234.887 63.557C234.235 63.3573 233.572 63.1971 232.9 63.0772C230.775 59.0905 227.182 56.0868 222.881 54.7016C220.576 51.9267 217.455 49.9496 213.961 49.0521C209.657 47.944 205.092 48.5331 201.211 50.6976L200.719 50.5376C197.704 49.6179 194.495 49.5401 191.439 50.3126C188.384 51.085 185.597 52.6784 183.382 54.9202C178.075 54.412 172.721 54.7826 167.536 56.0168C165.222 56.5583 163.088 57.6892 161.34 59.2996C159.593 60.91 158.293 62.9451 157.565 65.207C156.999 65.4393 156.429 65.6851 155.856 65.949C154.214 66.7053 152.736 67.7778 151.508 69.1051C150.28 70.4324 149.326 71.9886 148.699 73.6849C148.073 75.3811 147.787 77.1841 147.857 78.9909C147.928 80.7978 148.354 82.573 149.11 84.2154C150.331 86.8756 152.373 89.074 154.936 90.487C154.776 90.9603 154.632 91.4416 154.509 91.9365C153.632 95.594 154.059 98.8168 154.459 101.669C154.661 102.992 154.809 104.23 154.863 105.523C154.895 106.988 154.757 108.451 154.453 109.884C153.904 113.191 153.146 117.72 154.461 124.511C155.555 130.124 158.748 139.728 160.956 146.038L154.523 157.355C153.458 159.235 152.85 161.34 152.749 163.499C152.649 165.657 153.057 167.809 153.943 169.781C154.828 171.752 156.165 173.488 157.846 174.847C159.526 176.206 161.503 177.15 163.617 177.604L207.895 187.159L208.084 187.197C211.088 187.801 214.208 187.387 216.95 186.018C219.692 184.65 221.899 182.406 223.222 179.642C225.528 174.816 233.194 158.495 234.927 151.101C236.104 146.067 237.342 134.458 239.248 111.045L239.37 109.511C239.486 108.692 239.649 107.881 239.859 107.081C241.74 108.901 244.103 110.143 246.668 110.662C248.666 111.065 250.729 111.019 252.707 110.527C254.685 110.035 256.528 109.109 258.104 107.816C260.921 105.511 262.711 102.185 263.082 98.565C263.453 94.9447 262.376 91.3246 260.085 88.4961Z" fill="#FFC900" stroke="black" stroke-width="2" stroke-miterlimit="10"/>
<path d="M182.648 115.894C182.648 115.894 184.722 96.0873 186.452 86.4311C187.677 79.604 190.728 70.5932 192.41 65.8945C192.715 65.0427 193.337 64.341 194.146 63.9348C194.954 63.5286 195.888 63.449 196.754 63.7125C197.583 63.9643 198.29 64.5118 198.742 65.251C199.193 65.9902 199.356 66.8693 199.201 67.7212C197.937 74.6482 195.31 92.8546 196.874 99.1762C200.01 82.5608 202.593 73.1093 205.873 65.0295C206.464 63.5848 208.292 61.8088 210.515 62.3924C212.495 62.9082 213.388 64.8905 213.06 66.683L207.899 101.607" stroke="black" stroke-width="2" stroke-linecap="round" stroke-linejoin="round"/>
<path d="M210.465 84.4568L214.419 69.6356C214.771 68.9333 215.343 68.3661 216.049 68.0218C216.755 67.6774 217.554 67.5749 218.324 67.7302C219.245 67.9155 220.055 68.4552 220.581 69.233C221.107 70.0107 221.306 70.964 221.135 71.887C219.882 78.6195 218.477 92.2455 216.003 103.456C218.655 95.9144 224.15 83.9314 226.661 78.5804C227.018 77.8211 227.637 77.2163 228.405 76.8773C229.173 76.5382 230.037 76.4876 230.839 76.7348V76.7348C231.685 76.9927 232.401 77.5633 232.84 78.3303C233.28 79.0974 233.411 80.0031 233.206 80.8631C231.553 87.8147 226.11 102.842 225.662 108.369C225.08 115.49 223.039 141.478 221.513 147.983C219.988 154.487 210.804 173.719 210.804 173.719L166.521 164.144L176.081 147.343C176.081 147.343 169.471 129.411 168.006 121.878C166.54 114.345 168.921 112.058 168.643 104.975C168.365 97.8919 166.001 93.7969 170.623 93.0284C175.376 92.2349 178.186 103.067 178.416 115.665C178.416 115.665 191.637 115.561 197.549 134.846" stroke="black" stroke-width="2" stroke-linecap="round" stroke-linejoin="round"/>
<path d="M191.979 99.0505C191.979 99.0505 213.588 101.703 220.419 105.846" stroke="black" stroke-width="2" stroke-linecap="round" stroke-linejoin="round"/>
<path d="M200.147 114.523C200.147 114.523 201.657 119.724 210.735 126.449" stroke="black" stroke-width="2" stroke-linecap="round" stroke-linejoin="round"/>
<path d="M168.601 103.063C168.601 103.063 171.346 101.059 171.394 98.7283C171.442 96.3972 170.126 95.4908 168.001 95.4887" stroke="black" stroke-width="2" stroke-linecap="round" stroke-linejoin="round"/>
<path d="M184.203 68.9502C184.203 68.9502 178.516 67.594 170.693 69.4219" stroke="black" stroke-width="2" stroke-linecap="round" stroke-linejoin="round"/>
<path d="M177.314 75.6478C177.314 75.6478 170.315 74.4536 161.634 78.4495" stroke="black" stroke-width="2" stroke-linecap="round" stroke-linejoin="round"/>
<path d="M238.411 90.5152C242.753 91.3785 246.651 93.7469 249.417 97.2028" stroke="black" stroke-width="2" stroke-linecap="round" stroke-linejoin="round"/>
</svg>
