<svg width="302" height="232" viewBox="0 0 302 232" fill="none" xmlns="http://www.w3.org/2000/svg">
<path d="M222.968 173.366C233.962 165.755 239.501 152.347 237.441 138.127C236.352 130.663 233.274 123.63 228.53 117.766C230.372 116.417 231.87 114.652 232.903 112.616C233.935 110.579 234.473 108.327 234.473 106.043C234.47 102.686 233.306 99.4327 231.181 96.8347C229.055 94.2364 226.098 92.4521 222.809 91.7843C224.485 89.7094 225.399 87.1217 225.398 84.4539C225.398 84.4149 225.398 84.372 225.398 84.329C225.398 84.2861 225.398 84.2471 225.398 84.2042C225.399 81.7427 224.624 79.3436 223.183 77.3482C221.742 75.3527 219.708 73.8626 217.372 73.0897C217.343 70.0047 216.098 67.0558 213.907 64.8845C211.716 62.7132 208.756 61.4952 205.672 61.4953H205.465C202.381 61.4952 199.422 62.7132 197.231 64.8845C195.04 67.0558 193.794 70.0047 193.766 73.0897C193.104 73.3121 192.463 73.5928 191.851 73.9284C188.41 69.8788 183.975 66.7957 178.981 64.983L178.665 64.8698L178.45 64.7918H178.4H178.353L169.293 61.862L169.137 61.8113C168.712 61.667 168.287 61.5265 167.862 61.4212L167.413 61.3002C163.946 60.3643 160.341 60.0434 156.763 60.3523C155.866 58.6456 154.564 57.1853 152.972 56.0999C152.095 53.9444 150.595 52.0994 148.664 50.8006C146.734 49.5019 144.46 48.8083 142.134 48.8086C139.807 48.8083 137.533 49.5019 135.603 50.8006C133.672 52.0994 132.173 53.9444 131.295 56.0999C130.23 56.828 129.291 57.7254 128.515 58.7567L126.089 56.6695L126.015 56.6032C125.797 56.412 125.578 56.2131 125.352 56.0414L125.313 56.0102L125.071 55.823C121.741 53.2607 117.742 51.7138 113.554 51.3678C113.352 51.3483 113.165 51.3366 112.954 51.3288C99.8383 50.4549 85.1315 60.0597 78.5171 73.9128C72.8544 85.7725 74.7848 98.1005 83.2712 104.791L86.2742 107.385C85.0444 108.483 84.0611 109.829 83.3889 111.335C82.7167 112.84 82.3708 114.471 82.3742 116.12C82.3869 116.967 82.2551 117.81 81.9842 118.613C79.2361 119.053 76.7347 120.458 74.9292 122.577C73.1236 124.695 72.1322 127.388 72.1328 130.172V130.492C72.1331 133.275 73.1249 135.967 74.9304 138.085C76.7358 140.203 79.2367 141.608 81.9842 142.048C82.2547 142.85 82.3866 143.693 82.3742 144.54C82.3739 146.885 83.078 149.177 84.3951 151.117C85.7122 153.057 87.5815 154.556 89.7607 155.421C89.7091 155.87 89.6831 156.322 89.6827 156.775C89.6821 159.072 90.3574 161.319 91.6245 163.235C92.8915 165.15 94.6942 166.651 96.808 167.549C97.3265 170.215 98.7556 172.617 100.85 174.345C102.945 176.072 105.575 177.017 108.29 177.018C111.005 177.018 113.636 176.073 115.731 174.346C117.827 172.618 119.256 170.216 119.775 167.549C121.465 166.829 122.963 165.721 124.147 164.314C125.33 162.908 126.166 161.243 126.588 159.455C127.915 160.268 129.304 160.975 130.742 161.569C130.898 161.635 131.058 161.698 131.221 161.76C132.22 162.152 133.24 162.487 134.275 162.767L142.742 165.521C142.964 165.607 143.19 165.693 143.417 165.767L143.518 165.802C144.161 166.013 144.822 166.167 145.492 166.262C146.201 166.41 146.919 166.535 147.636 166.652C147.568 167.223 147.532 167.798 147.531 168.373C147.535 172.226 149.067 175.92 151.791 178.644C154.514 181.368 158.207 182.9 162.059 182.905C164.811 182.902 167.506 182.119 169.83 180.646C172.156 179.173 174.015 177.071 175.194 174.583C181.995 179.831 190.014 182.659 198.204 182.659C198.792 182.659 199.374 182.659 199.974 182.616C204.127 182.418 208.208 181.453 212.009 179.768C212.365 179.608 212.712 179.433 213.047 179.242L219.264 175.699C220.172 175.235 221.061 174.724 221.923 174.178C222.287 173.927 222.636 173.657 222.968 173.366Z" fill="#F1F333" stroke="black" stroke-width="2" stroke-miterlimit="10"/>
<path d="M225.847 138.798C227.333 149.082 223.141 158.304 215.781 163.091L213.594 164.339C210.893 165.665 207.948 166.421 204.943 166.559C191.293 167.242 178.478 155.897 176.364 141.268C174.847 130.777 179.242 121.402 186.894 116.69C190.031 114.764 193.606 113.667 197.284 113.503C210.914 112.812 223.749 124.169 225.847 138.798ZM216.799 151.653L214.779 137.667L201.359 138.338L201.749 141.069L208.145 140.749C207.919 144.131 206.694 147.56 202.716 147.771C198.309 147.989 194.874 144.026 194.136 139.009C193.399 133.992 195.661 129.747 200.068 129.525C201.605 129.424 203.127 129.875 204.361 130.796C205.596 131.717 206.462 133.048 206.804 134.55L213.484 134.214C212.794 130.422 208.699 123.892 199.444 124.352C190.474 124.797 186.746 131.569 187.912 139.625C189.035 147.381 194.199 153.4 201.445 153.037C208.691 152.675 209.635 146.351 209.608 143.136L210.883 151.953L216.799 151.653Z" fill="#FF90E8"/>
<path d="M213.609 164.338L215.797 163.09C215.093 163.548 214.362 163.965 213.609 164.338Z" fill="#FFC900"/>
<path d="M213.609 164.337L207.189 167.996C204.704 169.095 202.037 169.723 199.323 169.849C185.673 170.532 172.857 159.183 170.744 144.558C169.352 134.941 172.928 126.265 179.421 121.252L186.89 116.676V116.699C179.25 121.412 174.854 130.787 176.36 141.277C178.474 155.906 191.297 167.251 204.939 166.568C207.951 166.429 210.903 165.669 213.609 164.337Z" fill="black"/>
<path d="M215.781 163.09C223.14 158.291 227.332 149.08 225.847 138.797C223.733 124.167 210.914 112.823 197.268 113.502" fill="#FF90E8"/>
<path d="M215.781 163.09C223.14 158.291 227.332 149.08 225.847 138.797C223.733 124.167 210.914 112.823 197.268 113.502" stroke="black" stroke-width="2" stroke-linecap="round" stroke-linejoin="round"/>
<path d="M197.268 113.504C193.591 113.668 190.016 114.765 186.878 116.691C179.238 121.404 174.843 130.778 176.349 141.269C178.462 155.898 191.285 167.243 204.928 166.56C207.933 166.422 210.877 165.667 213.578 164.34C214.331 163.967 215.061 163.551 215.766 163.092" stroke="black" stroke-width="2" stroke-linecap="round" stroke-linejoin="round"/>
<path d="M179.324 121.282L179.391 121.24L186.863 116.663L187.928 116.012" stroke="black" stroke-width="2" stroke-linecap="round" stroke-linejoin="round"/>
<path d="M179.402 121.254C172.908 126.267 169.332 134.943 170.724 144.56C172.838 159.185 185.657 170.534 199.303 169.851C202.017 169.725 204.684 169.097 207.17 167.998L213.589 164.339L215.777 163.09L215.925 163.005" stroke="black" stroke-width="2" stroke-linecap="round" stroke-linejoin="round"/>
<path d="M174.73 74.8946C184.288 78.0779 190.474 89.2824 189.745 104.711C188.727 126.199 174.675 147.874 158.42 153.028C154.325 154.327 150.476 154.456 147.02 153.574L137.66 150.527C141.065 151.354 144.852 151.214 148.877 149.934C165.132 144.781 179.179 123.106 180.197 101.618C180.919 86.3836 174.901 75.273 165.549 71.9258L174.73 74.8946Z" fill="black"/>
<path d="M137.657 150.525C127.306 148.005 120.477 136.481 121.242 120.307C122.256 98.8187 136.307 77.1437 152.563 71.9864C156.907 70.6092 160.975 70.5507 164.586 71.5962L165.514 71.8927H165.546C174.905 75.24 180.915 86.3504 180.194 101.585C179.176 123.073 165.128 144.748 148.873 149.901C144.848 151.212 141.069 151.352 137.657 150.525ZM165.955 100.516C166.053 94.988 162.792 86.3428 151.787 89.8342C141.12 93.2129 135.079 104.589 134.517 116.425C133.979 127.816 138.624 135.362 147.262 132.623C155.901 129.884 158.529 120.03 159.259 115.18L158.647 128.133L165.666 125.909L166.638 105.361L150.648 110.433L150.46 114.451L158.073 112.032C156.993 117.213 154.727 122.772 149.989 124.274C144.743 125.936 141.639 120.981 141.986 113.612C142.333 106.243 146.011 99.1389 151.256 97.477C156.166 95.9164 157.976 99.9659 157.999 103.036L165.955 100.516Z" fill="#FF90E8"/>
<path d="M165.514 71.9098L164.586 71.6133C164.898 71.6991 165.206 71.8006 165.514 71.9098Z" fill="#FFC900"/>
<path d="M151.749 89.8872C162.754 86.376 166.015 95.0406 165.917 100.569L157.961 103.093C157.938 100.023 156.128 95.9732 151.218 97.5337C145.973 99.1957 142.299 106.3 141.948 113.669C141.597 121.038 144.705 125.993 149.951 124.331C154.689 122.829 156.971 117.27 158.036 112.089L150.419 114.504L150.606 110.486L166.596 105.414L165.625 125.962L158.605 128.186L159.217 115.233C158.488 120.082 155.851 129.937 147.221 132.676C138.59 135.414 133.937 127.869 134.476 116.478C135.041 104.642 141.082 93.2658 151.749 89.8872Z" fill="black"/>
<path d="M147.02 153.574C150.475 154.456 154.324 154.327 158.419 153.028C174.674 147.874 188.726 126.199 189.744 104.711C190.473 89.2823 184.284 78.0779 174.729 74.8945" stroke="black" stroke-width="2" stroke-linecap="round" stroke-linejoin="round"/>
<path d="M165.514 71.9111C165.206 71.8019 164.898 71.7005 164.586 71.6147C160.975 70.5496 156.907 70.6081 152.562 72.0048" stroke="black" stroke-width="2" stroke-linecap="round" stroke-linejoin="round"/>
<path d="M152.561 71.9882C136.306 77.1456 122.254 98.8207 121.24 120.308C120.46 136.479 127.304 148.007 137.655 150.527C141.06 151.354 144.847 151.214 148.871 149.934C165.127 144.781 179.174 123.106 180.192 101.618C180.914 86.3836 174.896 75.273 165.544 71.9258" stroke="black" stroke-width="2" stroke-linecap="round" stroke-linejoin="round"/>
<path d="M164.527 71.5977L164.582 71.6133L165.51 71.9136L165.545 71.9253L174.726 74.8942" stroke="black" stroke-width="2" stroke-linecap="round" stroke-linejoin="round"/>
<path d="M147.012 153.598L147.109 153.633" stroke="black" stroke-width="2" stroke-linecap="round" stroke-linejoin="round"/>
<path d="M135.195 149.723L137.652 150.522L147.02 153.573" stroke="black" stroke-width="2" stroke-linecap="round" stroke-linejoin="round"/>
<path d="M121.958 67.5155C125.686 70.7847 126.353 77.0423 123.077 83.9006C118.518 93.4508 108.011 100.598 99.6771 99.833C97.7723 99.6986 95.9437 99.0308 94.4004 97.9059L90.7383 94.7344C92.2645 95.8276 94.0642 96.4761 95.937 96.6068C104.291 97.387 114.793 90.2245 119.337 80.6742C122.57 73.9057 121.962 67.7184 118.358 64.418L121.958 67.5155Z" fill="black"/>
<path d="M90.7034 94.7325C86.4875 91.6114 85.5904 85.0848 89.0224 77.8987C93.5815 68.3486 104.088 61.2016 112.422 61.9662C114.437 62.1002 116.363 62.8414 117.949 64.0924L118.311 64.4045C121.915 67.7049 122.523 73.8922 119.29 80.6608C114.731 90.2108 104.228 97.3578 95.8903 96.5935C94.0227 96.4639 92.2275 95.8197 90.7034 94.7325ZM113.074 77.4579C114.17 74.9689 114.341 70.4357 108.686 69.9091C103.203 69.4058 98.2926 73.4202 95.781 78.6712C93.3669 83.7427 94.0339 88.0341 98.4721 88.4474C102.91 88.8611 105.983 84.8897 107.239 82.8299L104.49 88.5842L108.093 88.9158L112.453 79.783L104.236 79.034L103.386 80.8168L107.286 81.1757C105.808 83.3214 103.721 85.4085 101.284 85.1862C98.5891 84.9404 98.125 82.1003 99.6888 78.8233C101.253 75.5463 104.275 73.03 106.97 73.2758C109.493 73.506 109.544 75.6868 108.967 77.0834L113.074 77.4579Z" fill="#FF90E8"/>
<path d="M118.327 64.4052L117.965 64.0938C118.089 64.1911 118.21 64.2962 118.327 64.4052Z" fill="#FFC900"/>
<path d="M108.698 69.8963C114.353 70.4152 114.181 74.9679 113.085 77.4452L108.994 77.055C109.571 75.6584 109.521 73.4776 106.997 73.2475C104.302 73.0017 101.28 75.5218 99.7161 78.795C98.1522 82.0681 98.6163 84.9121 101.311 85.1578C103.749 85.3802 105.835 83.2931 107.313 81.1474L103.413 80.7885L104.263 79.0056L112.481 79.7546L108.121 88.8875L104.517 88.5559L107.267 82.8015C106.011 84.8613 102.934 88.8249 98.4994 88.4191C94.0651 88.0134 93.3942 83.7066 95.8083 78.6428C98.2926 73.4074 103.203 69.4048 108.698 69.8963Z" fill="black"/>
<path d="M94.3672 97.906C95.9105 99.0308 97.739 99.699 99.6439 99.8331C107.994 100.613 118.5 93.4508 123.044 83.9007C126.32 77.0423 125.653 70.7848 121.924 67.5156" stroke="black" stroke-width="2" stroke-linecap="round" stroke-linejoin="round"/>
<path d="M118.329 64.4031C118.212 64.2939 118.09 64.1885 117.966 64.091C116.381 62.84 114.454 62.0988 112.439 61.9648" stroke="black" stroke-width="2" stroke-linecap="round" stroke-linejoin="round"/>
<path d="M112.438 61.9683C104.088 61.1881 93.5816 68.3507 89.0381 77.9008C85.6061 85.0869 86.503 91.6174 90.7189 94.7347C92.2451 95.828 94.0448 96.4764 95.9176 96.6071C104.271 97.3874 114.774 90.2248 119.317 80.6746C122.551 73.906 121.942 67.7187 118.339 64.4183" stroke="black" stroke-width="2" stroke-linecap="round" stroke-linejoin="round"/>
<path d="M117.941 64.0742L117.961 64.0898L118.327 64.4019L118.339 64.4136L121.935 67.5151" stroke="black" stroke-width="2" stroke-linecap="round" stroke-linejoin="round"/>
<path d="M94.3594 97.9102L94.3988 97.9415" stroke="black" stroke-width="2" stroke-linecap="round" stroke-linejoin="round"/>
<path d="M89.7383 93.8984L90.7016 94.7334L94.3676 97.9012" stroke="black" stroke-width="2" stroke-linecap="round" stroke-linejoin="round"/>
<path d="M104.514 129.435C98.2112 129.435 94.2683 136.14 94.2683 143.479H94.007C94.007 136.133 90.068 129.435 83.7617 129.435V129.115C90.068 129.115 94.007 122.408 94.007 115.07H94.2683C94.2683 122.412 98.2112 129.115 104.514 129.115" fill="#FFC900"/>
<path d="M104.514 129.435C98.2112 129.435 94.2683 136.14 94.2683 143.479H94.007C94.007 136.133 90.068 129.435 83.7617 129.435V129.115C90.068 129.115 94.007 122.408 94.007 115.07H94.2683C94.2683 122.412 98.2112 129.115 104.514 129.115" stroke="black" stroke-width="2" stroke-linecap="round" stroke-linejoin="round"/>
<path d="M213.683 83.4503C208.741 83.4503 205.657 88.7051 205.657 94.4595H205.45C205.45 88.7051 202.365 83.4503 197.424 83.4503V83.2006C202.365 83.2006 205.45 77.9457 205.45 72.1914H205.657C205.657 77.9457 208.741 83.2006 213.683 83.2006" fill="#FFC900"/>
<path d="M213.683 83.4503C208.741 83.4503 205.657 88.7051 205.657 94.4595H205.45C205.45 88.7051 202.365 83.4503 197.424 83.4503V83.2006C202.365 83.2006 205.45 77.9457 205.45 72.1914H205.657C205.657 77.9457 208.741 83.2006 213.683 83.2006" stroke="black" stroke-width="2" stroke-linecap="round" stroke-linejoin="round"/>
<path d="M108.223 147.184V164.259" stroke="black" stroke-width="2" stroke-linecap="round" stroke-linejoin="round"/>
<path d="M101.312 155.715H115.134" stroke="black" stroke-width="2" stroke-linecap="round" stroke-linejoin="round"/>
<path d="M142.094 59.457V70.002" stroke="black" stroke-width="2" stroke-linecap="round" stroke-linejoin="round"/>
<path d="M137.828 64.7305H146.361" stroke="black" stroke-width="2" stroke-linecap="round" stroke-linejoin="round"/>
<path d="M161.992 170.13C163.555 170.13 164.823 168.862 164.823 167.297C164.823 165.733 163.555 164.465 161.992 164.465C160.428 164.465 159.16 165.733 159.16 167.297C159.16 168.862 160.428 170.13 161.992 170.13Z" stroke="black" stroke-width="2" stroke-linecap="round" stroke-linejoin="round"/>
<path d="M219.914 107.879C221.484 107.879 222.757 106.606 222.757 105.036C222.757 103.465 221.484 102.191 219.914 102.191C218.343 102.191 217.07 103.465 217.07 105.036C217.07 106.606 218.343 107.879 219.914 107.879Z" stroke="black" stroke-width="2" stroke-linecap="round" stroke-linejoin="round"/>
<path d="M111.864 112.123C113.178 112.123 114.242 111.057 114.242 109.743C114.242 108.428 113.178 107.363 111.864 107.363C110.55 107.363 109.484 108.428 109.484 109.743C109.484 111.057 110.55 112.123 111.864 112.123Z" stroke="black" stroke-width="2" stroke-linecap="round" stroke-linejoin="round"/>
<path d="M214.778 137.666L216.799 151.652L210.914 151.944L209.638 143.128C209.673 146.342 208.725 152.666 201.476 153.029C194.225 153.392 189.066 147.372 187.943 139.617C186.773 131.561 190.524 124.792 199.475 124.343C208.714 123.883 212.809 130.414 213.515 134.206L206.834 134.541C206.492 133.039 205.626 131.708 204.392 130.787C203.158 129.866 201.636 129.416 200.099 129.517C195.692 129.739 193.442 133.983 194.167 139C194.892 144.017 198.328 147.973 202.747 147.762C206.725 147.563 207.949 144.134 208.176 140.74L201.779 141.06L201.39 138.329L214.778 137.666Z" fill="black"/>
</svg>
