<svg width="310" height="232" viewBox="0 0 310 232" fill="none" xmlns="http://www.w3.org/2000/svg">
<path d="M137.354 72.8867H74.3668C68.0912 72.8867 63.0039 77.9877 63.0039 84.2801V147.436C63.0039 153.728 68.0912 158.829 74.3668 158.829H137.354C143.629 158.829 148.717 153.728 148.717 147.436V84.2801C148.717 77.9877 143.629 72.8867 137.354 72.8867Z" fill="#FF90E8" stroke="black" stroke-width="2" stroke-miterlimit="10"/>
<path d="M235.635 72.8867H172.648C166.373 72.8867 161.285 77.9877 161.285 84.2801V147.436C161.285 153.728 166.373 158.829 172.648 158.829H235.635C241.91 158.829 246.998 153.728 246.998 147.436V84.2801C246.998 77.9877 241.91 72.8867 235.635 72.8867Z" fill="#FF90E8" stroke="black" stroke-width="2" stroke-miterlimit="10"/>
<path d="M161.227 116.426C167.598 123.359 172.248 132.719 173.665 141.956C173.665 141.956 173.032 130.498 178.11 123.167" stroke="black" stroke-width="2" stroke-linecap="round" stroke-linejoin="round"/>
<path d="M112.45 142.634C112.45 142.634 111.326 114.267 132.343 106.703C137.541 104.824 143.867 105.861 148.799 107.684" stroke="black" stroke-width="2" stroke-linecap="round" stroke-linejoin="round"/>
<path d="M93.9844 107.449C109.057 112.556 112.281 142.648 112.281 142.648" stroke="black" stroke-width="2" stroke-linecap="round" stroke-linejoin="round"/>
<path d="M83.7734 107.913C85.5674 107.109 87.5122 106.697 89.4775 106.707" stroke="black" stroke-width="2" stroke-linecap="round" stroke-linejoin="round"/>
<path d="M77.418 112.961C78.2761 111.913 79.2339 110.952 80.2776 110.09" stroke="black" stroke-width="2" stroke-linecap="round" stroke-linejoin="round"/>
<path d="M204.14 146.214C213.885 146.214 221.784 144.729 221.784 142.896C221.784 141.064 213.885 139.578 204.14 139.578C194.396 139.578 186.496 141.064 186.496 142.896C186.496 144.729 194.396 146.214 204.14 146.214Z" fill="black" stroke="black" stroke-width="2" stroke-linecap="round" stroke-linejoin="round"/>
<path d="M204.141 132.376C216.297 132.376 226.151 122.496 226.151 110.307C226.151 98.1189 216.297 88.2383 204.141 88.2383C191.985 88.2383 182.131 98.1189 182.131 110.307C182.131 122.496 191.985 132.376 204.141 132.376Z" stroke="black" stroke-width="2" stroke-linecap="round" stroke-linejoin="round"/>
<path d="M215.265 97.6499C212.278 94.9333 208.388 93.4313 204.355 93.4375C202.985 93.4373 201.62 93.6102 200.293 93.9523" stroke="black" stroke-width="2" stroke-linecap="round" stroke-linejoin="round"/>
<path d="M218.675 102C218.363 101.422 218.017 100.864 217.637 100.328" stroke="black" stroke-width="2" stroke-linecap="round" stroke-linejoin="round"/>
<path d="M211.81 121.102C213.496 123.638 210.854 125.262 210.854 125.262C208.581 126.622 205.983 127.339 203.336 127.336C199.954 127.335 196.675 126.165 194.054 124.023C191.432 121.88 189.628 118.896 188.945 115.574C192.603 117.93 193.506 117.479 197.348 117.25C201.189 117.021 202.055 119.993 201.961 121.455C201.961 121.455 209.55 117.705 211.81 121.102Z" fill="black" stroke="black" stroke-width="2" stroke-linecap="round" stroke-linejoin="round"/>
</svg>
