<svg width="310" height="232" viewBox="0 0 310 232" fill="none" xmlns="http://www.w3.org/2000/svg">
<path d="M115.203 187.415C112.53 187.418 109.93 186.54 107.805 184.916L92.7331 173.423C90.3369 171.599 88.7 168.953 88.1371 165.995L84.8202 148.342C84.4258 146.248 84.5867 144.087 85.2869 142.074C85.9871 140.062 87.2021 138.267 88.8111 136.87L96.7134 130.004L95.8749 129.346C94.1567 127.985 92.8366 126.187 92.0533 124.141C91.2699 122.094 91.0522 119.874 91.4231 117.715C91.7939 115.555 92.7395 113.535 94.1606 111.866C95.5818 110.198 97.426 108.943 99.4997 108.233L105.704 106.111C105.22 104.511 105.069 102.829 105.262 101.169C105.455 99.5089 105.987 97.9061 106.825 96.4599C107.663 95.0137 108.789 93.755 110.133 92.7619C111.478 91.7687 113.012 91.0622 114.641 90.6862L120.086 89.4446L116.902 79.8035C116.34 78.1059 116.159 76.3056 116.37 74.53C116.581 72.7544 117.18 71.0469 118.124 69.5284C119.068 68.0098 120.335 66.7172 121.834 65.7421C123.333 64.767 125.028 64.1331 126.799 63.8854C128.101 58.3167 131.247 53.3513 135.727 49.796C140.207 46.2406 145.758 44.304 151.478 44.3008H200.085C206.796 44.3092 213.23 46.9786 217.975 51.7235C222.719 56.4683 225.388 62.9011 225.395 69.6106V118.203C225.388 124.913 222.719 131.346 217.975 136.09C213.23 140.835 206.796 143.505 200.085 143.513H196.737C195.314 146.024 193.048 147.949 190.34 148.948C187.632 149.947 184.658 149.954 181.946 148.968L176.108 146.845L174.993 149.716C174.192 151.772 172.847 153.573 171.104 154.926C169.36 156.278 167.282 157.133 165.09 157.399H164.846L161.381 171.375C161.296 171.704 161.206 172.028 161.094 172.352C160.539 173.995 159.64 175.501 158.457 176.77C157.273 178.038 155.833 179.04 154.232 179.709C152.631 180.377 150.906 180.696 149.172 180.645C147.438 180.595 145.734 180.175 144.175 179.414L133.248 174.776L123.695 183.977C121.418 186.182 118.373 187.415 115.203 187.415Z" fill="#FFC900" stroke="black" stroke-width="2"/>
<path d="M212.261 70.5122V119.105C212.262 120.826 211.923 122.53 211.265 124.12C210.607 125.71 209.642 127.155 208.425 128.372C207.208 129.589 205.763 130.554 204.173 131.213C202.583 131.872 200.879 132.211 199.158 132.211H182.552L182.239 132.365L174.034 115.598L192.28 112.414L178.12 103.558L200.511 74.8366L163.966 91.8902L158.553 73.0379L147.684 88.6429L137.383 82.61L137.446 82.5038V70.5122C137.446 68.7913 137.784 67.0872 138.442 65.4972C139.101 63.9071 140.066 62.4623 141.282 61.2452C142.499 60.0281 143.944 59.0627 145.534 58.404C147.124 57.7453 148.829 57.4062 150.55 57.4063H199.158C200.879 57.4062 202.583 57.7453 204.173 58.404C205.763 59.0627 207.208 60.0281 208.425 61.2452C209.642 62.4623 210.607 63.9071 211.265 65.4972C211.923 67.0872 212.262 68.7913 212.261 70.5122Z" fill="black"/>
<path d="M156.96 101.801L160.192 122.738L156.423 137.919L148.622 169.368L145.496 151.773L156.97 102.066H156.906L156.96 101.801Z" fill="black"/>
<path d="M156.959 102.059L145.485 151.766L145.379 151.171L156.895 102.08L156.959 102.059Z" fill="black"/>
<path d="M129.055 141.125L132.372 158.746L114.307 176.113L110.984 158.492L129.055 141.125Z" fill="black"/>
<path d="M137.445 82.5038V70.5122C137.445 68.7913 137.783 67.0872 138.441 65.4972C139.099 63.9071 140.064 62.4623 141.281 61.2452C142.498 60.0281 143.943 59.0627 145.533 58.404C147.123 57.7453 148.827 57.4062 150.549 57.4063H199.156C200.878 57.4062 202.582 57.7453 204.172 58.404C205.762 59.0627 207.207 60.0281 208.424 61.2452C209.641 62.4623 210.606 63.9071 211.264 65.4972C211.922 67.0872 212.26 68.7913 212.26 70.5122V119.105C212.26 120.826 211.922 122.53 211.264 124.12C210.606 125.71 209.641 127.155 208.424 128.372C207.207 129.589 205.762 130.554 204.172 131.213C202.582 131.872 200.878 132.211 199.156 132.211H182.55" stroke="black" stroke-width="2" stroke-linecap="round" stroke-linejoin="round"/>
<path d="M129.788 111.391L129.761 111.375L116.488 103.496L134.989 99.2244L127.591 76.87L137.382 82.6112L147.689 88.6441L158.552 73.0391L163.971 91.8914L200.511 74.8378L178.12 103.559L192.279 112.41L174.033 115.599L182.238 132.366L185.189 138.399L168.158 132.212L162.713 146.193L156.987 138.059" stroke="black" stroke-width="2" stroke-linecap="round" stroke-linejoin="round"/>
<path d="M156.895 102.078L129.759 111.374L102.555 120.697C102.555 120.697 107.995 125.006 115 130.423L95.8945 146.999L110.961 158.492" stroke="black" stroke-width="2" stroke-linecap="round" stroke-linejoin="round"/>
<path d="M129.055 141.125L145.47 151.854L145.486 151.764" stroke="black" stroke-width="2" stroke-linecap="round" stroke-linejoin="round"/>
<path d="M114.307 176.113L110.984 158.492L129.055 141.125L132.372 158.746" stroke="black" stroke-width="2" stroke-linecap="round" stroke-linejoin="round"/>
<path d="M148.621 169.371L148.786 169.472" stroke="black" stroke-width="2" stroke-linecap="round" stroke-linejoin="round"/>
<path d="M95.918 147L99.2349 164.621L114.328 176.114L132.373 158.748C132.373 158.748 144.881 166.988 148.612 169.36" stroke="black" stroke-width="2" stroke-linecap="round" stroke-linejoin="round"/>
<path d="M156.895 102.077L156.959 101.801L160.196 122.738L156.423 137.919L148.627 169.368L148.622 169.384L148.616 169.357L145.485 151.762L145.379 151.168L156.895 102.077Z" stroke="black" stroke-width="2" stroke-linecap="round" stroke-linejoin="round"/>
</svg>
