<svg width="310" height="232" viewBox="0 0 310 232" fill="none" xmlns="http://www.w3.org/2000/svg">
<path d="M215.644 119.216C214.45 118.152 213.043 117.354 211.517 116.875C209.991 116.395 208.381 116.244 206.792 116.433C204.562 116.692 197.129 117.118 192.41 115.772C190.194 115.137 188.861 113.687 185.312 109.358C183.735 107.432 181.944 105.252 179.732 102.917C178.54 101.658 177.264 100.481 175.911 99.3958C178.47 98.4594 180.81 97.0121 182.791 95.142C184.772 93.2719 186.352 91.018 187.433 88.5179C189.356 87.4485 191.089 86.0704 192.564 84.4386C193.985 82.875 195.15 81.0977 196.018 79.1719C198.766 77.5916 201.102 75.3836 202.834 72.7284C204.566 70.0731 205.646 67.0458 205.985 63.8937C206.323 60.7416 205.912 57.554 204.783 54.5914C203.655 51.6287 201.842 48.975 199.492 46.8468C197.142 44.7187 194.322 43.1765 191.262 42.3462C188.202 41.5159 184.99 41.421 181.886 42.0694C178.783 42.7177 175.877 44.0908 173.406 46.0766C170.934 48.0625 168.968 50.6046 167.666 53.4955C163.91 55.6596 160.95 58.9766 159.227 62.9548C156.382 64.5353 153.964 66.7836 152.181 69.5061C150.398 72.2285 149.304 75.3434 148.992 78.5827L138.15 90.3127C132.567 91.2649 127.202 93.2181 122.313 96.078C119.664 97.6593 117.133 99.43 114.739 101.376C114.562 101.512 114.394 101.657 114.227 101.807C113.084 102.763 112.01 103.733 111.054 104.699C105.701 110.092 103.471 115.577 104.427 120.961C104.692 122.452 105.187 123.893 105.896 125.231L99.4095 132.229C98.5645 133.145 97.8754 134.194 97.3698 135.334L91.5227 148.555C90.5731 150.702 90.3141 153.091 90.7813 155.392C91.2486 157.693 92.4191 159.792 94.131 161.399C95.843 163.006 98.0118 164.041 100.338 164.362C102.664 164.683 105.032 164.274 107.115 163.19L117.617 157.751L118.161 157.923C120.81 160.87 124.388 162.822 128.3 163.453C131.418 166.317 135.493 167.914 139.727 167.931C140.71 167.929 141.692 167.842 142.66 167.673L142.986 168.035C147.487 172.881 154.676 176.108 159.875 177.948C160.378 178.855 160.941 179.727 161.561 180.559C164.82 184.905 171.147 190.077 182.769 190.077H208.111C211.116 190.077 213.999 188.883 216.124 186.758C218.249 184.633 219.443 181.751 219.443 178.746V127.696C219.445 126.095 219.108 124.511 218.453 123.049C217.798 121.587 216.841 120.281 215.644 119.216ZM179.814 167.537C179.814 167.641 179.814 167.759 179.85 167.899C179.855 167.777 179.841 167.659 179.814 167.537Z" fill="#90A8ED" stroke="black" stroke-width="2"/>
<path d="M184.164 77.3571C184.943 76.5018 185.544 75.5005 185.933 74.4113C186.322 73.3222 186.491 72.1667 186.431 71.0117C188.166 70.9312 189.838 70.3373 191.235 69.3052C192.632 68.2732 193.692 66.8496 194.279 65.2148C194.866 63.5801 194.954 61.8078 194.533 60.1227C194.111 58.4377 193.199 56.9157 191.911 55.7498C190.624 54.5839 189.019 53.8266 187.3 53.5738C185.582 53.3211 183.827 53.5843 182.258 54.3301C180.689 55.076 179.377 56.2708 178.489 57.7632C177.6 59.2555 177.174 60.9782 177.266 62.7127C176.08 62.764 174.917 63.0559 173.848 63.5709C172.778 64.0858 171.825 64.813 171.046 65.708C170.266 66.6031 169.677 67.6474 169.314 68.7774C168.951 69.9073 168.822 71.0993 168.935 72.2808C167.167 72.2894 165.443 72.8321 163.989 73.8376C162.535 74.8431 161.419 76.2645 160.787 77.9154C160.155 79.5664 160.036 81.3697 160.447 83.0891C160.858 84.8085 161.779 86.3636 163.089 87.5505C164.399 88.7374 166.037 89.5007 167.789 89.7403C169.54 89.98 171.323 89.6847 172.904 88.8933C174.485 88.1019 175.79 86.8513 176.647 85.3055C177.505 83.7596 177.875 81.9907 177.71 80.2307C178.926 80.2265 180.129 79.9689 181.24 79.4741C182.351 78.9793 183.347 78.2583 184.164 77.3571Z" fill="black" stroke="black" stroke-width="2" stroke-linecap="round" stroke-linejoin="round"/>
<path d="M155.895 102.879C161.856 103.935 167.326 106.864 171.51 111.241C178.417 118.534 181.232 124.893 189.296 127.196C197.359 129.498 208.111 128.22 208.111 128.22V179.283H182.769C169.334 179.283 168.563 169.311 168.563 169.311C168.563 169.311 156.28 166.243 151.285 160.867C146.29 155.492 143.992 148.199 134.777 143.975C125.562 139.75 120.957 137.448 120.957 134.76C120.957 129.426 128.25 127.082 136.699 130.536C145.148 133.99 154.004 140.177 158.582 137.063C164.983 132.712 165.381 123.465 157.676 117.909C153.823 115.126 149.232 114.922 144.11 115.434" stroke="black" stroke-width="2" stroke-linecap="round" stroke-linejoin="round"/>
<path d="M167.159 89.8242L131.07 128.731" stroke="black" stroke-width="2" stroke-linecap="round" stroke-linejoin="round"/>
<path d="M122.879 138.222L114.789 146.979L101.889 153.687L107.736 140.466L160.5 83.3477" stroke="black" stroke-width="2" stroke-linecap="round" stroke-linejoin="round"/>
<path d="M143.481 101.598C138.075 101.993 132.829 103.612 128.142 106.334C121.343 110.386 114.997 116.224 115.6 119.514C116.167 122.728 121.493 124.378 125.327 121.327" stroke="black" stroke-width="2" stroke-linecap="round" stroke-linejoin="round"/>
<path d="M140.637 132.275C142.012 130.593 143.519 129.023 145.142 127.579C150.772 122.97 155.381 121.687 161.269 121.946" stroke="black" stroke-width="2" stroke-linecap="round" stroke-linejoin="round"/>
<path d="M117.5 143.959C117.5 143.959 119.934 149.589 125.69 147.286C127.463 146.579 129.493 144.861 131.583 142.699" stroke="black" stroke-width="2" stroke-linecap="round" stroke-linejoin="round"/>
<path d="M149.496 136.209C154.332 132.256 158.412 130.77 163.194 130.57" stroke="black" stroke-width="2" stroke-linecap="round" stroke-linejoin="round"/>
<path d="M125.309 148.952C125.309 148.952 127.738 154.581 133.499 152.279C135.376 151.531 137.542 149.645 139.781 147.293" stroke="black" stroke-width="2" stroke-linecap="round" stroke-linejoin="round"/>
<path d="M134.203 153.238C134.203 153.238 136.633 158.868 142.394 156.565C143.723 155.963 144.947 155.152 146.02 154.163" stroke="black" stroke-width="2" stroke-linecap="round" stroke-linejoin="round"/>
<path d="M121.211 133.847C121.211 133.847 122.874 129.881 127.484 132.184C130.707 133.797 132.216 136.535 131.962 138.198C131.709 139.862 130.299 141.144 128.123 140.632" stroke="black" stroke-width="2" stroke-linecap="round" stroke-linejoin="round"/>
<path d="M115.963 118.105C115.963 118.105 118.651 119.388 121.339 116.827C124.026 114.266 121.724 110.812 121.724 110.812" stroke="black" stroke-width="2" stroke-linecap="round" stroke-linejoin="round"/>
<path d="M107.902 140.465C107.902 140.465 108.115 143.402 110.504 145.111C111.809 146.094 113.339 146.736 114.955 146.978" stroke="black" stroke-width="2" stroke-linecap="round" stroke-linejoin="round"/>
<path d="M190.066 58.2755C189.281 57.5643 188.332 57.0595 187.303 56.8063C186.275 56.5532 185.199 56.5596 184.174 56.8251" stroke="white" stroke-width="2" stroke-linecap="round" stroke-linejoin="round"/>
</svg>
