<svg width="303" height="232" viewBox="0 0 303 232" fill="none" xmlns="http://www.w3.org/2000/svg">
<path d="M136.266 175.855C120.951 175.855 106.226 170.684 92.869 160.488C84.0249 153.685 76.4528 145.372 70.5021 135.935C68.843 133.253 68.1821 130.073 68.6354 126.953C69.0887 123.833 70.6273 120.972 72.9809 118.873L73.3967 118.489C81.7698 110.845 85.7906 105.058 87.6799 101.607C96.7846 84.9716 110.068 80.7365 119.609 80.1209C122.859 79.9196 126.122 80.13 129.319 80.747C132.366 77.6325 136.345 74.5022 141.166 72.7029C148.865 69.8199 157.575 69.762 165.901 72.3346L171.69 62.4913C173.082 60.1184 175.171 58.2307 177.672 57.0841C180.174 55.9375 182.968 55.5874 185.675 56.0812C188.382 56.575 190.872 57.8889 192.807 59.8449C194.742 61.8008 196.029 64.3042 196.494 67.0158V67.0526L215.966 60.4921C218.554 59.6215 221.346 59.5606 223.969 60.3177C226.592 61.0747 228.922 62.6136 230.647 64.729C232.373 66.8443 233.412 69.4355 233.626 72.1566C233.839 74.8776 233.218 77.5991 231.844 79.9578L231.812 80.0157L224.902 91.9582L230.539 93.0104C233.275 93.5189 235.785 94.8652 237.722 96.8628C239.658 98.8603 240.926 101.41 241.349 104.16C241.772 106.909 241.33 109.723 240.083 112.21C238.837 114.697 236.848 116.735 234.391 118.042L224.392 123.366L227.676 128.228C229.16 130.419 229.962 133.001 229.981 135.648C230 138.294 229.235 140.887 227.782 143.1C226.33 145.313 224.255 147.047 221.819 148.083C219.383 149.12 216.695 149.412 214.092 148.924L212.166 148.567L213.408 156.09C213.851 158.777 213.465 161.536 212.301 163.999C211.137 166.461 209.251 168.512 206.894 169.877C204.536 171.243 201.819 171.858 199.103 171.642C196.387 171.427 193.801 170.389 191.689 168.669L180.11 159.231C173.931 165.417 166.31 169.971 157.933 172.483C150.921 174.687 143.617 175.824 136.266 175.855Z" fill="#F1F333" stroke="black" stroke-width="2"/>
<path d="M182.462 95.125C182.462 95.125 182.462 95.2618 182.426 95.5143C182.183 98.2763 180.247 114.98 168.984 127.485L168.353 126.544C161.864 123.235 150.37 126.354 146.249 131.721C123.893 130.142 114.583 142.243 114.583 142.243L114.52 142.695C94.1052 139.828 82.2165 129.358 81.8008 128.985C82.3271 128.859 99.889 124.66 106.262 122.224C111.588 120.188 114.835 117.074 118.83 114.859L119.251 115.001C119.84 115.212 126.24 124.997 131.182 125.686C133.939 126.054 139.15 124.792 143.718 123.266C147.338 122.061 150.559 120.693 151.875 119.852C155.475 117.526 152.928 102.832 152.928 102.832L152.822 102.575C155.622 101.386 158.869 100.696 163.264 100.607C171.884 100.412 182.462 95.125 182.462 95.125Z" fill="black"/>
<path d="M81.8008 128.974C82.7691 128.033 93.5579 118.721 99.3417 108.146C105.125 97.5714 112.925 94.0886 120.367 93.6046C125.08 93.3959 129.77 94.386 133.997 96.4824C133.997 96.4824 138.876 87.9385 145.749 85.3659C152.622 82.7932 161.822 83.8244 169.774 88.9907C170.232 89.2958 170.684 89.5799 171.121 89.8482C178.257 94.2675 182.462 95.1092 182.462 95.1092C182.462 95.1092 171.879 100.37 163.258 100.565C158.864 100.654 155.617 101.344 152.817 102.533C150.122 103.679 147.833 105.273 145.323 107.231C142.812 109.188 141.449 110.345 139.465 111.061C137.36 111.829 134.539 112.065 129.003 112.113C125.436 112.105 121.93 113.028 118.83 114.791C114.835 117.021 111.588 120.136 106.262 122.156C99.889 124.592 82.3534 128.79 81.8008 128.916" stroke="black" stroke-width="2" stroke-linecap="round" stroke-linejoin="round"/>
<path d="M81.8008 128.977C82.2271 129.719 108.257 173.801 153.849 159.759C165.564 156.145 172.847 148.89 177.305 140.514C187.657 121.049 182.752 95.5117 182.752 95.5117" stroke="black" stroke-width="2" stroke-linecap="round" stroke-linejoin="round"/>
<path d="M182.462 95.125C182.462 95.125 182.462 95.2618 182.426 95.5143C182.183 98.2763 180.247 114.98 168.984 127.485C164.087 132.963 157.802 137.016 150.791 139.217C136.844 143.679 124.635 144.121 114.52 142.7C94.1052 139.833 82.2165 129.364 81.8008 128.99" stroke="black" stroke-width="2" stroke-linecap="round" stroke-linejoin="round"/>
<path d="M119.258 114.977C119.847 115.188 126.247 124.973 131.189 125.662C133.946 126.031 139.156 124.768 143.725 123.242C147.345 122.038 150.566 120.67 151.882 119.828C155.482 117.503 152.934 102.809 152.934 102.809" stroke="black" stroke-width="2" stroke-linecap="round" stroke-linejoin="round"/>
<path d="M220.14 73.3008L220.135 73.306L203.663 101.779L227.972 106.303L204.799 118.63L216.435 135.844L195.684 131.966L200.042 158.376L178.512 140.82" stroke="black" stroke-width="2" stroke-linecap="round" stroke-linejoin="round"/>
<path d="M171.148 89.8021L183.148 69.3789C183.148 69.3789 186.242 87.4504 186.832 87.461C187.421 87.4715 219.629 73.5141 220.129 73.3036" stroke="black" stroke-width="2" stroke-linecap="round" stroke-linejoin="round"/>
<path d="M139.617 111.504L143.627 122.794" stroke="black" stroke-width="2" stroke-linecap="round" stroke-linejoin="round"/>
<path d="M114.582 142.25C114.582 142.25 123.892 130.15 146.248 131.728C150.369 126.362 161.863 123.242 168.352 126.551" stroke="black" stroke-width="2" stroke-linecap="round" stroke-linejoin="round"/>
</svg>
