<svg width="310" height="232" viewBox="0 0 310 232" fill="none" xmlns="http://www.w3.org/2000/svg">
<path d="M244.025 94.9898C243.923 93.2071 243.459 91.4639 242.661 89.8672C241.863 88.2704 240.748 86.8537 239.384 85.7038L228.757 76.7483C229.549 75.0867 229.982 73.2769 230.029 71.4365C230.076 69.5962 229.735 67.7666 229.03 66.0667C228.311 64.3347 227.23 62.7772 225.859 61.4993C224.489 60.2214 222.861 59.2528 221.085 58.6589L204.581 53.1503C202.853 52.5734 201.024 52.3641 199.21 52.5357C197.396 52.7074 195.638 53.2561 194.049 54.1471C192.904 54.7885 191.863 55.5985 190.959 56.5499C187.697 52.3233 183.682 48.7389 179.116 45.9786C169.233 39.8771 156.365 36.5352 142.873 36.5352C129.381 36.5352 116.513 39.8928 106.63 45.9786C94.9448 53.1975 88.2409 63.8791 88.2409 75.2846C88.2409 76.131 88.2775 76.9704 88.3508 77.8028C87.6124 77.7556 86.8635 77.7294 86.0988 77.7503C82.2094 77.7875 78.3919 78.807 75.0004 80.7145C71.2101 82.8564 68.32 86.2975 66.8615 90.4045C65.7434 93.6769 65.6599 97.2151 66.6224 100.537C67.585 103.858 69.5466 106.802 72.2402 108.966C73.6681 110.142 75.2875 111.063 77.0273 111.689C76.3892 114.091 76.3052 116.607 76.7816 119.047C77.258 121.487 78.2823 123.786 79.777 125.77C81.5595 128.128 83.8993 130.005 86.5858 131.232C85.5213 133.007 84.893 135.01 84.7526 137.076C84.5231 140.389 85.5568 143.665 87.6448 146.245C89.7327 148.824 92.7195 150.514 96.0027 150.973L96.2176 151.005C94.8055 152.261 93.28 153.383 91.6609 154.357C88.7968 156.014 86.6648 158.695 85.6932 161.862C84.7217 165.029 84.9825 168.447 86.4234 171.429C87.8692 174.422 90.3963 176.754 93.4932 177.952C96.5901 179.15 100.026 179.125 103.105 177.882C110.118 175.059 119.341 173.218 122.091 174.068C126.014 175.715 128.842 180.61 129.308 182.551C129.423 185.673 130.647 188.652 132.759 190.951C134.872 193.249 137.734 194.717 140.831 195.09C141.352 195.149 141.877 195.179 142.402 195.179C145.326 195.177 148.165 194.194 150.467 192.388C152.769 190.581 154.401 188.055 155.103 185.211C155.522 183.957 158.125 179.897 162.624 178.17C168.877 175.773 176.424 176.02 180.347 177.473C183.287 178.557 186.517 178.55 189.452 177.453C192.387 176.356 194.832 174.241 196.343 171.492C197.837 168.775 198.322 165.616 197.711 162.575C197.101 159.534 195.433 156.808 193.006 154.882C192.839 154.3 192.655 152.505 193.394 149.389C194.075 147.679 197.61 143.702 200.726 141.147C201.335 140.653 201.897 140.105 202.408 139.51H202.628C206.817 139.505 210.885 138.099 214.186 135.515C217.486 132.93 219.832 129.316 220.849 125.245C221.478 124.774 222.063 124.248 222.598 123.672L240.474 104.727C241.695 103.431 242.64 101.899 243.25 100.225C243.861 98.5506 244.124 96.7693 244.025 94.9898Z" fill="#23A094" stroke="black" stroke-width="2" stroke-miterlimit="10"/>
<path d="M135.902 100.632C137.971 100.827 140.092 100.931 142.255 100.931C165.196 100.931 183.794 89.4473 183.794 75.2822C183.794 61.117 165.196 49.6328 142.255 49.6328C119.315 49.6328 100.717 61.117 100.717 75.2822C100.717 84.7256 108.934 92.9308 121.185 97.3902C121.185 97.3902 122.369 109.981 136.279 111.76C133.372 104.032 135.902 100.632 135.902 100.632Z" stroke="black" stroke-width="2" stroke-linecap="round" stroke-linejoin="round"/>
<path d="M115.512 82.6918C115.512 82.6918 131.104 81.4693 138.84 72.4299C145.648 64.4502 135.425 61.3182 129.737 69.0145C124.049 76.7109 128.029 83.5469 138.557 83.5469C149.367 83.5469 158.187 76.9943 161.884 71.2915C165.582 65.5887 157.333 61.6015 151.933 69.0145C147.633 74.9062 146.245 86.6842 162.743 82.4084" stroke="black" stroke-width="2" stroke-linecap="round" stroke-linejoin="round"/>
<path d="M199.826 65.5938L193.756 91.6261L204.189 95.6133L216.329 71.1024L199.826 65.5938Z" fill="black" stroke="black" stroke-width="2" stroke-linecap="round" stroke-linejoin="round"/>
<path d="M193.965 109.239C197.107 109.239 199.653 106.688 199.653 103.541C199.653 100.395 197.107 97.8438 193.965 97.8438C190.824 97.8438 188.277 100.395 188.277 103.541C188.277 106.688 190.824 109.239 193.965 109.239Z" fill="black" stroke="black" stroke-width="2" stroke-linecap="round" stroke-linejoin="round"/>
<path d="M202.004 126.387C205.146 126.387 207.692 123.836 207.692 120.69C207.692 117.543 205.146 114.992 202.004 114.992C198.863 114.992 196.316 117.543 196.316 120.69C196.316 123.836 198.863 126.387 202.004 126.387Z" fill="black" stroke="black" stroke-width="2" stroke-linecap="round" stroke-linejoin="round"/>
<path d="M204.785 109.165L212.458 114.684L230.339 95.7396L219.246 86.3906L204.785 109.165Z" fill="black" stroke="black" stroke-width="2" stroke-linecap="round" stroke-linejoin="round"/>
<path d="M101.566 100.365C101.566 100.365 94.7573 90.6326 85.8222 90.8634C78.6154 91.0575 76.7194 96.1832 79.9405 98.8431C83.1615 101.503 95.3125 97.8935 101.566 100.365Z" stroke="black" stroke-width="2" stroke-linecap="round" stroke-linejoin="round"/>
<path d="M108.399 108.911C108.399 108.911 95.3051 106.251 90.5652 112.143C85.8253 118.035 92.6603 121.261 97.2064 119.362C101.753 117.463 104.224 110.999 108.399 108.911Z" stroke="black" stroke-width="2" stroke-linecap="round" stroke-linejoin="round"/>
<path d="M112.38 118.789C112.38 118.789 123.19 128.862 133.623 125.82C144.056 122.777 152.211 111.188 152.211 111.188C152.211 111.188 151.263 119.361 161.885 120.311C172.506 121.26 178.959 112.898 178.959 112.898C178.959 112.898 174.408 121.072 177.629 126.197C180.85 131.323 191.854 130.95 191.854 130.95C191.854 130.95 181.803 139.119 180.095 146.165C178.388 153.211 178.577 160.797 184.285 165.167C177.079 162.507 166.263 162.507 157.349 165.928C148.435 169.348 142.935 177.328 141.799 182.076C141.799 176.945 136.106 165.928 126.432 161.935C116.758 157.943 97.5999 165.734 97.5999 165.734C97.5999 165.734 109.552 158.913 110.123 151.673C110.693 144.434 105.377 139.135 97.2227 137.996C107.273 137.996 112.967 138.374 116.381 134.387C119.796 130.4 112.38 118.789 112.38 118.789Z" stroke="black" stroke-width="2" stroke-linecap="round" stroke-linejoin="round"/>
</svg>
