<svg width="515" height="506" viewBox="0 0 515 506" fill="none" xmlns="http://www.w3.org/2000/svg">
<path d="M279.332 174.016C274.17 171.835 268.516 171.085 262.964 171.844C257.413 172.602 252.168 174.842 247.781 178.328C243.394 181.814 240.026 186.417 238.033 191.654C236.039 196.891 235.492 202.568 236.45 208.089L237.98 220.471L227.748 213.04C222.185 208.594 215.273 206.178 208.152 206.191C201.031 206.204 194.128 208.644 188.582 213.11C185.398 215.687 182.752 218.867 180.797 222.466C178.842 226.066 177.614 230.016 177.185 234.091C176.757 238.165 177.134 242.284 178.297 246.212C179.46 250.141 181.385 253.802 183.963 256.987C186.54 260.171 189.72 262.817 193.32 264.773C196.92 266.729 200.87 267.956 204.944 268.386C209.018 268.815 213.137 268.438 217.065 267.275C220.993 266.113 224.654 264.188 227.838 261.611L228.161 261.343C228.386 261.209 228.592 261.044 228.798 260.88C230.499 259.539 231.827 258.946 232.673 258.804C233.805 259.288 234.587 259.69 234.945 259.881L242.844 265.213L246.798 303.955C246.803 304.005 246.809 304.054 246.817 304.102C247.518 309.947 250.483 315.285 255.076 318.969C259.668 322.652 265.521 324.389 271.379 323.805C274.121 323.522 276.642 322.168 278.391 320.036C280.14 317.905 280.977 315.169 280.72 312.423L278.552 289.322L297.72 302.264C299.999 303.802 302.791 304.382 305.494 303.878C308.196 303.373 310.592 301.825 312.162 299.568C315.505 294.723 316.816 288.76 315.813 282.959C314.811 277.157 311.574 271.98 306.798 268.537C306.76 268.507 306.719 268.479 306.677 268.451L274.805 246.349L273.976 237.028C273.978 236.645 273.999 235.758 274.126 234.531C274.659 233.862 275.82 232.983 277.814 232.145C278.059 232.043 278.298 231.933 278.53 231.813L278.921 231.659C284.636 229.337 289.533 225.372 292.995 220.266C296.457 215.161 298.327 209.143 298.37 202.974C298.413 196.806 296.626 190.762 293.235 185.608C289.845 180.455 285.003 176.421 279.321 174.019L279.332 174.016Z" fill="#FF90E8" stroke="black" stroke-width="2" stroke-miterlimit="10"/>
<path d="M221.545 221.63C218.514 219.139 214.84 217.558 210.948 217.072C207.055 216.586 203.105 217.213 199.555 218.882C196.006 220.551 193.002 223.192 190.894 226.499C188.785 229.807 187.658 233.645 187.643 237.567C187.628 241.49 188.725 245.337 190.809 248.661C192.892 251.985 195.875 254.65 199.412 256.346C202.949 258.043 206.894 258.702 210.79 258.246C214.686 257.79 218.372 256.239 221.422 253.772C221.785 253.476 222.131 253.171 222.472 252.857L222.478 252.963C227.334 249.127 231.431 248.33 234.541 248.668L241.747 236.274L221.545 221.63ZM199.373 244.937C197.915 243.133 197.024 240.937 196.813 238.627C196.603 236.317 197.082 233.997 198.19 231.959C199.298 229.922 200.985 228.259 203.038 227.18C205.091 226.101 207.418 225.656 209.725 225.9C212.031 226.143 214.214 227.066 215.996 228.55C217.779 230.034 219.082 232.013 219.739 234.238C220.397 236.462 220.381 238.831 219.693 241.046C219.004 243.261 217.675 245.222 215.872 246.681C214.674 247.65 213.297 248.374 211.82 248.811C210.343 249.248 208.794 249.389 207.262 249.227C205.729 249.065 204.244 248.603 202.891 247.867C201.537 247.131 200.342 246.135 199.373 244.937Z" fill="black" stroke="black" stroke-width="2" stroke-linecap="round" stroke-linejoin="round"/>
<path d="M241.187 235.918L300.867 277.338C303.423 279.166 305.156 281.927 305.691 285.024C306.227 288.12 305.521 291.303 303.727 293.883V293.883L240.613 251.273C238.533 250.101 236.348 249.127 234.086 248.363L241.187 235.918Z" stroke="black" stroke-width="2" stroke-linecap="round" stroke-linejoin="round"/>
<path d="M246.974 206.814C246.26 202.957 246.654 198.976 248.111 195.334C249.569 191.692 252.029 188.538 255.207 186.239C258.385 183.94 262.15 182.589 266.065 182.344C269.98 182.098 273.884 182.969 277.324 184.854C280.765 186.738 283.6 189.56 285.501 192.992C287.402 196.424 288.291 200.324 288.065 204.24C287.838 208.156 286.506 211.928 284.222 215.117C281.938 218.306 278.796 220.782 275.161 222.256C274.73 222.433 274.29 222.588 273.852 222.732L273.945 222.791C268.236 225.186 265.555 228.384 264.358 231.262L250.033 231.569L246.974 206.814ZM278.089 198.689C277.216 196.539 275.725 194.696 273.805 193.393C271.884 192.091 269.621 191.386 267.3 191.37C264.98 191.354 262.707 192.026 260.769 193.302C258.831 194.577 257.314 196.399 256.412 198.537C255.509 200.675 255.26 203.032 255.698 205.311C256.135 207.59 257.238 209.688 258.868 211.341C260.497 212.993 262.58 214.125 264.853 214.593C267.126 215.061 269.486 214.845 271.636 213.972C273.063 213.393 274.363 212.538 275.46 211.456C276.557 210.375 277.43 209.088 278.029 207.668C278.629 206.249 278.942 204.726 278.953 203.185C278.963 201.644 278.669 200.117 278.089 198.689Z" fill="black" stroke="black" stroke-width="2" stroke-linecap="round" stroke-linejoin="round"/>
<path d="M264.975 252.199L263.688 237.85C263.669 235.463 263.873 233.08 264.299 230.732L249.972 230.927L251.182 242.768" stroke="black" stroke-width="2" stroke-linecap="round" stroke-linejoin="round"/>
<path d="M252.82 259.637L257.355 303.177C257.717 306.299 259.295 309.152 261.746 311.119C264.197 313.085 267.325 314.006 270.45 313.681L266.271 269.133" stroke="black" stroke-width="2" stroke-linecap="round" stroke-linejoin="round"/>
<path d="M260.897 259.104C262.511 258.135 263.035 256.042 262.067 254.427C261.098 252.813 259.004 252.289 257.39 253.257C255.776 254.226 255.252 256.319 256.22 257.934C257.188 259.548 259.282 260.072 260.897 259.104Z" stroke="black" stroke-width="2" stroke-miterlimit="10"/>
</svg>
