<svg width="310" height="232" viewBox="0 0 310 232" fill="none" xmlns="http://www.w3.org/2000/svg">
<path d="M218.004 109.418H215.551L212.268 100.296C211.247 97.46 209.21 95.1045 206.551 93.687C203.893 92.2695 200.804 91.891 197.883 92.6251H197.794C197.287 92.6989 196.771 92.6232 196.307 92.4073C195.843 92.1913 195.452 91.8445 195.182 91.4094L187.259 78.8472C186.251 76.8102 184.692 75.0971 182.759 73.9023C180.827 72.7075 178.599 72.0789 176.328 72.0879C168.076 71.9866 152.538 75.735 142.282 90.1654C141.084 89.828 139.842 89.6763 138.598 89.7155L120.715 90.3112L111.691 86.4615C111.476 86.3643 111.258 86.2751 111.039 86.186L110.768 86.0685C103.367 82.9806 95.5973 82.6685 88.7713 85.2296C85.6806 86.3708 82.847 88.1146 80.4347 90.36C78.0224 92.6055 76.0794 95.3079 74.7184 98.3105C74.6374 98.4929 74.5565 98.6753 74.4836 98.8617L71.8236 105.597C71.0139 107.623 69.7345 111.468 69.7345 111.468C69.2042 113.58 66.9005 123.929 69.5766 133.789C67.5097 136.574 66.3952 139.952 66.3984 143.421C66.4059 147.718 68.1145 151.836 71.15 154.874C74.1854 157.913 78.3003 159.623 82.5931 159.63H164.222H164.708H164.971C165.19 159.61 165.412 159.59 165.627 159.561H165.724C165.943 159.529 166.157 159.493 166.372 159.452L166.497 159.428C166.74 159.375 166.979 159.318 167.218 159.253H167.263C167.501 159.189 167.736 159.116 167.971 159.035H168.016C168.251 158.95 168.485 158.86 168.712 158.767L168.809 158.727C169.032 158.629 169.246 158.532 169.461 158.427H169.493C169.7 158.321 169.898 158.212 170.101 158.095L170.279 157.993C170.465 157.88 170.647 157.766 170.825 157.649L171.016 157.515L171.388 157.239L171.607 157.073C171.761 156.952 171.91 156.822 172.06 156.692L172.283 156.494C172.404 156.38 172.522 156.263 172.639 156.145C172.757 156.028 172.789 155.995 172.862 155.918C172.935 155.841 173.101 155.659 173.214 155.513C173.263 155.456 173.315 155.4 173.364 155.339C173.51 155.165 173.651 154.986 173.769 154.8C173.797 154.759 173.83 154.719 173.858 154.674C174.168 154.249 174.449 153.804 174.7 153.341V153.309L174.724 153.26L192.186 153.418H231.458C234.679 153.418 237.769 152.137 240.047 149.857C242.324 147.578 243.604 144.485 243.604 141.261V135.061C243.596 128.266 240.896 121.752 236.098 116.945C231.299 112.139 224.793 109.432 218.004 109.418Z" fill="#FFC900" stroke="black" stroke-width="2" stroke-miterlimit="10"/>
<path d="M200.19 104.415L206.365 121.576H217.357C219.127 121.575 220.88 121.922 222.516 122.6C224.152 123.277 225.638 124.27 226.891 125.522C228.143 126.775 229.136 128.262 229.813 129.899C230.491 131.536 230.839 133.291 230.839 135.063V141.259H191.972L150.133 99.3818C159.505 83.8208 175.741 84.2788 175.741 84.2788" stroke="black" stroke-width="2" stroke-linecap="round" stroke-linejoin="round"/>
<path d="M175.699 84.3438L184.274 97.9312C185.804 100.357 188.006 102.284 190.611 103.479C193.216 104.674 196.112 105.085 198.947 104.662L200.161 104.48" stroke="black" stroke-width="2" stroke-linecap="round" stroke-linejoin="round"/>
<path d="M155.57 92.918L195.401 133.526L230.381 133.478" stroke="black" stroke-width="2" stroke-linecap="round" stroke-linejoin="round"/>
<path d="M175.281 112.879C182.14 100.523 175.739 84.2773 175.739 84.2773" stroke="black" stroke-width="2" stroke-linecap="round" stroke-linejoin="round"/>
<path d="M212.551 122.056C212.551 123.149 212.117 124.197 211.345 124.97C210.573 125.743 209.526 126.177 208.433 126.177H199.526L196.251 122.397C195.266 121.241 193.967 120.396 192.512 119.964C191.057 119.532 189.508 119.533 188.053 119.965L183.615 121.246" stroke="black" stroke-width="2" stroke-linecap="round" stroke-linejoin="round"/>
<path d="M163.392 147.551L82.459 110.136L85.1352 103.365C88.2891 96.4068 96.9775 93.4364 106.16 97.6266L117.784 102.603L138.359 101.918C137.801 104.52 138.256 107.237 139.632 109.514C141.007 111.791 143.199 113.457 145.76 114.172L167.165 116.336C167.165 116.336 170.594 134.162 163.392 147.551Z" stroke="black" stroke-width="2" stroke-linecap="round" stroke-linejoin="round"/>
<path d="M165.794 139.996L85.1367 103.363" stroke="black" stroke-width="2" stroke-linecap="round" stroke-linejoin="round"/>
<path d="M167.167 116.315C167.167 116.315 148.992 114.941 141.105 127.986" stroke="black" stroke-width="2" stroke-linecap="round" stroke-linejoin="round"/>
<path d="M105.654 97.4023C105.244 98.6904 105.297 100.082 105.805 101.334C106.313 102.587 107.244 103.622 108.435 104.259L116.456 108.55C118.459 109.62 120.088 111.276 121.127 113.297C122.166 115.317 122.564 117.607 122.27 119.86L122.241 120.087" stroke="black" stroke-width="2" stroke-linecap="round" stroke-linejoin="round"/>
<path d="M132.301 102.812V110.593" stroke="black" stroke-width="2" stroke-linecap="round" stroke-linejoin="round"/>
<path d="M125.898 102.812V110.593" stroke="black" stroke-width="2" stroke-linecap="round" stroke-linejoin="round"/>
<path d="M203.464 115.406L195.93 117.323" stroke="black" stroke-width="2" stroke-linecap="round" stroke-linejoin="round"/>
<path d="M201.886 109.195L194.352 111.116" stroke="black" stroke-width="2" stroke-linecap="round" stroke-linejoin="round"/>
<path d="M80.8597 114.484C80.8597 114.484 78.3414 124.55 81.0864 132.104" stroke="black" stroke-width="2" stroke-linecap="round" stroke-linejoin="round"/>
<path d="M85.6581 123.18C85.4098 126.562 85.7704 129.962 86.7229 133.217" stroke="black" stroke-width="2" stroke-linecap="round" stroke-linejoin="round"/>
<path d="M167.74 133.02L183.388 133.246L191.692 141.258L166.137 141.027L167.74 133.02Z" fill="black" stroke="black" stroke-width="2" stroke-linecap="round" stroke-linejoin="round"/>
<path d="M163.392 147.55H81.9451C80.8714 147.55 79.8416 147.123 79.0823 146.363C78.323 145.603 77.8965 144.572 77.8965 143.498C77.8965 142.423 78.323 141.392 79.0823 140.632C79.8416 139.872 80.8714 139.445 81.9451 139.445H146.477L163.392 147.55Z" fill="black" stroke="black" stroke-width="2" stroke-linecap="round" stroke-linejoin="round"/>
</svg>
