<svg width="303" height="232" viewBox="0 0 303 232" fill="none" xmlns="http://www.w3.org/2000/svg">
<path d="M229.24 155.089L224.215 148.778V145.283C226.489 144.114 228.405 142.356 229.763 140.193C231.121 138.031 231.871 135.544 231.935 132.993C231.998 130.326 231.307 127.694 229.942 125.399C228.577 123.104 226.593 121.239 224.215 120.016V75.4074C224.217 72.2501 223.166 69.1821 221.227 66.6866C219.288 64.191 216.572 62.4099 213.506 61.6237V60.9315C213.506 60.8746 213.506 60.8224 213.506 60.7703C213.506 60.6423 213.506 60.5142 213.506 60.3862C213.506 60.2582 213.506 60.1586 213.506 60.0448C213.506 59.931 213.506 59.822 213.506 59.7082C213.506 59.5944 213.483 59.4521 213.468 59.3289C213.454 59.2056 213.445 59.1392 213.43 59.0444C213.416 58.9495 213.392 58.7599 213.369 58.6224C213.345 58.4849 213.369 58.4659 213.331 58.39C213.302 58.2336 213.273 58.0818 213.24 57.9159C213.24 57.8495 213.207 57.7831 213.193 57.712C213.155 57.5555 213.121 57.399 213.079 57.2378L213.022 57.0387C212.979 56.887 212.936 56.7305 212.884 56.5645C212.831 56.3986 212.831 56.4081 212.808 56.3322L212.665 55.9197L212.551 55.6352C212.503 55.5214 212.461 55.4029 212.408 55.2891C212.356 55.1753 212.304 55.0567 212.252 54.9429C212.199 54.8291 212.171 54.7628 212.128 54.6774C212.085 54.5921 211.995 54.4071 211.924 54.2744L211.814 54.0705C211.738 53.9283 211.657 53.786 211.572 53.6485L211.472 53.4778L211.206 53.0606C211.168 53.0084 211.135 52.9515 211.097 52.8946L210.821 52.5105L210.683 52.3256L210.417 51.9842C210.355 51.9131 210.298 51.842 210.241 51.7661L209.984 51.4769C209.913 51.3915 209.837 51.3109 209.761 51.2256L209.523 50.979L209.252 50.7088L209.138 50.595L209.019 50.4859L208.729 50.2251L208.482 50.0118L208.202 49.7842L207.921 49.5661C207.836 49.4997 207.75 49.4333 207.66 49.3716L207.346 49.1488L207.104 48.9876L206.757 48.7647L206.519 48.6272L206.153 48.4138L205.911 48.2906C205.787 48.2242 205.664 48.1578 205.54 48.1009C205.416 48.044 205.359 48.0156 205.269 47.9729C205.179 47.9302 205.036 47.8638 204.917 47.8164L204.599 47.6837L204.28 47.5604L203.914 47.4324L203.629 47.3375L203.23 47.219L202.968 47.1431L202.555 47.0436L202.293 46.9819L201.885 46.906L201.6 46.8539L201.219 46.797L200.891 46.7591L200.54 46.7259C200.421 46.7259 200.297 46.7022 200.178 46.6974C200.059 46.6927 199.96 46.6974 199.85 46.6974H199.461H91.9277C88.1458 46.6974 84.5188 48.1961 81.8446 50.8637C79.1703 53.5313 77.668 57.1494 77.668 60.922V141.3C77.6686 144.128 78.514 146.891 80.0964 149.238C81.6788 151.584 83.9262 153.406 86.5518 154.472V154.524C86.5518 158.297 88.0542 161.915 90.7284 164.583C93.4026 167.25 97.0296 168.749 100.812 168.749H159.795C160.329 171.35 161.582 173.75 163.412 175.677C165.243 177.604 167.577 178.982 170.152 179.655C172.907 180.375 175.815 180.256 178.501 179.313C181.187 178.369 183.529 176.646 185.225 174.363L186.741 172.319L194.142 182.04C196.427 185.045 199.816 187.022 203.563 187.535C204.204 187.622 204.85 187.666 205.497 187.668C208.611 187.667 211.64 186.65 214.12 184.771L226.692 175.25C228.205 174.105 229.473 172.67 230.422 171.029C231.372 169.388 231.983 167.575 232.22 165.696C232.455 163.819 232.313 161.914 231.801 160.093C231.289 158.271 230.418 156.57 229.24 155.089Z" fill="#90A8ED" stroke="black" stroke-width="2" stroke-miterlimit="10"/>
<path d="M209.956 135.679V153.195L209.647 153.436L198.795 139.8C198.783 139.785 198.775 139.767 198.771 139.748C198.766 139.729 198.767 139.709 198.771 139.691C198.776 139.672 198.786 139.655 198.799 139.641C198.812 139.627 198.829 139.616 198.847 139.61L209.918 135.57L209.956 135.679Z" fill="black"/>
<path d="M209.957 75.4922V128.896L209.738 129.413L199.129 124.965L199.248 124.681V75.4922H209.957Z" fill="black"/>
<path d="M186.703 148.838L190.952 154.423L190.695 154.618H182.244L186.522 148.852C186.533 148.838 186.548 148.826 186.564 148.818C186.581 148.809 186.599 148.805 186.617 148.805C186.649 148.804 186.68 148.816 186.703 148.838Z" fill="black"/>
<path d="M170.643 141.359L172.325 154.612L172.259 154.621H100.812V141.397H170.338L170.643 141.359Z" fill="black"/>
<path d="M170.337 141.394H100.812H91.9277V75.4915V61.0156H185.424H199.247V75.4915V124.68" stroke="black" stroke-width="2" stroke-linecap="round" stroke-linejoin="round"/>
<path d="M92.2129 75.4922H185.424H199.142" stroke="black" stroke-width="2" stroke-linecap="round" stroke-linejoin="round"/>
<path d="M185.424 75.4949V61.8203" stroke="black" stroke-width="2" stroke-linecap="round" stroke-linejoin="round"/>
<path d="M185.424 75.4915L192.112 68.4835L199.246 61.0156" stroke="black" stroke-width="2" stroke-linecap="round" stroke-linejoin="round"/>
<path d="M172.259 154.617H100.812V141.393V141.156" stroke="black" stroke-width="2" stroke-linecap="round" stroke-linejoin="round"/>
<path d="M190.695 154.617H182.244" stroke="black" stroke-width="2" stroke-linecap="round" stroke-linejoin="round"/>
<path d="M209.955 135.68V153.195" stroke="black" stroke-width="2" stroke-linecap="round" stroke-linejoin="round"/>
<path d="M185.424 61.8203L192.112 68.4869L199.142 75.4949H199.246H209.955V128.899" stroke="black" stroke-width="2" stroke-linecap="round" stroke-linejoin="round"/>
<path d="M99.6318 69.1643C100.246 69.1643 100.744 68.6676 100.744 68.0548C100.744 67.4421 100.246 66.9453 99.6318 66.9453C99.0175 66.9453 98.5195 67.4421 98.5195 68.0548C98.5195 68.6676 99.0175 69.1643 99.6318 69.1643Z" stroke="black" stroke-width="2" stroke-linecap="round" stroke-linejoin="round"/>
<path d="M107.091 69.1643C107.705 69.1643 108.203 68.6676 108.203 68.0548C108.203 67.4421 107.705 66.9453 107.091 66.9453C106.476 66.9453 105.979 67.4421 105.979 68.0548C105.979 68.6676 106.476 69.1643 107.091 69.1643Z" stroke="black" stroke-width="2" stroke-linecap="round" stroke-linejoin="round"/>
<path d="M114.548 69.1643C115.162 69.1643 115.66 68.6676 115.66 68.0548C115.66 67.4421 115.162 66.9453 114.548 66.9453C113.934 66.9453 113.436 67.4421 113.436 68.0548C113.436 68.6676 113.934 69.1643 114.548 69.1643Z" stroke="black" stroke-width="2" stroke-linecap="round" stroke-linejoin="round"/>
<path d="M178.233 116.203L199.147 124.965L209.756 129.413L217.694 132.732L209.937 135.577L198.867 139.617C198.848 139.623 198.832 139.634 198.818 139.648C198.805 139.662 198.796 139.679 198.79 139.697C198.786 139.716 198.786 139.736 198.79 139.755C198.794 139.774 198.802 139.791 198.814 139.806L209.666 153.443L218.089 164.026L205.497 173.542L190.952 154.425L186.703 148.839C186.692 148.825 186.677 148.813 186.661 148.805C186.644 148.796 186.626 148.792 186.608 148.792V148.792C186.589 148.792 186.571 148.796 186.555 148.805C186.539 148.813 186.524 148.825 186.513 148.839L182.235 154.605L173.774 165.984L172.348 154.605L170.665 141.328L168.531 124.472" stroke="black" stroke-width="2" stroke-linecap="round" stroke-linejoin="round"/>
<path d="M168.507 124.503L166.853 111.435L178.233 116.205C185.747 107.528 183.727 100.625 177.382 97.8366C169.567 94.4085 158.939 100.644 158.939 100.644C158.939 100.644 161.753 80.3783 136.746 86.6134C113.284 92.4645 103.435 109.785 108.616 119.041C116.117 132.45 137.374 120.601 137.374 120.601C135.054 135.337 155.507 132.658 168.507 124.503Z" stroke="black" stroke-width="2" stroke-linecap="round" stroke-linejoin="round"/>
</svg>
