<svg width="310" height="232" viewBox="0 0 310 232" fill="none" xmlns="http://www.w3.org/2000/svg">
<path d="M197.366 62.396C194.255 57.4369 188.722 54.6047 182.177 54.6047C179.635 54.5933 177.11 55.0189 174.711 55.863C172.893 55.0927 170.968 54.6053 169.003 54.4177C169.118 53.6989 169.177 52.9721 169.178 52.244C169.178 48.6196 167.74 45.1436 165.182 42.5808C162.624 40.0179 159.154 38.5781 155.536 38.5781C152.702 38.5744 149.937 39.4599 147.631 41.1103C146.431 40.8313 145.203 40.6901 143.972 40.6896C139.671 40.6896 135.547 42.4011 132.506 45.4475C129.465 48.494 127.756 52.6259 127.756 56.9343V57.0395C123.299 59.4502 119.807 63.3256 117.867 68.0135C117.704 68.403 117.479 68.8627 117.234 69.412C115.759 72.4492 114.551 75.6087 113.621 78.855C111.626 85.8671 110.701 94.3401 110.786 104.718C110.786 104.866 110.763 105.01 110.759 105.158L110.188 123.6C110.188 123.721 110.188 123.842 110.188 123.962C110.196 129.302 112.092 134.466 115.54 138.539C118.987 142.611 123.763 145.329 129.02 146.21V170.753C129.026 176.687 131.382 182.376 135.57 186.573C139.758 190.769 145.437 193.13 151.36 193.137C154.296 193.144 157.204 192.569 159.917 191.443C162.629 190.318 165.092 188.665 167.163 186.581C169.244 184.507 170.893 182.04 172.016 179.323C173.139 176.606 173.712 173.693 173.704 170.753V146.21C178.963 145.333 183.742 142.617 187.192 138.545C190.643 134.473 192.542 129.308 192.552 123.966V106.358C192.598 105.871 192.615 105.382 192.603 104.893C192.515 102.12 192.587 99.3446 192.82 96.5801C193.707 86.3307 196.631 80.834 197.735 78.7654C197.934 78.3758 198.124 78.0369 198.303 77.659C199.439 75.2407 199.948 72.5748 199.784 69.9074C199.62 67.2399 198.789 64.6567 197.366 62.396Z" fill="#F1F333" stroke="black" stroke-width="2" stroke-miterlimit="10"/>
<path d="M143.435 73.0037C143.529 72.657 145.135 67.0434 151.251 66.7707C157.57 66.4941 158.185 73.0232 158.185 73.0232C158.185 73.0232 159.985 66.4824 167.206 66.7668C174.206 67.0434 173 72.6765 172.927 72.9998C173.074 72.6531 175.544 67.0473 182.259 67.0473C188.143 67.0473 188.823 71.4182 187.89 73.3543C187.112 74.9593 182.512 82.2558 181.279 96.3385C175.415 88.7537 168.225 92.3572 157.057 93.4947C145.889 94.6322 144.913 88.5706 136.584 84.0244C128.418 79.5561 125.167 82.7622 125.046 82.883L124.891 82.8402C126.17 78.329 127.675 75.6566 128.639 73.405C129.771 70.752 132.551 66.9187 138.019 67.0551C144.205 67.207 143.486 72.6609 143.435 73.0037Z" fill="black"/>
<path d="M143.949 106.195L122.511 106.3H122.472L122.126 117.383L121.9 124.738C121.901 127.617 123.044 130.377 125.076 132.413C127.108 134.448 129.864 135.591 132.738 135.591H136.899C137.404 135.591 137.905 135.69 138.372 135.883C138.839 136.077 139.263 136.36 139.621 136.718C139.978 137.076 140.262 137.501 140.455 137.969C140.649 138.436 140.748 138.938 140.748 139.444V171.532C140.748 172.937 141.024 174.328 141.56 175.627C142.097 176.925 142.883 178.104 143.875 179.098C144.866 180.091 146.044 180.879 147.34 181.416C148.635 181.954 150.024 182.23 151.427 182.23C152.828 182.233 154.216 181.96 155.512 181.425C156.808 180.89 157.986 180.105 158.978 179.113C159.968 178.119 160.752 176.939 161.286 175.641C161.82 174.343 162.093 172.952 162.089 171.548V139.46C162.089 138.954 162.188 138.453 162.38 137.985C162.573 137.518 162.856 137.093 163.213 136.735C163.57 136.378 163.994 136.094 164.46 135.9C164.926 135.706 165.426 135.607 165.931 135.607H170.096C171.519 135.607 172.928 135.327 174.243 134.782C175.558 134.237 176.752 133.437 177.759 132.429C178.765 131.421 179.564 130.225 180.108 128.908C180.653 127.591 180.933 126.179 180.933 124.754V106.027" stroke="black" stroke-width="2" stroke-linecap="round" stroke-linejoin="round"/>
<path d="M180.926 106.016L144.895 106.187" stroke="black" stroke-width="2" stroke-linecap="round" stroke-linejoin="round"/>
<path d="M122.469 117.391H180.382" stroke="black" stroke-width="2" stroke-linecap="round" stroke-linejoin="round"/>
<path d="M151.423 175.693C153.618 175.693 155.398 173.911 155.398 171.712C155.398 169.513 153.618 167.73 151.423 167.73C149.229 167.73 147.449 169.513 147.449 171.712C147.449 173.911 149.229 175.693 151.423 175.693Z" stroke="black" stroke-width="2" stroke-linecap="round" stroke-linejoin="round"/>
<path d="M172.904 73.0224C173.052 72.6757 175.521 67.0699 182.237 67.0699C188.12 67.0699 188.801 71.4408 187.867 73.3769C187.09 74.9819 182.49 82.2784 181.257 96.3611C180.982 99.5763 180.897 102.805 181 106.03H180.922C169.595 106.03 156.584 106.124 144.891 106.205H143.942C135.752 106.26 128.259 106.311 122.504 106.311C122.341 94.9899 123.476 87.8063 124.884 82.8472C126.163 78.3361 127.668 75.6637 128.632 73.412C129.764 70.7591 132.544 66.9258 138.012 67.0621C144.198 67.218 143.479 72.6718 143.429 73.0146" stroke="black" stroke-width="2" stroke-linecap="round" stroke-linejoin="round"/>
<path d="M143.43 73.0232C143.429 73.0167 143.429 73.0102 143.43 73.0037C143.524 72.657 145.13 67.0434 151.246 66.7707C157.569 66.4941 158.184 73.0232 158.184 73.0232C158.184 73.0232 159.984 66.4824 167.205 66.7668C174.205 67.0434 172.999 72.6765 172.925 72.9998" stroke="black" stroke-width="2" stroke-linecap="round" stroke-linejoin="round"/>
<path d="M125.043 82.8823C125.164 82.7615 128.414 79.5554 136.58 84.0237C144.91 88.5738 145.855 94.6392 157.023 93.5017C168.191 92.3642 175.381 88.7608 181.245 96.3455" stroke="black" stroke-width="2" stroke-linecap="round" stroke-linejoin="round"/>
<path d="M136.957 106.045C136.799 96.61 138.22 87.2148 141.161 78.25L136.957 106.045Z" fill="black"/>
<path d="M136.957 106.045C136.799 96.61 138.22 87.2148 141.161 78.25" stroke="black" stroke-width="2" stroke-linecap="round" stroke-linejoin="round"/>
<path d="M151.983 106.045C151.824 96.61 153.245 87.2148 156.186 78.25L151.983 106.045Z" fill="black"/>
<path d="M151.983 106.045C151.824 96.61 153.245 87.2148 156.186 78.25" stroke="black" stroke-width="2" stroke-linecap="round" stroke-linejoin="round"/>
<path d="M144.469 106.045C144.31 96.61 145.731 87.2148 148.673 78.25L144.469 106.045Z" fill="black"/>
<path d="M144.469 106.045C144.31 96.61 145.731 87.2148 148.673 78.25" stroke="black" stroke-width="2" stroke-linecap="round" stroke-linejoin="round"/>
<path d="M129.444 106.045C129.285 96.61 130.706 87.2148 133.647 78.25L129.444 106.045Z" fill="black"/>
<path d="M129.444 106.045C129.285 96.61 130.706 87.2148 133.647 78.25" stroke="black" stroke-width="2" stroke-linecap="round" stroke-linejoin="round"/>
<path d="M167.012 106.045C166.851 96.6101 168.271 87.2147 171.212 78.25L167.012 106.045Z" fill="black"/>
<path d="M167.012 106.045C166.851 96.6101 168.271 87.2147 171.212 78.25" stroke="black" stroke-width="2" stroke-linecap="round" stroke-linejoin="round"/>
<path d="M159.499 106.045C159.338 96.6101 160.757 87.2147 163.698 78.25L159.499 106.045Z" fill="black"/>
<path d="M159.499 106.045C159.338 96.6101 160.757 87.2147 163.698 78.25" stroke="black" stroke-width="2" stroke-linecap="round" stroke-linejoin="round"/>
<path d="M174.516 106.045C174.355 96.6098 175.776 87.2142 178.72 78.25L174.516 106.045Z" fill="black"/>
<path d="M174.516 106.045C174.355 96.6098 175.776 87.2142 178.72 78.25" stroke="black" stroke-width="2" stroke-linecap="round" stroke-linejoin="round"/>
<path d="M144.01 62.3772C146.549 62.3772 148.607 60.3157 148.607 57.7726C148.607 55.2295 146.549 53.168 144.01 53.168C141.472 53.168 139.414 55.2295 139.414 57.7726C139.414 60.3157 141.472 62.3772 144.01 62.3772Z" fill="black" stroke="black" stroke-width="2" stroke-linecap="round" stroke-linejoin="round"/>
<path d="M155.765 54.6466C156.745 54.6466 157.539 53.8512 157.539 52.8702C157.539 51.8891 156.745 51.0938 155.765 51.0938C154.786 51.0938 153.992 51.8891 153.992 52.8702C153.992 53.8512 154.786 54.6466 155.765 54.6466Z" fill="black" stroke="black" stroke-width="2" stroke-linecap="round" stroke-linejoin="round"/>
</svg>
