<svg width="310" height="232" viewBox="0 0 310 232" fill="none" xmlns="http://www.w3.org/2000/svg">
<path d="M219.525 72.7737C219.49 69.576 218.195 66.5212 215.923 64.2725C213.65 62.0238 210.583 60.7627 207.387 60.7629H207.063V60.5645C207.063 60.5362 207.063 60.5078 207.063 60.4795C207.063 60.4511 207.063 60.4228 207.063 60.3945C207.063 57.1736 205.785 54.0846 203.508 51.807C201.232 49.5295 198.145 48.25 194.926 48.25H175.695C167.118 48.242 158.881 51.6027 152.755 57.6093C148.497 61.7174 145.457 66.9235 143.971 72.6523H91.0832C89.653 72.6508 88.2339 72.903 86.8916 73.3972C84.4773 74.2046 82.3778 75.751 80.8901 77.8178C79.4024 79.8846 78.6018 82.3671 78.6016 84.9141V171.318C78.6016 174.539 79.8803 177.628 82.1566 179.905C84.4329 182.183 87.5202 183.462 90.7393 183.462H219.258C222.477 183.462 225.564 182.183 227.84 179.905C230.117 177.628 231.395 174.539 231.395 171.318V84.9101C231.394 81.7364 230.151 78.6892 227.932 76.421C225.714 74.1527 222.696 72.8435 219.525 72.7737Z" fill="#23A094" stroke="black" stroke-width="2" stroke-miterlimit="10"/>
<path d="M155.272 168.699C155.84 166.227 157.23 164.02 159.214 162.44C161.199 160.861 163.66 160.002 166.196 160.004H219.432V171.318H155.175V171.205C155.175 170.745 155.147 170.285 155.09 169.829C155.109 169.629 155.137 169.435 155.175 169.246C155.191 169.06 155.227 168.882 155.272 168.699Z" fill="black"/>
<path d="M155.077 169.829C155.134 170.285 155.162 170.745 155.162 171.205V171.318H90.9004V160.004H143.963C146.694 160.004 149.331 161.002 151.378 162.812C153.425 164.621 154.74 167.117 155.077 169.829Z" fill="black"/>
<path d="M90.9004 84.9102V160.003V171.318H155.162H219.419V160.003V84.9102H207.661" stroke="black" stroke-width="2" stroke-linecap="round" stroke-linejoin="round"/>
<path d="M155.162 170.635V169.246V159.28V95.9948V80.5916V79.5391" stroke="black" stroke-width="2" stroke-linecap="round" stroke-linejoin="round"/>
<path d="M195.65 72.9062H207.549V150.06H170.682C166.595 150.06 162.675 151.685 159.785 154.576C156.895 157.468 155.271 161.39 155.271 165.479V170.633" stroke="black" stroke-width="2" stroke-linecap="round" stroke-linejoin="round"/>
<path d="M195.087 139.086H175.857C164.711 139.086 155.271 148.125 155.271 159.278V161.375" stroke="black" stroke-width="2" stroke-linecap="round" stroke-linejoin="round"/>
<path d="M195.087 60.3945H175.857C164.711 60.3945 155.271 69.4381 155.271 80.5908V82.6837" stroke="black" stroke-width="2" stroke-linecap="round" stroke-linejoin="round"/>
<path d="M195.088 60.5625V72.9053V139.085" stroke="black" stroke-width="2" stroke-linecap="round" stroke-linejoin="round"/>
<path d="M171.67 74.5352H169.432C165.66 74.5362 162.043 76.0363 159.376 78.7054C156.709 81.3746 155.211 84.9943 155.211 88.7685V92.7114" stroke="black" stroke-width="2" stroke-linecap="round" stroke-linejoin="round"/>
<path d="M171.67 82.4258H169.432C165.661 82.4258 162.043 83.9249 159.376 86.5934C156.709 89.2619 155.211 92.8812 155.211 96.655V100.598" stroke="black" stroke-width="2" stroke-linecap="round" stroke-linejoin="round"/>
<path d="M171.67 115.684H169.432C165.66 115.685 162.043 117.185 159.376 119.854C156.709 122.523 155.211 126.143 155.211 129.917V133.856" stroke="black" stroke-width="2" stroke-linecap="round" stroke-linejoin="round"/>
<path d="M171.669 123.57H169.432C165.661 123.574 162.046 125.075 159.381 127.743C156.716 130.412 155.219 134.031 155.219 137.804V141.747" stroke="black" stroke-width="2" stroke-linecap="round" stroke-linejoin="round"/>
<path d="M171.669 89.9688H169.432C165.661 89.972 162.045 91.4735 159.38 94.1433C156.714 96.8131 155.218 100.433 155.219 104.206V108.145" stroke="black" stroke-width="2" stroke-linecap="round" stroke-linejoin="round"/>
<path d="M91.2441 160.004H143.962C146.694 160.004 149.331 161.002 151.378 162.812C153.425 164.621 154.74 167.117 155.076 169.829C155.134 170.285 155.162 170.745 155.161 171.205" stroke="black" stroke-width="2" stroke-linecap="round" stroke-linejoin="round"/>
<path d="M218.906 160.004H166.195C163.66 160.002 161.198 160.861 159.214 162.44C157.229 164.02 155.839 166.227 155.272 168.699C155.227 168.881 155.191 169.06 155.162 169.246C155.134 169.432 155.098 169.651 155.077 169.829C155.017 170.285 154.987 170.745 154.988 171.205" stroke="black" stroke-width="2" stroke-linecap="round" stroke-linejoin="round"/>
<path d="M91.2441 84.793H143.962C145.433 84.7924 146.889 85.0818 148.248 85.6445C149.607 86.2071 150.841 87.0321 151.881 88.0723C152.921 89.1125 153.746 90.3475 154.309 91.7068C154.872 93.066 155.161 94.5229 155.161 95.9942" stroke="black" stroke-width="2" stroke-linecap="round" stroke-linejoin="round"/>
<path d="M142.879 111.996V137.249H99.9277V129.201V94.2734H142.879V111.996Z" stroke="black" stroke-width="2" stroke-linecap="round" stroke-linejoin="round"/>
<path d="M99.6445 145.199H133.003" stroke="black" stroke-width="2" stroke-linecap="round" stroke-linejoin="round"/>
<path d="M100.041 129.203C100.041 129.203 103.618 113.666 111.37 114.285C117.082 114.743 115.011 121.673 120.509 121.143C127.594 120.459 123.791 108.043 131.704 105.141C139.189 102.4 142.673 111.998 142.673 111.998" stroke="black" stroke-width="2" stroke-linecap="round" stroke-linejoin="round"/>
</svg>
