<svg width="399" height="351" viewBox="0 0 399 351" fill="none" xmlns="http://www.w3.org/2000/svg">
<path d="M262.605 122.883L194.195 109.275C188.859 108.22 183.323 109.326 178.801 112.35C174.278 115.374 171.138 120.07 170.07 125.406L160.659 172.718L127.608 191.454L127.513 191.513C127.216 191.684 126.918 191.883 126.64 192.053L126.538 192.125C126.283 192.299 126.033 192.479 125.79 192.67L125.611 192.81C125.355 193.018 125.102 193.231 124.858 193.456L124.719 193.59C124.485 193.807 124.255 194.034 124.037 194.269L123.987 194.323C123.745 194.583 123.511 194.853 123.29 195.132L123.225 195.212C122.772 195.783 122.362 196.387 121.997 197.018L121.99 197.051C121.629 197.679 121.315 198.333 121.05 199.008C121.032 199.046 121.016 199.085 121.002 199.125C120.756 199.766 120.553 200.422 120.396 201.09C120.378 201.184 120.359 201.278 120.34 201.372C120.322 201.466 120.308 201.536 120.291 201.621L118.882 208.704C118.103 212.62 118.91 216.685 121.127 220.004C123.343 223.323 126.786 225.625 130.699 226.403L209.822 242.142C210.057 242.189 210.291 242.235 210.526 242.282L210.831 242.343L211.222 242.391L211.625 242.423L211.904 242.444L212.389 242.462L212.583 242.467C212.762 242.473 212.939 242.469 213.115 242.465L213.232 242.464L213.825 242.382C215.125 242.289 216.407 242.027 217.64 241.602L217.75 241.565L218.208 241.393L218.415 241.312L218.81 241.142L219.073 241.023L219.412 240.861L219.716 240.707L220.017 240.546L220.165 240.464L259.216 218.331C261.098 217.266 262.729 215.806 263.997 214.053C265.264 212.299 266.139 210.293 266.561 208.17L278.725 147.019C279.781 141.68 278.676 136.139 275.654 131.614C272.632 127.089 267.939 123.949 262.605 122.883Z" fill="#FF90E8" stroke="black" stroke-width="2" stroke-miterlimit="10"/>
<path d="M215.039 222.091L131.809 205.535L172.867 182.264L256.098 198.82L215.039 222.091Z" stroke="black" stroke-width="2" stroke-linecap="round" stroke-linejoin="round"/>
<path d="M131.806 205.556L130.324 213.006L213.554 229.562L254.612 206.291L267.408 141.965C267.705 140.47 267.397 138.918 266.551 137.65C265.705 136.383 264.39 135.504 262.896 135.207L190.946 120.895C189.452 120.598 187.901 120.907 186.635 121.754C185.368 122.601 184.489 123.917 184.192 125.412L172.886 182.25" stroke="black" stroke-width="2" stroke-linecap="round" stroke-linejoin="round"/>
<path d="M215.039 222.094L213.556 229.549" stroke="black" stroke-width="2" stroke-linecap="round" stroke-linejoin="round"/>
<path d="M191.156 127.645L181.314 177.127L250.658 190.921L260.501 141.439L191.156 127.645ZM207.744 169.913L213.005 143.467L234.718 161.884L207.744 169.913Z" fill="black" stroke="black" stroke-width="2" stroke-linecap="round" stroke-linejoin="round"/>
<path d="M188.319 216.777L159.844 211.113L173.592 203.822L202.063 209.486L188.319 216.777Z" stroke="black" stroke-width="2" stroke-linecap="round" stroke-linejoin="round"/>
<path d="M152.789 193.93L234.705 210.225" stroke="black" stroke-width="2" stroke-linecap="round" stroke-linejoin="round"/>
<path d="M163.031 188.223L244.947 204.517" stroke="black" stroke-width="2" stroke-linecap="round" stroke-linejoin="round"/>
<path d="M164.394 196.262L184.804 184.842" stroke="black" stroke-width="2" stroke-linecap="round" stroke-linejoin="round"/>
<path d="M176.173 198.606L196.584 187.186" stroke="black" stroke-width="2" stroke-linecap="round" stroke-linejoin="round"/>
<path d="M199.733 203.29L220.14 191.869" stroke="black" stroke-width="2" stroke-linecap="round" stroke-linejoin="round"/>
<path d="M187.956 200.95L208.362 189.529" stroke="black" stroke-width="2" stroke-linecap="round" stroke-linejoin="round"/>
<path d="M211.511 205.633L231.917 194.213" stroke="black" stroke-width="2" stroke-linecap="round" stroke-linejoin="round"/>
<path d="M223.29 207.977L243.696 196.556" stroke="black" stroke-width="2" stroke-linecap="round" stroke-linejoin="round"/>
</svg>
