<svg width="303" height="232" viewBox="0 0 303 232" fill="none" xmlns="http://www.w3.org/2000/svg">
<path d="M233.131 98.2753C233.121 89.2205 229.52 80.5397 223.12 74.137C216.719 67.7343 208.041 64.1326 198.99 64.122C197.127 64.1186 195.266 64.2674 193.428 64.5671L163.411 56.9201C156.328 51.7363 147.777 48.9469 139 48.9571C128 48.9688 117.454 53.345 109.676 61.1255C101.897 68.906 97.5212 79.4553 97.5082 90.4592C97.501 96.2754 98.7232 102.027 101.095 107.338C99.8087 107.013 98.4811 106.884 97.1567 106.955C96.8853 106.955 96.6361 106.933 96.4092 106.933C92.8495 106.933 84.0349 108.268 79.5008 120.633C77.7833 125.325 76.8711 131.044 76.8711 137.169C76.8711 143.294 77.7833 149.018 79.5008 153.709C84.0394 166.07 92.8495 167.405 96.4092 167.405C98.8496 167.393 101.256 166.83 103.448 165.759L122.808 157.119H123.641V167.263C123.645 171.371 125.279 175.309 128.182 178.214C131.086 181.119 135.023 182.753 139.129 182.757H198.674C202.779 182.751 206.715 181.117 209.618 178.212C212.521 175.308 214.153 171.37 214.158 167.263V151.11C217.355 150.673 220.285 149.093 222.407 146.662C224.529 144.231 225.699 141.113 225.7 137.886V126.504C225.701 124.587 225.288 122.692 224.49 120.949C230.06 114.712 233.137 106.639 233.131 98.2753Z" fill="#FFC900" stroke="black" stroke-width="2" stroke-miterlimit="10"/>
<path d="M199.671 119.133H140.127C138.945 119.133 137.986 120.091 137.986 121.274V167.263C137.986 168.445 138.945 169.404 140.127 169.404H199.671C200.853 169.404 201.811 168.445 201.811 167.263V121.274C201.811 120.091 200.853 119.133 199.671 119.133Z" stroke="black" stroke-width="2" stroke-linecap="round" stroke-linejoin="round"/>
<path d="M139.997 118.635C155.54 118.635 168.141 106.03 168.141 90.4814C168.141 74.9328 155.54 62.3281 139.997 62.3281C124.454 62.3281 111.854 74.9328 111.854 90.4814C111.854 106.03 124.454 118.635 139.997 118.635Z" stroke="black" stroke-width="2" stroke-linecap="round" stroke-linejoin="round"/>
<path d="M199.986 119.073C211.47 119.073 220.779 109.76 220.779 98.2727C220.779 86.7851 211.47 77.4727 199.986 77.4727C188.503 77.4727 179.193 86.7851 179.193 98.2727C179.193 109.76 188.503 119.073 199.986 119.073Z" stroke="black" stroke-width="2" stroke-linecap="round" stroke-linejoin="round"/>
<path d="M159.094 69.3633L192.875 77.9673" stroke="black" stroke-width="2" stroke-linecap="round" stroke-linejoin="round"/>
<path d="M201.975 126.512H213.348V137.889H201.975" stroke="black" stroke-width="2" stroke-linecap="round" stroke-linejoin="round"/>
<path d="M188.075 128.855H152.39C149.338 128.855 146.863 131.331 146.863 134.384V134.388C146.863 137.441 149.338 139.916 152.39 139.916H188.075C191.127 139.916 193.602 137.441 193.602 134.388V134.384C193.602 131.331 191.127 128.855 188.075 128.855Z" stroke="black" stroke-width="2" stroke-linecap="round" stroke-linejoin="round"/>
<path d="M152.897 159.594C156.042 159.594 158.592 157.043 158.592 153.897C158.592 150.75 156.042 148.199 152.897 148.199C149.751 148.199 147.201 150.75 147.201 153.897C147.201 157.043 149.751 159.594 152.897 159.594Z" fill="black" stroke="black" stroke-width="2" stroke-linecap="round" stroke-linejoin="round"/>
<path d="M169.91 159.594C173.056 159.594 175.606 157.043 175.606 153.897C175.606 150.75 173.056 148.199 169.91 148.199C166.765 148.199 164.215 150.75 164.215 153.897C164.215 157.043 166.765 159.594 169.91 159.594Z" stroke="black" stroke-width="2" stroke-linecap="round" stroke-linejoin="round"/>
<path d="M137.709 130.191H121.125V143.763H137.709V130.191Z" stroke="black" stroke-width="2" stroke-linecap="round" stroke-linejoin="round"/>
<path d="M98.8477 120.309L120.958 130.195" stroke="black" stroke-width="2" stroke-linecap="round" stroke-linejoin="round"/>
<path d="M120.958 143.766L98.8477 153.656" stroke="black" stroke-width="2" stroke-linecap="round" stroke-linejoin="round"/>
<path d="M139.997 80.1816C142.944 80.1816 145.332 77.7922 145.332 74.8447C145.332 71.8972 142.944 69.5078 139.997 69.5078C137.051 69.5078 134.662 71.8972 134.662 74.8447C134.662 77.7922 137.051 80.1816 139.997 80.1816Z" stroke="black" stroke-width="2" stroke-linecap="round" stroke-linejoin="round"/>
<path d="M139.997 111.451C142.944 111.451 145.332 109.062 145.332 106.114C145.332 103.167 142.944 100.777 139.997 100.777C137.051 100.777 134.662 103.167 134.662 106.114C134.662 109.062 137.051 111.451 139.997 111.451Z" stroke="black" stroke-width="2" stroke-linecap="round" stroke-linejoin="round"/>
<path d="M153.351 87.6933C156.297 87.6933 158.686 85.3039 158.686 82.3564C158.686 79.4089 156.297 77.0195 153.351 77.0195C150.404 77.0195 148.016 79.4089 148.016 82.3564C148.016 85.3039 150.404 87.6933 153.351 87.6933Z" stroke="black" stroke-width="2" stroke-linecap="round" stroke-linejoin="round"/>
<path d="M126.644 103.943C129.59 103.943 131.979 101.554 131.979 98.6064C131.979 95.6589 129.59 93.2695 126.644 93.2695C123.697 93.2695 121.309 95.6589 121.309 98.6064C121.309 101.554 123.697 103.943 126.644 103.943Z" stroke="black" stroke-width="2" stroke-linecap="round" stroke-linejoin="round"/>
<path d="M153.759 103.201C156.705 103.201 159.094 100.812 159.094 97.8642C159.094 94.9167 156.705 92.5273 153.759 92.5273C150.812 92.5273 148.424 94.9167 148.424 97.8642C148.424 100.812 150.812 103.201 153.759 103.201Z" stroke="black" stroke-width="2" stroke-linecap="round" stroke-linejoin="round"/>
<path d="M126.233 88.373C129.18 88.373 131.569 85.9836 131.569 83.0361C131.569 80.0886 129.18 77.6992 126.233 77.6992C123.287 77.6992 120.898 80.0886 120.898 83.0361C120.898 85.9836 123.287 88.373 126.233 88.373Z" stroke="black" stroke-width="2" stroke-linecap="round" stroke-linejoin="round"/>
<path d="M139.997 93.4495C141.636 93.4495 142.965 92.1203 142.965 90.4806C142.965 88.8409 141.636 87.5117 139.997 87.5117C138.358 87.5117 137.029 88.8409 137.029 90.4806C137.029 92.1203 138.358 93.4495 139.997 93.4495Z" stroke="black" stroke-width="2" stroke-linecap="round" stroke-linejoin="round"/>
<path d="M199.986 90.5953C202.183 90.5953 203.964 88.8137 203.964 86.616C203.964 84.4183 202.183 82.6367 199.986 82.6367C197.789 82.6367 196.008 84.4183 196.008 86.616C196.008 88.8137 197.789 90.5953 199.986 90.5953Z" stroke="black" stroke-width="2" stroke-linecap="round" stroke-linejoin="round"/>
<path d="M199.986 113.923C202.183 113.923 203.964 112.142 203.964 109.944C203.964 107.746 202.183 105.965 199.986 105.965C197.789 105.965 196.008 107.746 196.008 109.944C196.008 112.142 197.789 113.923 199.986 113.923Z" stroke="black" stroke-width="2" stroke-linecap="round" stroke-linejoin="round"/>
<path d="M209.949 96.1969C212.146 96.1969 213.927 94.4153 213.927 92.2176C213.927 90.0199 212.146 88.2383 209.949 88.2383C207.752 88.2383 205.971 90.0199 205.971 92.2176C205.971 94.4153 207.752 96.1969 209.949 96.1969Z" stroke="black" stroke-width="2" stroke-linecap="round" stroke-linejoin="round"/>
<path d="M190.025 108.318C192.222 108.318 194.003 106.536 194.003 104.339C194.003 102.141 192.222 100.359 190.025 100.359C187.828 100.359 186.047 102.141 186.047 104.339C186.047 106.536 187.828 108.318 190.025 108.318Z" stroke="black" stroke-width="2" stroke-linecap="round" stroke-linejoin="round"/>
<path d="M210.255 107.767C212.452 107.767 214.233 105.986 214.233 103.788C214.233 101.59 212.452 99.8086 210.255 99.8086C208.058 99.8086 206.277 101.59 206.277 103.788C206.277 105.986 208.058 107.767 210.255 107.767Z" stroke="black" stroke-width="2" stroke-linecap="round" stroke-linejoin="round"/>
<path d="M189.72 96.6969C191.917 96.6969 193.698 94.9153 193.698 92.7176C193.698 90.5199 191.917 88.7383 189.72 88.7383C187.523 88.7383 185.742 90.5199 185.742 92.7176C185.742 94.9153 187.523 96.6969 189.72 96.6969Z" stroke="black" stroke-width="2" stroke-linecap="round" stroke-linejoin="round"/>
<path d="M199.985 100.492C201.209 100.492 202.201 99.4995 202.201 98.2752C202.201 97.051 201.209 96.0586 199.985 96.0586C198.762 96.0586 197.77 97.051 197.77 98.2752C197.77 99.4995 198.762 100.492 199.985 100.492Z" stroke="black" stroke-width="2" stroke-linecap="round" stroke-linejoin="round"/>
<path d="M97.4047 154.075C100.825 154.075 103.599 146.516 103.599 137.192C103.599 127.867 100.825 120.309 97.4047 120.309C93.984 120.309 91.2109 127.867 91.2109 137.192C91.2109 146.516 93.984 154.075 97.4047 154.075Z" fill="black" stroke="black" stroke-width="2" stroke-linecap="round" stroke-linejoin="round"/>
</svg>
