<svg width="383" height="393" viewBox="0 0 383 393" fill="none" xmlns="http://www.w3.org/2000/svg">
<path d="M234.051 166.413L181.841 180.968C177.593 178.021 172.407 175.802 166.487 174.432C167.252 172.751 167.741 170.957 167.934 169.119C168.274 165.861 167.67 162.573 166.193 159.649C164.716 156.724 162.428 154.287 159.604 152.63C156.781 150.972 153.54 150.164 150.271 150.302C147.001 150.44 143.842 151.518 141.17 153.408C140.319 152.747 139.385 152.202 138.392 151.786L134.332 150.099C131.484 148.912 128.292 148.859 125.408 149.951C122.524 151.043 120.167 153.197 118.819 155.973C116.674 160.375 114.089 165.628 113.476 166.821C113.218 167.264 112.989 167.724 112.789 168.198L112.694 168.186C109.805 167.878 106.888 168.369 104.259 169.606C101.631 170.844 99.3926 172.779 97.7877 175.202C96.1829 177.626 95.2732 180.444 95.1577 183.35C95.0422 186.256 95.7254 189.139 97.1327 191.684C95.8019 192.793 94.5267 193.936 93.3377 195.117C83.2025 205.143 79.125 217.092 82.1472 227.902C83.3277 232.097 85.5011 235.946 88.4832 239.122C97.1243 250.611 109.128 256.757 110.477 257.424C110.771 257.568 111.072 257.702 111.38 257.826C122.424 262.195 137.089 262.387 151.625 258.335L151.703 258.313C170.575 253.052 185.477 241.714 190.608 228.773C190.641 228.697 190.669 228.618 190.697 228.539C192.166 224.394 193.23 220.116 193.876 215.765L243.947 201.806C246.299 201.188 248.505 200.107 250.436 198.628C252.366 197.148 253.984 195.298 255.194 193.187C256.403 191.075 257.182 188.743 257.483 186.327C257.784 183.91 257.603 181.458 256.949 179.112C256.295 176.766 255.181 174.573 253.673 172.661C252.166 170.749 250.293 169.156 248.165 167.975C246.037 166.794 243.696 166.048 241.279 165.78C238.861 165.513 236.414 165.729 234.081 166.417L234.051 166.413Z" fill="#90A8ED" stroke="black" stroke-width="2" stroke-miterlimit="10"/>
<path d="M181.996 199.959C182.231 200.803 182.389 201.668 182.469 202.541C182.788 205.996 181.878 209.592 179.943 213.122L179.412 213.229C176.862 208 170.63 204.488 162.481 203.124C162.6 202.822 162.677 202.505 162.708 202.181C162.764 201.691 162.723 201.195 162.587 200.721C162.45 200.247 162.221 199.805 161.913 199.42C161.605 199.035 161.223 198.715 160.791 198.479C160.358 198.242 159.883 198.094 159.393 198.043C158.903 197.992 158.408 198.038 157.936 198.18C157.464 198.322 157.026 198.556 156.645 198.868C156.264 199.181 155.95 199.567 155.719 200.002C155.488 200.438 155.346 200.915 155.301 201.406C155.265 201.761 155.279 202.12 155.342 202.471L155.288 202.486C149.087 202.43 142.91 203.268 136.948 204.972C133.699 205.874 130.522 207.016 127.442 208.389C126.452 207.547 125.273 206.958 124.006 206.67C120.873 205.935 117.978 208.171 118.895 210.516C119.142 211.207 119.653 211.771 120.316 212.085L120.128 212.267C109.264 219.065 103.122 228.229 105.31 236.198C102.693 235.09 100.291 233.53 98.2146 231.587C96.186 229.687 94.7069 227.275 93.9337 224.604C90.1651 211.086 106.798 194.628 131.11 187.813C131.813 187.617 132.166 187.519 132.861 187.325L133.115 187.384C132.511 190.317 133.193 192.72 134.736 194.623C136.765 197.128 140.423 197.134 141.134 194.72C142.016 191.718 138.172 190.908 139.224 187.763C139.531 186.946 140.033 186.218 140.687 185.642L140.935 185.694C157.775 183.165 172.611 186.598 179.077 194.472C180.424 196.076 181.418 197.945 181.996 199.959Z" fill="black"/>
<path d="M162.475 203.121C170.623 204.486 176.856 207.997 179.405 213.226" stroke="black" stroke-width="2" stroke-linecap="round" stroke-linejoin="round"/>
<path d="M127.404 208.404L127.454 208.39C130.534 207.018 133.711 205.876 136.96 204.974C142.922 203.269 149.098 202.432 155.3 202.488" stroke="black" stroke-width="2" stroke-linecap="round" stroke-linejoin="round"/>
<path d="M105.343 236.256L105.327 236.197C103.139 228.229 109.28 219.06 120.144 212.266" stroke="black" stroke-width="2" stroke-linecap="round" stroke-linejoin="round"/>
<path d="M182.476 202.24C182.502 202.333 182.494 202.44 182.505 202.538C182.627 203.802 182.678 205.066 182.678 206.31C182.663 215.814 179.528 224.224 179.528 224.224C175.936 233.28 164.099 242.244 148.597 246.582C136.176 250.045 124.238 249.775 115.977 246.506C115.977 246.506 105.31 241.257 98.1797 231.629" stroke="black" stroke-width="2" stroke-linecap="round" stroke-linejoin="round"/>
<path d="M140.951 185.698C157.79 183.169 172.627 186.602 179.093 194.476C180.431 196.079 181.418 197.944 181.991 199.951C182.227 200.796 182.385 201.661 182.465 202.534C182.784 205.989 181.874 209.585 179.939 213.115C174.614 222.827 161.529 232.071 144.812 236.731C129.627 240.964 115.053 240.453 105.332 236.163C102.715 235.055 100.313 233.494 98.2361 231.552C96.2075 229.652 94.7284 227.24 93.9551 224.569C90.1866 211.051 106.82 194.593 131.131 187.778C131.834 187.582 132.187 187.483 132.882 187.29" stroke="black" stroke-width="2" stroke-linecap="round" stroke-linejoin="round"/>
<path d="M114.983 184.362C114.906 185.111 114.608 185.821 114.128 186.401C113.648 186.98 113.007 187.404 112.285 187.619C111.564 187.834 110.796 187.829 110.077 187.607C109.358 187.384 108.72 186.953 108.246 186.368C107.772 185.783 107.481 185.07 107.411 184.32C107.341 183.57 107.495 182.816 107.853 182.153C108.211 181.491 108.758 180.95 109.423 180.599C110.088 180.248 110.843 180.102 111.592 180.18C112.595 180.285 113.516 180.785 114.151 181.569C114.787 182.353 115.086 183.358 114.983 184.362V184.362Z" stroke="black" stroke-width="2" stroke-linecap="round" stroke-linejoin="round"/>
<path d="M155.341 202.472C155.277 202.12 155.263 201.762 155.299 201.407C155.344 200.916 155.486 200.438 155.717 200.003C155.948 199.567 156.262 199.182 156.643 198.869C157.024 198.556 157.463 198.322 157.934 198.18C158.406 198.039 158.901 197.992 159.391 198.043C159.881 198.095 160.356 198.243 160.789 198.479C161.221 198.716 161.603 199.035 161.911 199.42C162.219 199.805 162.448 200.248 162.585 200.722C162.721 201.196 162.762 201.692 162.706 202.182C162.675 202.505 162.599 202.823 162.479 203.125C162.192 203.886 161.663 204.532 160.974 204.963C160.285 205.395 159.474 205.588 158.664 205.514C157.854 205.44 157.091 205.103 156.491 204.553C155.89 204.004 155.486 203.272 155.341 202.472V202.472Z" stroke="black" stroke-width="2" stroke-linecap="round" stroke-linejoin="round"/>
<path d="M156.064 167.819C155.963 168.794 155.576 169.716 154.951 170.47C154.326 171.223 153.492 171.775 152.554 172.053C151.616 172.332 150.616 172.326 149.681 172.036C148.746 171.746 147.917 171.185 147.3 170.424C146.683 169.663 146.306 168.736 146.215 167.761C146.124 166.785 146.324 165.804 146.79 164.943C147.255 164.081 147.966 163.378 148.832 162.921C149.697 162.464 150.679 162.274 151.652 162.376C152.299 162.444 152.926 162.638 153.497 162.948C154.069 163.258 154.574 163.678 154.984 164.183C155.393 164.689 155.7 165.27 155.885 165.894C156.07 166.518 156.131 167.172 156.064 167.819Z" stroke="black" stroke-width="2" stroke-linecap="round" stroke-linejoin="round"/>
<path d="M133.13 187.382C133.343 186.381 133.662 185.405 134.084 184.473C136.178 179.767 141.374 178.193 142.909 181.045C144.067 183.202 142.216 184.171 140.701 185.64C140.048 186.216 139.545 186.945 139.239 187.761C138.187 190.907 142.016 191.72 141.149 194.718C140.437 197.132 136.779 197.126 134.751 194.621C133.208 192.718 132.525 190.315 133.13 187.382Z" stroke="black" stroke-width="2" stroke-linecap="round" stroke-linejoin="round"/>
<path d="M127.456 208.382C128.937 209.645 130.085 211.57 130.75 214.288C131.977 219.291 128.833 223.723 125.877 222.407C122.734 221.005 125.71 217.817 124.672 214.843C123.885 212.591 121.839 212.843 120.329 212.078C119.667 211.764 119.156 211.2 118.909 210.51C117.991 208.164 120.886 205.929 124.019 206.664C125.286 206.951 126.465 207.541 127.456 208.382V208.382Z" stroke="black" stroke-width="2" stroke-linecap="round" stroke-linejoin="round"/>
<path d="M129.858 161.235L133.918 162.923L129.877 175.439C129.877 175.439 123.816 173.203 124.079 172.887C124.342 172.571 129.858 161.235 129.858 161.235Z" stroke="black" stroke-width="2" stroke-linecap="round" stroke-linejoin="round"/>
<path d="M141.629 211.028L144.397 221.856C144.397 221.856 150.372 219.281 150.433 218.824C150.494 218.367 146.097 208.748 146.097 208.748L141.629 211.028Z" stroke="black" stroke-width="2" stroke-linecap="round" stroke-linejoin="round"/>
<path d="M179.385 194.217L237.46 178.027C239.059 177.582 240.77 177.79 242.216 178.607C243.662 179.424 244.725 180.782 245.171 182.383C245.617 183.984 245.41 185.696 244.595 187.143C243.781 188.591 242.425 189.654 240.826 190.1L182.533 206.35" stroke="black" stroke-width="2" stroke-linecap="round" stroke-linejoin="round"/>
<path d="M240.903 183.571C240.782 183.137 240.534 182.748 240.192 182.454C239.851 182.16 239.43 181.974 238.982 181.92C238.535 181.865 238.082 181.945 237.68 182.149C237.278 182.352 236.946 182.671 236.725 183.064C236.504 183.457 236.405 183.907 236.439 184.356C236.474 184.806 236.641 185.235 236.92 185.59C237.198 185.945 237.575 186.209 238.004 186.349C238.432 186.489 238.892 186.499 239.326 186.378C239.613 186.297 239.883 186.161 240.118 185.977C240.353 185.792 240.549 185.563 240.696 185.302C240.842 185.042 240.936 184.754 240.971 184.457C241.007 184.16 240.984 183.859 240.903 183.571Z" stroke="black" stroke-width="2" stroke-linecap="round" stroke-linejoin="round"/>
</svg>
