<svg width="310" height="232" viewBox="0 0 310 232" fill="none" xmlns="http://www.w3.org/2000/svg">
<path d="M225.751 102.574C225.777 102.504 225.799 102.433 225.825 102.367C225.887 102.205 225.944 102.042 225.997 101.884C226.024 101.804 226.05 101.721 226.072 101.642C226.125 101.474 226.178 101.307 226.222 101.136L226.275 100.938C226.323 100.735 226.372 100.533 226.411 100.331C226.409 100.297 226.409 100.263 226.411 100.229C226.607 99.2153 226.683 98.1817 226.636 97.15V97.106C226.636 96.8552 226.605 96.6001 226.579 96.3493C226.526 95.8406 226.443 95.3353 226.332 94.836C226.332 94.792 226.332 94.7524 226.301 94.7084C226.253 94.5193 226.204 94.3257 226.152 94.1409C226.152 94.0705 226.112 94.0002 226.09 93.9298C226.037 93.7626 225.984 93.5954 225.927 93.4283C225.927 93.3579 225.878 93.2875 225.856 93.2215C225.777 93.0103 225.698 92.7816 225.61 92.5924C225.609 92.5763 225.609 92.5601 225.61 92.544C225.513 92.3197 225.411 92.1041 225.301 91.8797C225.275 91.8181 225.244 91.761 225.213 91.7038L224.949 91.2111C224.929 91.1812 224.912 91.1504 224.896 91.1187L202.687 52.8456L202.661 52.7972C202.511 52.5465 202.352 52.2957 202.185 52.0538C202.15 51.9966 202.11 51.9438 202.075 51.891C201.916 51.6666 201.758 51.4511 201.586 51.2355L201.533 51.1651C201.348 50.9364 201.154 50.7252 200.956 50.5052L200.823 50.3645C200.411 49.9242 199.97 49.5127 199.502 49.1327L199.427 49.0755C198.929 48.6837 198.403 48.3293 197.853 48.0153H197.823C197.282 47.7057 196.72 47.4366 196.139 47.2102L196.016 47.1618C195.738 47.0519 195.461 46.9551 195.17 46.8671L195.051 46.8319C194.822 46.7615 194.584 46.6999 194.346 46.6427L194.064 46.5811L193.901 46.5416C193.711 46.502 193.522 46.4712 193.333 46.4404L193.143 46.414C192.883 46.3744 192.623 46.348 192.363 46.326H192.134C191.521 46.282 190.905 46.282 190.292 46.326H190.204C189.851 46.3568 189.499 46.3964 189.151 46.4536L146.294 53.1096C146.113 53.136 145.937 53.1711 145.761 53.2063H145.655C145.413 53.2547 145.17 53.3163 144.928 53.3779L144.69 53.4483L144.179 53.6023L143.937 53.6859C143.738 53.7562 143.54 53.831 143.346 53.9102L143.218 53.9586C142.985 54.0554 142.751 54.1654 142.522 54.2754L142.337 54.3721C142.161 54.4601 141.985 54.5525 141.813 54.6493L141.698 54.7109L141.619 54.7593C141.412 54.8824 141.209 55.01 141.006 55.142L140.958 55.1728C140.746 55.318 140.517 55.4675 140.332 55.6127L140.156 55.7535C140.006 55.8679 139.865 55.9866 139.715 56.1098L139.535 56.2638C139.367 56.4134 139.208 56.5629 139.05 56.7037L138.975 56.7785C138.794 56.9545 138.622 57.1392 138.455 57.3284L138.31 57.4956C138.191 57.6363 138.072 57.7771 137.957 57.9355C137.904 58.0015 137.856 58.0675 137.803 58.1291L137.697 58.2698L118.538 84.1107V84.1371C118.216 84.5819 117.921 85.0462 117.657 85.5273C117.524 85.7648 117.401 86.0024 117.282 86.2444V86.2708C116.931 87.0025 116.649 87.7654 116.441 88.5495L116.414 88.6507C116.358 88.8795 116.305 89.1126 116.255 89.3502C116.255 89.3722 116.255 89.3986 116.255 89.425C116.207 89.6845 116.163 89.9441 116.128 90.208C116.128 90.208 116.128 90.2432 116.128 90.2608C116.097 90.4896 116.075 90.7008 116.057 90.9471V91.1671C116.057 91.3518 116.057 91.5366 116.057 91.7214C116.057 91.7918 116.057 91.8665 116.057 91.9413C116.057 92.1921 116.057 92.4428 116.057 92.6892V92.7156C116.057 92.9575 116.092 93.2039 116.123 93.4459C116.123 93.5118 116.123 93.5778 116.15 93.6438C116.15 93.8418 116.203 94.0398 116.238 94.2377C116.238 94.2949 116.26 94.3521 116.269 94.4093C116.367 94.9346 116.498 95.4533 116.661 95.9622V95.9886C116.745 96.2481 116.837 96.5033 116.938 96.7585L116.965 96.8245C116.965 96.8772 117.005 96.9344 117.027 96.9872L96.8232 96.8376H96.713C96.5544 96.8376 96.4001 96.8376 96.2415 96.8376H96.0696C95.8581 96.8376 95.629 96.864 95.4263 96.886C92.6758 97.139 90.0749 98.2503 87.9927 100.062L87.7768 100.247L87.5741 100.436L87.3185 100.678L87.2877 100.709L87.2612 100.735C87.1995 100.797 87.1466 100.859 87.0893 100.92L86.8294 101.188L86.5958 101.461L86.4064 101.681C86.3094 101.8 86.2169 101.919 86.1244 102.042L86.0142 102.183C85.904 102.332 85.7983 102.482 85.6925 102.623L85.6485 102.689C85.5295 102.86 85.4193 103.036 85.3092 103.216C84.7508 104.133 84.3068 105.114 83.9873 106.138V106.164C83.93 106.349 83.8771 106.533 83.8286 106.723C83.83 106.748 83.83 106.773 83.8286 106.797C83.789 106.969 83.7493 107.136 83.7141 107.308C83.7141 107.352 83.714 107.396 83.6832 107.44C83.6523 107.594 83.6303 107.748 83.6039 107.902C83.6039 107.963 83.6039 108.025 83.573 108.086C83.551 108.227 83.5334 108.364 83.5201 108.5C83.5069 108.636 83.5202 108.658 83.4937 108.737C83.4673 108.817 83.4937 108.988 83.4629 109.116C83.432 109.243 83.4629 109.296 83.4629 109.384C83.4629 109.472 83.4629 109.631 83.4629 109.754C83.4629 109.877 83.4629 109.921 83.4629 110.009L83.3483 171.646C83.3371 172.775 83.4734 173.9 83.7537 174.994C84.0415 176.152 84.4863 177.265 85.0756 178.302L85.1373 178.408C85.2827 178.654 85.4326 178.896 85.578 179.129C85.6176 179.191 85.6617 179.243 85.7014 179.301C85.8159 179.463 85.9305 179.622 86.0494 179.78L86.2566 180.044C86.3932 180.211 86.5342 180.374 86.6972 180.537C86.8603 180.7 86.8999 180.757 87.0056 180.862C87.1114 180.968 87.1819 181.052 87.2744 181.14L87.5785 181.43C87.7019 181.544 87.8297 181.654 87.9574 181.764C88.0852 181.874 88.2086 181.975 88.3364 182.081L88.733 182.385L88.9841 182.561C89.1956 182.71 89.4247 182.851 89.623 183C89.8698 183.15 90.1166 183.291 90.3722 183.44L90.4735 183.493C91.2573 183.901 92.0813 184.227 92.9323 184.465H92.9631C93.5119 184.617 94.0696 184.735 94.6331 184.817L94.8711 184.848C95.0562 184.874 95.2412 184.892 95.4263 184.905L95.7347 184.932C95.9727 184.932 96.2106 184.958 96.453 184.958H96.6337L159.068 185.424H159.165C159.381 185.424 159.606 185.424 159.808 185.424H159.95L160.456 185.389H160.562C160.743 185.389 160.923 185.35 161.104 185.323H161.13C163.623 184.951 165.955 183.871 167.85 182.213L168.004 182.081L168.251 181.852L168.467 181.645L168.494 181.619L168.529 181.588C168.599 181.518 168.661 181.448 168.731 181.373C168.802 181.298 168.881 181.219 168.952 181.14L169.221 180.836L169.379 180.651C169.485 180.519 169.586 180.392 169.683 180.26C169.714 180.22 169.745 180.185 169.771 180.145C169.89 179.991 170.001 179.829 170.111 179.67L170.137 179.626C170.862 178.557 171.421 177.386 171.798 176.151C171.856 175.957 171.909 175.764 171.961 175.57V175.513C172.005 175.337 172.045 175.161 172.085 174.981C172.085 174.945 172.085 174.91 172.085 174.871C172.12 174.708 172.146 174.545 172.173 174.382L172.199 174.224C172.221 174.074 172.239 173.929 172.257 173.784C172.257 173.714 172.257 173.648 172.257 173.577C172.257 173.441 172.257 173.305 172.287 173.164C172.318 173.023 172.287 173.01 172.287 172.931C172.287 172.851 172.287 172.649 172.287 172.513C172.287 172.376 172.287 172.372 172.287 172.306V172.209L172.336 144.89L197.545 144.93C200.064 144.929 202.53 144.21 204.654 142.857C206.777 141.504 208.469 139.573 209.53 137.293L223.931 106.538C224.755 105.327 225.37 103.988 225.751 102.574Z" fill="#FFC900" stroke="black" stroke-width="2" stroke-miterlimit="10"/>
<path d="M212.288 99.5898L197.386 131.607L187.533 131.59V130.626L212.288 99.5898Z" fill="black"/>
<path d="M187.534 130.629V131.592L159.24 131.548H158.963L158.972 125.869H159.738L161.448 125.336L159.24 123.137H158.981L158.994 116.27H159.694L187.534 130.629Z" fill="black"/>
<path d="M161.447 125.336L159.737 125.869H158.971L158.98 123.137H159.239L161.447 125.336Z" fill="black"/>
<path d="M158.887 172.109L96.2715 171.643L138.08 151.406L158.887 172.109Z" fill="black"/>
<path d="M158.887 172.109L96.2715 171.642L96.3861 109.926L136.136 110.221L147.258 110.3L159.001 110.388L158.992 116.269L158.979 123.137L158.97 125.868L158.962 131.548L158.887 172.109Z" stroke="black" stroke-width="2" stroke-linecap="round" stroke-linejoin="round"/>
<path d="M96.3867 109.926L138.08 151.406L158.887 172.109" stroke="black" stroke-width="2" stroke-linecap="round" stroke-linejoin="round"/>
<path d="M159.001 110.387L138.132 151.378L138.08 151.405L96.2715 171.641" stroke="black" stroke-width="2" stroke-linecap="round" stroke-linejoin="round"/>
<path d="M106.783 143.289L116.984 145.863" stroke="black" stroke-width="2" stroke-linecap="round" stroke-linejoin="round"/>
<path d="M148.66 143.978L149.268 150.101L151.538 143.723L152.282 149.468" stroke="black" stroke-width="2" stroke-linecap="round" stroke-linejoin="round"/>
<path d="M135.394 160.363L133.283 165.409L136.518 162.84" stroke="black" stroke-width="2" stroke-linecap="round" stroke-linejoin="round"/>
<path d="M130.643 118.645L131.418 128.582L138.217 128.477L135.604 124.003" stroke="black" stroke-width="2" stroke-linecap="round" stroke-linejoin="round"/>
<path d="M136.138 110.207L128.902 91.8226L148.061 65.9817L191.006 59.3125L213.215 97.5988L212.289 99.5916L197.387 131.609L187.534 131.591L159.241 131.547" stroke="black" stroke-width="2" stroke-linecap="round" stroke-linejoin="round"/>
<path d="M147.264 109.861L128.902 91.8242" stroke="black" stroke-width="2" stroke-linecap="round" stroke-linejoin="round"/>
<path d="M213.215 97.5975L185.472 86.5116L148.061 65.9805L147.264 109.858L185.472 86.5116L187.534 130.627L159.694 116.268" stroke="black" stroke-width="2" stroke-linecap="round" stroke-linejoin="round"/>
<path d="M212.742 99.0195L212.288 99.5914L187.533 130.628" stroke="black" stroke-width="2" stroke-linecap="round" stroke-linejoin="round"/>
<path d="M191.005 59.3125L185.471 86.5128" stroke="black" stroke-width="2" stroke-linecap="round" stroke-linejoin="round"/>
<path d="M137.746 89.5635L139.888 86.3477L139.354 91.6619" stroke="black" stroke-width="2" stroke-linecap="round" stroke-linejoin="round"/>
<path d="M155.16 88.1632L158.853 83.0117" stroke="black" stroke-width="2" stroke-linecap="round" stroke-linejoin="round"/>
<path d="M159.451 90.6749L163.148 85.5234" stroke="black" stroke-width="2" stroke-linecap="round" stroke-linejoin="round"/>
<path d="M182.516 69.0987L178.462 67.207L179.207 71.9054L175.303 70.0225" stroke="black" stroke-width="2" stroke-linecap="round" stroke-linejoin="round"/>
<path d="M177.691 106.813L169.006 105.801" stroke="black" stroke-width="2" stroke-linecap="round" stroke-linejoin="round"/>
<path d="M177.266 112.587L175.821 110.356L171.534 112.314L168.484 109.477" stroke="black" stroke-width="2" stroke-linecap="round" stroke-linejoin="round"/>
<path d="M193.936 80.6801L196.042 83.874L195.174 78.8633L197.853 82.4134" stroke="black" stroke-width="2" stroke-linecap="round" stroke-linejoin="round"/>
<path d="M201.862 101.459L194.49 99.3867L194.997 104.956" stroke="black" stroke-width="2" stroke-linecap="round" stroke-linejoin="round"/>
<path d="M159.24 123.137L161.448 125.336L159.738 125.869" stroke="black" stroke-width="2" stroke-linecap="round" stroke-linejoin="round"/>
</svg>
