<svg width="506" height="493" viewBox="0 0 506 493" fill="none" xmlns="http://www.w3.org/2000/svg">
<path d="M324.15 287.812C326.414 278.047 326.484 268.812 324.347 260.381C322.201 251.847 317.751 244.067 311.484 237.889C311.109 234.767 309.986 231.78 308.21 229.184C306.435 226.588 304.058 224.459 301.284 222.978C298.766 221.591 295.978 220.768 293.111 220.565C290.245 220.362 287.368 220.784 284.681 221.802C274.596 218.397 264.654 217.647 255.121 219.571C247.758 221.077 240.803 224.142 234.724 228.561L231.517 226.808C231.309 226.694 231.103 226.581 230.884 226.462L202.183 210.771C199.641 209.098 193.002 205.525 184.865 207.263C180.32 208.231 173.909 211.196 169.202 219.807C164.086 229.164 165.208 239.528 172.278 248.238C176.575 253.531 182.126 257.145 185.913 259.392C190.654 262.21 205.925 270.801 208.932 272.49L209.058 272.559L209.467 272.783L209.682 272.9L210.547 271.318L209.714 272.918C211.141 273.698 218.251 277.605 232.098 285.176L259.634 300.23L285.778 314.522L295.533 319.855C298.28 321.368 301.493 321.801 304.543 321.069C307.593 320.338 310.259 318.495 312.021 315.901C312.362 315.406 320.534 303.391 324.15 287.812Z" fill="#23A094" stroke="black" stroke-width="2" stroke-miterlimit="10"/>
<path d="M289.06 237.996C288.088 237.497 287.128 237.033 286.179 236.602L286.267 236.44C287.799 233.64 291.685 232.826 294.954 234.613C298.224 236.4 299.628 240.119 298.102 242.91L297.735 243.392C297.036 242.857 296.307 242.332 295.549 241.819C294.077 240.812 292.487 239.841 290.778 238.906C290.199 238.573 289.632 238.272 289.06 237.996Z" fill="black"/>
<path d="M202.73 250.55C205.331 255.824 209.428 258.939 214.854 262.017C211.395 260.072 196.619 251.756 192.088 249.065C186.93 246.002 173.822 237.644 179.982 226.375C186.143 215.106 195.283 222.076 195.283 222.076C206.554 228.238 197.056 239.076 202.73 250.55Z" fill="black"/>
<path d="M214.856 262.016C209.43 258.938 205.333 255.823 202.732 250.549C197.058 239.075 206.556 228.237 195.285 222.075C195.285 222.075 186.149 215.128 179.988 226.397C173.828 237.666 186.936 246.024 192.082 249.08C196.625 251.778 211.395 260.09 214.847 262.031" stroke="black" stroke-width="2" stroke-linecap="round" stroke-linejoin="round"/>
<path d="M214.856 262.018C215.1 262.151 215.343 262.284 215.59 262.419" stroke="black" stroke-width="2" stroke-linecap="round" stroke-linejoin="round"/>
<path d="M236.35 244.262C236.35 244.262 243.753 235.234 257.354 232.472C265.045 230.922 274.727 231.365 286.186 236.59C287.133 237.023 288.093 237.487 289.066 237.983C289.623 238.288 290.199 238.574 290.772 238.887C292.481 239.821 294.072 240.792 295.543 241.8C296.304 242.314 297.032 242.839 297.73 243.373C329.82 267.806 301.318 309.3 301.318 309.3L291.551 303.96L260.742 287.117C239.82 275.68 218.136 263.825 215.585 262.43" stroke="black" stroke-width="2" stroke-linecap="round" stroke-linejoin="round"/>
<path d="M195.283 222.078L232.289 242.309C233.644 243.049 234.917 243.821 236.109 244.623C242.365 248.807 246.454 253.855 248.447 260C248.773 261 249.04 262.019 249.246 263.051C249.522 264.478 249.658 265.93 249.653 267.383C249.673 269.791 249.469 272.051 249.795 274.289C250.368 278.301 252.648 282.223 260.931 286.752C260.931 286.752 274.77 256.535 289.046 238.001C289.046 238.001 289.046 238.001 289.058 237.979" stroke="black" stroke-width="2" stroke-linecap="round" stroke-linejoin="round"/>
<path d="M286.262 236.421C287.793 233.62 291.679 232.806 294.948 234.593C298.218 236.381 299.622 240.1 298.096 242.891" stroke="black" stroke-width="2" stroke-linecap="round" stroke-linejoin="round"/>
<path d="M207.211 228.819L207.243 228.836C207.531 228.993 209.741 230.613 208.449 242.18C207.311 252.294 220.203 258.61 229.034 263.438C239.741 269.292 249.528 274.153 249.528 274.153" stroke="black" stroke-width="2" stroke-linecap="round" stroke-linejoin="round"/>
<path d="M216.655 233.983L216.677 233.995C216.879 234.106 218.428 235.228 217.519 243.321C216.726 250.389 225.738 254.802 231.91 258.176C239.395 262.268 249.145 267.257 249.145 267.257" stroke="black" stroke-width="2" stroke-linecap="round" stroke-linejoin="round"/>
<path d="M224.837 238.207C224.853 238.213 224.868 238.221 224.881 238.232C225.076 238.371 225.839 239.224 225.344 243.664C224.878 247.795 230.145 250.374 233.753 252.346C238.127 254.738 248.209 260.052 248.209 260.052" stroke="black" stroke-width="2" stroke-linecap="round" stroke-linejoin="round"/>
<path d="M291.551 303.958C295.506 295.384 313.478 262.511 295.452 241.928" stroke="black" stroke-width="2" stroke-linecap="round" stroke-linejoin="round"/>
<path d="M259.01 255.916C259.254 255.988 264.472 257.558 263.198 261.626C261.895 265.792 249.248 263.042 249.248 263.042" stroke="black" stroke-width="2" stroke-linecap="round" stroke-linejoin="round"/>
<path d="M254.639 246.163C255.688 245.915 269.238 242.915 270.875 248.5C272.547 254.202 259.504 255.847 259.01 255.915" stroke="black" stroke-width="2" stroke-linecap="round" stroke-linejoin="round"/>
<path d="M254.601 246.17L254.64 246.161" stroke="black" stroke-width="2" stroke-linecap="round" stroke-linejoin="round"/>
<path d="M257.369 232.589C257.369 232.589 267.45 232.001 266.573 237.621C265.736 242.988 255.553 245.913 254.635 246.171" stroke="black" stroke-width="2" stroke-linecap="round" stroke-linejoin="round"/>
</svg>
