<svg width="303" height="232" viewBox="0 0 303 232" fill="none" xmlns="http://www.w3.org/2000/svg">
<path d="M234.772 111.355L217.315 86.5864C217.002 86.1408 216.66 85.7166 216.291 85.3165L200.908 62.9361C199.682 61.1514 198.029 59.7007 196.099 58.7158C194.169 57.7308 192.024 57.2426 189.857 57.2956C187.69 57.3485 185.571 57.9409 183.692 59.019C181.813 60.097 180.233 61.6267 179.095 63.4691L165.21 54.4285C163.168 53.097 160.794 52.3647 158.356 52.3152C155.919 52.2657 153.516 52.9008 151.422 54.1484C149.329 55.3959 147.628 57.2057 146.513 59.3715C145.399 61.5374 144.916 63.9723 145.119 66.3989L145.375 69.463L139.487 68.8649C137.72 68.6861 135.936 68.8701 134.243 69.4058C132.55 69.9414 130.985 70.8173 129.643 71.9795C128.302 73.1418 127.213 74.5658 126.443 76.164C125.674 77.7622 125.239 79.5009 125.167 81.273H85.8888C82.4363 81.273 79.1251 82.6428 76.6838 85.0811C74.2425 87.5194 72.8711 90.8265 72.8711 94.2748V166.405C72.8711 169.853 74.2425 173.16 76.6838 175.598C79.1251 178.037 82.4363 179.406 85.8888 179.406H224.11C227.563 179.406 230.874 178.037 233.315 175.598C235.756 173.16 237.128 169.853 237.128 166.405V118.84C237.133 116.162 236.31 113.548 234.772 111.355Z" fill="#FF90E8" stroke="black" stroke-width="2" stroke-miterlimit="10"/>
<path d="M206.429 94.1401V94.1358L206.533 94.0664L223.985 118.835V166.404H206.242V94.2701L206.429 94.1401Z" fill="black"/>
<path d="M153.012 112.589V166.404H138.996V94.2695L142.233 98.5601L152.821 112.589H153.012Z" fill="black"/>
<path d="M85.7676 166.404V94.2695H138.997V166.404" stroke="black" stroke-width="2" stroke-linecap="round" stroke-linejoin="round"/>
<path d="M153.012 166.404V112.589V94.2695H206.241V166.404" stroke="black" stroke-width="2" stroke-linecap="round" stroke-linejoin="round"/>
<path d="M206.919 94.8479L206.429 94.1414V94.1371L190.039 70.2918L187.549 84.5938L157.968 65.3164L159.526 83.974L138.047 81.7984L148.01 96.4124L143.033 97.964" stroke="black" stroke-width="2" stroke-linecap="round" stroke-linejoin="round"/>
<path d="M206.532 94.0664L223.985 118.835V166.404H206.242H153.012H138.997H85.7676" stroke="black" stroke-width="2" stroke-linecap="round" stroke-linejoin="round"/>
<path d="M138.996 94.2695L142.233 98.5601L152.821 112.589" stroke="black" stroke-width="2" stroke-linecap="round" stroke-linejoin="round"/>
<path d="M118.707 114.795C118.707 113.546 118.336 112.325 117.642 111.287C116.947 110.248 115.959 109.439 114.804 108.961C113.649 108.483 112.378 108.358 111.151 108.602C109.925 108.845 108.798 109.447 107.914 110.33C107.03 111.213 106.428 112.338 106.184 113.563C105.94 114.788 106.065 116.058 106.544 117.211C107.022 118.365 107.833 119.352 108.872 120.045C109.912 120.739 111.134 121.11 112.385 121.11C113.215 121.11 114.038 120.947 114.805 120.63C115.572 120.313 116.269 119.848 116.857 119.261C117.444 118.675 117.909 117.979 118.227 117.212C118.544 116.446 118.708 115.624 118.707 114.795V114.795Z" stroke="black" stroke-width="2" stroke-linecap="round" stroke-linejoin="round"/>
<path d="M185.947 114.795C185.947 113.546 185.576 112.325 184.881 111.286C184.187 110.248 183.199 109.439 182.043 108.961C180.888 108.483 179.616 108.358 178.39 108.602C177.163 108.846 176.037 109.448 175.153 110.331C174.269 111.215 173.667 112.341 173.424 113.566C173.18 114.791 173.306 116.061 173.785 117.215C174.264 118.368 175.075 119.354 176.116 120.047C177.156 120.741 178.379 121.11 179.629 121.11C180.459 121.11 181.281 120.946 182.048 120.629C182.815 120.311 183.512 119.846 184.098 119.26C184.685 118.673 185.15 117.977 185.467 117.211C185.785 116.445 185.948 115.624 185.947 114.795V114.795Z" stroke="black" stroke-width="2" stroke-linecap="round" stroke-linejoin="round"/>
<path d="M195.35 159.882C195.35 159.328 195.514 158.786 195.822 158.326C196.131 157.865 196.568 157.507 197.081 157.295C197.593 157.083 198.157 157.028 198.701 157.136C199.245 157.245 199.744 157.512 200.136 157.904C200.528 158.296 200.795 158.795 200.903 159.338C201.01 159.882 200.954 160.445 200.741 160.956C200.528 161.468 200.168 161.905 199.707 162.212C199.245 162.519 198.703 162.682 198.148 162.681C197.406 162.68 196.694 162.385 196.169 161.86C195.644 161.335 195.35 160.624 195.35 159.882V159.882Z" stroke="black" stroke-width="2" stroke-linecap="round" stroke-linejoin="round"/>
<path d="M126.946 148.331C127.455 146.111 127.455 143.806 126.946 141.587C126.117 138.024 124.005 134.89 121.012 132.782C118.019 130.674 114.354 129.739 110.715 130.156C107.077 130.572 103.719 132.311 101.281 135.041C98.8433 137.771 97.4961 141.301 97.4961 144.959C97.4961 148.617 98.8433 152.147 101.281 154.877C103.719 157.606 107.077 159.345 110.715 159.762C114.354 160.178 118.019 159.244 121.012 157.136C124.005 155.028 126.117 151.894 126.946 148.331Z" stroke="black" stroke-width="2" stroke-linecap="round" stroke-linejoin="round"/>
<path d="M102.373 134.672V135.101V141.654V148.207V154.76V155.184" stroke="black" stroke-width="2" stroke-linecap="round" stroke-linejoin="round"/>
<path d="M108.938 131.352V135.1V141.653V148.206V154.759V158.504" stroke="black" stroke-width="2" stroke-linecap="round" stroke-linejoin="round"/>
<path d="M115.496 131.352V135.1V141.653V148.206V154.759V158.504" stroke="black" stroke-width="2" stroke-linecap="round" stroke-linejoin="round"/>
<path d="M122.057 134.672V135.101V141.654V148.207V154.76V155.184" stroke="black" stroke-width="2" stroke-linecap="round" stroke-linejoin="round"/>
<path d="M122.911 135.102H122.056H115.495H108.938H102.373" stroke="black" stroke-width="2" stroke-linecap="round" stroke-linejoin="round"/>
<path d="M126.236 141.652H122.057H115.496H108.939H102.374H99.0547" stroke="black" stroke-width="2" stroke-linecap="round" stroke-linejoin="round"/>
<path d="M126.236 148.207H122.057H115.496H108.939H102.374H99.0547" stroke="black" stroke-width="2" stroke-linecap="round" stroke-linejoin="round"/>
<path d="M122.911 154.762H122.056H115.495H108.938H102.373" stroke="black" stroke-width="2" stroke-linecap="round" stroke-linejoin="round"/>
<path d="M194.187 148.328C194.853 145.465 194.657 142.469 193.624 139.716C192.591 136.964 190.768 134.577 188.383 132.855C185.997 131.134 183.156 130.154 180.215 130.039C177.274 129.924 174.365 130.678 171.852 132.208C169.339 133.738 167.334 135.975 166.089 138.639C164.844 141.302 164.414 144.273 164.853 147.18C165.292 150.087 166.58 152.799 168.557 154.977C170.533 157.155 173.109 158.702 175.962 159.423C177.163 159.731 178.398 159.885 179.638 159.882C183.014 159.88 186.29 158.737 188.933 156.639C191.576 154.542 193.431 151.612 194.196 148.328H194.187Z" stroke="black" stroke-width="2" stroke-linecap="round" stroke-linejoin="round"/>
<path d="M169.623 134.672V135.101V141.654V148.207V154.76V155.184" stroke="black" stroke-width="2" stroke-linecap="round" stroke-linejoin="round"/>
<path d="M176.18 131.352V135.1V141.653V148.206V154.759V158.504" stroke="black" stroke-width="2" stroke-linecap="round" stroke-linejoin="round"/>
<path d="M182.74 131.352V135.1V141.653V148.206V154.759V158.504" stroke="black" stroke-width="2" stroke-linecap="round" stroke-linejoin="round"/>
<path d="M189.297 134.672V135.101V141.654V148.207V154.76V155.184" stroke="black" stroke-width="2" stroke-linecap="round" stroke-linejoin="round"/>
<path d="M190.156 135.102H189.297H182.741H176.18H169.623" stroke="black" stroke-width="2" stroke-linecap="round" stroke-linejoin="round"/>
<path d="M193.483 141.652H189.296H182.739H176.178H169.622H166.289" stroke="black" stroke-width="2" stroke-linecap="round" stroke-linejoin="round"/>
<path d="M193.483 148.207H189.296H182.739H176.178H169.622H166.289" stroke="black" stroke-width="2" stroke-linecap="round" stroke-linejoin="round"/>
<path d="M190.156 154.762H189.297H182.741H176.18H169.623" stroke="black" stroke-width="2" stroke-linecap="round" stroke-linejoin="round"/>
</svg>
