<svg width="367" height="349" viewBox="0 0 367 349" fill="none" xmlns="http://www.w3.org/2000/svg">
<path d="M237.184 171.05C236.904 169.928 236.53 168.832 236.066 167.773C236.582 163.943 235.601 160.062 233.327 156.938L237.348 153.076C239.601 150.897 241.115 148.067 241.678 144.984C242.241 141.9 241.824 138.718 240.487 135.884C239.15 133.049 236.958 130.705 234.221 129.18C231.483 127.655 228.337 127.025 225.223 127.38L220.06 127.987C218.423 124.523 215.523 121.816 211.954 120.422C208.386 119.029 204.419 119.053 200.868 120.491L198.988 116.526C197.77 113.953 195.846 111.78 193.439 110.261C191.033 108.741 188.244 107.938 185.399 107.944C182.553 107.95 179.767 108.765 177.367 110.295C174.967 111.825 173.052 114.006 171.844 116.583L170.158 120.178L166.12 118.212C163.301 116.837 160.121 116.38 157.029 116.906C153.936 117.432 151.086 118.914 148.88 121.144C146.673 123.374 145.221 126.239 144.727 129.338C144.233 132.436 144.723 135.611 146.127 138.417L147.264 140.678C145.469 141.926 143.966 143.552 142.863 145.441C141.76 147.33 141.083 149.437 140.878 151.615C138.436 151.959 136.092 152.808 133.996 154.108C131.899 155.408 130.097 157.13 128.703 159.164L128.526 159.13C118.666 157.436 108.535 159.695 100.329 165.419C92.1222 171.142 86.5003 179.869 84.6809 189.709C82.8615 199.549 84.9912 209.709 90.6086 217.989C96.2259 226.268 104.879 232.001 114.692 233.944C115.031 234.01 115.37 234.077 115.708 234.143C115.959 234.192 116.199 234.239 116.474 234.292L216.386 253.814C220.291 254.577 224.339 253.757 227.64 251.535C230.941 249.313 233.224 245.87 233.987 241.964L244.356 188.897C245.005 185.547 244.674 182.081 243.402 178.915C242.129 175.749 239.97 173.018 237.184 171.05Z" fill="#FFCB25" stroke="black" stroke-width="2" stroke-miterlimit="10"/>
<path d="M219.662 239.179L120.168 219.739" stroke="black" stroke-width="2" stroke-linecap="round" stroke-linejoin="round"/>
<path d="M140.104 175.862L141.484 168.798C141.621 168.097 142.03 167.48 142.622 167.081C143.214 166.683 143.94 166.536 144.64 166.672L228.331 183.025C228.678 183.093 229.008 183.228 229.302 183.423C229.596 183.619 229.849 183.87 230.045 184.163C230.242 184.456 230.379 184.785 230.449 185.132C230.519 185.478 230.519 185.834 230.451 186.181L220.082 239.248" stroke="black" stroke-width="2" stroke-linecap="round" stroke-linejoin="round"/>
<path d="M118.384 219.396C130.872 221.836 142.974 213.689 145.414 201.198C147.855 188.708 139.71 176.604 127.222 174.164C114.735 171.724 102.633 179.872 100.192 192.362C97.7518 204.853 105.897 216.956 118.384 219.396Z" fill="black" stroke="black" stroke-width="2" stroke-linecap="round" stroke-linejoin="round"/>
<path d="M146.66 224.9C152.657 226.072 158.874 224.813 163.943 221.4C169.012 217.988 172.518 212.701 173.69 206.702C174.862 200.704 173.604 194.486 170.192 189.417C166.781 184.347 161.495 180.84 155.498 179.668L127.229 174.145" stroke="black" stroke-width="2" stroke-linecap="round" stroke-linejoin="round"/>
<path d="M108.107 186.964C110.032 184.114 112.753 181.894 115.931 180.58C119.109 179.267 122.603 178.919 125.978 179.58" stroke="white" stroke-width="2" stroke-linecap="round" stroke-linejoin="round"/>
<path d="M105.523 200.554C105.003 198.202 104.974 195.767 105.438 193.403" stroke="white" stroke-width="2" stroke-linecap="round" stroke-linejoin="round"/>
<path d="M171.328 170.699L174.841 152.717C175.019 151.802 175.376 150.931 175.891 150.153C176.406 149.376 177.069 148.708 177.842 148.187C178.615 147.666 179.484 147.302 180.398 147.117C181.311 146.932 182.253 146.928 183.168 147.107L200.002 150.396C201.849 150.759 203.477 151.84 204.527 153.402C205.578 154.964 205.965 156.88 205.604 158.728L191.034 233.297" stroke="black" stroke-width="2" stroke-linecap="round" stroke-linejoin="round"/>
<path d="M156.621 153.182L168.736 148.603L160.355 131.859L178.089 140.503L186.239 123.1L194.793 141.177L207.306 134.556L205.692 145.035L227.778 142.439L213.959 155.717L222.03 165.963L156.621 153.182Z" stroke="black" stroke-width="2" stroke-linecap="round" stroke-linejoin="round"/>
<path d="M157.24 180.215L199.449 188.462L205.728 194.658C208.692 197.262 212.293 199.033 216.164 199.791L226.962 201.901" stroke="black" stroke-width="2" stroke-linecap="round" stroke-linejoin="round"/>
<path d="M179.366 225.263C181.893 225.757 184.341 224.109 184.835 221.582C185.328 219.055 183.681 216.606 181.154 216.113C178.628 215.619 176.18 217.267 175.686 219.794C175.192 222.321 176.84 224.77 179.366 225.263Z" stroke="black" stroke-width="2" stroke-linecap="round" stroke-linejoin="round"/>
<path d="M219.056 170.707C220.532 170.998 221.833 171.863 222.672 173.113C223.511 174.362 223.821 175.894 223.532 177.371L222.698 181.637L211.557 179.46L212.391 175.194C212.68 173.715 213.544 172.411 214.794 171.57C216.044 170.728 217.577 170.418 219.056 170.707V170.707Z" stroke="black" stroke-width="2" stroke-linecap="round" stroke-linejoin="round"/>
</svg>
