<svg width="310" height="232" viewBox="0 0 310 232" fill="none" xmlns="http://www.w3.org/2000/svg">
<path d="M215.944 76.0222C214.747 65.9067 209.559 58.5443 201.713 55.8483C197.538 54.4321 193.007 54.4725 188.858 55.9626C188.542 55.1622 188.185 54.3661 187.785 53.5877C185.5 49.1561 181.952 45.501 177.59 43.0847C173.227 40.6683 168.245 39.5993 163.274 40.0126C158.303 40.4259 153.567 42.3031 149.664 45.4068C145.76 48.5105 142.865 52.7012 141.345 57.4492L140.672 59.5471H138.26C135.752 59.5566 133.272 60.0754 130.97 61.0718C128.668 62.0682 126.592 63.5216 124.869 65.3437C121.418 63.3323 117.447 62.3906 113.459 62.638C109.471 62.8853 105.647 64.3106 102.471 66.733C99.2945 69.1555 96.9096 72.466 95.6184 76.2448C94.3273 80.0236 94.188 84.1006 95.2182 87.9586L81.8801 105.551C76.8826 106.203 72.3101 108.7 69.0624 112.552C65.8147 116.404 64.1269 121.331 64.331 126.363C64.5352 131.396 66.6166 136.17 70.1656 139.747C73.7147 143.323 78.4744 145.442 83.5082 145.688L90.0695 153.701H86.9891C83.1963 153.706 79.5601 155.214 76.8782 157.894C74.1962 160.574 72.6875 164.208 72.6828 167.999V178.594C72.6828 182.093 74.0737 185.449 76.5495 187.924C79.0253 190.398 82.3833 191.788 85.8846 191.788H148.03C151.531 191.788 154.889 190.398 157.365 187.924C159.841 185.449 161.232 182.093 161.232 178.594V167.999C161.227 164.208 159.718 160.574 157.036 157.894C154.354 155.214 150.718 153.706 146.925 153.701H124.183L104.292 129.402C104.892 126.337 104.768 123.174 103.931 120.166L105.568 118.002C109.028 125.919 114.545 132.766 121.546 137.833C128.548 142.9 136.778 146.002 145.384 146.817C153.989 147.632 162.656 146.13 170.485 142.468C178.314 138.805 185.02 133.115 189.906 125.989C193.866 124.74 197.734 122.303 201.259 118.741C206.135 113.802 210.311 106.756 213.013 98.8966C215.715 91.0373 216.749 82.914 215.944 76.0222Z" fill="#FF90E8" stroke="black" stroke-width="2" stroke-miterlimit="10"/>
<path d="M114.714 89.5952C118.568 89.5952 121.693 86.4722 121.693 82.6199C121.693 78.7675 118.568 75.6445 114.714 75.6445C110.859 75.6445 107.734 78.7675 107.734 82.6199C107.734 86.4722 110.859 89.5952 114.714 89.5952Z" stroke="black" stroke-width="2" stroke-linecap="round" stroke-linejoin="round"/>
<path d="M84.4852 132.384C88.3398 132.384 91.4645 129.261 91.4645 125.409C91.4645 121.557 88.3398 118.434 84.4852 118.434C80.6306 118.434 77.5059 121.557 77.5059 125.409C77.5059 129.261 80.6306 132.384 84.4852 132.384Z" stroke="black" stroke-width="2" stroke-linecap="round" stroke-linejoin="round"/>
<path d="M87.9277 119.289L111.114 88.6914" stroke="black" stroke-width="2" stroke-linecap="round" stroke-linejoin="round"/>
<path d="M88.8242 131.215L117.19 165.863" stroke="black" stroke-width="2" stroke-linecap="round" stroke-linejoin="round"/>
<path d="M87.003 166.762H146.926C147.219 166.762 147.5 166.878 147.707 167.085C147.914 167.292 148.03 167.573 148.03 167.866V178.452H85.8984V167.866C85.8984 167.573 86.0148 167.292 86.222 167.085C86.4291 166.878 86.71 166.762 87.003 166.762Z" stroke="black" stroke-width="2" stroke-linecap="round" stroke-linejoin="round"/>
<path d="M131.995 82.6211H121.693" stroke="black" stroke-width="2" stroke-linecap="round" stroke-linejoin="round"/>
<path d="M114.713 89.6055V98.494C114.714 107.832 118.426 116.788 125.033 123.391C131.64 129.994 140.601 133.704 149.944 133.705V133.705C156.427 133.709 162.786 131.923 168.318 128.545C173.851 125.167 178.343 120.327 181.298 114.56" stroke="black" stroke-width="2" stroke-linecap="round" stroke-linejoin="round"/>
<path d="M200.531 94.4104C204.81 81.9542 203.417 70.1881 197.42 68.1301C191.423 66.0722 183.092 74.5016 178.813 86.9578C174.534 99.414 175.926 111.18 181.923 113.238C187.921 115.296 196.251 106.867 200.531 94.4104Z" fill="black" stroke="black" stroke-width="2" stroke-linecap="round" stroke-linejoin="round"/>
<path d="M144.58 90.4608L138.366 90.4124C135.316 90.4124 132.892 88.6532 132.94 85.4514C132.989 82.4256 135.316 80.9082 138.366 80.9082H156.598C157.722 80.9082 158.8 80.462 159.594 79.6677C160.389 78.8734 160.836 77.7961 160.836 76.6728C160.836 76.1167 160.726 75.5659 160.513 75.0521C160.3 74.5382 159.988 74.0713 159.594 73.678C159.201 73.2847 158.734 72.9727 158.219 72.7599C157.705 72.547 157.154 72.4375 156.598 72.4375L138.331 72.5958C137.627 72.5952 136.929 72.7334 136.278 73.0023C135.628 73.2713 135.036 73.6658 134.538 74.1633C134.04 74.6608 133.645 75.2515 133.375 75.9017C133.105 76.5519 132.967 77.2489 132.967 77.9527V85.8209" stroke="black" stroke-width="2" stroke-linecap="round" stroke-linejoin="round"/>
<path d="M150.332 72.4361L153.928 61.2034C154.903 58.1727 157.043 55.6531 159.877 54.1983C162.71 52.7435 166.006 52.4727 169.039 53.4452V53.4452C170.542 53.9258 171.936 54.6976 173.14 55.7165C174.345 56.7355 175.337 57.9816 176.059 59.3837C176.782 60.7858 177.221 62.3164 177.351 63.8881C177.482 65.4598 177.301 67.0419 176.82 68.5438L167.305 98.266C166.332 101.299 164.194 103.823 161.361 105.281C158.527 106.74 155.23 107.015 152.194 106.046C149.158 105.075 146.632 102.938 145.173 100.106C143.713 97.2734 143.438 93.9777 144.409 90.9432L147.608 80.9552" stroke="black" stroke-width="2" stroke-linecap="round" stroke-linejoin="round"/>
<path d="M159.982 79.5352L172.053 83.4846" stroke="black" stroke-width="2" stroke-linecap="round" stroke-linejoin="round"/>
<path d="M166.318 62.9052C167.965 62.9052 169.301 61.5702 169.301 59.9233C169.301 58.2764 167.965 56.9414 166.318 56.9414C164.67 56.9414 163.334 58.2764 163.334 59.9233C163.334 61.5702 164.67 62.9052 166.318 62.9052Z" stroke="black" stroke-width="2" stroke-linecap="round" stroke-linejoin="round"/>
<path d="M177.331 66.1732C176.832 66.2766 176.314 66.2478 175.83 66.0897C175.184 65.8809 174.628 65.4581 174.255 64.891C173.881 64.3239 173.713 63.6465 173.777 62.9707C173.841 62.2949 174.134 61.6612 174.607 61.1743C175.081 60.6874 175.706 60.3765 176.38 60.293" stroke="black" stroke-width="2" stroke-linecap="round" stroke-linejoin="round"/>
<path d="M158.52 55.1602C158.803 55.6823 158.923 56.2768 158.865 56.8675C158.807 57.4582 158.574 58.0182 158.196 58.4759C157.818 58.9336 157.312 59.268 156.743 59.4366C156.173 59.6051 155.566 59.6 155 59.4219" stroke="black" stroke-width="2" stroke-linecap="round" stroke-linejoin="round"/>
<path d="M160.654 74.8789C160.935 74.885 161.214 74.9324 161.482 75.0196C161.95 75.1696 162.375 75.4332 162.717 75.7869C163.059 76.1405 163.308 76.5733 163.442 77.0466C163.577 77.5199 163.592 78.0191 163.486 78.4995C163.38 78.98 163.157 79.4269 162.837 79.8003" stroke="black" stroke-width="2" stroke-linecap="round" stroke-linejoin="round"/>
<path d="M168.153 82.0911C167.962 81.5023 167.962 80.868 168.153 80.2791C168.396 79.5272 168.927 78.902 169.629 78.5408C170.332 78.1797 171.15 78.1121 171.903 78.3528C172.469 78.5301 172.968 78.8752 173.333 79.3423" stroke="black" stroke-width="2" stroke-linecap="round" stroke-linejoin="round"/>
<path d="M168.81 73.6318C170.458 73.6318 171.793 72.2967 171.793 70.6499C171.793 69.003 170.458 67.668 168.81 67.668C167.162 67.668 165.826 69.003 165.826 70.6499C165.826 72.2967 167.162 73.6318 168.81 73.6318Z" stroke="black" stroke-width="2" stroke-linecap="round" stroke-linejoin="round"/>
<path d="M158.392 70.2997C160.04 70.2997 161.375 68.9647 161.375 67.3178C161.375 65.671 160.04 64.3359 158.392 64.3359C156.744 64.3359 155.408 65.671 155.408 67.3178C155.408 68.9647 156.744 70.2997 158.392 70.2997Z" stroke="black" stroke-width="2" stroke-linecap="round" stroke-linejoin="round"/>
</svg>
