<svg width="310" height="232" viewBox="0 0 310 232" fill="none" xmlns="http://www.w3.org/2000/svg">
<path d="M198.893 135.861C198.208 127.211 194.165 122.357 190.894 119.806C186.207 116.158 180.549 115.271 176.363 115.668H176.084H168.452V110.023C176.358 107.007 183.186 101.704 188.065 94.7906C192.944 87.8772 195.652 79.6671 195.843 71.2081C196.034 62.7491 193.7 54.425 189.139 47.2982C184.578 40.1714 177.996 34.5652 170.235 31.1953C168.828 30.3065 167.25 29.7249 165.603 29.4884C158.361 27.3004 150.666 27.0806 143.311 28.8515C135.955 30.6225 129.204 34.3203 123.752 39.5648C118.299 44.8092 114.342 51.4111 112.287 58.6916C110.232 65.9721 110.153 73.6685 112.059 80.9895C112.236 82.1651 112.587 83.3077 113.102 84.3794C115 89.7308 117.945 94.6509 121.763 98.8533C125.582 103.056 130.199 106.456 135.345 108.857V132.395C132.49 134.503 130.17 137.251 128.571 140.419C126.972 143.587 126.138 147.085 126.137 150.634V166.453C125.942 173.93 128.923 181.788 133.984 187.016C135.457 188.546 137.128 189.871 138.954 190.955V192.109C138.954 195.274 140.212 198.31 142.451 200.549C144.689 202.787 147.726 204.045 150.892 204.045H151.023L187.138 203.647C190.242 203.613 193.21 202.372 195.414 200.187C197.618 198.002 198.884 195.044 198.944 191.941C199.02 187.334 199.768 146.87 198.893 135.861Z" fill="#F1F333" stroke="black" stroke-width="2" stroke-miterlimit="10"/>
<path d="M153.382 101.238C170.31 101.238 184.034 87.5165 184.034 70.5898C184.034 53.6632 170.31 39.9414 153.382 39.9414C136.454 39.9414 122.73 53.6632 122.73 70.5898C122.73 87.5165 136.454 101.238 153.382 101.238Z" stroke="black" stroke-width="2" stroke-linecap="round" stroke-linejoin="round"/>
<path d="M178.702 70.6719C178.698 75.9053 177.08 81.0101 174.07 85.2917C171.061 89.5732 166.805 92.8235 161.881 94.6001C156.958 96.3768 151.607 96.5936 146.556 95.221C141.506 93.8484 137.001 90.9531 133.654 86.9291C133.654 86.9291 144 98.2726 160.546 90.1121C177.644 81.697 178.702 70.6719 178.702 70.6719Z" fill="black" stroke="black" stroke-width="2" stroke-linecap="round" stroke-linejoin="round"/>
<path d="M124.859 59.3619C124.859 59.3619 136.674 54.4521 150.545 58.419C166.923 63.098 177.408 70.968 181.813 81.9892" stroke="black" stroke-width="2" stroke-linecap="round" stroke-linejoin="round"/>
<path d="M164.019 41.6445C164.019 41.6445 153.741 42.7069 144.879 61.4866C136.797 78.6232 138.325 93.9096 139.388 97.8088" stroke="black" stroke-width="2" stroke-linecap="round" stroke-linejoin="round"/>
<path d="M156.399 100.826C156.399 100.826 151.278 94.8024 150.903 85.2335C150.374 71.5943 156.045 63.4338 162.244 57.78C170.397 50.3397 177.659 52.4644 177.659 52.4644" stroke="black" stroke-width="2" stroke-linecap="round" stroke-linejoin="round"/>
<path d="M138.322 44.1289C138.322 44.1289 143.284 48.2031 139.209 57.593C135.134 66.9829 123.969 79.5598 123.969 79.5598" stroke="black" stroke-width="2" stroke-linecap="round" stroke-linejoin="round"/>
<path d="M188.062 61.7383C188.361 63.2589 188.554 64.7984 188.639 66.3457" stroke="black" stroke-width="2" stroke-linecap="round" stroke-linejoin="round"/>
<path d="M182.033 49.6133C182.033 49.6133 184.994 52.1358 186.971 57.726" stroke="black" stroke-width="2" stroke-linecap="round" stroke-linejoin="round"/>
<path d="M119.588 83.0898C119.588 83.0898 120.615 86.8538 122.497 89.4201" stroke="black" stroke-width="2" stroke-linecap="round" stroke-linejoin="round"/>
<path d="M147.395 140.187V106.049C147.395 104.823 147.882 103.647 148.749 102.78C149.616 101.913 150.792 101.426 152.018 101.426V101.426C153.245 101.426 154.421 101.913 155.288 102.78C156.155 103.647 156.642 104.823 156.642 106.049V128.374" stroke="black" stroke-width="2" stroke-linecap="round" stroke-linejoin="round"/>
<path d="M154.934 140.188V132.382C154.934 131.206 155.401 130.079 156.232 129.247C157.063 128.416 158.191 127.949 159.366 127.949" stroke="black" stroke-width="2" stroke-linecap="round" stroke-linejoin="round"/>
<path d="M172.707 132.383V145.043C172.707 146.219 172.24 147.346 171.408 148.177C170.577 149.009 169.45 149.476 168.274 149.476V149.476C167.68 149.477 167.093 149.358 166.547 149.125" stroke="black" stroke-width="2" stroke-linecap="round" stroke-linejoin="round"/>
<path d="M163.84 140.224V132.382C163.84 131.206 164.307 130.079 165.138 129.247C165.97 128.416 167.097 127.949 168.273 127.949H176.207" stroke="black" stroke-width="2" stroke-linecap="round" stroke-linejoin="round"/>
<path d="M181.655 136.404V145.058C181.655 146.233 181.188 147.361 180.356 148.192C179.525 149.023 178.397 149.49 177.222 149.49V149.49C176.046 149.49 174.919 149.023 174.087 148.192C173.256 147.361 172.789 146.233 172.789 145.058V132.397C172.789 131.222 173.256 130.094 174.087 129.263C174.919 128.432 176.046 127.965 177.222 127.965" stroke="black" stroke-width="2" stroke-linecap="round" stroke-linejoin="round"/>
<path d="M160.465 140.684C160.465 140.684 161.034 143.409 163.533 143.636C166.032 143.863 167.17 143.298 168.761 141.591" stroke="black" stroke-width="2" stroke-linecap="round" stroke-linejoin="round"/>
<path d="M177.222 127.95C177.222 127.95 186.267 126.419 187.122 137.157C187.978 147.896 187.122 192.064 187.122 192.064L151.003 192.462V182.559H150.737C142.138 182.559 137.96 173.408 138.186 166.99V150.988C138.184 149.573 138.46 148.173 139 146.866C139.54 145.559 140.333 144.371 141.333 143.371C142.333 142.371 143.521 141.579 144.828 141.039C146.135 140.499 147.536 140.222 148.95 140.225H166.061C167.076 140.226 168.05 140.63 168.768 141.349C169.485 142.067 169.889 143.041 169.889 144.057V144.057C169.889 144.763 169.749 145.462 169.479 146.114C169.209 146.767 168.812 147.36 168.313 147.859C167.813 148.358 167.22 148.754 166.567 149.024C165.915 149.294 165.215 149.432 164.509 149.432L152.126 149.488C159.686 151.942 164.775 159.574 164.775 167.503" stroke="black" stroke-width="2" stroke-linecap="round" stroke-linejoin="round"/>
<path d="M168.027 154.551C168.027 154.551 176.384 157.276 178.771 160.857" stroke="black" stroke-width="2" stroke-linecap="round" stroke-linejoin="round"/>
<path d="M172.715 142.015C172.715 142.015 175.218 140.161 177.148 142.015C179.452 144.232 177.999 149.006 174.163 148.326" stroke="black" stroke-width="2" stroke-linecap="round" stroke-linejoin="round"/>
<path d="M168.273 127.949H159.367" stroke="black" stroke-width="2" stroke-linecap="round" stroke-linejoin="round"/>
</svg>
