<svg xmlns="http://www.w3.org/2000/svg" width="499" height="499" viewBox="0 0 499 499">
<g>
<path d="M 25.25 359.75 C25.58,358.76 44.67,358.45 115.33,358.24 C194.62,358.02 205.00,358.16 205.00,359.49 C205.00,360.82 194.47,361.00 114.92,361.00 C43.29,361.00 24.92,360.74 25.25,359.75 ZM 283.00 360.11 C283.00,359.62 283.71,358.94 284.58,358.61 C286.65,357.82 459.35,357.81 461.41,358.60 C462.28,358.94 462.74,359.61 462.44,360.10 C461.70,361.29 283.00,361.29 283.00,360.11 ZM 110.00 294.74 C110.00,294.04 111.01,293.03 112.25,292.49 C114.47,291.51 114.50,291.24 114.77,269.32 L 115.04 247.14 L 112.78 246.82 C111.54,246.64 110.36,245.67 110.17,244.65 C109.84,242.91 110.61,242.82 123.16,243.15 C134.70,243.46 137.14,243.82 141.27,245.85 C146.27,248.31 147.83,250.29 149.06,255.78 C151.41,266.21 142.71,274.78 128.75,275.78 L 122.00 276.27 L 122.00 284.63 L 122.00 293.00 L 125.00 293.00 C127.00,293.00 128.00,293.50 128.00,294.50 C128.00,295.72 126.33,296.00 119.00,296.00 C112.42,296.00 110.00,295.66 110.00,294.74 ZM 133.28 271.63 C135.05,270.87 137.62,269.04 139.00,267.55 C141.07,265.30 141.50,263.84 141.50,259.00 C141.50,254.29 141.06,252.69 139.21,250.73 C135.49,246.76 125.78,244.62 123.20,247.20 C122.40,248.00 122.00,252.47 122.00,260.70 L 122.00 273.00 L 126.03 273.00 C128.25,273.00 131.51,272.38 133.28,271.63 ZM 167.00 294.74 C167.00,294.04 168.01,293.03 169.25,292.49 C171.47,291.51 171.50,291.24 171.77,269.32 L 172.04 247.14 L 169.78 246.82 C168.54,246.64 167.37,245.69 167.18,244.71 C166.87,243.08 167.61,242.94 175.09,243.21 C183.44,243.50 185.87,244.71 181.75,246.51 C179.52,247.49 179.50,247.73 179.23,270.25 L 178.96 293.00 L 186.53 293.00 C196.58,293.00 199.51,291.46 201.33,285.24 C202.09,282.63 203.11,280.50 203.60,280.50 C204.82,280.50 205.30,286.49 204.52,291.72 L 203.88 296.00 L 185.44 296.00 C171.25,296.00 167.00,295.71 167.00,294.74 ZM 219.00 294.57 C219.00,293.78 219.87,292.86 220.93,292.52 C222.97,291.87 223.64,290.28 235.00,259.25 C238.47,249.76 241.84,242.00 242.48,242.00 C243.56,242.00 255.38,270.62 260.65,286.00 C262.32,290.87 263.39,292.58 264.94,292.82 C266.07,293.00 267.00,293.78 267.00,294.57 C267.00,295.70 265.21,296.00 258.50,296.00 C251.93,296.00 250.00,295.69 250.00,294.62 C250.00,293.86 250.90,293.00 252.00,292.71 C254.44,292.07 254.62,288.73 252.49,283.62 L 250.97 280.00 L 241.12 280.00 L 231.26 280.00 L 229.63 285.82 C227.56,293.19 227.54,293.00 230.50,293.00 C232.06,293.00 233.00,293.57 233.00,294.50 C233.00,295.69 231.56,296.00 226.00,296.00 C220.59,296.00 219.00,295.67 219.00,294.57 ZM 249.00 275.14 C249.00,273.95 242.27,255.94 241.57,255.23 C240.69,254.36 240.42,254.91 237.20,264.00 C235.54,268.67 233.87,273.29 233.48,274.25 C232.85,275.83 233.57,276.00 240.89,276.00 C245.35,276.00 249.00,275.61 249.00,275.14 ZM 282.00 293.96 C282.00,292.83 283.81,289.46 286.03,286.47 C292.36,277.89 312.00,247.84 312.00,246.72 C312.00,246.06 308.28,245.94 301.25,246.39 C289.07,247.17 287.14,248.22 286.10,254.59 C285.77,256.65 284.91,258.53 284.20,258.77 C283.21,259.10 282.98,257.41 283.21,251.35 L 283.50 243.50 L 301.43 243.23 C311.29,243.08 319.76,243.36 320.26,243.86 C321.51,245.11 320.25,247.27 304.11,271.50 L 290.12 292.50 L 298.31 292.81 C311.17,293.30 316.46,290.89 317.89,283.87 C318.26,282.10 319.10,280.47 319.78,280.24 C320.67,279.94 321.00,281.98 321.00,287.92 L 321.00 296.00 L 301.50 296.00 C282.53,296.00 282.00,295.94 282.00,293.96 ZM 336.00 294.50 C336.00,293.67 336.67,293.00 337.48,293.00 C339.56,293.00 341.54,288.55 350.55,263.75 C354.89,251.79 358.97,242.00 359.61,242.00 C360.72,242.00 376.98,281.89 378.74,288.97 C379.34,291.35 380.31,292.60 381.86,292.97 C386.76,294.12 383.62,295.51 375.51,295.79 C368.68,296.02 367.00,295.80 367.00,294.66 C367.00,293.87 367.90,293.00 369.00,292.71 C371.43,292.07 371.64,288.47 369.54,283.43 L 368.07 279.93 L 358.37 280.21 L 348.67 280.50 L 346.91 285.50 C344.54,292.25 344.60,293.00 347.50,293.00 C349.06,293.00 350.00,293.57 350.00,294.50 C350.00,295.69 348.56,296.00 343.00,296.00 C337.44,296.00 336.00,295.69 336.00,294.50 ZM 366.00 275.07 C366.00,274.57 364.36,269.57 362.35,263.98 C359.81,256.91 358.44,254.25 357.87,255.27 C356.42,257.86 351.00,273.08 351.00,274.57 C351.00,275.68 352.66,276.00 358.50,276.00 C362.62,276.00 366.00,275.58 366.00,275.07 ZM 153.85 218.48 C135.21,208.78 135.52,178.61 154.36,168.77 C159.71,165.97 171.85,165.72 176.70,168.30 C180.61,170.38 181.00,170.40 181.00,168.50 C181.00,167.67 181.89,167.00 183.00,167.00 C184.84,167.00 185.00,167.67 185.00,175.50 C185.00,181.94 184.68,184.00 183.66,184.00 C182.92,184.00 181.81,182.29 181.18,180.21 C180.56,178.12 178.68,175.11 177.00,173.50 C174.43,171.04 173.01,170.54 167.73,170.26 C162.64,169.98 160.77,170.34 157.52,172.23 C148.36,177.55 144.92,193.60 150.39,205.54 C156.09,217.99 170.74,220.85 181.64,211.65 C185.20,208.65 186.00,208.42 186.00,210.36 C186.00,212.44 180.98,217.07 176.50,219.12 C170.46,221.89 159.82,221.59 153.85,218.48 ZM 198.00 218.50 C198.00,217.68 198.66,217.00 199.47,217.00 C201.51,217.00 202.52,214.71 212.01,188.72 C216.71,175.84 220.80,166.09 221.41,166.28 C222.47,166.61 236.23,199.95 239.88,211.00 C241.24,215.15 242.22,216.58 243.84,216.82 C245.03,217.00 246.00,217.78 246.00,218.57 C246.00,219.70 244.21,220.00 237.50,220.00 C228.98,220.00 227.09,219.09 231.12,216.94 C233.37,215.73 233.37,212.59 231.11,206.75 C230.05,204.01 230.02,204.00 220.21,204.00 L 210.37 204.00 L 208.68 209.34 C206.47,216.35 206.54,217.00 209.50,217.00 C211.06,217.00 212.00,217.57 212.00,218.50 C212.00,219.69 210.56,220.00 205.00,220.00 C199.44,220.00 198.00,219.69 198.00,218.50 ZM 228.00 199.33 C228.00,197.71 220.71,179.00 220.07,179.00 C219.45,179.00 215.20,189.91 212.97,197.25 L 212.14 200.00 L 220.07 200.00 C224.43,200.00 228.00,199.70 228.00,199.33 ZM 259.00 219.12 C259.00,218.63 260.12,217.49 261.50,216.59 L 264.00 214.95 L 264.00 192.98 L 264.00 171.00 L 261.43 171.00 C259.51,171.00 258.94,170.55 259.19,169.25 C259.49,167.68 261.27,167.47 276.76,167.23 L 294.00 166.95 L 294.18 171.48 C294.28,173.96 294.39,176.98 294.43,178.17 C294.55,181.84 292.17,181.41 291.46,177.63 C290.41,172.04 287.90,170.50 279.86,170.50 C274.79,170.50 272.67,170.90 271.98,172.00 C271.46,172.82 271.02,177.66 271.02,182.75 L 271.00 192.00 L 277.57 192.00 C284.14,192.00 284.14,192.00 283.82,189.27 C283.59,187.30 283.99,186.44 285.25,186.20 C286.80,185.89 287.00,186.78 287.00,194.01 C287.00,200.09 286.68,202.06 285.75,201.76 C285.06,201.53 284.36,200.37 284.18,199.17 C283.75,196.22 280.77,194.83 275.71,195.19 L 271.50 195.50 L 271.22 206.25 L 270.93 217.00 L 274.47 217.00 C276.94,217.00 278.00,217.45 278.00,218.50 C278.00,219.73 276.28,220.00 268.50,220.00 C263.27,220.00 259.00,219.60 259.00,219.12 ZM 310.00 219.12 C310.00,218.63 311.12,217.49 312.50,216.59 L 315.00 214.95 L 315.00 192.98 L 315.00 171.00 L 312.43 171.00 C310.51,171.00 309.94,170.55 310.19,169.25 C310.49,167.68 312.28,167.47 327.94,167.23 C341.20,167.02 345.54,167.26 346.16,168.23 C347.32,170.06 347.19,179.77 345.99,180.50 C345.44,180.85 344.72,180.31 344.40,179.31 C342.38,173.06 341.62,172.03 338.28,170.93 C333.44,169.33 325.02,170.25 323.33,172.56 C322.48,173.73 322.00,177.35 322.00,182.69 L 322.00 191.00 L 329.07 191.00 L 336.14 191.00 L 335.82 188.27 C335.59,186.28 335.99,185.44 337.29,185.19 C338.91,184.87 339.06,185.59 338.79,192.67 C338.63,197.03 338.06,200.50 337.50,200.50 C336.95,200.50 336.36,199.49 336.18,198.25 C335.74,195.16 332.81,193.84 327.22,194.20 L 322.50 194.50 L 322.22 205.75 L 321.93 217.00 L 329.90 217.00 C341.71,217.00 345.16,215.18 346.47,208.25 C347.10,204.96 348.45,203.96 349.19,206.25 C349.41,206.94 349.42,210.31 349.21,213.75 L 348.82 220.00 L 329.41 220.00 C318.74,220.00 310.00,219.60 310.00,219.12 ZM 327.65 162.32 C326.11,160.78 327.34,158.84 332.54,154.60 C338.11,150.06 341.00,149.53 341.00,153.04 C341.00,154.04 339.76,155.72 338.25,156.76 C332.39,160.79 328.28,162.95 327.65,162.32 Z" fill="rgba(0,0,0,1)"/>
</g>
</svg>