<svg xmlns="http://www.w3.org/2000/svg" width="408" height="612" viewBox="0 0 408 612">
<g>
<path d="M 5.00 538.50 L 5.00 465.00 L 104.00 465.00 L 203.00 465.00 L 203.00 481.00 L 203.00 497.00 L 120.00 497.00 L 37.00 497.00 L 37.00 509.50 L 37.00 522.00 L 120.00 522.00 L 203.00 522.00 L 203.00 538.00 L 203.00 554.00 L 120.00 554.00 L 37.00 554.00 L 37.00 566.50 L 37.00 579.00 L 120.00 579.00 L 203.00 579.00 L 203.00 595.50 L 203.00 612.00 L 104.00 612.00 L 5.00 612.00 L 5.00 538.50 ZM 209.36 610.50 C209.15,609.95 209.10,577.10 209.24,537.50 L 209.50 465.50 L 224.59 465.22 L 239.67 464.95 L 245.73 478.22 C249.06,485.53 253.91,496.23 256.52,502.00 C259.12,507.77 262.69,515.65 264.44,519.50 C266.20,523.35 270.76,533.42 274.57,541.87 L 281.50 557.24 L 282.00 511.37 L 282.50 465.50 L 296.75 465.22 L 311.00 464.95 L 310.99 532.72 C310.99,570.00 310.70,602.86 310.35,605.75 L 309.72 611.00 L 295.35 611.00 L 280.97 611.00 L 278.36 605.25 C276.92,602.09 270.15,587.58 263.31,573.00 C256.47,558.42 248.57,541.55 245.74,535.50 C242.91,529.45 240.23,524.07 239.80,523.55 C239.36,523.03 239.00,542.60 239.00,567.05 L 239.00 611.50 L 224.37 611.50 C215.54,611.50 209.59,611.10 209.36,610.50 ZM 346.00 552.50 L 346.00 494.00 L 331.50 494.00 L 317.00 494.00 L 317.00 479.50 L 317.00 465.00 L 362.50 465.00 L 408.00 465.00 L 408.00 479.50 L 408.00 494.00 L 393.00 494.00 L 378.00 494.00 L 378.00 546.35 C378.00,575.15 377.71,601.47 377.36,604.85 L 376.72 611.00 L 361.36 611.00 L 346.00 611.00 L 346.00 552.50 ZM 5.41 456.08 C5.19,455.85 5.00,422.89 5.00,382.83 L 5.00 310.00 L 22.43 310.00 L 39.86 310.00 L 47.26 323.25 C51.34,330.54 59.17,344.60 64.68,354.50 C70.18,364.40 78.69,379.70 83.59,388.50 L 92.50 404.50 L 92.76 357.25 L 93.02 310.00 L 109.51 310.00 L 126.00 310.00 L 126.00 374.50 C126.00,409.98 126.34,439.00 126.75,439.00 C127.17,439.00 129.46,433.49 131.85,426.75 C134.24,420.01 137.25,411.58 138.54,408.00 C141.33,400.27 149.32,377.78 155.95,359.00 C158.57,351.58 163.59,337.51 167.10,327.73 L 173.50 309.97 L 188.86 310.23 L 204.21 310.50 L 206.55 316.50 C207.84,319.80 210.53,327.00 212.52,332.50 C214.51,338.00 217.20,345.42 218.50,349.00 C219.80,352.58 223.77,363.60 227.33,373.50 C243.12,417.41 249.41,434.71 250.62,437.50 C251.70,440.00 251.96,429.76 252.21,375.50 L 252.50 310.50 L 272.13 310.23 C290.18,309.98 291.80,310.10 292.27,311.73 C292.86,313.75 309.16,356.56 314.36,369.75 C316.26,374.56 320.63,385.83 324.07,394.79 C327.51,403.75 330.66,410.72 331.07,410.29 C331.49,409.85 333.47,405.00 335.49,399.50 C338.93,390.10 344.84,374.46 355.53,346.50 C358.06,339.90 362.19,328.99 364.71,322.25 L 369.30 310.00 L 388.65 310.00 L 408.00 310.00 L 408.00 382.95 L 408.00 455.90 L 391.91 456.20 C383.07,456.37 375.64,456.31 375.41,456.08 C375.19,455.85 374.99,435.60 374.97,411.08 C374.95,385.39 374.57,367.14 374.07,368.00 C373.59,368.83 370.04,378.73 366.18,390.00 C362.32,401.27 356.39,418.38 353.02,428.00 C349.65,437.62 346.12,447.75 345.19,450.50 L 343.50 455.50 L 330.91 455.78 L 318.33 456.06 L 316.58 451.78 C315.63,449.43 312.43,440.75 309.48,432.50 C300.45,407.25 296.37,395.93 292.53,385.50 C290.50,380.00 288.42,374.05 287.89,372.29 C286.81,368.67 284.73,366.74 285.03,369.64 C285.14,370.66 285.18,390.51 285.12,413.75 L 285.00 456.00 L 252.68 456.00 L 220.36 456.00 L 217.84 447.75 L 215.32 439.50 L 188.98 439.50 L 162.64 439.50 L 160.07 447.74 L 157.50 455.98 L 125.25 455.99 C107.51,456.00 92.66,456.07 92.25,456.16 C91.41,456.35 86.48,448.04 71.70,421.50 C66.19,411.60 58.77,398.33 55.22,392.00 C51.67,385.67 47.17,377.58 45.22,374.00 C38.50,361.67 39.00,358.81 39.00,409.73 L 39.00 455.91 L 22.41 456.20 C13.29,456.37 5.64,456.31 5.41,456.08 ZM 206.00 411.48 C206.00,410.41 201.93,395.85 197.06,379.46 C194.28,370.13 191.48,360.70 190.83,358.50 C190.18,356.30 189.44,354.11 189.19,353.63 C188.93,353.14 187.29,357.64 185.53,363.63 C183.77,369.61 180.64,380.12 178.57,387.00 C176.50,393.88 173.99,402.31 172.98,405.75 L 171.14 412.00 L 188.57 412.00 C198.16,412.00 206.00,411.77 206.00,411.48 ZM 62.37 303.91 C54.49,302.59 40.70,297.25 34.01,292.93 C22.59,285.55 12.27,273.33 7.03,261.00 C-11.08,218.34 8.59,170.21 50.00,155.84 C53.03,154.78 60.19,153.23 65.93,152.37 C74.60,151.08 78.05,151.01 86.43,151.98 C114.66,155.24 133.63,167.34 144.19,188.82 L 148.28 197.14 L 152.82 188.82 C167.22,162.45 199.40,147.57 231.54,152.42 C242.83,154.13 246.67,155.32 257.39,160.48 C270.68,166.87 284.70,182.26 290.68,197.00 L 292.50 201.50 L 293.00 178.50 L 293.50 155.50 L 325.50 155.22 C361.31,154.91 368.02,155.65 379.71,161.17 C398.58,170.09 410.54,193.86 407.16,215.75 C405.85,224.28 400.94,235.76 395.90,242.13 C393.48,245.18 386.84,250.53 379.19,255.58 C379.02,255.69 382.58,261.57 387.10,268.64 C391.62,275.71 397.11,284.42 399.30,288.00 C401.49,291.58 404.11,295.69 405.14,297.15 C406.16,298.61 407.00,300.19 407.00,300.65 C407.00,301.57 369.01,301.33 368.07,300.41 C367.76,300.11 365.70,296.96 363.50,293.42 C361.30,289.88 355.75,281.14 351.18,273.99 L 342.85 261.00 L 334.93 261.00 L 327.00 261.00 L 327.00 281.00 C327.00,298.10 326.78,301.00 325.50,301.03 C324.67,301.04 317.14,301.07 308.75,301.09 L 293.50 301.12 L 293.00 277.81 C292.70,263.92 292.18,255.64 291.72,257.31 C290.19,262.77 282.43,275.31 276.70,281.57 C262.79,296.79 243.10,304.94 220.21,304.98 C190.68,305.03 167.09,292.11 152.99,268.17 L 148.68 260.84 L 144.78 268.32 C135.52,286.06 117.65,299.09 96.50,303.50 C88.92,305.09 70.71,305.30 62.37,303.91 ZM 89.76 273.57 C100.21,270.79 110.10,262.59 114.01,253.47 L 115.93 249.00 L 130.58 249.00 L 145.23 249.00 L 144.56 246.75 C142.28,239.13 141.78,222.85 143.57,214.25 C144.04,212.00 144.03,212.00 130.13,212.00 L 116.22 212.00 L 115.53 209.25 C113.40,200.70 106.81,191.79 99.39,187.40 C89.35,181.47 73.73,180.37 62.28,184.78 C49.15,189.83 38.97,202.20 35.94,216.78 C34.00,226.11 35.19,240.19 38.62,248.45 C46.54,267.58 69.65,278.93 89.76,273.57 ZM 231.81 273.14 C243.35,269.55 253.15,260.69 258.19,249.31 C264.74,234.50 264.46,221.20 257.27,206.06 C252.96,196.97 246.44,190.33 237.52,185.94 C224.96,179.75 208.08,181.03 196.42,189.05 C174.46,204.17 170.57,239.78 188.59,260.83 C198.66,272.60 216.87,277.79 231.81,273.14 ZM 362.61 229.83 C373.34,222.84 376.70,205.32 369.49,194.02 C363.53,184.68 359.18,183.00 341.03,183.00 L 327.00 183.00 L 327.00 208.07 L 327.00 233.14 L 342.75 232.82 C357.87,232.51 358.66,232.39 362.61,229.83 ZM 35.25 146.27 C34.27,145.93 34.00,133.25 34.00,87.42 L 34.00 29.00 L 19.50 29.00 L 5.00 29.00 L 5.00 14.50 L 5.00 0.00 L 50.50 0.00 L 96.00 0.00 L 96.00 14.50 L 96.00 29.00 L 81.01 29.00 L 66.02 29.00 L 65.76 87.75 L 65.50 146.50 L 51.00 146.60 C43.03,146.66 35.94,146.51 35.25,146.27 ZM 102.00 73.25 L 102.00 0.00 L 118.00 0.00 L 134.00 0.00 L 134.00 30.02 L 134.00 60.04 L 152.75 59.77 L 171.50 59.50 L 171.68 34.00 C171.78,19.98 171.89,6.59 171.93,4.25 L 172.00 0.00 L 187.50 0.00 L 203.00 0.00 L 203.00 72.89 L 203.00 145.78 L 199.25 146.24 C197.19,146.49 190.19,146.65 183.69,146.60 L 171.88 146.50 L 171.97 117.25 L 172.06 88.00 L 153.03 88.00 L 134.00 88.00 L 134.00 117.00 L 134.00 146.00 L 127.75 146.20 C124.31,146.32 117.11,146.43 111.75,146.45 L 102.00 146.50 L 102.00 73.25 ZM 212.25 146.18 L 210.00 145.86 L 210.00 72.93 L 210.00 0.00 L 309.00 0.00 L 408.00 0.00 L 408.00 16.00 L 408.00 32.00 L 326.25 32.16 C281.29,32.24 243.94,32.29 243.25,32.27 C242.31,32.23 242.00,35.43 242.00,45.03 L 242.00 57.84 L 323.75 57.60 C368.71,57.47 406.06,57.55 406.75,57.79 C407.68,58.10 408.00,62.29 408.00,74.11 L 408.00 90.00 L 325.00 90.00 L 242.00 90.00 L 242.00 102.00 L 242.00 114.00 L 325.00 114.00 L 408.00 114.00 L 408.00 130.00 C408.00,138.80 407.66,146.02 407.25,146.03 C402.00,146.27 213.88,146.41 212.25,146.18 Z" fill="rgba(0,0,0,1)"/>
</g>
</svg>