<svg xmlns="http://www.w3.org/2000/svg" width="499" height="499" viewBox="0 0 499 499">
<g>
<path d="M 241.68 373.00 C240.43,376.02 238.75,378.61 237.95,378.76 C236.95,378.95 233.91,373.28 228.06,360.27 C223.42,349.95 217.19,336.10 214.23,329.50 C211.26,322.90 207.73,315.06 206.39,312.07 L 203.95 306.64 L 200.22 310.20 C195.59,314.63 192.97,316.00 189.12,316.00 C185.53,316.00 183.00,312.94 183.00,308.59 C183.00,304.32 185.81,293.73 188.99,286.02 L 191.74 279.36 L 189.03 273.43 C185.86,266.49 181.91,261.52 177.89,259.44 C176.31,258.63 174.79,257.97 174.51,257.98 C172.41,258.06 172.00,257.82 172.00,256.50 C172.00,255.23 174.48,255.00 188.28,255.00 L 204.57 255.00 L 206.28 252.10 C207.23,250.50 208.00,248.99 208.00,248.75 C208.00,248.51 205.64,249.12 202.75,250.12 C196.26,252.36 190.21,252.48 185.27,250.46 C180.57,248.54 178.24,245.41 176.72,239.01 L 175.53 234.02 L 168.40 241.51 C160.24,250.08 153.89,253.58 148.39,252.55 C143.47,251.62 141.59,248.26 142.28,241.60 C142.83,236.21 145.46,230.10 151.61,219.87 C153.48,216.77 155.00,213.95 155.00,213.61 C155.00,212.48 144.07,207.76 142.68,208.29 C141.95,208.57 139.39,212.11 137.01,216.15 C127.11,232.94 116.88,245.13 106.48,252.55 C74.06,275.69 33.49,269.92 18.73,240.08 C14.39,231.31 13.70,218.30 16.94,206.48 C19.53,197.04 25.21,185.86 31.91,177.00 C36.51,170.93 36.80,170.20 36.30,165.97 C35.92,162.67 36.18,161.10 37.26,160.20 C39.37,158.45 42.00,159.78 42.00,162.61 C42.00,165.67 43.06,165.63 46.03,162.47 C49.53,158.74 64.43,148.79 72.84,144.57 C87.85,137.03 110.59,131.00 123.99,131.00 C136.95,131.00 149.46,135.60 153.72,141.92 C157.15,147.00 156.88,154.94 153.04,161.63 C144.36,176.77 123.42,185.92 91.50,188.53 C76.93,189.73 56.82,185.44 46.62,178.98 C43.94,177.28 41.13,176.12 40.37,176.41 C38.07,177.29 28.24,193.26 24.97,201.42 C20.94,211.49 19.98,222.94 22.45,231.54 C30.63,260.01 65.93,269.64 96.50,251.74 C111.45,242.98 128.68,221.98 140.74,197.81 C146.24,186.78 148.15,184.94 151.96,186.98 C154.64,188.41 154.54,190.06 151.31,197.25 C148.70,203.06 148.67,203.29 150.50,204.62 C153.20,206.60 158.95,206.32 163.50,204.00 C171.57,199.88 173.06,202.75 166.74,210.23 C158.30,220.20 150.11,233.66 148.47,240.25 C147.34,244.79 148.64,248.00 151.62,248.00 C157.06,248.00 173.76,228.60 182.59,212.04 C186.41,204.88 196.02,194.65 201.37,192.06 C207.35,189.17 214.09,189.31 217.69,192.42 C220.14,194.52 220.49,195.51 220.43,200.17 C220.24,214.08 205.70,227.64 189.75,228.79 C181.89,229.35 181.45,229.83 182.47,236.64 C183.49,243.47 186.48,246.00 193.49,246.00 C203.22,246.00 211.47,240.11 222.21,225.52 L 228.08 217.54 L 227.46 210.52 C227.13,206.66 226.13,201.08 225.25,198.12 C223.72,192.99 223.73,192.67 225.51,191.37 C230.05,188.05 232.83,190.38 233.60,198.14 C234.78,210.08 235.29,210.31 243.03,202.45 C254.73,190.58 262.34,188.14 268.50,194.30 C270.31,196.11 272.37,199.60 273.07,202.05 C274.90,208.41 275.40,208.82 280.77,208.27 C285.10,207.83 286.03,207.21 291.72,201.02 C298.99,193.11 304.72,190.00 312.03,190.00 C316.14,190.00 317.58,190.49 319.68,192.59 C322.02,194.93 322.21,195.71 321.74,200.92 C321.08,208.19 319.07,212.06 312.63,218.49 C305.92,225.17 299.63,228.15 290.89,228.78 L 284.00 229.27 L 284.00 234.56 C284.00,238.79 284.52,240.46 286.59,242.92 C288.91,245.68 289.76,246.00 294.73,246.00 C298.46,246.00 301.74,245.27 304.73,243.78 C314.12,239.09 329.23,219.71 339.96,198.60 C345.87,186.97 347.84,184.78 350.75,186.61 C353.37,188.25 353.44,191.79 350.96,197.09 C349.73,199.71 348.99,202.53 349.31,203.37 C350.39,206.19 356.71,206.49 362.70,204.00 C367.61,201.97 368.32,201.90 369.70,203.27 C371.07,204.64 370.82,205.24 367.29,209.15 C353.56,224.30 343.80,245.45 349.52,247.65 C355.44,249.92 369.58,234.14 383.94,209.20 C391.16,196.67 395.84,192.69 398.93,196.42 C399.88,197.56 398.90,199.47 393.90,206.17 C378.46,226.88 375.53,245.00 387.62,245.00 C389.53,245.00 392.35,244.35 393.89,243.56 C399.86,240.47 412.86,224.42 420.26,211.00 C427.79,197.35 437.01,190.03 446.69,190.01 C450.75,190.00 452.50,190.53 454.69,192.42 C457.11,194.50 457.48,195.51 457.36,199.74 C456.93,214.18 440.20,229.00 424.34,229.00 L 418.75 229.00 L 419.21 234.54 C419.88,242.59 422.27,245.37 429.10,246.00 C434.06,246.46 434.50,246.70 434.50,249.00 C434.50,251.27 434.06,251.53 429.84,251.80 C420.47,252.41 413.01,245.42 413.00,236.04 L 412.99 232.50 L 407.41 238.76 C400.07,246.98 394.89,250.00 388.11,250.00 C379.49,250.00 374.00,245.50 374.00,238.42 C374.00,235.92 373.46,236.25 366.07,243.31 C360.47,248.66 356.96,251.20 354.11,251.97 C341.89,255.26 338.20,245.09 345.92,229.45 C348.08,225.08 350.78,220.15 351.92,218.50 C355.08,213.92 354.58,212.61 348.73,210.18 C345.83,208.98 343.02,208.00 342.47,208.00 C341.92,208.00 339.31,211.62 336.65,216.05 C326.12,233.62 316.80,244.01 307.16,248.92 C301.03,252.04 290.64,252.73 286.02,250.32 C276.76,245.48 274.85,232.85 281.16,218.14 C282.20,215.71 282.88,213.55 282.67,213.34 C282.46,213.13 280.59,213.53 278.52,214.23 C275.11,215.38 274.58,216.05 272.95,221.34 C267.94,237.67 249.88,254.23 235.48,255.71 C232.47,256.02 229.62,256.78 229.14,257.39 C228.66,258.00 227.47,260.98 226.49,264.00 C225.52,267.02 222.76,274.00 220.35,279.49 L 215.98 289.49 L 221.14 300.99 C223.98,307.32 227.74,315.65 229.50,319.50 C231.25,323.35 234.61,330.89 236.96,336.26 C241.51,346.67 242.63,348.19 243.66,345.31 C244.02,344.32 250.13,328.88 257.24,311.00 C271.53,275.08 272.97,270.98 272.99,266.25 C273.00,262.45 270.04,259.01 266.75,258.99 C262.93,258.96 260.00,257.83 260.00,256.38 C260.00,255.26 263.42,255.00 278.50,255.00 C293.30,255.00 297.00,255.27 297.00,256.34 C297.00,257.08 295.14,258.30 292.86,259.05 C291.83,259.38 290.98,259.62 290.18,259.99 C285.15,262.30 282.42,269.64 255.56,338.00 C249.18,354.23 242.94,369.97 241.68,373.00 ZM 71.50 182.29 C73.15,182.51 79.45,182.77 85.50,182.85 C120.99,183.32 150.00,168.96 150.00,150.92 C150.00,147.45 149.38,146.15 146.23,142.99 C137.65,134.41 117.77,134.12 93.50,142.21 C72.89,149.07 44.38,167.34 46.33,172.42 C47.50,175.47 61.27,180.87 71.50,182.29 ZM 112.75 375.76 C113.07,376.72 108.89,377.00 94.58,377.00 C82.48,377.00 76.00,376.64 76.00,375.97 C76.00,375.40 76.79,374.70 77.75,374.40 C82.71,372.90 86.28,370.24 88.90,366.10 C90.50,363.57 96.18,351.15 101.54,338.50 C106.89,325.85 115.08,306.50 119.73,295.50 C120.75,293.10 121.71,290.83 122.61,288.68 C136.36,256.15 137.69,253.02 138.98,253.03 C139.20,253.03 139.43,253.13 139.71,253.18 C140.84,253.40 142.93,256.89 145.60,263.01 C158.82,293.33 181.38,344.94 182.54,347.50 C190.27,364.67 191.98,367.80 194.97,370.32 C196.79,371.85 199.57,373.36 201.14,373.68 C202.71,373.99 204.00,374.87 204.00,375.62 C204.00,376.75 199.76,377.00 180.42,377.00 C162.00,377.00 156.92,376.73 157.25,375.75 C157.47,375.06 159.82,374.25 162.45,373.94 C172.62,372.75 172.40,367.84 160.99,342.00 C157.32,333.68 151.96,320.87 145.93,306.00 C139.17,289.32 135.26,280.50 134.64,280.50 C133.82,280.50 132.25,283.99 121.17,310.50 C99.42,362.52 97.77,367.67 101.76,371.28 C102.84,372.26 105.66,373.39 108.03,373.79 C110.40,374.20 112.53,375.08 112.75,375.76 ZM 407.74 365.00 L 404.43 376.50 L 354.71 376.76 C312.98,376.98 305.00,376.80 305.00,375.64 C305.00,374.74 306.69,374.03 309.79,373.62 C315.97,372.80 318.68,370.83 319.96,366.22 C321.30,361.36 321.36,270.83 320.01,266.00 C318.85,261.81 316.26,260.01 310.11,259.13 C306.88,258.67 305.42,257.96 305.19,256.74 C304.88,255.12 306.69,255.00 330.93,255.00 C352.46,255.00 357.00,255.24 357.00,256.38 C357.00,257.84 354.06,258.96 350.20,258.99 C346.66,259.01 342.54,261.55 340.99,264.68 C339.87,266.93 339.51,276.30 339.20,310.98 C338.99,334.90 339.12,357.30 339.49,360.76 C340.48,370.02 340.90,370.19 362.72,370.22 C377.81,370.24 381.44,369.94 386.71,368.24 C395.08,365.54 399.78,361.55 404.52,353.12 C407.50,347.83 409.04,346.04 410.64,346.02 C413.16,346.00 413.10,346.39 407.74,365.00 ZM 472.00 375.50 C472.00,376.80 468.33,377.00 445.00,377.00 C421.67,377.00 418.00,376.80 418.00,375.50 C418.00,374.48 419.03,374.00 421.25,373.99 C426.83,373.98 431.92,372.05 433.76,369.24 C435.36,366.81 435.50,362.38 435.50,315.82 L 435.50 265.05 L 432.95 262.49 C431.41,260.96 428.81,259.72 426.45,259.40 C419.33,258.44 418.00,257.98 418.00,256.48 C418.00,255.21 421.82,255.00 445.00,255.00 C467.96,255.00 472.00,255.22 472.00,256.45 C472.00,257.36 470.59,258.14 468.25,258.51 C460.97,259.68 459.80,260.10 457.50,262.41 C455.91,264.00 454.97,266.43 454.52,270.12 C454.16,273.08 454.01,295.77 454.18,320.55 C454.48,362.18 454.64,365.80 456.33,368.38 C458.48,371.67 463.53,374.00 468.47,374.00 C470.94,374.00 472.00,374.45 472.00,375.50 ZM 231.54 250.06 C232.61,251.80 239.77,250.32 244.94,247.30 C251.13,243.67 257.31,237.75 261.50,231.43 C264.85,226.39 268.53,218.00 267.40,218.00 C265.54,218.00 251.82,224.67 246.20,228.30 C234.75,235.71 232.28,238.34 231.50,243.98 C231.13,246.69 231.15,249.43 231.54,250.06 ZM 234.67 227.33 C235.76,228.43 236.50,228.14 240.96,224.91 C245.31,221.76 260.24,214.16 266.06,212.13 C269.25,211.02 269.27,210.95 268.67,205.88 C267.49,195.88 263.18,193.52 255.64,198.75 C253.46,200.26 247.70,205.93 242.84,211.34 C236.27,218.66 234.00,221.89 234.00,223.93 C234.00,225.43 234.30,226.97 234.67,227.33 ZM 185.52 223.03 C186.46,224.55 192.91,223.58 198.61,221.06 C203.72,218.79 210.67,212.02 212.59,207.44 C214.32,203.31 214.42,197.82 212.80,196.20 C208.09,191.49 195.01,201.70 187.97,215.57 C186.22,219.02 185.11,222.37 185.52,223.03 ZM 286.53 223.05 C287.55,224.70 295.91,223.08 301.30,220.20 C310.41,215.32 317.53,204.18 315.37,198.17 C314.55,195.90 313.86,195.52 310.71,195.61 C303.56,195.83 296.18,202.84 288.97,216.25 C287.27,219.41 286.17,222.47 286.53,223.05 ZM 422.00 221.89 C422.00,222.54 423.88,223.00 426.54,223.00 C437.50,223.00 451.00,210.67 451.00,200.66 C451.00,196.13 449.01,194.59 444.26,195.45 C441.41,195.97 439.05,197.64 434.50,202.36 C429.09,207.97 422.00,219.05 422.00,221.89 ZM 209.61 274.49 C211.04,278.07 212.55,281.00 212.97,281.00 C213.92,281.00 219.56,266.79 221.38,259.80 C222.14,256.88 222.54,252.22 222.27,249.41 C221.87,245.25 222.25,243.44 224.39,239.42 C229.78,229.29 226.92,231.22 218.94,243.09 L 218.77 243.34 C213.72,250.86 211.92,253.53 212.58,254.48 C212.95,255.00 214.06,255.00 215.79,255.00 L 215.89 255.00 C218.74,255.00 220.00,255.43 220.00,256.39 C220.00,258.13 217.83,259.00 213.49,259.00 C206.57,259.00 205.35,263.86 209.61,274.49 ZM 450.73 249.17 C448.40,250.64 445.38,251.88 444.02,251.92 C441.93,251.99 443.35,250.18 453.02,240.47 C459.33,234.12 465.52,228.67 466.76,228.35 C471.71,227.09 473.83,233.00 469.75,236.68 C468.51,237.79 464.68,240.46 461.23,242.60 C457.77,244.75 453.05,247.70 450.73,249.17 ZM 189.37 308.51 C189.68,309.33 190.70,310.00 191.62,310.00 C193.47,310.00 201.05,302.33 200.92,300.58 C200.88,299.99 199.59,296.80 198.04,293.50 L 195.24 287.50 L 193.27 292.00 C190.71,297.85 188.64,306.62 189.37,308.51 ZM 206.06 186.47 C202.21,188.46 198.10,188.43 197.32,186.40 C196.61,184.54 198.55,183.04 201.68,183.02 C202.88,183.01 204.74,181.88 205.82,180.50 C208.16,177.52 210.55,177.29 211.94,179.89 C212.50,180.94 214.32,182.26 215.98,182.84 C220.04,184.26 220.01,187.00 215.93,187.00 C214.25,187.00 212.00,186.54 210.94,185.97 C209.53,185.21 208.23,185.35 206.06,186.47 ZM 411.99 186.51 C405.79,189.71 400.71,187.19 404.63,182.86 C410.42,176.46 420.85,176.48 416.36,182.89 C415.55,184.06 413.58,185.68 411.99,186.51 Z" fill="rgb(99,86,60)"/>
<path d="M 0.00 249.50 L 0.00 0.00 L 249.50 0.00 L 499.00 0.00 L 499.00 249.50 L 499.00 499.00 L 249.50 499.00 L 0.00 499.00 L 0.00 249.50 ZM 241.68 373.00 C242.94,369.97 249.18,354.23 255.56,338.00 C286.69,258.78 285.40,261.51 292.86,259.05 C295.14,258.30 297.00,257.08 297.00,256.34 C297.00,255.27 293.30,255.00 278.50,255.00 C263.42,255.00 260.00,255.26 260.00,256.38 C260.00,257.83 262.93,258.96 266.75,258.99 C270.04,259.01 273.00,262.45 272.99,266.25 C272.97,270.98 271.53,275.08 257.24,311.00 C250.13,328.88 244.02,344.32 243.66,345.31 C242.63,348.19 241.51,346.67 236.96,336.26 C234.61,330.89 231.25,323.35 229.50,319.50 C227.74,315.65 223.98,307.32 221.14,300.99 L 215.98 289.49 L 220.35 279.49 C222.76,274.00 225.52,267.02 226.49,264.00 C227.47,260.98 228.66,258.00 229.14,257.39 C229.62,256.78 232.47,256.02 235.48,255.71 C249.88,254.23 267.94,237.67 272.95,221.34 C274.58,216.05 275.11,215.38 278.52,214.23 C280.59,213.53 282.46,213.13 282.67,213.34 C282.88,213.55 282.20,215.71 281.16,218.14 C274.85,232.85 276.76,245.48 286.02,250.32 C290.64,252.73 301.03,252.04 307.16,248.92 C316.80,244.01 326.12,233.62 336.65,216.05 C339.31,211.62 341.92,208.00 342.47,208.00 C343.02,208.00 345.83,208.98 348.73,210.18 C354.58,212.61 355.08,213.92 351.92,218.50 C350.78,220.15 348.08,225.08 345.92,229.45 C338.20,245.09 341.89,255.26 354.11,251.97 C356.96,251.20 360.47,248.66 366.07,243.31 C373.46,236.25 374.00,235.92 374.00,238.42 C374.00,245.50 379.49,250.00 388.11,250.00 C394.89,250.00 400.07,246.98 407.41,238.76 L 412.99 232.50 L 413.00 236.04 C413.01,245.42 420.47,252.41 429.84,251.80 C434.06,251.53 434.50,251.27 434.50,249.00 C434.50,246.70 434.06,246.46 429.10,246.00 C422.27,245.37 419.88,242.59 419.21,234.54 L 418.75 229.00 L 424.34 229.00 C440.20,229.00 456.93,214.18 457.36,199.74 C457.48,195.51 457.11,194.50 454.69,192.42 C452.50,190.53 450.75,190.00 446.69,190.01 C437.01,190.03 427.79,197.35 420.26,211.00 C412.86,224.42 399.86,240.47 393.89,243.56 C392.35,244.35 389.53,245.00 387.62,245.00 C375.53,245.00 378.46,226.88 393.90,206.17 C398.90,199.47 399.88,197.56 398.93,196.42 C395.84,192.69 391.16,196.67 383.94,209.20 C369.58,234.14 355.44,249.92 349.52,247.65 C343.80,245.45 353.56,224.30 367.29,209.15 C370.82,205.24 371.07,204.64 369.70,203.27 C368.32,201.90 367.61,201.97 362.70,204.00 C356.71,206.49 350.39,206.19 349.31,203.37 C348.99,202.53 349.73,199.71 350.96,197.09 C353.44,191.79 353.37,188.25 350.75,186.61 C347.84,184.78 345.87,186.97 339.96,198.60 C329.23,219.71 314.12,239.09 304.73,243.78 C301.74,245.27 298.46,246.00 294.73,246.00 C289.76,246.00 288.91,245.68 286.59,242.92 C284.52,240.46 284.00,238.79 284.00,234.56 L 284.00 229.27 L 290.89 228.78 C299.63,228.15 305.92,225.17 312.63,218.49 C319.07,212.06 321.08,208.19 321.74,200.92 C322.21,195.71 322.02,194.93 319.68,192.59 C317.58,190.49 316.14,190.00 312.03,190.00 C304.72,190.00 298.99,193.11 291.72,201.02 C286.03,207.21 285.10,207.83 280.77,208.27 C275.40,208.82 274.90,208.41 273.07,202.05 C272.37,199.60 270.31,196.11 268.50,194.30 C262.34,188.14 254.73,190.58 243.03,202.45 C235.29,210.31 234.78,210.08 233.60,198.14 C232.83,190.38 230.05,188.05 225.51,191.37 C223.73,192.67 223.72,192.99 225.25,198.12 C226.13,201.08 227.13,206.66 227.46,210.52 L 228.08 217.54 L 222.21 225.52 C211.47,240.11 203.22,246.00 193.49,246.00 C186.48,246.00 183.49,243.47 182.47,236.64 C181.45,229.83 181.89,229.35 189.75,228.79 C205.70,227.64 220.24,214.08 220.43,200.17 C220.49,195.51 220.14,194.52 217.69,192.42 C214.09,189.31 207.35,189.17 201.37,192.06 C196.02,194.65 186.41,204.88 182.59,212.04 C173.76,228.60 157.06,248.00 151.62,248.00 C148.64,248.00 147.34,244.79 148.47,240.25 C150.11,233.66 158.30,220.20 166.74,210.23 C173.06,202.75 171.57,199.88 163.50,204.00 C158.95,206.32 153.20,206.60 150.50,204.62 C148.67,203.29 148.70,203.06 151.31,197.25 C154.54,190.06 154.64,188.41 151.96,186.98 C148.15,184.94 146.24,186.78 140.74,197.81 C128.68,221.98 111.45,242.98 96.50,251.74 C65.93,269.64 30.63,260.01 22.45,231.54 C19.98,222.94 20.94,211.49 24.97,201.42 C28.24,193.26 38.07,177.29 40.37,176.41 C41.13,176.12 43.94,177.28 46.62,178.98 C56.82,185.44 76.93,189.73 91.50,188.53 C123.42,185.92 144.36,176.77 153.04,161.63 C156.88,154.94 157.15,147.00 153.72,141.92 C149.46,135.60 136.95,131.00 123.99,131.00 C110.59,131.00 87.85,137.03 72.84,144.57 C64.43,148.79 49.53,158.74 46.03,162.47 C43.06,165.63 42.00,165.67 42.00,162.61 C42.00,159.78 39.37,158.45 37.26,160.20 C36.18,161.10 35.92,162.67 36.30,165.97 C36.80,170.20 36.51,170.93 31.91,177.00 C25.21,185.86 19.53,197.04 16.94,206.48 C13.70,218.30 14.39,231.31 18.73,240.08 C33.49,269.92 74.06,275.69 106.48,252.55 C116.88,245.13 127.11,232.94 137.01,216.15 C139.39,212.11 141.95,208.57 142.68,208.29 C144.07,207.76 155.00,212.48 155.00,213.61 C155.00,213.95 153.48,216.77 151.61,219.87 C145.46,230.10 142.83,236.21 142.28,241.60 C141.59,248.26 143.47,251.62 148.39,252.55 C153.89,253.58 160.24,250.08 168.40,241.51 L 175.53 234.02 L 176.72 239.01 C178.24,245.41 180.57,248.54 185.27,250.46 C190.21,252.48 196.26,252.36 202.75,250.12 C205.64,249.12 208.00,248.51 208.00,248.75 C208.00,248.99 207.23,250.50 206.28,252.10 L 204.57 255.00 L 188.28 255.00 C174.48,255.00 172.00,255.23 172.00,256.50 C172.00,257.82 172.41,258.06 174.51,257.98 C174.79,257.97 176.31,258.63 177.89,259.44 C181.91,261.52 185.86,266.49 189.03,273.43 L 191.74 279.36 L 188.99 286.02 C185.81,293.73 183.00,304.32 183.00,308.59 C183.00,312.94 185.53,316.00 189.12,316.00 C192.97,316.00 195.59,314.63 200.22,310.20 L 203.95 306.64 L 206.39 312.07 C207.73,315.06 211.26,322.90 214.23,329.50 C217.19,336.10 223.42,349.95 228.06,360.27 C233.91,373.28 236.95,378.95 237.95,378.76 C238.75,378.61 240.43,376.02 241.68,373.00 ZM 112.75 375.76 C112.53,375.08 110.40,374.20 108.03,373.79 C105.66,373.39 102.84,372.26 101.76,371.28 C97.77,367.67 99.42,362.52 121.17,310.50 C132.25,283.99 133.82,280.50 134.64,280.50 C135.26,280.50 139.17,289.32 145.93,306.00 C151.96,320.87 157.32,333.68 160.99,342.00 C172.40,367.84 172.62,372.75 162.45,373.94 C159.82,374.25 157.47,375.06 157.25,375.75 C156.92,376.73 162.00,377.00 180.42,377.00 C199.76,377.00 204.00,376.75 204.00,375.62 C204.00,374.87 202.71,373.99 201.14,373.68 C199.57,373.36 196.79,371.85 194.97,370.32 C191.98,367.80 190.27,364.67 182.54,347.50 C181.38,344.94 158.82,293.33 145.60,263.01 C142.93,256.89 140.84,253.40 139.71,253.18 C137.67,252.79 138.85,250.28 119.73,295.50 C115.08,306.50 106.89,325.85 101.54,338.50 C96.18,351.15 90.50,363.57 88.90,366.10 C86.28,370.24 82.71,372.90 77.75,374.40 C76.79,374.70 76.00,375.40 76.00,375.97 C76.00,376.64 82.48,377.00 94.58,377.00 C108.89,377.00 113.07,376.72 112.75,375.76 ZM 407.74 365.00 C413.10,346.39 413.16,346.00 410.64,346.02 C409.04,346.04 407.50,347.83 404.52,353.12 C399.78,361.55 395.08,365.54 386.71,368.24 C381.44,369.94 377.81,370.24 362.72,370.22 C340.90,370.19 340.48,370.02 339.49,360.76 C339.12,357.30 338.99,334.90 339.20,310.98 C339.51,276.30 339.87,266.93 340.99,264.68 C342.54,261.55 346.66,259.01 350.20,258.99 C354.06,258.96 357.00,257.84 357.00,256.38 C357.00,255.24 352.46,255.00 330.93,255.00 C306.69,255.00 304.88,255.12 305.19,256.74 C305.42,257.96 306.88,258.67 310.11,259.13 C316.26,260.01 318.85,261.81 320.01,266.00 C321.36,270.83 321.30,361.36 319.96,366.22 C318.68,370.83 315.97,372.80 309.79,373.62 C306.69,374.03 305.00,374.74 305.00,375.64 C305.00,376.80 312.98,376.98 354.71,376.76 L 404.43 376.50 L 407.74 365.00 ZM 472.00 375.50 C472.00,374.45 470.94,374.00 468.47,374.00 C463.53,374.00 458.48,371.67 456.33,368.38 C454.64,365.80 454.48,362.18 454.18,320.55 C454.01,295.77 454.16,273.08 454.52,270.12 C454.97,266.43 455.91,264.00 457.50,262.41 C459.80,260.10 460.97,259.68 468.25,258.51 C470.59,258.14 472.00,257.36 472.00,256.45 C472.00,255.22 467.96,255.00 445.00,255.00 C421.82,255.00 418.00,255.21 418.00,256.48 C418.00,257.98 419.33,258.44 426.45,259.40 C428.81,259.72 431.41,260.96 432.95,262.49 L 435.50 265.05 L 435.50 315.82 C435.50,362.38 435.36,366.81 433.76,369.24 C431.92,372.05 426.83,373.98 421.25,373.99 C419.03,374.00 418.00,374.48 418.00,375.50 C418.00,376.80 421.67,377.00 445.00,377.00 C468.33,377.00 472.00,376.80 472.00,375.50 ZM 450.73 249.17 C453.05,247.70 457.77,244.75 461.23,242.60 C464.68,240.46 468.51,237.79 469.75,236.68 C473.83,233.00 471.71,227.09 466.76,228.35 C465.52,228.67 459.33,234.12 453.02,240.47 C443.35,250.18 441.93,251.99 444.02,251.92 C445.38,251.88 448.40,250.64 450.73,249.17 ZM 206.06 186.47 C208.23,185.35 209.53,185.21 210.94,185.97 C212.00,186.54 214.25,187.00 215.93,187.00 C220.01,187.00 220.04,184.26 215.98,182.84 C214.32,182.26 212.50,180.94 211.94,179.89 C210.55,177.29 208.16,177.52 205.82,180.50 C204.74,181.88 202.88,183.01 201.68,183.02 C198.55,183.04 196.61,184.54 197.32,186.40 C198.10,188.43 202.21,188.46 206.06,186.47 ZM 411.99 186.51 C413.58,185.68 415.55,184.06 416.36,182.89 C420.85,176.48 410.42,176.46 404.63,182.86 C400.71,187.19 405.79,189.71 411.99,186.51 ZM 189.37 308.51 C188.64,306.62 190.71,297.85 193.27,292.00 L 195.24 287.50 L 198.04 293.50 C199.59,296.80 200.88,299.99 200.92,300.58 C201.05,302.33 193.47,310.00 191.62,310.00 C190.70,310.00 189.68,309.33 189.37,308.51 ZM 209.61 274.49 C205.35,263.86 206.57,259.00 213.49,259.00 C217.83,259.00 220.00,258.13 220.00,256.39 C220.00,255.43 218.74,255.00 215.89,255.00 C210.90,255.00 210.88,255.08 218.94,243.09 C226.92,231.22 229.78,229.29 224.39,239.42 C222.25,243.44 221.87,245.25 222.27,249.41 C222.54,252.22 222.14,256.88 221.38,259.80 C219.56,266.79 213.92,281.00 212.97,281.00 C212.55,281.00 211.04,278.07 209.61,274.49 ZM 231.54 250.06 C231.15,249.43 231.13,246.69 231.50,243.98 C232.28,238.34 234.75,235.71 246.20,228.30 C251.82,224.67 265.54,218.00 267.40,218.00 C268.53,218.00 264.85,226.39 261.50,231.43 C257.31,237.75 251.13,243.67 244.94,247.30 C239.77,250.32 232.61,251.80 231.54,250.06 ZM 234.67 227.33 C234.30,226.97 234.00,225.43 234.00,223.93 C234.00,221.89 236.27,218.66 242.84,211.34 C247.70,205.93 253.46,200.26 255.64,198.75 C263.18,193.52 267.49,195.88 268.67,205.88 C269.27,210.95 269.25,211.02 266.06,212.13 C260.24,214.16 245.31,221.76 240.96,224.91 C236.50,228.14 235.76,228.43 234.67,227.33 ZM 185.52 223.03 C185.11,222.37 186.22,219.02 187.97,215.57 C195.01,201.70 208.09,191.49 212.80,196.20 C214.42,197.82 214.32,203.31 212.59,207.44 C210.67,212.02 203.72,218.79 198.61,221.06 C192.91,223.58 186.46,224.55 185.52,223.03 ZM 286.53 223.05 C286.17,222.47 287.27,219.41 288.97,216.25 C296.18,202.84 303.56,195.83 310.71,195.61 C313.86,195.52 314.55,195.90 315.37,198.17 C317.53,204.18 310.41,215.32 301.30,220.20 C295.91,223.08 287.55,224.70 286.53,223.05 ZM 422.00 221.89 C422.00,219.05 429.09,207.97 434.50,202.36 C439.05,197.64 441.41,195.97 444.26,195.45 C449.01,194.59 451.00,196.13 451.00,200.66 C451.00,210.67 437.50,223.00 426.54,223.00 C423.88,223.00 422.00,222.54 422.00,221.89 ZM 71.50 182.29 C61.27,180.87 47.50,175.47 46.33,172.42 C44.38,167.34 72.89,149.07 93.50,142.21 C117.77,134.12 137.65,134.41 146.23,142.99 C149.38,146.15 150.00,147.45 150.00,150.92 C150.00,168.96 120.99,183.32 85.50,182.85 C79.45,182.77 73.15,182.51 71.50,182.29 Z" fill="rgb(254,254,254)"/>
</g>
</svg>