<?xml version="1.0" encoding="utf-8" ?><svg xmlns="http://www.w3.org/2000/svg" xmlns:xlink="http://www.w3.org/1999/xlink" width="673" height="353" viewBox="0 0 673 353"><path fill="#2B2B2B" transform="scale(0.909881 0.909881)" d="M507.025 155.749C518.729 155.329 542.627 152.899 551.366 162.007C561.962 173.05 559.139 189.634 545.11 197.287C548.305 202.461 551.515 207.634 554.694 212.818C556.698 216.086 558.388 219.617 560.686 222.681L570.255 195.81C572.081 190.535 582.146 158.382 584.635 155.957C587.798 154.651 597.818 155.619 601.991 155.765L617.628 201.271C619.928 207.914 624.091 218.599 625.833 225.023C621.197 225.027 616.204 224.939 611.597 225.056C610.588 220.418 607.822 215.504 606.582 209.903C598.035 210.053 588.419 209.581 580.147 209.939C578.992 214.615 576.911 219.906 575.544 224.862C565.289 225.206 555.941 224.905 545.891 225.042C542.813 221.339 533.548 204.583 530.831 199.665C527.375 199.545 523.917 199.476 520.459 199.458C520.614 207.979 520.655 216.501 520.58 225.023C518.569 225.045 508.36 225.332 507.216 224.752L506.75 224.022C506.923 223.752 507.068 223.247 507.052 222.923C506.097 203.003 506.34 182.901 506.448 162.953L507.025 155.749ZM520.781 188.258C527.958 188.019 535.42 189.249 540.639 184.864C542.216 183.477 543.053 180.156 543.175 178.064C543.585 171.074 538.619 167.685 532.155 167.297C528.645 167.086 523.88 167.598 520.612 167.103C520.793 174.153 520.85 181.206 520.781 188.258ZM584.163 199.072C587.265 198.878 590.18 198.823 593.29 198.778C596.279 198.737 599.655 198.769 602.609 198.623C598.968 190.99 596.745 183.246 594.285 175.199C594.097 174.583 593.682 174.335 593.161 174.038C590.173 178.892 585.785 193.215 584.163 199.072Z"/><path fill="#263449" transform="scale(0.909881 0.909881)" d="M175.127 115.762C192.104 115.702 204.203 132.651 216.654 142.59C221.319 146.314 224.659 147.883 229.141 151.093C229.736 158.969 185.853 175.733 177.717 177.201C166.758 180.587 151.821 181.557 140.69 178.946C125.558 175.113 126.971 157.615 127.31 145.475C127.4 142.25 128.016 133.538 130.379 131.28C132.807 128.96 134.366 125.774 136.472 123.631C141.903 118.102 152.864 117.785 159.735 119.92C161.445 118.952 163.082 117.657 164.982 117.057L165.238 116.977C168.029 116.088 172.108 115.966 175.127 115.762ZM192.269 152.336C188.341 151.882 184.771 150.512 181.075 149.134C172.154 145.807 166.315 144.673 156.904 145.383C148.596 146.642 142.42 149.281 137.111 155.993C135.8 157.651 132.361 164.453 132.942 166.432C136.89 179.363 156.098 178.851 166.638 176.897C181.537 174.136 195.745 168.813 209.23 162.018C210.134 161.562 220.89 154.366 220.966 154.21C220.325 153.932 219.105 154.193 218.367 154.233C209.557 154.707 200.918 153.634 192.269 152.336ZM130.837 157.442C137.829 145.53 147.777 142.334 160.706 141.937C174.357 141.517 182.592 145.807 195.204 149.861C198.844 150.949 204.238 150.932 208.43 151.972C210.227 151.777 211.201 151.779 213.017 151.829C215.735 151.805 218.727 150.519 221.597 149.804C215.934 146.021 203.953 136.082 199.87 130.919C191.211 123.807 175.621 112.28 164.578 122.165C164.003 122.68 162.02 124.82 161.267 124.828C159.442 124.848 155.235 122.066 153.228 121.554C146.18 119.889 138.933 125.531 134.714 130.599C130.641 135.49 129.926 141.034 129.3 147.02C130.446 151.246 130.715 153.061 130.837 157.442Z"/><path fill="#EBE9EB" transform="scale(0.909881 0.909881)" d="M130.837 157.442C137.829 145.53 147.777 142.334 160.706 141.937C174.357 141.517 182.592 145.807 195.204 149.861C198.844 150.949 204.238 150.932 208.43 151.972C202.295 152.908 189.305 149.422 183.496 147.113L182.249 147.705C182.77 149.34 190.439 151.134 192.265 151.695L192.269 152.336C188.341 151.882 184.771 150.512 181.075 149.134C172.154 145.807 166.315 144.673 156.904 145.383C155.813 145.339 155.175 145.373 154.138 144.966L154.057 144.427L154.629 143.97L154.003 143.556C142.718 146.249 133.616 151.837 130.447 163.732C129.299 159.591 128.171 150.98 129.3 147.02C130.446 151.246 130.715 153.061 130.837 157.442Z"/><path fill="#516077" transform="scale(0.909881 0.909881)" d="M154.003 143.556C162.951 141.318 174.988 144.109 183.496 147.113L182.249 147.705C182.77 149.34 190.439 151.134 192.265 151.695L192.269 152.336C188.341 151.882 184.771 150.512 181.075 149.134C172.154 145.807 166.315 144.673 156.904 145.383C155.813 145.339 155.175 145.373 154.138 144.966L154.057 144.427L154.629 143.97L154.003 143.556Z"/><path fill="#EBE9EB" transform="scale(0.909881 0.909881)" d="M199.87 130.919C201.512 131.315 213.796 142.997 216.088 144.867C219.036 147.289 222.176 149.468 225.476 151.385C220.66 151.81 213.48 152.493 208.751 152.272C209.878 152.173 211.994 152.046 213.017 151.829C215.735 151.805 218.727 150.519 221.597 149.804C215.934 146.021 203.953 136.082 199.87 130.919Z"/><path fill="#2B2B2B" transform="scale(0.909881 0.909881)" d="M325.014 155.648C340.456 155.577 355.898 155.615 371.34 155.763C371.542 159.284 371.442 163.808 371.465 167.404C360.609 167.012 349.12 167.525 337.844 167.271C337.989 171.49 338.357 180.753 337.831 184.618C348.523 183.84 358.862 183.954 369.583 184.365C369.6 188.287 369.425 192.234 369.285 196.155C361.587 195.47 347.39 195.793 339.198 195.765C338.86 195.77 338.461 195.901 338.12 195.987C337.472 198.358 338.435 209.578 337.781 213.559C349.816 213.123 359.333 213.27 371.364 213.568C371.344 217.391 371.36 221.213 371.413 225.035C355.79 224.865 340.166 224.876 324.544 225.07C323.18 207.263 323.643 189.203 323.801 171.357C323.849 165.89 323.733 161.007 325.014 155.648Z"/><path fill="#2B2B2B" transform="scale(0.909881 0.909881)" d="M671.596 155.094C684.969 152.624 697.231 159.628 702.342 172.098C698.64 173.654 695.416 175.282 691.832 177.076C690.451 174.439 688.591 172.083 686.347 170.127C681.282 165.679 671.173 163.932 667.312 169.595C660.854 179.065 673.864 183.182 679.672 184.613C689.831 187.284 701.588 191.874 702.338 204.123C703.202 218.248 691.881 225.17 679.471 225.988C673.096 225.956 666.17 225.07 660.881 221.314C650.796 214.153 643.002 205.492 660.868 202.419C665.751 209.728 673.014 217.972 683.982 213.867C687.142 212.684 688.156 209.485 689.147 206.462C688.857 205.391 688.618 204.055 688.391 202.945C678.082 192.711 651.884 196.865 652.444 174.559C652.559 169.997 652.119 168.505 655.149 164.56C659.16 159.35 665.075 155.945 671.596 155.094Z"/><path fill="#2B2B2B" transform="scale(0.909881 0.909881)" d="M414.601 155.545C419.406 155.554 424.211 155.628 429.014 155.767C432.129 168.294 437.849 181.612 441.684 194.058C441.804 194.445 446.295 204.651 446.227 204.562C447.943 204.222 459.723 161.12 463.123 156.497C465.756 155.059 474.288 155.679 477.893 155.725C476.71 159.995 474.374 165.945 472.807 170.256C466.206 187.929 460.363 207.533 453.601 224.854C449.648 225.159 443.116 224.955 438.878 225.024C438.494 223.462 437.799 221.919 437.24 220.401C431.314 204.304 424.975 188.41 419.954 172.001C418.161 166.144 415.622 161.947 414.601 155.545Z"/><path fill="#263449" transform="scale(0.909881 0.909881)" d="M157.651 25.3899C153.781 24.5422 150.577 23.8066 146.773 22.6489C143.076 21.5236 137.137 18.9627 133.507 18.6046C131.563 18.4098 129.601 18.7088 127.803 19.4741C117.884 23.7618 120.213 39.1548 123.186 47.2066C123.855 49.0187 124.99 50.6957 124.256 52.5624C119.093 53.8292 119.613 45.3991 119.021 42.374C115.019 21.9153 124.293 10.1946 145.44 18.7601C147.037 19.407 153.614 21.7204 154.675 19.9353C152.957 14.9385 140.426 9.38246 135.347 9.93453C133.367 10.1498 126.444 10.8804 125.477 9.41838C126.125 7.58315 128.74 7.85397 130.462 7.67379C157.722 4.82188 171.174 32.027 160.418 54.8698C153.782 68.9637 142.751 75.7593 137.615 89.3027C137.528 87.8249 137.745 87.2624 137.04 86.2018L136.25 86.3526C136.49 80.2961 149.943 66.7137 153.595 61.7786C155.367 59.3847 156.59 53.9836 158.793 50.1136C150.563 55.9487 143.226 60.7273 133.126 63.1264C129.781 63.9209 126.304 64.09 123.059 64.7149C116.641 78.4983 104.709 93.1233 100.735 107.715C99.4915 112.278 99.2605 116.728 99.4768 121.436C99.7376 127.113 100.753 132.83 101.49 138.468C103.325 152.489 105.595 166.328 107.962 180.264C110.472 195.04 111.646 209.626 116.801 223.862C121.849 237.8 129.872 250.061 143.645 256.44C147.549 258.249 151.407 259.025 155.611 259.838C158.992 260.492 162.416 261.26 165.849 261.562C172.102 262.112 178.389 261.855 184.651 261.595C208.676 260.6 232.28 256.418 255.554 250.522C261.436 249.032 267.416 247.699 273.155 245.724C275.742 244.835 288.489 239.991 289.926 242.003C287.716 246.919 257.244 252.442 250.897 254.425C247.134 255.6 232.767 259.158 229.087 258.861C226.191 260.377 219.401 261.083 215.876 261.685C197.605 264.804 172.214 266.698 153.804 263.938C165.326 272.447 177.548 291.581 178.295 306.059C178.736 308.652 179.019 311.072 179.319 313.684L178.353 311.949L177.966 311.942L177.785 315.897C176.828 311.44 175.687 304.439 174.294 300.338C169.313 285.667 160.344 272.914 147.698 263.877C141.194 259.229 135.34 256.608 129.821 250.493C127.032 247.403 122.305 243.107 120.493 239.398C117.719 233.718 114.713 226.02 112.943 220.002C108.949 206.422 107.809 193.306 105.549 179.549C103.052 165.598 100.741 151.781 99.2281 137.668C98.3587 129.558 96.642 120.696 97.4847 112.514C97.8725 108.748 99.3425 104.336 100.206 100.611C101.216 96.2539 105.014 92.2347 107.17 88.3519C110.049 83.348 112.911 78.368 115.482 73.2021C116.598 70.9925 118.492 64.1271 120.093 63.0783C121.883 61.9056 127.652 61.5212 130.161 60.9224C133.257 60.1833 135.558 59.4938 138.563 58.453C147.42 55.3851 153.272 49.2212 160.971 44.9102C161.656 40.398 162.294 33.6889 160.207 29.6246C159.727 28.6892 158.332 26.6191 157.651 25.3899Z"/><path fill="#EBE9EB" transform="scale(0.909881 0.909881)" d="M148.766 261.227C169.984 265.751 190.018 263.902 211.414 261.534C214.589 261.183 227.042 258.546 229.087 258.861C226.191 260.377 219.401 261.083 215.876 261.685C197.605 264.804 172.214 266.698 153.804 263.938C165.326 272.447 177.548 291.581 178.295 306.059L178.146 306.288C177.668 306.269 177.649 305.195 177.545 304.661C173.894 285.745 163.935 272.527 148.766 261.227Z"/><path fill="#2B2B2B" transform="scale(0.909881 0.909881)" d="M378.162 155.71L391.382 155.725C392.722 173.661 391.7 195.501 391.626 213.576C400.22 213.092 412.799 212.546 421.486 213.304L421.038 225.053L392.233 224.918C389.159 224.921 380.458 224.813 377.92 225.322C378.312 223.288 377.838 208.716 377.809 205.658L377.808 164.082C377.882 161.568 377.89 158.135 378.162 155.71Z"/><path fill="#263449" transform="scale(0.909881 0.909881)" d="M159.571 77.1089C162.166 76.5982 165.417 77.1473 167.983 77.7063C174.46 79.1175 198.009 92.0439 201.34 97.4082C202.295 98.9452 202.952 100.965 202.455 102.768C202.045 104.257 200.735 105.321 199.423 106.012C194.919 108.384 182.052 110.359 177.276 108.903C176.142 107.396 176.416 107.472 176.752 105.713C176.046 104.534 174.296 105.836 172.533 104.632C172.264 102.124 176.539 102.532 178.131 99.9441C176.161 97.3431 168.72 98.3439 166.13 99.7216C162.875 101.453 161.946 105.066 161.012 108.31C150.599 102.129 147.099 92.4504 149.751 80.8931C153.089 77.4073 155.015 77.3677 159.571 77.1089ZM158.604 102.79L158.866 102.604C160.524 101.411 162.05 99.3356 163.382 98.3962C167.777 95.297 178.532 93.8809 182.187 98.8294C185.178 102.88 178.347 104.565 177.625 105.836C178.38 106.09 178.354 106.117 179.13 106.037C223.218 108.284 182.414 86.1971 167.808 80.4244C165.977 79.7007 162.111 79.5214 160.061 79.6028C152.636 81.3807 151.272 85.0212 152.852 92.4926C153.673 96.376 155.998 99.8434 158.604 102.79Z"/><path fill="#2B2B2B" transform="scale(0.909881 0.909881)" d="M482.43 155.659C487.013 155.611 491.759 155.704 496.356 155.738C496.629 162.41 496.86 223.517 495.991 225.01C491.753 224.978 487.514 225.008 483.277 225.102L482.43 155.659Z"/><path fill="#2B2B2B" transform="scale(0.909881 0.909881)" d="M630.785 155.065C632.573 154.406 638.309 154.559 639.669 156.132C639.905 157.963 638.54 179.121 638.13 181.888L637.451 182.224C635.01 182.111 632.296 182.262 629.83 182.344C629.211 178.287 626.982 158.728 628.066 155.801C628.782 155.117 629.734 155.174 630.785 155.065Z"/><path fill="#263449" transform="scale(0.909881 0.909881)" d="M101.571 44.4634L101.855 43.53C103.959 43.0041 112.828 50.1923 115.035 51.317C117.238 52.4401 119.885 53.2192 122.04 54.4138C123.409 55.1731 124.141 56.5261 123.196 57.9644C117.891 60.7195 100.295 56.1601 97.8284 49.7781L98.06 49.0648C99.4398 48.8519 99.4201 48.8927 100.849 49.6495C104.467 50.6464 108.55 53.456 111.194 53.9538C110.922 53.0868 106.103 49.8925 105.106 48.8061C103.872 47.4613 102.734 46.2694 101.713 44.6869L101.571 44.4634Z"/><path fill="#EBE9EB" transform="scale(0.909881 0.909881)" d="M101.571 44.4634C107.999 50.5926 111.144 52.6927 118.891 56.3165C115.05 56.0336 102.034 53.5551 100.849 49.6495C104.467 50.6464 108.55 53.456 111.194 53.9538C110.922 53.0868 106.103 49.8925 105.106 48.8061C103.872 47.4613 102.734 46.2694 101.713 44.6869L101.571 44.4634Z"/><path fill="#2B2B2B" transform="scale(0.909881 0.909881)" d="M177.785 315.897L177.966 311.942L178.353 311.949L179.319 313.684C180.066 315.813 180.504 320.73 180.701 323.336C182.273 344.223 182.003 366.059 177.203 386.518C177.185 386.593 176.885 386.957 176.81 387.041L176.114 387.138C175.279 385.707 177.263 377.213 177.595 374.816C180.205 355.965 180.452 334.714 177.785 315.897Z"/><path fill="#263449" transform="scale(0.909881 0.909881)" d="M134.674 99.5053L135.837 100.212L136.268 99.111L136.701 98.9336C138.133 105.886 142.037 108.765 148.679 109.872C150.17 110.12 151.704 111.474 153.422 110.706C152.956 107.912 146.113 108.533 146.051 104.318C148.675 103.018 156.605 106.213 156.832 108.767C157.595 117.316 143.602 112.947 140.414 110.568C135.933 107.225 135.62 103.983 134.674 99.5053Z"/><path fill="#2B2B2B" transform="scale(0.909881 0.909881)" d="M136.25 86.3526L137.04 86.2018C137.745 87.2624 137.528 87.8249 137.615 89.3027C136.523 93.2676 136.446 94.814 136.701 98.9336L136.268 99.111L135.837 100.212L134.674 99.5053C134.156 93.7534 134.435 91.856 136.25 86.3526Z"/><path fill="#2B2B2B" fill-opacity="0.098039217" transform="scale(0.909881 0.909881)" d="M702.197 216.297C702.415 216.597 702.46 216.91 702.57 217.282C701.471 218.951 700.675 220.253 699.714 221.99L699.201 221.517C698.834 219.552 701.168 218.248 702.197 216.297Z"/></svg>