<?xml version="1.0" encoding="utf-8" ?><svg xmlns="http://www.w3.org/2000/svg" xmlns:xlink="http://www.w3.org/1999/xlink" width="1235" height="195" viewBox="0 0 1235 195"><path fill="#2A4024" d="M737.889 20.7323L738.589 20.696C759.954 19.6434 782.28 21.0069 803.717 20.4646C812.923 20.2317 823.919 20.4555 832.851 22.7913C840.18 24.7607 846.921 28.4869 852.49 33.6482C868.675 48.3969 872.206 73.3258 856.768 90.0124C842.545 105.385 819.418 109.028 799.441 109.881C799.801 110.823 800.202 111.75 800.642 112.657C819.571 151.464 885.79 146.553 919.442 135.155C925.605 133.067 932.555 129.495 938.446 126.619C935.072 142.075 932.499 158.427 928.985 173.426L928.833 173.473C897.053 183.126 861.43 174.911 832.789 159.57C830.784 158.329 828.797 157.06 826.827 155.765C809.299 144.168 793.238 125.793 788.948 104.736C791.369 104.518 794.008 104.302 796.393 103.887C824.602 98.9784 837.22 61.307 819.248 39.6016C809.136 27.3885 796.266 25.7618 781.635 24.3888C781.115 29.4683 780.942 34.8279 781.001 39.9575C781.428 77.1394 779.95 114.622 781.861 151.734C782.272 159.716 785.779 169.169 787.214 177.267C770.099 177.56 751.234 177.739 734.164 176.993C742.085 150.066 740.664 127.712 740.493 99.9704C740.373 80.4214 741.269 60.7263 739.216 41.2754C738.809 37.4218 734.111 23.0386 735.105 21.185L737.889 20.7323Z"/><path fill="#2A4024" d="M197.643 20.8841C211.392 19.6182 231.371 20.9227 245.44 20.8365C259.546 20.7501 276.111 19.5763 289.72 22.58C296.783 24.1236 303.393 27.2834 309.032 31.8119C317.682 38.7715 323.895 49.1456 325.091 60.269C326.188 70.3305 323.178 80.4087 316.746 88.217C303.382 104.774 282.428 107.936 262.847 110.039C277.413 133.759 293.091 146.83 322.251 139.796C318.489 149.161 307.532 168.083 302.242 177.493C266.869 175.324 250.465 140.043 248.075 108.815C247.996 108.001 248.024 106.504 248.017 105.626C249.605 104.138 255.981 103.835 259.654 102.581C264.051 101.068 268.12 98.7325 271.645 95.6982C287.161 82.3719 291.099 55.3644 277.01 39.4392C266.965 28.0848 254.411 25.6647 240.072 24.629C239.818 28.8487 239.753 33.6596 239.834 37.9322C240.557 76.1763 238.625 114.788 240.734 152.952C241.146 160.404 244.517 169.894 246.132 177.449C228.408 177.636 210.683 177.578 192.96 177.274C195.008 168.791 197.472 160.302 198.213 151.555C199.713 133.844 199.148 115.346 199.164 97.4683C198.974 78.0839 199.776 58.7401 197.657 39.4269C197.122 34.5518 192.091 24.7236 194.428 21.2673L197.643 20.8841Z"/><path fill="#2A4024" d="M516.486 21.3215C519.455 21.1206 522.43 21.0142 525.406 21.0022C549.466 20.8741 571.647 28.9419 588.871 46.0047C583.302 54.7361 567.422 74.326 560.296 82.4602C555.941 67.8396 552.955 58.4269 540.607 47.4803C530.854 38.8335 517.421 33.5292 504.296 34.2784C499.496 34.5523 493.309 36.3015 490.044 40.0749C489.005 41.2756 487.969 43.3895 488.23 44.9809C491.438 64.5571 530.588 75.2671 546.498 83.8621C557.385 89.7434 566.513 93.2003 576.011 101.279C583.51 107.656 588.831 114.921 589.585 124.603C590.432 135.496 586.558 149.17 579.462 157.403C567.813 170.917 550.859 175.765 533.888 177.252C509.94 179.346 486.089 172.284 467.13 157.488C469.022 145.708 475.667 119.563 479.061 107.923C484.161 127.17 497.972 140.454 514.97 149.425C528.328 156.475 543.439 161.614 558.596 160.899C562.835 160.642 569.992 157.137 568.965 152.039C565.877 136.713 546.336 128.867 533.783 122.801C516.615 114.835 500.836 108.514 485.065 97.5847C465.487 84.0169 460.603 62.3596 474.678 42.3541C484.281 28.7055 500.472 23.6658 516.486 21.3215Z"/><path fill="#2A4024" d="M366.422 20.786C372.57 20.2842 404.456 19.7288 408.113 21.6491C411.521 26.6982 416.829 45.1052 419.036 51.7814L435.677 101.591L451.922 149.747C454.672 157.887 458.951 169.282 460.846 177.363C445.25 177.674 429.648 177.678 414.052 177.376C409.793 160.746 403.731 151.646 390.964 140.788C377.14 131.181 364.412 127.236 347.623 126.622C344.363 134.847 340.775 144.024 338.187 152.479C335.008 162.865 337.279 168.568 342.226 177.387C335.282 177.603 328.333 177.576 321.392 177.306C326.094 163.252 331.471 149.766 336.508 135.906C348.228 103.407 360.297 71.0351 372.714 38.7966C371.293 35.6479 365.901 24.3329 365.641 21.7272L366.422 20.786ZM350.516 120.035C369.486 120.516 384.759 125.826 399.133 138.429C403.383 142.731 407.33 147.322 410.947 152.169C409.255 143.854 407.344 135.672 404.985 127.515C402.241 118.023 381.423 53.2172 376.675 50.0715C376.499 49.9545 376.318 49.8504 376.12 49.775L359.385 95.0329C356.749 102.193 352.415 112.891 350.516 120.035Z"/><path fill="#2A4024" d="M603.791 20.7881C607.64 19.8458 641.578 20.8728 647.76 20.881L695.686 20.4974C704.043 20.4857 714.326 20.2206 722.433 21.261C723.125 34.0314 722.473 52.0778 722.372 65.1877C701.255 33.9017 679.631 26.253 643.495 26.611L643.463 107.989C646.797 104.945 649.862 100.68 654.048 97.0469C667.956 84.9777 681.765 81.1863 699.606 82.1025C699.715 91.3346 699.7 100.568 699.562 109.799C680.453 99.7574 664.294 101.146 647.459 115.381L643.485 118.93C643.414 136.405 643.455 153.881 643.607 171.356C651.811 171.471 659.764 171.764 667.799 169.856C691.338 164.267 709.944 144.5 722.366 124.813C722.757 140.063 723.18 162.432 722.401 177.357C680.993 177.977 637.632 177.638 596.207 177.47C598.442 170.36 601.27 160.508 601.913 152.974C603.402 135.509 602.988 117.003 602.994 99.3869C603 81.4262 603.439 62.5401 601.933 44.7547C601.34 37.7528 598.649 28.096 596.779 21.2607L603.791 20.7881Z"/><path fill="#2A4024" d="M955.556 20.893C967.763 19.8412 984.071 20.762 996.566 20.7369C1021.54 20.6868 1047.22 19.9076 1072.11 21.2184C1073.01 27.4974 1072.85 59.0743 1072.4 66.1689C1069.36 60.9474 1062.5 52.1002 1058.02 47.9361C1037.18 28.5297 1020.29 26.2456 993.628 26.5745C992.997 35.3999 993.478 50.2283 993.503 59.3628L993.427 108.174C996.434 105.422 999.723 101.259 1002.92 98.2819C1017.1 85.0822 1031.16 81.8095 1049.44 82.1327C1049.76 91.1382 1049.55 100.264 1049.44 109.281C1029.36 99.9288 1014.76 101.553 997.172 115.13C995.882 116.181 994.343 118.165 993.238 119.493C994.242 134.179 993.505 155.875 993.816 171.419C1000.49 171.461 1008.84 171.809 1015.23 170.53C1042.32 165.111 1057.62 145.977 1072.36 124.915C1073.29 140.139 1072.61 161.646 1072.57 177.372L993.64 177.475C979.497 177.48 960.596 177.999 946.901 176.912C949.33 170.001 952.162 160.325 952.746 152.96C954.158 135.154 954.002 116.325 953.869 98.3983C953.734 80.3557 954.041 61.2659 952.384 43.3684C951.75 36.5229 949.117 27.8574 947.198 21.1747L955.556 20.893Z"/><path fill="#2A4024" d="M1089.66 20.8774C1101.38 20.0906 1112.27 21.135 1123.75 20.9676L1167.38 20.7676C1173.45 20.7113 1209.67 19.619 1212.43 21.9126C1213.33 28.5266 1212.7 58.2359 1212.46 65.9043C1203.02 49.3686 1187.13 35.6948 1168.79 30.0864C1167.85 58.0584 1169.13 86.7884 1168.6 114.84C1168.41 125.022 1168.15 137.798 1169.1 147.78C1169.71 158.364 1172.15 166.866 1174.69 177.081C1159.43 178.076 1137.55 177.406 1121.72 177.258C1123.46 168.817 1126.01 162.691 1126.98 153.263C1128.72 136.312 1128.25 119.174 1128.22 102.125C1128.18 78.124 1128.37 54.0315 1128.06 30.059C1107.12 36.2215 1096.39 48.9908 1083.75 65.4005C1083.56 51.7625 1083.53 34.7612 1084.13 21.2352L1089.66 20.8774Z"/><path fill="#2A4024" d="M882.111 20.7048C891.018 20.4096 927.486 19.9153 934.585 21.2849C926.598 47.1135 927.318 68.9836 929.621 96.1978C930.052 101.291 934.094 112.461 933.949 116.649C917.879 115.627 898.833 117.114 882.018 116.487C888.862 91.5755 890.455 65.5107 886.696 39.9493C885.768 33.8846 882.808 26.4302 882.111 20.7048Z"/><path fill="#2A4024" d="M120.915 79.3331C145.228 81.0292 146.94 98.9603 168.925 101.845C177.897 103.022 179.995 90.8466 181.026 89.8219C181.762 91.2019 181.624 91.6661 181.545 93.2282C180.47 114.436 151.851 119.344 135.119 118.448C120.537 117.667 112.251 115.514 102.474 105.124C98.8585 111.07 93.5892 113.5 87.2923 115.683C69.6816 120.588 33.5722 120.383 24.5593 100.174C22.8086 96.2483 23.201 89.7483 24.9228 85.8145C25.8029 86.7524 22.6399 95.7009 29.5535 99.2573C48.0028 108.748 61.1756 81.9564 78.7211 79.854C88.9089 78.6333 94.3507 80.2884 102.717 85.9037C109.817 81.2036 112.547 80.1466 120.915 79.3331Z"/><path fill="#2A4024" d="M60.7088 20.7479C66.7942 20.201 76.5628 20.4507 82.8459 20.4694L122.486 20.6664C137.975 20.6946 166.785 19.5462 181.107 20.9419C182.085 28.5236 181.516 57.0907 181.321 65.6674C170.171 50.9006 163.791 42.7125 146.781 33.9056C130.88 26.439 119.537 26.4968 102.507 26.7099L102.613 79.459C86.851 71.2656 75.969 72.8246 61.5471 82.5153C61.5396 68.8804 61.9164 53.0042 60.1929 39.5768C59.6415 35.2811 56.7127 27.1279 55.7785 21.8452C57.2494 20.8014 58.7206 20.9681 60.7088 20.7479Z"/><path fill="#2A4024" d="M101.779 114.005C103.113 115.53 102.519 170.544 102.509 177.415C87.0936 177.645 71.675 177.611 56.2604 177.312C54.7284 175.745 56.9969 170.931 57.7184 168.549C61.9998 154.417 61.8344 138.247 61.4858 123.629C76.4041 124.103 89.2099 123.206 101.779 114.005Z"/></svg>