<svg xmlns="http://www.w3.org/2000/svg" width="499" height="499" viewBox="0 0 499 499">
<g>
<path d="M 262.20 459.59 C255.76,461.30 242.24,461.23 235.72,459.45 C229.75,457.82 224.13,454.78 182.76,430.87 C164.47,420.29 133.98,402.69 115.00,391.76 C84.86,374.39 79.72,371.07 74.32,365.50 C67.43,358.40 61.65,347.71 60.00,339.01 C58.65,331.86 58.65,167.14 60.00,159.99 C61.65,151.31 67.43,140.61 74.32,133.48 C79.45,128.17 84.24,124.93 102.50,114.44 C138.19,93.93 164.05,79.03 171.00,74.98 C205.79,54.70 221.35,45.81 228.17,42.30 C236.47,38.05 252.18,36.77 262.66,39.50 C269.52,41.29 271.47,42.24 289.00,52.43 C296.42,56.75 309.70,64.42 318.50,69.48 C327.30,74.53 340.35,82.06 347.50,86.20 C354.65,90.33 365.00,96.32 370.50,99.51 C376.00,102.69 389.05,110.18 399.50,116.15 C415.06,125.05 419.62,128.18 424.68,133.45 C431.65,140.70 437.41,151.45 439.04,160.28 C439.70,163.84 439.96,196.79 439.78,253.15 L 439.49 340.50 L 436.77 346.87 C430.69,361.12 423.50,368.96 408.75,377.41 C403.39,380.49 394.73,385.48 389.50,388.50 C365.81,402.22 359.47,405.87 344.00,414.78 C319.73,428.74 283.31,449.77 277.00,453.47 C270.72,457.15 269.50,457.66 262.20,459.59 ZM 454.00 327.33 C450.98,332.63 448.16,336.97 447.75,336.98 C447.34,336.99 447.00,297.62 447.00,249.50 C447.00,201.38 447.34,162.00 447.75,162.01 C448.16,162.01 449.66,164.15 451.08,166.76 C452.50,169.37 457.04,177.35 461.18,184.50 C465.31,191.65 472.45,204.00 477.04,211.94 C486.95,229.11 489.00,235.48 489.00,249.15 C489.00,264.86 487.12,270.28 473.99,292.50 C471.07,297.45 466.61,305.15 464.09,309.60 C461.56,314.06 457.02,322.04 454.00,327.33 ZM 52.00 249.50 C52.00,297.62 51.66,336.99 51.25,336.98 C50.84,336.97 47.51,331.68 43.85,325.23 C40.20,318.78 33.29,306.75 28.50,298.50 C23.71,290.25 18.48,281.19 16.87,278.36 C12.36,270.45 10.00,260.54 10.00,249.47 C10.00,235.29 11.84,229.54 22.04,211.85 C26.91,203.41 35.30,188.75 40.70,179.27 C46.09,169.79 50.84,162.03 51.25,162.02 C51.66,162.01 52.00,201.38 52.00,249.50 ZM 352.11 463.98 C347.27,464.90 271.05,465.53 272.08,464.64 C272.31,464.45 280.15,459.89 289.50,454.50 C298.85,449.12 310.77,442.24 316.00,439.21 C324.80,434.11 343.11,423.57 367.50,409.56 C373.00,406.40 379.52,402.57 382.00,401.05 C384.48,399.53 394.15,393.93 403.50,388.60 C412.85,383.27 421.53,378.19 422.78,377.31 C425.00,375.76 425.03,375.78 424.13,378.16 C423.62,379.50 421.08,384.18 418.48,388.55 C415.88,392.92 410.96,401.45 407.53,407.50 C389.08,440.06 387.48,442.50 380.08,449.19 C373.08,455.52 359.87,462.51 352.11,463.98 ZM 226.92 464.63 C227.80,465.42 150.25,464.73 146.00,463.91 C143.52,463.44 137.68,461.17 133.00,458.87 C121.40,453.16 111.62,443.29 103.92,429.49 C100.85,424.00 92.81,409.91 86.05,398.20 C79.30,386.48 73.96,376.71 74.19,376.48 C74.42,376.24 76.24,377.16 78.22,378.50 C80.20,379.85 89.18,385.17 98.16,390.32 C113.12,398.90 123.09,404.64 160.50,426.22 C174.99,434.57 188.16,442.19 202.75,450.66 C208.11,453.77 215.65,458.10 219.50,460.29 C223.35,462.47 226.69,464.42 226.92,464.63 ZM 115.00 99.00 C107.03,103.59 94.54,110.84 87.25,115.11 C79.96,119.38 74.00,122.61 74.00,122.30 C74.00,121.60 93.72,87.04 98.99,78.50 C101.02,75.20 102.87,72.05 103.09,71.50 C105.33,65.99 113.47,54.83 118.83,49.91 C126.37,43.01 138.69,36.48 147.04,34.98 C150.28,34.39 168.07,34.08 189.83,34.24 L 227.07 34.50 L 215.79 40.90 C209.58,44.42 199.10,50.44 192.50,54.26 C179.70,61.69 170.49,67.01 160.00,73.04 C156.43,75.10 148.10,79.90 141.50,83.71 C134.90,87.53 122.97,94.41 115.00,99.00 ZM 418.46 110.29 C422.19,116.78 425.05,122.28 424.82,122.52 C424.58,122.75 422.84,121.90 420.94,120.62 C419.05,119.33 410.08,114.01 401.00,108.79 C352.54,80.90 315.54,59.53 299.50,50.16 C289.60,44.38 279.27,38.49 276.54,37.07 L 271.58 34.50 L 309.54 34.23 C333.35,34.06 349.36,34.35 352.50,35.01 C360.54,36.70 373.22,43.55 380.25,49.99 C387.43,56.57 388.43,58.15 418.46,110.29 ZM 197.47 414.96 L 200.04 419.02 L 249.70 418.76 L 299.37 418.50 L 302.79 412.65 L 306.21 406.80 L 303.49 401.65 C302.22,399.24 301.57,397.49 300.40,396.23 C297.35,392.95 290.77,392.96 260.42,392.99 C257.17,393.00 253.65,393.00 249.82,393.00 C221.16,393.00 202.16,393.38 201.04,393.98 C200.04,394.51 197.78,397.51 196.02,400.63 C192.50,406.86 192.52,407.12 197.47,414.96 ZM 156.39 300.59 C156.86,301.80 159.48,302.01 171.73,301.78 L 186.50 301.50 L 186.81 298.31 C187.11,295.15 187.06,295.11 182.31,294.81 L 177.50 294.50 L 177.20 287.75 L 176.91 281.00 L 185.09 281.00 C191.70,281.00 193.93,281.41 196.73,283.14 C200.54,285.50 206.28,292.74 205.42,294.12 C205.13,294.61 203.11,295.00 200.94,295.00 C197.10,295.00 197.00,295.09 197.00,298.50 L 197.00 302.00 L 226.00 302.00 L 226.00 298.50 C226.00,295.09 225.90,295.00 222.02,295.00 C218.43,295.00 217.85,294.63 216.11,291.25 C215.04,289.19 212.56,285.95 210.59,284.05 C208.61,282.16 207.00,280.26 207.00,279.82 C207.00,279.39 208.69,278.18 210.75,277.13 C212.81,276.07 215.35,274.27 216.40,273.12 C219.04,270.19 219.69,262.10 217.62,257.94 C215.51,253.71 215.58,253.31 218.01,255.51 C221.11,258.31 222.40,263.81 221.09,268.66 C219.95,272.92 216.14,277.50 212.90,278.53 C210.51,279.29 210.50,280.24 212.85,282.36 C213.86,283.28 215.55,285.82 216.60,287.99 C218.51,291.99 221.00,294.04 221.00,291.64 C221.00,290.93 219.58,288.19 217.84,285.57 L 214.67 280.79 L 218.25 277.41 C225.11,270.94 225.89,260.81 219.91,255.79 C218.13,254.30 216.31,253.31 215.87,253.58 C215.42,253.86 213.58,253.28 211.78,252.30 C208.92,250.74 205.12,250.47 182.18,250.17 L 155.86 249.83 L 156.18 253.16 C156.49,256.38 156.68,256.52 161.50,257.00 L 166.50 257.50 L 166.50 294.50 L 161.51 295.00 C156.41,295.51 155.03,297.02 156.39,300.59 ZM 93.50 300.92 C102.83,304.45 116.50,303.41 126.12,298.44 C127.70,297.62 129.06,297.19 129.12,297.47 C129.19,297.76 129.36,298.45 129.50,299.00 C129.64,299.55 129.81,300.48 129.88,301.06 C129.95,301.67 131.79,301.99 134.25,301.81 L 138.50 301.50 L 138.50 275.50 L 112.50 275.50 L 111.87 281.00 L 119.77 281.00 C124.11,281.00 127.93,281.26 128.25,281.59 C129.44,282.77 126.72,288.04 123.44,290.92 C119.39,294.47 114.44,295.99 107.00,295.97 C94.80,295.94 86.00,287.65 86.00,276.22 C86.00,263.60 94.62,255.53 107.96,255.65 C115.23,255.71 119.61,257.43 124.61,262.17 C127.32,264.74 128.34,265.08 132.61,264.81 L 137.50 264.50 L 137.50 250.50 L 132.75 250.20 C128.99,249.95 128.00,250.21 128.00,251.45 C128.00,253.56 126.18,253.40 120.94,250.80 C114.65,247.69 99.68,247.70 92.70,250.82 C85.58,254.01 81.17,257.77 77.93,263.43 C75.47,267.72 75.02,269.60 75.01,275.64 C74.99,288.05 80.91,296.15 93.50,300.92 ZM 276.94 133.39 C284.87,141.15 286.11,142.01 287.94,141.03 C289.07,140.43 290.00,139.17 290.00,138.24 C290.00,136.11 274.10,120.00 272.00,120.00 C271.15,120.00 266.20,115.73 261.00,110.50 L 251.54 101.00 L 260.00 92.50 C266.92,85.55 269.01,84.00 271.50,84.00 C273.97,84.00 276.02,82.52 282.38,76.12 C287.63,70.84 289.81,68.00 289.00,67.50 C288.24,67.03 285.13,69.40 280.62,73.88 C276.68,77.79 272.96,81.00 272.35,81.00 C271.74,81.00 270.66,80.30 269.95,79.44 C268.84,78.11 269.77,76.77 276.43,70.07 C281.66,64.81 283.81,62.00 283.00,61.50 C282.24,61.03 278.88,63.65 273.90,68.60 C267.53,74.93 266.00,77.04 266.00,79.45 C266.00,81.86 264.47,84.00 258.27,90.23 C254.02,94.50 250.08,98.00 249.50,98.00 C248.93,98.00 244.56,94.06 239.79,89.25 C231.37,80.76 231.16,80.43 232.52,78.00 C233.30,76.62 233.95,74.61 233.96,73.53 C234.01,70.75 223.15,60.00 220.30,60.00 C218.99,60.00 216.13,61.83 213.52,64.33 C207.06,70.52 207.28,73.05 214.92,80.35 C221.00,86.14 221.47,86.28 226.80,83.71 C228.90,82.70 229.87,83.38 238.24,91.75 L 247.37 100.89 L 238.00 110.44 C232.85,115.70 227.92,120.00 227.04,120.00 C226.17,120.00 221.71,123.77 217.13,128.37 C208.45,137.10 207.16,140.16 211.90,140.84 C213.76,141.10 216.11,139.36 222.64,132.86 C227.24,128.29 231.00,123.87 231.00,123.04 C231.00,121.36 247.87,104.00 249.50,104.00 C251.16,104.00 268.00,121.38 268.00,123.09 C268.00,123.94 272.02,128.57 276.94,133.39 ZM 361.67 301.33 C362.03,301.70 375.08,302.00 390.67,302.00 L 419.00 302.00 L 419.00 283.00 L 410.10 283.00 L 409.50 294.50 L 382.50 294.50 L 382.50 257.50 L 387.50 257.00 C392.30,256.52 392.51,256.37 392.82,253.22 L 393.13 249.95 L 376.82 250.22 L 360.50 250.50 L 360.50 253.50 C360.50,256.41 360.67,256.52 366.00,257.00 L 371.50 257.50 L 371.50 294.50 L 366.25 294.80 C361.25,295.09 361.00,295.24 361.00,297.89 C361.00,299.42 361.30,300.97 361.67,301.33 ZM 286.39 300.57 C286.86,301.81 291.34,301.99 316.22,301.77 L 345.50 301.50 L 345.79 292.25 L 346.08 283.00 L 336.10 283.00 L 335.50 294.50 L 307.50 294.50 L 307.21 278.00 C307.06,268.92 307.17,260.51 307.47,259.30 C307.93,257.44 308.81,257.06 313.26,256.80 C318.37,256.51 318.51,256.42 318.81,253.25 L 319.13 250.00 L 285.87 250.00 L 286.19 253.25 C286.49,256.42 286.63,256.51 291.77,256.80 L 297.04 257.11 L 296.77 275.80 L 296.50 294.50 L 291.51 295.00 C286.41,295.51 285.03,297.02 286.39,300.57 ZM 238.39 300.58 C238.86,301.80 241.61,302.00 254.73,301.78 L 270.50 301.50 L 270.50 298.50 C270.50,295.59 270.33,295.48 265.00,295.00 L 259.50 294.50 L 259.20 279.00 C259.04,270.48 259.17,262.04 259.50,260.25 C260.08,257.05 260.18,257.00 265.55,257.00 L 271.00 257.00 L 271.00 250.00 L 238.87 250.00 L 239.19 253.25 C239.49,256.36 239.71,256.52 244.50,257.00 L 249.50 257.50 L 249.50 294.50 L 244.01 295.00 C238.38,295.51 236.98,296.91 238.39,300.58 ZM 165.04 230.81 C167.84,233.82 174.90,233.87 177.60,230.90 C179.21,229.12 179.55,226.89 179.83,216.42 C180.14,205.06 179.99,203.79 178.01,201.02 C176.22,198.50 175.19,198.00 171.75,198.00 C168.90,198.00 166.92,198.67 165.31,200.17 C163.12,202.23 163.00,203.05 163.00,215.49 C163.00,227.32 163.20,228.84 165.04,230.81 ZM 253.71 232.38 C254.10,232.77 255.34,232.95 256.46,232.79 C258.28,232.53 258.56,231.59 259.02,224.00 C259.59,214.75 260.03,214.93 262.75,225.50 C264.47,232.19 264.68,232.50 267.53,232.50 L 270.50 232.50 L 271.05 198.00 L 268.52 198.00 C266.03,198.00 266.00,198.11 265.94,206.25 C265.88,214.01 265.79,214.32 264.52,211.50 C263.78,209.85 262.52,206.25 261.72,203.50 C260.36,198.79 260.06,198.48 256.64,198.19 L 253.00 197.88 L 253.00 214.77 C253.00,224.06 253.32,231.99 253.71,232.38 ZM 284.00 198.00 L 284.00 233.00 L 286.50 233.00 C288.96,233.00 289.00,232.88 289.02,224.75 C289.03,214.62 290.12,212.32 291.83,218.78 C295.51,232.62 295.45,232.48 298.29,232.82 L 301.00 233.13 L 301.00 198.00 L 298.54 198.00 C296.19,198.00 296.08,198.30 295.79,205.25 L 295.50 212.50 L 294.20 208.00 C291.53,198.72 291.04,198.00 287.38,198.00 ZM 205.08 270.95 C202.96,272.45 199.81,273.01 190.22,273.57 C189.58,273.61 188.97,273.64 188.39,273.68 C182.00,274.06 179.11,274.24 177.88,272.89 C176.86,271.79 176.96,269.65 177.14,265.76 C177.16,265.33 177.18,264.88 177.20,264.40 L 177.50 257.50 L 188.70 257.22 C196.90,257.01 200.87,257.34 203.47,258.42 C209.33,260.87 210.16,267.33 205.08,270.95 ZM 222.40 229.82 C221.91,232.97 222.03,233.13 224.69,232.82 C226.88,232.57 227.57,231.92 227.81,229.86 C228.05,227.78 228.75,227.12 231.07,226.78 C233.68,226.39 234.12,226.70 234.82,229.42 C235.43,231.77 236.25,232.58 238.31,232.82 C241.63,233.21 241.63,233.19 238.94,217.50 C237.80,210.90 236.62,203.79 236.30,201.70 C235.73,197.95 235.67,197.90 231.64,198.20 C230.28,198.30 229.35,198.28 228.64,198.67 C226.94,199.61 226.56,202.93 224.54,216.00 C223.65,221.77 222.68,227.99 222.40,229.82 ZM 193.00 198.00 L 193.00 233.00 L 195.46 233.00 C197.81,233.00 197.92,232.70 198.21,225.75 C198.49,218.70 198.57,218.49 201.20,218.19 C203.90,217.88 203.91,217.89 204.20,225.19 C204.49,232.34 204.56,232.51 207.25,232.82 L 210.00 233.13 L 210.00 198.00 L 204.00 198.00 L 204.00 213.13 L 201.25 212.82 C198.56,212.51 198.49,212.33 198.21,205.25 C197.92,198.30 197.81,198.00 195.46,198.00 ZM 344.02 230.30 C345.74,232.48 346.97,233.00 350.42,233.00 C356.67,233.00 358.55,230.17 358.11,221.41 C358.05,220.25 355.73,216.71 352.95,213.54 C349.61,209.73 348.00,207.04 348.20,205.63 C348.62,202.65 352.39,202.75 352.82,205.75 C353.05,207.38 353.81,208.00 355.57,208.00 C357.63,208.00 358.00,207.52 358.00,204.83 C358.00,200.25 355.53,198.00 350.50,198.00 C345.86,198.00 343.59,199.77 342.47,204.25 C341.40,208.53 342.61,211.43 348.01,217.60 C353.15,223.48 353.60,224.51 352.09,226.90 C350.84,228.86 348.22,227.57 347.83,224.81 C347.59,223.10 346.85,222.50 345.00,222.50 C341.63,222.50 341.12,226.61 344.02,230.30 ZM 315.00 198.00 L 315.00 233.00 L 322.50 233.00 C329.79,233.00 330.00,232.93 330.00,230.56 C330.00,228.40 329.51,228.08 325.75,227.81 L 321.50 227.50 L 321.20 222.75 L 320.89 218.00 L 324.45 218.00 C327.57,218.00 328.00,217.70 328.00,215.50 C328.00,213.31 327.57,213.00 324.50,213.00 L 321.00 213.00 L 321.00 203.00 L 325.50 203.00 C329.63,203.00 330.00,202.80 330.00,200.50 C330.00,198.06 329.83,198.00 322.50,198.00 ZM 139.67 232.33 C141.07,233.74 145.47,232.91 147.69,230.83 C149.91,228.74 150.00,228.05 150.00,213.33 L 150.00 198.00 L 144.05 198.00 L 143.78 212.25 C143.51,225.94 143.41,226.54 141.25,227.49 C139.09,228.44 138.27,230.94 139.67,232.33 ZM 289.50 305.00 C289.09,305.66 299.32,306.00 319.44,306.00 L 350.00 306.00 L 350.00 296.00 C350.00,290.00 349.60,286.00 349.00,286.00 C348.41,286.00 348.00,289.67 348.00,295.00 L 348.00 304.00 L 319.06 304.00 C300.84,304.00 289.89,304.37 289.50,305.00 ZM 75.67 216.33 C76.03,216.70 87.96,217.00 102.17,217.00 C124.46,217.00 128.00,216.79 128.00,215.50 C128.00,214.20 124.39,214.00 101.50,214.00 C77.31,214.00 73.66,214.33 75.67,216.33 ZM 372.24 216.34 C372.93,216.61 384.86,216.88 398.75,216.92 C420.56,216.99 424.00,216.80 424.00,215.50 C424.00,214.21 420.45,214.00 398.06,214.00 C374.98,214.00 368.01,214.63 372.24,216.34 ZM 96.68 290.52 C101.11,292.83 101.38,292.27 97.48,288.85 C95.51,287.12 93.25,284.44 92.45,282.90 C90.33,278.81 90.61,271.15 93.02,267.19 C96.82,260.97 107.53,258.31 116.25,261.43 C120.97,263.11 121.21,261.40 116.53,259.45 C112.16,257.62 102.94,257.58 98.67,259.36 C91.35,262.42 86.72,272.37 88.94,280.25 C90.36,285.26 92.79,288.49 96.68,290.52 ZM 364.00 305.00 C364.00,305.64 374.67,306.00 394.00,306.00 L 424.00 306.00 L 423.87 295.75 C423.75,286.95 423.62,286.21 422.95,290.50 C422.53,293.25 422.14,297.41 422.09,299.75 L 422.00 304.00 L 393.00 304.00 C374.33,304.00 364.00,304.36 364.00,305.00 ZM 173.39 226.42 C172.77,228.04 170.85,228.52 169.67,227.33 C169.30,226.97 169.00,221.55 169.00,215.30 C169.00,205.80 169.26,203.84 170.60,203.32 C171.48,202.99 172.60,203.34 173.09,204.10 C174.08,205.67 174.33,223.97 173.39,226.42 ZM 262.00 276.12 C262.00,296.95 263.85,297.48 264.22,276.75 L 264.50 261.50 L 276.00 260.90 L 276.00 256.95 C276.00,254.78 275.55,253.00 275.00,253.00 C274.45,253.00 274.00,254.35 274.00,256.00 C274.00,258.80 273.75,259.00 270.25,259.01 C269.88,259.01 269.53,259.01 269.19,259.01 C266.44,259.01 264.74,259.01 263.69,259.84 C261.99,261.18 261.99,264.70 262.00,273.93 C262.00,274.62 262.00,275.35 262.00,276.12 ZM 384.00 276.05 C384.00,296.94 385.85,297.52 386.22,276.75 L 386.50 261.50 L 398.00 260.90 L 398.00 257.01 C398.00,251.91 396.21,250.86 395.81,255.73 L 395.50 259.50 L 384.00 260.10 ZM 310.00 276.05 C310.00,296.94 311.85,297.52 312.22,276.75 L 312.50 261.50 L 317.75 261.20 C323.00,260.90 323.25,260.68 323.25,256.50 C323.25,251.79 321.26,251.59 320.81,256.25 C320.51,259.42 320.37,259.51 315.25,259.80 L 310.00 260.10 ZM 198.57 305.03 C197.94,305.66 203.50,306.00 214.30,306.00 L 231.00 306.00 L 231.00 302.00 C231.00,297.49 229.30,296.52 228.82,300.75 L 228.50 303.50 L 214.02 303.78 C206.06,303.93 199.11,304.49 198.57,305.03 ZM 241.50 305.00 C241.10,305.65 246.82,306.00 257.94,306.00 L 275.00 306.00 L 275.00 302.00 C275.00,299.80 274.55,298.00 274.00,298.00 C273.45,298.00 273.00,299.35 273.00,301.00 L 273.00 304.00 L 257.56 304.00 C248.34,304.00 241.87,304.40 241.50,305.00 ZM 97.50 306.67 C104.93,308.87 120.69,307.14 125.54,303.59 C128.40,301.51 126.68,300.60 123.24,302.37 C121.63,303.21 117.31,304.45 113.65,305.12 C107.21,306.31 103.41,306.01 92.00,303.43 C89.63,302.89 89.61,302.93 91.50,304.17 C92.60,304.89 95.30,306.02 97.50,306.67 ZM 160.00 305.00 C160.00,305.62 166.00,306.00 176.00,306.00 L 192.00 306.00 L 192.00 302.00 C192.00,299.80 191.55,298.00 191.00,298.00 C190.45,298.00 190.00,299.35 190.00,301.00 L 190.00 304.00 L 175.00 304.00 C165.67,304.00 160.00,304.38 160.00,305.00 ZM 132.50 305.00 C132.11,305.62 134.16,306.00 137.94,306.00 L 144.00 306.00 L 144.00 292.00 C144.00,283.33 143.62,278.00 143.00,278.00 C142.38,278.00 142.00,283.00 142.00,291.00 L 142.00 304.00 L 137.56 304.00 C135.12,304.00 132.84,304.45 132.50,305.00 ZM 180.00 265.63 C180.00,269.03 180.38,270.88 181.00,270.50 C181.55,270.16 182.00,267.84 182.00,265.35 L 182.00 260.82 L 192.91 261.16 C198.90,261.35 203.64,261.22 203.42,260.87 C202.83,259.92 184.44,258.72 182.07,259.48 C180.31,260.04 180.00,260.95 180.00,265.63 ZM 231.80 412.80 C231.14,413.46 229.57,414.00 228.30,414.00 C226.12,414.00 226.00,413.64 226.00,407.00 C226.00,403.00 226.43,400.00 227.00,400.00 C227.57,400.00 228.00,402.86 228.00,406.57 C228.00,412.20 228.24,413.10 229.68,412.82 C231.09,412.55 231.33,411.43 231.11,406.14 C230.93,401.81 231.19,400.00 231.92,400.45 C233.39,401.36 233.29,411.31 231.80,412.80 ZM 140.50 267.50 L 129.50 268.67 L 143.00 269.00 L 143.00 261.00 C143.00,256.33 142.58,253.00 142.00,253.00 C141.45,253.00 140.98,253.34 140.95,253.75 C140.92,254.16 140.80,257.42 140.70,261.00 ZM 180.00 287.50 C180.00,289.98 180.45,292.00 181.00,292.00 C181.55,292.00 182.00,290.37 182.00,288.37 L 182.00 284.74 L 189.25 285.38 C195.95,285.98 196.31,285.91 194.00,284.55 C192.60,283.72 188.96,283.06 185.75,283.04 L 180.00 283.00 ZM 233.00 216.56 C233.00,220.29 232.69,221.00 231.06,221.00 C229.40,221.00 229.20,220.47 229.65,217.25 C230.39,211.91 230.85,210.79 231.99,211.50 C232.55,211.84 233.00,214.12 233.00,216.56 ZM 222.00 413.11 C224.30,413.75 224.25,413.81 221.25,413.90 L 218.00 414.00 L 218.00 407.00 C218.00,403.15 218.39,400.00 218.86,400.00 C219.34,400.00 219.51,401.12 219.25,402.49 C218.88,404.41 219.30,405.17 221.06,405.83 L 223.35 406.67 L 221.10 407.26 C217.96,408.08 218.59,412.17 222.00,413.11 ZM 115.00 284.00 C115.00,284.55 117.47,285.00 120.50,285.00 C123.53,285.00 126.00,284.55 126.00,284.00 C126.00,283.45 123.53,283.00 120.50,283.00 C117.47,283.00 115.00,283.45 115.00,284.00 ZM 218.47 75.97 C221.20,78.74 222.95,81.00 222.38,81.00 C220.81,81.00 212.80,73.10 213.19,71.94 C213.37,71.39 215.75,73.21 218.47,75.97 ZM 158.50 260.00 C158.13,260.60 159.34,261.00 161.50,261.00 C163.66,261.00 164.87,260.60 164.50,260.00 C164.16,259.45 162.81,259.00 161.50,259.00 C160.19,259.00 158.84,259.45 158.50,260.00 ZM 250.57 408.42 C251.55,412.33 250.48,413.81 249.24,410.25 C248.58,408.37 248.50,406.81 249.03,406.48 C249.53,406.17 250.22,407.04 250.57,408.42 ZM 247.00 402.00 C247.00,403.10 246.55,404.00 246.00,404.00 C245.45,404.00 245.00,403.10 245.00,402.00 C245.00,400.90 245.45,400.00 246.00,400.00 C246.55,400.00 247.00,400.90 247.00,402.00 Z" fill="rgb(57,45,49)"/>
<path d="M 0.00 249.50 L 0.00 0.00 L 249.50 0.00 L 499.00 0.00 L 499.00 249.50 L 499.00 499.00 L 249.50 499.00 L 0.00 499.00 L 0.00 249.50 ZM 226.92 464.63 C226.69,464.42 223.35,462.47 219.50,460.29 C215.65,458.10 208.11,453.77 202.75,450.66 C188.16,442.19 174.99,434.57 160.50,426.22 C123.09,404.64 113.12,398.90 98.16,390.32 C89.18,385.17 80.20,379.85 78.22,378.50 C76.24,377.16 74.42,376.24 74.19,376.48 C73.96,376.71 79.30,386.48 86.05,398.20 C92.81,409.91 100.85,424.00 103.92,429.49 C111.62,443.29 121.40,453.16 133.00,458.87 C137.68,461.17 143.52,463.44 146.00,463.91 C150.25,464.73 227.80,465.42 226.92,464.63 ZM 352.11 463.98 C359.87,462.51 373.08,455.52 380.08,449.19 C387.48,442.50 389.08,440.06 407.53,407.50 C410.96,401.45 415.88,392.92 418.48,388.55 C421.08,384.18 423.62,379.50 424.13,378.16 C425.03,375.78 425.00,375.76 422.78,377.31 C421.53,378.19 412.85,383.27 403.50,388.60 C394.15,393.93 384.48,399.53 382.00,401.05 C379.52,402.57 373.00,406.40 367.50,409.56 C343.11,423.57 324.80,434.11 316.00,439.21 C310.77,442.24 298.85,449.12 289.50,454.50 C280.15,459.89 272.31,464.45 272.08,464.64 C271.05,465.53 347.27,464.90 352.11,463.98 ZM 262.20 459.59 C269.50,457.66 270.72,457.15 277.00,453.47 C283.31,449.77 319.73,428.74 344.00,414.78 C359.47,405.87 365.81,402.22 389.50,388.50 C394.73,385.48 403.39,380.49 408.75,377.41 C423.50,368.96 430.69,361.12 436.77,346.87 L 439.49 340.50 L 439.78 253.15 C439.96,196.79 439.70,163.84 439.04,160.28 C437.41,151.45 431.65,140.70 424.68,133.45 C419.62,128.18 415.06,125.05 399.50,116.15 C389.05,110.18 376.00,102.69 370.50,99.51 C365.00,96.32 354.65,90.33 347.50,86.20 C340.35,82.06 327.30,74.53 318.50,69.48 C309.70,64.42 296.42,56.75 289.00,52.43 C271.47,42.24 269.52,41.29 262.66,39.50 C252.18,36.77 236.47,38.05 228.17,42.30 C221.35,45.81 205.79,54.70 171.00,74.98 C164.05,79.03 138.19,93.93 102.50,114.44 C84.24,124.93 79.45,128.17 74.32,133.48 C67.43,140.61 61.65,151.31 60.00,159.99 C58.65,167.14 58.65,331.86 60.00,339.01 C61.65,347.71 67.43,358.40 74.32,365.50 C79.72,371.07 84.86,374.39 115.00,391.76 C133.98,402.69 164.47,420.29 182.76,430.87 C224.13,454.78 229.75,457.82 235.72,459.45 C242.24,461.23 255.76,461.30 262.20,459.59 ZM 52.00 249.50 C52.00,201.38 51.66,162.01 51.25,162.02 C50.84,162.03 46.09,169.79 40.70,179.27 C35.30,188.75 26.91,203.41 22.04,211.85 C11.84,229.54 10.00,235.29 10.00,249.47 C10.00,260.54 12.36,270.45 16.87,278.36 C18.48,281.19 23.71,290.25 28.50,298.50 C33.29,306.75 40.20,318.78 43.85,325.23 C47.51,331.68 50.84,336.97 51.25,336.98 C51.66,336.99 52.00,297.62 52.00,249.50 ZM 454.00 327.33 C457.02,322.04 461.56,314.06 464.09,309.60 C466.61,305.15 471.07,297.45 473.99,292.50 C487.12,270.28 489.00,264.86 489.00,249.15 C489.00,235.48 486.95,229.11 477.04,211.94 C472.45,204.00 465.31,191.65 461.18,184.50 C457.04,177.35 452.50,169.37 451.08,166.76 C449.66,164.15 448.16,162.01 447.75,162.01 C447.34,162.00 447.00,201.38 447.00,249.50 C447.00,297.62 447.34,336.99 447.75,336.98 C448.16,336.97 450.98,332.63 454.00,327.33 ZM 115.00 99.00 C122.97,94.41 134.90,87.53 141.50,83.71 C148.10,79.90 156.43,75.10 160.00,73.04 C170.49,67.01 179.70,61.69 192.50,54.26 C199.10,50.44 209.58,44.42 215.79,40.90 L 227.07 34.50 L 189.83 34.24 C168.07,34.08 150.28,34.39 147.04,34.98 C138.69,36.48 126.37,43.01 118.83,49.91 C113.47,54.83 105.33,65.99 103.09,71.50 C102.87,72.05 101.02,75.20 98.99,78.50 C93.72,87.04 74.00,121.60 74.00,122.30 C74.00,122.61 79.96,119.38 87.25,115.11 C94.54,110.84 107.03,103.59 115.00,99.00 ZM 418.46 110.29 C388.43,58.15 387.43,56.57 380.25,49.99 C373.22,43.55 360.54,36.70 352.50,35.01 C349.36,34.35 333.35,34.06 309.54,34.23 L 271.58 34.50 L 276.54 37.07 C279.27,38.49 289.60,44.38 299.50,50.16 C315.54,59.53 352.54,80.90 401.00,108.79 C410.08,114.01 419.05,119.33 420.94,120.62 C422.84,121.90 424.58,122.75 424.82,122.52 C425.05,122.28 422.19,116.78 418.46,110.29 ZM 197.47 414.96 C192.52,407.12 192.50,406.86 196.02,400.63 C197.78,397.51 200.04,394.51 201.04,393.98 C202.16,393.38 221.16,393.00 249.82,393.00 C303.02,393.00 298.54,392.28 303.49,401.65 L 306.21 406.80 L 302.79 412.65 L 299.37 418.50 L 249.70 418.76 L 200.04 419.02 L 197.47 414.96 ZM 222.00 413.11 C218.59,412.17 217.96,408.08 221.10,407.26 L 223.35 406.67 L 221.06 405.83 C219.30,405.17 218.88,404.41 219.25,402.49 C219.51,401.12 219.34,400.00 218.86,400.00 C218.39,400.00 218.00,403.15 218.00,407.00 L 218.00 414.00 L 221.25 413.90 C224.25,413.81 224.30,413.75 222.00,413.11 ZM 231.80 412.80 C233.29,411.31 233.39,401.36 231.92,400.45 C231.19,400.00 230.93,401.81 231.11,406.14 C231.33,411.43 231.09,412.55 229.68,412.82 C228.24,413.10 228.00,412.20 228.00,406.57 C228.00,402.86 227.57,400.00 227.00,400.00 C226.43,400.00 226.00,403.00 226.00,407.00 C226.00,413.64 226.12,414.00 228.30,414.00 C229.57,414.00 231.14,413.46 231.80,412.80 ZM 250.57 408.42 C250.22,407.04 249.53,406.17 249.03,406.48 C248.50,406.81 248.58,408.37 249.24,410.25 C250.48,413.81 251.55,412.33 250.57,408.42 ZM 247.00 402.00 C247.00,400.90 246.55,400.00 246.00,400.00 C245.45,400.00 245.00,400.90 245.00,402.00 C245.00,403.10 245.45,404.00 246.00,404.00 C246.55,404.00 247.00,403.10 247.00,402.00 ZM 97.50 306.67 C95.30,306.02 92.60,304.89 91.50,304.17 C89.61,302.93 89.63,302.89 92.00,303.43 C103.41,306.01 107.21,306.31 113.65,305.12 C117.31,304.45 121.63,303.21 123.24,302.37 C126.68,300.60 128.40,301.51 125.54,303.59 C120.69,307.14 104.93,308.87 97.50,306.67 ZM 132.50 305.00 C132.84,304.45 135.12,304.00 137.56,304.00 L 142.00 304.00 L 142.00 291.00 C142.00,283.00 142.38,278.00 143.00,278.00 C143.62,278.00 144.00,283.33 144.00,292.00 L 144.00 306.00 L 137.94 306.00 C134.16,306.00 132.11,305.62 132.50,305.00 ZM 160.00 305.00 C160.00,304.38 165.67,304.00 175.00,304.00 L 190.00 304.00 L 190.00 301.00 C190.00,299.35 190.45,298.00 191.00,298.00 C191.55,298.00 192.00,299.80 192.00,302.00 L 192.00 306.00 L 176.00 306.00 C166.00,306.00 160.00,305.62 160.00,305.00 ZM 198.57 305.03 C199.11,304.49 206.06,303.93 214.02,303.78 L 228.50 303.50 L 228.82 300.75 C229.30,296.52 231.00,297.49 231.00,302.00 L 231.00 306.00 L 214.30 306.00 C203.50,306.00 197.94,305.66 198.57,305.03 ZM 241.50 305.00 C241.87,304.40 248.34,304.00 257.56,304.00 L 273.00 304.00 L 273.00 301.00 C273.00,299.35 273.45,298.00 274.00,298.00 C274.55,298.00 275.00,299.80 275.00,302.00 L 275.00 306.00 L 257.94 306.00 C246.82,306.00 241.10,305.65 241.50,305.00 ZM 289.50 305.00 C289.89,304.37 300.84,304.00 319.06,304.00 L 348.00 304.00 L 348.00 295.00 C348.00,289.67 348.41,286.00 349.00,286.00 C349.60,286.00 350.00,290.00 350.00,296.00 L 350.00 306.00 L 319.44 306.00 C299.32,306.00 289.09,305.66 289.50,305.00 ZM 364.00 305.00 C364.00,304.36 374.33,304.00 393.00,304.00 L 422.00 304.00 L 422.09 299.75 C422.14,297.41 422.53,293.25 422.95,290.50 C423.62,286.21 423.75,286.95 423.87,295.75 L 424.00 306.00 L 394.00 306.00 C374.67,306.00 364.00,305.64 364.00,305.00 ZM 93.50 300.92 C80.91,296.15 74.99,288.05 75.01,275.64 C75.02,269.60 75.47,267.72 77.93,263.43 C81.17,257.77 85.58,254.01 92.70,250.82 C99.68,247.70 114.65,247.69 120.94,250.80 C126.18,253.40 128.00,253.56 128.00,251.45 C128.00,250.21 128.99,249.95 132.75,250.20 L 137.50 250.50 L 137.50 257.50 L 137.50 264.50 L 132.61 264.81 C128.34,265.08 127.32,264.74 124.61,262.17 C119.61,257.43 115.23,255.71 107.96,255.65 C94.62,255.53 86.00,263.60 86.00,276.22 C86.00,287.65 94.80,295.94 107.00,295.97 C114.44,295.99 119.39,294.47 123.44,290.92 C126.72,288.04 129.44,282.77 128.25,281.59 C127.93,281.26 124.11,281.00 119.77,281.00 L 111.87 281.00 L 112.18 278.25 L 112.50 275.50 L 125.50 275.50 L 138.50 275.50 L 138.50 288.50 L 138.50 301.50 L 134.25 301.81 C131.79,301.99 129.95,301.67 129.88,301.06 C129.81,300.48 129.64,299.55 129.50,299.00 C129.36,298.45 129.19,297.76 129.12,297.47 C129.06,297.19 127.70,297.62 126.12,298.44 C116.50,303.41 102.83,304.45 93.50,300.92 ZM 156.39 300.59 C155.03,297.02 156.41,295.51 161.51,295.00 L 166.50 294.50 L 166.50 276.00 L 166.50 257.50 L 161.50 257.00 C156.68,256.52 156.49,256.38 156.18,253.16 L 155.86 249.83 L 182.18 250.17 C205.12,250.47 208.92,250.74 211.78,252.30 C213.58,253.28 215.42,253.86 215.87,253.58 C216.31,253.31 218.13,254.30 219.91,255.79 C225.89,260.81 225.11,270.94 218.25,277.41 L 214.67 280.79 L 217.84 285.57 C219.58,288.19 221.00,290.93 221.00,291.64 C221.00,294.04 218.51,291.99 216.60,287.99 C215.55,285.82 213.86,283.28 212.85,282.36 C210.50,280.24 210.51,279.29 212.90,278.53 C216.14,277.50 219.95,272.92 221.09,268.66 C222.40,263.81 221.11,258.31 218.01,255.51 C215.58,253.31 215.51,253.71 217.62,257.94 C219.69,262.10 219.04,270.19 216.40,273.12 C215.35,274.27 212.81,276.07 210.75,277.13 C208.69,278.18 207.00,279.39 207.00,279.82 C207.00,280.26 208.61,282.16 210.59,284.05 C212.56,285.95 215.04,289.19 216.11,291.25 C217.85,294.63 218.43,295.00 222.02,295.00 C225.90,295.00 226.00,295.09 226.00,298.50 L 226.00 302.00 L 211.50 302.00 L 197.00 302.00 L 197.00 298.50 C197.00,295.09 197.10,295.00 200.94,295.00 C203.11,295.00 205.13,294.61 205.42,294.12 C206.28,292.74 200.54,285.50 196.73,283.14 C193.93,281.41 191.70,281.00 185.09,281.00 L 176.91 281.00 L 177.20 287.75 L 177.50 294.50 L 182.31 294.81 C187.06,295.11 187.11,295.15 186.81,298.31 L 186.50 301.50 L 171.73 301.78 C159.48,302.01 156.86,301.80 156.39,300.59 ZM 205.08 270.95 C210.16,267.33 209.33,260.87 203.47,258.42 C200.87,257.34 196.90,257.01 188.70,257.22 L 177.50 257.50 L 177.20 264.40 C176.75,274.85 176.10,274.39 190.22,273.57 C199.81,273.01 202.96,272.45 205.08,270.95 ZM 238.39 300.58 C236.98,296.91 238.38,295.51 244.01,295.00 L 249.50 294.50 L 249.50 276.00 L 249.50 257.50 L 244.50 257.00 C239.71,256.52 239.49,256.36 239.19,253.25 L 238.87 250.00 L 254.94 250.00 L 271.00 250.00 L 271.00 253.50 L 271.00 257.00 L 265.55 257.00 C260.18,257.00 260.08,257.05 259.50,260.25 C259.17,262.04 259.04,270.48 259.20,279.00 L 259.50 294.50 L 265.00 295.00 C270.33,295.48 270.50,295.59 270.50,298.50 L 270.50 301.50 L 254.73 301.78 C241.61,302.00 238.86,301.80 238.39,300.58 ZM 286.39 300.57 C285.03,297.02 286.41,295.51 291.51,295.00 L 296.50 294.50 L 296.77 275.80 L 297.04 257.11 L 291.77 256.80 C286.63,256.51 286.49,256.42 286.19,253.25 L 285.87 250.00 L 302.50 250.00 L 319.13 250.00 L 318.81 253.25 C318.51,256.42 318.37,256.51 313.26,256.80 C308.81,257.06 307.93,257.44 307.47,259.30 C307.17,260.51 307.06,268.92 307.21,278.00 L 307.50 294.50 L 321.50 294.50 L 335.50 294.50 L 335.80 288.75 L 336.10 283.00 L 341.09 283.00 L 346.08 283.00 L 345.79 292.25 L 345.50 301.50 L 316.22 301.77 C291.34,301.99 286.86,301.81 286.39,300.57 ZM 361.67 301.33 C361.30,300.97 361.00,299.42 361.00,297.89 C361.00,295.24 361.25,295.09 366.25,294.80 L 371.50 294.50 L 371.50 276.00 L 371.50 257.50 L 366.00 257.00 C360.67,256.52 360.50,256.41 360.50,253.50 L 360.50 250.50 L 376.82 250.22 L 393.13 249.95 L 392.82 253.22 C392.51,256.37 392.30,256.52 387.50,257.00 L 382.50 257.50 L 382.50 276.00 L 382.50 294.50 L 396.00 294.50 L 409.50 294.50 L 409.80 288.75 L 410.10 283.00 L 414.55 283.00 L 419.00 283.00 L 419.00 292.50 L 419.00 302.00 L 390.67 302.00 C375.08,302.00 362.03,301.70 361.67,301.33 ZM 96.68 290.52 C92.79,288.49 90.36,285.26 88.94,280.25 C86.72,272.37 91.35,262.42 98.67,259.36 C102.94,257.58 112.16,257.62 116.53,259.45 C121.21,261.40 120.97,263.11 116.25,261.43 C107.53,258.31 96.82,260.97 93.02,267.19 C90.61,271.15 90.33,278.81 92.45,282.90 C93.25,284.44 95.51,287.12 97.48,288.85 C101.38,292.27 101.11,292.83 96.68,290.52 ZM 180.00 287.50 L 180.00 283.00 L 185.75 283.04 C188.96,283.06 192.60,283.72 194.00,284.55 C196.31,285.91 195.95,285.98 189.25,285.38 L 182.00 284.74 L 182.00 288.37 C182.00,290.37 181.55,292.00 181.00,292.00 C180.45,292.00 180.00,289.98 180.00,287.50 ZM 262.00 276.12 C262.00,258.25 261.62,259.05 270.25,259.01 C273.75,259.00 274.00,258.80 274.00,256.00 C274.00,254.35 274.45,253.00 275.00,253.00 C275.55,253.00 276.00,254.78 276.00,256.95 L 276.00 260.90 L 270.25 261.20 L 264.50 261.50 L 264.22 276.75 C263.85,297.48 262.00,296.95 262.00,276.12 ZM 310.00 276.05 L 310.00 260.10 L 315.25 259.80 C320.37,259.51 320.51,259.42 320.81,256.25 C321.26,251.59 323.25,251.79 323.25,256.50 C323.25,260.68 323.00,260.90 317.75,261.20 L 312.50 261.50 L 312.22 276.75 C311.85,297.52 310.00,296.94 310.00,276.05 ZM 384.00 276.05 L 384.00 260.10 L 389.75 259.80 L 395.50 259.50 L 395.81 255.73 C396.21,250.86 398.00,251.91 398.00,257.01 L 398.00 260.90 L 392.25 261.20 L 386.50 261.50 L 386.22 276.75 C385.85,297.52 384.00,296.94 384.00,276.05 ZM 115.00 284.00 C115.00,283.45 117.47,283.00 120.50,283.00 C123.53,283.00 126.00,283.45 126.00,284.00 C126.00,284.55 123.53,285.00 120.50,285.00 C117.47,285.00 115.00,284.55 115.00,284.00 ZM 135.00 268.09 L 140.50 267.50 L 140.70 261.00 C140.80,257.42 140.92,254.16 140.95,253.75 C140.98,253.34 141.45,253.00 142.00,253.00 C142.58,253.00 143.00,256.33 143.00,261.00 L 143.00 269.00 L 136.25 268.84 L 129.50 268.67 L 135.00 268.09 ZM 158.50 260.00 C158.84,259.45 160.19,259.00 161.50,259.00 C162.81,259.00 164.16,259.45 164.50,260.00 C164.87,260.60 163.66,261.00 161.50,261.00 C159.34,261.00 158.13,260.60 158.50,260.00 ZM 139.67 232.33 C138.27,230.94 139.09,228.44 141.25,227.49 C143.41,226.54 143.51,225.94 143.78,212.25 L 144.05 198.00 L 147.03 198.00 L 150.00 198.00 L 150.00 213.33 C150.00,228.05 149.91,228.74 147.69,230.83 C145.47,232.91 141.07,233.74 139.67,232.33 ZM 165.04 230.81 C163.20,228.84 163.00,227.32 163.00,215.49 C163.00,203.05 163.12,202.23 165.31,200.17 C166.92,198.67 168.90,198.00 171.75,198.00 C175.19,198.00 176.22,198.50 178.01,201.02 C179.99,203.79 180.14,205.06 179.83,216.42 C179.55,226.89 179.21,229.12 177.60,230.90 C174.90,233.87 167.84,233.82 165.04,230.81 ZM 173.39 226.42 C174.33,223.97 174.08,205.67 173.09,204.10 C172.60,203.34 171.48,202.99 170.60,203.32 C169.26,203.84 169.00,205.80 169.00,215.30 C169.00,221.55 169.30,226.97 169.67,227.33 C170.85,228.52 172.77,228.04 173.39,226.42 ZM 193.00 215.50 L 193.00 198.00 L 195.46 198.00 C197.81,198.00 197.92,198.30 198.21,205.25 C198.49,212.33 198.56,212.51 201.25,212.82 L 204.00 213.13 L 204.00 205.57 L 204.00 198.00 L 207.00 198.00 L 210.00 198.00 L 210.00 215.57 L 210.00 233.13 L 207.25 232.82 C204.56,232.51 204.49,232.34 204.20,225.19 C203.91,217.89 203.90,217.88 201.20,218.19 C198.57,218.49 198.49,218.70 198.21,225.75 C197.92,232.70 197.81,233.00 195.46,233.00 L 193.00 233.00 L 193.00 215.50 ZM 222.40 229.82 C222.68,227.99 223.65,221.77 224.54,216.00 C227.39,197.51 226.98,198.54 231.64,198.20 C235.67,197.90 235.73,197.95 236.30,201.70 C236.62,203.79 237.80,210.90 238.94,217.50 C241.63,233.19 241.63,233.21 238.31,232.82 C236.25,232.58 235.43,231.77 234.82,229.42 C234.12,226.70 233.68,226.39 231.07,226.78 C228.75,227.12 228.05,227.78 227.81,229.86 C227.57,231.92 226.88,232.57 224.69,232.82 C222.03,233.13 221.91,232.97 222.40,229.82 ZM 233.00 216.56 C233.00,214.12 232.55,211.84 231.99,211.50 C230.85,210.79 230.39,211.91 229.65,217.25 C229.20,220.47 229.40,221.00 231.06,221.00 C232.69,221.00 233.00,220.29 233.00,216.56 ZM 253.71 232.38 C253.32,231.99 253.00,224.06 253.00,214.77 L 253.00 197.88 L 256.64 198.19 C260.06,198.48 260.36,198.79 261.72,203.50 C262.52,206.25 263.78,209.85 264.52,211.50 C265.79,214.32 265.88,214.01 265.94,206.25 C266.00,198.11 266.03,198.00 268.52,198.00 L 271.05 198.00 L 270.77 215.25 L 270.50 232.50 L 267.53 232.50 C264.68,232.50 264.47,232.19 262.75,225.50 C260.03,214.93 259.59,214.75 259.02,224.00 C258.56,231.59 258.28,232.53 256.46,232.79 C255.34,232.95 254.10,232.77 253.71,232.38 ZM 284.00 215.50 L 284.00 198.00 L 287.38 198.00 C291.04,198.00 291.53,198.72 294.20,208.00 L 295.50 212.50 L 295.79 205.25 C296.08,198.30 296.19,198.00 298.54,198.00 L 301.00 198.00 L 301.00 215.57 L 301.00 233.13 L 298.29 232.82 C295.45,232.48 295.51,232.62 291.83,218.78 C290.12,212.32 289.03,214.62 289.02,224.75 C289.00,232.88 288.96,233.00 286.50,233.00 L 284.00 233.00 L 284.00 215.50 ZM 315.00 215.50 L 315.00 198.00 L 322.50 198.00 C329.83,198.00 330.00,198.06 330.00,200.50 C330.00,202.80 329.63,203.00 325.50,203.00 L 321.00 203.00 L 321.00 208.00 L 321.00 213.00 L 324.50 213.00 C327.57,213.00 328.00,213.31 328.00,215.50 C328.00,217.70 327.57,218.00 324.45,218.00 L 320.89 218.00 L 321.20 222.75 L 321.50 227.50 L 325.75 227.81 C329.51,228.08 330.00,228.40 330.00,230.56 C330.00,232.93 329.79,233.00 322.50,233.00 L 315.00 233.00 L 315.00 215.50 ZM 344.02 230.30 C341.12,226.61 341.63,222.50 345.00,222.50 C346.85,222.50 347.59,223.10 347.83,224.81 C348.22,227.57 350.84,228.86 352.09,226.90 C353.60,224.51 353.15,223.48 348.01,217.60 C342.61,211.43 341.40,208.53 342.47,204.25 C343.59,199.77 345.86,198.00 350.50,198.00 C355.53,198.00 358.00,200.25 358.00,204.83 C358.00,207.52 357.63,208.00 355.57,208.00 C353.81,208.00 353.05,207.38 352.82,205.75 C352.39,202.75 348.62,202.65 348.20,205.63 C348.00,207.04 349.61,209.73 352.95,213.54 C355.73,216.71 358.05,220.25 358.11,221.41 C358.55,230.17 356.67,233.00 350.42,233.00 C346.97,233.00 345.74,232.48 344.02,230.30 ZM 75.67 216.33 C73.66,214.33 77.31,214.00 101.50,214.00 C124.39,214.00 128.00,214.20 128.00,215.50 C128.00,216.79 124.46,217.00 102.17,217.00 C87.96,217.00 76.03,216.70 75.67,216.33 ZM 372.24 216.34 C368.01,214.63 374.98,214.00 398.06,214.00 C420.45,214.00 424.00,214.21 424.00,215.50 C424.00,216.80 420.56,216.99 398.75,216.92 C384.86,216.88 372.93,216.61 372.24,216.34 ZM 276.94 133.39 C272.02,128.57 268.00,123.94 268.00,123.09 C268.00,121.38 251.16,104.00 249.50,104.00 C247.87,104.00 231.00,121.36 231.00,123.04 C231.00,123.87 227.24,128.29 222.64,132.86 C216.11,139.36 213.76,141.10 211.90,140.84 C207.16,140.16 208.45,137.10 217.13,128.37 C221.71,123.77 226.17,120.00 227.04,120.00 C227.92,120.00 232.85,115.70 238.00,110.44 L 247.37 100.89 L 238.24 91.75 C229.87,83.38 228.90,82.70 226.80,83.71 C221.47,86.28 221.00,86.14 214.92,80.35 C207.28,73.05 207.06,70.52 213.52,64.33 C216.13,61.83 218.99,60.00 220.30,60.00 C223.15,60.00 234.01,70.75 233.96,73.53 C233.95,74.61 233.30,76.62 232.52,78.00 C231.16,80.43 231.37,80.76 239.79,89.25 C244.56,94.06 248.93,98.00 249.50,98.00 C250.08,98.00 254.02,94.50 258.27,90.23 C264.47,84.00 266.00,81.86 266.00,79.45 C266.00,77.04 267.53,74.93 273.90,68.60 C278.88,63.65 282.24,61.03 283.00,61.50 C283.81,62.00 281.66,64.81 276.43,70.07 C269.77,76.77 268.84,78.11 269.95,79.44 C270.66,80.30 271.74,81.00 272.35,81.00 C272.96,81.00 276.68,77.79 280.62,73.88 C285.13,69.40 288.24,67.03 289.00,67.50 C289.81,68.00 287.63,70.84 282.38,76.12 C276.02,82.52 273.97,84.00 271.50,84.00 C269.01,84.00 266.92,85.55 260.00,92.50 L 251.54 101.00 L 261.00 110.50 C266.20,115.73 271.15,120.00 272.00,120.00 C274.10,120.00 290.00,136.11 290.00,138.24 C290.00,139.17 289.07,140.43 287.94,141.03 C286.11,142.01 284.87,141.15 276.94,133.39 ZM 218.47 75.97 C215.75,73.21 213.37,71.39 213.19,71.94 C212.80,73.10 220.81,81.00 222.38,81.00 C222.95,81.00 221.20,78.74 218.47,75.97 ZM 180.00 265.63 C180.00,260.95 180.31,260.04 182.07,259.48 C184.44,258.72 202.83,259.92 203.42,260.87 C203.64,261.22 198.90,261.35 192.91,261.16 L 182.00 260.82 L 182.00 265.35 C182.00,267.84 181.55,270.16 181.00,270.50 C180.38,270.88 180.00,269.03 180.00,265.63 Z" fill="rgb(248,248,248)"/>
</g>
</svg>