<svg width="239" height="283" viewBox="0 0 239 283" fill="none" xmlns="http://www.w3.org/2000/svg">
<g filter="url(#filter0_d_18182_4495)">
<rect x="1.00488" y="40.3301" width="202.724" height="233.494" rx="17.4958" fill="#F4F4F0"/>
<rect x="1.00488" y="40.3301" width="202.724" height="233.494" rx="17.4958" stroke="black" stroke-width="2.00909"/>
</g>
<mask id="mask0_18182_4495" style="mask-type:alpha" maskUnits="userSpaceOnUse" x="0" y="39" width="205" height="236">
<rect x="1.00488" y="40.3301" width="202.724" height="233.494" rx="17.4958" fill="#F4F4F0" stroke="black" stroke-width="2.00909"/>
</mask>
<g mask="url(#mask0_18182_4495)">
<rect x="1.60059" y="40.3301" width="202.427" height="116.962" fill="#23A094"/>
</g>
<rect x="143.524" y="95" width="14.7631" height="25.2626" rx="7.38157" fill="#9D5151" stroke="black" stroke-width="2.00909" stroke-miterlimit="10"/>
<path d="M162.175 113.945C162.175 119.003 157.131 123.103 150.908 123.103C144.686 123.103 139.642 119.003 139.642 113.945" stroke="black" stroke-width="2.00909" stroke-miterlimit="10"/>
<line x1="151.192" y1="123.428" x2="151.192" y2="156.901" stroke="black" stroke-width="2.00909" stroke-miterlimit="10"/>
<path d="M143.524 106.153H158.482" stroke="black" stroke-width="2.00909" stroke-miterlimit="10"/>
<path d="M143.524 109.525H158.482" stroke="black" stroke-width="2.00909" stroke-miterlimit="10"/>
<path d="M35.2363 123.224C35.2363 117.121 40.1836 112.174 46.2863 112.174H59.9087C66.0114 112.174 70.9587 117.121 70.9587 123.224V156.703H35.2363V123.224Z" fill="#F1F333" stroke="black" stroke-width="2.00909"/>
<rect x="35.2363" y="146.609" width="6.54909" height="10.0932" fill="#9D5151" stroke="black" stroke-width="2.00909"/>
<rect x="64.4336" y="147.398" width="6.44185" height="10.0002" fill="#9D5151" stroke="black" stroke-width="2.00909"/>
<path d="M40.7806 146.84L40.7806 147.844L42.7897 147.844L42.7897 146.84L41.7852 146.84L40.7806 146.84ZM42.7897 126.722C42.7897 126.167 42.34 125.717 41.7852 125.717C41.2304 125.717 40.7806 126.167 40.7806 126.722L41.7852 126.722L42.7897 126.722ZM41.7852 146.84L42.7897 146.84L42.7897 126.722L41.7852 126.722L40.7806 126.722L40.7806 146.84L41.7852 146.84Z" fill="black"/>
<path d="M66.0094 126.686C66.0094 126.131 65.5597 125.681 65.0049 125.681C64.4501 125.681 64.0003 126.131 64.0003 126.686L65.0049 126.686L66.0094 126.686ZM64.0003 146.803L64.0003 147.808L66.0094 147.808L66.0094 146.803L65.0049 146.803L64.0003 146.803ZM65.0049 126.686L64.0003 126.686L64.0003 146.803L65.0049 146.803L66.0094 146.803L66.0094 126.686L65.0049 126.686Z" fill="black"/>
<ellipse cx="53.1684" cy="116.226" rx="5.97793" ry="5.24916" fill="#9D5151" stroke="black" stroke-width="2.00909"/>
<path d="M69.1399 89.8599C66.1177 87.4829 66.1177 82.5233 69.1399 80.1503C72.7518 77.3073 74.9606 73.5011 74.9606 69.3183C74.9606 60.5233 65.1992 53.3945 53.1648 53.3945C41.1305 53.3945 31.3691 60.5233 31.3691 69.3183C31.3691 73.5011 33.5779 77.3073 37.1898 80.1503C40.212 82.5272 40.212 87.4868 37.1898 89.8599C33.5779 92.7028 31.3691 96.509 31.3691 100.692C31.3691 109.487 41.1305 116.616 53.1648 116.616C65.1992 116.616 74.9606 109.487 74.9606 100.692C74.9606 96.509 72.7518 92.7028 69.1399 89.8599Z" fill="#9D5151" stroke="black" stroke-width="2.00909"/>
<ellipse cx="43.9951" cy="102.152" rx="1.3213" ry="1.31763" fill="black"/>
<ellipse cx="62.3279" cy="102.151" rx="1.32108" ry="1.31741" fill="black"/>
<path d="M48.833 106.406C49.1403 107.019 50.3448 108.318 52.7048 108.613C55.0647 108.907 56.8838 107.264 57.4984 106.406" stroke="black" stroke-width="2.00909"/>
<line y1="-1.00455" x2="12.8082" y2="-1.00455" transform="matrix(0.623902 0.781503 -0.783192 0.62178 74.2275 113.477)" stroke="black" stroke-width="2.00909"/>
<line y1="-1.00455" x2="11.4368" y2="-1.00455" transform="matrix(0.623902 0.781503 -0.783192 0.62178 72.2119 115.957)" stroke="black" stroke-width="2.00909"/>
<path d="M64.8088 129.144C68.0722 133.232 67.3952 139.184 63.2962 142.439C61.8572 143.581 60.1871 144.236 58.4852 144.433C58.3868 147.985 56.7778 151.472 53.7715 153.858C48.3641 158.151 40.4914 157.26 36.1863 151.868C31.8814 146.475 32.7745 138.624 38.1819 134.331C41.1882 131.944 44.9567 131.161 48.4505 131.862C49.0239 130.252 50.0395 128.777 51.478 127.635C55.5771 124.381 61.5454 125.057 64.8088 129.144Z" fill="#9D5151"/>
<path d="M64.8088 129.144L65.5955 128.519L65.5955 128.519L64.8088 129.144ZM63.2962 142.439L63.923 143.224L63.923 143.224L63.2962 142.439ZM58.4852 144.433L58.3691 143.436L57.5038 143.536L57.4797 144.404L58.4852 144.433ZM53.7715 153.858L54.3982 154.643L54.3983 154.643L53.7715 153.858ZM36.1863 151.868L35.3996 152.492L35.3996 152.492L36.1863 151.868ZM38.1819 134.331L37.5551 133.545L37.5551 133.545L38.1819 134.331ZM48.4505 131.862L48.2528 132.845L49.1068 133.016L49.3984 132.198L48.4505 131.862ZM51.478 127.635L50.8513 126.85L50.8513 126.85L51.478 127.635ZM64.8088 129.144L64.022 129.769C66.939 133.422 66.3343 138.744 62.6695 141.654L63.2962 142.439L63.923 143.224C68.456 139.625 69.2053 133.041 65.5955 128.519L64.8088 129.144ZM63.2962 142.439L62.6695 141.654C61.3826 142.675 59.8908 143.261 58.3691 143.436L58.4852 144.433L58.6013 145.429C60.4833 145.212 62.3319 144.487 63.923 143.224L63.2962 142.439ZM58.4852 144.433L57.4797 144.404C57.3891 147.674 55.9091 150.879 53.1448 153.073L53.7715 153.858L54.3983 154.643C57.6464 152.065 59.3845 148.296 59.4907 144.461L58.4852 144.433ZM53.7715 153.858L53.1448 153.073C48.1714 157.021 40.9316 156.201 36.9731 151.243L36.1863 151.868L35.3996 152.492C40.0511 158.318 48.5568 159.281 54.3982 154.643L53.7715 153.858ZM36.1863 151.868L36.9731 151.243C33.0146 146.285 33.8354 139.064 38.8086 135.116L38.1819 134.331L37.5551 133.545C31.7137 138.183 30.7482 146.666 35.3996 152.492L36.1863 151.868ZM38.1819 134.331L38.8086 135.116C41.5732 132.921 45.0372 132.2 48.2528 132.845L48.4505 131.862L48.6483 130.878C44.8762 130.122 40.8033 130.967 37.5551 133.545L38.1819 134.331ZM48.4505 131.862L49.3984 132.198C49.9109 130.759 50.8179 129.442 52.1048 128.42L51.478 127.635L50.8513 126.85C49.2611 128.112 48.1369 129.745 47.5027 131.525L48.4505 131.862ZM51.478 127.635L52.1047 128.42C55.7698 125.511 61.1052 126.115 64.0221 129.769L64.8088 129.144L65.5955 128.519C61.9856 123.998 55.3845 123.251 50.8513 126.85L51.478 127.635Z" fill="black"/>
<path d="M72.8747 120.007L75.5377 123.343L58.2398 138.049L54.6262 133.522L72.8747 120.007Z" fill="#9D5151" stroke="black" stroke-width="2.00909"/>
<path d="M75.537 123.346L72.8741 120.01L78.2391 113.562L83.0409 119.577L75.537 123.346Z" fill="#9D5151" stroke="black" stroke-width="2.00909"/>
<ellipse cx="3.44605" cy="3.4482" rx="3.44605" ry="3.4482" transform="matrix(0.623902 0.781503 -0.783192 0.62178 57.209 130.775)" fill="#9D5151" stroke="black" stroke-width="2.00909"/>
<line y1="-1.00455" x2="9.08316" y2="-1.00455" transform="matrix(0.623902 0.781503 -0.783192 0.62178 41.7617 141.635)" stroke="black" stroke-width="2.00909"/>
<ellipse cx="22.2765" cy="205.609" rx="8.6329" ry="8.60891" fill="#23A094"/>
<mask id="mask1_18182_4495" style="mask-type:alpha" maskUnits="userSpaceOnUse" x="13" y="197" width="18" height="18">
<ellipse cx="22.2745" cy="205.611" rx="8.6329" ry="8.60891" fill="#C4C4C4"/>
</mask>
<g mask="url(#mask1_18182_4495)">
<path d="M18.8438 214.001C18.8438 212.106 20.3795 210.57 22.274 210.57C24.1685 210.57 25.7043 212.106 25.7043 214.001V219.122H18.8438V214.001Z" fill="#F1F333" stroke="black" stroke-width="2.00909"/>
<path d="M19.097 217.23L19.097 218.235L21.1061 218.235L21.1061 217.23L20.1016 217.23L19.097 217.23ZM21.1061 213.367C21.1061 212.812 20.6564 212.362 20.1016 212.362C19.5468 212.362 19.097 212.812 19.097 213.367L20.1016 213.367L21.1061 213.367ZM20.1016 217.23L21.1061 217.23L21.1061 213.367L20.1016 213.367L19.097 213.367L19.097 217.23L20.1016 217.23Z" fill="black"/>
<path d="M25.5661 213.359C25.5661 212.805 25.1163 212.355 24.5615 212.355C24.0067 212.355 23.557 212.805 23.557 213.359L24.5615 213.359L25.5661 213.359ZM23.557 217.223L23.557 218.228L25.5661 218.228L25.5661 217.223L24.5615 217.223L23.557 217.223ZM24.5615 213.359L23.557 213.359L23.557 217.223L24.5615 217.223L25.5661 217.223L25.5661 213.359L24.5615 213.359Z" fill="black"/>
<ellipse cx="22.2877" cy="211.352" rx="1.14808" ry="1.00812" fill="#9D5151" stroke="black" stroke-width="2.00909"/>
<path d="M25.3546 206.286C24.7742 205.83 24.7742 204.877 25.3546 204.422C26.0482 203.876 26.4724 203.145 26.4724 202.341C26.4724 200.652 24.5977 199.283 22.2865 199.283C19.9753 199.283 18.1006 200.652 18.1006 202.341C18.1006 203.145 18.5248 203.876 19.2185 204.422C19.7989 204.878 19.7989 205.831 19.2185 206.286C18.5248 206.832 18.1006 207.563 18.1006 208.367C18.1006 210.056 19.9753 211.425 22.2865 211.425C24.5977 211.425 26.4724 210.056 26.4724 208.367C26.4724 207.563 26.0482 206.832 25.3546 206.286Z" fill="#9D5151" stroke="black" stroke-width="2.00909"/>
<ellipse cx="20.5256" cy="208.648" rx="0.254149" ry="0.253573" fill="black"/>
<ellipse cx="24.0461" cy="208.648" rx="0.254107" ry="0.253532" fill="black"/>
<path d="M21.4551 209.465C21.5141 209.583 21.7454 209.832 22.1987 209.889C22.6519 209.945 23.0013 209.63 23.1193 209.465" stroke="black" stroke-width="2.00909"/>
</g>
<line x1="1.30176" y1="225.669" x2="203.728" y2="225.669" stroke="black" stroke-width="2.00909"/>
<line x1="124.358" y1="226.674" x2="124.358" y2="273.578" stroke="black" stroke-width="2.00909"/>
<rect x="1.00488" y="40.3301" width="202.724" height="233.494" rx="17.4958" stroke="black" stroke-width="2.00909"/>
<line x1="1.30176" y1="156.29" x2="203.728" y2="156.29" stroke="black" stroke-width="2.00909"/>
<rect x="83.165" y="89.0176" width="46.439" height="29.0922" rx="14.5461" fill="#F4F4F0" stroke="black" stroke-width="2.00909"/>
<path d="M111.182 101.173C113.022 102.236 113.022 104.892 111.182 105.955L104.578 109.775C102.737 110.84 100.433 109.511 100.433 107.384L100.433 99.7442C100.433 97.6166 102.737 96.2877 104.578 97.3529L111.182 101.173Z" fill="#9D5151" stroke="black" stroke-width="2.00909"/>
<path d="M18.0381 172.766H19.2422L24.4014 185H22.5732L21.334 181.924H15.9023L14.6719 185H12.8789L18.0381 172.766ZM20.7715 180.518L18.627 175.156L16.4736 180.518H20.7715ZM21.6768 170.313C21.6768 170.636 21.5713 170.882 21.3604 171.052C21.1494 171.222 20.8887 171.307 20.5781 171.307C20.2676 171.307 20.0098 171.222 19.8047 171.052C19.6055 170.882 19.5059 170.636 19.5059 170.313C19.5059 169.991 19.6055 169.748 19.8047 169.584C20.0098 169.42 20.2676 169.338 20.5781 169.338C20.8887 169.338 21.1494 169.42 21.3604 169.584C21.5713 169.748 21.6768 169.991 21.6768 170.313ZM17.5898 170.313C17.5898 170.636 17.4844 170.882 17.2734 171.052C17.0625 171.222 16.8018 171.307 16.4912 171.307C16.1807 171.307 15.9229 171.222 15.7178 171.052C15.5186 170.882 15.4189 170.636 15.4189 170.313C15.4189 169.991 15.5186 169.748 15.7178 169.584C15.9229 169.42 16.1807 169.338 16.4912 169.338C16.8018 169.338 17.0625 169.42 17.2734 169.584C17.4844 169.748 17.5898 169.991 17.5898 170.313ZM31.1689 188.463C30.6592 188.592 30.0029 188.656 29.2002 188.656C28.4033 188.656 27.8203 188.598 27.4512 188.48V186.916C27.9141 187.115 28.4795 187.215 29.1475 187.215C29.8213 187.221 30.3164 187.177 30.6328 187.083C30.9492 186.989 31.1982 186.837 31.3799 186.626C31.708 186.245 31.8721 185.557 31.8721 184.561V184.095C31.4268 184.54 30.8408 184.851 30.1143 185.026C29.8213 185.097 29.5283 185.132 29.2354 185.132C28.9424 185.132 28.6553 185.1 28.374 185.035C28.0986 184.971 27.8232 184.868 27.5479 184.728C27.2725 184.581 27.0088 184.394 26.7568 184.165C26.5049 183.931 26.2822 183.641 26.0889 183.295C25.6553 182.545 25.4385 181.622 25.4385 180.526C25.4268 179.513 25.7197 178.622 26.3174 177.854C26.833 177.187 27.542 176.668 28.4443 176.299C29.2646 175.959 30.1523 175.789 31.1074 175.789C32.0625 175.789 32.9033 175.836 33.6299 175.93V184.561C33.6299 186.752 32.8096 188.053 31.1689 188.463ZM31.8721 177.213C31.4971 177.166 31.1279 177.143 30.7646 177.143C30.4014 177.143 29.9941 177.21 29.543 177.345C29.0918 177.479 28.6963 177.685 28.3564 177.96C27.6123 178.563 27.2402 179.419 27.2402 180.526C27.2402 181.728 27.5303 182.604 28.1104 183.154C28.5439 183.57 29.0742 183.778 29.7012 183.778C30.457 183.778 31.0928 183.512 31.6084 182.979C31.7314 182.844 31.8193 182.724 31.8721 182.618V177.213ZM36.9082 183.383C36.7148 183.049 36.5596 182.656 36.4424 182.205C36.3311 181.754 36.2754 181.165 36.2754 180.438C36.2754 179.712 36.4307 179.044 36.7412 178.435C37.0576 177.819 37.4678 177.315 37.9717 176.923C38.9502 176.167 40.166 175.789 41.6191 175.789C42.375 175.789 42.9463 175.807 43.333 175.842C43.333 175.842 43.6172 175.871 44.1855 175.93V185H42.6035L42.5332 183.954C42.1816 184.423 41.6455 184.771 40.9248 185C40.6494 185.088 40.3652 185.132 40.0723 185.132C39.7852 185.132 39.501 185.103 39.2197 185.044C38.9385 184.985 38.6572 184.889 38.376 184.754C38.1006 184.619 37.8369 184.44 37.585 184.218C37.333 183.989 37.1074 183.711 36.9082 183.383ZM42.4277 177.222C42.0527 177.175 41.6777 177.151 41.3027 177.151C40.9336 177.151 40.5381 177.219 40.1162 177.354C39.6943 177.482 39.334 177.688 39.0352 177.969C38.4141 178.555 38.1035 179.448 38.1035 180.649C38.1035 181.786 38.3701 182.627 38.9033 183.172C39.3076 183.576 39.7939 183.778 40.3623 183.778C41.0947 183.778 41.6982 183.512 42.1729 182.979C42.29 182.844 42.375 182.724 42.4277 182.618V177.222ZM52.7637 177.538C52.4414 177.444 52.0547 177.397 51.6035 177.397C51.1582 177.397 50.792 177.444 50.5049 177.538C50.2178 177.626 49.9658 177.734 49.749 177.863C49.3506 178.098 49.0605 178.361 48.8789 178.654V185H47.1211V175.93H48.8086L48.8789 177.187C49.3184 176.636 49.96 176.223 50.8037 175.947C51.1084 175.842 51.457 175.789 51.8496 175.789C52.2422 175.789 52.5469 175.818 52.7637 175.877V177.538ZM58.7402 185.141C55.4238 185.141 53.7656 183.521 53.7656 180.28C53.7656 178.886 54.2256 177.77 55.1455 176.932C55.9717 176.17 56.915 175.789 57.9756 175.789C59.1299 175.789 60.0322 176.176 60.6826 176.949C61.2861 177.67 61.5879 178.634 61.5879 179.841V180.526H55.5938C55.5938 182.185 56.2705 183.198 57.624 183.567C57.9463 183.655 58.4414 183.699 59.1094 183.699C59.7832 183.699 60.4424 183.608 61.0869 183.427V184.912C60.4424 185.064 59.6602 185.141 58.7402 185.141ZM59.8301 179.234C59.8301 178.672 59.6748 178.197 59.3643 177.811C59.001 177.365 58.5 177.143 57.8613 177.143C57.1875 177.143 56.6396 177.356 56.2178 177.784C55.8311 178.183 55.6377 178.666 55.6377 179.234H59.8301ZM67.6084 177.301C66.7354 177.301 65.959 177.597 65.2793 178.188V185H63.5215V175.93H65.1475L65.2705 176.914C66.2256 176.164 67.2129 175.789 68.2324 175.789C69.3105 175.789 70.1016 176.111 70.6055 176.756C71.1328 177.436 71.3965 178.531 71.3965 180.043V185H69.6387V180.043C69.6387 178.59 69.2461 177.723 68.4609 177.441C68.209 177.348 67.9248 177.301 67.6084 177.301ZM76.2568 185.141C75.5244 185.141 74.7832 185.088 74.0332 184.982V183.427C74.7949 183.608 75.5684 183.699 76.3535 183.699C77.9238 183.699 78.709 183.368 78.709 182.706C78.709 182.454 78.6475 182.267 78.5244 182.144C78.3428 181.95 78.0557 181.757 77.6631 181.563L76.3799 180.975C75.5479 180.559 75.0088 180.225 74.7627 179.973C74.2998 179.504 74.0684 178.947 74.0684 178.303C74.0684 177.576 74.4053 176.984 75.0791 176.527C75.8057 176.035 76.8252 175.789 78.1377 175.789C78.7998 175.789 79.4678 175.836 80.1416 175.93V177.433C79.4033 177.298 78.7588 177.23 78.208 177.23C77.6631 177.23 77.2383 177.266 76.9336 177.336C76.6348 177.406 76.4092 177.494 76.2568 177.6C76.0166 177.764 75.8965 177.978 75.8965 178.241C75.8965 178.499 75.9785 178.71 76.1426 178.874C76.3125 179.032 76.5762 179.205 76.9336 179.393L78.2256 180.017C79.0693 180.456 79.6113 180.793 79.8516 181.027C80.3086 181.473 80.5371 182.032 80.5371 182.706C80.5371 183.427 80.1738 184.007 79.4473 184.446C78.6855 184.909 77.6221 185.141 76.2568 185.141ZM89.4316 183.383C89.2383 183.049 89.083 182.656 88.9658 182.205C88.8545 181.754 88.7988 181.165 88.7988 180.438C88.7988 179.712 88.9541 179.044 89.2646 178.435C89.5811 177.819 89.9912 177.315 90.4951 176.923C91.4736 176.167 92.6895 175.789 94.1426 175.789C94.8984 175.789 95.4697 175.807 95.8564 175.842C95.8564 175.842 96.1406 175.871 96.709 175.93V185H95.127L95.0566 183.954C94.7051 184.423 94.1689 184.771 93.4482 185C93.1729 185.088 92.8887 185.132 92.5957 185.132C92.3086 185.132 92.0244 185.103 91.7432 185.044C91.4619 184.985 91.1807 184.889 90.8994 184.754C90.624 184.619 90.3604 184.44 90.1084 184.218C89.8564 183.989 89.6309 183.711 89.4316 183.383ZM94.9512 177.222C94.5762 177.175 94.2012 177.151 93.8262 177.151C93.457 177.151 93.0615 177.219 92.6396 177.354C92.2178 177.482 91.8574 177.688 91.5586 177.969C90.9375 178.555 90.627 179.448 90.627 180.649C90.627 181.786 90.8936 182.627 91.4268 183.172C91.8311 183.576 92.3174 183.778 92.8857 183.778C93.6182 183.778 94.2217 183.512 94.6963 182.979C94.8135 182.844 94.8984 182.724 94.9512 182.618V177.222ZM99.8994 171.922H101.657V181.563C101.657 182.724 101.921 183.406 102.448 183.611C102.624 183.682 102.812 183.717 103.011 183.717C103.21 183.717 103.389 183.693 103.547 183.646V185L103.222 185.035C103.116 185.047 103.014 185.053 102.914 185.053C101.789 185.053 100.978 184.684 100.479 183.945C100.093 183.365 99.8994 182.574 99.8994 181.572V171.922ZM108.794 183.611C108.987 183.682 109.28 183.717 109.673 183.717C110.065 183.717 110.394 183.67 110.657 183.576V184.982C110.534 185.012 110.355 185.029 110.121 185.035L109.567 185.053C109.444 185.053 109.351 185.053 109.286 185.053C108.155 185.053 107.32 184.684 106.781 183.945C106.348 183.348 106.131 182.557 106.131 181.572V177.274H104.83V176.448L106.131 175.93L106.553 173.68H107.889V175.93H110.701V177.274H107.889V181.563C107.889 182.712 108.19 183.395 108.794 183.611ZM117.275 185.141C113.959 185.141 112.301 183.521 112.301 180.28C112.301 178.886 112.761 177.77 113.681 176.932C114.507 176.17 115.45 175.789 116.511 175.789C117.665 175.789 118.567 176.176 119.218 176.949C119.821 177.67 120.123 178.634 120.123 179.841V180.526H114.129C114.129 182.185 114.806 183.198 116.159 183.567C116.481 183.655 116.977 183.699 117.645 183.699C118.318 183.699 118.978 183.608 119.622 183.427V184.912C118.978 185.064 118.195 185.141 117.275 185.141ZM118.365 179.234C118.365 178.672 118.21 178.197 117.899 177.811C117.536 177.365 117.035 177.143 116.396 177.143C115.723 177.143 115.175 177.356 114.753 177.784C114.366 178.183 114.173 178.666 114.173 179.234H118.365ZM127.822 177.538C127.5 177.444 127.113 177.397 126.662 177.397C126.217 177.397 125.851 177.444 125.563 177.538C125.276 177.626 125.024 177.734 124.808 177.863C124.409 178.098 124.119 178.361 123.938 178.654V185H122.18V175.93H123.867L123.938 177.187C124.377 176.636 125.019 176.223 125.862 175.947C126.167 175.842 126.516 175.789 126.908 175.789C127.301 175.789 127.605 175.818 127.822 175.877V177.538ZM139.793 185.141C136.477 185.141 134.818 183.521 134.818 180.28C134.818 178.886 135.278 177.77 136.198 176.932C137.024 176.17 137.968 175.789 139.028 175.789C140.183 175.789 141.085 176.176 141.735 176.949C142.339 177.67 142.641 178.634 142.641 179.841V180.526H136.646C136.646 182.185 137.323 183.198 138.677 183.567C138.999 183.655 139.494 183.699 140.162 183.699C140.836 183.699 141.495 183.608 142.14 183.427V184.912C141.495 185.064 140.713 185.141 139.793 185.141ZM140.883 179.234C140.883 178.672 140.728 178.197 140.417 177.811C140.054 177.365 139.553 177.143 138.914 177.143C138.24 177.143 137.692 177.356 137.271 177.784C136.884 178.183 136.69 178.666 136.69 179.234H140.883ZM149.733 188.463C149.224 188.592 148.567 188.656 147.765 188.656C146.968 188.656 146.385 188.598 146.016 188.48V186.916C146.479 187.115 147.044 187.215 147.712 187.215C148.386 187.221 148.881 187.177 149.197 187.083C149.514 186.989 149.763 186.837 149.944 186.626C150.272 186.245 150.437 185.557 150.437 184.561V184.095C149.991 184.54 149.405 184.851 148.679 185.026C148.386 185.097 148.093 185.132 147.8 185.132C147.507 185.132 147.22 185.1 146.938 185.035C146.663 184.971 146.388 184.868 146.112 184.728C145.837 184.581 145.573 184.394 145.321 184.165C145.069 183.931 144.847 183.641 144.653 183.295C144.22 182.545 144.003 181.622 144.003 180.526C143.991 179.513 144.284 178.622 144.882 177.854C145.397 177.187 146.106 176.668 147.009 176.299C147.829 175.959 148.717 175.789 149.672 175.789C150.627 175.789 151.468 175.836 152.194 175.93V184.561C152.194 186.752 151.374 188.053 149.733 188.463ZM150.437 177.213C150.062 177.166 149.692 177.143 149.329 177.143C148.966 177.143 148.559 177.21 148.107 177.345C147.656 177.479 147.261 177.685 146.921 177.96C146.177 178.563 145.805 179.419 145.805 180.526C145.805 181.728 146.095 182.604 146.675 183.154C147.108 183.57 147.639 183.778 148.266 183.778C149.021 183.778 149.657 183.512 150.173 182.979C150.296 182.844 150.384 182.724 150.437 182.618V177.213ZM154.479 180.447C154.479 179.023 154.934 177.869 155.842 176.984C156.691 176.158 157.743 175.745 158.997 175.745C160.228 175.745 161.256 176.158 162.082 176.984C162.961 177.863 163.4 179.018 163.4 180.447C163.4 181.871 162.958 183.02 162.073 183.893C161.235 184.725 160.207 185.141 158.988 185.141C157.752 185.141 156.703 184.725 155.842 183.893C154.934 183.02 154.479 181.871 154.479 180.447ZM156.308 180.447C156.308 181.947 156.788 182.967 157.749 183.506C158.089 183.693 158.496 183.787 158.971 183.787C159.445 183.787 159.847 183.693 160.175 183.506C160.503 183.312 160.772 183.061 160.983 182.75C161.376 182.152 161.572 181.385 161.572 180.447C161.572 178.959 161.101 177.939 160.157 177.389C159.829 177.195 159.437 177.099 158.979 177.099C158.522 177.099 158.124 177.195 157.784 177.389C157.45 177.576 157.175 177.825 156.958 178.136C156.524 178.745 156.308 179.516 156.308 180.447Z" fill="black"/>
<rect x="101.034" width="141.223" height="72.4511" rx="36.2256" transform="rotate(13.89 101.034 0)" fill="#FFC900" stroke="black" stroke-width="2" stroke-miterlimit="10"/>
<path d="M194.239 37.8927C193.408 41.4281 191.995 48.9769 190.004 59.2721C188.944 64.5921 187.499 71.0191 186.428 75.913L186.223 76.8511L187.151 77.0934L187.464 77.1749L188.357 77.4089L188.661 76.536C190.207 72.0915 192.378 65.9287 194.178 61.5221L194.182 61.5143L194.185 61.5056C196.006 56.8049 197.487 52.7029 198.809 49.0325C200.013 45.6922 201.084 42.719 202.163 39.9651L206.583 41.1204C205.529 46.9484 204.821 51.0754 203.093 60.8599C202.237 65.4633 200.468 73.7172 199.273 79.2762L199.072 80.2114L199.998 80.4537L200.247 80.5185L201.127 80.7483L201.44 79.8951C203.326 74.7404 205.109 69.4542 207.085 64.439L207.09 64.4283C209.535 57.9982 210.83 53.718 214.888 43.2921L218.756 44.3042C213.313 56.7713 205.657 75.8359 201.771 85.6076L195.86 84.0617C196.637 80.0018 197.93 73.7716 199.285 67.3255L199.287 67.3167C200.843 59.5726 202.472 52.0371 203.591 46.9787L203.798 46.0387L202.867 45.7953L202.618 45.7305L201.686 45.4871L201.408 46.4073C200.128 50.6313 198.171 56.2798 195.534 63.3588L195.531 63.3656C193.167 69.8576 189.89 78.1039 188.251 82.0708L181.906 80.412C183.909 70.771 188.636 47.7565 190.509 36.9162L194.239 37.8927ZM173.353 37.746C175.747 34.3707 178.114 33.2295 180.543 33.8646C181.79 34.1907 182.711 34.8824 183.372 35.9462C184.05 37.0377 184.481 38.5683 184.615 40.5822C184.883 44.6214 183.94 50.3003 181.887 57.4455C179.817 64.6466 177.556 70.0669 175.135 73.4757C172.709 76.8924 170.34 78.0247 167.98 77.4075C166.758 77.0878 165.847 76.3938 165.191 75.312C164.518 74.2016 164.091 72.6421 163.962 70.5951C163.702 66.4916 164.653 60.7317 166.723 53.5292C168.75 46.4738 170.959 41.1208 173.353 37.746ZM179.55 37.147C179.006 37.0048 178.535 37.2228 178.235 37.4304C177.925 37.645 177.64 37.9522 177.378 38.2959C176.849 38.9903 176.264 40.0329 175.628 41.4131C174.35 44.188 172.789 48.508 171.036 54.6085C169.274 60.739 168.27 65.3455 167.85 68.4772C167.641 70.035 167.57 71.2748 167.638 72.1724C167.672 72.6151 167.744 73.0391 167.888 73.3936C168.025 73.7294 168.318 74.2084 168.906 74.3622C169.483 74.5129 169.97 74.2506 170.256 74.0375C170.562 73.8089 170.846 73.4844 171.111 73.1212C171.647 72.3859 172.248 71.2871 172.9 69.8454C174.212 66.9481 175.811 62.4979 177.572 56.3672C179.325 50.267 180.293 45.7912 180.677 42.7812C180.868 41.2848 180.922 40.1002 180.837 39.2405C180.796 38.8156 180.714 38.4047 180.558 38.0598C180.404 37.721 180.102 37.2916 179.55 37.147ZM165.847 30.466C163.39 38.4183 158.561 55.4416 154.757 68.9063L154.479 69.888L155.466 70.146C156.57 70.4347 157.799 70.7143 159.121 70.9797L158.198 74.193C155.709 73.4921 152.716 72.6729 149.495 71.9082C152.602 61.8784 159.337 38.0493 161.703 29.3828L165.847 30.466ZM154.215 27.4243C151.758 35.3767 146.93 52.4 143.125 65.8645L142.848 66.8453L143.834 67.1033C144.938 67.392 146.167 67.6715 147.49 67.937L146.567 71.1513C144.077 70.4503 141.084 69.6312 137.863 68.8664C140.97 58.8369 147.705 35.0078 150.072 26.3411L154.215 27.4243ZM131.516 26.8043C133.91 23.4291 136.278 22.2878 138.706 22.9229C139.953 23.249 140.875 23.9407 141.535 25.0045C142.214 26.096 142.644 27.6266 142.778 29.6405C143.046 33.6797 142.103 39.3586 140.05 46.5038C137.981 53.7048 135.719 59.1252 133.298 62.534C130.872 65.9507 128.504 67.083 126.143 66.4658C124.921 66.1461 124.011 65.4522 123.354 64.3703C122.681 63.2599 122.254 61.7005 122.125 59.6534C121.865 55.5499 122.815 49.7901 124.885 42.5875C126.912 35.5321 129.122 30.1791 131.516 26.8043ZM137.512 26.1687C137.054 26.1179 136.661 26.3071 136.398 26.4887C136.088 26.7033 135.804 27.0105 135.542 27.3542C135.012 28.0487 134.426 29.0911 133.79 30.4714C132.512 33.2463 130.952 37.5664 129.199 43.6668C127.437 49.7973 126.433 54.4038 126.013 57.5355C125.804 59.0933 125.732 60.3331 125.801 61.2307C125.835 61.6734 125.907 62.0974 126.051 62.452C126.189 62.7876 126.48 63.2667 127.068 63.4205C127.646 63.5715 128.133 63.3089 128.419 63.0958C128.725 62.8672 129.009 62.5427 129.274 62.1795C129.811 61.4442 130.411 60.3453 131.064 58.9038C132.376 56.0064 133.974 51.5562 135.736 45.4255C137.489 39.3253 138.456 34.8495 138.84 31.8396C139.031 30.3431 139.084 29.1585 139 28.2988C138.958 27.8739 138.877 27.4631 138.721 27.1181C138.577 26.8006 138.303 26.404 137.814 26.2364L137.713 26.2053L137.512 26.1687ZM127.517 20.4415L126.53 23.8813C125.532 23.5817 124.712 23.3427 124.012 23.1411C123.092 22.8765 122.393 22.6775 121.76 22.4807L120.784 22.177L120.502 23.1596C120.121 24.4875 119.71 25.8566 119.288 27.2695C118.866 28.6805 118.43 30.1341 118.003 31.6223L117.712 32.6331L118.736 32.8723C120.325 33.2429 122.146 33.7045 123.356 33.9919L122.329 37.5629C121.119 37.2011 119.3 36.6904 117.621 36.2513L116.684 36.0058L116.409 36.9349C114.055 44.9037 111.585 53.4938 109.417 61.4534L105.388 60.3995C108.506 49.9648 113.712 31.8466 117.611 17.852L127.517 20.4415Z" fill="#FFC900" stroke="black" stroke-width="2"/>
<path d="M14.2641 248.948V253H12.393V242.967H16.6951C17.0782 242.967 17.4367 243.04 17.7707 243.188C18.1046 243.325 18.3895 243.517 18.6252 243.762C18.8708 244.008 19.0623 244.298 19.1998 244.631C19.3471 244.965 19.4208 245.319 19.4208 245.692V246.134C19.4208 246.508 19.3471 246.861 19.1998 247.195C19.0623 247.519 18.8708 247.809 18.6252 248.064C18.3895 248.31 18.1046 248.501 17.7707 248.639C17.4367 248.776 17.0782 248.845 16.6951 248.845H16.1942L19.5976 253H17.4613L14.2641 248.948ZM14.2641 244.72V247.092H16.4005C16.8228 247.092 17.1322 246.989 17.3287 246.783C17.5251 246.576 17.6233 246.287 17.6233 245.913C17.6233 245.56 17.5251 245.275 17.3287 245.059C17.1322 244.833 16.8228 244.72 16.4005 244.72H14.2641ZM20.6791 248.167C20.6791 247.804 20.7479 247.465 20.8854 247.151C21.0229 246.827 21.2046 246.542 21.4305 246.296C21.6564 246.051 21.9167 245.859 22.2114 245.722C22.5061 245.574 22.8007 245.501 23.0954 245.501H24.775C25.1581 245.501 25.4969 245.584 25.7916 245.751C26.0961 245.908 26.3465 246.115 26.543 246.37C26.7493 246.616 26.9064 246.895 27.0145 247.21C27.1323 247.514 27.1913 247.814 27.1913 248.109V250.009H22.4177V250.407C22.4177 250.761 22.5159 251.011 22.7123 251.158C22.9088 251.306 23.1691 251.379 23.4932 251.379H26.9261V253.029H23.1101C22.7762 253.029 22.4619 252.966 22.1672 252.838C21.8725 252.7 21.6122 252.519 21.3863 252.293C21.1702 252.067 20.9983 251.797 20.8707 251.482C20.743 251.168 20.6791 250.824 20.6791 250.451V248.167ZM22.4324 248.609H25.4822V248.536C25.4822 248.153 25.384 247.838 25.1875 247.593C24.9911 247.337 24.7259 247.21 24.3919 247.21H23.4785C23.3213 247.21 23.1789 247.249 23.0512 247.328C22.9235 247.396 22.8155 247.49 22.7271 247.608C22.6387 247.725 22.565 247.868 22.5061 248.035C22.4569 248.192 22.4324 248.359 22.4324 248.536V248.609ZM33.6866 246.959H30.7546C30.627 246.959 30.5189 246.984 30.4305 247.033C30.3519 247.072 30.2832 247.131 30.2242 247.21C30.1653 247.288 30.1211 247.377 30.0916 247.475C30.0622 247.563 30.0474 247.652 30.0474 247.74C30.0474 247.927 30.1064 248.099 30.2242 248.256C30.3519 248.403 30.5042 248.477 30.681 248.477H32.3311C32.6749 248.477 32.9745 248.536 33.2298 248.654C33.495 248.772 33.7111 248.934 33.8781 249.14C34.0549 249.346 34.1826 249.592 34.2612 249.877C34.3496 250.161 34.3938 250.466 34.3938 250.79V250.834C34.3938 251.158 34.3398 251.453 34.2317 251.718C34.1335 251.983 33.9911 252.209 33.8044 252.396C33.6178 252.583 33.3968 252.73 33.1414 252.838C32.8861 252.946 32.616 253 32.3311 253H28.7656V251.541H31.8302C32.0561 251.541 32.2624 251.478 32.449 251.35C32.6454 251.222 32.7486 251.031 32.7584 250.775V250.79C32.7584 250.643 32.7289 250.52 32.67 250.422C32.6209 250.323 32.5521 250.245 32.4637 250.186C32.3753 250.117 32.2771 250.068 32.169 250.039C32.061 250.009 31.948 249.994 31.8302 249.994H30.5042C30.072 249.994 29.7135 249.926 29.4286 249.788C29.1536 249.651 28.9326 249.474 28.7656 249.258C28.6085 249.042 28.5004 248.796 28.4415 248.521C28.3826 248.246 28.3531 247.966 28.3531 247.681C28.3531 247.387 28.3973 247.102 28.4857 246.827C28.5741 246.552 28.7018 246.311 28.8688 246.105C29.0456 245.889 29.2617 245.722 29.517 245.604C29.7724 245.486 30.0622 245.427 30.3863 245.427H33.6866V246.959ZM35.346 245.501H36.731V242.967H38.4695V245.501H39.8544V247.195H38.4695V253H36.731V247.195H35.346V245.501ZM40.7509 247.873C40.7803 247.558 40.8491 247.259 40.9571 246.974C41.075 246.689 41.242 246.439 41.4581 246.223C41.6742 246.007 41.9443 245.835 42.2684 245.707C42.5925 245.569 42.9658 245.501 43.3881 245.501H44.2721C44.7141 245.501 45.0972 245.574 45.4213 245.722C45.7553 245.869 46.0303 246.066 46.2464 246.311C46.4625 246.547 46.6246 246.822 46.7326 247.136C46.8407 247.441 46.8947 247.75 46.8947 248.064V253H42.7104C42.3863 253 42.0965 252.941 41.8411 252.823C41.5858 252.696 41.3697 252.533 41.1929 252.337C41.0259 252.131 40.8982 251.89 40.8098 251.615C40.7312 251.34 40.6919 251.045 40.6919 250.731C40.6919 250.427 40.7361 250.142 40.8245 249.877C40.9129 249.611 41.0406 249.385 41.2076 249.199C41.3746 249.002 41.5809 248.85 41.8264 248.742C42.0818 248.624 42.3666 248.565 42.6809 248.565H45.2003V248.418C45.2003 248.241 45.1856 248.079 45.1561 247.932C45.1267 247.775 45.0727 247.642 44.9941 247.534C44.9155 247.426 44.7976 247.342 44.6405 247.283C44.4833 247.215 44.2721 247.18 44.0069 247.18H43.6386C43.2457 247.18 42.9658 247.239 42.7988 247.357C42.6318 247.465 42.5189 247.637 42.4599 247.873H40.7509ZM42.2684 250.731C42.2684 250.986 42.3175 251.178 42.4157 251.306C42.5238 251.424 42.6417 251.482 42.7693 251.482H45.2003V249.98H42.7693C42.6417 249.98 42.5238 250.044 42.4157 250.171C42.3175 250.299 42.2684 250.486 42.2684 250.731ZM51.5412 251.32C51.7868 251.32 51.9832 251.291 52.1305 251.232C52.2877 251.173 52.4105 251.094 52.4989 250.996C52.5971 250.898 52.6658 250.78 52.7051 250.643C52.7444 250.505 52.7641 250.358 52.7641 250.201V245.501H54.4879V253H52.7641V252.808C52.6069 252.877 52.435 252.926 52.2484 252.956C52.0716 252.985 51.8801 253 51.6738 253H50.9224C50.4804 253 50.0924 252.926 49.7585 252.779C49.4343 252.632 49.1642 252.44 48.9481 252.204C48.732 251.959 48.5651 251.684 48.4472 251.379C48.3392 251.065 48.2851 250.751 48.2851 250.436V245.501H49.9942V250.083C49.9942 250.26 50.0089 250.422 50.0384 250.569C50.0679 250.716 50.1268 250.849 50.2152 250.967C50.3036 251.075 50.4264 251.163 50.5835 251.232C50.7407 251.291 50.9519 251.32 51.2171 251.32H51.5412ZM57.7292 247.033C57.8667 246.807 58.0484 246.611 58.2743 246.444C58.5101 246.267 58.7654 246.12 59.0405 246.002C59.3253 245.884 59.6249 245.795 59.9392 245.736C60.2535 245.678 60.5678 245.648 60.8821 245.648H61.0737V247.475H60.8821C60.5285 247.475 60.1651 247.549 59.7919 247.696C59.4186 247.834 59.0748 248.02 58.7605 248.256C58.456 248.482 58.2056 248.737 58.0091 249.022C57.8225 249.307 57.7292 249.592 57.7292 249.877V253H55.9023V245.442H57.7292V247.033ZM62.1902 247.873C62.2196 247.558 62.2884 247.259 62.3964 246.974C62.5143 246.689 62.6813 246.439 62.8974 246.223C63.1135 246.007 63.3836 245.835 63.7077 245.707C64.0318 245.569 64.4051 245.501 64.8274 245.501H65.7114C66.1534 245.501 66.5365 245.574 66.8606 245.722C67.1946 245.869 67.4696 246.066 67.6857 246.311C67.9018 246.547 68.0639 246.822 68.1719 247.136C68.28 247.441 68.334 247.75 68.334 248.064V253H64.1497C63.8256 253 63.5358 252.941 63.2804 252.823C63.0251 252.696 62.809 252.533 62.6322 252.337C62.4652 252.131 62.3375 251.89 62.2491 251.615C62.1705 251.34 62.1312 251.045 62.1312 250.731C62.1312 250.427 62.1754 250.142 62.2638 249.877C62.3522 249.611 62.4799 249.385 62.6469 249.199C62.8139 249.002 63.0202 248.85 63.2657 248.742C63.5211 248.624 63.8059 248.565 64.1202 248.565H66.6396V248.418C66.6396 248.241 66.6249 248.079 66.5954 247.932C66.566 247.775 66.512 247.642 66.4334 247.534C66.3548 247.426 66.2369 247.342 66.0798 247.283C65.9226 247.215 65.7114 247.18 65.4462 247.18H65.0779C64.685 247.18 64.4051 247.239 64.2381 247.357C64.0711 247.465 63.9582 247.637 63.8992 247.873H62.1902ZM63.7077 250.731C63.7077 250.986 63.7568 251.178 63.855 251.306C63.9631 251.424 64.081 251.482 64.2086 251.482H66.6396V249.98H64.2086C64.081 249.98 63.9631 250.044 63.855 250.171C63.7568 250.299 63.7077 250.486 63.7077 250.731ZM72.8037 247.18C72.5483 247.18 72.3371 247.215 72.1702 247.283C72.013 247.342 71.8902 247.426 71.8018 247.534C71.7134 247.642 71.6496 247.775 71.6103 247.932C71.5808 248.079 71.5661 248.241 71.5661 248.418V253H69.8423V245.501H71.5661V245.692C71.9099 245.565 72.2782 245.501 72.6711 245.501H73.4372C73.8694 245.501 74.2525 245.574 74.5864 245.722C74.9204 245.869 75.1954 246.066 75.4115 246.311C75.6374 246.547 75.8044 246.822 75.9124 247.136C76.0303 247.441 76.0892 247.75 76.0892 248.064V253H74.3654V248.418C74.3654 248.241 74.3507 248.079 74.3212 247.932C74.2918 247.775 74.2328 247.642 74.1444 247.534C74.0659 247.426 73.948 247.342 73.7908 247.283C73.6337 247.215 73.4225 247.18 73.1573 247.18H72.8037ZM83.4391 245.501V253.015C83.4391 253.417 83.3802 253.771 83.2623 254.076C83.1444 254.39 82.9824 254.655 82.7761 254.871C82.5698 255.097 82.3194 255.264 82.0247 255.372C81.73 255.49 81.4059 255.549 81.0523 255.549H77.6784V253.913H80.7724C81.0769 253.913 81.3273 253.82 81.5238 253.634C81.73 253.447 81.8332 253.187 81.8332 252.853V252.764H79.6379C79.3138 252.764 79.0044 252.71 78.7097 252.602C78.4249 252.484 78.1744 252.312 77.9583 252.087C77.7422 251.861 77.5703 251.586 77.4426 251.261C77.3149 250.928 77.2511 250.544 77.2511 250.112V248.153C77.2511 247.721 77.3149 247.342 77.4426 247.018C77.5703 246.684 77.7422 246.404 77.9583 246.178C78.1744 245.953 78.4249 245.786 78.7097 245.678C79.0044 245.56 79.3138 245.501 79.6379 245.501H83.4391ZM81.8184 247.136H80.0062C79.8589 247.136 79.7214 247.171 79.5937 247.239C79.466 247.298 79.3531 247.387 79.2548 247.504C79.1566 247.613 79.078 247.735 79.0191 247.873C78.9602 248.01 78.9307 248.163 78.9307 248.33V249.921C78.9307 250.088 78.9602 250.245 79.0191 250.392C79.078 250.54 79.1566 250.667 79.2548 250.775C79.3531 250.883 79.466 250.972 79.5937 251.04C79.7214 251.099 79.8589 251.129 80.0062 251.129H81.8184V247.136ZM92.6641 249.552H92.7525C93.0079 248.452 93.2682 247.362 93.5334 246.282C93.8084 245.201 94.0785 244.096 94.3437 242.967H96.1412L93.666 253H91.7507L89.1871 242.967H90.9993L92.6641 249.552ZM100.682 245.501C101.114 245.501 101.497 245.569 101.831 245.707C102.175 245.835 102.464 246.016 102.7 246.252C102.946 246.488 103.132 246.773 103.26 247.107C103.388 247.441 103.452 247.819 103.452 248.241V250.26C103.452 250.672 103.388 251.05 103.26 251.394C103.132 251.728 102.946 252.018 102.7 252.263C102.464 252.499 102.175 252.681 101.831 252.808C101.497 252.936 101.114 253 100.682 253H100.078C99.6553 253 99.2722 252.936 98.9284 252.808C98.5847 252.681 98.29 252.499 98.0444 252.263C97.8087 252.018 97.627 251.728 97.4993 251.394C97.3814 251.05 97.3225 250.672 97.3225 250.26V248.241C97.3225 247.819 97.3814 247.441 97.4993 247.107C97.627 246.773 97.8087 246.488 98.0444 246.252C98.29 246.016 98.5847 245.835 98.9284 245.707C99.2722 245.569 99.6553 245.501 100.078 245.501H100.682ZM100.078 247.195C99.7731 247.195 99.5129 247.298 99.2968 247.504C99.0905 247.701 98.9874 247.961 98.9874 248.285V250.201C98.9874 250.525 99.0905 250.79 99.2968 250.996C99.5129 251.203 99.7731 251.306 100.078 251.306H100.682C100.996 251.306 101.251 251.203 101.448 250.996C101.654 250.79 101.757 250.525 101.757 250.201V248.285C101.757 247.961 101.654 247.701 101.448 247.504C101.251 247.298 100.996 247.195 100.682 247.195H100.078ZM108.455 249.258C108.799 249.877 109.147 250.5 109.501 251.129C109.854 251.757 110.198 252.381 110.532 253H108.764L107.468 250.451L106.171 253H104.403L106.392 249.287L104.403 245.501H106.171L107.468 248.123L108.764 245.501H110.547L108.455 249.258Z" fill="black"/>
<path d="M37.8096 208C37.6389 208 37.5003 207.947 37.3936 207.84C37.2869 207.723 37.2336 207.589 37.2336 207.44C37.2336 207.248 37.3243 207.061 37.5056 206.88L38.8976 205.568C39.2923 205.195 39.6123 204.837 39.8576 204.496C40.1029 204.155 40.2256 203.803 40.2256 203.44C40.2256 203.12 40.1189 202.88 39.9056 202.72C39.7029 202.549 39.4736 202.464 39.2176 202.464C38.9829 202.464 38.7589 202.539 38.5456 202.688C38.3429 202.827 38.2096 203.051 38.1456 203.36C38.1243 203.499 38.0603 203.605 37.9536 203.68C37.8469 203.744 37.7349 203.776 37.6176 203.776C37.4896 203.776 37.3723 203.733 37.2656 203.648C37.1589 203.563 37.1109 203.445 37.1216 203.296C37.1429 202.901 37.2603 202.576 37.4736 202.32C37.6976 202.053 37.9696 201.856 38.2896 201.728C38.6203 201.589 38.9563 201.52 39.2976 201.52C39.6496 201.52 39.9803 201.589 40.2896 201.728C40.5989 201.867 40.8496 202.075 41.0416 202.352C41.2443 202.619 41.3456 202.965 41.3456 203.392C41.3456 203.68 41.2763 204 41.1376 204.352C40.9989 204.693 40.7269 205.072 40.3216 205.488L39.0576 206.736C38.9829 206.811 38.9563 206.88 38.9776 206.944C38.9989 206.997 39.0629 207.024 39.1696 207.024H40.9776C41.1589 207.024 41.2923 207.072 41.3776 207.168C41.4736 207.253 41.5216 207.371 41.5216 207.52C41.5216 207.84 41.3616 208 41.0416 208H37.8096ZM44.7389 208.16C44.2162 208.149 43.7522 208.027 43.3469 207.792C42.9522 207.557 42.6802 207.264 42.5309 206.912C42.4989 206.827 42.4829 206.752 42.4829 206.688C42.4829 206.539 42.5469 206.416 42.6749 206.32C42.8029 206.224 42.9362 206.176 43.0749 206.176C43.2882 206.176 43.4375 206.267 43.5229 206.448C43.7469 206.971 44.1682 207.232 44.7869 207.232C45.1389 207.232 45.4162 207.12 45.6189 206.896C45.8322 206.672 45.9389 206.416 45.9389 206.128C45.9389 205.701 45.7949 205.413 45.5069 205.264C45.2189 205.115 44.8722 205.04 44.4669 205.04C44.2962 205.051 44.1735 205.008 44.0989 204.912C44.0242 204.816 43.9869 204.709 43.9869 204.592C43.9869 204.485 44.0189 204.389 44.0829 204.304C44.1575 204.208 44.2695 204.16 44.4189 204.16C44.8562 204.16 45.1655 204.085 45.3469 203.936C45.5389 203.776 45.6349 203.541 45.6349 203.232C45.6349 202.997 45.5602 202.805 45.4109 202.656C45.2722 202.496 45.0695 202.416 44.8029 202.416C44.4935 202.416 44.2642 202.475 44.1149 202.592C43.9655 202.709 43.8482 202.843 43.7629 202.992C43.6882 203.099 43.6082 203.179 43.5229 203.232C43.4375 203.275 43.3522 203.296 43.2669 203.296C43.1389 203.296 43.0162 203.248 42.8989 203.152C42.7922 203.056 42.7389 202.939 42.7389 202.8C42.7389 202.736 42.7549 202.672 42.7869 202.608C42.9362 202.299 43.1762 202.043 43.5069 201.84C43.8482 201.627 44.2642 201.52 44.7549 201.52C45.4269 201.52 45.9175 201.691 46.2269 202.032C46.5469 202.363 46.7069 202.752 46.7069 203.2C46.7069 203.467 46.6375 203.728 46.4989 203.984C46.3602 204.229 46.1789 204.416 45.9549 204.544C46.2429 204.64 46.4935 204.832 46.7069 205.12C46.9309 205.408 47.0429 205.733 47.0429 206.096C47.0429 206.683 46.8402 207.179 46.4349 207.584C46.0402 207.979 45.4749 208.171 44.7389 208.16ZM48.1641 204.848C48.1641 203.813 48.3561 203.003 48.7401 202.416C49.1241 201.819 49.7054 201.52 50.4841 201.52C51.2628 201.52 51.8441 201.819 52.2281 202.416C52.6121 203.003 52.8041 203.813 52.8041 204.848C52.8041 205.851 52.6068 206.656 52.2121 207.264C51.8174 207.872 51.2414 208.171 50.4841 208.16C49.6948 208.149 49.1081 207.856 48.7241 207.28C48.3508 206.693 48.1641 205.883 48.1641 204.848ZM49.2521 204.848C49.2521 205.605 49.3428 206.176 49.5241 206.56C49.7161 206.944 50.0361 207.141 50.4841 207.152C50.9108 207.163 51.2201 206.965 51.4121 206.56C51.6148 206.144 51.7161 205.573 51.7161 204.848C51.7161 204.08 51.6201 203.504 51.4281 203.12C51.2468 202.736 50.9321 202.544 50.4841 202.544C50.0361 202.544 49.7161 202.741 49.5241 203.136C49.3428 203.52 49.2521 204.091 49.2521 204.848ZM53.9979 204.848C53.9979 203.813 54.1899 203.003 54.5739 202.416C54.9579 201.819 55.5392 201.52 56.3179 201.52C57.0965 201.52 57.6779 201.819 58.0619 202.416C58.4459 203.003 58.6379 203.813 58.6379 204.848C58.6379 205.851 58.4405 206.656 58.0459 207.264C57.6512 207.872 57.0752 208.171 56.3179 208.16C55.5285 208.149 54.9419 207.856 54.5579 207.28C54.1845 206.693 53.9979 205.883 53.9979 204.848ZM55.0859 204.848C55.0859 205.605 55.1765 206.176 55.3579 206.56C55.5499 206.944 55.8699 207.141 56.3179 207.152C56.7445 207.163 57.0539 206.965 57.2459 206.56C57.4485 206.144 57.5499 205.573 57.5499 204.848C57.5499 204.08 57.4539 203.504 57.2619 203.12C57.0805 202.736 56.7659 202.544 56.3179 202.544C55.8699 202.544 55.5499 202.741 55.3579 203.136C55.1765 203.52 55.0859 204.091 55.0859 204.848ZM59.8316 204.848C59.8316 203.813 60.0236 203.003 60.4076 202.416C60.7916 201.819 61.3729 201.52 62.1516 201.52C62.9303 201.52 63.5116 201.819 63.8956 202.416C64.2796 203.003 64.4716 203.813 64.4716 204.848C64.4716 205.851 64.2743 206.656 63.8796 207.264C63.4849 207.872 62.9089 208.171 62.1516 208.16C61.3623 208.149 60.7756 207.856 60.3916 207.28C60.0183 206.693 59.8316 205.883 59.8316 204.848ZM60.9196 204.848C60.9196 205.605 61.0103 206.176 61.1916 206.56C61.3836 206.944 61.7036 207.141 62.1516 207.152C62.5783 207.163 62.8876 206.965 63.0796 206.56C63.2823 206.144 63.3836 205.573 63.3836 204.848C63.3836 204.08 63.2876 203.504 63.0956 203.12C62.9143 202.736 62.5996 202.544 62.1516 202.544C61.7036 202.544 61.3836 202.741 61.1916 203.136C61.0103 203.52 60.9196 204.091 60.9196 204.848ZM71.1565 208.16C70.9965 208.16 70.8471 208.123 70.7085 208.048C70.5698 207.984 70.4685 207.883 70.4045 207.744L68.8205 204.016C68.7991 203.931 68.7885 203.867 68.7885 203.824C68.7885 203.653 68.8471 203.52 68.9645 203.424C69.0818 203.328 69.2098 203.28 69.3485 203.28C69.4445 203.28 69.5351 203.307 69.6205 203.36C69.7165 203.413 69.7858 203.499 69.8285 203.616L70.9485 206.512C71.0018 206.619 71.0711 206.672 71.1565 206.672C71.2631 206.672 71.3325 206.619 71.3645 206.512L72.4685 203.616C72.5111 203.499 72.5751 203.413 72.6605 203.36C72.7565 203.307 72.8525 203.28 72.9485 203.28C73.0978 203.28 73.2258 203.328 73.3325 203.424C73.4498 203.52 73.5085 203.648 73.5085 203.808C73.5085 203.861 73.4978 203.931 73.4765 204.016L71.9085 207.744C71.8445 207.883 71.7431 207.984 71.6045 208.048C71.4658 208.123 71.3165 208.16 71.1565 208.16ZM75.1154 208.16C74.9767 208.16 74.8487 208.117 74.7314 208.032C74.6247 207.947 74.5714 207.824 74.5714 207.664V203.824C74.5714 203.643 74.6247 203.509 74.7314 203.424C74.8487 203.328 74.9767 203.28 75.1154 203.28C75.254 203.28 75.3767 203.328 75.4834 203.424C75.6007 203.509 75.6594 203.643 75.6594 203.824V207.664C75.6594 207.824 75.6007 207.947 75.4834 208.032C75.3767 208.117 75.254 208.16 75.1154 208.16ZM75.1314 202.4C74.9287 202.4 74.7527 202.336 74.6034 202.208C74.4647 202.069 74.3954 201.904 74.3954 201.712C74.3954 201.531 74.4647 201.376 74.6034 201.248C74.7527 201.109 74.9287 201.04 75.1314 201.04C75.3234 201.04 75.4887 201.109 75.6274 201.248C75.766 201.376 75.8354 201.531 75.8354 201.712C75.8354 201.904 75.766 202.069 75.6274 202.208C75.4887 202.336 75.3234 202.4 75.1314 202.4ZM78.8656 208.16C78.5563 208.16 78.2416 208.117 77.9216 208.032C77.6016 207.957 77.3189 207.835 77.0736 207.664C76.9456 207.547 76.8816 207.419 76.8816 207.28C76.8816 207.141 76.9349 207.019 77.0416 206.912C77.1589 206.805 77.2869 206.752 77.4256 206.752C77.5003 206.752 77.5749 206.773 77.6496 206.816C77.8416 206.933 78.0603 207.029 78.3056 207.104C78.5616 207.168 78.8016 207.2 79.0256 207.2C79.2389 207.2 79.4203 207.163 79.5696 207.088C79.7296 207.013 79.8096 206.891 79.8096 206.72C79.8096 206.549 79.7349 206.421 79.5856 206.336C79.4363 206.251 79.1803 206.187 78.8176 206.144C78.6683 206.123 78.4869 206.096 78.2736 206.064C78.0709 206.032 77.8683 205.973 77.6656 205.888C77.4629 205.803 77.2923 205.675 77.1536 205.504C77.0149 205.333 76.9456 205.104 76.9456 204.816C76.9456 204.347 77.1163 203.973 77.4576 203.696C77.8096 203.419 78.2789 203.28 78.8656 203.28C79.2069 203.28 79.5269 203.323 79.8256 203.408C80.1349 203.493 80.3643 203.6 80.5136 203.728C80.6309 203.824 80.6896 203.936 80.6896 204.064C80.6896 204.203 80.6416 204.325 80.5456 204.432C80.4496 204.539 80.3323 204.592 80.1936 204.592C80.1189 204.592 80.0496 204.576 79.9856 204.544C79.8149 204.448 79.6229 204.379 79.4096 204.336C79.2069 204.283 79.0096 204.256 78.8176 204.256C78.5936 204.256 78.4016 204.293 78.2416 204.368C78.0923 204.432 78.0176 204.539 78.0176 204.688C78.0176 204.795 78.0603 204.891 78.1456 204.976C78.2416 205.051 78.4816 205.115 78.8656 205.168C79.0469 205.189 79.2496 205.221 79.4736 205.264C79.7083 205.307 79.9323 205.376 80.1456 205.472C80.3589 205.557 80.5349 205.696 80.6736 205.888C80.8123 206.08 80.8816 206.341 80.8816 206.672C80.8816 207.013 80.7856 207.296 80.5936 207.52C80.4016 207.733 80.1509 207.893 79.8416 208C79.5429 208.107 79.2176 208.16 78.8656 208.16ZM86.0982 208.16C85.9596 208.16 85.8316 208.117 85.7142 208.032C85.6076 207.947 85.5542 207.824 85.5542 207.664V205.648C85.5542 205.179 85.4476 204.832 85.2342 204.608C85.0316 204.384 84.7596 204.272 84.4182 204.272C83.9809 204.272 83.6609 204.416 83.4582 204.704C83.2662 204.981 83.1702 205.291 83.1702 205.632V207.664C83.1702 207.824 83.1116 207.947 82.9942 208.032C82.8876 208.117 82.7649 208.16 82.6262 208.16C82.4876 208.16 82.3596 208.117 82.2422 208.032C82.1356 207.947 82.0822 207.824 82.0822 207.664V203.904C82.0822 203.723 82.1356 203.589 82.2422 203.504C82.3596 203.408 82.4876 203.36 82.6262 203.36C82.7649 203.36 82.8876 203.408 82.9942 203.504C83.1116 203.589 83.1702 203.723 83.1702 203.904C83.3516 203.723 83.5862 203.573 83.8742 203.456C84.1622 203.339 84.4342 203.28 84.6902 203.28C85.2876 203.28 85.7622 203.472 86.1142 203.856C86.4662 204.24 86.6422 204.805 86.6422 205.552V207.664C86.6422 207.824 86.5836 207.947 86.4662 208.032C86.3489 208.117 86.2262 208.16 86.0982 208.16ZM88.6479 208.16C88.5092 208.16 88.3812 208.117 88.2639 208.032C88.1572 207.947 88.1039 207.824 88.1039 207.664V203.824C88.1039 203.643 88.1572 203.509 88.2639 203.424C88.3812 203.328 88.5092 203.28 88.6479 203.28C88.7865 203.28 88.9092 203.328 89.0159 203.424C89.1332 203.509 89.1919 203.643 89.1919 203.824V207.664C89.1919 207.824 89.1332 207.947 89.0159 208.032C88.9092 208.117 88.7865 208.16 88.6479 208.16ZM88.6639 202.4C88.4612 202.4 88.2852 202.336 88.1359 202.208C87.9972 202.069 87.9279 201.904 87.9279 201.712C87.9279 201.531 87.9972 201.376 88.1359 201.248C88.2852 201.109 88.4612 201.04 88.6639 201.04C88.8559 201.04 89.0212 201.109 89.1599 201.248C89.2985 201.376 89.3679 201.531 89.3679 201.712C89.3679 201.904 89.2985 202.069 89.1599 202.208C89.0212 202.336 88.8559 202.4 88.6639 202.4ZM94.7501 208.16C94.6114 208.16 94.4834 208.117 94.3661 208.032C94.2594 207.947 94.2061 207.824 94.2061 207.664V205.648C94.2061 205.179 94.0994 204.832 93.8861 204.608C93.6834 204.384 93.4114 204.272 93.0701 204.272C92.6328 204.272 92.3128 204.416 92.1101 204.704C91.9181 204.981 91.8221 205.291 91.8221 205.632V207.664C91.8221 207.824 91.7634 207.947 91.6461 208.032C91.5394 208.117 91.4168 208.16 91.2781 208.16C91.1394 208.16 91.0114 208.117 90.8941 208.032C90.7874 207.947 90.7341 207.824 90.7341 207.664V203.904C90.7341 203.723 90.7874 203.589 90.8941 203.504C91.0114 203.408 91.1394 203.36 91.2781 203.36C91.4168 203.36 91.5394 203.408 91.6461 203.504C91.7634 203.589 91.8221 203.723 91.8221 203.904C92.0034 203.723 92.2381 203.573 92.5261 203.456C92.8141 203.339 93.0861 203.28 93.3421 203.28C93.9394 203.28 94.4141 203.472 94.7661 203.856C95.1181 204.24 95.2941 204.805 95.2941 205.552V207.664C95.2941 207.824 95.2354 207.947 95.1181 208.032C95.0008 208.117 94.8781 208.16 94.7501 208.16ZM98.7077 210.24C98.4837 210.24 98.2331 210.219 97.9557 210.176C97.6784 210.133 97.4064 210.043 97.1397 209.904C96.9371 209.797 96.8357 209.632 96.8357 209.408C96.8357 209.28 96.8784 209.163 96.9637 209.056C97.0597 208.949 97.1771 208.896 97.3157 208.896C97.4117 208.896 97.5077 208.923 97.6037 208.976C97.8064 209.083 98.0091 209.157 98.2117 209.2C98.4144 209.243 98.6117 209.264 98.8037 209.264C99.1877 209.264 99.5184 209.163 99.7957 208.96C100.073 208.768 100.212 208.459 100.212 208.032V207.584C100.03 207.765 99.8171 207.904 99.5717 208C99.3371 208.107 99.0704 208.16 98.7717 208.16C98.3344 208.16 97.9344 208.053 97.5717 207.84C97.2197 207.627 96.9371 207.333 96.7237 206.96C96.5211 206.587 96.4197 206.165 96.4197 205.696C96.4197 205.227 96.5211 204.805 96.7237 204.432C96.9264 204.059 97.2037 203.765 97.5557 203.552C97.9077 203.339 98.3077 203.248 98.7557 203.28C99.0651 203.301 99.3371 203.365 99.5717 203.472C99.8171 203.568 100.03 203.701 100.212 203.872C100.212 203.723 100.26 203.6 100.356 203.504C100.462 203.408 100.596 203.36 100.756 203.36C100.916 203.36 101.044 203.408 101.14 203.504C101.246 203.6 101.3 203.723 101.3 203.872V208.064C101.3 208.555 101.182 208.96 100.948 209.28C100.724 209.611 100.414 209.851 100.02 210C99.6251 210.16 99.1877 210.24 98.7077 210.24ZM98.8997 207.168C99.3051 207.168 99.6251 207.035 99.8597 206.768C100.094 206.491 100.212 206.128 100.212 205.68C100.212 205.253 100.094 204.912 99.8597 204.656C99.6251 204.4 99.3051 204.272 98.8997 204.272C98.4837 204.272 98.1477 204.4 97.8917 204.656C97.6357 204.912 97.5077 205.259 97.5077 205.696C97.5077 206.123 97.6304 206.475 97.8757 206.752C98.1317 207.029 98.4731 207.168 98.8997 207.168ZM104.887 208.16C104.429 208.16 104.018 208.053 103.655 207.84C103.293 207.627 103.01 207.333 102.807 206.96C102.605 206.576 102.503 206.149 102.503 205.68C102.503 205.221 102.605 204.811 102.807 204.448C103.01 204.085 103.293 203.803 103.655 203.6C104.018 203.387 104.429 203.28 104.887 203.28C105.186 203.28 105.453 203.333 105.687 203.44C105.922 203.536 106.125 203.664 106.295 203.824C106.317 203.675 106.381 203.563 106.487 203.488C106.594 203.403 106.711 203.36 106.839 203.36C106.978 203.36 107.101 203.408 107.207 203.504C107.325 203.589 107.383 203.723 107.383 203.904V207.664C107.383 207.824 107.325 207.947 107.207 208.032C107.101 208.117 106.978 208.16 106.839 208.16C106.701 208.16 106.573 208.117 106.455 208.032C106.349 207.947 106.295 207.824 106.295 207.664V207.6C106.125 207.771 105.922 207.904 105.687 208C105.453 208.107 105.186 208.16 104.887 208.16ZM104.983 207.168C105.389 207.168 105.709 207.035 105.943 206.768C106.178 206.491 106.295 206.128 106.295 205.68C106.295 205.253 106.178 204.912 105.943 204.656C105.709 204.4 105.389 204.272 104.983 204.272C104.567 204.272 104.231 204.4 103.975 204.656C103.719 204.912 103.591 205.253 103.591 205.68C103.591 206.128 103.719 206.491 103.975 206.768C104.231 207.035 104.567 207.168 104.983 207.168ZM109.917 205.632V207.664C109.917 207.824 109.858 207.947 109.741 208.032C109.634 208.117 109.512 208.16 109.373 208.16C109.234 208.16 109.106 208.117 108.989 208.032C108.882 207.947 108.829 207.824 108.829 207.664V203.904C108.829 203.723 108.882 203.589 108.989 203.504C109.106 203.408 109.234 203.36 109.373 203.36C109.512 203.36 109.634 203.408 109.741 203.504C109.858 203.589 109.917 203.723 109.917 203.904V203.968C110.066 203.765 110.258 203.6 110.493 203.472C110.738 203.344 110.994 203.28 111.261 203.28C111.389 203.28 111.517 203.296 111.645 203.328C111.773 203.36 111.869 203.424 111.933 203.52C111.997 203.616 112.029 203.723 112.029 203.84C112.029 203.979 111.981 204.107 111.885 204.224C111.8 204.331 111.672 204.384 111.501 204.384C111.426 204.384 111.346 204.373 111.261 204.352C111.186 204.331 111.09 204.32 110.973 204.32C110.664 204.32 110.408 204.437 110.205 204.672C110.013 204.907 109.917 205.227 109.917 205.632Z" fill="black"/>
<g clip-path="url(#clip0_18182_4495)">
<path d="M163.94 236.59C165.336 236.701 166.719 236.844 168.103 236.964C167.985 238.698 168.539 240.321 169.546 241.58L169.544 241.578C170.643 242.775 172.14 243.625 173.852 243.908L173.876 243.912L173.469 248.2C171.845 248.005 170.349 247.484 169.03 246.708L169.097 246.743C168.46 246.359 167.926 245.976 167.425 245.557L167.466 245.59C167.161 248.696 166.887 251.806 166.561 254.899C166.324 256.469 165.663 257.858 164.707 258.98L164.727 258.955C163.129 260.837 160.724 261.943 158.125 261.775L158.114 261.774C158.008 261.769 157.885 261.76 157.76 261.749C156.287 261.609 154.949 261.068 153.843 260.243L153.875 260.266C151.861 258.778 150.597 256.44 150.567 253.857L150.567 253.821C150.596 253.287 150.636 252.754 150.707 252.235C151.511 248.204 155.219 245.38 159.364 245.773C159.83 245.817 160.283 245.901 160.719 246.018L160.672 246.007C160.544 247.584 160.33 249.153 160.181 250.728C159.833 250.563 159.425 250.448 158.991 250.407C157.401 250.256 155.951 251.144 155.315 252.516L155.305 252.541C155.157 252.894 155.052 253.306 155.011 253.739C154.995 253.914 154.989 254.089 154.993 254.261L154.994 254.241C155.111 256.01 156.48 257.466 158.281 257.637C158.333 257.642 158.384 257.646 158.435 257.649L158.428 257.648C159.677 257.729 160.822 257.161 161.528 256.229L161.538 256.214C161.795 255.919 161.988 255.551 162.079 255.139L162.081 255.127C162.368 253.232 162.505 251.334 162.696 249.43C163.114 245.142 163.499 240.862 163.937 236.587L163.94 236.59Z" fill="black"/>
</g>
<defs>
<filter id="filter0_d_18182_4495" x="0" y="39.3252" width="212.1" height="242.871" filterUnits="userSpaceOnUse" color-interpolation-filters="sRGB">
<feFlood flood-opacity="0" result="BackgroundImageFix"/>
<feColorMatrix in="SourceAlpha" type="matrix" values="0 0 0 0 0 0 0 0 0 0 0 0 0 0 0 0 0 0 127 0" result="hardAlpha"/>
<feOffset dx="7.36667" dy="7.36667"/>
<feColorMatrix type="matrix" values="0 0 0 0 0 0 0 0 0 0 0 0 0 0 0 0 0 0 1 0"/>
<feBlend mode="normal" in2="BackgroundImageFix" result="effect1_dropShadow_18182_4495"/>
<feBlend mode="normal" in="SourceGraphic" in2="effect1_dropShadow_18182_4495" result="shape"/>
</filter>
<clipPath id="clip0_18182_4495">
<rect width="27.3738" height="27.3738" fill="white" transform="translate(149.839 234.368) rotate(5.42164)"/>
</clipPath>
</defs>
</svg>
