<svg width="662" height="798" viewBox="0 0 662 798" fill="none" xmlns="http://www.w3.org/2000/svg">
<g clip-path="url(#clip0_18182_4575)">
<rect width="660" height="796.4" transform="translate(1 0.607422)" fill="#EDDDD0"/>
<path d="M329.499 -4.96484C411.034 -4.96484 490.594 9.41099 557.464 36.2109C624.344 63.0149 675.251 100.931 703.425 144.785C731.577 188.605 735.705 236.276 715.309 281.447C694.893 326.661 650.843 367.289 588.957 397.791L587.302 398.607L588.957 399.424C650.843 429.926 694.893 470.554 715.309 515.768C735.705 560.939 731.577 608.611 703.425 652.431C675.251 696.285 624.344 734.2 557.464 761.004C490.594 787.804 411.034 802.181 329.499 802.181C247.964 802.181 168.405 787.804 101.535 761.004C34.6555 734.2 -16.2515 696.285 -44.4258 652.431C-72.5778 608.611 -76.7067 560.939 -56.3105 515.768C-35.8952 470.554 8.15492 429.926 70.041 399.424L71.6973 398.607L70.041 397.791C8.15502 367.289 -35.8952 326.661 -56.3105 281.447C-76.7065 236.276 -72.5777 188.605 -44.4258 144.785C-16.2515 100.931 34.6554 63.0149 101.535 36.2109C168.405 9.41112 247.964 -4.96481 329.499 -4.96484Z" fill="#F8C813" stroke="black" stroke-width="1.81994"/>
<g filter="url(#filter0_d_18182_4575)">
<rect x="102.917" y="203.924" width="451.346" height="381.21" rx="18.1994" fill="white"/>
<rect x="102.917" y="203.924" width="451.346" height="381.21" rx="18.1994" stroke="black" stroke-width="1.81994"/>
<path d="M102.917 222.123C102.917 212.072 111.065 203.924 121.116 203.924H536.064C546.115 203.924 554.263 212.072 554.263 222.123V239.44H102.917V222.123Z" fill="white" stroke="black" stroke-width="1.69044"/>
<circle cx="136.152" cy="221.346" r="4.10212" fill="#FFC900"/>
<circle cx="123.297" cy="221.346" r="4.10212" fill="#DC341E"/>
<circle cx="148.457" cy="221.346" r="4.10212" fill="#23A094"/>
<path d="M144.794 294.009H147.31V273.633H145.083C144.389 276.486 142.221 278.116 139.329 278.407L139.821 280.998C141.787 280.852 143.956 279.513 144.794 277.621V294.009Z" fill="black"/>
<path d="M157.922 294.3C162.693 294.3 165.122 291.39 165.122 288.188C165.122 285.713 163.734 283.53 161.161 282.686C162.983 281.842 163.995 280.474 163.995 278.523C163.995 275.671 161.653 273.342 157.922 273.342C154.192 273.342 151.85 275.671 151.85 278.523C151.85 280.474 152.862 281.842 154.684 282.686C152.11 283.53 150.722 285.713 150.722 288.188C150.722 291.39 153.122 294.3 157.922 294.3ZM157.922 281.754C155.754 281.754 154.279 280.532 154.279 278.64C154.279 276.835 155.754 275.612 157.922 275.612C160.091 275.612 161.566 276.835 161.566 278.64C161.566 280.532 160.091 281.754 157.922 281.754ZM157.922 291.943C154.944 291.943 153.209 290.254 153.209 287.896C153.209 285.539 155.089 283.879 157.922 283.879C160.756 283.879 162.636 285.539 162.636 287.896C162.636 290.254 160.901 291.943 157.922 291.943Z" fill="black"/>
<path d="M168.709 297.27C170.097 297.27 171.253 296.717 171.253 294.766V290.953H168.246V294.009H168.767C169.403 294.009 169.808 294.33 169.808 294.912C169.808 295.581 169.345 295.872 168.68 295.872C168.131 295.872 167.784 295.727 167.552 295.61L167.292 297.008C167.639 297.153 168.073 297.27 168.709 297.27Z" fill="black"/>
<path d="M188.294 273.633H175.6C175.6 277.126 175.34 280.561 174.733 284.578L177.393 285.189C178.058 283.734 179.909 282.482 181.962 282.482C185.171 282.482 186.704 284.549 186.704 287.169C186.704 289.789 185.056 291.943 181.788 291.943C178.954 291.943 177.335 290.283 176.93 287.605L174.501 288.304C175.022 292.292 178.116 294.3 181.788 294.3C186.415 294.3 189.219 291.186 189.219 286.878C189.219 282.628 186.212 280.212 182.54 280.212C180.198 280.212 178.318 281.26 177.219 282.54C177.653 280.328 177.942 277.854 177.942 275.991H188.294V273.633Z" fill="black"/>
<path d="M200.546 294.009H203.061V288.799H206.502V286.528H203.061V279.92H200.546V286.528H194.098C197.452 283.181 198.29 279.571 198.29 274.943V273.633H195.775V274.943C195.775 279.891 195.052 282.657 191.437 286.15V288.799H200.546V294.009Z" fill="black"/>
<path d="M215.298 294.3C221.081 294.3 223.076 289.061 223.076 283.763C223.076 278.116 220.995 273.342 215.298 273.342C211.51 273.342 208.561 276.107 208.561 280.212C208.561 283.763 211.077 286.732 215.24 286.732C217.872 286.732 219.867 285.131 220.734 282.861C220.734 283.21 220.763 283.53 220.763 283.908C220.734 289.265 218.537 291.943 215.443 291.943C212.696 291.943 210.99 290.429 210.701 287.547L208.243 288.275C208.619 291.506 211.134 294.3 215.298 294.3ZM215.443 284.462C212.985 284.462 211.077 282.861 211.077 280.124C211.077 277.475 212.869 275.612 215.443 275.612C218.045 275.612 219.838 277.475 219.838 280.037C219.838 282.715 217.93 284.462 215.443 284.462Z" fill="black"/>
<path d="M288.464 293.988H291.109V288.783H294.726V286.515H291.109V279.914H288.464V286.515H281.686C285.212 283.17 286.093 279.565 286.093 274.941V273.633H283.449V274.941C283.449 279.885 282.689 282.647 278.89 286.137V288.783H288.464V293.988Z" fill="black"/>
<path d="M304.272 294.279C309.287 294.279 311.841 291.371 311.841 288.172C311.841 285.7 310.382 283.519 307.676 282.676C309.591 281.833 310.655 280.466 310.655 278.518C310.655 275.668 308.193 273.342 304.272 273.342C300.351 273.342 297.889 275.668 297.889 278.518C297.889 280.466 298.953 281.833 300.868 282.676C298.163 283.519 296.704 285.7 296.704 288.172C296.704 291.371 299.226 294.279 304.272 294.279ZM304.272 281.746C301.992 281.746 300.442 280.524 300.442 278.634C300.442 276.831 301.992 275.61 304.272 275.61C306.552 275.61 308.102 276.831 308.102 278.634C308.102 280.524 306.552 281.746 304.272 281.746ZM304.272 291.923C301.141 291.923 299.318 290.237 299.318 287.881C299.318 285.526 301.293 283.868 304.272 283.868C307.251 283.868 309.227 285.526 309.227 287.881C309.227 290.237 307.403 291.923 304.272 291.923Z" fill="black"/>
<path d="M319.116 293.988H321.76V273.633H319.42C318.69 276.482 316.411 278.111 313.371 278.402L313.888 280.99C315.955 280.844 318.234 279.507 319.116 277.616V293.988Z" fill="black"/>
<path d="M413.462 288.13C413.462 285.142 411.557 283.249 407.111 282.361V275.617C408.814 276.061 409.911 277.274 410.46 279.167L412.798 277.865C411.846 275.144 409.767 273.487 407.111 273.073V270.352H404.715V273.014C401.193 273.398 398.941 275.735 398.941 278.457C398.941 281.77 401.164 283.574 404.715 284.432V291.65C402.088 291.206 400.471 289.343 399.692 286.532L397.324 287.864C398.537 291.946 401.626 293.78 404.715 294.164V296.856H407.111V294.194C410.922 293.809 413.462 291.443 413.462 288.13ZM401.51 278.427C401.51 276.83 402.752 275.706 404.715 275.499V281.829C402.723 281.208 401.51 280.261 401.51 278.427ZM407.111 291.709V284.935C409.998 285.615 410.893 286.71 410.893 288.366C410.893 290.112 409.536 291.413 407.111 291.709Z" fill="black"/>
<path d="M416.062 293.957H429.861V291.561H419.18C419.526 289.254 422.182 287.982 424.896 286.532C427.898 284.965 429.832 283.042 429.832 279.463C429.832 275.706 427.292 272.955 422.788 272.955C418.4 272.955 415.629 276.002 415.629 279.61C415.629 281.119 416.091 282.657 417.159 284.077L419.295 282.657C418.573 281.74 418.169 280.646 418.169 279.433C418.169 277.214 419.988 275.262 422.673 275.262C425.56 275.262 427.321 277.066 427.321 279.581C427.321 282.598 425.156 283.841 421.662 285.645C418.631 287.183 416.062 289.402 416.062 293.957Z" fill="black"/>
<path d="M440.516 294.253C445.481 294.253 448.628 290.112 448.628 283.604C448.628 277.096 445.481 272.955 440.516 272.955C435.579 272.955 432.432 277.096 432.432 283.604C432.432 290.112 435.579 294.253 440.516 294.253ZM440.516 291.946C436.849 291.946 434.915 288.307 434.915 283.604C434.915 278.9 436.849 275.262 440.516 275.262C444.211 275.262 446.116 278.9 446.116 283.604C446.116 288.307 444.211 291.946 440.516 291.946Z" fill="black"/>
<path d="M453.19 296.856C454.576 296.856 455.731 296.294 455.731 294.312V290.437H452.728V293.543H453.248C453.883 293.543 454.287 293.869 454.287 294.46C454.287 295.141 453.825 295.436 453.161 295.436C452.613 295.436 452.266 295.288 452.035 295.17L451.775 296.59C452.122 296.738 452.555 296.856 453.19 296.856Z" fill="black"/>
<path d="M466.913 293.839C471.878 293.839 475.025 289.698 475.025 283.19C475.025 276.682 471.878 272.541 466.913 272.541C461.976 272.541 458.829 276.682 458.829 283.19C458.829 289.698 461.976 293.839 466.913 293.839ZM466.913 291.532C463.246 291.532 461.312 287.893 461.312 283.19C461.312 278.486 463.246 274.848 466.913 274.848C470.608 274.848 472.513 278.486 472.513 283.19C472.513 287.893 470.608 291.532 466.913 291.532Z" fill="black"/>
<path d="M484.569 293.839C489.333 293.839 491.758 290.881 491.758 287.627C491.758 285.113 490.372 282.894 487.802 282.036C489.621 281.178 490.632 279.788 490.632 277.806C490.632 274.907 488.293 272.541 484.569 272.541C480.845 272.541 478.506 274.907 478.506 277.806C478.506 279.788 479.517 281.178 481.336 282.036C478.766 282.894 477.381 285.113 477.381 287.627C477.381 290.881 479.777 293.839 484.569 293.839ZM484.569 281.09C482.404 281.09 480.932 279.847 480.932 277.924C480.932 276.09 482.404 274.848 484.569 274.848C486.734 274.848 488.207 276.09 488.207 277.924C488.207 279.847 486.734 281.09 484.569 281.09ZM484.569 291.443C481.596 291.443 479.863 289.727 479.863 287.331C479.863 284.935 481.74 283.249 484.569 283.249C487.398 283.249 489.275 284.935 489.275 287.331C489.275 289.727 487.543 291.443 484.569 291.443Z" fill="black"/>
<path d="M501.054 293.839C505.096 293.839 508.214 291.029 508.214 286.68C508.214 282.569 505.24 280.291 502.18 280.291C501.805 280.291 501.401 280.32 501.112 280.38L507.435 274.789V272.836H494.472V275.232H503.624L496.811 281.385L498.254 283.219C498.889 282.628 499.986 282.184 501.141 282.184C503.826 282.184 505.731 283.9 505.731 286.858C505.731 289.727 503.595 291.443 501.054 291.443C498.167 291.443 496.349 289.52 496.002 286.769L493.606 287.864C494.299 291.265 496.955 293.839 501.054 293.839Z" fill="black"/>
<path d="M422.818 318.189C422.818 319.11 422.652 319.905 422.319 320.575C421.987 321.246 421.531 321.763 420.951 322.127C420.372 322.49 419.71 322.672 418.965 322.672C418.221 322.672 417.559 322.49 416.98 322.127C416.4 321.763 415.944 321.246 415.612 320.575C415.279 319.905 415.113 319.11 415.113 318.189C415.113 317.269 415.279 316.473 415.612 315.803C415.944 315.132 416.4 314.615 416.98 314.252C417.559 313.888 418.221 313.706 418.965 313.706C419.71 313.706 420.372 313.888 420.951 314.252C421.531 314.615 421.987 315.132 422.319 315.803C422.652 316.473 422.818 317.269 422.818 318.189ZM421.795 318.189C421.795 317.433 421.669 316.796 421.416 316.276C421.166 315.756 420.826 315.362 420.397 315.095C419.971 314.828 419.494 314.695 418.965 314.695C418.437 314.695 417.958 314.828 417.529 315.095C417.103 315.362 416.764 315.756 416.511 316.276C416.261 316.796 416.136 317.433 416.136 318.189C416.136 318.945 416.261 319.583 416.511 320.102C416.764 320.622 417.103 321.016 417.529 321.283C417.958 321.55 418.437 321.683 418.965 321.683C419.494 321.683 419.971 321.55 420.397 321.283C420.826 321.016 421.166 320.622 421.416 320.102C421.669 319.583 421.795 318.945 421.795 318.189ZM417.738 312.735C417.559 312.735 417.4 312.666 417.261 312.53C417.125 312.391 417.056 312.232 417.056 312.053C417.056 311.857 417.125 311.695 417.261 311.567C417.4 311.436 417.559 311.371 417.738 311.371C417.934 311.371 418.096 311.436 418.224 311.567C418.355 311.695 418.42 311.857 418.42 312.053C418.42 312.232 418.355 312.391 418.224 312.53C418.096 312.666 417.934 312.735 417.738 312.735ZM420.193 312.735C420.014 312.735 419.855 312.666 419.715 312.53C419.579 312.391 419.511 312.232 419.511 312.053C419.511 311.857 419.579 311.695 419.715 311.567C419.855 311.436 420.014 311.371 420.193 311.371C420.389 311.371 420.551 311.436 420.679 311.567C420.809 311.695 420.875 311.857 420.875 312.053C420.875 312.232 420.809 312.391 420.679 312.53C420.551 312.666 420.389 312.735 420.193 312.735ZM425.636 320.166L425.619 318.922H425.823L428.687 316.007H429.931L426.88 319.093H426.795L425.636 320.166ZM424.698 322.553V313.825H425.704V322.553H424.698ZM428.857 322.553L426.301 319.314L427.017 318.615L430.136 322.553H428.857ZM433.392 322.706C432.977 322.706 432.601 322.628 432.263 322.472C431.924 322.313 431.656 322.084 431.457 321.786C431.258 321.485 431.159 321.121 431.159 320.695C431.159 320.32 431.233 320.016 431.38 319.783C431.528 319.547 431.726 319.362 431.973 319.229C432.22 319.095 432.493 318.996 432.791 318.931C433.092 318.862 433.395 318.808 433.699 318.769C434.096 318.718 434.419 318.679 434.666 318.654C434.916 318.625 435.098 318.578 435.211 318.513C435.328 318.448 435.386 318.334 435.386 318.172V318.138C435.386 317.718 435.271 317.391 435.041 317.158C434.814 316.925 434.469 316.808 434.005 316.808C433.525 316.808 433.149 316.914 432.876 317.124C432.603 317.334 432.412 317.558 432.301 317.797L431.346 317.456C431.517 317.058 431.744 316.749 432.028 316.527C432.315 316.303 432.628 316.146 432.966 316.058C433.307 315.968 433.642 315.922 433.971 315.922C434.182 315.922 434.423 315.948 434.696 315.999C434.971 316.047 435.237 316.148 435.493 316.301C435.751 316.455 435.966 316.686 436.136 316.996C436.307 317.306 436.392 317.72 436.392 318.24V322.553H435.386V321.666H435.335C435.267 321.808 435.153 321.96 434.994 322.122C434.835 322.284 434.623 322.422 434.359 322.536C434.095 322.649 433.773 322.706 433.392 322.706ZM433.545 321.803C433.943 321.803 434.278 321.725 434.551 321.568C434.826 321.412 435.034 321.21 435.173 320.963C435.315 320.716 435.386 320.456 435.386 320.183V319.263C435.344 319.314 435.25 319.361 435.105 319.404C434.963 319.443 434.798 319.479 434.611 319.51C434.426 319.539 434.246 319.564 434.069 319.587C433.896 319.607 433.755 319.624 433.648 319.638C433.386 319.672 433.142 319.727 432.915 319.804C432.69 319.878 432.508 319.99 432.369 320.141C432.233 320.289 432.165 320.49 432.165 320.746C432.165 321.095 432.294 321.36 432.552 321.539C432.814 321.715 433.145 321.803 433.545 321.803ZM440.939 322.689C440.394 322.689 439.912 322.551 439.494 322.276C439.077 321.997 438.75 321.605 438.514 321.1C438.278 320.591 438.161 319.99 438.161 319.297C438.161 318.61 438.278 318.013 438.514 317.507C438.75 317.002 439.078 316.611 439.499 316.335C439.919 316.06 440.405 315.922 440.956 315.922C441.382 315.922 441.719 315.993 441.966 316.135C442.216 316.274 442.406 316.433 442.537 316.612C442.671 316.789 442.774 316.933 442.848 317.047H442.933V313.825H443.939V322.553H442.967V321.547H442.848C442.774 321.666 442.669 321.817 442.533 321.999C442.396 322.178 442.202 322.338 441.949 322.48C441.696 322.619 441.359 322.689 440.939 322.689ZM441.075 321.786C441.479 321.786 441.82 321.681 442.098 321.47C442.376 321.257 442.588 320.963 442.733 320.588C442.878 320.21 442.95 319.774 442.95 319.28C442.95 318.791 442.879 318.364 442.737 317.997C442.595 317.628 442.385 317.341 442.107 317.137C441.828 316.929 441.484 316.825 441.075 316.825C440.649 316.825 440.294 316.935 440.01 317.154C439.729 317.369 439.517 317.664 439.375 318.036C439.236 318.405 439.166 318.82 439.166 319.28C439.166 319.746 439.237 320.169 439.379 320.55C439.524 320.928 439.737 321.229 440.019 321.453C440.303 321.675 440.655 321.786 441.075 321.786ZM452.69 316.007V316.86H449.162V316.007H452.69ZM450.219 322.553V315.104C450.219 314.729 450.307 314.416 450.483 314.166C450.659 313.916 450.888 313.729 451.169 313.604C451.45 313.479 451.747 313.416 452.06 313.416C452.307 313.416 452.508 313.436 452.665 313.476C452.821 313.516 452.937 313.553 453.014 313.587L452.724 314.456C452.673 314.439 452.602 314.418 452.511 314.392C452.423 314.367 452.307 314.354 452.162 314.354C451.83 314.354 451.589 314.438 451.442 314.605C451.297 314.773 451.224 315.019 451.224 315.343V322.553H450.219ZM456.729 322.689C456.138 322.689 455.62 322.548 455.174 322.267C454.731 321.986 454.384 321.593 454.134 321.087C453.887 320.581 453.763 319.99 453.763 319.314C453.763 318.632 453.887 318.037 454.134 317.529C454.384 317.02 454.731 316.625 455.174 316.344C455.62 316.063 456.138 315.922 456.729 315.922C457.32 315.922 457.837 316.063 458.28 316.344C458.726 316.625 459.073 317.02 459.32 317.529C459.57 318.037 459.695 318.632 459.695 319.314C459.695 319.99 459.57 320.581 459.32 321.087C459.073 321.593 458.726 321.986 458.28 322.267C457.837 322.548 457.32 322.689 456.729 322.689ZM456.729 321.786C457.178 321.786 457.547 321.671 457.837 321.441C458.127 321.21 458.342 320.908 458.481 320.533C458.62 320.158 458.69 319.752 458.69 319.314C458.69 318.877 458.62 318.469 458.481 318.091C458.342 317.713 458.127 317.408 457.837 317.175C457.547 316.942 457.178 316.825 456.729 316.825C456.28 316.825 455.911 316.942 455.621 317.175C455.332 317.408 455.117 317.713 454.978 318.091C454.839 318.469 454.769 318.877 454.769 319.314C454.769 319.752 454.839 320.158 454.978 320.533C455.117 320.908 455.332 321.21 455.621 321.441C455.911 321.671 456.28 321.786 456.729 321.786ZM455.502 314.916C455.323 314.916 455.164 314.848 455.025 314.712C454.888 314.573 454.82 314.414 454.82 314.235C454.82 314.039 454.888 313.877 455.025 313.749C455.164 313.618 455.323 313.553 455.502 313.553C455.698 313.553 455.86 313.618 455.988 313.749C456.119 313.877 456.184 314.039 456.184 314.235C456.184 314.414 456.119 314.573 455.988 314.712C455.86 314.848 455.698 314.916 455.502 314.916ZM457.957 314.916C457.778 314.916 457.619 314.848 457.479 314.712C457.343 314.573 457.275 314.414 457.275 314.235C457.275 314.039 457.343 313.877 457.479 313.749C457.619 313.618 457.778 313.553 457.957 313.553C458.153 313.553 458.315 313.618 458.442 313.749C458.573 313.877 458.638 314.039 458.638 314.235C458.638 314.414 458.573 314.573 458.442 314.712C458.315 314.848 458.153 314.916 457.957 314.916ZM461.47 322.553V316.007H462.442V316.996H462.51C462.629 316.672 462.845 316.409 463.158 316.208C463.47 316.006 463.823 315.905 464.215 315.905C464.289 315.905 464.381 315.906 464.492 315.909C464.602 315.912 464.686 315.916 464.743 315.922V316.945C464.709 316.936 464.631 316.923 464.509 316.906C464.389 316.887 464.263 316.877 464.129 316.877C463.811 316.877 463.527 316.943 463.277 317.077C463.03 317.208 462.834 317.389 462.689 317.622C462.547 317.852 462.476 318.115 462.476 318.411V322.553H461.47ZM470.812 317.473L469.908 317.729C469.851 317.578 469.768 317.432 469.657 317.29C469.549 317.145 469.401 317.026 469.214 316.932C469.026 316.838 468.786 316.791 468.493 316.791C468.093 316.791 467.759 316.884 467.492 317.068C467.228 317.25 467.096 317.482 467.096 317.763C467.096 318.013 467.187 318.21 467.368 318.355C467.55 318.5 467.834 318.621 468.221 318.718L469.192 318.956C469.777 319.098 470.214 319.316 470.501 319.608C470.787 319.898 470.931 320.271 470.931 320.729C470.931 321.104 470.823 321.439 470.607 321.735C470.394 322.03 470.096 322.263 469.712 322.433C469.329 322.604 468.883 322.689 468.374 322.689C467.706 322.689 467.154 322.544 466.716 322.254C466.279 321.965 466.002 321.541 465.885 320.985L466.84 320.746C466.931 321.098 467.103 321.362 467.356 321.539C467.611 321.715 467.945 321.803 468.357 321.803C468.826 321.803 469.198 321.703 469.474 321.504C469.752 321.303 469.891 321.061 469.891 320.78C469.891 320.553 469.812 320.362 469.652 320.209C469.493 320.053 469.249 319.936 468.92 319.86L467.829 319.604C467.229 319.462 466.789 319.242 466.508 318.943C466.229 318.642 466.09 318.266 466.09 317.814C466.09 317.445 466.194 317.118 466.401 316.834C466.611 316.55 466.897 316.327 467.258 316.165C467.621 316.003 468.033 315.922 468.493 315.922C469.141 315.922 469.65 316.064 470.019 316.348C470.391 316.632 470.655 317.007 470.812 317.473ZM474.611 322.706C474.196 322.706 473.82 322.628 473.482 322.472C473.144 322.313 472.875 322.084 472.676 321.786C472.477 321.485 472.378 321.121 472.378 320.695C472.378 320.32 472.452 320.016 472.6 319.783C472.747 319.547 472.945 319.362 473.192 319.229C473.439 319.095 473.712 318.996 474.01 318.931C474.311 318.862 474.614 318.808 474.918 318.769C475.315 318.718 475.638 318.679 475.885 318.654C476.135 318.625 476.317 318.578 476.43 318.513C476.547 318.448 476.605 318.334 476.605 318.172V318.138C476.605 317.718 476.49 317.391 476.26 317.158C476.033 316.925 475.688 316.808 475.225 316.808C474.744 316.808 474.368 316.914 474.095 317.124C473.823 317.334 473.631 317.558 473.52 317.797L472.565 317.456C472.736 317.058 472.963 316.749 473.247 316.527C473.534 316.303 473.847 316.146 474.185 316.058C474.526 315.968 474.861 315.922 475.19 315.922C475.401 315.922 475.642 315.948 475.915 315.999C476.19 316.047 476.456 316.148 476.712 316.301C476.97 316.455 477.185 316.686 477.355 316.996C477.526 317.306 477.611 317.72 477.611 318.24V322.553H476.605V321.666H476.554C476.486 321.808 476.372 321.96 476.213 322.122C476.054 322.284 475.842 322.422 475.578 322.536C475.314 322.649 474.992 322.706 474.611 322.706ZM474.764 321.803C475.162 321.803 475.497 321.725 475.77 321.568C476.046 321.412 476.253 321.21 476.392 320.963C476.534 320.716 476.605 320.456 476.605 320.183V319.263C476.563 319.314 476.469 319.361 476.324 319.404C476.182 319.443 476.017 319.479 475.83 319.51C475.645 319.539 475.465 319.564 475.288 319.587C475.115 319.607 474.975 319.624 474.867 319.638C474.605 319.672 474.361 319.727 474.134 319.804C473.909 319.878 473.727 319.99 473.588 320.141C473.452 320.289 473.384 320.49 473.384 320.746C473.384 321.095 473.513 321.36 473.771 321.539C474.033 321.715 474.364 321.803 474.764 321.803ZM474.031 314.916C473.852 314.916 473.693 314.848 473.554 314.712C473.418 314.573 473.35 314.414 473.35 314.235C473.35 314.039 473.418 313.877 473.554 313.749C473.693 313.618 473.852 313.553 474.031 313.553C474.227 313.553 474.389 313.618 474.517 313.749C474.648 313.877 474.713 314.039 474.713 314.235C474.713 314.414 474.648 314.573 474.517 314.712C474.389 314.848 474.227 314.916 474.031 314.916ZM476.486 314.916C476.307 314.916 476.148 314.848 476.009 314.712C475.872 314.573 475.804 314.414 475.804 314.235C475.804 314.039 475.872 313.877 476.009 313.749C476.148 313.618 476.307 313.553 476.486 313.553C476.682 313.553 476.844 313.618 476.972 313.749C477.102 313.877 477.168 314.039 477.168 314.235C477.168 314.414 477.102 314.573 476.972 314.712C476.844 314.848 476.682 314.916 476.486 314.916ZM480.692 313.825V322.553H479.686V313.825H480.692ZM482.774 316.007H483.78V323.03C483.78 323.433 483.71 323.783 483.571 324.078C483.435 324.374 483.227 324.602 482.949 324.764C482.673 324.926 482.325 325.007 481.905 325.007C481.871 325.007 481.837 325.007 481.803 325.007C481.768 325.007 481.734 325.007 481.7 325.007V324.07C481.734 324.07 481.766 324.07 481.794 324.07C481.822 324.07 481.854 324.07 481.888 324.07C482.195 324.07 482.419 323.979 482.561 323.797C482.703 323.618 482.774 323.362 482.774 323.03V316.007ZM483.268 314.916C483.072 314.916 482.903 314.85 482.761 314.716C482.622 314.583 482.553 314.422 482.553 314.235C482.553 314.047 482.622 313.887 482.761 313.753C482.903 313.619 483.072 313.553 483.268 313.553C483.464 313.553 483.632 313.619 483.771 313.753C483.913 313.887 483.984 314.047 483.984 314.235C483.984 314.422 483.913 314.583 483.771 314.716C483.632 314.85 483.464 314.916 483.268 314.916ZM486.867 318.615V322.553H485.862V316.007H486.833V317.03H486.919C487.072 316.698 487.305 316.431 487.617 316.229C487.93 316.024 488.333 315.922 488.828 315.922C489.271 315.922 489.659 316.013 489.991 316.195C490.323 316.374 490.582 316.646 490.767 317.013C490.951 317.377 491.044 317.837 491.044 318.394V322.553H490.038V318.462C490.038 317.948 489.904 317.547 489.637 317.26C489.37 316.97 489.004 316.825 488.538 316.825C488.217 316.825 487.93 316.895 487.677 317.034C487.427 317.173 487.23 317.377 487.085 317.644C486.94 317.911 486.867 318.235 486.867 318.615ZM493.121 322.553V316.007H494.127V322.553H493.121ZM493.633 314.916C493.437 314.916 493.268 314.85 493.126 314.716C492.986 314.583 492.917 314.422 492.917 314.235C492.917 314.047 492.986 313.887 493.126 313.753C493.268 313.619 493.437 313.553 493.633 313.553C493.829 313.553 493.996 313.619 494.136 313.753C494.278 313.887 494.349 314.047 494.349 314.235C494.349 314.422 494.278 314.583 494.136 314.716C493.996 314.85 493.829 314.916 493.633 314.916ZM497.215 318.615V322.553H496.209V316.007H497.181V317.03H497.266C497.419 316.698 497.652 316.431 497.965 316.229C498.277 316.024 498.681 315.922 499.175 315.922C499.618 315.922 500.006 316.013 500.338 316.195C500.671 316.374 500.929 316.646 501.114 317.013C501.298 317.377 501.391 317.837 501.391 318.394V322.553H500.385V318.462C500.385 317.948 500.252 317.547 499.985 317.26C499.717 316.97 499.351 316.825 498.885 316.825C498.564 316.825 498.277 316.895 498.024 317.034C497.774 317.173 497.577 317.377 497.432 317.644C497.287 317.911 497.215 318.235 497.215 318.615ZM506.111 325.144C505.625 325.144 505.207 325.081 504.858 324.956C504.508 324.834 504.217 324.672 503.984 324.47C503.754 324.271 503.571 324.058 503.434 323.831L504.236 323.269C504.326 323.388 504.442 323.524 504.581 323.678C504.72 323.834 504.91 323.969 505.152 324.083C505.396 324.199 505.716 324.257 506.111 324.257C506.639 324.257 507.075 324.129 507.419 323.874C507.763 323.618 507.934 323.218 507.934 322.672V321.343H507.849C507.775 321.462 507.67 321.61 507.534 321.786C507.4 321.959 507.207 322.114 506.954 322.25C506.704 322.384 506.366 322.45 505.94 322.45C505.412 322.45 504.937 322.325 504.517 322.075C504.099 321.825 503.768 321.462 503.524 320.985C503.282 320.507 503.162 319.928 503.162 319.246C503.162 318.575 503.28 317.992 503.515 317.494C503.751 316.994 504.079 316.608 504.5 316.335C504.92 316.06 505.406 315.922 505.957 315.922C506.383 315.922 506.721 315.993 506.971 316.135C507.224 316.274 507.417 316.433 507.551 316.612C507.687 316.789 507.792 316.933 507.866 317.047H507.969V316.007H508.94V322.74C508.94 323.303 508.812 323.76 508.557 324.112C508.304 324.468 507.963 324.727 507.534 324.892C507.108 325.06 506.633 325.144 506.111 325.144ZM506.076 321.547C506.48 321.547 506.821 321.455 507.099 321.27C507.378 321.085 507.589 320.82 507.734 320.473C507.879 320.127 507.951 319.712 507.951 319.229C507.951 318.757 507.88 318.341 507.738 317.98C507.596 317.619 507.386 317.337 507.108 317.132C506.829 316.928 506.486 316.825 506.076 316.825C505.65 316.825 505.295 316.933 505.011 317.149C504.73 317.365 504.518 317.655 504.376 318.019C504.237 318.382 504.167 318.786 504.167 319.229C504.167 319.683 504.238 320.085 504.38 320.435C504.525 320.781 504.738 321.054 505.02 321.253C505.304 321.449 505.656 321.547 506.076 321.547Z" fill="black"/>
<path d="M304.731 313.825V322.553H303.709L298.953 315.7H298.868V322.553H297.811V313.825H298.834L303.606 320.695H303.692V313.825H304.731ZM307.597 325.007C307.427 325.007 307.275 324.993 307.141 324.965C307.008 324.939 306.916 324.914 306.864 324.888L307.12 324.002C307.364 324.064 307.58 324.087 307.768 324.07C307.955 324.053 308.122 323.969 308.266 323.818C308.414 323.671 308.549 323.431 308.671 323.098L308.859 322.587L306.438 316.007H307.529L309.336 321.223H309.404L311.211 316.007H312.302L309.524 323.507C309.399 323.845 309.244 324.125 309.059 324.347C308.874 324.571 308.66 324.737 308.416 324.845C308.174 324.953 307.901 325.007 307.597 325.007ZM315.596 322.706C315.182 322.706 314.805 322.628 314.467 322.472C314.129 322.313 313.861 322.084 313.662 321.786C313.463 321.485 313.363 321.121 313.363 320.695C313.363 320.32 313.437 320.016 313.585 319.783C313.733 319.547 313.93 319.362 314.177 319.229C314.424 319.095 314.697 318.996 314.995 318.931C315.297 318.862 315.599 318.808 315.903 318.769C316.301 318.718 316.623 318.679 316.87 318.654C317.12 318.625 317.302 318.578 317.416 318.513C317.532 318.448 317.591 318.334 317.591 318.172V318.138C317.591 317.718 317.476 317.391 317.245 317.158C317.018 316.925 316.673 316.808 316.21 316.808C315.73 316.808 315.353 316.914 315.081 317.124C314.808 317.334 314.616 317.558 314.505 317.797L313.551 317.456C313.721 317.058 313.949 316.749 314.233 316.527C314.52 316.303 314.832 316.146 315.17 316.058C315.511 315.968 315.846 315.922 316.176 315.922C316.386 315.922 316.628 315.948 316.9 315.999C317.176 316.047 317.441 316.148 317.697 316.301C317.956 316.455 318.17 316.686 318.341 316.996C318.511 317.306 318.596 317.72 318.596 318.24V322.553H317.591V321.666H317.539C317.471 321.808 317.358 321.96 317.199 322.122C317.039 322.284 316.828 322.422 316.564 322.536C316.299 322.649 315.977 322.706 315.596 322.706ZM315.75 321.803C316.147 321.803 316.483 321.725 316.755 321.568C317.031 321.412 317.238 321.21 317.378 320.963C317.52 320.716 317.591 320.456 317.591 320.183V319.263C317.548 319.314 317.454 319.361 317.309 319.404C317.167 319.443 317.003 319.479 316.815 319.51C316.63 319.539 316.45 319.564 316.274 319.587C316.101 319.607 315.96 319.624 315.852 319.638C315.591 319.672 315.346 319.727 315.119 319.804C314.895 319.878 314.713 319.99 314.574 320.141C314.437 320.289 314.369 320.49 314.369 320.746C314.369 321.095 314.498 321.36 314.757 321.539C315.018 321.715 315.349 321.803 315.75 321.803ZM327.202 316.007V316.86H323.673V316.007H327.202ZM324.73 322.553V315.104C324.73 314.729 324.818 314.416 324.994 314.166C325.17 313.916 325.399 313.729 325.68 313.604C325.962 313.479 326.258 313.416 326.571 313.416C326.818 313.416 327.02 313.436 327.176 313.476C327.332 313.516 327.449 313.553 327.526 313.587L327.236 314.456C327.185 314.439 327.114 314.418 327.023 314.392C326.935 314.367 326.818 314.354 326.673 314.354C326.341 314.354 326.101 314.438 325.953 314.605C325.808 314.773 325.736 315.019 325.736 315.343V322.553H324.73ZM331.241 322.689C330.65 322.689 330.131 322.548 329.685 322.267C329.242 321.986 328.896 321.593 328.646 321.087C328.398 320.581 328.275 319.99 328.275 319.314C328.275 318.632 328.398 318.037 328.646 317.529C328.896 317.02 329.242 316.625 329.685 316.344C330.131 316.063 330.65 315.922 331.241 315.922C331.832 315.922 332.349 316.063 332.792 316.344C333.238 316.625 333.584 317.02 333.832 317.529C334.082 318.037 334.207 318.632 334.207 319.314C334.207 319.99 334.082 320.581 333.832 321.087C333.584 321.593 333.238 321.986 332.792 322.267C332.349 322.548 331.832 322.689 331.241 322.689ZM331.241 321.786C331.69 321.786 332.059 321.671 332.349 321.441C332.638 321.21 332.853 320.908 332.992 320.533C333.131 320.158 333.201 319.752 333.201 319.314C333.201 318.877 333.131 318.469 332.992 318.091C332.853 317.713 332.638 317.408 332.349 317.175C332.059 316.942 331.69 316.825 331.241 316.825C330.792 316.825 330.422 316.942 330.133 317.175C329.843 317.408 329.628 317.713 329.489 318.091C329.35 318.469 329.28 318.877 329.28 319.314C329.28 319.752 329.35 320.158 329.489 320.533C329.628 320.908 329.843 321.21 330.133 321.441C330.422 321.671 330.792 321.786 331.241 321.786ZM330.013 314.916C329.834 314.916 329.675 314.848 329.536 314.712C329.4 314.573 329.332 314.414 329.332 314.235C329.332 314.039 329.4 313.877 329.536 313.749C329.675 313.618 329.834 313.553 330.013 313.553C330.209 313.553 330.371 313.618 330.499 313.749C330.63 313.877 330.695 314.039 330.695 314.235C330.695 314.414 330.63 314.573 330.499 314.712C330.371 314.848 330.209 314.916 330.013 314.916ZM332.468 314.916C332.289 314.916 332.13 314.848 331.991 314.712C331.854 314.573 331.786 314.414 331.786 314.235C331.786 314.039 331.854 313.877 331.991 313.749C332.13 313.618 332.289 313.553 332.468 313.553C332.664 313.553 332.826 313.618 332.954 313.749C333.084 313.877 333.15 314.039 333.15 314.235C333.15 314.414 333.084 314.573 332.954 314.712C332.826 314.848 332.664 314.916 332.468 314.916ZM336.987 313.825V322.553H335.982V313.825H336.987ZM339.069 316.007H340.075V323.03C340.075 323.433 340.005 323.783 339.866 324.078C339.73 324.374 339.523 324.602 339.244 324.764C338.969 324.926 338.621 325.007 338.2 325.007C338.166 325.007 338.132 325.007 338.098 325.007C338.064 325.007 338.03 325.007 337.996 325.007V324.07C338.03 324.07 338.061 324.07 338.089 324.07C338.118 324.07 338.149 324.07 338.183 324.07C338.49 324.07 338.714 323.979 338.856 323.797C338.998 323.618 339.069 323.362 339.069 323.03V316.007ZM339.564 314.916C339.368 314.916 339.199 314.85 339.057 314.716C338.917 314.583 338.848 314.422 338.848 314.235C338.848 314.047 338.917 313.887 339.057 313.753C339.199 313.619 339.368 313.553 339.564 313.553C339.76 313.553 339.927 313.619 340.067 313.753C340.209 313.887 340.28 314.047 340.28 314.235C340.28 314.422 340.209 314.583 340.067 314.716C339.927 314.85 339.76 314.916 339.564 314.916ZM344.083 322.706C343.668 322.706 343.292 322.628 342.954 322.472C342.616 322.313 342.347 322.084 342.149 321.786C341.95 321.485 341.85 321.121 341.85 320.695C341.85 320.32 341.924 320.016 342.072 319.783C342.22 319.547 342.417 319.362 342.664 319.229C342.911 319.095 343.184 318.996 343.482 318.931C343.783 318.862 344.086 318.808 344.39 318.769C344.788 318.718 345.11 318.679 345.357 318.654C345.607 318.625 345.789 318.578 345.903 318.513C346.019 318.448 346.078 318.334 346.078 318.172V318.138C346.078 317.718 345.962 317.391 345.732 317.158C345.505 316.925 345.16 316.808 344.697 316.808C344.217 316.808 343.84 316.914 343.568 317.124C343.295 317.334 343.103 317.558 342.992 317.797L342.038 317.456C342.208 317.058 342.435 316.749 342.72 316.527C343.006 316.303 343.319 316.146 343.657 316.058C343.998 315.968 344.333 315.922 344.663 315.922C344.873 315.922 345.114 315.948 345.387 315.999C345.663 316.047 345.928 316.148 346.184 316.301C346.443 316.455 346.657 316.686 346.828 316.996C346.998 317.306 347.083 317.72 347.083 318.24V322.553H346.078V321.666H346.026C345.958 321.808 345.845 321.96 345.685 322.122C345.526 322.284 345.315 322.422 345.051 322.536C344.786 322.649 344.464 322.706 344.083 322.706ZM344.237 321.803C344.634 321.803 344.97 321.725 345.242 321.568C345.518 321.412 345.725 321.21 345.864 320.963C346.006 320.716 346.078 320.456 346.078 320.183V319.263C346.035 319.314 345.941 319.361 345.796 319.404C345.654 319.443 345.489 319.479 345.302 319.51C345.117 319.539 344.937 319.564 344.761 319.587C344.587 319.607 344.447 319.624 344.339 319.638C344.078 319.672 343.833 319.727 343.606 319.804C343.381 319.878 343.2 319.99 343.06 320.141C342.924 320.289 342.856 320.49 342.856 320.746C342.856 321.095 342.985 321.36 343.244 321.539C343.505 321.715 343.836 321.803 344.237 321.803ZM349.159 322.553V316.007H350.13V316.996H350.199C350.318 316.672 350.534 316.409 350.846 316.208C351.159 316.006 351.511 315.905 351.903 315.905C351.977 315.905 352.069 315.906 352.18 315.909C352.291 315.912 352.375 315.916 352.432 315.922V316.945C352.397 316.936 352.319 316.923 352.197 316.906C352.078 316.887 351.951 316.877 351.818 316.877C351.5 316.877 351.216 316.943 350.966 317.077C350.718 317.208 350.522 317.389 350.378 317.622C350.235 317.852 350.164 318.115 350.164 318.411V322.553H349.159ZM356.409 322.689C355.778 322.689 355.234 322.55 354.777 322.271C354.322 321.99 353.971 321.598 353.724 321.095C353.48 320.59 353.358 320.002 353.358 319.331C353.358 318.661 353.48 318.07 353.724 317.558C353.971 317.044 354.315 316.644 354.755 316.357C355.198 316.067 355.716 315.922 356.306 315.922C356.647 315.922 356.984 315.979 357.316 316.093C357.649 316.206 357.951 316.391 358.224 316.646C358.497 316.899 358.714 317.235 358.876 317.652C359.038 318.07 359.119 318.584 359.119 319.195V319.621H354.073V318.752H358.096C358.096 318.382 358.022 318.053 357.875 317.763C357.73 317.473 357.522 317.244 357.252 317.077C356.985 316.909 356.67 316.825 356.306 316.825C355.906 316.825 355.559 316.925 355.267 317.124C354.977 317.32 354.754 317.575 354.598 317.891C354.441 318.206 354.363 318.544 354.363 318.905V319.485C354.363 319.979 354.448 320.398 354.619 320.742C354.792 321.083 355.032 321.343 355.339 321.521C355.646 321.698 356.002 321.786 356.409 321.786C356.673 321.786 356.912 321.749 357.125 321.675C357.341 321.598 357.527 321.485 357.683 321.334C357.839 321.181 357.96 320.99 358.045 320.763L359.017 321.036C358.914 321.365 358.743 321.655 358.501 321.905C358.26 322.152 357.961 322.345 357.606 322.485C357.251 322.621 356.852 322.689 356.409 322.689Z" fill="black"/>
<path d="M159.015 313.825L161.606 321.172H161.709L164.299 313.825H165.407L162.203 322.553H161.112L157.907 313.825H159.015ZM166.87 322.553V316.007H167.876V322.553H166.87ZM167.382 314.916C167.186 314.916 167.017 314.85 166.875 314.716C166.735 314.583 166.666 314.422 166.666 314.235C166.666 314.047 166.735 313.887 166.875 313.753C167.017 313.619 167.186 313.553 167.382 313.553C167.578 313.553 167.745 313.619 167.885 313.753C168.027 313.887 168.098 314.047 168.098 314.235C168.098 314.422 168.027 314.583 167.885 314.716C167.745 314.85 167.578 314.916 167.382 314.916ZM174.594 317.473L173.691 317.729C173.634 317.578 173.55 317.432 173.44 317.29C173.332 317.145 173.184 317.026 172.996 316.932C172.809 316.838 172.569 316.791 172.276 316.791C171.876 316.791 171.542 316.884 171.275 317.068C171.011 317.25 170.878 317.482 170.878 317.763C170.878 318.013 170.969 318.21 171.151 318.355C171.333 318.5 171.617 318.621 172.003 318.718L172.975 318.956C173.56 319.098 173.996 319.316 174.283 319.608C174.57 319.898 174.714 320.271 174.714 320.729C174.714 321.104 174.606 321.439 174.39 321.735C174.177 322.03 173.878 322.263 173.495 322.433C173.111 322.604 172.665 322.689 172.157 322.689C171.489 322.689 170.937 322.544 170.499 322.254C170.062 321.965 169.785 321.541 169.668 320.985L170.623 320.746C170.714 321.098 170.886 321.362 171.138 321.539C171.394 321.715 171.728 321.803 172.14 321.803C172.609 321.803 172.981 321.703 173.256 321.504C173.535 321.303 173.674 321.061 173.674 320.78C173.674 320.553 173.594 320.362 173.435 320.209C173.276 320.053 173.032 319.936 172.702 319.86L171.611 319.604C171.012 319.462 170.572 319.242 170.29 318.943C170.012 318.642 169.873 318.266 169.873 317.814C169.873 317.445 169.976 317.118 170.184 316.834C170.394 316.55 170.68 316.327 171.04 316.165C171.404 316.003 171.816 315.922 172.276 315.922C172.924 315.922 173.432 316.064 173.802 316.348C174.174 316.632 174.438 317.007 174.594 317.473ZM177.473 318.615V322.553H176.468V316.007H177.439V317.03H177.524C177.678 316.698 177.911 316.431 178.223 316.229C178.536 316.024 178.939 315.922 179.433 315.922C179.877 315.922 180.264 316.013 180.597 316.195C180.929 316.374 181.188 316.646 181.372 317.013C181.557 317.377 181.649 317.837 181.649 318.394V322.553H180.644V318.462C180.644 317.948 180.51 317.547 180.243 317.26C179.976 316.97 179.61 316.825 179.144 316.825C178.823 316.825 178.536 316.895 178.283 317.034C178.033 317.173 177.835 317.377 177.691 317.644C177.546 317.911 177.473 318.235 177.473 318.615ZM183.727 322.553V316.007H184.733V322.553H183.727ZM184.238 314.916C184.042 314.916 183.873 314.85 183.731 314.716C183.592 314.583 183.523 314.422 183.523 314.235C183.523 314.047 183.592 313.887 183.731 313.753C183.873 313.619 184.042 313.553 184.238 313.553C184.434 313.553 184.602 313.619 184.741 313.753C184.883 313.887 184.954 314.047 184.954 314.235C184.954 314.422 184.883 314.583 184.741 314.716C184.602 314.85 184.434 314.916 184.238 314.916ZM187.82 318.615V322.553H186.815V316.007H187.786V317.03H187.872C188.025 316.698 188.258 316.431 188.57 316.229C188.883 316.024 189.286 315.922 189.781 315.922C190.224 315.922 190.612 316.013 190.944 316.195C191.276 316.374 191.535 316.646 191.72 317.013C191.904 317.377 191.997 317.837 191.997 318.394V322.553H190.991V318.462C190.991 317.948 190.857 317.547 190.59 317.26C190.323 316.97 189.957 316.825 189.491 316.825C189.17 316.825 188.883 316.895 188.63 317.034C188.38 317.173 188.183 317.377 188.038 317.644C187.893 317.911 187.82 318.235 187.82 318.615ZM196.716 325.144C196.231 325.144 195.813 325.081 195.463 324.956C195.114 324.834 194.823 324.672 194.59 324.47C194.36 324.271 194.177 324.058 194.04 323.831L194.841 323.269C194.932 323.388 195.047 323.524 195.186 323.678C195.326 323.834 195.516 323.969 195.758 324.083C196.002 324.199 196.321 324.257 196.716 324.257C197.245 324.257 197.681 324.129 198.025 323.874C198.368 323.618 198.54 323.218 198.54 322.672V321.343H198.455C198.381 321.462 198.276 321.61 198.14 321.786C198.006 321.959 197.813 322.114 197.56 322.25C197.31 322.384 196.972 322.45 196.546 322.45C196.017 322.45 195.543 322.325 195.123 322.075C194.705 321.825 194.374 321.462 194.13 320.985C193.888 320.507 193.767 319.928 193.767 319.246C193.767 318.575 193.885 317.992 194.121 317.494C194.357 316.994 194.685 316.608 195.106 316.335C195.526 316.06 196.012 315.922 196.563 315.922C196.989 315.922 197.327 315.993 197.577 316.135C197.83 316.274 198.023 316.433 198.157 316.612C198.293 316.789 198.398 316.933 198.472 317.047H198.574V316.007H199.546V322.74C199.546 323.303 199.418 323.76 199.162 324.112C198.91 324.468 198.569 324.727 198.14 324.892C197.713 325.06 197.239 325.144 196.716 325.144ZM196.682 321.547C197.086 321.547 197.427 321.455 197.705 321.27C197.983 321.085 198.195 320.82 198.34 320.473C198.485 320.127 198.557 319.712 198.557 319.229C198.557 318.757 198.486 318.341 198.344 317.98C198.202 317.619 197.992 317.337 197.713 317.132C197.435 316.928 197.091 316.825 196.682 316.825C196.256 316.825 195.901 316.933 195.617 317.149C195.336 317.365 195.124 317.655 194.982 318.019C194.843 318.382 194.773 318.786 194.773 319.229C194.773 319.683 194.844 320.085 194.986 320.435C195.131 320.781 195.344 321.054 195.625 321.253C195.91 321.449 196.262 321.547 196.682 321.547ZM203.553 322.706C203.138 322.706 202.762 322.628 202.424 322.472C202.086 322.313 201.817 322.084 201.618 321.786C201.419 321.485 201.32 321.121 201.32 320.695C201.32 320.32 201.394 320.016 201.542 319.783C201.689 319.547 201.887 319.362 202.134 319.229C202.381 319.095 202.654 318.996 202.952 318.931C203.253 318.862 203.556 318.808 203.86 318.769C204.257 318.718 204.58 318.679 204.827 318.654C205.077 318.625 205.259 318.578 205.373 318.513C205.489 318.448 205.547 318.334 205.547 318.172V318.138C205.547 317.718 205.432 317.391 205.202 317.158C204.975 316.925 204.63 316.808 204.167 316.808C203.686 316.808 203.31 316.914 203.037 317.124C202.765 317.334 202.573 317.558 202.462 317.797L201.507 317.456C201.678 317.058 201.905 316.749 202.189 316.527C202.476 316.303 202.789 316.146 203.127 316.058C203.468 315.968 203.803 315.922 204.132 315.922C204.343 315.922 204.584 315.948 204.857 315.999C205.132 316.047 205.398 316.148 205.654 316.301C205.912 316.455 206.127 316.686 206.297 316.996C206.468 317.306 206.553 317.72 206.553 318.24V322.553H205.547V321.666H205.496C205.428 321.808 205.314 321.96 205.155 322.122C204.996 322.284 204.784 322.422 204.52 322.536C204.256 322.649 203.934 322.706 203.553 322.706ZM203.706 321.803C204.104 321.803 204.439 321.725 204.712 321.568C204.988 321.412 205.195 321.21 205.334 320.963C205.476 320.716 205.547 320.456 205.547 320.183V319.263C205.505 319.314 205.411 319.361 205.266 319.404C205.124 319.443 204.959 319.479 204.772 319.51C204.587 319.539 204.407 319.564 204.23 319.587C204.057 319.607 203.917 319.624 203.809 319.638C203.547 319.672 203.303 319.727 203.076 319.804C202.851 319.878 202.669 319.99 202.53 320.141C202.394 320.289 202.326 320.49 202.326 320.746C202.326 321.095 202.455 321.36 202.713 321.539C202.975 321.715 203.306 321.803 203.706 321.803ZM208.629 322.553V316.007H209.6V316.996H209.668C209.788 316.672 210.004 316.409 210.316 316.208C210.629 316.006 210.981 315.905 211.373 315.905C211.447 315.905 211.539 315.906 211.65 315.909C211.761 315.912 211.844 315.916 211.901 315.922V316.945C211.867 316.936 211.789 316.923 211.667 316.906C211.548 316.887 211.421 316.877 211.288 316.877C210.969 316.877 210.685 316.943 210.435 317.077C210.188 317.208 209.992 317.389 209.847 317.622C209.705 317.852 209.634 318.115 209.634 318.411V322.553H208.629Z" fill="black"/>
<circle cx="283.955" cy="317.71" r="5.06523" fill="#78716C"/>
<circle cx="401.393" cy="317.71" r="5.06523" fill="#FF90E8"/>
<circle cx="144.394" cy="317.71" r="5.06523" fill="#D6D3D1"/>
<path d="M142.124 357.528H515.056C516.332 357.528 517.367 358.563 517.367 359.84V545.535C517.367 546.812 516.332 547.847 515.056 547.847H142.124C140.847 547.847 139.812 546.812 139.812 545.535V359.84C139.813 358.563 140.847 357.528 142.124 357.528Z" fill="white" stroke="black" stroke-width="1.54104"/>
<rect x="157.534" y="451.656" width="15.4104" height="77.4412" fill="#E7E5E4"/>
<rect x="187.585" y="426.873" width="15.4104" height="102.222" fill="#E7E5E4"/>
<rect x="217.635" y="440.812" width="15.4104" height="88.2829" fill="#E7E5E4"/>
<rect x="247.686" y="478.76" width="15.4104" height="50.3368" fill="#E7E5E4"/>
<rect x="277.735" y="459.398" width="15.4104" height="69.697" fill="#E7E5E4"/>
<rect x="307.785" y="444.686" width="15.4104" height="84.4109" fill="#E7E5E4"/>
<rect x="337.837" y="459.398" width="15.4104" height="69.697" fill="#E7E5E4"/>
<rect x="367.887" y="459.398" width="15.4104" height="69.697" fill="#E7E5E4"/>
<rect x="397.938" y="467.918" width="15.4104" height="61.1785" fill="#E7E5E4"/>
<rect x="427.986" y="491.406" width="15.4104" height="37.9462" fill="#E7E5E4"/>
<rect x="458.037" y="459.654" width="15.4104" height="69.697" fill="#E7E5E4"/>
<rect x="488.086" y="466.939" width="15.4104" height="62.7273" fill="#E7E5E4"/>
<rect x="157.534" y="518.564" width="15.4104" height="10.7873" fill="#78716C"/>
<rect x="187.585" y="513.943" width="15.4104" height="15.4104" fill="#78716C"/>
<rect x="217.635" y="513.172" width="15.4104" height="16.1809" fill="#78716C"/>
<rect x="247.686" y="518.564" width="15.4104" height="10.7873" fill="#78716C"/>
<rect x="277.735" y="513.172" width="15.4104" height="16.1809" fill="#78716C"/>
<rect x="367.887" y="518.564" width="15.4104" height="10.7873" fill="#78716C"/>
<rect x="488.086" y="516.254" width="15.4104" height="13.0988" fill="#78716C"/>
<rect x="458.037" y="518.564" width="15.4104" height="10.7873" fill="#78716C"/>
<rect x="427.986" y="523.959" width="15.4104" height="5.39364" fill="#78716C"/>
<rect x="397.938" y="522.418" width="15.4104" height="6.93468" fill="#78716C"/>
<rect x="307.785" y="516.254" width="15.4104" height="13.0988" fill="#78716C"/>
<rect x="338.606" y="523.959" width="13.8694" height="5.39364" fill="#78716C"/>
<circle cx="165.239" cy="472.334" r="4.62312" fill="#FF90E8"/>
<circle cx="195.29" cy="463.088" r="4.62312" fill="#FF90E8"/>
<circle cx="225.34" cy="456.154" r="4.62312" fill="#FF90E8"/>
<circle cx="254.62" cy="409.922" r="4.62312" fill="#FF90E8"/>
<circle cx="284.67" cy="392.971" r="4.62312" fill="#FF90E8"/>
<circle cx="314.72" cy="392.971" r="4.62312" fill="#FF90E8"/>
<circle cx="344.001" cy="380.643" r="4.62312" fill="#FF90E8"/>
<circle cx="374.049" cy="392.971" r="4.62312" fill="#FF90E8"/>
<circle cx="404.1" cy="414.547" r="4.62312" fill="#FF90E8"/>
<circle cx="433.381" cy="392.971" r="4.62312" fill="#FF90E8"/>
<circle cx="463.43" cy="425.332" r="4.62312" fill="#FF90E8"/>
<circle cx="493.482" cy="419.168" r="4.62312" fill="#FF90E8"/>
<path d="M165.239 472.334L195.29 463.088L225.34 456.154L254.62 409.922L284.67 392.971H314.72L344 380.643L374.05 392.971L404.1 414.545L433.38 392.971L463.431 425.333L493.481 419.169" stroke="#FF90E8" stroke-width="1.81994"/>
</g>
<path d="M635.194 537.221C634.514 532.368 632.256 527.877 628.771 524.45C625.286 521.023 620.77 518.852 615.929 518.276L609.468 517.536L614.494 504.961C616.111 500.926 616.512 496.502 615.648 492.24C614.785 487.978 612.694 484.065 609.637 480.987C606.579 477.91 602.689 475.803 598.451 474.929C594.212 474.056 589.812 474.454 585.796 476.074L575.273 480.312C573.991 476.425 571.663 472.97 568.547 470.331C565.432 467.691 561.651 465.97 557.623 465.357C553.595 464.744 549.476 465.264 545.723 466.859C541.971 468.455 538.731 471.062 536.361 474.394L527.657 486.622C527.141 486.726 526.626 486.844 526.119 486.985C525.383 486.8 524.647 486.637 523.867 486.511C519.062 485.705 506.832 485.209 496.994 497.97C493.962 501.891 491.776 506.277 489.841 510.154L489.51 510.805C483.947 509.735 478.189 510.482 473.078 512.935C467.376 515.694 459.885 521.812 456.61 535.32C454.8 542.791 453.792 544.936 453.6 545.321C453.483 545.484 453.203 545.839 452.99 546.113C450.201 549.656 447.191 553.843 443.799 562.542C438.229 576.834 439.134 590.223 442.386 599.936C441.599 615.36 447.493 628.387 453.917 637.219L453.291 663.687C453.221 666.646 453.739 669.589 454.817 672.344C455.895 675.098 457.51 677.608 459.567 679.725C461.624 681.843 464.081 683.525 466.795 684.674C469.508 685.822 472.423 686.413 475.367 686.412H536.082C541.937 686.412 547.552 684.074 551.692 679.912C555.832 675.751 558.157 670.106 558.157 664.22V633.306L565.744 611.728L565.943 611.817C568.632 612.924 571.513 613.487 574.42 613.473C577.326 613.459 580.201 612.868 582.88 611.734C585.559 610.6 587.988 608.945 590.029 606.865C592.07 604.784 593.682 602.319 594.773 599.611L599.13 600.351C603.498 601.129 607.998 600.567 612.044 598.737C616.09 596.906 619.493 593.893 621.81 590.09C624.127 586.286 625.25 581.869 625.033 577.415C624.817 572.96 623.27 568.674 620.594 565.117L618.387 562.217L621.89 560.737C626.376 558.84 630.112 555.506 632.518 551.253C634.924 547 635.865 542.067 635.194 537.221Z" fill="#23A094" stroke="black" stroke-width="1.81994" stroke-miterlimit="10"/>
<path d="M548.731 558.066C548.731 558.066 552.41 549.67 557.046 552.008C562.859 554.93 559.121 563.918 559.121 563.918L536.081 629.496V664.168H475.411L476.242 629.082C476.242 629.082 461.282 616.129 465.028 596.496C468.773 576.863 475.411 573.105 478.325 566.004C481.238 558.902 479.568 552.215 482.475 546.771C485.381 541.326 489.539 543.013 492.041 548.028C494.543 553.044 491.629 569.747 489.546 576.013C487.464 582.278 482.482 593.974 482.482 593.974" stroke="black" stroke-width="1.81994" stroke-linecap="round" stroke-linejoin="round"/>
<path d="M492.43 567.253C492.43 567.253 509.465 538.846 514.034 532.166C518.604 525.487 521.518 522.55 525.668 523.393C529.818 524.236 531.283 528.823 526.919 537.175C522.754 545.142 508.633 571.018 508.633 571.018" stroke="black" stroke-width="1.81994" stroke-linecap="round" stroke-linejoin="round"/>
<path d="M526.922 537.177C526.922 537.177 533.36 522.974 539.799 525.696C545.892 528.263 543.125 536.134 540.013 542.614C536.9 549.094 524.008 578.958 524.008 578.958" stroke="black" stroke-width="1.81994" stroke-linecap="round" stroke-linejoin="round"/>
<path d="M537.273 548.68C537.273 548.68 542.873 534.122 549.459 536.452C555.692 538.671 553.388 546.675 550.658 553.325C547.928 559.976 538.149 585.43 538.149 585.43" stroke="black" stroke-width="1.81994" stroke-linecap="round" stroke-linejoin="round"/>
<path d="M480.379 555.766C480.041 555.766 484.154 557.682 486.406 553.68C488.024 550.803 487.649 547.829 484.934 545.543" stroke="black" stroke-width="1.81994" stroke-linecap="round" stroke-linejoin="round"/>
<path d="M528.384 530.892C529.847 528.344 529.181 525.204 526.897 523.878C524.613 522.553 521.575 523.543 520.112 526.091C518.649 528.638 519.315 531.778 521.599 533.104C523.883 534.429 526.921 533.439 528.384 530.892Z" stroke="black" stroke-width="1.81994" stroke-linecap="round" stroke-linejoin="round"/>
<path d="M541.968 533.282C543.431 530.735 542.765 527.595 540.481 526.269C538.197 524.943 535.159 525.934 533.696 528.481C532.233 531.029 532.899 534.168 535.183 535.494C537.467 536.82 540.505 535.83 541.968 533.282Z" stroke="black" stroke-width="1.81994" stroke-linecap="round" stroke-linejoin="round"/>
<path d="M551.936 544.11C553.399 541.563 552.734 538.423 550.45 537.097C548.165 535.771 545.128 536.762 543.665 539.309C542.202 541.857 542.867 544.997 545.151 546.322C547.436 547.648 550.473 546.658 551.936 544.11Z" stroke="black" stroke-width="1.81994" stroke-linecap="round" stroke-linejoin="round"/>
<path d="M559.719 558.191C560.554 555.555 559.313 552.805 556.947 552.047C554.581 551.289 551.986 552.812 551.151 555.447C550.316 558.082 551.557 560.833 553.923 561.591C556.289 562.348 558.883 560.826 559.719 558.191Z" stroke="black" stroke-width="1.81994" stroke-linecap="round" stroke-linejoin="round"/>
<path d="M465.007 596.497C465.007 596.497 458.384 586.059 464.382 570.606C470.379 555.153 472.476 563.712 478.09 540.528C479.974 532.753 483.705 531.548 486.818 533.012C489.93 534.477 490.769 540.321 490.35 545.751" stroke="black" stroke-width="1.81994" stroke-linecap="round" stroke-linejoin="round"/>
<path d="M492.844 551.172C492.844 551.172 503.882 531.125 507.804 523.601C511.726 516.078 515 507.475 520.269 508.355C525.258 509.191 526.502 513.578 523.212 522.973" stroke="black" stroke-width="1.81994" stroke-linecap="round" stroke-linejoin="round"/>
<path d="M524.633 518.35C524.633 518.35 528.268 507.306 533.566 508.326C538.864 509.347 538.761 515.635 536.267 525.873" stroke="black" stroke-width="1.81994" stroke-linecap="round" stroke-linejoin="round"/>
<path d="M537.311 520.473C537.311 520.473 540.254 514.325 546.244 517.336C551.226 519.844 547.075 535.719 547.075 535.719" stroke="black" stroke-width="1.81994" stroke-linecap="round" stroke-linejoin="round"/>
<path d="M548.018 530.925C548.632 529.958 549.523 529.202 550.574 528.755C551.625 528.309 552.787 528.194 553.904 528.425C558.364 529.364 558.687 535.083 557.65 541.163C556.612 547.244 555.567 551.187 555.567 551.187" stroke="black" stroke-width="1.81994" stroke-linecap="round" stroke-linejoin="round"/>
<path d="M537.105 511.484L554.346 487.258L559.748 510.441L594.031 496.66L578.24 536.133L613.354 540.312L583.641 552.844L602.964 578.535L570.138 572.684L574.295 591.273L552.477 582.293" stroke="black" stroke-width="1.81994" stroke-linecap="round" stroke-linejoin="round"/>
<path d="M215.77 217.148C200.455 217.148 185.73 211.977 172.373 201.781C163.529 194.978 155.957 186.665 150.006 177.228C148.347 174.546 147.686 171.366 148.139 168.246C148.593 165.126 150.131 162.265 152.485 160.166L152.901 159.782C161.274 152.138 165.294 146.351 167.184 142.9C176.288 126.265 189.572 122.029 199.113 121.414C202.363 121.213 205.626 121.423 208.823 122.04C211.87 118.925 215.849 115.795 220.67 113.996C228.369 111.113 237.079 111.055 245.405 113.628L251.194 103.784C252.586 101.411 254.675 99.5237 257.176 98.3771C259.678 97.2304 262.471 96.8803 265.179 97.3742C267.886 97.868 270.376 99.1819 272.311 101.138C274.246 103.094 275.533 105.597 275.997 108.309V108.346L295.47 101.785C298.058 100.914 300.849 100.854 303.473 101.611C306.096 102.368 308.426 103.907 310.151 106.022C311.877 108.137 312.916 110.728 313.13 113.45C313.343 116.171 312.722 118.892 311.348 121.251L311.316 121.309L304.406 133.251L310.043 134.303C312.778 134.812 315.289 136.158 317.225 138.156C319.162 140.153 320.43 142.703 320.853 145.453C321.276 148.202 320.834 151.016 319.587 153.503C318.341 155.99 316.351 158.028 313.895 159.335L303.896 164.659L307.18 169.521C308.664 171.712 309.466 174.294 309.485 176.941C309.504 179.587 308.739 182.18 307.286 184.393C305.834 186.606 303.759 188.34 301.323 189.376C298.887 190.413 296.198 190.705 293.596 190.217L291.67 189.86L292.912 197.383C293.355 200.07 292.969 202.829 291.805 205.292C290.641 207.754 288.755 209.805 286.398 211.17C284.04 212.536 281.323 213.151 278.607 212.935C275.891 212.72 273.305 211.682 271.193 209.962L259.614 200.524C253.435 206.71 245.814 211.264 237.437 213.776C230.425 215.98 223.121 217.117 215.77 217.148Z" fill="#F1F333" stroke="black" stroke-width="2"/>
<path d="M261.966 136.418C261.966 136.418 261.966 136.555 261.929 136.807C261.687 139.569 259.751 156.273 248.488 168.778L247.857 167.837C241.368 164.528 229.874 167.647 225.753 173.014C203.397 171.435 194.087 183.536 194.087 183.536L194.024 183.988C173.609 181.121 161.72 170.651 161.305 170.278C161.831 170.152 179.393 165.953 185.766 163.517C191.092 161.481 194.339 158.367 198.334 156.152L198.755 156.294C199.344 156.504 205.744 166.29 210.686 166.979C213.443 167.347 218.653 166.085 223.222 164.559C226.842 163.354 230.063 161.986 231.379 161.145C234.979 158.819 232.431 144.125 232.431 144.125L232.326 143.868C235.126 142.679 238.373 141.989 242.768 141.9C251.388 141.705 261.966 136.418 261.966 136.418Z" fill="black"/>
<path d="M161.305 170.267C162.273 169.326 173.062 160.014 178.846 149.439C184.629 138.864 192.429 135.382 199.87 134.898C204.584 134.689 209.274 135.679 213.501 137.775C213.501 137.775 218.38 129.231 225.253 126.659C232.126 124.086 241.326 125.117 249.278 130.284C249.736 130.589 250.188 130.873 250.625 131.141C257.761 135.56 261.966 136.402 261.966 136.402C261.966 136.402 251.383 141.663 242.762 141.858C238.368 141.947 235.121 142.636 232.321 143.825C229.626 144.972 227.337 146.566 224.827 148.524C222.316 150.481 220.953 151.638 218.969 152.354C216.864 153.122 214.043 153.358 208.507 153.406C204.94 153.398 201.434 154.321 198.334 156.084C194.339 158.314 191.092 161.429 185.766 163.449C179.393 165.885 161.857 170.083 161.305 170.209" stroke="black" stroke-width="2" stroke-linecap="round" stroke-linejoin="round"/>
<path d="M161.305 170.27C161.731 171.012 187.761 215.094 233.352 201.052C245.067 197.438 252.351 190.183 256.809 181.807C267.161 162.342 262.256 136.805 262.256 136.805" stroke="black" stroke-width="2" stroke-linecap="round" stroke-linejoin="round"/>
<path d="M261.966 136.418C261.966 136.418 261.966 136.555 261.929 136.807C261.687 139.569 259.751 156.273 248.488 168.778C243.591 174.256 237.306 178.309 230.295 180.51C216.348 184.972 204.139 185.414 194.024 183.993C173.609 181.126 161.72 170.657 161.305 170.283" stroke="black" stroke-width="2" stroke-linecap="round" stroke-linejoin="round"/>
<path d="M198.762 156.27C199.351 156.481 205.751 166.266 210.693 166.955C213.45 167.324 218.66 166.061 223.228 164.535C226.849 163.331 230.07 161.963 231.386 161.121C234.986 158.796 232.438 144.102 232.438 144.102" stroke="black" stroke-width="2" stroke-linecap="round" stroke-linejoin="round"/>
<path d="M299.644 114.594L299.639 114.599L283.167 143.072L307.475 147.596L284.303 159.923L295.939 177.137L275.188 173.259L279.546 199.669L258.016 182.113" stroke="black" stroke-width="2" stroke-linecap="round" stroke-linejoin="round"/>
<path d="M250.652 131.095L262.652 110.672C262.652 110.672 265.746 128.743 266.336 128.754C266.925 128.764 299.133 114.807 299.633 114.597" stroke="black" stroke-width="2" stroke-linecap="round" stroke-linejoin="round"/>
<path d="M219.121 152.797L223.131 164.087" stroke="black" stroke-width="2" stroke-linecap="round" stroke-linejoin="round"/>
<path d="M194.086 183.543C194.086 183.543 203.396 171.443 225.752 173.021C229.873 167.655 241.367 164.535 247.856 167.844" stroke="black" stroke-width="2" stroke-linecap="round" stroke-linejoin="round"/>
</g>
<rect x="1" y="1" width="660" height="795.6" stroke="black" stroke-width="2"/>
<defs>
<filter id="filter0_d_18182_4575" x="102.007" y="203.014" width="459.929" height="389.792" filterUnits="userSpaceOnUse" color-interpolation-filters="sRGB">
<feFlood flood-opacity="0" result="BackgroundImageFix"/>
<feColorMatrix in="SourceAlpha" type="matrix" values="0 0 0 0 0 0 0 0 0 0 0 0 0 0 0 0 0 0 127 0" result="hardAlpha"/>
<feOffset dx="6.76174" dy="6.76174"/>
<feColorMatrix type="matrix" values="0 0 0 0 0 0 0 0 0 0 0 0 0 0 0 0 0 0 1 0"/>
<feBlend mode="normal" in2="BackgroundImageFix" result="effect1_dropShadow_18182_4575"/>
<feBlend mode="normal" in="SourceGraphic" in2="effect1_dropShadow_18182_4575" result="shape"/>
</filter>
<clipPath id="clip0_18182_4575">
<rect width="660" height="796.4" fill="white" transform="translate(1 0.607422)"/>
</clipPath>
</defs>
</svg>
