<svg width="434" height="426" viewBox="0 0 434 426" fill="none" xmlns="http://www.w3.org/2000/svg">
<rect x="1.01395" y="1.01443" width="431.029" height="423.544" fill="#CBAD7A" stroke="black" stroke-width="2.02875"/>
<mask id="mask0_22279_2195" style="mask-type:alpha" maskUnits="userSpaceOnUse" x="1" y="1" width="431" height="424">
<rect x="2.02832" y="2.02881" width="429" height="421.515" fill="#587A64" stroke="#CBAD7A"/>
</mask>
<g mask="url(#mask0_22279_2195)">
<path d="M296.053 25.768C169.468 -20.9076 55.5228 -37.6232 41.5194 -11.606C38.1518 -5.33384 40.9014 2.85651 48.7876 12.3104C52.752 17.0906 47.9776 23.4693 41.0505 22.7233C2.68514 18.5825 -23.9787 22.0534 -30.5008 34.2171C-39.943 51.77 -5.09445 82.9328 54.4359 114.628C60.958 118.099 58.4003 126.411 50.6632 126.914C11.4239 129.471 -16.9878 140.372 -27.389 159.721C-45.4421 193.319 -4.34855 243.207 70.3148 286.869C76.3254 290.37 73.9809 298.195 66.7128 298.941C50.0239 300.661 38.5356 305.381 34.2728 313.327C20.2907 339.345 89.0713 389.978 187.905 426.408C286.738 462.839 378.197 471.288 392.179 445.255C400.257 430.245 380.797 407.059 343.924 383.128C337.807 379.154 341.409 370.949 349.189 371.208C403.22 372.73 443.312 361.784 456.122 337.944C473.727 305.183 435.085 256.924 363.874 214.054C358.141 210.598 360.187 203.017 367.199 202.043C380.115 200.246 388.812 196.288 392.179 190.016C394.758 185.236 394.034 179.359 390.41 172.859C387.618 167.789 392.819 162.202 399.405 163.42C453.713 173.087 492.185 171.808 499.944 157.331C513.926 131.344 422.658 72.4285 296.053 25.768Z" fill="#6E9B7E" stroke="black" stroke-width="2.02875"/>
</g>
</svg>
