<?xml version="1.0" encoding="utf-8" ?><svg xmlns="http://www.w3.org/2000/svg" xmlns:xlink="http://www.w3.org/1999/xlink" width="1024" height="1024" viewBox="0 0 1024 1024"><path fill="#5D5E58" d="M239.591 657.568C234.118 652.037 234.661 647.833 234.935 640.617C235.368 629.218 236.869 617.933 238.06 606.597L242.122 564.241L256.341 407.181L267.542 280.053L271.79 232.169C272.625 222.841 273.397 213.286 274.574 203.994C275.145 199.491 278.202 194.769 281.454 191.739C285.035 188.404 291.158 186.407 296.112 186.248C307.915 185.87 319.984 186.043 331.814 186.075L392.751 186.109L593.849 186.071L814.517 186.114L884.153 186.239C898.584 186.247 913.172 185.786 927.554 186.608C933.689 186.728 938.649 186.799 943.255 191.505C951.091 199.511 948.039 213.87 947.212 224.169L944.278 259.061L934.012 371.275L918.197 546.305C915.191 580.06 912.431 613.848 909.324 647.597C908.222 659.572 908.139 663.295 895.976 667.793C896.822 676.551 896.11 686.258 896.109 695.078C896.107 703.805 891.317 709.046 886.126 715.452C865.425 740.905 843.915 765.779 823.262 791.253C816.516 799.557 809.812 807.895 803.152 816.268C797.068 823.952 788.039 837.962 777.623 838.772C761.63 840.017 745.317 839.096 729.251 839.188L612.749 838.928L502.177 838.53L466.608 838.452C461.965 838.433 451.391 838.563 447.246 838.077C431.605 838.358 414.984 838.051 399.26 838.037C395.534 838.58 376.604 838.017 371.329 838.037L290.916 837.887L164.889 837.521C154.084 837.474 143.279 837.481 132.475 837.545C123.383 837.646 114.877 837.99 105.759 837.18C81.8705 835.061 71.571 817.822 73.9558 795.038C79.1365 790.326 86.1987 784.878 91.7519 780.275C107.028 767.629 122.429 755.136 137.954 742.797C172.399 714.959 207.011 687.329 241.789 659.908C241.524 658.625 240.965 658.624 239.591 657.568Z"/><path fill="#CCC4BC" d="M927.554 186.608C933.689 186.728 938.649 186.799 943.255 191.505C951.091 199.511 948.039 213.87 947.212 224.169L944.278 259.061L934.012 371.275L918.197 546.305C915.191 580.06 912.431 613.848 909.324 647.597C908.222 659.572 908.139 663.295 895.976 667.793C896.822 676.551 896.11 686.258 896.109 695.078C896.107 703.805 891.317 709.046 886.126 715.452C865.425 740.905 843.915 765.779 823.262 791.253C816.516 799.557 809.812 807.895 803.152 816.268C797.068 823.952 788.039 837.962 777.623 838.772C761.63 840.017 745.317 839.096 729.251 839.188L612.749 838.928L502.177 838.53L466.608 838.452C461.965 838.433 451.391 838.563 447.246 838.077C431.605 838.358 414.984 838.051 399.26 838.037C395.534 838.58 376.604 838.017 371.329 838.037L290.916 837.887L164.889 837.521C154.084 837.474 143.279 837.481 132.475 837.545C123.383 837.646 114.877 837.99 105.759 837.18C81.8705 835.061 71.571 817.822 73.9558 795.038C79.1365 790.326 86.1987 784.878 91.7519 780.275C107.028 767.629 122.429 755.136 137.954 742.797C172.399 714.959 207.011 687.329 241.789 659.908C241.524 658.625 240.965 658.624 239.591 657.568C255.135 658.959 272.992 658.507 288.616 658.325L342.263 658.011C346.45 657.996 369.652 657.546 371.981 658.481C384.206 659.222 402.667 658.605 415.343 658.591L499.527 658.521L770.748 658.113C770.576 662.312 769.802 673.212 771.863 676.54L772.442 676.275C773.371 673.266 773.314 672.082 773.413 669.015L853.479 669.026C852.555 672.753 851.818 677.939 848.95 680.279C847.707 680.449 846.924 680.526 845.672 680.584C848.125 680.79 848.911 680.549 850.874 681.96C855.614 674.328 855.498 666.797 855.62 658.157C863.279 657.773 870.95 657.667 878.616 657.838C882.196 656.005 891.254 659.234 893.81 662.257C894.425 664.052 893.934 666.177 893.694 668.121L895.164 668.737C895.863 667.024 896.035 663.491 895.793 661.637L894.583 661.847L894.535 661.298C895.401 660.916 896.074 660.588 896.914 660.152C898.293 652.052 899.247 652.331 899.774 642.963L900.622 642.97C901.162 641.719 901.594 634.078 901.74 632.275L903.804 607.545L912.09 514.232L931.794 292.894C934.373 263.595 937.304 234.126 939.147 204.814C939.697 196.067 930.25 192.118 928.05 188.236L929.39 187.634C928.085 186.861 928.755 188.354 927.554 186.608Z"/><path fill="#383A54" d="M927.554 186.608C933.689 186.728 938.649 186.799 943.255 191.505C951.091 199.511 948.039 213.87 947.212 224.169L944.278 259.061L934.012 371.275L918.197 546.305C915.191 580.06 912.431 613.848 909.324 647.597C908.222 659.572 908.139 663.295 895.976 667.793C896.822 676.551 896.11 686.258 896.109 695.078C896.107 703.805 891.317 709.046 886.126 715.452C865.425 740.905 843.915 765.779 823.262 791.253C816.516 799.557 809.812 807.895 803.152 816.268C797.068 823.952 788.039 837.962 777.623 838.772C761.63 840.017 745.317 839.096 729.251 839.188L612.749 838.928L502.177 838.53L466.608 838.452C461.965 838.433 451.391 838.563 447.246 838.077C431.605 838.358 414.984 838.051 399.26 838.037C395.534 838.58 376.604 838.017 371.329 838.037L290.916 837.887L164.889 837.521C154.084 837.474 143.279 837.481 132.475 837.545C123.383 837.646 114.877 837.99 105.759 837.18C81.8705 835.061 71.571 817.822 73.9558 795.038C79.1365 790.326 86.1987 784.878 91.7519 780.275C107.028 767.629 122.429 755.136 137.954 742.797C172.399 714.959 207.011 687.329 241.789 659.908C241.524 658.625 240.965 658.624 239.591 657.568C255.135 658.959 272.992 658.507 288.616 658.325L342.263 658.011C346.45 657.996 369.652 657.546 371.981 658.481C384.206 659.222 402.667 658.605 415.343 658.591L499.527 658.521L770.748 658.113C770.576 662.312 769.802 673.212 771.863 676.54L772.442 676.275C773.371 673.266 773.314 672.082 773.413 669.015L853.479 669.026C852.555 672.753 851.818 677.939 848.95 680.279C847.707 680.449 846.924 680.526 845.672 680.584C848.125 680.79 848.911 680.549 850.874 681.96C845.742 681.406 827.179 682.034 820.888 682.019L750.117 681.925L539.532 681.447C533.06 681.702 523.712 681.537 517.231 681.423L362.285 681.472L305.317 680.969C298.255 680.922 274.397 683.756 272.375 675.813C273.41 671.468 279.913 667.62 283.536 665.069L283.449 659.201C276.484 659.238 247.637 658.638 243.303 661.233C233.122 667.332 216.323 681.549 206.612 689.302C172.406 716.471 138.477 743.988 104.831 771.849C97.1339 778.211 82.7747 788.854 76.4745 795.278C76.0911 795.666 75.7142 796.06 75.3438 796.46L259.395 796.996C288.127 797.049 320.252 797.785 348.743 796.989C347.114 793.746 345.175 790.375 346.75 786.766C349.802 779.772 363.587 766.255 369.349 761.034C374.391 761.036 380.355 760.904 385.324 761.075C409.433 760.733 433.589 761.042 457.703 760.817C460.036 760.796 463.268 760.643 465.491 760.919C475.127 759.964 491.884 760.832 502.529 760.575C516.919 760.651 531.442 760.147 545.808 760.679C548.398 760.775 554.864 762.078 553.871 765.529C550.853 776.021 537.652 788.896 530.604 796.998C559.771 797.539 590.465 797.074 619.772 797.082L791.686 797.121C801.424 786.205 809.909 774.103 819.026 762.671C828.956 750.219 891.303 673.93 893.521 665.584C893.829 664.426 893.441 663.54 892.785 662.573C890.285 658.887 882.624 658.374 878.616 657.838C882.196 656.005 891.254 659.234 893.81 662.257C894.425 664.052 893.934 666.177 893.694 668.121L895.164 668.737C895.863 667.024 896.035 663.491 895.793 661.637L894.583 661.847L894.535 661.298C895.401 660.916 896.074 660.588 896.914 660.152C898.293 652.052 899.247 652.331 899.774 642.963L900.622 642.97C901.162 641.719 901.594 634.078 901.74 632.275L903.804 607.545L912.09 514.232L931.794 292.894C934.373 263.595 937.304 234.126 939.147 204.814C939.697 196.067 930.25 192.118 928.05 188.236L929.39 187.634C928.085 186.861 928.755 188.354 927.554 186.608Z"/><path fill="#CCC4BC" d="M75.5147 797.91L790.9 798.768C790.724 808.985 791.12 819.198 790.907 829.326C786.786 834.342 782.147 836.922 775.648 837.456C765.83 838.264 755.763 838.115 745.908 838.081L705.421 837.977L534.94 837.399L490.268 837.283C479.199 837.191 468.477 837.117 457.402 837.783C454.183 837.976 450.287 837.793 447.246 838.077C431.605 838.358 414.984 838.051 399.26 838.037C394.151 836.022 346.396 836.942 338.039 836.898L167.146 836.416C164.12 836.197 160.969 836.164 157.929 836.164C141.426 836.164 124.723 835.607 108.237 836.072C85.1087 834.026 75.2232 820.735 75.5147 797.91Z"/><path fill="#F6F6F6" d="M371.981 658.481C384.206 659.222 402.667 658.605 415.343 658.591L499.527 658.521L770.748 658.113C770.576 662.312 769.802 673.212 771.863 676.54L772.442 676.275C773.371 673.266 773.314 672.082 773.413 669.015L853.479 669.026C852.555 672.753 851.818 677.939 848.95 680.279C847.707 680.449 846.924 680.526 845.672 680.584C830.682 680.108 813.438 680.499 798.207 680.488L706.022 680.44L436.889 680.128C401.425 680.159 365.961 679.969 330.498 679.559C321.18 679.506 311.86 679.536 302.542 679.649C290.588 679.799 283.988 681.118 272.82 675.996C274.985 673.559 280.077 667.684 283.402 668.31C283.869 669.424 284.162 670.099 284.899 671.054C290.303 672.083 305.595 671.754 311.818 671.812C331.613 671.999 351.619 671.306 371.409 671.523C372.313 668.736 371.996 661.733 371.981 658.481Z"/><path fill="#373535" d="M385.324 761.075C409.433 760.733 433.589 761.042 457.703 760.817C460.036 760.796 463.268 760.643 465.491 760.919C471.304 761.643 505.153 760.569 507.342 762.398C514.461 762.635 547.187 761.074 550.889 764.366C551.6 764.998 551.789 765.277 551.796 766.207C551.837 771.239 532.046 792.718 527.829 796.815C494.938 797.395 460.049 796.685 427.028 796.597L381.561 796.478C373.405 796.454 364.285 796.714 356.496 796.271C335.504 795.076 359.004 774.912 363.643 769.322C368.239 763.785 371.928 762.76 377.983 762.53C380.869 762.118 382.457 761.884 385.324 761.075Z"/><path fill="#3B3B4E" d="M385.324 761.075C409.433 760.733 433.589 761.042 457.703 760.817C460.036 760.796 463.268 760.643 465.491 760.919C471.304 761.643 505.153 760.569 507.342 762.398C485.105 763.227 460.892 762.114 438.5 762.333C431.31 762.403 422.566 761.346 415.647 761.556C402.864 761.944 390.904 762.922 377.983 762.53C380.869 762.118 382.457 761.884 385.324 761.075Z"/><path fill="#F6F6F6" d="M929.39 187.634C932.217 187.998 934.508 188.088 937.069 189.493C945.305 194.013 947.661 199.562 947.22 208.494C946.602 221.034 945.481 233.391 944.364 245.88L939.618 298.567L924.822 460.076L913.373 587.815L909.99 627.931C909.277 636.357 908.556 644.75 907.404 653.132C906.765 657.788 902.606 664.374 897.829 665.37L896.876 665.047C896.144 662.536 899.548 654.467 899.954 651.29C900.326 648.385 900.549 645.934 900.622 642.97C901.162 641.719 901.594 634.078 901.74 632.275L903.804 607.545L912.09 514.232L931.794 292.894C934.373 263.595 937.304 234.126 939.147 204.814C939.697 196.067 930.25 192.118 928.05 188.236L929.39 187.634Z"/><path fill="#5D5E58" d="M285.081 659.076C313.434 659.184 341.788 659.089 370.139 658.79C370.197 661.889 369.99 669.236 371.409 671.523C351.619 671.306 331.613 671.999 311.818 671.812C305.595 671.754 290.303 672.083 284.899 671.054L288.127 670.719L287.544 670.119L287.123 670.674L286.107 670.76L286.79 669.428L286.525 668.915C284.547 665.005 284.987 663.516 285.081 659.076Z"/><path fill="#817E80" d="M108.237 836.072C124.723 835.607 141.426 836.164 157.929 836.164C160.969 836.164 164.12 836.197 167.146 836.416C160.108 836.977 145.812 836.469 138.333 836.577C131.746 836.672 113.807 836.868 108.237 836.072Z"/><path fill="#817E80" d="M517.231 681.423C521.879 680.629 535.168 680.428 539.532 681.447C533.06 681.702 523.712 681.537 517.231 681.423Z"/><path fill="#F6F6F6" d="M893.931 669.901C896.132 672.142 895.187 699.286 893.392 702.088C880.587 722.077 863.342 740.246 848.254 758.644L793.431 826.653C791.697 822.267 792.154 803.885 792.247 798.245C804.188 784.864 814.224 771.758 825.387 757.737L893.931 669.901Z"/><path fill="#383A54" d="M309.63 686.363C305.254 685.44 296.998 685.75 292.408 685.788L260.078 686.234C256.458 686.275 247.962 686.515 244.918 685.379C246.357 682.904 275.638 684.453 280.653 684.505L331.169 684.528L633.397 685.183C638.458 685.243 660.163 685.24 663.421 686.553C663.439 688.425 662.597 689.092 661.582 691.018L740.169 690.854C749.5 690.872 767.626 690.422 776.424 691.193C777.087 692.255 776.935 691.912 777.291 693.041C778.539 692.609 779.303 691.503 780.228 690.486C796.315 689.7 821.324 689.675 837.412 690.479C828.293 700.86 818.437 711.21 809.093 721.461C801.162 730.162 788.608 745.518 779.643 752.937C768.39 754.967 753.842 754.228 742.164 754.035C709.885 753.501 677.087 754.886 644.877 753.838L643.609 754.077C629.157 755.096 609.809 754.457 595.005 754.427L515.263 754.642L179.962 754.052C192.737 742.421 208.577 731.232 221.962 720.131C233.527 710.539 245.516 700.312 257.569 691.491C273.474 692.24 289.956 692.05 305.931 692.064L307.05 691.783C308.333 690.356 308.937 688.206 309.63 686.363Z"/><path fill="#CCC4BC" d="M309.844 686.321C314.958 685.316 340.165 685.949 346.714 685.964L423.666 685.927C424.349 687.478 425.141 689.125 425.673 690.719C420.167 693.772 388.464 691.291 380.351 692.013C378.2 692.204 370.682 691.919 368.485 691.644C367.518 690.381 367.445 689.738 367.014 688.23L366.181 687.777C365.052 688.845 364.311 690.43 363.87 691.91L363.433 693.166C354.807 692.838 345.794 693.233 337.091 693.117C332.42 692.541 321.162 693.398 317.561 692.64L317.846 692.091L310.647 692.023C310.29 690.044 310.079 688.321 309.844 686.321Z"/><path fill="#3B3B4E" d="M317.846 692.091C333.044 692.056 348.702 692.201 363.87 691.91L363.433 693.166C354.807 692.838 345.794 693.233 337.091 693.117C332.42 692.541 321.162 693.398 317.561 692.64L317.846 692.091Z"/><path fill="#CCC4BC" d="M301.794 698.314L301.449 699.011C300.717 700.472 299.423 701.636 299.497 703.214C300.279 704.548 300.26 704.434 301.682 705.097C302.886 705.241 304.088 705.402 305.287 705.58C303.939 707.258 295.198 713.582 293.233 714.968C272.44 715.138 251.646 715.163 230.853 715.044C235.294 711.381 239.91 707.75 244.41 704.146C261.22 703.646 278.798 704.099 295.75 703.942C297.978 701.666 299.304 700.329 301.794 698.314Z"/><path fill="#CCC4BC" d="M309.63 686.363L309.844 686.321C310.079 688.321 310.29 690.044 310.647 692.023L317.846 692.091L317.561 692.64C321.162 693.398 332.42 692.541 337.091 693.117C345.794 693.233 354.807 692.838 363.433 693.166C362.341 695.368 355.52 699.672 352.637 702.977C343.207 702.949 333.777 702.997 324.349 703.12C317.05 703.271 308.92 703.725 301.696 703.376L301.682 705.097C300.26 704.434 300.279 704.548 299.497 703.214C299.423 701.636 300.717 700.472 301.449 699.011L301.794 698.314L301.339 697.274C302.967 695.883 304.459 694.582 306.022 693.119L305.931 692.064L307.05 691.783C308.333 690.356 308.937 688.206 309.63 686.363Z"/><path fill="#40435D" d="M309.63 686.363L309.844 686.321C310.079 688.321 310.29 690.044 310.647 692.023L317.846 692.091L317.561 692.64C321.162 693.398 332.42 692.541 337.091 693.117C328.525 693.472 319.989 693.163 311.441 693.537C309.371 695.238 301.889 701.006 301.696 703.376L301.682 705.097C300.26 704.434 300.279 704.548 299.497 703.214C299.423 701.636 300.717 700.472 301.449 699.011L301.794 698.314L301.339 697.274C302.967 695.883 304.459 694.582 306.022 693.119L305.931 692.064L307.05 691.783C308.333 690.356 308.937 688.206 309.63 686.363Z"/><path fill="#CCC4BC" d="M258.477 693.044C274.087 693.324 290.905 692.565 306.022 693.119C304.459 694.582 302.967 695.883 301.339 697.274C299.352 698.72 296.699 700.992 294.731 702.585C278.586 702.373 262.13 702.525 245.961 702.516C250.08 699.29 254.253 696.132 258.477 693.044Z"/><path fill="#CCC4BC" d="M423.666 685.927C425.623 685.852 426.978 685.521 428.506 686.626C429.328 688.13 429.224 687.362 428.88 689.001C427.779 690.169 427.341 690.813 425.673 690.719C425.141 689.125 424.349 687.478 423.666 685.927Z"/><path fill="#CCC4BC" d="M643.609 754.077C646.178 749.38 648.022 748.338 652.244 745.182C649.668 749.043 648.461 750.696 644.877 753.838L643.609 754.077Z"/><path fill="#CCC4BC" d="M550.469 731.868C550.985 732.653 550.885 732.679 551.582 733.247L552.746 732.921C552.541 735.216 548.17 739.966 546.513 741.97C565.27 742.321 583.698 741.945 602.424 741.959C605.753 738.512 609.143 735.123 612.591 731.794C610.726 735.616 608.304 738.142 606.446 741.955C621.463 742.485 636.999 741.827 652.146 741.981C648.505 745.938 645.063 749.756 640.7 752.968C525.98 753.497 411.258 753.176 296.543 752.006C300.215 748.747 304.402 744.845 308.225 741.86C302.412 744.737 299.651 747.217 295.209 752.044C258.358 751.932 221.506 752.07 184.656 752.458C188.711 749.218 193.199 745.466 197.392 742.492C232.352 742.522 267.972 742.87 302.908 742.388C307.256 739.471 309.965 737.272 313.959 733.964C312.233 736.633 310.466 739.274 308.657 741.888C326.156 742.967 346.795 742.421 364.579 742.389L367.942 739.348L368.518 741.074L369.005 741.985C377.198 743.342 422.835 743.36 428.911 740.001L429.479 741.894C430.014 741.936 430.548 741.972 431.083 742.004C458.266 743.62 514.097 742.116 543.685 741.783C544.041 741.466 544.396 741.149 544.752 740.831L544.375 739.627C544.641 738.936 549.504 733.112 550.469 731.868Z"/><path fill="#40435D" d="M550.469 731.868C550.985 732.653 550.885 732.679 551.582 733.247C548.836 735.844 546.851 737.649 544.752 740.831L544.375 739.627C544.641 738.936 549.504 733.112 550.469 731.868Z"/><path fill="#CCC4BC" d="M776.568 693.361L776.213 693.743C774.289 695.782 766.712 700.787 770.004 703.85C775.442 704.217 783.592 703.84 789.326 703.772C800.204 703.574 811.084 703.635 821.958 703.956C814.634 712.995 806.757 721.615 798.799 730.101C792.704 736.6 786.546 745.09 779.461 750.312C775.223 753.436 762.241 752.57 756.975 752.511L733.018 752.47L649.843 752.502C652.811 749.273 656.859 746.691 654.785 742.475C656.23 741.594 658.949 741.98 660.899 741.944C664.563 737.764 666.615 734.967 671.47 732.257L672.335 731.765C672.514 731.668 672.692 731.571 672.871 731.474C670.368 734.983 667.192 738.598 664.978 741.847C681.898 742.272 699.948 742.047 716.933 741.94C720.998 737.618 724.909 733.358 729.27 729.327C728.308 732.588 723.98 738.312 721.876 741.324C738.563 742.908 767.576 742.013 785.123 741.977C787.999 739.385 798.533 731.219 796.177 727.233C792.066 725.59 741.008 726.765 733.329 727.103C721.527 726.993 719.896 728.007 717.729 716.098C726.982 715.423 742.761 717.365 749.754 715.482C751.803 713.58 753.384 712.193 755.567 710.424C755.517 712.662 755.562 713.797 755.093 715.957L806.72 715.964C803.093 719.555 799.768 722.552 797.086 726.954C800.154 725.043 808.996 718.777 808.571 714.94C805.349 712.898 763.892 714.454 756.84 714.586C759.535 711.749 762.411 708.873 764.708 705.724C763.242 704.641 762.273 704.389 761.957 703.041C765.27 699.766 772.305 695.477 776.568 693.361Z"/><path fill="#CCC4BC" d="M386.645 704.235C397.352 704.116 409.981 704.114 420.68 704.821C417.777 708.883 415.853 710.847 412.33 714.527C402.247 714.34 383.989 713.504 374.878 716.005C383.975 716.641 402.743 715.891 412.893 715.948C416.228 712.239 419.859 708.82 423.443 705.351C421.79 709.35 420.257 711.588 417.588 714.862C418.241 714.755 418.897 714.665 419.555 714.594C423.336 714.217 424.979 715.952 427.669 718.21C424.372 721.099 422.185 722.867 419.496 726.292C424.164 723.338 426.235 721.485 430.393 717.815C429.911 718.571 422.536 729.136 422.97 728.116C427.018 727.091 432.501 726.674 433.975 731.698C433.685 733.556 432.485 734.315 431.069 735.665C428.909 737.728 427.918 738.59 425.544 740.384C419.164 741.23 410.164 741.072 403.597 741.081L371.623 741C376.631 736.723 378.201 735.669 380.938 729.665C391.466 727.307 408.783 730.433 422.262 727.976C411.812 726.762 387.002 726.369 377.14 729.046C372.884 727.715 371.407 727.029 367.764 724.714C369.407 722.447 373.655 718.228 373.236 715.612C370.428 714.047 366.982 716.438 364.825 713.657C365.193 711.51 365.553 705.996 366.412 705.021C370.878 704.323 381.521 704.359 386.645 704.235Z"/><path fill="#CCC4BC" d="M306.495 722.005L306.835 722.69C305.721 724.833 304.13 725.839 302.239 727.393L302.363 727.811L306.626 727.31C309.202 728.962 311.836 730.139 314.589 731.468L303.066 741.037C274.029 741.631 243.057 741.083 213.863 741.085L198.416 741.002C203.401 737.041 208.183 733.235 213.336 729.489C240.907 729.068 268.429 729.622 296.032 729.422C299.556 727.002 303.045 724.529 306.495 722.005Z"/><path fill="#CCC4BC" d="M473.506 703.154L490.64 702.699C493.485 703.956 497.208 702.935 500.784 703.887C506.255 704.102 525.306 703.127 528.346 704.856C530.297 708.347 523.937 712.413 521.389 714.369C515.994 714.284 495.422 713.61 491.938 715.311C496.812 716.459 518.05 716.024 524.04 715.896L523.262 714.398C525.524 712.507 528.557 709.499 531.254 708.893L532.067 709.415L532.172 711.602L533.171 712.705C535.209 713.687 539.848 716.918 541.956 718.308C538.515 721.507 535.653 724.042 532.002 726.99C526.322 727.212 488.406 729.297 486.783 724.717C487.514 722.122 488.685 720.827 490.25 718.636C480.53 711.721 479.503 717.45 479.403 703.866C478.737 703.585 474.986 703.475 473.506 703.154Z"/><path fill="#CCC4BC" d="M523.262 714.398C525.524 712.507 528.557 709.499 531.254 708.893L532.067 709.415L532.172 711.602C528.593 714.2 527.955 715.253 523.262 714.398Z"/><path fill="#525355" d="M473.506 703.154L490.64 702.699C493.485 703.956 497.208 702.935 500.784 703.887C494.779 704.07 485.236 704.159 479.403 703.866C478.737 703.585 474.986 703.475 473.506 703.154Z"/><path fill="#DA7E60" d="M532.172 711.602L533.171 712.705C529.815 715.295 528.371 716.252 524.04 715.896L523.262 714.398C527.955 715.253 528.593 714.2 532.172 711.602Z"/><path fill="#CCC4BC" d="M621.383 704.236C629.225 704.089 637.068 704.006 644.912 703.987C643.302 705.692 637.342 711.477 638.845 713.73C641.984 712.203 643.844 708.279 646.426 707.133C646.203 709.942 640.884 712.23 643.815 715.291L644.836 715.303L646.656 713.049C651.118 713.948 646.644 716.332 657.158 716.063C653.014 719.968 651.261 722.416 647.948 727.037C639.105 727.042 630.263 727.071 621.438 727.713C616.164 728.096 612.285 728.347 607.079 727.235C601.798 724.712 603.265 721.683 603.932 716.53C609.723 716.187 636.939 716.391 639.183 715.282C633.73 712.717 603.64 716.174 595.918 714.607C593.644 714.146 592.141 713.465 590.02 712.576C590.326 711.37 591.442 707.635 591.098 706.403C590.794 705.315 590.532 706.792 589.952 704.685C593.018 704.247 616.629 704.318 621.383 704.236Z"/><path fill="#CCC4BC" d="M720.335 692.499C738.294 692.526 755.222 692.108 773.328 692.537C768.779 696.006 765.171 698.749 760.946 702.637C751.003 702.161 739.709 702.504 729.645 702.529C723.796 702.544 713.602 702.38 708.169 702.929L708.484 703.284C715.254 704.739 723.254 704.225 730.242 704.151C739.461 703.993 748.682 703.946 757.902 704.011C756.673 705.73 755.802 707.131 754.703 708.941L755.567 710.424C753.384 712.193 751.803 713.58 749.754 715.482L746.711 714.716L746.431 714.675C738.369 713.428 707.02 716.586 703.236 711.898C703.141 708.939 703.956 710.117 704.774 706.76C704.306 705.658 703.863 704.955 703.178 703.972C703.759 700.948 713.162 693.805 715.899 691.765C714.24 693.778 710.1 698.152 710.327 700.746C712.95 700.554 718.186 694.674 720.335 692.499Z"/><path fill="#DA7E60" d="M746.711 714.716C750.408 714.253 751.984 711.75 754.703 708.941L755.567 710.424C753.384 712.193 751.803 713.58 749.754 715.482L746.711 714.716Z"/><path fill="#CCC4BC" d="M368.33 693.08C387.432 692.858 405.463 693.562 424.85 692.949C421.175 696.354 417.411 699.662 413.562 702.869C401.155 702.457 388.952 702.945 376.558 703.155C370.123 703.264 363.333 703.657 356.942 703.206C359.305 705.496 360.339 705.734 359.697 708.954C357.565 711.059 355.651 712.32 353.227 714.025C339.11 713.958 324.099 713.329 310.32 716.077C308.635 714.795 308.224 714.95 307.696 713.328C309.154 710.488 309.369 708.475 309.927 705.381C313.553 703.997 347.669 704.404 353.368 704.401C354.459 702.982 355.202 701.629 357.217 701.742C362.428 698.505 363.927 697.158 368.33 693.08Z"/><path fill="#CCC4BC" d="M306.914 707.559L307.142 707.712C306.279 710.104 302.767 713.026 300.799 714.787C305.617 715.118 305.638 715.15 308.995 718.649C304.247 721.795 299.004 727.104 293.386 727.587C284.17 728.378 274.351 728.119 265.103 728.112L223.75 728.065L214.325 727.992C219.305 724.379 224.434 720.322 229.34 716.56C251.199 716.744 273.061 716.646 294.918 716.266C298.952 713.689 303.062 710.456 306.914 707.559Z"/><path fill="#CCC4BC" d="M730.476 728.553C752.389 728.386 774.304 728.332 796.218 728.392C793.405 731.666 790.748 734.505 787.763 737.629C782.897 741.984 768.384 740.3 761.749 740.222L725.635 740.003C728.826 736.251 732.913 733.299 730.476 728.553Z"/><path fill="#CCC4BC" d="M367.006 720.526C369.071 723.21 362.383 727.436 360.526 728.656C362.803 728.269 365.076 727.863 367.346 727.437C369.703 728.732 371.055 729.777 373.2 731.357C370.03 735.289 367.945 737.378 364.377 740.889C351.502 741.098 338.625 741.133 325.75 740.994L310.846 740.966C315.02 736.555 317.037 734.203 320.072 728.977C331.033 728.946 347.53 729.535 357.973 728.771C360.911 725.258 363.413 723.284 367.006 720.526Z"/><path fill="#CCC4BC" d="M654.941 721.265C656.303 721.809 657.789 724.078 658.589 725.311L658.444 725.888L655.151 726.764L655.056 727.381C659.435 731.328 662.784 722.701 668.136 732.731C665.465 735.237 662.964 737.872 660.419 740.506L628.506 740.458L609.813 740.523C612.242 737.112 616.331 732.406 619.068 729.05C629.073 728.805 639.082 728.752 649.089 728.893C651.32 725.348 652.138 724.36 654.941 721.265Z"/><path fill="#CCC4BC" d="M492.361 741.03C493.62 739.236 497.569 733.939 498.038 732.227C497.426 731.284 496.793 730.356 496.137 729.443C498.524 727.948 531.566 729.455 536.998 728.61C541.467 727.915 539.672 729.66 542.727 724.997C545.759 728.168 546.919 729.152 550.469 731.868C549.504 733.112 544.641 738.936 544.375 739.627C541.479 742.01 525.618 740.92 521.076 740.84C511.505 740.636 501.929 740.7 492.361 741.03Z"/><path fill="#CCC4BC" d="M691.529 715.981C694.638 712.136 696.978 708.998 701.222 706.377L701.564 706.742C699.556 711.001 697.688 711.805 695.409 717.176C697.428 715.543 698.761 713.969 701.138 713.71C702.735 714.491 702.737 714.693 703.821 716.062L715.936 716.013L711.752 719.761L713.402 720.087C713.063 722.607 712.566 726.574 709.508 726.782C696.125 727.696 683.604 725.649 670.359 728.974C665.93 726.653 663.824 725.915 660.7 721.944C661.489 719.959 662.454 717.839 663.305 715.861L661.566 714.681L669.149 714.601L669.51 715.351C672.636 715.682 683.238 714.973 684.371 715.891L691.529 715.981Z"/><path fill="#40435D" d="M661.566 714.681L669.149 714.601L669.51 715.351C672.636 715.682 683.238 714.973 684.371 715.891C678.878 716.25 668.927 716.07 663.305 715.861L661.566 714.681Z"/><path fill="#DA7E60" d="M711.752 719.761L713.402 720.087C711.987 721.496 710.588 723.23 708.646 723.329C709.08 721.762 710.46 720.89 711.752 719.761Z"/><path fill="#CCC4BC" d="M361.999 708.862L362.914 709.295C362.786 711.012 362.021 711.444 360.818 713.105L366.994 718.588C362.512 721.755 360.954 723.238 357.51 727.451C344.134 727.305 330.757 727.423 317.385 727.804C313.97 727.64 311.16 728.191 310.138 724.373C310.852 720.728 313.195 718.737 315.713 715.989C328.616 716.06 341.519 715.889 354.415 715.477C357.044 712.315 358.659 711.022 361.999 708.862Z"/><path fill="#CCC4BC" d="M599.368 723.964L599.806 724.625C599.634 725.72 599.583 726.203 599.545 727.31C600.73 728.042 607.629 729.736 609.47 730.249C607.27 734.983 605.195 736.774 601.599 740.501L556.776 740.518C555.24 740.571 554.073 740.79 552.723 740.121L552.556 739.242C553.014 737.999 557.757 732.574 559.08 730.838L550.773 729.279C564.266 728.247 580.933 728.462 594.491 728.425C596.472 726.172 596.931 725.687 599.368 723.964Z"/><path fill="#CCC4BC" d="M466.78 715.926C467.299 715.221 467.83 714.526 468.373 713.84C469.77 712.084 473.519 707.823 475.651 707.588C475.929 709.047 475.539 709.003 474.584 710.694L475.34 711.808C479.311 714.884 479.629 715.501 484.095 718.237C481.033 721.234 478.285 724.307 475.415 727.475C468.616 727.429 461.856 727.542 455.064 727.568C446.032 727.603 436.646 729.665 428.699 724.443C431.367 721.236 431.97 718.613 433.52 716.829C438.025 715.367 460.192 716.14 466.78 715.926Z"/><path fill="#3B3B4E" d="M474.584 710.694L475.34 711.808C473.668 713.642 472.318 715.301 469.836 715.624L469.727 715.161C471.543 713.634 472.895 712.34 474.584 710.694Z"/><path fill="#CCC4BC" d="M482.872 725.716C483.017 725.778 490.976 730.969 491.63 731.398C489.516 734.795 486.029 738.233 483.221 741.062L442.625 740.928L432.747 741.013C436.326 737.298 439.997 732.954 443.431 729.057C455.679 728.824 467.931 728.801 480.181 728.987C480.788 728.363 482.255 726.471 482.872 725.716Z"/><path fill="#CCC4BC" d="M715.462 728.218C718.18 727.96 723.762 728.34 726.583 728.477C723.067 732.894 720.306 736.342 716.398 740.451L681.75 740.349C677.698 740.385 674.315 740.266 670.263 740.04C672.859 736.183 675.538 732.384 678.299 728.644C690.289 728.094 704.055 729.206 715.462 728.218Z"/><path fill="#CCC4BC" d="M646.127 692.761L657.44 692.514C653.211 696.723 650.213 699.197 645.287 702.504C629.751 702.453 613.997 702.948 598.389 703.059L588.959 702.997C592.062 700.441 595.344 696.951 598.215 694.054C614.306 692.643 629.994 692.867 646.127 692.761Z"/><path fill="#CCC4BC" d="M589.597 714.605L590.51 714.575C592.442 715.581 595.597 717.038 596.473 718.968C595.518 720.154 595.273 720.347 594.637 721.758L595.063 722.346C596.501 721.378 596.996 720.875 598.727 720.643L598.987 721.156C592.57 730.114 571.698 726.444 561.151 727.265L560.439 727.323C557.065 727.658 550.502 728.836 547.976 727.122C546.011 723.981 547.542 721.077 547.514 716.832L547.505 716.162C559.68 715.087 579.813 717.416 589.597 714.605Z"/><path fill="#CCC4BC" d="M541.398 693.524C560.114 693.491 578.829 693.319 597.542 693.006C593.328 696.491 589.905 699.335 585.396 702.451C579.576 702.611 573.502 702.569 567.657 702.601L567.135 703.535C563.638 703.639 553.308 703.295 550.846 703.914C547.313 703.952 540.982 703.815 537.738 704.499L536.692 704.245C535.68 704.526 535.391 704.369 534.263 704.298C531.789 701.511 539.283 695.349 541.398 693.524Z"/><path fill="#3B3B4E" d="M536.692 704.245C542.5 701.684 560.302 702.513 567.657 702.601L567.135 703.535C563.638 703.639 553.308 703.295 550.846 703.914C547.313 703.952 540.982 703.815 537.738 704.499L536.692 704.245Z"/><path fill="#CCC4BC" d="M710.373 692.268C711.202 692.221 710.786 692.125 711.58 692.698C710.751 694.371 703.989 700.756 702.252 702.508C684.791 702.595 667.332 702.818 649.875 703.178L648.609 702.915C649.209 701.199 659.374 694.072 661.485 692.505C677.794 692.233 694.046 692.71 710.373 692.268Z"/><path fill="#CCC4BC" d="M781.87 691.987C798.952 691.723 816.931 691.875 834.017 691.993C830.41 695.211 826.521 699.599 823.171 703.188L822.608 703.429C816.892 700.364 781 701.935 771.297 701.973C774.923 698.331 777.913 695.308 781.87 691.987Z"/><path fill="#CCC4BC" d="M481.557 693.478C500.675 693.69 520.798 693.104 540.025 692.984C528.458 703.357 523.172 703.019 508.468 702.611C502.526 702.4 496.579 702.429 490.64 702.699L473.506 703.154C473.443 701.82 480.125 695.079 481.557 693.478Z"/><path fill="#CCC4BC" d="M550.846 703.914C557.013 703.919 579.402 703.533 584.423 704.305C586.31 708.94 582.887 711.072 579.79 714.136C572.624 714.519 565.435 714.326 558.259 714.305C549.252 714.279 542.306 716.313 534.369 710.839C535.241 708.017 535.483 706.518 537.738 704.499C540.982 703.815 547.313 703.952 550.846 703.914Z"/><path fill="#CCC4BC" d="M442.306 704.244C447.52 704.205 470.776 702.876 473.478 705.403C473.551 708.389 467.936 712.627 465.648 714.497L454.167 714.56C444.847 714.559 436.953 714.544 427.659 715.428L422.273 711.826C423.681 709.354 425.322 707.062 426.939 704.723C432.058 704.463 437.181 704.304 442.306 704.244Z"/><path fill="#CCC4BC" d="M477.813 693.727L478.189 693.936L478.107 694.75C475.446 698.411 473.231 700.352 469.314 702.545C458.828 702.511 448.342 702.673 437.862 703.032C431.528 703.189 424.671 703.61 418.406 702.96L417.608 702.69C418.458 700.513 425.823 695.581 428.131 693.89C442.637 693.038 462.312 694.091 477.813 693.727Z"/><path fill="#CCC4BC" d="M661.566 714.681C657.285 714.552 653.251 714.936 649.648 712.78C648.383 710.723 650.572 707.558 651.407 704.999C654.944 704.169 664.041 704.309 668.188 704.257L700.688 704.011C697.485 707.312 693.775 711.385 690.204 714.165C683.232 714.455 675.932 714.214 669.149 714.601L661.566 714.681Z"/><path fill="#CCC4BC" d="M431.875 686.006L488.992 685.945C487.007 687.488 485.218 689.175 483.359 690.866C478.339 694.06 438.179 692.452 428.907 692.379C430.497 689.658 430.84 689.018 431.875 686.006Z"/><path fill="#CCC4BC" d="M497.873 686.248C515.075 686.065 530.814 685.931 548.002 686.64C543.971 689.715 542.066 692.119 537.149 692.025C520.179 691.793 502.944 692.063 485.923 692.002L490.32 686.406L497.873 686.248Z"/><path fill="#CCC4BC" d="M548.639 686.548L605.384 686.635L601.474 691.409C595.23 692.276 585.841 692.074 579.365 692.082L544.964 692.013C546.529 690.028 547.336 688.678 548.639 686.548Z"/><path fill="#CCC4BC" d="M609.902 686.702C620.754 686.584 631.608 686.618 642.46 686.804C647.143 686.865 656.997 686.772 661.16 687.615L661.24 688.273C659.278 690.347 658.352 690.766 655.502 691.094C639.32 692.566 620.685 690.493 603.989 691.979C605.808 689.467 606.933 687.222 609.902 686.702Z"/><path fill="#CCC4BC" d="M484.576 720.463L484.99 720.94C484.689 724.41 480.487 726.824 477.639 728.061L477.197 727.728L477.251 726.875C479.156 724.532 482.162 722.367 484.576 720.463Z"/><path fill="#CCC4BC" d="M541.426 720.994C542.007 721.654 541.747 721.348 541.771 722.616C540.443 725.422 539.17 726.71 536.257 727.752C535.783 727.184 536.016 727.559 535.74 726.532C537.086 724.446 539.488 722.654 541.426 720.994Z"/><path fill="#CCC4BC" d="M428.911 740.001C431.855 736.351 434.831 734.21 438.54 731.427C435.564 735.074 432.609 738.392 429.479 741.894L428.911 740.001Z"/><path fill="#CCC4BC" d="M493.919 734.019C493.533 737.13 489.21 740.168 486.488 741.271L486.426 740.932C486.934 738.64 491.935 735.436 493.919 734.019Z"/><path fill="#817E80" d="M367.942 739.348C370.792 736.534 372.649 734.977 376.232 732.953C374.456 734.925 369.573 739.634 368.518 741.074L367.942 739.348Z"/><path fill="#CCC4BC" d="M760.2 705.332C761.032 706.247 760.733 705.871 761.037 707.248C760.604 709.052 759.578 709.822 758.283 711.187L757.63 710.244C757.975 708.186 759.002 707.065 760.2 705.332Z"/><path fill="#CCC4BC" d="M371.384 211.315C369.066 210.131 349.448 211.374 344.27 210.516C346.472 210.126 357.336 210.26 360.282 210.257L394.721 210.253L518 210.255L779.376 210L862.886 209.957C873.934 209.967 885.085 209.855 896.133 209.876C899.544 209.883 906.181 211.946 908.201 214.921L908.032 216.023C910.118 218.538 913.314 223.244 913.368 226.5C913.595 240.312 911.243 256.679 909.886 270.528L902.379 351.216L885.209 547.217C883.096 571.655 881.266 596.091 879.36 620.539C878.477 631.863 873.204 638.24 861.556 638.379C849.628 638.522 837.717 638.487 825.792 638.481L757.482 638.45L547.687 638.45L367.334 638.457L310.871 638.461C298.168 638.481 276.116 641.27 265.917 632.603C258.049 625.917 261.252 611.265 262.153 601.772L265.318 568.236L275.922 455.543L289.909 301.863L293.575 259.499C294.541 247.039 293.697 225.959 302.601 216.75C304.939 214.316 307.938 212.62 311.228 211.871C317.9 210.37 333.495 211.117 340.754 211.228C350.964 211.365 361.174 211.395 371.384 211.315Z"/><path fill="#525355" d="M371.384 211.315C369.066 210.131 349.448 211.374 344.27 210.516C346.472 210.126 357.336 210.26 360.282 210.257L394.721 210.253L518 210.255L779.376 210L862.886 209.957C873.934 209.967 885.085 209.855 896.133 209.876C899.544 209.883 906.181 211.946 908.201 214.921L908.032 216.023C905.87 214.153 903.226 211.868 900.288 211.675C893.352 211.219 886.174 211.414 879.215 211.458L847.643 211.522L735.486 211.468L371.384 211.315Z"/></svg>