<?xml version="1.0" encoding="utf-8" ?><svg xmlns="http://www.w3.org/2000/svg" xmlns:xlink="http://www.w3.org/1999/xlink" width="1243" height="1243" viewBox="0 0 1243 1243"><path fill="#7F5537" transform="scale(2.48665 2.48665)" d="M196.651 166.108C206.058 165.081 217.256 169.045 221.826 177.79C218.486 179.868 215.276 181.771 212.392 184.515C195.008 201.053 190.194 226.203 184.642 248.393C180.459 265.109 175.193 284.938 167.585 300.104C174.755 303.691 186.659 308.298 194.208 310.642C207.201 314.677 223.934 316.575 237.062 312.514C241.748 311.064 245.159 309.405 249.415 307.102C262.554 324.632 249.931 349.23 230.222 354.576C217.405 358.052 205.614 354.577 194.158 348.693C183.364 343.644 171.833 334.658 161.952 327.877C159.2 325.988 156.56 323.403 153.683 321.473C142.774 336.053 119.185 344.263 102.454 335.028C80.8145 323.085 88.7235 290.858 111.116 285.135C121.603 282.455 134.833 284.245 144.321 289.587C145.207 286.55 146.444 283.549 147.24 280.361C149.244 272.85 150.382 265.736 151.66 258.051C156.589 228.403 151.463 183.352 184.633 169.029C188.439 167.386 192.614 166.352 196.651 166.108ZM126.315 317.663C130.162 316.113 133.372 313.242 135.785 309.898C131.379 307.224 128.759 306.27 123.522 306.096C120.888 306.283 118.631 306.52 116.71 308.684C115.597 309.945 115.065 311.617 115.244 313.29C115.406 314.807 116.179 316.193 117.384 317.128C119.718 318.939 123.694 318.747 126.315 317.663Z"/><path fill="#7F5537" transform="scale(2.48665 2.48665)" d="M384.593 159.343C386.511 159.164 388.815 159.438 390.689 159.838C411.239 164.211 415.87 192.333 397.426 202.833C380.967 212.202 360.226 207.529 342.907 203.364C341.752 209.404 339.962 215.663 338.563 221.704C333.014 245.667 328.466 269.696 332.085 294.356C334.212 310.456 340.197 329.325 320.9 337.203C303.672 344.141 273.639 339.543 276.008 315.308C277.412 300.938 287.006 283.165 292.662 269.921C303.185 247.271 314.42 221.601 321.846 197.802C312.272 195.806 293.918 190.108 287.826 201.783C285.062 207.081 287.479 209.895 289.213 214.741L289.306 215.005C287.448 216.713 285.246 218.266 282.995 219.409C277.559 222.171 270.448 222.218 264.722 220.351C258.007 218.162 252.959 213.048 249.805 206.846C246.53 200.407 245.602 193.097 247.885 186.185C249.77 180.48 253.392 176.155 258.476 173.009C265.06 168.934 272.989 168.115 280.571 168.19C289.753 168.28 298.613 169.476 307.576 171.453C322.574 174.762 354.782 186.861 367.98 180.153C370.679 178.781 373.468 176.589 374.371 173.591C375.393 170.195 373.983 166.863 372.47 163.876C376.074 161.069 380.097 159.841 384.593 159.343Z"/><path fill="#7F5537" transform="scale(2.48665 2.48665)" d="M238.924 219.572C245.918 219.094 253.275 220.279 257.705 226.075C266.003 236.929 262.175 252.269 251.53 260.005C243.681 265.708 236.362 266.592 227.096 265.353C230.066 270.976 233.138 274.409 240.123 274.007C249.909 273.444 257.036 266.669 263.346 259.849C263.44 260.731 263.52 261.614 263.585 262.498C264.273 272.254 262.444 283.819 255.802 291.404C250.125 298.624 242.026 303.546 233.002 305.259C224.642 306.831 215.65 305.794 208.715 300.76C189.483 286.798 195.022 257.049 207.166 240.312C215.184 229.262 225.695 221.889 238.924 219.572ZM226.875 254.295C228.852 254.022 230.311 253.792 232.251 253.348C235.98 252.319 239.146 249.849 241.051 246.482C243.428 242.242 243.529 235.044 236.778 236.025C229.749 238.614 227.777 247.747 226.875 254.295Z"/></svg>