<svg width="72" height="176" viewBox="0 0 72 176" fill="none" xmlns="http://www.w3.org/2000/svg">
<path d="M25.7227 167.817L24.3251 155.58C20.8527 154.709 17.5002 153.416 14.3428 151.728C10.2672 149.571 8.35845 145.486 9.58068 141.551C10.0676 140.047 11.9276 134.091 13.7342 128.375C15.4823 122.853 23.5363 120.394 28.8781 123.758L30.9183 125.049C31.4053 125.341 31.8388 125.638 32.2721 125.93C32.6227 126.164 33.0804 126.471 33.3288 126.612C33.2174 125.815 33.0366 125.03 32.7883 124.265C30.5581 117.214 27.3589 110.275 24.2669 103.57C21.8663 98.3645 19.3683 93.0715 16.9628 87.9537C14.6693 83.0843 12.2929 78.0591 9.98963 73.0826C7.15503 67.057 4.72472 60.8494 2.71477 54.5009C0.947175 48.8135 0.557737 43.9197 1.49266 39.1136C2.66132 33.1048 6.02605 28.0942 11.324 24.3739C11.1974 23.2248 10.4863 17.0309 9.88739 11.7865C9.40045 7.54041 13.2278 3.61567 18.4381 3.02161L35.408 1.07385C40.5939 0.484648 45.2002 3.41603 45.7115 7.64754C46.291 12.4488 46.9532 17.9171 47.0798 18.9153C48.2436 19.2172 51.4623 20.7219 54.5154 22.2119C58.3087 24.0623 59.8718 27.9091 58.2162 31.4102L52.3924 43.8321C50.4447 47.9711 44.8009 50.1623 39.8877 48.6333L38.6461 48.2535C41.373 56.0445 44.9472 63.5629 48.7259 71.5049C49.3751 72.904 50.0389 74.3032 50.7174 75.7023C51.7594 77.9195 52.8062 80.1335 53.858 82.3442C57.4224 89.8577 61.1037 97.6244 64.5707 105.362C66.5938 109.963 68.3006 114.698 69.6788 119.532C71.5825 125.683 71.3837 132.293 69.1139 138.318C67.285 143.021 64.0899 147.07 59.94 149.941C60.1202 151.324 60.9383 158.107 61.6103 163.683C62.0972 167.939 58.2892 171.888 53.0644 172.487L36.0214 174.434C30.8209 175.024 26.2096 172.063 25.7227 167.817Z" fill="#169286" stroke="black" stroke-width="2" stroke-miterlimit="10"/>
<path d="M23.8618 132.402C25.0889 133.176 26.1212 133.955 27.2996 134.544C30.7805 136.312 34.8035 136.69 38.5527 135.601C41.8883 134.685 43.646 132.679 44.2498 129.928C44.8828 127.079 44.4642 124.314 43.6024 121.592C41.265 114.2 38.0074 107.091 34.7352 99.9909C30.0362 89.8041 25.1472 79.6807 20.4385 69.4987C17.751 63.7776 15.4428 57.8859 13.5288 51.8618C12.3358 48.0295 11.7272 44.1438 12.5014 40.1411C13.4266 35.3983 16.3968 31.7316 21.6461 29.3505C23.3698 28.5714 23.1071 29.0048 22.9171 27.4563C22.3766 22.5869 21.8068 17.6932 21.2469 12.8091L21.1446 11.8986L34.6912 10.3501C34.7253 10.6471 34.7546 10.9393 34.7887 11.2266C35.4363 16.2275 36.0887 21.2235 36.712 26.2243C36.7704 26.7113 37.014 26.8135 37.5691 26.8476C41.7909 27.0911 44.6734 27.8215 47.4149 29.3115C45.808 32.7542 44.1916 36.2115 42.6187 39.5665C40.9875 39.0796 39.4486 38.4563 37.8173 38.1057C35.5065 37.6278 33.1077 37.8135 30.8979 38.6413C28.2733 39.6152 27.0803 41.3779 26.7297 43.6179C26.3255 46.1938 27.0171 48.6041 27.8498 50.9999C31.2243 60.6997 35.86 69.9905 40.2765 79.3495C44.9122 89.176 49.6356 98.9781 54.0716 108.873C55.9491 113.142 57.5321 117.535 58.8095 122.02C60.1486 126.583 60.2216 131.272 58.454 135.942C56.9104 140.037 53.7892 143.105 49.2022 145.194C48.3695 145.573 48.1017 145.943 48.2283 146.727C48.9344 151.845 49.5673 156.953 50.2198 162.1C50.2782 162.587 50.3269 163.045 50.3853 163.561L36.6877 165.124L34.74 147.882C32.8506 147.594 31.0246 147.395 29.2521 147.029C26.2694 146.412 23.3923 145.363 20.7112 143.918C20.6182 143.864 20.5418 143.785 20.4903 143.691C20.4388 143.596 20.4141 143.49 20.419 143.382C21.5194 139.759 22.6785 136.141 23.8618 132.402Z" fill="#169286" stroke="black" stroke-width="2" stroke-miterlimit="10"/>
</svg>
