<svg width="150" height="130" viewBox="0 0 150 130" fill="none" xmlns="http://www.w3.org/2000/svg">
<path d="M42.3652 1H106.854C109.629 1 112.192 2.48034 113.579 4.88281L145.824 60.7314C147.211 63.1339 147.21 66.0946 145.823 68.4971L113.579 124.346C112.192 126.748 109.629 128.229 106.854 128.229H42.3652C39.5912 128.228 37.0277 126.748 35.6406 124.346L3.39648 68.4971C2.00941 66.0946 2.00941 63.1339 3.39648 60.7314L35.6406 4.88281C37.0277 2.48039 39.5912 1.00007 42.3652 1Z" fill="#90A8ED" stroke="black" stroke-width="2"/>
<path d="M115.606 19.584C116.618 33.6839 119.78 79.2674 121.649 97.1445L114.383 97.0908C114.211 91.2464 113.744 80.7127 113.11 69.2354L113.059 68.2969L112.119 68.29C110.756 68.28 109.1 68.2679 107.737 68.2578L106.809 68.251L106.733 69.1768C105.893 79.469 103.355 108.706 102.758 117.677L95.5713 117.624C97.8983 98.5115 102.548 41.8223 104.689 19.5029L115.606 19.584ZM96.5479 14.5498L96.4941 20.5527C96.1673 20.5411 95.8025 20.5306 95.4229 20.5234C94.4544 20.5051 93.3039 20.4972 92.2344 20.4893L91.252 20.4814L91.2275 21.4629C90.7887 38.712 90.6188 103.906 90.6982 117.608L83.376 117.554C83.6648 103.903 84.0159 38.6454 84.1699 21.4307L84.1797 20.4297L83.1777 20.4219C81.5225 20.4096 79.8086 20.3975 78.627 20.4238L78.6807 14.417L96.5479 14.5498ZM74.9688 14.4219L74.915 20.4434C73.1532 20.3668 71.7157 20.3202 70.4961 20.2832C69.041 20.2391 67.9113 20.2084 66.9023 20.1572L65.8613 20.1045L65.8516 21.1475C65.8353 22.9649 65.7941 29.2919 65.7529 35.6602C65.7117 42.0309 65.6711 48.4434 65.6533 50.4346L65.6436 51.4629L66.6719 51.4434C69.3422 51.3937 72.3537 51.3995 74.1172 51.3633L74.0615 57.5977C72.2634 57.5145 69.2436 57.4334 66.4912 57.4131L65.5029 57.4062L65.4844 58.3955C65.2941 68.7675 65.196 100.45 65.2031 110.546L65.2041 111.538L66.1953 111.545C68.7569 111.564 71.7175 111.512 74.9346 111.326L74.8799 117.491L57.8984 117.365C58.2189 100.24 58.4658 36.5419 58.4727 14.2998L74.9688 14.4219ZM109.05 25.8818C108.726 29.0586 108.401 35.8866 108.076 42.8818C107.75 49.9051 107.424 57.1151 107.098 61.1201L107.01 62.1934L108.087 62.2012C108.671 62.2055 109.28 62.2094 109.889 62.2139C110.497 62.2184 111.105 62.2232 111.689 62.2275L112.75 62.2354L112.696 61.1768C112.286 53.1057 111.768 31.9348 111.335 25.9141L111.269 24.9922L110.345 24.9854L110.053 24.9834L109.143 24.9766L109.05 25.8818Z" fill="#90A8ED" stroke="black" stroke-width="2"/>
<path d="M31.9873 19.8467C38.5248 20.1725 43.7122 21.6116 47.2842 24.292C50.9854 27.0695 53.0797 31.2753 53.0352 37.3584C52.9871 43.9071 49.8162 47.4777 46.3965 49.0947L45.8291 49.3633L45.8242 49.9912L45.8213 50.3115L45.8174 50.873L46.2939 51.1689C48.4778 52.5247 50.2933 55.0089 51.5537 58.6475C52.8125 62.2815 53.4909 66.9953 53.4492 72.6816C53.3838 81.5981 51.1383 87.9957 47.2334 92.1826C43.5231 96.1608 38.1883 98.2763 31.4102 98.5469C31.7864 72.1294 31.989 44.4526 31.9873 19.8467ZM38.9561 55.2559C38.7823 65.8235 38.7979 76.8312 38.7197 87.4883L38.7051 89.4512L40.3018 88.3086C44.0248 85.6424 46.7321 80.8304 46.7979 71.8721C46.839 66.2643 46.2147 62.2166 45.0957 59.4082C43.9678 56.5777 42.2953 54.9201 40.2383 54.3135L38.9775 53.9414L38.9561 55.2559ZM39.1396 30.1904C39.1029 35.2051 39.0629 40.6469 39.0215 46.3018L39.0127 47.5459L40.2295 47.2881C41.916 46.9297 43.4658 45.9732 44.5869 44.3682C45.7017 42.7721 46.3537 40.5927 46.374 37.8291C46.3898 35.6759 45.97 33.7986 44.9658 32.3037C43.9506 30.7927 42.4112 29.7804 40.4023 29.2334L39.1494 28.8916L39.1396 30.1904Z" fill="#90A8ED" stroke="black" stroke-width="2"/>
</svg>
