<svg width="152" height="140" viewBox="0 0 152 140" fill="none" xmlns="http://www.w3.org/2000/svg">
<path d="M149.294 138.175C92.4643 134.895 50.0793 133.421 4.87597 134.731L3.77441 134.764L3.8496 133.664C5.54439 108.928 8.92993 79.2909 11.6123 54.4082C7.53187 35.6409 4.84792 23.508 1.46094 5.50195L1.22168 4.23046L2.5127 4.31933C38.0779 6.7748 97.1257 5.62984 146.576 1.20508L147.745 1.10059L147.663 2.27148C145.685 30.4575 142.72 57.9867 139.756 85.6562C142.433 104.259 145.671 119.771 150.316 136.915L150.68 138.255L149.294 138.175Z" fill="#E54326" stroke="black" stroke-width="2"/>
<path d="M94.7061 17.793C96.9677 17.793 98.6162 18.4761 99.8633 19.791C101.146 21.1433 102.096 23.2618 102.722 26.3027C103.057 28.0665 103.22 30.2051 103.256 32.5078H97.4971C97.5291 30.4443 97.4502 28.6103 97.3076 27.2227L97.3057 27.2051L97.2285 26.5986C97.045 25.2301 96.8328 24.1863 96.5557 23.4482C96.2581 22.6559 95.7041 21.7725 94.626 21.7725C93.9523 21.7725 93.4746 22.201 93.1875 22.5576C92.8822 22.9368 92.6248 23.4367 92.4014 23.9883C91.9502 25.1021 91.5493 26.6539 91.2129 28.4951C90.5374 32.1924 90.0918 37.2315 90.0918 42.6807C90.0918 50.2862 90.5551 55.4898 91.2158 58.8174C91.5447 60.4735 91.9327 61.7201 92.3691 62.5781C92.5869 63.0061 92.8407 63.3862 93.1455 63.6709C93.4545 63.9594 93.874 64.2001 94.3848 64.2002C94.9438 64.2002 95.3773 63.9041 95.6738 63.5742C95.9654 63.2497 96.1969 62.8189 96.3906 62.332C96.7804 61.3524 97.1103 59.9007 97.3652 57.9082C97.8589 54.0494 98.0972 47.9476 97.8252 38.7881H103.695C104.029 49.7584 103.387 57.0777 101.774 61.6533C100.951 63.9892 99.9014 65.5338 98.6719 66.498C97.4559 67.4514 95.9747 67.9081 94.1445 67.9082C91.0151 67.9082 88.5 65.8968 86.7148 61.6016C84.922 57.2878 83.9805 50.8853 83.9805 42.6807C83.9805 34.5465 84.9614 28.2381 86.8359 24.001C88.6935 19.8023 91.3365 17.7931 94.7061 17.793ZM126.443 20.5391C124.234 23.5139 121.648 27.3204 119.391 31.0166L119.175 31.3701L119.272 31.7734C121.664 41.629 125.47 57.0223 128.334 67.2725L122.719 67.4717C121.578 62.5051 118.587 49.6156 116.236 39.9307L115.359 36.3174L114.306 39.8828C114.287 39.9452 114.255 40.0209 114.189 40.1689C114.135 40.2926 114.046 40.489 113.984 40.6982L113.944 40.834L113.943 40.9746C113.867 50.7679 113.937 60.9255 114.013 67.2285H108.319C108.395 55.2484 108.464 29.1061 108.326 18.2686H114.001C113.943 21.3163 113.943 25.587 113.943 30.3828L115.872 30.7539C117.599 26.4346 119.359 21.7392 121.249 17.8721L126.443 20.5391ZM25.4482 18.0908C30.8464 18.2739 35.1313 19.1634 38.085 20.8242C41.1457 22.5453 42.7949 25.0957 42.7949 28.752C42.7948 32.6247 40.3767 34.8408 37.5059 35.8994L36.8525 36.1406V37.6797L37.4307 37.9482C41.0039 39.6079 43.3574 44.0625 43.3574 51.2422C43.3573 56.7868 41.5758 60.7411 38.4277 63.3574C35.426 65.8521 31.054 67.2368 25.4473 67.4697C25.5951 50.8894 25.5957 33.5523 25.4482 18.0908ZM76.0508 18.2686C77.0007 28.7573 79.7919 53.9378 81.4531 67.2285H75.835C75.6439 62.7006 75.1867 54.7378 74.5889 46.0771L74.5244 45.1455H69.0518L68.9795 46.0684C68.3702 53.8653 67.9065 61.4774 67.5859 67.2285H62.0342C63.7441 53.5997 65.797 34.6105 67.3516 18.2686H76.0508ZM53.0889 18.2686C52.8796 27.3756 52.955 46.9753 53.0322 62.458L53.0371 63.4531H54.0322C55.5298 63.4531 57.1934 63.4015 58.9756 63.3057V67.2119C55.6347 67.1558 51.5842 67.1126 47.2656 67.2051C47.5403 55.6974 47.4047 28.1399 47.2549 18.2686H53.0889ZM31.1494 40.2227C31.069 46.9562 31.1494 53.9761 31.1494 60.7539V62.4541L32.6357 61.6279C34.1784 60.7703 35.57 59.5417 36.5674 57.75C37.5614 55.9642 38.1289 53.6818 38.1289 50.7666C38.1289 47.1498 37.5778 44.484 36.5762 42.6084C35.553 40.6925 34.0715 39.6297 32.3623 39.2578L31.1641 38.9971L31.1494 40.2227ZM70.668 22.877C70.1849 27.7133 69.7025 33.7026 69.2207 39.8848L69.1367 40.9629H74.2559L74.1875 39.8984C73.7854 33.6388 73.3025 27.5161 72.9004 22.8896L72.8213 21.9766H70.7588L70.668 22.877ZM31.1494 35.7109L32.3164 35.5127C33.6978 35.279 35.0226 34.6649 36.0049 33.5742C36.9958 32.474 37.5673 30.9678 37.5674 29.0918C37.5674 27.6189 37.1733 26.3064 36.248 25.2734C35.3342 24.2534 34.0024 23.619 32.3457 23.2871L31.1494 23.0469V35.7109Z" fill="#E54326" stroke="black" stroke-width="2"/>
<path d="M42.0117 73.6191C46.7719 73.8243 50.3373 74.8136 52.7324 76.5264C55.2363 78.317 56.5781 80.9825 56.5781 84.75C56.5781 88.4598 54.87 90.8866 52.6592 92.4219L52.1172 92.7979L52.25 93.4443C54.0524 102.199 56.9553 115.589 58.6455 122.824L54.0703 123.104C52.9846 116.537 50.7777 105.405 48.6357 95.3447L48.4033 94.251L47.3418 94.6045L47.1377 94.6729L46.459 94.8984L46.4541 95.6152C46.3897 106.234 46.4497 116.547 46.5137 122.751H42.0215C42.2652 111.51 42.2609 91.5568 42.0117 73.6191ZM74.2002 73.6523C78.4985 74.0134 82.0672 75.5211 84.6484 78.8564C87.4743 82.5079 89.2471 88.5116 89.2471 98.0674C89.247 106.344 87.585 112.524 84.7666 116.646C82.1777 120.434 78.5765 122.542 74.1992 122.955C74.3236 106.88 74.3243 88.8035 74.2002 73.6523ZM116.825 73.5547C117.575 77.444 118.708 82.9654 119.582 87.5205L119.738 88.332H121.665L121.819 87.5176C122.704 82.8415 123.877 77.4716 124.696 73.5557L128.643 73.7305C126.375 80.5495 124.451 86.9734 122.592 93.5127L122.554 93.6475V93.7861C122.554 101.016 122.613 117.104 122.732 122.751H118.134C118.295 116.818 118.231 99.5586 118.167 92.8262L118.166 92.6934L118.131 92.5664L117.49 90.3008C116.044 85.24 114.252 79.326 112.524 73.7354L116.825 73.5547ZM104.561 73.791C105.365 84.2905 107.729 109.472 109.134 122.751H104.686C104.524 118.224 104.137 110.266 103.632 101.61L103.576 100.668H98.6396L98.5781 101.603C98.063 109.394 97.6706 117.001 97.3994 122.751H93.0078C94.4542 109.127 96.1923 90.1362 97.5078 73.791H104.561ZM67.6553 73.791C67.5339 85.3984 67.5332 109.945 67.6553 122.751H63.1455C63.2097 109.953 63.2673 85.4012 63.1494 73.791H67.6553ZM36.0176 73.791V77.9365C34.9053 77.8948 33.9962 77.8674 33.2207 77.8477C32.2115 77.822 31.4452 77.8048 30.7461 77.7715L29.6982 77.7217V78.7705C29.6982 80.293 29.6811 81.8677 29.6641 83.4912C29.6471 85.1126 29.6299 86.782 29.6299 88.4863V89.5146L30.6582 89.4863C32.4115 89.4376 34.4374 89.4228 35.7451 89.3906V93.6885C34.4142 93.6396 32.4058 93.6016 30.5625 93.6016H29.5693L29.5625 94.5947C29.497 103.77 29.4954 113.643 29.6172 122.751H25.1162C25.2387 110.763 25.2385 89.8618 25.1143 73.791H36.0176ZM78.6475 80.123C78.5795 90.3876 78.5795 103.437 78.6475 115.535L78.6621 118.128L80.3926 116.196C83.5706 112.648 85.1318 106.212 85.1318 98.0674C85.1318 93.3589 84.7028 89.4468 83.9023 86.3506C83.1055 83.2684 81.9185 80.9099 80.3369 79.4053L78.6631 77.8125L78.6475 80.123ZM100.006 78.415C99.5973 83.2495 99.1889 89.2377 98.7812 95.4199L98.7109 96.4854H103.35L103.292 95.4307C102.952 89.1726 102.544 83.0513 102.204 78.4258L102.136 77.499H100.083L100.006 78.415ZM46.4541 91.1377L47.7959 90.6494C50.3541 89.7192 52.1914 87.5586 52.1914 84.8174C52.1914 83.3156 51.9181 82.0157 51.1436 80.9756C50.366 79.9318 49.1954 79.2994 47.7197 78.8936L46.4541 78.5459V91.1377Z" fill="#E54326" stroke="black" stroke-width="2"/>
</svg>
