<svg width="201" height="136" viewBox="0 0 201 136" fill="none" xmlns="http://www.w3.org/2000/svg">
<path d="M19.9537 64.8372C19.9537 70.6966 20.1054 75.9393 20.5604 81.0278C4.63501 93.5177 0.0848797 114.026 1.14657 131.604C6.1517 122.507 17.527 115.105 30.5707 111.559C41.7943 125.899 64.2416 132.067 107.164 131.758C182.393 131.45 199.229 114.951 199.229 65.6082C199.229 17.499 182.241 0.999999 107.164 0.999996C32.3907 0.999993 19.9537 18.27 19.9537 64.8372Z" fill="#F1F333" stroke="black" stroke-width="2" stroke-miterlimit="10"/>
<path d="M42.8518 95.6111C54.3184 93.663 60.333 85.2273 58.4756 69.6295C57.2956 59.7202 54.2724 53.3461 50.1828 51.3275L50.15 51.0522C52.8577 49.0715 55.05 45.2989 54.3399 39.335C53.0397 28.4165 45.5938 24.8326 34.5809 26.1547C37.3078 47.7866 40.225 72.2844 42.8518 95.6111ZM51.7221 69.9585C52.618 77.4822 51.0738 81.6272 48.7284 84.1152C47.6358 74.94 46.4363 65.5003 45.4288 56.4061C48.1238 56.8541 50.5858 60.4163 51.7221 69.9585ZM47.7174 40.7651C48.2528 45.261 46.6712 47.8246 44.5111 48.6989C43.932 43.836 43.3748 39.1567 42.8613 34.8443C45.7788 35.26 47.3022 37.2785 47.7174 40.7651Z" fill="#F1F333"/>
<path d="M54.6475 17.5417C56.8695 34.3 61.6965 74.2014 63.5412 92.228L70.7376 91.1811C68.2993 73.2408 63.6317 33.4096 61.8439 16.4948L54.6475 17.5417Z" fill="#F1F333"/>
<path d="M75.5844 19.8164C68.388 20.8633 66.9719 34.3238 69.5831 56.2526C72.249 78.6401 76.9165 91.2157 83.9645 90.1904C91.0125 89.1651 92.577 75.683 89.9111 53.2954C87.267 31.0914 82.7066 18.7804 75.5844 19.8164ZM83.0467 82.4832C81.7113 82.6774 79.2528 74.0743 77.0021 55.1734C74.7623 36.3642 75.2104 28.0849 76.5458 27.8906C77.8813 27.6964 80.2523 35.5655 82.4921 54.3747C84.7428 73.2757 84.3821 82.2889 83.0467 82.4832Z" fill="#F1F333"/>
<path d="M111.32 41.127C110.663 41.3158 108.734 41.5964 106.508 41.9202C104.06 42.2764 101.241 42.6865 100.562 42.6919L101.556 51.0413C102.139 50.8632 103.093 50.6312 105.307 50.2156C108.449 72.1606 107.592 78.9125 106.109 79.1283C104.551 79.355 102.201 71.6693 99.8524 51.9426C98.1261 37.4458 98.1982 24.7408 99.9788 24.4818C100.721 24.3739 101.456 25.4803 102.236 30.1273C102.712 32.8583 103.092 35.4165 103.313 37.9046L110.509 36.8578C110.343 34.8284 110.037 32.2594 108.983 27.8391C107.142 19.9861 103.765 15.7169 99.1657 16.386C91.4499 17.5085 89.7894 30.8178 92.2914 51.8291C95.0775 75.2259 100.053 87.85 107.026 86.8355C115.336 85.6267 115.569 70.4715 111.32 41.127Z" fill="#F1F333"/>
<path d="M42.8518 95.6111C54.3184 93.663 60.333 85.2273 58.4756 69.6295C57.2956 59.7202 54.2724 53.3461 50.1828 51.3275L50.15 51.0522C52.8577 49.0715 55.05 45.2989 54.3399 39.335C53.0397 28.4165 45.5938 24.8326 34.5809 26.1547C37.3078 47.7866 40.225 72.2844 42.8518 95.6111ZM51.7221 69.9585C52.618 77.4822 51.0738 81.6272 48.7284 84.1152C47.6358 74.94 46.4363 65.5003 45.4288 56.4061C48.1238 56.8541 50.5858 60.4163 51.7221 69.9585ZM47.7174 40.7651C48.2528 45.261 46.6712 47.8246 44.5111 48.6989C43.932 43.836 43.3748 39.1567 42.8613 34.8443C45.7788 35.26 47.3022 37.2785 47.7174 40.7651Z" stroke="black" stroke-width="2"/>
<path d="M54.6475 17.5417C56.8695 34.3 61.6965 74.2014 63.5412 92.228L70.7376 91.1811C68.2993 73.2408 63.6317 33.4096 61.8439 16.4948L54.6475 17.5417Z" stroke="black" stroke-width="2"/>
<path d="M75.5844 19.8164C68.388 20.8633 66.9719 34.3238 69.5831 56.2526C72.249 78.6401 76.9165 91.2157 83.9645 90.1904C91.0125 89.1651 92.577 75.683 89.9111 53.2954C87.267 31.0914 82.7066 18.7804 75.5844 19.8164ZM83.0467 82.4832C81.7113 82.6774 79.2528 74.0743 77.0021 55.1734C74.7623 36.3642 75.2104 28.0849 76.5458 27.8906C77.8813 27.6964 80.2523 35.5655 82.4921 54.3747C84.7428 73.2757 84.3821 82.2889 83.0467 82.4832Z" stroke="black" stroke-width="2"/>
<path d="M111.32 41.127C110.663 41.3158 108.734 41.5964 106.508 41.9202C104.06 42.2764 101.241 42.6865 100.562 42.6919L101.556 51.0413C102.139 50.8632 103.093 50.6312 105.307 50.2156C108.449 72.1606 107.592 78.9125 106.109 79.1283C104.551 79.355 102.201 71.6693 99.8524 51.9426C98.1261 37.4458 98.1982 24.7408 99.9788 24.4818C100.721 24.3739 101.456 25.4803 102.236 30.1273C102.712 32.8583 103.092 35.4165 103.313 37.9046L110.509 36.8578C110.343 34.8284 110.037 32.2594 108.983 27.8391C107.142 19.9861 103.765 15.7169 99.1657 16.386C91.4499 17.5085 89.7894 30.8178 92.2914 51.8291C95.0775 75.2259 100.053 87.85 107.026 86.8355C115.336 85.6267 115.569 70.4715 111.32 41.127Z" stroke="black" stroke-width="2"/>
<path d="M132.756 57.2197C134.831 46.2967 128.663 40.2044 117.763 37.73C113.462 61.5851 108.47 87.8684 105.56 101.988L112.53 103.457C113.834 96.1876 116.297 83.2165 118.874 69.6482C125.028 69.7911 131.087 66.0093 132.756 57.2197ZM126.08 55.8128C125.399 59.3969 123.412 61.0194 120.462 61.2853C121.289 56.9332 122.115 52.581 122.983 48.4151C125.886 50.0031 126.744 52.314 126.08 55.8128Z" fill="#F1F333"/>
<path d="M146.581 43.4479C139.465 41.9482 134.229 53.4474 130.355 73.8426C126.401 94.6645 127.181 107.432 134.151 108.9C141.121 110.369 146.504 98.9008 150.458 78.0789C154.38 57.4277 153.625 44.9321 146.581 43.4479ZM135.512 101.732C134.192 101.454 134.354 92.9679 137.692 75.3887C141.014 57.8949 143.835 50.6791 145.155 50.9574C146.476 51.2357 146.444 59.039 143.121 76.5328C139.783 94.112 136.833 102.01 135.512 101.732Z" fill="#F1F333"/>
<path d="M161.576 104.03C163.165 95.6666 161.661 62.6008 162.747 56.8833C163.039 55.3472 163.877 54.5477 164.978 54.7796C165.858 54.9651 166.862 55.7091 167.466 56.5464L171.403 50.2761C170.114 49.0282 168.222 47.7419 165.728 47.2163C161.105 46.2422 157.27 49.1615 156.184 54.879C154.823 62.0472 156.284 94.128 154.809 101.894C154.437 103.856 153.125 104.734 151.805 104.455C150.924 104.27 149.905 103.611 149.072 102.371L145.796 109.579C147.452 110.904 149.466 111.95 151.593 112.398C156.289 113.388 160.296 110.771 161.576 104.03Z" fill="#F1F333"/>
<path d="M186.04 60.4606L187.515 52.6951L172.548 49.5411L171.073 57.3066C171.75 57.3604 173.511 57.7315 175.271 58.1025C172.03 75.1697 166.511 103.827 164.355 114.378L171.398 115.862C173.277 105.164 178.633 76.5611 182.095 59.5404C183.709 59.8805 185.543 60.267 186.04 60.4606Z" fill="#F1F333"/>
<path d="M132.756 57.2197C134.831 46.2967 128.663 40.2044 117.763 37.73C113.462 61.5851 108.47 87.8684 105.56 101.988L112.53 103.457C113.834 96.1876 116.297 83.2165 118.874 69.6482C125.028 69.7911 131.087 66.0093 132.756 57.2197ZM126.08 55.8128C125.399 59.3969 123.412 61.0194 120.462 61.2853C121.289 56.9332 122.115 52.581 122.983 48.4151C125.886 50.0031 126.744 52.314 126.08 55.8128Z" stroke="black" stroke-width="2"/>
<path d="M146.581 43.4479C139.465 41.9482 134.229 53.4474 130.355 73.8426C126.401 94.6645 127.181 107.432 134.151 108.9C141.121 110.369 146.504 98.9008 150.458 78.0789C154.38 57.4277 153.625 44.9321 146.581 43.4479ZM135.512 101.732C134.192 101.454 134.354 92.9679 137.692 75.3887C141.014 57.8949 143.835 50.6791 145.155 50.9574C146.476 51.2357 146.444 59.039 143.121 76.5328C139.783 94.112 136.833 102.01 135.512 101.732Z" stroke="black" stroke-width="2"/>
<path d="M161.576 104.03C163.165 95.6666 161.661 62.6008 162.747 56.8833C163.039 55.3472 163.877 54.5477 164.978 54.7796C165.858 54.9651 166.862 55.7091 167.466 56.5464L171.403 50.2761C170.114 49.0282 168.222 47.7419 165.728 47.2163C161.105 46.2422 157.27 49.1615 156.184 54.879C154.823 62.0472 156.284 94.128 154.809 101.894C154.437 103.856 153.125 104.734 151.805 104.455C150.924 104.27 149.905 103.611 149.072 102.371L145.796 109.579C147.452 110.904 149.466 111.95 151.593 112.398C156.289 113.388 160.296 110.771 161.576 104.03Z" stroke="black" stroke-width="2"/>
<path d="M186.04 60.4606L187.515 52.6951L172.548 49.5411L171.073 57.3066C171.75 57.3604 173.511 57.7315 175.271 58.1025C172.03 75.1697 166.511 103.827 164.355 114.378L171.398 115.862C173.277 105.164 178.633 76.5611 182.095 59.5404C183.709 59.8805 185.543 60.267 186.04 60.4606Z" stroke="black" stroke-width="2"/>
</svg>
