<svg width="121" height="156" viewBox="0 0 121 156" fill="none" xmlns="http://www.w3.org/2000/svg">
<path d="M119.761 1V85.6758H94.9268V101.744H75.4492V119.274H61.8154V136.804H36.4941V154.334H1V69.6582H27.7812V52.1289H55.0508V34.5986H69.6582V17.0693H85.2402V1H119.761Z" fill="#F1F333" stroke="black" stroke-width="2"/>
<path d="M92.6387 9.21484C98.8789 9.65841 104.107 11.7747 107.867 16.6328C111.873 21.8092 114.342 30.2594 114.342 43.5811C114.342 55.1325 112.025 63.8125 108.046 69.6328C104.296 75.1186 99.0315 78.124 92.6377 78.6094C92.8151 56.0044 92.8158 30.4986 92.6387 9.21484ZM99.6055 18.6357C99.511 32.9047 99.511 51.0461 99.6055 67.8643L99.6201 70.458L101.35 68.5264C105.668 63.7055 107.84 54.8819 107.84 43.5811C107.84 37.056 107.246 31.6527 106.144 27.3896C105.045 23.1401 103.419 19.9388 101.294 17.917L99.6201 16.3252L99.6055 18.6357Z" fill="#F1F333" stroke="black" stroke-width="2"/>
<path d="M42.248 59.4023C42.0525 76.5059 41.6007 97.8474 41.6934 110.271V110.286L41.6943 110.3C41.7874 112.905 41.7895 114.093 41.8838 116.167V116.18C41.9818 117.846 42.2803 119.086 42.8154 119.937C43.3994 120.864 44.2381 121.278 45.1494 121.278C45.5991 121.278 46.0768 121.197 46.5342 120.963C46.9968 120.726 47.3826 120.359 47.6855 119.876C48.2675 118.948 48.5569 117.57 48.6055 115.675V115.662C48.7901 101.35 48.7039 73.971 48.4355 59.4023H55.4736C55.3021 73.4522 55.3916 97.1953 55.3916 110.926C55.3916 117.832 54.4892 122.262 52.7842 124.949C51.1512 127.523 48.6895 128.63 45.0557 128.63C42.1215 128.63 39.9603 127.697 38.4268 126.122C36.9707 124.627 35.9994 122.469 35.5488 119.749L35.4658 119.198C35.0016 115.668 34.9082 112.694 34.9082 109.981C34.9082 95.7093 35.2684 74.288 35.1963 59.4023H42.248Z" fill="#F1F333" stroke="black" stroke-width="2"/>
<path d="M68.7363 43.1758C68.5622 59.2603 68.5614 94.1926 68.7363 112.025H61.6826C61.7733 94.2012 61.858 59.2632 61.6875 43.1758H68.7363Z" fill="#F1F333" stroke="black" stroke-width="2"/>
<path d="M82.3369 24.7109C82.0809 37.1777 82.1709 64.7722 82.2627 86.5352L82.2666 87.5312H83.2627C85.0733 87.5312 87.0904 87.459 89.2529 87.3184V93.541C85.243 93.4604 80.3446 93.3974 75.1201 93.5342C75.4574 77.6479 75.2921 38.1882 75.1123 24.7109H82.3369Z" fill="#F1F333" stroke="black" stroke-width="2"/>
<path d="M9.03613 78.8594C15.4641 79.0974 20.5744 80.3315 24.1016 82.6758C27.745 85.0975 29.7959 88.7635 29.7959 94.0762C29.7959 99.772 26.7696 102.935 23.4053 104.401L22.8057 104.663V106.193L23.3242 106.478C27.6356 108.845 30.457 115.228 30.457 125.345C30.457 133.195 28.3131 138.832 24.5332 142.545C20.9297 146.085 15.7049 148.008 9.03613 148.305C9.21414 124.991 9.21376 100.578 9.03613 78.8594ZM16.0977 110.031C16.0031 119.389 16.0977 129.138 16.0977 138.57V140.424L17.6475 139.405C21.3006 137.004 23.9551 132.679 23.9551 124.684C23.9551 119.704 23.3115 116.095 22.1777 113.585C21.029 111.042 19.3518 109.588 17.3467 109.072L16.1113 108.755L16.0977 110.031ZM16.0977 103.326L17.2939 103.087C18.9261 102.76 20.4477 101.908 21.5537 100.457C22.6576 99.0082 23.2939 97.0339 23.2939 94.5488C23.2939 92.6092 22.8591 90.9096 21.8389 89.5635C20.8141 88.2115 19.2866 87.332 17.3281 86.8682L16.0977 86.5771V103.326Z" fill="#F1F333" stroke="black" stroke-width="2"/>
</svg>
