<svg width="154" height="116" viewBox="0 0 154 116" fill="none" xmlns="http://www.w3.org/2000/svg">
<path d="M78.6719 1.00652C15.2041 1.27434 1 15.5709 1 58.3389C1 100.036 15.3307 114.337 78.6719 114.337C141.76 114.352 152.253 99.3685 152.253 59.0255C152.253 16.798 141.76 0.626709 78.6719 1.00652ZM127.488 71.6664C124.719 71.6664 122.012 70.8454 119.71 69.3071C117.408 67.7688 115.613 65.5824 114.554 63.0243C113.494 60.4662 113.217 57.6514 113.757 54.9357C114.297 52.2201 115.631 49.7256 117.589 47.7677C119.546 45.8099 122.041 44.4765 124.757 43.9364C127.472 43.3962 130.287 43.6734 132.845 44.733C135.403 45.7926 137.59 47.587 139.128 49.8892C140.666 52.1914 141.487 54.898 141.487 57.6669C141.49 59.507 141.13 61.3295 140.427 63.0303C139.725 64.731 138.694 66.2766 137.394 67.5787C136.093 68.8807 134.549 69.9136 132.85 70.6184C131.15 71.3232 129.328 71.6859 127.488 71.6859V71.6664Z" fill="#F1F333" stroke="black" stroke-width="2" stroke-miterlimit="10"/>
<path d="M23.2129 15.2109C37.3926 15.469 46.2987 19.7687 46.2987 29.9944C46.2987 35.5797 42.9486 38.7594 39.2089 40.2202V40.4783C44.0783 45.036 46.9707 50.4849 46.9707 62.5756C46.9707 88.7876 38.0597 99.0231 23.2129 99.2812C23.3979 77.4565 23.3979 35.4969 23.2129 15.2109ZM32.4063 44.5199C32.3137 53.0267 32.4063 61.8793 32.4063 70.4738C35.7613 68.4968 38.347 64.8886 38.347 57.8426C38.3422 48.9023 35.7565 45.3185 32.4015 44.5199H32.4063ZM32.4063 24.3216V37.2986C35.2841 36.7824 37.6799 34.635 37.6799 30.423C37.675 27.1605 36.0438 25.0958 32.4015 24.3216H32.4063Z" fill="#F1F333" stroke="black" stroke-width="2" stroke-miterlimit="10"/>
<path d="M60.4365 62.6532C60.5338 65.0587 60.5339 66.091 60.6313 67.9803C60.8212 70.902 61.7805 71.7639 62.9296 71.7639C64.2687 71.7639 65.3253 70.9069 65.4227 67.5518C65.6126 54.2291 65.5153 28.4457 65.228 15.4492H74.4262C74.2363 28.1097 74.3289 69.4363 74.3289 82.2428C74.3289 94.8789 70.6915 99.2614 62.8323 99.2614C56.4144 99.2614 52.9669 95.5655 52.1196 89.8927C51.6327 86.6253 51.5449 64.8688 51.5449 62.3757C51.5449 49.053 51.9248 29.03 51.8323 15.4492H61.0256C60.8211 31.1969 60.3439 51.1614 60.4365 62.6532Z" fill="#F1F333" stroke="black" stroke-width="2" stroke-miterlimit="10"/>
<path d="M105.507 15.4698C102.059 24.6681 99.1768 33.2626 96.4061 42.0275C96.4061 51.8247 101.446 93.4386 101.636 98.9362H85.187C85.4743 93.1806 87.4951 49.9354 87.3977 40.8247C85.0994 33.433 81.9391 24.0643 78.9688 15.4698L88.0696 15.1289C89.1263 20.1103 90.85 27.5897 92.1891 33.8615H92.5738C93.9129 27.5021 95.7341 20.1103 96.8833 15.1289L105.507 15.4698Z" fill="#F1F333" stroke="black" stroke-width="2" stroke-miterlimit="10"/>
</svg>
