<svg width="170" height="159" viewBox="0 0 170 159" fill="none" xmlns="http://www.w3.org/2000/svg">
<path d="M126.062 150.547C111.609 158.78 90.8285 160.773 71.5488 149.616C65.8195 154.922 56.4996 156.391 48.7715 154.593C44.7563 153.658 41.0688 151.822 38.4746 149.075C36.0539 146.512 34.62 143.187 34.7539 139.187C13.9061 136.374 0.0632358 107.645 16.1484 86.0303C-1.84776 71.7721 -3.04677 48.9502 8.51954 31.2402C20.201 13.3541 44.835 0.692634 78.292 6.75097C83.4618 1.5685 92.0104 0.221309 99.5801 1.39257C103.487 1.99711 107.221 3.28184 110.213 5.13378C112.91 6.80333 115.07 8.97687 116.141 11.5879C133.346 8.45601 149.1 15.3137 157.908 26.6709C166.723 38.0367 168.548 53.8779 157.998 68.5312C167.761 75.6489 169.935 86.4858 166.623 95.8506C163.354 105.094 154.751 112.901 142.934 114.385C148.56 128.243 140.184 142.502 126.062 150.547Z" fill="#90A8ED" stroke="black" stroke-width="2"/>
<path d="M27.2377 49.2413C27.8541 70.6877 26.3594 77.2878 25.0096 77.2889C23.6598 77.2899 21.9305 71.3671 21.9177 54.6446C21.9085 42.7214 23.5505 32.6716 25.2003 32.6704C25.9502 32.6698 26.4011 34.0192 26.7789 37.6934C26.9302 39.418 27.007 41.8176 26.9341 44.5173L34.208 44.5117C34.2057 41.5121 34.0536 38.6627 33.6768 36.3383C32.4717 29.4403 29.9195 26.0677 25.2702 26.0713C17.9963 26.0769 14.3299 36.5781 14.3438 54.6504C14.3578 72.8727 17.8905 83.5934 24.7895 83.5881C32.2884 83.5823 35.356 74.6563 34.5866 49.2357L27.2377 49.2413Z" fill="#90A8ED" stroke="black" stroke-width="2"/>
<path d="M48.7594 17.7959C41.4855 17.8015 38.4941 28.4522 38.5079 46.3745C38.5219 64.6718 41.6796 75.3178 48.8036 75.3123C55.9275 75.3068 59.0688 64.656 59.0548 46.3587C59.0408 28.2114 55.9583 17.7904 48.7594 17.7959ZM48.7987 69.0132C47.4489 69.0143 46.0186 61.8165 46.0067 46.3688C45.9949 30.9961 47.4146 24.396 48.7644 24.3949C50.1142 24.3939 51.5441 30.9918 51.5559 46.3645C51.5678 61.8122 50.1485 69.0122 48.7987 69.0132Z" fill="#90A8ED" stroke="black" stroke-width="2"/>
<path d="M55.6857 136.913C55.68 129.564 48.0099 101.899 48.006 96.8744C48.005 95.5246 48.6793 94.6992 49.8041 94.6983C50.704 94.6976 51.8291 95.1467 52.5795 95.746L55.2745 89.7449C53.7741 88.9211 51.6738 88.1728 49.1242 88.1748C44.3999 88.1784 41.1778 91.3304 41.1816 96.3547C41.1865 102.654 48.631 129.494 48.6362 136.318C48.6376 138.043 47.5135 139.018 46.1637 139.02C45.2638 139.02 44.1387 138.646 43.0882 137.747L41.2186 144.423C43.0939 145.246 45.269 145.769 47.4437 145.768C52.243 145.764 55.6902 142.837 55.6857 136.913Z" fill="#90A8ED" stroke="black" stroke-width="2"/>
<path d="M69.211 78.9881C61.9371 78.9945 58.9457 91.0658 58.9595 111.379C58.9735 132.117 62.1312 144.182 69.2552 144.176C76.3791 144.17 79.5204 132.099 79.5064 111.361C79.4924 90.7929 76.4099 78.9819 69.211 78.9881ZM69.2503 137.037C67.9005 137.038 66.4702 128.88 66.4583 111.372C66.4465 93.949 67.8662 86.4685 69.216 86.4673C70.5658 86.4662 71.9957 93.9441 72.0075 111.367C72.0194 128.875 70.6001 137.036 69.2503 137.037Z" fill="#90A8ED" stroke="black" stroke-width="2"/>
<path d="M93.5586 76.2285C86.2847 76.2347 83.2935 88.306 83.3074 108.619C83.3217 129.357 86.4795 141.423 93.6035 141.417C100.727 141.411 103.869 129.339 103.854 108.601C103.84 88.0334 100.758 76.2223 93.5586 76.2285ZM93.5986 134.277C92.2488 134.279 90.8184 126.121 90.8063 108.612C90.7943 91.1893 92.214 83.7089 93.5638 83.7077C94.9136 83.7065 96.3435 91.1845 96.3555 108.608C96.3675 126.116 94.9483 134.276 93.5986 134.277Z" fill="#90A8ED" stroke="black" stroke-width="2"/>
<path d="M121.525 86.9781C121.606 94.9269 122.139 105.575 122.448 117.123C122.449 118.098 122.525 119.523 122.601 121.097L122.451 121.172C122.149 118.473 121.772 115.624 121.32 112.924C119.511 101.078 118.153 90.6552 117.776 86.8311C116.426 86.9821 110.652 86.9865 109.002 86.9878C109.165 104.61 109.112 131.981 109.045 143.229L116.094 143.224C115.937 133.85 115.629 123.727 115.171 112.779C115.094 110.68 114.942 107.605 114.789 104.306L114.939 104.306C115.316 106.855 115.693 109.554 116.22 112.328C118.48 125.225 121.116 139.546 121.793 143.22C121.943 143.144 127.867 143.14 128.092 143.215C127.784 132.117 127.988 104.671 128.274 86.973L121.525 86.9781Z" fill="#90A8ED" stroke="black" stroke-width="2"/>
<path d="M88.7413 15.3913C87.9164 15.392 81.9922 15.3215 81.3173 15.2471C80.7956 19.4468 78.4817 33.4715 76.9895 43.3712C75.4068 33.024 73.1475 20.4276 72.3186 15.254C71.6438 15.4045 65.1948 15.4094 64.7449 15.4098C64.3106 35.8071 63.8784 58.904 63.3633 71.6525L70.4122 71.6471C70.4825 65.4979 70.4759 56.9492 70.3948 49.0004C70.3155 43.3013 70.2349 36.1025 70.1551 29.8035L70.305 29.7284C71.7393 42.0254 73.1744 55.5223 74.5329 66.8446C75.6577 66.7687 77.4574 66.7674 78.8073 66.8413C79.9993 56.6419 81.2632 42.4681 82.8284 30.0937L82.9785 30.1686C82.9085 36.6927 82.7646 44.5666 82.9182 49.3658C83.001 59.4892 82.7048 64.3637 82.6354 71.6377L89.7593 71.6322C89.4495 58.8093 88.9073 36.3131 88.7413 15.3913Z" fill="#90A8ED" stroke="black" stroke-width="2"/>
<path d="M95.8086 11.0143C95.9683 23.6123 95.9159 53.083 95.8518 67.2559L103.051 67.2504C102.89 53.0776 102.867 23.607 103.008 11.0088L95.8086 11.0143Z" fill="#90A8ED" stroke="black" stroke-width="2"/>
<path d="M119.578 23.1871C119.659 31.1359 120.192 41.7839 120.501 53.3319C120.502 54.3068 120.578 55.7315 120.654 57.3062L120.504 57.3813C120.202 54.682 119.825 51.8327 119.373 49.1334C117.564 37.2866 116.206 26.8642 115.828 23.04C114.479 23.1911 108.704 23.1955 107.055 23.1968C107.218 40.819 107.164 68.19 107.098 79.4384L114.147 79.4329C113.99 70.0595 113.682 59.9362 113.224 48.9882C113.147 46.8885 112.995 43.8141 112.842 40.5147L112.992 40.5146C113.369 43.0639 113.746 45.7633 114.273 48.5374C116.533 61.4338 119.168 75.7546 119.846 79.4286C119.996 79.3535 125.92 79.3489 126.145 79.4237C125.837 68.3256 126.04 40.8795 126.327 23.1819L119.578 23.1871Z" fill="#90A8ED" stroke="black" stroke-width="2"/>
<path d="M151.278 49.7986C150.604 49.8741 148.654 49.8756 146.404 49.8773C143.93 49.8792 141.08 49.8814 140.405 49.8069L140.41 56.6309C141.01 56.5555 141.985 56.4797 144.235 56.403C144.773 74.3999 143.128 79.7254 141.628 79.7265C140.053 79.7278 138.623 73.2798 138.611 57.1572C138.602 45.309 140.169 35.1093 141.969 35.1079C142.718 35.1073 143.319 36.0817 143.547 39.906C143.699 42.1555 143.775 44.2552 143.702 46.2799L150.976 46.2743C151.05 44.6245 151.048 42.5248 150.52 38.8508C149.615 32.3275 146.763 28.5052 142.113 28.5088C134.315 28.5148 131.098 39.0157 131.111 56.1881C131.126 75.3103 134.584 86.031 141.633 86.0256C150.031 86.0191 152.047 73.8694 151.278 49.7986Z" fill="#90A8ED" stroke="black" stroke-width="2"/>
</svg>
