<svg width="175" height="147" viewBox="0 0 175 147" fill="none" xmlns="http://www.w3.org/2000/svg">
<path d="M75.0236 145.428C124.065 141.152 152.49 115.619 150.828 95.8629C149.315 77.9193 137.396 79.5656 136.819 72.8789C135.905 62.3009 170.365 64.5564 173.39 32.5712C178.27 -19.0199 18.5042 -9.23829 2.13211 75.669C-6.23301 119.05 33.1286 149.106 75.0236 145.428Z" fill="#90A8ED" stroke="black" stroke-width="2" stroke-miterlimit="10"/>
<path d="M35.7422 36.7227C36.6885 36.4955 37.4383 36.4888 38.0342 36.6357C38.6151 36.779 39.1061 37.0816 39.5322 37.5762C40.3706 38.5493 40.978 40.2897 41.2764 42.999L41.332 43.5537C41.472 45.3767 41.4166 47.6575 41.2324 50.1377L36.7168 51.2207C36.8954 49.2526 36.9752 47.5248 36.9727 46.2158V46.2012L36.9395 45.0352C36.8931 43.9514 36.8054 43.112 36.6572 42.5078C36.5618 42.1188 36.4103 41.6861 36.1143 41.3604C35.9523 41.1822 35.7363 41.0242 35.4629 40.9404C35.1899 40.8569 34.9259 40.8675 34.6992 40.9219C34.3766 40.9993 34.1303 41.1793 33.958 41.3418C33.7812 41.5086 33.63 41.7076 33.5 41.9092C33.2404 42.3118 32.9963 42.834 32.7666 43.4287C32.3042 44.6259 31.8396 46.2705 31.4004 48.2178C30.5199 52.1215 29.7171 57.3589 29.2549 62.9336C28.6093 70.7195 28.5585 75.9474 28.834 79.2148C28.9706 80.836 29.1928 82.0437 29.4971 82.8555C29.6464 83.2539 29.8483 83.6471 30.1436 83.9375C30.4732 84.2617 30.9635 84.486 31.5273 84.3506C32.0388 84.2276 32.3823 83.848 32.5986 83.5391C32.8349 83.2016 33.0473 82.7634 33.2441 82.2471C33.64 81.2089 34.0353 79.6881 34.4189 77.6016C35.1687 73.5237 35.896 67.142 36.4463 57.6426L41.0723 56.5322C40.4181 67.5102 39.2594 75.081 37.502 80.1113C35.6827 85.3184 33.3045 87.5994 30.3711 88.3037C29.083 88.613 28.0985 88.367 27.2891 87.6807C26.4267 86.9492 25.6629 85.6303 25.0889 83.6055C23.9419 79.5595 23.6865 73.1794 24.3857 64.7461C25.0775 56.4035 26.4472 49.6856 28.4238 44.8877C30.4146 40.0557 32.9196 37.4004 35.7422 36.7227ZM47.3672 34.2266C52.2956 33.2211 55.8121 33.383 58.0078 34.5352C59.1247 35.1213 59.9225 35.974 60.418 37.1279C60.9218 38.3015 61.1347 39.8401 60.9717 41.8057C60.6513 45.6681 58.6815 48.6887 56.2295 50.8926L55.8418 51.2422L55.9053 51.7598C56.9768 60.4055 58.7723 73.6515 59.8438 80.5977L55.168 82.0068C54.6239 75.4965 53.3849 64.8323 52.1211 55.2119L51.9287 53.7412L50.6377 54.4717L50.4277 54.5898L49.9707 54.8486L49.9248 55.3721C48.9426 66.4451 48.1133 77.1652 47.6543 83.4717L43.2139 84.5381C44.4174 72.8337 46.1023 52.4465 47.3672 34.2266ZM77.6377 31.2686C76.4191 31.5126 75.4225 31.7218 74.5771 31.9033C73.5615 32.1214 72.7797 32.293 72.083 32.4268L71.3369 32.5693L71.2744 33.3262C71.1566 34.7469 71.0206 36.1899 70.8809 37.6748C70.7412 39.1582 70.5982 40.6827 70.4678 42.2559L70.3496 43.6729L71.7236 43.3037C73.2789 42.8858 75.0181 42.4505 76.2715 42.123L75.9102 46.4834C74.6483 46.7325 72.5528 47.191 70.6436 47.6494L69.9453 47.8174L69.8809 48.5312C69.1369 56.7003 68.4198 65.3407 67.8291 73.2686L67.7275 74.6357L69.0605 74.3154C70.6758 73.9276 72.5201 73.4379 74.5244 72.8291L74.1699 77.1064L62.9805 79.792C64.1297 67.3467 65.8992 45.9886 67.1299 29.6641L77.9873 27.0576L77.6377 31.2686ZM92.3281 23.6143C92.2476 34.4608 92.4732 59.598 92.749 72.6455L88.3057 73.7119C88.5262 69.0595 88.8059 61.1822 89.0303 52.6514L89.0654 51.3486L87.7979 51.6533C86.8467 51.8817 85.6914 52.1584 84.7402 52.3867L84.0811 52.5449L83.9844 53.2158C82.7872 61.4618 81.7327 69.4823 80.9697 75.4736L76.6748 76.5039C79.2849 62.1373 82.6295 42.2937 85.3203 25.2979L92.3281 23.6143ZM109.1 23.6992C108.871 23.7472 108.62 23.8014 108.365 23.8594C107.688 24.0133 106.883 24.2067 106.138 24.3857L105.444 24.5527L105.375 25.2617C104.052 38.8711 102.25 61.3188 101.613 70.5176L97.1641 71.5859C98.0788 62.0064 99.9504 40.1936 101.048 26.958L101.162 25.5801L99.8184 25.9033C98.9458 26.1128 98.0404 26.3299 97.2881 26.5225L97.6348 22.3398L109.447 19.5049L109.1 23.6992ZM119.971 16.501C121.351 16.1696 122.363 16.412 123.161 17.0674C124.012 17.7662 124.753 19.0423 125.297 21.0342C126.384 25.0173 126.546 31.333 125.849 39.7432C125.147 48.2018 123.887 54.9847 122.035 59.8164C120.168 64.6885 117.807 67.3127 115.075 67.9688C113.723 68.2934 112.724 68.0445 111.927 67.3701C111.074 66.6491 110.331 65.3401 109.785 63.3115C108.694 59.2579 108.522 52.8556 109.225 44.3779C109.912 36.0914 111.132 29.4051 112.963 24.6221C114.807 19.8042 117.167 17.1741 119.971 16.501ZM120.423 21.1875C120.127 20.842 119.624 20.5336 118.995 20.6846C118.489 20.8061 118.148 21.18 117.937 21.4707C117.703 21.7918 117.493 22.2033 117.298 22.6738C116.906 23.6203 116.515 24.964 116.135 26.7041C115.371 30.1948 114.62 35.4216 114.026 42.582C113.43 49.7753 113.313 55.0074 113.505 58.4238C113.6 60.1209 113.775 61.427 114.028 62.3154C114.151 62.7473 114.318 63.1733 114.569 63.498C114.838 63.8452 115.346 64.2267 116.026 64.0635C116.557 63.9362 116.901 63.5252 117.103 63.2314C117.332 62.8965 117.542 62.4661 117.737 61.9717C118.13 60.9763 118.527 59.5647 118.913 57.752C119.688 54.1166 120.451 48.7357 121.048 41.54C121.641 34.3824 121.745 29.3039 121.54 26.0312C121.438 24.4069 121.257 23.1648 120.994 22.3213C120.866 21.9104 120.69 21.4992 120.423 21.1875ZM132.538 13.7783C137.467 12.7728 140.984 12.9356 143.18 14.0879C144.296 14.674 145.093 15.526 145.589 16.6797C146.093 17.8533 146.306 19.3917 146.143 21.3574C145.822 25.2201 143.853 28.2414 141.4 30.4453L141.013 30.7939L141.077 31.3115C142.149 39.9575 143.943 53.2043 145.015 60.1504L140.34 61.5576C139.796 55.0471 138.557 44.3834 137.293 34.7637L137.1 33.2939L135.809 34.0234L135.6 34.1426L135.142 34.4014L135.096 34.9248C134.113 45.998 133.284 56.7181 132.825 63.0244L128.387 64.0898C129.59 52.3852 131.273 31.998 132.538 13.7783ZM51.2637 39.2217C50.9923 42.4946 50.7087 45.9071 50.4258 49.3193L50.2656 51.2529L51.9336 50.2617C54.441 48.7713 56.348 46.2782 56.5723 43.5732C56.696 42.0799 56.5569 40.7374 55.791 39.7549C54.998 38.7378 53.746 38.3674 52.3027 38.3057L51.3428 38.2646L51.2637 39.2217ZM88.3398 28.249L88.1357 28.2979L87.4893 28.4531L87.3818 29.1104C86.5627 34.1619 85.6459 40.3958 84.7129 46.8301L84.501 48.29L85.9365 47.9463L88.4502 47.3428L89.1934 47.1641L89.2168 46.4004C89.4085 40.0683 89.5203 33.8924 89.5732 29.2334L89.5879 27.9492L88.3398 28.249ZM136.435 18.7744C136.163 22.0473 135.881 25.4599 135.598 28.8721L135.438 30.8057L137.105 29.8135C139.613 28.3231 141.519 25.8307 141.743 23.126C141.867 21.6324 141.728 20.2892 140.962 19.3066C140.169 18.2898 138.917 17.9191 137.474 17.8574L136.515 17.8164L136.435 18.7744Z" stroke="black" stroke-width="2"/>
<path d="M59.8574 85.1904C60.8037 84.9632 61.5535 84.9566 62.1494 85.1035C62.7304 85.2468 63.2213 85.5494 63.6475 86.0439C64.4859 87.017 65.0932 88.7575 65.3916 91.4668L65.4473 92.0215C65.5872 93.8442 65.5317 96.1246 65.3477 98.6045L60.832 99.6885C61.0106 97.7205 61.0905 95.9925 61.0879 94.6836V94.6689L61.0547 93.5029C61.0084 92.4193 60.9206 91.5797 60.7725 90.9756C60.677 90.5866 60.5255 90.1538 60.2295 89.8281C60.0676 89.65 59.8514 89.4929 59.5781 89.4092C59.3733 89.3465 59.1738 89.3363 58.9912 89.3584L58.8145 89.3906C58.4917 89.4682 58.2455 89.648 58.0732 89.8105C57.8964 89.9775 57.7453 90.1762 57.6152 90.3779C57.3557 90.7806 57.1115 91.3028 56.8818 91.8975C56.4195 93.0945 55.9548 94.7386 55.5156 96.6855C54.6351 100.589 53.8324 105.827 53.3701 111.401C52.7245 119.187 52.6738 124.415 52.9492 127.683C53.0859 129.304 53.308 130.511 53.6123 131.323C53.7617 131.722 53.9635 132.115 54.2588 132.405C54.5885 132.729 55.0787 132.954 55.6426 132.818C56.1541 132.695 56.4975 132.316 56.7139 132.007C56.9501 131.669 57.1625 131.231 57.3594 130.715C57.7552 129.677 58.1506 128.156 58.5342 126.069C59.2839 121.991 60.0113 115.61 60.5615 106.11L65.1875 105.001C64.5334 115.979 63.3746 123.549 61.6172 128.579C59.7979 133.786 57.4198 136.068 54.4863 136.772C53.1982 137.082 52.2137 136.836 51.4043 136.149C50.5418 135.418 49.7782 134.099 49.2041 132.074C48.0571 128.028 47.8017 121.648 48.501 113.215C49.1927 104.872 50.5624 98.1534 52.5391 93.3555C54.5298 88.5235 57.0348 85.8681 59.8574 85.1904ZM75.9727 81.7988C75.0182 91.3116 73.4424 111.083 72.207 126.744L72.0986 128.117L73.4375 127.796C74.5653 127.525 75.8054 127.187 77.1309 126.793L76.8047 130.718C74.0868 131.315 70.7955 132.059 67.2637 132.985C68.4939 120.812 70.7167 92.6085 71.3975 82.8975L75.9727 81.7988ZM95.2686 77.166C95.188 88.0126 95.4137 113.15 95.6895 126.197L91.2461 127.264C91.4666 122.611 91.7473 114.734 91.9717 106.203L92.0059 104.9L90.7383 105.205C90.2627 105.319 89.7356 105.446 89.209 105.572C88.6826 105.699 88.1561 105.824 87.6807 105.938L87.0215 106.097L86.9248 106.768C85.7277 115.013 84.6731 123.033 83.9102 129.024L79.6152 130.056C82.2253 115.689 85.5699 95.8447 88.2607 78.8486L95.2686 77.166ZM108.874 73.2188C110.383 72.8565 111.655 72.8675 112.667 73.041L110.684 77.2422C109.989 77.0515 109.213 77.0182 108.516 77.1855C106.971 77.5564 106.084 78.9216 105.954 80.4863C105.847 81.7806 106.094 84.2738 106.477 87.2549C106.865 90.2815 107.413 93.9493 107.952 97.6641C108.493 101.387 109.025 105.161 109.388 108.428C109.753 111.721 109.934 114.412 109.802 116.009C109.381 121.084 106.334 124.189 102.409 125.131C101.018 125.465 99.6557 125.533 98.4287 125.403L99.9062 120.991C100.709 121.251 101.525 121.257 102.241 121.085C103.896 120.688 105.287 119.17 105.454 117.15C105.595 115.455 105.388 112.715 105.034 109.558C104.677 106.373 104.157 102.667 103.639 98.9941C103.119 95.3135 102.6 91.6665 102.241 88.5742C101.879 85.4502 101.693 82.9953 101.805 81.6484C102.157 77.405 105.021 74.1438 108.874 73.2188ZM121.953 70.0781C123.463 69.7158 124.735 69.7268 125.747 69.9004L123.764 74.1016C123.069 73.9108 122.293 73.8777 121.596 74.0449C120.051 74.4157 119.164 75.781 119.034 77.3457C118.927 78.6398 119.174 81.1331 119.557 84.1143C119.945 87.1409 120.492 90.8096 121.031 94.5244C121.572 98.2469 122.105 102.021 122.467 105.288C122.832 108.581 123.013 111.272 122.881 112.868C122.46 117.943 119.414 121.048 115.489 121.99C114.099 122.324 112.736 122.393 111.509 122.264L112.987 117.851C113.789 118.11 114.604 118.117 115.32 117.945C116.975 117.548 118.366 116.029 118.533 114.01C118.674 112.314 118.468 109.575 118.114 106.418C117.757 103.233 117.237 99.5266 116.718 95.8535C116.198 92.1729 115.68 88.5258 115.321 85.4336C114.959 82.3095 114.773 79.8545 114.885 78.5078C115.237 74.2645 118.1 71.0032 121.953 70.0781ZM91.2803 81.8008L91.0762 81.8496L90.4297 82.0049L90.3232 82.6621C89.5041 87.7136 88.5864 93.9475 87.6533 100.382L87.4424 101.842L88.877 101.498C89.6923 101.302 90.5753 101.089 91.3906 100.894L92.1338 100.716L92.1572 99.9521C92.3489 93.6198 92.4607 87.4433 92.5137 82.7842L92.5283 81.501L91.2803 81.8008Z" stroke="black" stroke-width="2"/>
</svg>
