<svg width="234" height="179" viewBox="0 0 234 179" fill="none" xmlns="http://www.w3.org/2000/svg">
<path d="M217.013 32.4449C218.097 36.1681 218.331 41.3975 217.683 47.8095C216.389 60.6124 211.616 77.8134 203.64 96.36L203.64 96.3609C195.669 114.905 186.038 131.21 176.933 142.575C172.377 148.262 167.981 152.678 164.018 155.523C160.017 158.396 156.642 159.537 154.059 159.049L154.057 159.049C151.305 158.532 149.315 156.121 148.308 151.6C147.306 147.098 147.369 140.801 148.506 133.177C148.746 131.642 147.723 130.547 146.565 130.065C145.403 129.583 143.903 129.587 142.575 130.245L142.572 130.247C139.944 131.562 137.605 132.018 135.692 131.655L135.69 131.654C133.405 131.224 131.64 129.624 130.449 126.787L130.218 126.203C129.674 124.735 128.143 124.143 126.838 124.099C125.589 124.056 124.152 124.483 123.229 125.539L123.052 125.759C114.933 136.647 105.954 145.377 97.1685 151.023C88.3651 156.681 79.8741 159.172 72.6715 157.813C62.3326 155.862 56.1713 146.193 54.8892 131.573C54.7451 129.822 53.1614 128.974 51.8063 128.794C50.4087 128.609 48.6987 129.014 47.6568 130.306L47.656 130.307C43.0818 135.983 38.4645 140.432 34.1739 143.292C29.8574 146.17 26.0181 147.345 22.9345 146.762L22.9334 146.761C20.3229 146.268 18.3257 144.529 16.9699 141.594C15.6007 138.63 14.9208 134.503 14.9992 129.451C15.156 119.358 18.333 105.878 24.5447 91.4289C30.7593 76.9727 38.9773 63.1605 47.1102 53.2635C51.179 48.3122 55.1973 44.3762 58.9029 41.8258C62.5206 39.3359 65.6874 38.27 68.2518 38.6529L68.4988 38.6947C71.6677 39.291 73.9613 41.7476 75.2669 45.9836L75.2677 45.9825C75.7428 47.5277 77.3041 48.1726 78.6311 48.2375C79.989 48.3038 81.5816 47.8117 82.4984 46.539C90.7285 35.1604 99.9214 25.9955 108.94 20.0462C117.98 14.0833 126.721 11.4282 134.108 12.8219C142.256 14.3603 147.802 20.6688 150.418 30.4214L150.661 31.3761C151.064 33.0344 152.693 33.7348 154.065 33.8089C155.468 33.8846 157.134 33.3628 158.035 31.9863L158.035 31.9873C163.902 23.0224 169.722 16.986 175.021 13.3854C180.328 9.77956 185.032 8.66496 188.734 9.36475L188.735 9.36559C191.099 9.81024 192.906 11.5113 194.098 14.5342C195.3 17.5813 195.82 21.8579 195.607 27.1349L195.607 27.1359C195.544 28.7286 196.762 29.7354 197.988 30.1107C199.236 30.4927 200.798 30.3585 202.057 29.4867L202.059 29.4855L202.769 29.0062C206.163 26.7803 209.067 25.8749 211.368 26.2146L211.603 26.254C214.081 26.7229 215.931 28.7264 217.013 32.4449Z" fill="#90A8ED" stroke="black" stroke-width="2"/>
<path d="M53.1533 59.0244C57.5816 58.2359 61.0733 61.0539 63.3535 65.5166L63.5703 65.9541C65.2031 69.3834 66.4024 74.1275 67.0576 77.4854L59.3906 78.8496C59.0183 76.7785 58.6015 74.5718 57.96 72.0068L57.957 71.9951C57.462 70.1125 56.9848 68.8144 56.4541 67.9951C56.1829 67.5763 55.8562 67.2158 55.4414 66.9873C55.0563 66.7751 54.657 66.7103 54.2734 66.749L54.1094 66.7725C53.478 66.885 53.0592 67.3363 52.7979 67.7529C52.5275 68.184 52.3226 68.7347 52.1631 69.3525C51.8419 70.5964 51.6492 72.3312 51.6035 74.4912C51.5118 78.826 52.0092 85.053 53.4053 92.8926C55.0451 102.101 56.6621 108.055 58.083 111.693C58.7908 113.506 59.4702 114.799 60.1152 115.639C60.4374 116.058 60.7832 116.407 61.1582 116.643C61.5392 116.882 62.0085 117.039 62.5156 116.948C63.4981 116.773 64.045 115.935 64.3223 114.908C64.6024 113.87 64.707 112.33 64.6064 110.109C64.4097 105.764 63.4029 98.4961 60.9932 86.5234L68.7686 85.1387C71.5289 98.8702 72.5243 108.423 71.7246 114.744C71.3172 117.964 70.4552 120.251 69.209 121.819C67.982 123.363 66.3147 124.295 64.1055 124.688C59.9591 125.427 56.3162 122.995 53.168 117.566C50.0284 112.153 47.5806 104.049 45.834 94.2412C44.0168 84.0366 43.7374 75.5031 45.0215 69.3623C46.3079 63.2107 49.0768 59.7504 53.1533 59.0244Z" fill="#90A8ED" stroke="black" stroke-width="2"/>
<path d="M69.874 52.6025C77.5023 52.9266 83.2634 54.5107 87.1279 57.3223C91.104 60.215 93.1907 64.4924 93.1426 70.417C93.0947 76.3023 90.3396 80.1572 86.8037 82.5703L86.2588 82.9424L86.3867 83.5898C89.0911 97.2889 93.4821 118.379 95.96 129.33L87.8311 129.761C86.2792 119.758 82.983 102.37 79.7734 86.6689L79.5498 85.5732L78.4854 85.918L78.1719 86.0205L77.4912 86.2412L77.4805 86.957C77.245 103.548 77.208 119.655 77.2314 129.103L69.2598 129.038C69.7883 111.801 70.0407 80.5481 69.874 52.6025ZM77.6768 62.7881C77.6369 67.6855 77.5962 72.7916 77.5547 77.8975L77.543 79.3252L78.8887 78.8486C82.6543 77.5138 85.3146 74.3956 85.3467 70.458C85.3649 68.213 84.9714 66.3481 83.8916 64.873C82.8088 63.394 81.1463 62.4582 78.9502 61.835L77.6875 61.4766L77.6768 62.7881Z" fill="#90A8ED" stroke="black" stroke-width="2"/>
<path d="M132.395 41.6777C132.816 57.6557 134.585 97.6032 135.745 118.09L127.828 117.699C127.929 110.86 127.941 98.3649 127.817 84.7334L127.809 83.791L126.866 83.7441C125.409 83.6723 123.64 83.5855 122.183 83.5137L121.248 83.4668L121.141 84.3975C119.737 96.5185 118.542 108.357 117.689 117.198L109.864 116.813C113.143 95.8856 117.317 66.3758 120.606 41.0967L132.395 41.6777ZM125.078 48.9961C124.088 56.3652 123.011 65.5019 121.92 74.9414L121.797 76.002L122.863 76.0547C123.488 76.0855 124.139 76.1183 124.789 76.1504C125.44 76.1825 126.09 76.2143 126.715 76.2451L127.77 76.2969L127.764 75.2412C127.715 65.6329 127.552 56.2284 127.381 49.1201L127.358 48.1914L126.431 48.1455L126.118 48.1299L125.2 48.085L125.078 48.9961Z" fill="#90A8ED" stroke="black" stroke-width="2"/>
<path d="M101.208 44.7881C103.845 44.5738 106.281 45.6617 108.283 48.1289C110.182 50.4685 111.679 54.0491 112.469 58.8711L112.617 59.8516C113.313 64.9125 113.612 67.2375 113.906 70.6299C110.515 70.6916 105.81 71.1581 102.121 71.458C100.979 71.5509 99.7322 71.6522 98.5898 71.7451L97.6504 71.8223L97.6709 72.7646C97.7114 74.5736 97.8668 76.4737 98.0352 78.5439C98.6663 86.3075 99.5793 92.385 100.621 96.5205C101.14 98.5794 101.704 100.213 102.31 101.342C102.611 101.904 102.953 102.398 103.35 102.754C103.752 103.115 104.287 103.399 104.923 103.348C105.955 103.264 106.609 102.452 107.009 101.487C107.417 100.501 107.696 99.0643 107.85 97.1025C108.147 93.2944 107.987 87.2129 107.108 77.8682L114.888 77.2363C115.964 87.5772 115.797 95.9158 114.313 101.766C112.783 107.803 109.966 110.863 105.979 111.188C101.725 111.533 98.2475 108.715 95.5615 102.977C92.884 97.2562 91.163 88.9367 90.3604 79.0635C89.5589 69.2048 90.0921 60.706 91.9736 54.6182C93.8631 48.5049 96.9913 45.1309 101.208 44.7881ZM101.424 52.5918C100.704 52.6504 100.157 53.1152 99.7695 53.6367C99.3737 54.1696 99.0389 54.8959 98.7559 55.7822C98.1874 57.5625 97.7605 60.2027 97.5781 63.8125L97.5205 64.9521L98.6572 64.8604C99.592 64.7844 100.527 64.7078 101.462 64.6318C102.916 64.5136 104.058 64.4207 104.993 64.3447L105.99 64.2637L105.909 63.2666L105.799 61.917C105.562 59.0033 105.062 56.7559 104.406 55.2178C104.08 54.4521 103.692 53.8071 103.232 53.3467C102.799 52.9126 102.23 52.5765 101.56 52.585L101.424 52.5918Z" fill="#90A8ED" stroke="black" stroke-width="2"/>
<path d="M151.01 43.584C150.643 43.5952 150.228 43.6118 149.797 43.6338C148.762 43.6864 147.533 43.7653 146.391 43.8379L145.407 43.9004L145.455 44.8838C146.44 65.1936 148.669 98.8248 149.739 112.538L141.779 113.045C141.111 99.3941 139.069 65.6619 137.78 45.3867L137.717 44.3887L136.719 44.4521C134.92 44.5665 133.054 44.6846 131.792 44.8086L131.32 37.4014L150.539 36.1797L151.01 43.584Z" fill="#90A8ED" stroke="black" stroke-width="2"/>
<path d="M159.977 48.2764C164.163 48.4828 167.096 51.7392 168.878 57.7861C170.651 63.8048 171.149 72.2251 170.671 81.9189C170.19 91.6648 168.862 100.102 166.499 106.011C164.121 111.955 160.874 114.969 156.698 114.763C152.799 114.57 149.857 111.225 148.003 105.013C146.169 98.8681 145.55 90.3329 146.024 80.7041C146.499 71.0747 147.95 62.7484 150.372 56.9209C152.816 51.0401 156.064 48.0834 159.977 48.2764ZM159.466 56.0615C158.844 56.0847 158.402 56.5035 158.149 56.8115C157.848 57.1796 157.578 57.6759 157.333 58.2422C156.838 59.3862 156.349 61.0357 155.896 63.1211C154.987 67.3058 154.19 73.4011 153.811 81.0879C153.475 87.8936 153.64 94.1089 154.104 98.6504C154.334 100.915 154.643 102.799 155.013 104.143C155.196 104.807 155.408 105.395 155.664 105.841C155.876 106.209 156.318 106.835 157.087 106.873C157.856 106.911 158.359 106.331 158.605 105.985C158.904 105.567 159.173 105.003 159.421 104.359C159.921 103.059 160.414 101.214 160.866 98.9834C161.774 94.5095 162.549 88.3408 162.885 81.5352C163.264 73.8455 163.043 67.6994 162.537 63.4453C162.285 61.3247 161.958 59.6382 161.584 58.4551C161.399 57.8697 161.187 57.3547 160.935 56.9629C160.733 56.65 160.345 56.1624 159.721 56.0742L159.593 56.0625L159.466 56.0615Z" fill="#90A8ED" stroke="black" stroke-width="2"/>
<path d="M171.755 26.9141C179.364 27.5514 185.055 29.3717 188.801 32.3398C192.655 35.3936 194.563 39.7532 194.271 45.6709C193.982 51.5492 191.071 55.2871 187.438 57.5527L186.879 57.9023L186.979 58.5547C189.118 72.3532 192.64 93.6057 194.665 104.649L186.524 104.746C185.385 94.6876 182.807 77.1792 180.246 61.3594L180.067 60.2549L178.99 60.5566L178.673 60.6445L177.982 60.8379L177.943 61.5527C177.026 78.1205 176.326 94.2127 175.961 103.653L167.999 103.261C169.236 86.0601 170.772 54.8432 171.755 26.9141ZM179.134 37.4121C178.893 42.3038 178.641 47.4041 178.39 52.5039L178.319 53.9297L179.684 53.5088C183.501 52.3299 186.287 49.3235 186.48 45.3906C186.591 43.1484 186.275 41.269 185.257 39.751C184.236 38.2286 182.613 37.2247 180.444 36.5117L179.198 36.1016L179.134 37.4121Z" fill="#90A8ED" stroke="black" stroke-width="2"/>
</svg>
