<svg width="139" height="150" viewBox="0 0 139 150" fill="none" xmlns="http://www.w3.org/2000/svg">
<path d="M68.2793 1C94.3369 1 111.34 4.53033 121.945 15.5615C132.569 26.6118 137.026 45.4468 137.188 76.8154V76.8174C137.432 107.975 132.605 125.758 121.642 135.834C110.654 145.931 93.2338 148.554 67.4619 148.554C42.8495 148.554 26.3805 145.931 15.9834 135.852C5.58871 125.775 1.00005 107.981 1 76.8105C1 45.5223 5.37571 26.683 15.8008 15.6133C26.2028 4.56807 42.8769 1.00004 68.2793 1Z" fill="#F1F333" stroke="black" stroke-width="2"/>
<path d="M107.882 50.3857C108.12 57.3615 108.609 67.5203 108.897 75.9414L108.926 76.7676L109.742 76.8955L110.212 76.9688L111.031 77.0967L111.309 76.3164C114.193 68.2175 117.816 58.9162 120.3 52.3301L128.675 54.0234C122.723 65.5201 117.529 76.3768 112.414 87.4648L112.355 87.5918L112.334 87.7295C110.323 100.586 105.892 129.62 104.704 138.634L95.2227 137.15C97.0025 127.777 101.76 96.6366 103.519 84.6543L103.538 84.5244L103.522 84.3926C102.324 74.1929 100.533 61.3226 98.7861 49.3525L107.882 50.3857ZM84.1787 33.7939C86.41 32.0212 89.413 31.2079 92.9082 31.6318C96.286 32.0415 99.0289 33.2666 101.067 34.5869L96.7715 41.6963C95.6488 40.8566 94.2486 40.2064 92.9658 40.0508C91.817 39.9115 90.7622 40.2232 89.9639 40.9824C89.1881 41.7202 88.7501 42.7882 88.6025 44.0049C88.3473 46.1098 88.6045 50.5287 89.0781 56.0068C89.556 61.5337 90.269 68.2801 90.9658 75.1221C91.6634 81.9715 92.3453 88.9207 92.7656 94.8779C93.188 100.865 93.3387 105.758 93.001 108.542C92.4585 113.014 90.7706 116.065 88.4424 117.901C86.1125 119.739 83.0086 120.465 79.4297 120.031C76.4579 119.671 73.5512 118.654 71.0264 117.275L74.3584 109.274C75.7052 110.376 77.1573 110.983 78.4707 111.143C79.7762 111.301 81.0719 110.977 82.0967 110.156C83.1248 109.333 83.8053 108.072 83.9971 106.491C84.3365 103.692 84.1612 98.8486 83.749 93.1006C83.3346 87.3213 82.6724 80.5272 82.0088 73.7754C81.3444 67.0162 80.6787 60.2998 80.2539 54.6533C79.8264 48.9714 79.6526 44.4805 79.9395 42.1152C80.3932 38.3748 81.9473 35.567 84.1787 33.7939ZM38.0273 38.749C35.7804 38.961 33.9644 39.1553 32.4316 39.3232C30.6641 39.5169 29.2893 39.6731 28.0576 39.7803L27.0137 39.8711L27.1533 40.9102C27.4791 43.3204 27.7805 45.7654 28.0898 48.2764C28.399 50.7852 28.7167 53.3591 29.0762 56.0186L29.2139 57.0391L30.2295 56.8721C33.5738 56.3223 37.3605 55.7887 39.4424 55.4346L40.6592 64.4336C38.5048 64.6258 34.6991 65.0553 31.25 65.5215L30.2666 65.6543L30.3916 66.6387C32.1392 80.4558 34.116 95.0828 36.0518 108.515L36.1934 109.495L37.1758 109.362C40.3359 108.935 43.9828 108.338 47.9219 107.508L49.126 116.415L28.125 119.253C25.5289 98.3731 20.4887 61.0909 16.4365 32.8018L36.8506 30.043L38.0273 38.749ZM66.6504 12.877C68.0215 31.0259 72.3161 76.8096 74.7939 100.115H65.4482C65.1824 92.3418 64.4899 78.0169 63.5771 62.3867L63.5225 61.4453H56.2881L56.2266 62.3789C55.3033 76.3427 54.6055 89.9698 54.1299 100.115H44.8906C47.4603 76.02 50.5756 41.9824 52.9121 12.877H66.6504ZM58.7266 21.7871C58.0118 30.2454 57.2978 40.7249 56.584 51.5518L56.5137 52.6182H63.04L62.9824 51.5635C62.3871 40.6096 61.6725 29.8941 61.0771 21.7979L61.0088 20.8721H58.8037L58.7266 21.7871Z" fill="#F1F333" stroke="black" stroke-width="2"/>
</svg>
