<svg width="196" height="151" viewBox="0 0 196 151" fill="none" xmlns="http://www.w3.org/2000/svg">
<path d="M151.8 4.24769L19.6968 32.7371C8.81854 35.0831 1.9018 45.8034 4.2478 56.6816L20.1642 130.485C22.5102 141.363 33.2305 148.28 44.1087 145.934L176.212 117.445C187.09 115.099 194.007 104.378 191.661 93.5L175.745 19.6967C173.399 8.81844 162.678 1.9017 151.8 4.24769Z" fill="#FF8FE7" stroke="black" stroke-width="2" stroke-miterlimit="10"/>
<path d="M42.5126 105.799L27.3639 109.067C24.5542 95.2863 19.0566 69.8095 14.8008 50.814L29.5551 47.6294L31.0841 54.6949C27.4759 55.3133 25.455 55.7467 23.8092 56.0242C24.4958 59.2088 25.119 62.486 25.8738 65.9822C28.5763 65.3151 31.6051 64.6626 32.5985 64.3704L34.1713 71.6745C33.0708 71.8303 30.0226 72.405 27.3054 72.9942C29.1899 82.0999 31.2642 91.7316 33.251 100.57C35.5055 100.083 38.1203 99.435 40.9543 98.5828L42.5126 105.799Z" fill="#FF8FE7" stroke="black" stroke-width="2" stroke-miterlimit="10"/>
<path d="M50.964 81.8301C52.1278 91.0089 53.4863 101.444 54.5527 110.155L46.0848 111.981C45.9047 99.8079 45.5589 88.4427 45.481 74.8814C41.5855 67.2754 36.6431 58.418 33.9844 53.6265L41.6732 51.9661C43.2996 55.3746 46.0848 61.0962 48.6948 66.7934C48.6948 61.437 48.8994 55.6911 48.5877 50.476L56.8998 48.6841C55.9794 56.8501 54.8254 65.0648 54.0512 72.7876C59.4075 84.8053 64.9538 96.2046 70.0861 106.805L62.6311 108.412C59.6023 101.571 55.1273 91.0089 50.964 81.8301Z" fill="#FF8FE7" stroke="black" stroke-width="2" stroke-miterlimit="10"/>
<path d="M89.2631 83.2794C95.7199 109.443 94.5317 119.371 86.765 121.047C79.6168 122.59 73.569 112.282 69.4982 93.3931C65.4614 74.6752 66.9222 62.9789 74.4552 61.3525C79.271 60.3153 82.665 63.2418 85.4503 70.1174C86.4515 72.8369 87.2442 75.6287 87.8217 78.4685L80.2838 80.0948C79.8525 77.7205 79.2917 75.3716 78.6039 73.0585C77.3963 69.3334 76.6269 68.0382 75.8527 68.1891C74.1435 68.5592 74.6792 79.3352 77.3428 91.6889C81.0776 109.009 84.1891 114.76 85.5866 114.458C86.9841 114.156 87.0475 106.984 81.6522 84.9058L89.2631 83.2794Z" fill="#FF8FE7" stroke="black" stroke-width="2" stroke-miterlimit="10"/>
<path d="M96.8008 64.6802C99.4595 77.7643 106.053 108.291 109.369 122.938L101.909 124.545C98.8216 109.849 92.316 79.303 89.3457 66.2871L96.8008 64.6802Z" fill="#FF8FE7" stroke="black" stroke-width="2" stroke-miterlimit="10"/>
<path d="M109.826 58.7209C112.942 74.303 118.635 100.311 120.884 109.986L113.425 111.593C111.477 101.927 105.95 75.8125 102.6 60.2791C100.735 60.6833 98.8699 61.0826 98.1882 61.3114L96.6641 54.2411L112.509 50.8325L114.033 57.9028C113.473 57.9418 111.535 58.3606 109.826 58.7209Z" fill="#FF8FE7" stroke="black" stroke-width="2" stroke-miterlimit="10"/>
<path d="M120.529 42.0278C123.188 55.1119 129.781 85.6382 133.097 100.285L125.637 101.897C122.55 87.1964 116.04 56.6555 113.074 43.6396L120.529 42.0278Z" fill="#FF8FE7" stroke="black" stroke-width="2" stroke-miterlimit="10"/>
<path d="M141.721 26.8442C145.364 45.2457 151.265 73.722 154.056 85.1505C153.807 85.1505 147.672 86.4506 147.531 86.5626C146.011 82.9057 140.09 68.6529 134.87 55.7977C133.706 53.0416 132.713 50.3294 131.759 47.7729L131.603 47.807C132.494 51.2156 133.336 54.3417 133.882 56.4989C136.803 67.7374 139.369 78.158 141.619 87.8335L134.315 89.4063C131.88 77.7198 125.842 49.3701 121.752 31.1536C123.461 30.7836 129.441 29.4932 130.804 29.0355C132.046 32.931 135.776 43.4099 140.285 55.2815C141.356 57.9743 142.379 60.8424 143.294 63.5595L143.431 63.4475C143.002 61.8309 142.608 60.3749 142.388 59.3621C139.496 47.471 136.574 36.5538 134.724 28.3391L141.721 26.8442Z" fill="#FF8FE7" stroke="black" stroke-width="2" stroke-miterlimit="10"/>
<path d="M165.785 72.8399C158.481 74.4128 152.511 64.075 148.255 44.2711C144.418 26.4832 145.411 14.8843 153.49 13.1459C158.306 12.1039 162.113 15.4297 164.504 21.9887C165.463 24.4405 166.174 26.982 166.627 29.5753L159.094 31.2017C158.68 28.9864 158.152 26.7939 157.512 24.6329C156.426 20.7373 155.564 19.8462 154.809 20.0118C152.944 20.416 153.592 31.3283 156.241 43.604C159.844 60.3012 162.761 66.6655 164.392 66.3149C165.946 65.9789 166.462 60.0967 161.899 41.5687C159.586 42.1481 158.593 42.4451 158.004 42.6594L156.48 35.589C157.195 35.516 160.146 34.8781 162.707 34.3279C165.04 33.8409 167.056 33.388 167.742 33.1592C173.868 57.9104 174.482 70.9457 165.785 72.8399Z" fill="#FF8FE7" stroke="black" stroke-width="2" stroke-miterlimit="10"/>
</svg>
