<svg width="204" height="138" viewBox="0 0 204 138" fill="none" xmlns="http://www.w3.org/2000/svg">
<rect x="22.8613" width="185.632" height="95.2337" rx="47.6168" transform="rotate(13.89 22.8613 0)" fill="#FFC900" stroke="black" stroke-width="2" stroke-miterlimit="10"/>
<path d="M145.754 49.5824C144.675 54.0782 142.795 64.126 140.118 77.9732C138.724 84.9696 136.822 93.4217 135.416 99.8515L135.21 100.791L136.14 101.033L136.549 101.141L137.444 101.374L137.747 100.502C139.778 94.6606 142.636 86.5523 145.004 80.7509L145.008 80.7422L145.011 80.7334C147.404 74.5585 149.35 69.1695 151.089 64.345C152.709 59.8504 154.146 55.8552 155.601 52.1572L161.962 53.8212C160.549 61.6343 159.624 67.0312 157.323 80.0557C156.197 86.112 153.87 96.9667 152.3 104.272L152.1 105.207L153.025 105.449L153.353 105.535L154.233 105.765L154.546 104.912C157.021 98.1469 159.371 91.1847 161.97 84.5885L161.974 84.5768C165.196 76.1036 166.917 70.4138 172.327 56.5318L178.039 58.0255C170.831 74.5082 160.576 100.05 155.466 112.902L147.144 110.725C148.16 105.394 149.888 97.0588 151.701 88.4331L151.703 88.4244C153.748 78.2423 155.891 68.3349 157.361 61.6846L157.57 60.7446L156.638 60.5013L156.31 60.4156L155.379 60.1722L155.1 61.0934C153.415 66.6546 150.84 74.0849 147.373 83.3921L147.371 83.3999C144.21 92.0786 139.809 103.139 137.689 108.253L128.797 105.927C131.415 93.3331 137.784 62.3408 140.223 48.1357L145.754 49.5824ZM117.666 49.4344C120.844 44.9539 124.073 43.3264 127.453 44.2102C129.17 44.6594 130.448 45.6184 131.359 47.0846C132.288 48.5785 132.862 50.6462 133.04 53.323C133.396 58.6884 132.143 66.1965 129.441 75.5981C126.718 85.0739 123.734 92.2395 120.521 96.7641C117.302 101.296 114.073 102.914 110.781 102.054C109.093 101.612 107.829 100.648 106.925 99.1585C106.005 97.6401 105.437 95.5348 105.264 92.8149C104.92 87.3662 106.181 79.7532 108.905 70.2759C111.572 60.9925 114.488 53.9146 117.666 49.4344ZM108.453 39.8273C105.257 50.135 98.8336 72.7803 93.7808 90.6606L93.5033 91.6424L94.4903 91.9004C96.0273 92.3023 97.7517 92.6904 99.613 93.0579L98.2188 97.9118C94.805 96.9489 90.6446 95.8063 86.1604 94.7495C90.2324 81.6525 99.3302 49.4616 102.388 38.2406L108.453 39.8273ZM125.988 49.1333C125.4 48.9795 124.877 49.2115 124.518 49.4599C124.149 49.7153 123.799 50.0899 123.464 50.5291C122.788 51.415 122.03 52.7619 121.198 54.5683C119.527 58.1953 117.481 63.8567 115.179 71.868C112.866 79.919 111.549 85.9573 111 90.0526C110.726 92.0921 110.636 93.6969 110.724 94.8445C110.767 95.4122 110.859 95.9323 111.031 96.3548C111.196 96.7585 111.524 97.2771 112.157 97.4424C112.778 97.6047 113.318 97.3256 113.663 97.0676C114.029 96.7941 114.382 96.397 114.722 95.9311C115.408 94.9902 116.186 93.5683 117.041 91.6808C118.757 87.8918 120.853 82.0573 123.167 74.006C125.469 65.9949 126.735 60.1294 127.237 56.1956C127.487 54.2369 127.555 52.706 127.447 51.6106C127.394 51.0682 127.291 50.5679 127.106 50.1593C126.924 49.7566 126.585 49.2894 125.988 49.1333ZM93.1642 35.8287C89.968 46.1364 83.5448 68.7817 78.492 86.6621L78.2146 87.6438L79.2015 87.9018C80.7385 88.3038 82.463 88.6909 84.3242 89.0583L82.9291 93.9133C79.5155 92.9504 75.3555 91.8076 70.8717 90.751C74.9436 77.6539 84.0414 45.463 87.0995 34.2421L93.1642 35.8287ZM62.673 35.0529C65.8513 30.5721 69.0808 28.9439 72.4604 29.8278C74.1777 30.277 75.4563 31.236 76.3672 32.7022C77.2954 34.1961 77.8689 36.2639 78.0467 38.9406C78.4029 44.3059 77.1507 51.814 74.449 61.2157C71.7261 70.6916 68.7407 77.857 65.5277 82.3817C62.3092 86.914 59.0795 88.5329 55.788 87.6721C54.1 87.2306 52.8359 86.266 51.9323 84.7761C51.0116 83.2578 50.4434 81.153 50.2713 78.4335C49.9264 72.9847 51.1881 65.3717 53.9115 55.8944C56.5791 46.6109 59.4951 39.5333 62.673 35.0529ZM70.9947 34.7509C70.4068 34.5973 69.884 34.8291 69.5251 35.0775C69.1562 35.3329 68.8055 35.7075 68.4707 36.1467C67.7953 37.0326 67.0364 38.3795 66.2045 40.1859C64.5341 43.8129 62.4882 49.4743 60.1861 57.4856C57.8726 65.5366 56.557 71.5749 56.0075 75.6702C55.7338 77.7098 55.6431 79.3144 55.7308 80.462C55.7742 81.0297 55.8657 81.5499 56.0382 81.9724C56.203 82.3761 56.5312 82.8947 57.1634 83.06C57.7847 83.2224 58.3244 82.9432 58.67 82.6851C59.0362 82.4117 59.3887 82.0146 59.7285 81.5487C60.4148 80.6077 61.1943 79.186 62.0491 77.2984C63.765 73.5094 65.8608 67.6757 68.1744 59.6245C70.4765 51.6132 71.7421 45.747 72.2441 41.8131C72.494 39.8547 72.5616 38.3245 72.4538 37.2291C72.4004 36.6865 72.2984 36.1856 72.1132 35.7768C71.9307 35.3742 71.5917 34.907 70.9947 34.7509ZM58.0651 26.6492L56.589 31.7841C55.1397 31.3472 53.9689 31.0056 52.9786 30.7206C51.7716 30.3734 50.8488 30.1108 50.0124 29.8508L49.036 29.548L48.7546 30.5297C48.2525 32.277 47.7123 34.0783 47.1567 35.935C46.6017 37.7898 46.0311 39.6989 45.4695 41.6533L45.1789 42.6651L46.2033 42.9042C48.4564 43.4299 51.0326 44.0861 52.5969 44.4515L51.0688 49.77C49.4983 49.2943 46.9395 48.5711 44.586 47.9556L43.6486 47.7101L43.374 48.6392C40.25 59.213 36.9711 70.6184 34.1025 81.1622L28.1914 79.6162C32.2996 65.8811 39.2594 41.6585 44.4332 23.0841L58.0651 26.6492Z" fill="#FFC900" stroke="black" stroke-width="2"/>
</svg>
