<svg width="182" height="160" viewBox="0 0 182 160" fill="none" xmlns="http://www.w3.org/2000/svg">
<path d="M31.6182 4.00586C48.926 -2.70278 77.678 1.20886 96.7148 21.9385L97.8467 23.1709L98.3955 21.5898C102.124 10.8443 111.355 6.76716 119.1 8.13184C122.979 8.81543 126.479 10.8605 128.773 14.1172C131.061 17.3651 132.207 21.902 131.23 27.6797L130.909 29.583L132.649 28.748C142.367 24.0862 150.352 23.9601 156.358 26.3809C162.374 28.8053 166.562 33.8452 168.569 39.8174C172.593 51.7866 167.803 67.225 151.676 72.1914L149.177 72.9609L151.552 74.0557C166.827 81.0932 175.465 91.7713 178.805 102.981C182.149 114.209 180.204 126.051 174.158 135.467C168.118 144.874 157.982 151.862 144.913 153.379C131.839 154.896 115.727 150.946 97.7695 138.267L96.623 137.457L96.2324 138.806C92.5189 151.634 82.729 158.067 73.8164 158.356C69.3562 158.501 65.1205 157.113 61.916 154.234C58.7191 151.363 56.4745 146.941 56.1113 140.879L56.0078 139.16L54.5664 140.102C46.3309 145.479 38.729 146.438 32.543 144.577C26.3426 142.712 21.4129 137.969 18.6162 131.654C13.0332 119.047 16.0036 100.183 34.6357 86.3604L36.5801 84.918L34.1846 84.5674C20.8316 82.6149 12.0309 79.4481 6.86426 75.8828C1.72086 72.3335 0.340086 68.5369 1.27344 65.1523C2.24528 61.6285 5.82194 58.1066 11.6055 55.4463C17.3468 52.8055 25.0897 51.1016 34.04 51.1016H36.7812L34.6836 49.3369C21.4337 38.1857 16.611 28.4176 17.0127 20.7949C17.4108 13.2411 22.9791 7.35451 31.6182 4.00586Z" fill="#169387" stroke="black" stroke-width="2"/>
<path d="M67.7305 27.6553C75.7278 27.9529 81.7814 29.7296 85.8623 32.958C90.0711 36.2877 92.3242 41.2762 92.3242 48.2158C92.3242 55.129 89.4261 59.6656 85.7363 62.5L85.251 62.874L85.3633 63.4766C86.8865 71.6606 88.9001 84.698 90.8643 97.2363C92.7028 108.973 94.5 120.288 95.8018 126.703H87.2148C85.5274 114.797 81.9032 85.4757 78.3867 67.2051L78.1641 66.0488L77.0586 66.4561L76.7314 66.5762L76.0811 66.8164L76.0771 67.5098C75.9712 86.8489 76.0739 133.678 76.1797 146.181H67.7373C68.1481 125.296 68.1462 60.7357 67.7305 27.6553ZM145.411 38.2393V47.1729C143.184 47.0817 140.835 47.0293 138.75 46.9902C136.319 46.9447 134.272 46.9146 133.149 46.8555L132.097 46.7998V47.8545C132.097 50.3206 132.069 52.8177 132.042 55.3818C132.015 57.9444 131.987 60.5731 131.987 63.293V64.3252L133.02 64.293C136.064 64.1968 139.515 64.1751 141.474 64.1045V73.3291C139.473 73.2314 136.02 73.1484 132.879 73.1484H131.886L131.879 74.1406C131.77 88.2581 131.77 113.934 131.879 127.689L131.887 128.681H132.879C135.779 128.681 142.142 128.579 146.327 128.28V137.416H123.528C123.734 115.771 123.734 67.4535 123.526 38.2393H145.411ZM62.0537 13.8926V22.8232C59.9839 22.733 58.3336 22.6825 56.9482 22.6436C55.3321 22.5981 54.095 22.5683 52.9658 22.5088L51.9131 22.4531V23.5068C51.9131 26.2187 51.8857 35.1074 51.8584 44.0752C51.8311 53.0405 51.8037 62.0851 51.8037 65.1025V66.1338L52.835 66.1016C55.9788 66.005 59.6052 65.9833 61.6172 65.9121V75.1406C59.5378 75.0419 55.9587 74.958 52.6953 74.958H51.7012L51.6953 75.9512C51.5884 92.5016 51.5877 115.473 51.793 132.06H43.3447C43.5506 109.864 43.5504 43.5213 43.3428 13.8926H62.0537ZM118.464 30.6875V39.6113C114.059 39.3907 111.315 39.1996 109.157 39.0859L108.104 39.0303V40.084C108.104 42.5605 108.132 47.0099 108.159 51.5137C108.186 56.0206 108.214 60.5828 108.214 63.293V64.3252L109.245 64.293C112.289 64.1968 115.741 64.1751 117.7 64.1045V73.3291C115.699 73.2314 112.245 73.1484 109.104 73.1484H108.112L108.104 74.1406C107.995 88.2581 107.995 103.221 108.104 116.977L108.113 117.969H109.104C112.005 117.969 115.362 117.865 119.009 117.572V126.703H99.7549C99.9606 105.151 99.9594 59.8321 99.752 30.6875H118.464ZM76.0771 58.501L77.4502 57.9492C81.3989 56.3609 84.075 52.7549 84.0752 48.3369C84.0752 45.7706 83.6533 43.6707 82.541 42.0186C81.4166 40.3484 79.6845 39.2788 77.3682 38.5742L76.0771 38.1816V58.501Z" fill="#169387" stroke="black" stroke-width="2"/>
</svg>
