<svg width="160" height="164" viewBox="0 0 160 164" fill="none" xmlns="http://www.w3.org/2000/svg">
<path d="M79.9233 1.61182C69.571 14.7008 54.2177 23.0031 37.0726 23.0031C23.3555 23.0031 10.7778 17.7003 1 8.88184V154.662C10.7778 145.844 23.3555 140.541 37.0726 140.541C54.2324 140.541 69.5856 148.848 79.9233 161.932C90.2757 148.848 105.634 140.541 122.774 140.541C136.491 140.541 149.069 145.844 158.847 154.662V8.8867C149.064 17.7003 136.491 23.008 122.774 23.008C105.634 23.0031 90.2757 14.7008 79.9233 1.61182Z" fill="#169286" stroke="black" stroke-width="2" stroke-miterlimit="10"/>
<path d="M20.6582 115.347C20.8384 99.3067 20.8384 69.5742 20.6582 47.3892H37.8715V55.6379C33.6157 55.4529 31.3514 55.4529 29.4475 55.3652C29.4475 59.4409 29.3549 63.7893 29.3549 68.3227C32.6174 68.2302 36.3328 68.2302 37.5112 68.1377V76.6591C36.1526 76.5666 32.525 76.4741 29.2625 76.4741C29.1748 89.1589 29.1748 102.842 29.3549 115.347H20.6582Z" fill="#169286" stroke="black" stroke-width="2" stroke-miterlimit="10"/>
<path d="M52.5098 61.4972L52.237 61.5897C52.1445 76.5388 53.211 119.935 53.323 128.004H44.6262C44.9866 113.05 43.9932 55.8828 43.6523 30.8735C57.9684 31.1462 65.7594 36.3127 65.7594 47.0935C65.7594 52.5278 63.2225 56.1555 59.96 58.4197C62.4969 70.7393 67.6633 118.849 69.8399 128.004L60.9582 128.544C59.5509 120.052 55.4752 75.5454 52.5098 61.4972ZM52.237 40.5588V53.7062C55.2269 52.6203 57.2185 50.171 57.2185 47.186C57.1941 43.4707 55.8356 41.5667 52.2127 40.5685L52.237 40.5588Z" fill="#169286" stroke="black" stroke-width="2" stroke-miterlimit="10"/>
<path d="M91.6477 135.637H73.9815C74.1617 119.602 71.0014 51.1239 70.8164 28.9243H88.0541V37.1682C83.8859 36.988 81.5291 36.988 79.6251 36.8955C79.6251 40.6109 79.5375 44.4188 79.5375 48.4944C82.7075 48.4019 86.2427 48.4019 87.4211 48.3143V56.8309C86.1501 56.7383 82.615 56.6507 79.445 56.6507C79.3525 67.2514 82.5176 117.246 82.6053 127.574C85.2348 127.574 88.3122 127.486 91.6672 127.213L91.6477 135.637Z" fill="#169286" stroke="black" stroke-width="2" stroke-miterlimit="10"/>
<path d="M102.718 121.381C100.07 121.334 97.48 120.603 95.1992 119.258L97.4634 108.774C98.7344 110.186 100.093 110.776 101.179 110.776C102.81 110.776 104.169 109.242 104.169 106.534C104.169 95.8216 95.1992 53.6185 95.1992 43.719C95.1992 35.8257 99.0947 30.8735 104.802 30.8735C107.477 30.8991 110.077 31.7662 112.232 33.3521L108.994 42.7744C108.089 41.8346 106.73 41.1285 105.644 41.1285C104.286 41.1285 103.467 42.4238 103.467 44.5371C103.467 52.4304 112.719 95.9141 112.719 107.464C112.685 116.784 108.507 121.381 102.718 121.381Z" fill="#169286" stroke="black" stroke-width="2" stroke-miterlimit="10"/>
<path d="M129.514 75.2081C128.066 75.1155 126.613 75.1155 125.165 75.2081C125.165 89.6118 125.165 105.559 125.346 115.347H116.469C116.649 100.485 116.649 62.3431 116.469 47.3892H125.346C125.258 51.9226 125.165 58.9881 125.165 66.9593H129.514C129.426 59.0806 129.426 52.1027 129.334 47.3892H138.211C138.03 61.1647 138.03 97.768 138.211 115.347H129.329C129.446 106.83 129.514 90.3519 129.514 75.2081Z" fill="#169286" stroke="black" stroke-width="2" stroke-miterlimit="10"/>
</svg>
