<svg width="151" height="160" viewBox="0 0 151 160" fill="none" xmlns="http://www.w3.org/2000/svg">
<path d="M149.465 158.078L1 137.129V43.2188L149.465 1.32129V158.078Z" fill="#FFC900" stroke="black" stroke-width="2"/>
<path d="M72.7471 36.332C74.8777 36.332 76.7393 37.2812 78.3818 39.2793C80.0495 41.3082 81.4644 44.395 82.5986 48.5537C84.8656 56.8655 85.9277 69.1316 85.9277 84.8291C85.9277 100.655 84.8403 113.085 82.5596 121.528C81.4182 125.754 79.9986 128.9 78.332 130.971C76.6887 133.013 74.8403 133.976 72.7471 133.976C70.6538 133.976 68.8054 133.013 67.1621 130.971C65.4955 128.9 64.0759 125.754 62.9346 121.528C60.6538 113.085 59.5664 100.655 59.5664 84.8291C59.5664 69.3261 60.6027 57.0591 62.8574 48.6973C63.9856 44.5132 65.3974 41.3895 67.0713 39.3301C68.7204 37.3012 70.5948 36.332 72.7471 36.332ZM72.7471 45.7646C71.9698 45.7646 71.4748 46.3453 71.2041 46.7705C70.8996 47.2489 70.6378 47.9013 70.4043 48.6797C69.933 50.2507 69.5053 52.5797 69.1406 55.6934C68.4096 61.9354 67.917 71.4951 67.917 84.8291C67.917 98.2285 68.4093 108.078 69.1396 114.593C69.5041 117.844 69.9322 120.302 70.4004 121.967C70.6323 122.791 70.8897 123.479 71.1865 123.982C71.4378 124.408 71.93 125.062 72.7471 125.062C73.5641 125.062 74.0563 124.408 74.3076 123.982C74.6045 123.479 74.8618 122.791 75.0938 121.967C75.5619 120.302 75.9901 117.844 76.3545 114.593C77.0848 108.078 77.5771 98.2285 77.5771 84.8291C77.5771 71.4952 77.0845 61.9354 76.3535 55.6934C75.9889 52.5795 75.5602 50.2507 75.0889 48.6797C74.8553 47.9013 74.5945 47.2489 74.29 46.7705C74.0363 46.3719 73.5854 45.837 72.8896 45.7715L72.7471 45.7646Z" fill="#FFC900" stroke="black" stroke-width="2"/>
<path d="M96.1494 26.6582C96.292 32.733 97.006 45.0584 98.0283 62.2402L99.2119 82.1592C99.9553 95.6475 100.592 112.047 101.124 124.476L101.165 125.433H103.618L103.653 124.469C104.052 113.538 104.637 98.5812 105.408 87.04L105.564 84.7803L105.565 84.7676C106.31 72.3357 106.788 61.5542 107.213 51.8916C107.622 42.6023 107.982 34.3539 108.48 26.6582H117.129C117.634 34.2155 118.069 40.5266 118.593 47.9873L120.679 77.7227C121.422 89.369 122.377 110.365 123.015 124.478L123.059 125.433H125.393L125.438 124.479C126.077 110.958 126.5 97.0326 127.35 83.6982L127.351 83.6904C128.301 66.6246 128.41 55.1425 130.163 26.6582H138.119C135.092 60.5299 131.481 113.687 129.772 139.69H118.579C117.949 129.483 117.123 112.963 116.299 95.8564V95.8506L115.91 88.5234C115.029 71.5305 114.32 55.4467 113.855 44.1758L113.815 43.2168H111.44L111.431 44.207C111.325 55.23 110.794 70.0918 109.838 88.7979V88.8027C109.015 106.628 107.49 129.639 106.721 139.69H94.7852C93.5935 115.66 90.4271 53.6223 88.4277 26.6582H96.1494Z" fill="#FFC900" stroke="black" stroke-width="2"/>
<path d="M36.4678 48.7793C42.5097 49.0697 47.0577 50.62 50.1309 53.3857C53.3538 56.2865 55.1123 60.668 55.1123 66.8125C55.1122 72.9295 52.8562 76.9113 50.0361 79.376L49.6182 79.7422L49.708 80.291C52.0011 94.3083 55.722 115.904 57.8037 127.052L51.5635 127.533C50.236 117.321 47.4476 99.5949 44.7393 83.585L44.5283 82.3418L43.3662 82.8291L43.1123 82.9355L42.502 83.1914L42.499 83.8535C42.4173 100.83 42.4946 117.31 42.5762 126.964H36.4746C36.7906 109.344 36.7882 77.3659 36.4678 48.7793ZM42.499 76.1465L43.915 75.499C47.0887 74.0466 49.1552 70.798 49.1553 66.9189C49.1553 64.6576 48.8297 62.7971 47.957 61.3223C47.065 59.8148 45.6785 58.8374 43.8262 58.1963L42.499 57.7373V76.1465Z" fill="#FFC900" stroke="black" stroke-width="2"/>
<path d="M21.5518 57.8691C23.7555 57.8692 25.523 58.8184 26.8926 60.666C28.2922 62.5543 29.2838 65.4015 29.7656 69.1416L29.7666 69.1465C30.2424 72.7129 30.3154 74.9803 30.2803 76.7275H24.3018C24.3296 74.9343 24.2743 73.093 24.1689 71.1729L24.1113 70.1846C23.9871 67.9283 23.7565 66.4025 23.4092 65.415C23.2345 64.9184 23.0029 64.4756 22.6689 64.1484C22.3501 63.8361 21.9692 63.6609 21.5625 63.6221L21.3867 63.6143C20.6079 63.6145 20.104 64.1887 19.8291 64.6016C19.5199 65.066 19.257 65.6864 19.0264 66.3896C18.5605 67.8104 18.1508 69.8075 17.8086 72.1943C17.1222 76.9826 16.6885 83.5005 16.6885 90.4883C16.6885 99.967 17.0793 106.645 17.6953 110.971C18.002 113.125 18.3717 114.75 18.8018 115.861C19.0153 116.413 19.2666 116.9 19.5781 117.266C19.8911 117.633 20.3584 117.979 20.9766 117.979C21.5296 117.978 21.981 117.708 22.3135 117.365C22.637 117.032 22.8981 116.582 23.1191 116.065C23.5625 115.029 23.94 113.486 24.2373 111.353C24.8343 107.069 25.1408 100.161 24.8525 89.5811L24.8252 88.5732L23.8174 88.6094C22.3545 88.6616 21.369 88.7156 20.6611 88.7695V82.915C21.1081 82.927 21.637 82.9353 22.2002 82.9404C23.4179 82.9515 24.8815 82.9512 26.2363 82.9512C27.9238 82.9512 29.5193 82.9514 30.6064 82.9189C30.9707 96.5288 30.5963 106.701 29.0625 113.491C28.2763 116.972 27.2085 119.459 25.8662 121.061C24.5613 122.618 22.9741 123.371 20.9766 123.371C17.8133 123.371 15.1605 120.832 13.2773 114.968C11.4143 109.166 10.4688 100.532 10.4688 89.3438C10.4688 79.2985 11.3533 71.3156 13.249 65.8779C15.1479 60.4314 17.9172 57.8691 21.5518 57.8691Z" fill="#FFC900" stroke="black" stroke-width="2"/>
</svg>
