<svg width="126" height="160" viewBox="0 0 126 160" fill="none" xmlns="http://www.w3.org/2000/svg">
<path d="M1.43933 84.5189C-2.18077 123.115 17.3503 145.164 32.8699 152.16C40.7888 155.73 65.1245 164.194 95.6963 152.16C117.677 143.508 130.284 114.082 121.275 85.5958C114.87 65.342 116.649 57.2896 117.677 48.0544C110.806 51.2665 103.924 64.5658 103.269 71.0025C77.4654 47.9425 73.4453 15.1249 74.6607 1.59863C45.7156 14.36 34.7398 44.0432 32.8699 57.2896C26.5652 50.2927 27.9149 37.8864 29.5042 30.4236C19.748 36.1714 4.26139 54.4317 1.43933 84.5189Z" fill="#FFC900" stroke="black" stroke-width="2" stroke-miterlimit="10"/>
<path d="M65.8798 45.6099C68.2714 45.5847 70.3152 46.4181 72.0792 48.0924C73.8676 49.7897 75.3956 52.3801 76.6384 55.8894C79.1268 62.9158 80.3747 73.3378 80.5162 86.734C80.6588 100.239 79.6052 110.827 77.2517 118.018C74.8903 125.233 71.3692 128.665 66.7576 128.714C62.1459 128.762 58.5523 125.406 56.039 118.242C53.5342 111.103 52.2571 100.539 52.1144 87.034C51.9747 73.8036 52.9748 63.3562 55.301 56.2359C56.4629 52.6796 57.9328 50.0264 59.6907 48.2662C61.4249 46.5301 63.464 45.6354 65.8798 45.6099ZM65.9618 53.3741C65.2718 53.3814 64.7679 53.8101 64.4395 54.2301C64.1017 54.6623 63.8176 55.2463 63.5688 55.9288C63.0676 57.3037 62.6257 59.3215 62.2617 61.9937C61.5315 67.3547 61.0902 75.5424 61.2106 86.9379C61.3316 98.3898 61.9482 106.813 62.793 112.389C63.2142 115.17 63.6978 117.287 64.2243 118.73C64.4854 119.446 64.778 120.054 65.1171 120.502C65.4374 120.925 65.9538 121.4 66.6803 121.393C67.4066 121.385 67.912 120.899 68.2234 120.469C68.5529 120.014 68.8326 119.4 69.0785 118.679C69.5744 117.225 70.0141 115.098 70.3765 112.309C71.1033 106.716 71.5419 98.2819 71.421 86.83C71.3006 75.4345 70.6865 67.258 69.8433 61.9137C69.4229 59.2498 68.9384 57.2417 68.4083 55.8777C68.1452 55.2007 67.8487 54.6227 67.5019 54.1977C67.1858 53.8105 66.7151 53.4191 66.0888 53.3776L65.9618 53.3741Z" fill="#FFC900" stroke="black" stroke-width="2"/>
<path d="M44.3105 64.4033C45.3972 80.6536 48.5163 120.248 50.292 140.322L42.123 140.965C41.4342 130.936 40.0972 112.699 38.7764 95.9268L38.7021 94.9893L37.7637 95.0049C36.0532 95.0325 34.2438 95.175 32.6484 95.4082L31.7227 95.543L31.7959 96.4756C33.0578 112.5 34.4545 130.202 35.5342 141.483L27.373 142.126C26.1981 124.751 22.961 83.6404 21.3945 66.207L29.5527 65.5645C29.8659 70.7815 30.3766 78.4494 31.0518 87.0225L31.1299 88.0195L32.127 87.9414C33.789 87.8105 35.4512 87.6787 37.1133 87.5479L38.1221 87.4688L38.0312 86.4619C37.2671 78.0021 36.6606 70.4077 36.1514 65.0459L44.3105 64.4033Z" fill="#FFC900" stroke="black" stroke-width="2"/>
<path d="M107.16 76.4648L105.588 83.7139C105.231 83.6241 104.828 83.5287 104.406 83.4316C103.396 83.199 102.193 82.938 101.074 82.6953L100.112 82.4863L99.8887 83.4453C95.2792 103.25 88.222 136.208 85.499 149.69L77.7051 148C80.7968 134.687 88.0609 101.683 92.3691 81.8291L92.5811 80.8516L91.6035 80.6396C89.8414 80.2573 88.014 79.8607 86.7666 79.6348L88.3408 72.3818L107.16 76.4648Z" fill="#FFC900" stroke="black" stroke-width="2"/>
</svg>
