<svg width="194" height="172" viewBox="0 0 194 172" fill="none" xmlns="http://www.w3.org/2000/svg">
<path d="M1 170.548H43.9968V153.135H71.3872V139.267H121.664V108.404H158.399V96.9613H192.747V1H156.748V13.7432H128.729V40.7928H56.3602V56.7401H38.4214V71.5723H1V170.548Z" fill="#FFC900" stroke="black" stroke-width="2" stroke-miterlimit="10"/>
<path d="M25.0148 113.027C23.3656 112.925 21.7117 112.925 20.0626 113.027C20.0626 129.418 20.0626 147.566 20.272 158.702H10.168C10.3725 141.791 10.3725 98.3848 10.168 81.3711H20.272C20.1649 86.5278 20.0626 94.572 20.0626 103.644H25.0148C24.9077 94.6743 24.9077 86.7372 24.8054 81.3711H34.9338C34.7244 97.0457 34.7244 138.699 34.9338 158.702H24.8054C24.9077 149.007 25.0148 130.245 25.0148 113.027Z" stroke="black" stroke-width="2" stroke-miterlimit="10"/>
<path d="M66.6742 105.81C66.6742 130.965 62.3453 145.607 52.5529 145.607C42.7605 145.607 38.4316 130.965 38.4316 105.81C38.4316 81.1657 42.5609 66.5234 52.5529 66.5234C62.4475 66.5234 66.6742 80.8541 66.6742 105.81ZM56.3657 105.81C56.3657 84.6717 54.4179 75.5951 52.548 75.5951C50.6782 75.5951 48.7353 84.6717 48.7353 105.81C48.7353 127.045 50.6831 136.945 52.548 136.945C54.413 136.945 56.3608 127.045 56.3608 105.81H56.3657Z" stroke="black" stroke-width="2" stroke-miterlimit="10"/>
<path d="M117.817 53.1172C114.828 76.1056 111.219 113.011 109.569 130.443H96.9083C96.2899 123.626 95.4474 112.193 94.6391 100.336C93.6068 87.1397 92.7839 74.2504 92.2677 65.5877H91.8538C91.75 73.0152 91.2354 83.017 90.3102 95.593C89.4824 107.966 87.9388 124.05 87.2133 130.443H73.7932C72.6587 114.564 69.4643 71.0366 67.502 53.1172H76.9875C77.0947 58.1668 78.3266 71.6745 79.9822 91.0547C80.7029 100.131 81.3213 111.16 81.8375 119.512H82.3488C82.7627 111.677 83.3811 100.75 84.2089 92.8077C85.6697 76.1056 86.0641 63.8347 87.0916 53.1172H97.3173C98.3447 63.8299 99.0703 70.647 100.818 88.0649C101.544 95.9046 102.469 110.026 103.088 119.512H103.501C104.12 110.44 104.529 101.056 105.357 92.087C106.287 80.5417 106.389 72.7019 108.142 53.1318L117.817 53.1172Z" stroke="black" stroke-width="2" stroke-miterlimit="10"/>
<path d="M151.188 31.9198C150.876 52.5418 150.978 87.0804 151.188 99.9697H141.288C141.493 87.1827 141.595 52.5418 141.595 31.9198C139.121 31.9198 136.648 31.9198 135.723 32.027V22.668H156.754V32.0513C156.033 31.9198 153.452 31.9198 151.188 31.9198Z" stroke="black" stroke-width="2" stroke-miterlimit="10"/>
<path d="M186.657 47.0793C186.657 72.2347 182.328 86.8769 172.535 86.8769C162.743 86.8769 158.414 72.2347 158.414 47.0793C158.414 22.4353 162.538 7.79297 172.535 7.79297C182.43 7.79297 186.657 22.1285 186.657 47.0793ZM176.343 47.0793C176.343 25.9412 174.395 16.889 172.53 16.889C170.665 16.889 168.718 25.9607 168.718 47.0793C168.718 68.3148 170.665 78.2143 172.53 78.2143C174.395 78.2143 176.343 68.3148 176.343 47.0793Z" stroke="black" stroke-width="2" stroke-miterlimit="10"/>
<path d="M133.989 66.8789H123.471V76.2622H133.989V66.8789Z" stroke="black" stroke-width="2" stroke-miterlimit="10"/>
</svg>
