<svg width="197" height="143" viewBox="0 0 197 143" fill="none" xmlns="http://www.w3.org/2000/svg">
<path d="M195.058 59.6807V141.723H1V59.6807L98.0283 1.16699L195.058 59.6807Z" fill="#E54326" stroke="black" stroke-width="2"/>
<path d="M32.8857 63.8711C33.9062 63.906 35.513 63.9379 37.083 63.9629C38.6839 63.9884 40.3007 64.0059 41.3389 64.0156C41.5525 90.6412 42.2461 119.036 42.6611 135.807H34.8086C34.9291 126.858 35.3094 120.386 35.209 107.581V107.556L35.1748 106.335C35.0272 100.01 35.2156 90.4608 35.3135 82.417L35.3213 81.7744L34.7402 81.501L34.5322 81.4023L33.2959 80.8184L33.1143 82.1729C30.9795 98.0191 29.2263 116.229 27.6006 129.473C26.227 129.427 24.6817 129.426 23.4248 129.469C21.5841 114.8 19.6489 97.5198 17.708 81.6924L17.5391 80.3193L16.2881 80.9102L16.0801 81.0088L15.499 81.2832L15.5068 81.9258C15.5589 86.0562 15.611 90.4833 15.6631 94.8125L15.8193 107.111C15.9192 117.113 15.9219 127.837 15.8301 135.807H8.07324C8.77489 119.084 9.38305 89.9816 9.9873 64.0225C10.9751 64.0206 12.5595 64.0162 14.1611 64C15.3802 63.9877 16.6144 63.9693 17.6045 63.9414C18.0129 63.9299 18.3838 63.9157 18.6973 63.9004C19.9549 71.2021 22.8976 86.856 24.9951 99.8779L26.9697 99.877C28.9434 87.5706 31.9639 70.2945 32.8857 63.8711Z" fill="#E54326" stroke="black" stroke-width="2"/>
<path d="M187.063 64.0254V70.9346C186.873 70.9302 186.668 70.9244 186.455 70.9209C185.611 70.907 184.532 70.8978 183.408 70.8916C181.16 70.8793 178.717 70.8789 177.571 70.8789H176.587L176.571 71.8633C176.267 91.0303 176.358 122.785 176.556 135.807H168.59C168.787 122.867 168.887 91.0295 168.887 71.8789V70.8789H167.887C166.637 70.8789 164.168 70.8793 161.894 70.8916C160.451 70.8994 159.042 70.9135 158.082 70.9365V64.0254H187.063Z" fill="#E54326" stroke="black" stroke-width="2"/>
<path d="M154.62 45.2969V54.4541C152.707 54.364 151.151 54.3118 149.832 54.2725C148.274 54.226 147.069 54.1963 145.993 54.1357L144.937 54.0762V55.1338C144.937 57.6523 144.911 60.2024 144.885 62.8203C144.859 65.4366 144.832 68.1201 144.832 70.8965V71.9316L145.866 71.8965C147.679 71.8352 149.596 71.8043 151.24 71.7734C152.246 71.7546 153.166 71.7335 153.892 71.7061V81.1611C151.97 81.0623 148.702 80.9805 145.729 80.9805H144.735L144.729 81.9727C144.624 96.3857 144.624 111.661 144.729 125.705L144.735 126.698H145.729C148.487 126.698 151.676 126.594 155.142 126.298V135.658H136.845C137.041 113.882 137.04 74.8948 136.842 45.2969H154.62Z" fill="#E54326" stroke="black" stroke-width="2"/>
<path d="M130.759 31.3877C127.783 38.0569 124.166 47.0053 121.037 55.6729L120.952 55.9072L120.988 56.1543C124.164 78.2959 129.257 113.145 132.992 135.57L125.029 136.046C123.647 125.845 119.64 96.6144 116.512 74.8008L114.537 74.7705C114.493 75.0205 114.426 75.2777 114.346 75.583C114.27 75.8737 114.181 76.2125 114.12 76.5586L114.105 76.6416V76.7266C114.004 98.8372 114.101 121.798 114.202 135.503H106.216C106.317 109.366 106.415 49.0168 106.221 25.71H114.196C114.107 32.4267 114.105 42.2851 114.105 53.4785L116.078 53.708C118.348 44.1018 120.697 33.4968 123.224 24.8438L130.759 31.3877Z" fill="#E54326" stroke="black" stroke-width="2"/>
<path d="M64.7676 45.2969C65.9668 64.0782 69.7319 111.546 71.9004 135.658H63.9678C63.7358 127.622 63.1298 112.782 62.3301 96.5859L62.2832 95.6348H55.7002L55.6475 96.5791C54.8389 111.042 54.2278 125.156 53.8115 135.658H45.9727C48.2228 110.713 50.9517 75.4462 52.998 45.2969H64.7676ZM57.835 54.5703C57.2096 63.3227 56.5847 74.1672 55.96 85.373L55.9004 86.4287H61.8574L61.8096 85.3828C61.2886 74.0469 60.6635 62.9577 60.1426 54.5791L60.084 53.6416H57.9014L57.835 54.5703Z" fill="#E54326" stroke="black" stroke-width="2"/>
<path d="M75.9395 25.3018C83.4932 25.6747 89.2107 27.8482 93.0879 31.8174C97.1398 35.9655 99.3369 42.2334 99.3369 50.9434C99.3368 59.6541 96.5049 65.3501 92.9678 68.8662L92.6113 69.2207L92.6836 69.7178C95.5326 89.5262 100.172 120.152 102.716 135.6L94.5557 136.314C92.9404 122.094 89.4818 97.0786 86.123 74.4961L85.9248 73.1582L84.7041 73.7402L84.3916 73.8896L83.8242 74.1602L83.8223 74.7881C83.7207 98.7765 83.8175 122.056 83.9189 135.502H75.9453C76.3417 110.86 76.3399 65.6232 75.9395 25.3018ZM83.8223 63.4717L85.2842 62.7109C89.1143 60.717 91.5488 56.3061 91.5488 51.0918C91.5488 47.9719 91.1544 45.4727 90.1348 43.5127C89.0929 41.5101 87.4529 40.1717 85.1885 39.2803L83.8223 38.7422V63.4717Z" fill="#E54326" stroke="black" stroke-width="2"/>
</svg>
