<svg width="214" height="92" viewBox="0 0 214 92" fill="none" xmlns="http://www.w3.org/2000/svg">
<path fill-rule="evenodd" clip-rule="evenodd" d="M190.374 1H88.462V1.00098L23.4207 1.00097L1.11719 45.7964L23.4207 90.5918L125.333 90.5918V90.5908H190.374L212.678 45.7954L190.374 1Z" fill="#E54326"/>
<path d="M88.462 1V0H87.462V1H88.462ZM190.374 1L191.27 0.554293L190.994 0H190.374V1ZM88.462 1.00098V2.00098L89.462 2.00098V1.00098H88.462ZM23.4207 1.00097V0.000968933L22.8015 0.000968874L22.5255 0.555262L23.4207 1.00097ZM1.11719 45.7964L0.222009 45.3507L9.2268e-05 45.7964L0.222009 46.2421L1.11719 45.7964ZM23.4207 90.5918L22.5255 91.0375L22.8015 91.5918H23.4207V90.5918ZM125.333 90.5918V91.5918H126.333V90.5918H125.333ZM125.333 90.5908V89.5908H124.333V90.5908H125.333ZM190.374 90.5908V91.5908H190.994L191.27 91.0365L190.374 90.5908ZM212.678 45.7954L213.573 46.2411L213.795 45.7954L213.573 45.3497L212.678 45.7954ZM88.462 2H190.374V0H88.462V2ZM89.462 1.00098V1H87.462V1.00098H89.462ZM23.4207 2.00097L88.462 2.00098V0.000975251L23.4207 0.000968933V2.00097ZM2.01237 46.2421L24.3159 1.44668L22.5255 0.555262L0.222009 45.3507L2.01237 46.2421ZM24.3159 90.1461L2.01237 45.3507L0.222009 46.2421L22.5255 91.0375L24.3159 90.1461ZM125.333 89.5918L23.4207 89.5918V91.5918L125.333 91.5918V89.5918ZM124.333 90.5908V90.5918H126.333V90.5908H124.333ZM190.374 89.5908H125.333V91.5908H190.374V89.5908ZM211.783 45.3497L189.479 90.1451L191.27 91.0365L213.573 46.2411L211.783 45.3497ZM189.479 1.44571L211.783 46.2411L213.573 45.3497L191.27 0.554293L189.479 1.44571Z" fill="black"/>
<path d="M110.805 14.1875C113.077 14.206 115.009 14.7834 116.509 15.4932L114.254 20.3965C113.404 19.9476 112.421 19.6479 111.531 19.6406C110.625 19.6333 109.812 19.9703 109.243 20.6484C108.694 21.3029 108.456 22.1725 108.448 23.0977C108.436 24.6586 108.986 27.8286 109.765 31.6953C110.553 35.6101 111.609 40.3784 112.659 45.2109C113.711 50.0507 114.759 54.9593 115.54 59.1787C116.326 63.4271 116.823 66.8866 116.807 68.873C116.781 72.0591 115.839 74.298 114.389 75.7344C112.936 77.1723 110.855 77.9249 108.318 77.9043C106.292 77.8878 104.254 77.4434 102.427 76.7285L103.988 71.3359C104.981 71.9077 105.997 72.181 106.909 72.1885C107.924 72.1967 108.899 71.8357 109.623 71.1084C110.35 70.3779 110.758 69.3469 110.768 68.1387C110.784 66.0792 110.261 62.605 109.503 58.5342C108.739 54.4323 107.716 49.6254 106.696 44.8535C105.675 40.0745 104.657 35.3309 103.897 31.333C103.132 27.3003 102.651 24.1324 102.665 22.4512C102.687 19.8018 103.549 17.7437 104.94 16.3564C106.331 14.9697 108.336 14.1675 110.805 14.1875ZM128.926 15.1904C128.622 30.6675 128.058 49.9473 128.051 61.1826V61.1973L128.052 61.2109C128.117 63.568 128.11 64.6486 128.18 66.5283L128.181 66.542C128.257 68.0581 128.52 69.2029 129.011 69.9971C129.55 70.869 130.336 71.2665 131.194 71.2734C131.613 71.2768 132.062 71.2057 132.494 70.9883C132.932 70.7683 133.296 70.4275 133.582 69.9795C134.13 69.1212 134.403 67.8537 134.461 66.1318L134.462 66.1191C134.734 53.184 134.856 28.4647 134.722 15.2383L140.909 15.2881C140.652 28.0288 140.557 49.4665 140.456 61.875C140.405 68.1285 139.555 72.1132 138.006 74.5117C136.529 76.7971 134.326 77.7727 131.056 77.7461C128.419 77.7246 126.495 76.8714 125.137 75.4541C123.759 74.0164 122.874 71.9021 122.529 69.2119C122.135 66.0161 122.074 63.3248 122.094 60.8701C122.199 47.9735 122.679 28.623 122.726 15.1406L128.926 15.1904ZM146.552 15.1084C152.707 15.3915 157.337 16.6843 160.439 18.9414C163.652 21.2788 165.346 24.7345 165.307 29.5518C165.268 34.3202 163.04 37.4345 160.178 39.3877L159.633 39.7598L159.761 40.4072C161.965 51.5747 165.537 68.7219 167.581 77.7754L161.273 78.1094C159.988 69.8641 157.299 55.6799 154.68 42.8662L154.455 41.7705L153.392 42.1152L153.134 42.1992L152.452 42.4199L152.442 43.1357C152.25 56.6595 152.22 69.7918 152.238 77.5762L146.053 77.5254C146.482 63.366 146.686 37.9164 146.552 15.1084ZM185.29 15.6494L185.243 21.3955C183.753 21.3251 182.529 21.2828 181.487 21.248C180.207 21.2053 179.217 21.1753 178.333 21.126L177.286 21.0684L177.277 22.1172C177.263 23.8646 177.228 25.6343 177.191 27.4541C177.155 29.2721 177.118 31.1389 177.103 33.0713L177.095 34.1006L178.123 34.0791C180.395 34.0327 182.97 34.0361 184.542 34.0039L184.493 39.9531C182.895 39.8749 180.316 39.8014 177.963 39.7822L176.972 39.7734L176.955 40.7646C176.788 50.7833 176.702 61.4024 176.708 71.166V72.1572L177.699 72.166C179.919 72.1841 182.479 72.1352 185.26 71.9619L185.212 77.8438L170.531 77.7246C170.812 62.6068 171.029 35.9285 171.035 15.5332L185.29 15.6494ZM94.2168 14.9082C95.1109 28.0649 97.8781 60.3837 99.5176 77.1465L93.3779 77.0967C93.2259 71.4421 92.8158 61.2812 92.2598 50.2119L92.2129 49.2695L91.2695 49.2627L87.418 49.2314L86.4814 49.2236L86.4121 50.1572C85.6752 60.0767 85.0983 69.7602 84.6973 77.0273L78.6309 76.9775C80.6059 59.7475 83.0152 35.5746 84.8525 14.832L94.2168 14.9082ZM76.6328 14.7656L76.5859 20.5117C75.0956 20.4414 73.8721 20.398 72.8301 20.3633C71.5498 20.3206 70.5596 20.2915 69.6758 20.2422L68.6289 20.1846L68.6201 21.2334C68.6059 22.9808 68.5704 24.7505 68.5342 26.5703C68.498 28.3883 68.462 30.2552 68.4463 32.1875L68.4375 33.2168L69.4658 33.1953C71.7376 33.1489 74.3129 33.1523 75.8848 33.1201L75.8359 39.0693C74.2375 38.9911 71.6591 38.9176 69.3057 38.8984L68.3145 38.8896L68.2979 39.8809C68.1307 49.8996 68.0446 60.5186 68.0508 70.2822V71.2734L69.042 71.2822C71.2616 71.3003 73.8217 71.2514 76.6025 71.0781L76.5547 76.96L61.874 76.8408C62.1546 61.7231 62.3715 35.0448 62.3779 14.6494L76.6328 14.7656ZM37.4434 14.3438C38.4363 20.7587 40.724 34.2911 42.3457 45.5635L44.3232 45.5791C46.0196 34.9667 48.5984 20.0941 49.4219 14.415C50.2699 14.4503 51.5065 14.4876 52.707 14.5176C53.936 14.5483 55.1775 14.5729 56.0322 14.5889C56.0208 37.6486 56.3852 62.2148 56.6074 76.7979L50.5146 76.748C50.6782 69.0353 51.033 63.4025 51.041 52.3242V52.3008C50.915 46.85 51.1581 37.8993 51.3047 30.4336L51.3174 29.8076L50.7598 29.5225L50.5889 29.4355L49.333 28.7949L49.1436 30.1924C47.2838 43.9128 45.7182 59.685 44.293 71.1816C43.2655 71.1409 42.1391 71.13 41.1855 71.1523C39.7806 58.4054 38.3175 43.415 36.8389 29.6758L36.6865 28.2568L35.4053 28.8848L35.2334 28.9688L34.6709 29.2441L34.6729 29.8701C34.6864 33.4639 34.6978 37.3162 34.71 41.083L34.752 51.7842C34.7632 60.4321 34.6898 69.6997 34.5596 76.6182L28.5439 76.5693C29.2357 62.031 29.9372 36.8681 30.6143 14.3896C31.4315 14.3943 32.646 14.3996 33.873 14.3965C34.8756 14.3939 35.8919 14.3859 36.708 14.3682C36.9746 14.3624 37.2225 14.352 37.4434 14.3438ZM88.4482 20.9678C87.8843 27.0506 87.3092 34.5867 86.7324 42.3701L86.6533 43.4355L87.7217 43.4443C88.7487 43.4527 89.8617 43.4623 90.8887 43.4707L91.9443 43.4785L91.8955 42.4238C91.5313 34.5391 91.0802 26.8257 90.6992 20.9971L90.6387 20.0693L89.709 20.0625L89.4521 20.0596L88.5332 20.0527L88.4482 20.9678ZM152.604 23.2852C152.571 27.3078 152.537 31.5025 152.503 35.6963L152.491 37.123L153.837 36.6465C156.986 35.5301 159.233 32.9112 159.26 29.5879C159.275 27.7244 158.949 26.1485 158.03 24.8936C157.109 23.6347 155.701 22.8498 153.877 22.332L152.614 21.9736L152.604 23.2852Z" fill="#E54326" stroke="black" stroke-width="2"/>
</svg>
