<svg width="181" height="196" viewBox="0 0 181 196" fill="none" xmlns="http://www.w3.org/2000/svg">
<path d="M3.20703 96.4316C25.0288 89.8578 46.2936 89.1829 65.4961 90.1406C75.0944 90.6194 84.1943 91.5072 92.5801 92.2725C100.98 93.039 108.65 93.6816 115.448 93.6816C128.572 93.6816 139.263 92.7668 149.142 91.9326C159.013 91.0991 168.098 90.3438 177.938 90.6846L178.829 90.7148L178.901 91.6025C180.396 110.073 177.624 160.153 175.289 188.085L175.218 188.941L174.36 189C160.211 189.961 145.868 191.807 131.381 191.807C117.41 191.807 103.823 190.52 91.8945 189.238C79.9287 187.952 69.7052 186.681 62.3398 186.681C44.1759 186.681 22.5917 190.243 7.56152 194.001L6.39551 194.292L6.32129 193.092C5.26761 176.016 1.00882 144.023 1.00879 120.212C1.00879 108.733 0.791981 105.136 2.51855 97.1777L2.64355 96.6016L3.20703 96.4316Z" fill="#169286" stroke="black" stroke-width="2"/>
<path d="M29.583 7.31348C43.9145 1.06078 57.876 0.424047 70.4453 1.33203C76.7231 1.78553 82.6744 2.62694 88.1348 3.34863C93.6154 4.07301 98.5817 4.67381 102.973 4.67383C111.492 4.67383 118.431 3.81409 124.873 3.02637C130.902 2.28914 136.525 1.60944 142.535 1.79492L143.742 1.84375L144.641 1.88965L144.69 2.78711C145.662 20.1794 145.583 68.4831 144.058 94.9043L144.008 95.7588L143.157 95.8418C133.998 96.743 124.56 98.4951 115.082 98.4951C105.922 98.4951 95.7793 97.0424 86.7646 95.6025C77.6804 94.1516 69.8421 92.7344 65.0986 92.7344C53.3649 92.7344 42.6186 95.9277 32.8164 99.4775L31.5352 99.9424L31.4766 98.5801C30.7881 82.4225 28.0137 52.2582 28.0137 29.7803C28.0137 18.9343 27.8729 15.5666 28.9941 8.08203L29.0762 7.53516L29.583 7.31348Z" fill="#169286" stroke="black" stroke-width="2"/>
<path d="M97.7207 16.9521C97.9401 21.827 99.0245 32.7146 100.429 47.7793V47.7803C101.089 55.3578 101.655 64.5705 102.128 71.5674L102.19 72.5H104.542L104.596 71.5576C104.974 64.9984 105.54 55.882 106.292 49.2725L106.293 49.2637L106.294 49.2539C106.956 42.2537 107.382 36.1832 107.76 30.749C108.113 25.6717 108.426 21.1609 108.848 16.9521H116.396C116.829 21.0405 117.207 24.506 117.659 28.5801L119.513 45.3018C120.172 51.8409 121.021 63.6332 121.588 71.5713L121.654 72.5H123.892L123.961 71.5742C124.531 63.9451 124.904 56.1458 125.658 48.6562L125.66 48.6436C126.505 39.048 126.596 32.724 128.122 16.9521H134.945C132.291 35.8726 129.155 65.0268 127.636 79.6426H117.826C117.272 73.8859 116.553 64.7949 115.836 55.3799V55.3711L115.49 51.2529C114.707 41.7012 114.077 32.6595 113.664 26.3232L113.604 25.3887H111.304L111.289 26.373C111.195 32.5517 110.724 40.8942 109.875 51.4082L109.874 51.416C109.158 61.2214 107.845 73.8248 107.149 79.6426H96.6807C95.6113 66.0192 92.88 32.2443 91.1152 16.9521H97.7207ZM88.0889 16.9521V22.7627C86.3941 22.7016 85.0098 22.6667 83.834 22.6396C82.4218 22.6071 81.3254 22.5855 80.3467 22.543L79.3037 22.498V23.542C79.3037 25.3025 79.2805 27.0856 79.2568 28.9199C79.2332 30.7522 79.209 32.6349 79.209 34.583V35.6094L80.2354 35.582C82.8085 35.5149 85.7124 35.4986 87.4277 35.4512V41.4688C85.6783 41.4012 82.7677 41.3457 80.1143 41.3457H79.124L79.1143 42.3359C79.0197 52.4339 79.0197 63.1361 79.1143 72.9756L79.124 73.9658H80.1143C82.5917 73.9658 85.4534 73.8944 88.5615 73.6914V79.6426H72.1504C72.3244 64.4049 72.3246 37.5093 72.1484 16.9521H88.0889ZM52.8916 16.8359C53.4821 21.8707 55.1107 33.2061 57.2324 45.96L57.2344 45.9678L57.2354 45.9756C57.7977 49.0563 58.2674 52.3135 58.6436 55.4043L58.8086 56.7607L60.0518 56.1934L60.2402 56.1074L60.8594 55.8252L60.8232 55.1455C60.7278 53.3157 60.6357 51.7136 60.6357 50.626V50.5977C60.2704 37.7548 59.6452 25.969 59.5156 16.9521H65.9873C65.629 36.7691 65.3668 66.4154 65.6953 79.5996C65.6019 79.5979 65.5038 79.5952 65.4023 79.5938C64.6535 79.5829 63.6829 79.5781 62.7178 79.5781C61.7526 79.5781 60.788 79.5829 60.0508 79.5938C59.8889 79.5961 59.737 79.6006 59.5977 79.6035C58.5406 74.3424 55.4485 58.9012 52.7773 44.918L52.7764 44.9102L52.7744 44.9033L52.5371 43.7207C52.0019 40.972 51.5917 38.2942 51.1768 35.7178L51.041 34.877H48.9492L49.002 35.9268C49.1912 39.7287 49.3794 43.2542 49.4736 45.6621V45.668C50.0223 57.8582 50.3926 69.1571 50.5869 79.6426H43.7324C43.8228 66.3655 43.9067 36.732 43.7344 16.9502C46.1043 16.9483 50.6227 16.9349 52.8916 16.8359Z" fill="#169286" stroke="black" stroke-width="2"/>
<path d="M137.666 104.553C140.339 104.553 142.607 105.203 144.356 106.001L141.731 111.642C140.743 111.121 139.58 110.771 138.545 110.771C137.559 110.771 136.68 111.131 136.062 111.854C135.462 112.558 135.2 113.498 135.2 114.511C135.2 116.225 135.855 119.71 136.78 123.974C137.717 128.286 138.965 133.538 140.209 138.862C141.455 144.194 142.696 149.604 143.627 154.255C144.564 158.936 145.164 162.756 145.164 164.956C145.164 168.483 144.107 170.987 142.438 172.611C140.764 174.241 138.352 175.103 135.419 175.103C133.045 175.103 130.659 174.61 128.524 173.81L130.325 167.608C131.498 168.287 132.699 168.601 133.759 168.601C134.872 168.6 135.94 168.21 136.732 167.427C137.531 166.638 137.982 165.521 137.982 164.2C137.982 161.935 137.355 158.112 136.451 153.625C135.541 149.106 134.329 143.81 133.121 138.553C131.911 133.288 130.705 128.061 129.802 123.654C128.891 119.212 128.312 115.713 128.312 113.85C128.312 110.913 129.281 108.61 130.881 107.042C132.484 105.471 134.806 104.553 137.666 104.553ZM14.7246 105.241C21.8444 105.485 27.2264 106.877 30.8477 109.382C34.5762 111.96 36.5458 115.792 36.5459 121.123C36.5459 126.409 34.0195 129.897 30.7363 132.102L30.1758 132.479L30.3164 133.14C32.9457 145.49 37.2005 164.476 39.6123 174.419L32.1309 174.862C30.5942 165.791 27.3804 150.099 24.2607 135.929L24.0244 134.854L22.9775 135.191L22.6846 135.286L21.9951 135.509L21.9912 136.231C21.8973 151.219 21.9845 165.77 22.0781 174.348H14.7334C15.0948 158.716 15.0918 130.497 14.7246 105.241ZM167.498 105.497V112.054C165.73 111.986 164.288 111.947 163.064 111.917C161.604 111.881 160.472 111.858 159.46 111.812L158.414 111.764V112.811C158.414 114.74 158.39 116.693 158.365 118.702C158.341 120.709 158.316 122.77 158.316 124.902V125.93L159.344 125.901C162.02 125.827 165.044 125.81 166.814 125.757V132.541C165.009 132.466 161.979 132.404 159.219 132.404H158.228L158.219 133.396C158.121 144.454 158.121 156.174 158.219 166.949L158.228 167.939H159.219C161.79 167.939 164.76 167.861 167.987 167.637V174.348H150.948C151.13 157.654 151.129 128.067 150.945 105.497H167.498ZM119.542 105.497C120.679 119.975 124.16 155.853 126.189 174.348H118.891C118.667 168.13 118.103 156.864 117.361 144.585L117.305 143.646H111.034L110.97 144.577C110.218 155.577 109.648 166.313 109.258 174.348H102.045C104.144 155.28 106.68 128.472 108.589 105.497H119.542ZM99.4814 105.497V112.054C97.7135 111.986 96.2715 111.947 95.0479 111.917C93.5874 111.881 92.4542 111.858 91.4424 111.812L90.3965 111.764V112.811C90.3965 114.74 90.3721 116.693 90.3477 118.702C90.3232 120.709 90.2988 122.77 90.2988 124.902V125.93L91.3262 125.901C94.0024 125.827 97.0277 125.81 98.7979 125.757V132.541C96.992 132.466 93.9619 132.404 91.2012 132.404H90.21L90.2012 133.396C90.1034 144.454 90.1034 156.174 90.2012 166.949L90.21 167.939H91.2012C93.772 167.939 96.7427 167.861 99.9697 167.637V174.348H82.9307C83.112 157.654 83.111 128.067 82.9277 105.497H99.4814ZM59.2246 105.497V112.054C57.4567 111.986 56.0147 111.947 54.791 111.917C53.3306 111.881 52.1973 111.858 51.1855 111.812L50.1396 111.764V112.811C50.1396 114.74 50.1153 116.693 50.0908 118.702C50.0664 120.709 50.042 122.77 50.042 124.902V125.93L51.0693 125.901C53.7456 125.827 56.7709 125.81 58.541 125.757V132.541C56.7352 132.466 53.7052 132.404 50.9443 132.404H49.9531L49.9443 133.396C49.8466 144.454 49.8466 156.174 49.9443 166.949L49.9531 167.939H50.9443C53.5152 167.939 56.4858 167.861 59.7129 167.637V174.348H42.6738C42.8551 157.654 42.8542 128.067 42.6709 105.497H59.2246ZM72.0576 105.497C71.7929 117.965 71.8855 145.56 71.9805 167.322L71.9854 168.317H72.9805C74.8619 168.317 76.9594 168.246 79.209 168.104V174.329C75.047 174.248 69.9562 174.182 64.5264 174.32C64.8751 158.433 64.7044 118.974 64.5186 105.497H72.0576ZM113.022 112.346C112.435 119.064 111.849 127.386 111.263 135.981L111.19 137.049H116.933L116.874 135.993C116.385 127.295 115.798 118.786 115.31 112.356L115.239 111.433H113.103L113.022 112.346ZM21.9912 129.432L23.3232 128.963C26.8489 127.723 29.3633 124.855 29.3633 121.218C29.3633 119.167 28.9768 117.45 27.9346 116.097C26.893 114.744 25.3127 113.905 23.248 113.355L21.9912 113.021V129.432Z" fill="#169286" stroke="black" stroke-width="2"/>
</svg>
