<svg width="160" height="187" viewBox="0 0 160 187" fill="none" xmlns="http://www.w3.org/2000/svg">
<path d="M91.9735 180.853C82.3126 150.921 55.8719 143.407 23.5244 157.903C45.6705 141.124 47.1458 134.014 27.6876 136.561C33.5942 129.047 34.1299 122.201 0.443359 133.742C34.1299 117.103 36.4089 109.453 10.5085 103.279C34.3978 89.0501 37.2171 63.6854 1.5146 34.1573C37.6164 56.0356 48.7479 51.4729 43.1238 26.5075C59.7625 42.4792 66.7452 35.5013 64.0622 5.30127C77.755 33.3539 97.3494 37.7802 128.889 14.967C111.037 43.9546 119.763 49.1892 154.794 30.3982C126.877 49.8758 124.603 58.855 155.734 58.0466C133.855 83.0121 128.889 107.841 155.193 143.811C124.457 122.873 113.316 127.299 121.507 157.363C102.852 138.036 93.3175 145.959 91.9735 180.853Z" fill="#E54326" stroke="black" stroke-width="2" stroke-miterlimit="10"/>
<path d="M139.221 49.9185C133.168 72.4054 125.099 108.507 120.97 125.545H108.568C108.87 118.889 109.171 107.699 109.975 96.1047C110.783 83.196 111.791 70.5891 112.497 62.1212H112.103C110.895 69.3815 109.079 79.1641 106.459 91.4642C103.937 103.565 100.708 119.293 99.0967 125.55H85.9883C87.0985 110.021 89.3968 67.4678 90.02 49.9233H99.2719C98.6681 54.8658 97.962 68.0765 96.9541 87.033C96.4671 95.9051 95.8439 106.696 95.3424 114.862H95.7465C97.0563 107.197 98.9701 96.5089 100.786 88.7471C104.619 72.4102 106.63 60.412 109.157 49.9233H119.139C118.652 60.412 118.433 67.0685 117.727 84.1065C117.323 91.771 116.617 105.585 116.115 114.862H116.519C118.233 105.99 119.641 96.8108 121.559 88.041C124.082 76.7489 125.289 69.0844 129.725 49.9233L139.221 49.9185Z" fill="#E54326" stroke="black" stroke-width="2" stroke-miterlimit="10"/>
<path d="M78.729 130.894H59.0664C61.988 113.043 67.0327 79.9696 70.6604 55.2622H89.8215L88.4094 64.441C83.6715 64.2414 81.1492 64.2414 79.031 64.1391C78.4272 68.2732 77.721 72.607 77.015 77.043C80.4235 77.043 84.3775 76.9457 85.6874 76.8434L84.3776 86.3241C82.9654 86.2219 79.0212 86.1196 75.5006 86.1196C73.587 97.9182 71.6684 110.423 69.9543 121.915C72.876 121.915 76.2846 121.817 80.1412 121.515L78.729 130.894Z" fill="#E54326" stroke="black" stroke-width="2" stroke-miterlimit="10"/>
<path d="M64.637 37.6333C64.9681 52.5629 66.4825 101.164 67.3541 114.141C67.0376 114.098 59.2173 115.602 59.042 115.753C58 110.923 53.7393 92.1317 50.0434 75.1813C49.2107 71.4367 48.6215 67.8772 47.969 64.4686L47.6719 64.527C48.1589 69.0604 48.4316 73.214 48.6702 76.0432C49.8924 90.8023 50.7982 104.49 51.514 117.194L42.2134 118.996C41.7264 102.659 40.3289 68.5199 39.1992 42.5465L50.7787 40.3017C51.4409 45.3075 53.7928 59.0246 56.8264 74.6651C57.5374 78.3318 58.1704 82.1104 58.7742 85.7917L58.9738 85.7527C58.7303 83.4398 58.5453 81.419 58.4869 80.0945C57.513 64.4686 56.1691 50.1428 55.7211 39.3425L64.637 37.6333Z" fill="#E54326" stroke="black" stroke-width="2" stroke-miterlimit="10"/>
</svg>
