<svg width="187" height="141" viewBox="0 0 187 141" fill="none" xmlns="http://www.w3.org/2000/svg">
<path d="M50.5889 1C57.7256 1.00002 62.5221 2.08158 67.085 3.2334C71.6641 4.38933 76.0753 5.63719 82.2949 5.87305H82.2988C89.0586 6.09916 93.9363 7.52597 97.1143 10.1592C100.248 12.7561 101.889 16.6629 101.889 22.2471C101.889 26.3329 101.141 28.9796 100.361 31.8701C99.5722 34.7955 98.7647 37.928 98.7646 42.8379C98.7646 50.2796 100.913 54.9133 102.97 59.9814C105.009 65.0062 107.028 70.5945 107.028 80.1621C107.028 87.9744 104.816 93.9 101.274 97.8594C97.7401 101.811 92.8058 103.891 87.1689 103.892C83.5456 103.892 79.9723 102.566 75.8965 101.145C71.8776 99.7428 67.4525 98.2861 62.3789 98.2861C56.8236 98.2861 52.8765 99.9733 48.876 101.575C44.8882 103.172 40.7745 104.722 34.6729 104.722C30.8667 104.722 27.7019 103.736 25.3369 101.401C22.9567 99.0514 21.246 95.1966 20.6543 89.168H20.6533C20.2473 84.7243 19.6565 81.6573 18.5215 79.041C17.5236 76.741 16.1301 74.8464 14.1904 72.6963L13.3252 71.7578C11.7205 70.0335 10.1197 68.4889 8.65234 67.041C7.17438 65.5827 5.83291 64.2224 4.69238 62.8271C2.43439 60.0647 1 57.2065 1 53.3213C1 49.5369 2.08987 46.7548 3.73047 44.5098C5.3913 42.2371 7.64271 40.4763 10.0469 38.7861L10.0537 38.7822L10.0596 38.7773C12.2897 37.1601 14.7088 35.2969 16.7295 32.6582C18.6353 30.1694 20.1629 27.0245 20.9053 22.793L21.043 21.9326C21.9683 15.5804 24.7759 10.3846 29.5752 6.76172C34.3904 3.12695 41.3118 1 50.5889 1Z" fill="#FFC900" stroke="black" stroke-width="2"/>
<path d="M35.5942 21.5312C27.3713 21.5312 23.9805 33.5688 23.9805 53.8292C23.9805 74.5134 27.5409 86.5509 35.5942 86.5509C43.6474 86.5509 47.2078 74.5134 47.2078 53.8292C47.2078 33.3145 43.7322 21.5312 35.5942 21.5312ZM35.5942 79.4301C34.0683 79.4301 32.4576 71.2921 32.4576 53.8292C32.4576 36.451 34.0683 28.9911 35.5942 28.9911C37.12 28.9911 38.7307 36.451 38.7307 53.8292C38.7307 71.2921 37.12 79.4301 35.5942 79.4301Z" fill="#FFC900"/>
<path d="M58.3851 22.1246H50.247C50.3318 35.5185 49.9927 55.2703 49.9927 68.4099C49.9927 70.8682 50.0775 73.5809 50.5013 76.8022C51.2643 82.3971 54.3161 86.0423 59.9958 86.0423C66.947 86.0423 70.1683 81.719 70.1683 69.2576C70.1683 56.6266 70.0835 34.5861 70.2531 22.1246H62.115C62.3694 34.9251 62.4541 60.3566 62.2846 73.4961C62.1998 76.8022 61.2673 77.6499 60.0805 77.6499C59.0633 77.6499 58.2155 76.8022 58.046 73.92C57.9612 72.055 57.9612 71.0378 57.8765 68.6642C57.7917 57.3048 58.2155 37.6378 58.3851 22.1246Z" fill="#FFC900"/>
<path d="M89.6869 29.8389V22.1246H72.3936V29.8389C73.1565 29.7541 75.191 29.7541 77.2255 29.7541C77.2255 46.7084 77.1408 75.1916 76.9712 85.7032H85.1093C84.9397 75.1068 84.855 46.7084 85.1093 29.7541C86.9743 29.7541 89.0935 29.7541 89.6869 29.8389Z" fill="#FFC900"/>
<path d="M35.5942 21.5312C27.3713 21.5312 23.9805 33.5688 23.9805 53.8292C23.9805 74.5134 27.5409 86.5509 35.5942 86.5509C43.6474 86.5509 47.2078 74.5134 47.2078 53.8292C47.2078 33.3145 43.7322 21.5312 35.5942 21.5312ZM35.5942 79.4301C34.0683 79.4301 32.4576 71.2921 32.4576 53.8292C32.4576 36.451 34.0683 28.9911 35.5942 28.9911C37.12 28.9911 38.7307 36.451 38.7307 53.8292C38.7307 71.2921 37.12 79.4301 35.5942 79.4301Z" stroke="black" stroke-width="2" stroke-miterlimit="10"/>
<path d="M58.3851 22.1246H50.247C50.3318 35.5185 49.9927 55.2703 49.9927 68.4099C49.9927 70.8682 50.0775 73.5809 50.5013 76.8022C51.2643 82.3971 54.3161 86.0423 59.9958 86.0423C66.947 86.0423 70.1683 81.719 70.1683 69.2576C70.1683 56.6266 70.0835 34.5861 70.2531 22.1246H62.115C62.3694 34.9251 62.4541 60.3566 62.2846 73.4961C62.1998 76.8022 61.2673 77.6499 60.0805 77.6499C59.0633 77.6499 58.2155 76.8022 58.046 73.92C57.9612 72.055 57.9612 71.0378 57.8765 68.6642C57.7917 57.3048 58.2155 37.6378 58.3851 22.1246Z" stroke="black" stroke-width="2" stroke-miterlimit="10"/>
<path d="M89.6869 29.8389V22.1246H72.3936V29.8389C73.1565 29.7541 75.191 29.7541 77.2255 29.7541C77.2255 46.7084 77.1408 75.1916 76.9712 85.7032H85.1093C84.9397 75.1068 84.855 46.7084 85.1093 29.7541C86.9743 29.7541 89.0935 29.7541 89.6869 29.8389Z" stroke="black" stroke-width="2" stroke-miterlimit="10"/>
<path d="M128.558 139.264C160.023 139.264 185.53 121.388 185.53 99.3354C185.53 77.2831 160.023 59.4062 128.558 59.4062C97.0932 59.4062 71.5859 77.2831 71.5859 99.3354C71.5859 121.388 97.0932 139.264 128.558 139.264Z" fill="#FFC900" stroke="black" stroke-width="2" stroke-miterlimit="10"/>
<path d="M100.969 76.0904C101.043 82.9542 101.56 92.1491 101.856 102.121C101.856 102.963 101.93 104.193 102.004 105.553L101.856 105.618C101.56 103.287 101.191 100.826 100.747 98.4949C98.974 88.264 97.6439 79.2633 97.2745 75.9609C95.9444 76.0904 90.2546 76.0904 88.6289 76.0904C88.7767 91.3073 88.7028 114.942 88.6289 124.655H95.5749C95.4271 116.561 95.1315 107.819 94.6882 98.3654C94.6143 96.5523 94.4665 93.8974 94.3187 91.0483H94.4665C94.836 93.2499 95.2054 95.581 95.7227 97.9769C97.9395 109.114 100.526 121.482 101.191 124.655C101.339 124.59 107.176 124.59 107.398 124.655C107.102 115.072 107.324 91.3721 107.62 76.0904H100.969Z" fill="#FFC900" stroke="black" stroke-width="2" stroke-miterlimit="10"/>
<path d="M121.734 69.1484C114.493 69.1484 111.508 80.7779 111.508 100.351C111.508 120.334 114.643 131.964 121.734 131.964C128.824 131.964 131.959 120.334 131.959 100.351C131.959 80.5322 128.899 69.1484 121.734 69.1484ZM121.734 125.084C120.39 125.084 118.972 117.222 118.972 100.351C118.972 83.5624 120.39 76.3554 121.734 76.3554C123.077 76.3554 124.495 83.5624 124.495 100.351C124.495 117.222 123.077 125.084 121.734 125.084Z" fill="#FFC900" stroke="black" stroke-width="2" stroke-miterlimit="10"/>
<path d="M163.394 75.9609C162.122 88.2968 162.047 93.2311 161.373 100.503C160.775 106.151 160.475 112.059 160.026 117.773H159.727C159.278 111.8 158.604 102.905 158.081 97.9706C156.808 86.9983 156.285 82.7132 155.536 75.9609H148.127C147.379 82.7132 147.08 90.4393 146.032 100.957C145.433 105.956 144.984 112.839 144.685 117.773H144.311C143.936 112.514 143.487 105.567 142.963 99.8535C141.766 87.6475 140.868 79.1423 140.793 75.9609H133.908C135.33 87.258 137.65 114.656 138.473 124.655H148.202C148.726 120.63 149.849 110.501 150.447 102.71C151.121 94.7893 151.495 88.4915 151.57 83.8169H151.869C152.243 89.2706 152.842 97.3863 153.59 105.697C154.189 113.163 154.788 120.37 155.237 124.655H164.442C165.639 113.683 168.258 90.4393 170.429 75.9609H163.394Z" fill="#FFC900" stroke="black" stroke-width="2" stroke-miterlimit="10"/>
</svg>
