<svg width="186" height="199" viewBox="0 0 186 199" fill="none" xmlns="http://www.w3.org/2000/svg">
<path d="M82.6523 1.91602C104.829 29.7009 136.808 35.2421 171.287 31.3262C165.451 46.3294 163.006 60.7453 164.828 74.6387C166.666 88.6539 172.838 102.058 184.113 114.937C161.178 125.693 147.272 154.2 150.705 181.837C115.655 172.391 85.5305 177.629 64.4512 196.289C60.6357 184.828 54.7217 171.584 44.9668 161.246C35.1835 150.879 21.5659 143.469 2.47363 143.668C27.7726 117.238 25.0097 73.0772 2.6709 46.9346C26.2758 46.9402 43.2269 42.4179 55.8359 34.4512C68.3772 26.5272 76.5178 15.2619 82.6523 1.91602Z" fill="#169387" stroke="black" stroke-width="2"/>
<path d="M114.878 43.6928C121.058 45.4872 125.444 47.9342 128.042 50.9905C130.727 54.1509 131.595 58.0722 130.374 62.9436C129.165 67.7694 126.14 70.3826 122.758 71.6612L122.141 71.8949L122.113 72.5538C121.609 84.4026 121.024 102.652 120.877 112.293L114.336 111.073C115.054 102.429 115.806 87.4083 116.294 73.7934L116.334 72.6762L115.219 72.7613L114.938 72.7828L114.223 72.8367L114.045 73.5303C110.537 87.1788 107.288 100.47 105.404 108.339L99.0835 106.755C102.983 92.545 109.427 66.8169 114.878 43.6928ZM153.644 53.6514L152.174 59.5149C151.907 59.44 151.617 59.3587 151.316 59.2794C150.459 59.0529 149.437 58.7969 148.489 58.5592L147.533 58.3191L147.28 59.2709C142.822 75.9891 135.939 103.781 133.223 115.31L126.897 113.725C129.921 102.347 136.982 74.5252 141.184 57.7593L141.428 56.7892L140.457 56.5458C139.036 56.1895 137.555 55.8202 136.496 55.5886L137.967 49.7222L153.644 53.6514ZM105.693 41.6341C103.379 55.1416 98.2568 88.5847 95.8138 105.936L89.5371 104.362C90.7656 98.6168 92.8422 88.2235 94.9928 76.871L95.1681 75.9443L94.2529 75.7145C93.6485 75.5631 92.9788 75.3957 92.3096 75.228C91.6406 75.0604 90.9718 74.8922 90.3675 74.7408L89.4588 74.5135L89.1724 75.4046C85.9956 85.2689 83.0382 94.933 80.8538 102.186L74.6519 100.632C80.8688 83.6833 89.2331 59.7947 96.1731 39.2489L105.693 41.6341ZM70.4313 32.5485C76.2665 34.2147 80.6843 36.588 83.3827 39.6902C86.1817 42.908 87.2223 47.0118 85.9074 52.2587C84.852 56.4701 82.6237 59.3227 79.8469 61.0628C77.0544 62.8128 73.641 63.478 70.1795 63.1782L69.3298 63.1038L69.1223 63.9309C65.8303 77.0672 62.6758 89.6602 60.8722 97.1785L54.6324 95.6145C58.4677 81.3224 64.8385 55.8951 70.4313 32.5485ZM98.3716 46.392C96.3134 52.4035 93.8883 59.8821 91.4009 67.6102L91.0736 68.6271L92.1092 68.8866C93.1455 69.1463 94.2686 69.4278 95.3049 69.6875L96.329 69.9444L96.5295 68.9083C98.0902 60.8477 99.5216 52.9385 100.562 46.9525L100.721 46.0371L99.82 45.8116L99.5603 45.7468L98.669 45.5225L98.3716 46.392ZM119.065 53.5013C118.048 57.56 116.988 61.7915 115.927 66.0229L115.579 67.4079L117 67.261C120.444 66.9041 123.339 64.8158 124.175 61.4822C124.645 59.6061 124.699 57.9426 124.082 56.4602C123.462 54.9731 122.24 53.8403 120.526 52.8728L119.384 52.228L119.065 53.5013ZM74.603 42.4288C73.4531 46.6503 72.3466 51.065 71.2433 55.4673L70.9285 56.7257L72.2257 56.7107C74.1098 56.6885 75.807 56.2691 77.175 55.2748C78.554 54.2724 79.4901 52.765 79.9886 50.7757C80.4644 48.8773 80.4808 47.1414 79.8161 45.5882C79.1505 44.0327 77.8671 42.813 76.0489 41.8157L74.9369 41.2049L74.603 42.4288Z" fill="#169387" stroke="black" stroke-width="2"/>
<path d="M80.7383 111.182C83.8365 109.476 86.6184 109.023 89.7109 110.121C92.3027 111.041 93.9089 112.471 94.6777 114.317C95.4575 116.19 95.4538 118.676 94.4268 121.845C93.0899 125.97 88.8851 133.964 84.0264 142.552C79.1897 151.101 73.7702 160.127 70.0713 166.266L69.4189 167.349L70.624 167.733C72.9829 168.487 75.727 169.45 78.459 170.282L76.7129 175.668C72.5307 174.041 66.6268 171.946 61.3018 170.2C64.4697 164.631 70.2941 154.813 75.8486 145.058C78.8005 139.873 81.6623 134.728 83.9727 130.307C86.2716 125.907 88.0599 122.159 88.8252 119.798C89.1356 118.84 89.2328 117.928 89.0195 117.143C88.7924 116.306 88.2285 115.689 87.4268 115.404C86.5604 115.097 85.6758 115.341 84.8896 115.744C84.387 116.002 83.8536 116.361 83.2891 116.798L80.7383 111.182Z" fill="#169387" stroke="black" stroke-width="2"/>
</svg>
