<svg width="211" height="164" viewBox="0 0 211 164" fill="none" xmlns="http://www.w3.org/2000/svg">
<path d="M6.20161 97.8374L36.6354 80.6435L3.52344 56.2137L41.2029 59.9826L27.6465 20.9203L53.0307 45.053L52.7142 25.5754L69.8983 39.7503L63.904 6.14167L81.5605 35.4019L91.1727 13.8353L103 38.2651L116.245 2.97656L128.385 38.8689L166.225 5.08499L146.041 46.8645L181.987 42.9397L164.657 65.2854L206.909 66.493L178.53 84.2761L205.492 100.262L173.953 107.649L195.553 139.3L156.296 121.805L170.145 152.355L144.946 131.31L145.432 160.716L124.46 135.984L118.315 153.027L107.909 124.585L92.4582 157.01L81.8916 122.778L59.3755 150.315L66.2852 117.276L28.3038 131.013L47.835 111.545L6.20161 97.8374Z" fill="#E54326" stroke="black" stroke-width="2" stroke-miterlimit="10"/>
<path d="M52.807 87.471C54.5405 99.2988 56.1912 110.606 57.1894 116.921L50.1239 117.953C48.5414 105.571 45.1912 82.6552 41.9336 61.931C53.0407 60.4702 60.7684 63.4308 62.1611 72.9553C63.2811 80.6198 58.6941 85.6207 52.807 87.471ZM50.1726 68.9332C50.6352 72.5901 51.1903 76.3834 51.7406 80.1766C54.4626 79.0226 55.8503 77.07 55.3926 73.9438C54.9446 70.8956 53.4205 69.2935 50.1726 68.9332Z" fill="#E54326" stroke="black" stroke-width="2" stroke-miterlimit="10"/>
<path d="M82.6962 79.8928C82.6962 98.2407 79.5408 108.914 72.3974 108.914C65.254 108.914 62.0938 98.2407 62.0938 79.8928C62.0938 61.9247 65.103 51.2461 72.3974 51.2461C79.6139 51.2558 82.6962 61.7056 82.6962 79.8928ZM75.1778 79.8928C75.1778 64.4811 73.7511 57.8636 72.3974 57.8636C71.0437 57.8636 69.6121 64.4811 69.6121 79.8928C69.6121 95.3823 71.0437 102.599 72.3974 102.599C73.7511 102.599 75.1778 95.3921 75.1778 79.8928Z" fill="#E54326" stroke="black" stroke-width="2" stroke-miterlimit="10"/>
<path d="M86.9323 40.7148C97.7278 42.7551 104.608 50.2248 101.506 71.3531C98.8088 89.7253 90.0244 98.315 78.6641 97.0294C81.4981 78.7497 84.556 57.9184 86.9323 40.7148ZM92.7756 50.0056C91.0518 61.2296 88.9531 75.5116 87.0881 88.7661C90.8083 85.6643 93.5011 79.222 94.8013 70.3695C96.3059 60.1778 95.4099 53.3558 92.7853 50.0056H92.7756Z" fill="#E54326" stroke="black" stroke-width="2" stroke-miterlimit="10"/>
<path d="M118.277 78.7475C119.027 104.239 115.945 113.189 108.426 113.189C101.512 113.189 97.9766 102.432 97.9766 84.1623C97.9766 66.0433 101.658 55.5156 108.952 55.5156C113.617 55.5156 116.174 58.9242 117.376 65.8192C117.761 68.5335 117.936 71.2733 117.902 74.0145H110.598C110.672 71.7313 110.621 69.4458 110.447 67.1681C110.072 63.4868 109.619 62.1331 108.869 62.1331C107.214 62.1331 105.558 72.2079 105.558 84.1623C105.558 100.933 107.292 106.868 108.641 106.868C109.989 106.868 111.499 100.256 110.9 78.7475H118.277Z" fill="#E54326" stroke="black" stroke-width="2" stroke-miterlimit="10"/>
<path d="M130.265 82.7382H126.881C126.282 91.8391 125.829 100.711 125.527 107.178H118.389C120.039 91.7612 122.07 69.5811 123.575 50.7852H133.425C134.253 61.9848 137.112 92.4381 138.689 107.178H131.468C131.317 102.44 130.869 93.0418 130.265 82.7382ZM129.89 75.921C129.515 69.0065 129.062 62.238 128.687 57.1251H128.463C128.011 62.4815 127.558 69.0795 127.11 75.921H129.89Z" fill="#E54326" stroke="black" stroke-width="2" stroke-miterlimit="10"/>
<path d="M146.767 113.234C144.616 113.295 142.475 112.916 140.476 112.119L142.098 105.36C142.972 106.103 144.081 106.514 145.229 106.519C146.582 106.465 147.663 105.448 147.6 103.719C147.337 96.9017 138.86 70.271 138.616 63.9602C138.421 58.9252 141.538 55.6432 146.261 55.4631C148.415 55.3781 150.556 55.8387 152.484 56.8021L150.01 62.9181C149.192 62.317 148.206 61.9867 147.191 61.9735C146.066 62.0173 145.419 62.8694 145.472 64.2231C145.667 69.2532 154.403 96.6826 154.69 104.045C154.919 109.981 151.554 113.044 146.767 113.234Z" fill="#E54326" stroke="black" stroke-width="2" stroke-miterlimit="10"/>
<path d="M163.785 74.6588C160.917 89.4228 156.559 114.232 155.055 123.509L147.945 122.238C149.732 113.088 154.276 88.2298 156.9 73.4268C155.123 73.1103 153.345 72.7938 152.669 72.75L153.871 66.0156L168.967 68.7133L167.764 75.4477C167.262 75.2821 165.412 74.951 163.785 74.6588Z" fill="#E54326" stroke="black" stroke-width="2" stroke-miterlimit="10"/>
</svg>
