<svg width="163" height="157" viewBox="0 0 163 157" fill="none" xmlns="http://www.w3.org/2000/svg">
<path d="M8.20996 1H154.158C155.985 1.00006 157.763 2.11622 159.13 4.17676C160.492 6.22989 161.367 9.12403 161.367 12.3711V107.904C161.367 111.152 160.492 114.046 159.13 116.1C157.763 118.16 155.985 119.276 154.158 119.276H92.8105L92.5703 119.933L81.624 149.847C81.1643 151.102 79.3893 151.102 78.9297 149.847L67.9844 119.933L67.7441 119.276H8.20996C6.38349 119.276 4.60472 118.16 3.2373 116.1C1.87486 114.046 1 111.151 1 107.904V12.3711C1.00002 9.12414 1.87501 6.22988 3.2373 4.17676C4.60472 2.11616 6.38349 1 8.20996 1Z" fill="#169387" stroke="black" stroke-width="2"/>
<path d="M32.1855 10.6719C35.2424 10.6719 37.8339 11.6677 40.0342 13.6035C42.2548 15.5572 44.1195 18.5072 45.6133 22.4678C48.6063 30.4034 50.0156 42.1385 50.0156 57.1992C50.0156 73.5117 48.3642 86.0634 44.876 94.0996L44.7129 94.4746L44.8594 94.8564C46.7514 99.7789 48.7585 104.177 50.4512 107.844L39.8418 111.054C39.4581 108.943 38.9911 106.561 38.5293 104.047L38.2988 102.788L37.1328 103.317C35.6213 104.003 33.9762 104.351 32.1855 104.351C29.1719 104.351 26.6 103.337 24.4033 101.363C22.1858 99.3707 20.3142 96.3643 18.8105 92.3389C15.7987 84.276 14.3555 72.3824 14.3555 57.1992C14.3555 42.325 15.7309 30.5883 18.708 22.6045C20.194 18.6196 22.0553 15.6344 24.2832 13.6523C26.4903 11.6888 29.0976 10.6719 32.1855 10.6719ZM81.7432 11.1709C86.3062 11.171 89.7107 12.7609 91.9775 15.1611C94.2551 17.5728 95.4492 20.8724 95.4492 24.3916C95.4492 27.8106 94.4435 31.5288 92.3809 35.9941C90.3168 40.4623 87.223 45.6206 83.1055 51.9111L82.834 52.3252L82.999 52.792C85.3455 59.4313 88.105 66.1925 90.4512 71.4531L91.6162 74.0664L92.332 71.2959C94.9086 61.3268 96.9454 49.9282 98.9707 32.7578L109.406 34.2148C104.569 57.1731 100.921 71.4335 96.8877 82.1709L96.71 82.6445L96.9873 83.0693C101.459 89.9107 105.349 95.2613 108.217 98.8184L99.5039 105.46C97.0108 102.317 94.6251 98.7811 92.3359 95.3184L91.5098 94.0693L90.6729 95.3105C86.6711 101.243 81.7218 104.475 75.832 104.475C70.6346 104.474 66.5259 102.365 63.6943 98.8164C60.8447 95.2455 59.2393 90.1504 59.2393 84.1436C59.2393 73.3133 63.3869 63.5262 70.6611 50.3223L70.8701 49.9414L70.7354 49.5283C67.7177 40.3162 65.9746 32.5826 65.9746 27.1357C65.9746 21.8543 67.2458 17.9043 69.7529 15.2734C72.2515 12.6515 76.1396 11.1709 81.7432 11.1709ZM141.225 12.0439C142.805 31.0473 147.777 79.1584 150.642 103.602H139.531C139.226 95.4627 138.425 80.4164 137.368 63.9961L137.309 63.0605H129.256L129.188 63.9873C128.12 78.6507 127.312 92.9596 126.763 103.602H115.777C118.748 78.3225 122.352 42.5873 125.053 12.0439H141.225ZM32.1855 19.6494C31.4764 19.6495 30.9139 20.0462 30.5059 20.5098C30.0954 20.9761 29.7405 21.6175 29.4238 22.3809C28.7874 23.915 28.2134 26.1749 27.7275 29.1748C26.7533 35.1908 26.1006 44.3881 26.1006 57.1992C26.1006 70.0736 26.7535 79.5484 27.7266 85.8252C28.2119 88.9558 28.7837 91.3385 29.415 92.9619C29.7288 93.7687 30.0798 94.4461 30.4824 94.9395C30.8755 95.421 31.4422 95.872 32.1855 95.8721C32.7515 95.8721 33.2234 95.6095 33.584 95.2764C33.9382 94.949 34.2374 94.5081 34.498 94.0088C35.0202 93.0082 35.4896 91.5708 35.9092 89.7305L35.9551 89.5303L35.9189 89.3291C33.9145 78.2928 31.6458 65.5925 29.3721 53.7656L32.3535 53.2393C33.427 58.7854 34.7367 64.1004 36.1729 69.0771L38.1338 68.8008C38.1338 67.0652 38.1677 65.2342 38.2021 63.2979C38.2365 61.3647 38.2715 59.3296 38.2715 57.1992C38.2715 44.3881 37.6178 35.1908 36.6436 29.1748C36.1577 26.1749 35.5837 23.915 34.9473 22.3809C34.6306 21.6176 34.2757 20.9761 33.8652 20.5098C33.4828 20.0753 32.9647 19.6998 32.3174 19.6543L32.1855 19.6494ZM73.5176 61.9746C71.1498 68.5477 69.8848 74.152 69.8848 81.8984C69.8848 86.827 70.609 90.0426 71.834 92.0547C73.1135 94.1559 74.8962 94.874 76.6572 94.874C79.8258 94.874 83.2465 92.4616 86.7285 86.5205L87.0166 86.0303L86.7422 85.5322C82.3625 77.5824 78.5298 69.507 75.3818 61.9297L74.3916 59.5469L73.5176 61.9746ZM132.076 21.4297C131.25 30.2979 130.425 41.2849 129.601 52.6357L129.522 53.708H136.745L136.682 52.6484C135.994 41.164 135.168 29.9297 134.48 21.4414L134.406 20.5225H132.16L132.076 21.4297ZM81.6055 20.7725C80.1432 20.7725 78.8774 21.3446 78.0342 22.6475C77.2429 23.8703 76.8945 25.631 76.8945 27.8848C76.8946 30.893 77.75 35.2423 78.9883 39.9873L79.6748 42.6201L80.8564 40.1689C83.7481 34.1704 85.3545 29.5015 85.3545 25.7637C85.3545 24.4899 85.1372 23.2722 84.5449 22.3418C83.9113 21.3466 82.9029 20.7725 81.6055 20.7725Z" fill="#169387" stroke="black" stroke-width="2"/>
</svg>
