<svg width="218" height="144" viewBox="0 0 218 144" fill="none" xmlns="http://www.w3.org/2000/svg">
<path d="M108.686 1C138.317 1.00015 165.216 16.8504 184.74 42.6201C204.1 68.1725 216.162 103.434 216.365 142.452H1.00488C1.20767 103.434 13.2704 68.1725 32.6299 42.6201C52.1542 16.8503 79.054 1 108.686 1Z" fill="#F1F333" stroke="black" stroke-width="2"/>
<path d="M143.774 65.3535C146.347 65.3535 148.532 65.9997 150.218 66.7949L147.686 72.4229C146.734 71.9133 145.622 71.5723 144.625 71.5723C143.652 71.5723 142.789 71.9407 142.188 72.668C141.608 73.3712 141.357 74.3066 141.357 75.3115C141.357 77.0212 141.989 80.5031 142.885 84.7676C143.79 89.08 144.997 94.3316 146.2 99.6562C147.405 104.988 148.606 110.397 149.506 115.049C150.412 119.73 150.993 123.553 150.993 125.757C150.993 129.294 149.967 131.801 148.355 133.424C146.742 135.048 144.423 135.903 141.603 135.903C139.319 135.903 137.021 135.414 134.964 134.617L136.701 128.433C137.824 129.092 138.974 129.401 139.996 129.401C141.091 129.401 142.136 129.003 142.907 128.216C143.682 127.425 144.113 126.311 144.113 125.001C144.113 122.74 143.508 118.919 142.634 114.432C141.754 109.913 140.582 104.618 139.414 99.3604C138.244 94.0957 137.077 88.8688 136.203 84.4619C135.322 80.0202 134.762 76.5181 134.762 74.6504C134.762 71.7036 135.703 69.3971 137.248 67.8311C138.793 66.2654 141.026 65.3536 143.774 65.3535ZM24.918 66.043C31.778 66.2899 36.9581 67.6807 40.4443 70.1738C44.0421 72.7468 45.954 76.5786 45.9541 81.9238C45.9541 87.2249 43.5034 90.7128 40.3379 92.9111L39.7959 93.2881L39.9287 93.9346C42.4721 106.288 46.5891 125.281 48.9209 135.222L41.748 135.661C40.2617 126.589 37.1557 110.903 34.1396 96.7363L33.9072 95.6416L32.8457 95.9961L32.5625 96.0898L31.8828 96.3164L31.8789 97.0332C31.7881 112.021 31.8733 126.571 31.9639 135.148H24.9268C25.2762 119.518 25.2731 91.2993 24.918 66.043ZM177.772 66.0732C184.013 66.5169 189.241 68.6332 193.001 73.4912C197.007 78.6676 199.476 87.1179 199.476 100.439C199.476 111.991 197.157 120.671 193.179 126.491C189.429 131.977 184.165 134.982 177.771 135.468C177.949 112.863 177.95 87.357 177.772 66.0732ZM172.592 66.2979V72.8525C170.898 72.7856 169.514 72.7474 168.339 72.7178C166.926 72.6822 165.831 72.6589 164.854 72.6123L163.806 72.5625V73.6113C163.806 75.5409 163.782 77.4952 163.759 79.5039C163.735 81.5107 163.712 83.571 163.712 85.7031V86.7314L164.74 86.7021C167.306 86.6288 170.212 86.6105 171.931 86.5586V93.3398C170.179 93.2659 167.269 93.2051 164.617 93.2051H163.626L163.617 94.1963C163.523 105.254 163.523 116.974 163.617 127.749L163.626 128.74H164.617C167.095 128.74 169.956 128.663 173.063 128.44V135.148H156.651C156.827 118.455 156.827 88.8678 156.649 66.2979H172.592ZM126.216 66.2979C127.315 80.7776 130.681 116.656 132.644 135.148H125.651C125.435 128.931 124.89 117.666 124.173 105.388L124.118 104.446H117.987L117.926 105.381C117.199 116.379 116.648 127.114 116.271 135.148H109.36C111.39 116.082 113.842 89.2737 115.688 66.2979H126.216ZM106.815 66.2979V72.8525C105.121 72.7857 103.738 72.7474 102.562 72.7178C101.15 72.6822 100.056 72.6588 99.0781 72.6123L98.0303 72.5625V73.6113C98.0303 75.5409 98.007 77.4952 97.9834 79.5039C97.9598 81.5107 97.9355 83.571 97.9355 85.7031V86.7314L98.9639 86.7021C101.53 86.6288 104.435 86.6105 106.154 86.5586V93.3398C104.402 93.2659 101.492 93.2051 98.8408 93.2051H97.8496L97.8408 94.1963C97.7463 105.254 97.7473 116.974 97.8418 127.749L97.8496 128.74H98.8408C101.318 128.74 104.18 128.663 107.288 128.44V135.148H90.876C91.0513 118.455 91.0512 88.8678 90.874 66.2979H106.815ZM67.8848 66.2979V72.8525C66.1909 72.7857 64.8071 72.7474 63.6318 72.7178C62.2192 72.6822 61.1249 72.6588 60.1475 72.6123L59.0996 72.5625V73.6113C59.0996 75.5409 59.0764 77.4952 59.0527 79.5039C59.0291 81.5107 59.0049 83.571 59.0049 85.7031V86.7314L60.0342 86.7021C62.6 86.6288 65.5047 86.6105 67.2236 86.5586V93.3398C65.4715 93.2659 62.5625 93.2051 59.9111 93.2051H58.9189L58.9111 94.1963C58.8166 105.254 58.8166 116.974 58.9111 127.749L58.9199 128.74H59.9111C62.3886 128.74 65.2496 128.663 68.3574 128.44V135.148H51.9453C52.1206 118.455 52.1206 88.8678 51.9434 66.2979H67.8848ZM80.2949 66.2979C80.0389 78.7645 80.1289 106.36 80.2207 128.123L80.2256 129.118H81.2207C83.0316 129.118 85.0491 129.047 87.2119 128.906V135.129C83.2018 135.048 78.303 134.984 73.0781 135.121C73.4154 119.235 73.2501 79.7747 73.0703 66.2979H80.2949ZM184.738 75.4941C184.644 89.7633 184.644 107.905 184.738 124.724L184.753 127.316L186.483 125.385C190.802 120.564 192.974 111.74 192.974 100.439C192.974 93.9144 192.378 88.5111 191.276 84.248C190.178 79.9987 188.553 76.7982 186.428 74.7764L184.754 73.1836L184.738 75.4941ZM119.911 73.1494C119.343 79.8669 118.776 88.1885 118.209 96.7842L118.139 97.8496H123.758L123.7 96.7959C123.227 88.0977 122.661 79.5891 122.188 73.1602L122.12 72.2334H119.988L119.911 73.1494ZM31.8789 90.248L33.2207 89.7598C36.6538 88.5112 39.0742 85.6348 39.0742 82.0186C39.0742 79.9732 38.7018 78.2628 37.6953 76.9111C36.6857 75.5553 35.15 74.71 33.1436 74.1582L31.8789 73.8105V90.248Z" fill="#F1F333" stroke="black" stroke-width="2"/>
</svg>
