<svg width="196" height="199" viewBox="0 0 196 199" fill="none" xmlns="http://www.w3.org/2000/svg">
<path d="M2.47656 114.092L36.1386 98.0759L4.81222 73.2709L35.5904 72.9795L22.765 25.5313L46.7803 54.8448L46.4809 31.1857L62.7384 48.4037L61.9368 12.9363L73.7717 43.1218L82.8655 16.9252L94.0555 46.5997L106.586 3.73535L118.071 47.3331L143.645 16.5222L140.328 52.2778H168.783L152.387 79.4207L192.36 80.8876L156.345 103.343L191.02 121.907L157.579 125.946L175.656 158.28L149.16 150.197L159.788 181.033L133.739 159.619L134.199 195.338L114.358 165.297L108.544 185.999L97.0665 158.28L84.0817 190.837L75.0615 163.07L52.783 182.704L60.2418 148.849L23.3869 159.258L36.74 128.042L2.47656 114.092Z" fill="#FF90E8" stroke="black" stroke-width="2" stroke-miterlimit="10"/>
<path d="M65.5135 125.119C66.9826 114.975 63.7617 74.9326 64.7661 67.997C65.0359 66.1337 65.9731 65.1578 67.2602 65.4291C68.2899 65.6461 69.487 66.5385 70.2252 67.5474L74.5135 59.9172C72.9622 58.4168 70.7095 56.8753 67.7921 56.2604C62.3862 55.1211 58.0669 58.6911 57.0625 65.6267C55.8033 74.3221 58.9317 113.171 57.5675 122.591C57.2227 124.972 55.7407 126.047 54.1962 125.721C53.1665 125.504 46.9393 120.81 45.9179 119.315L42.4386 128.076C44.4189 129.667 51.8174 134.821 54.3058 135.345C59.7975 136.503 64.3292 133.297 65.5135 125.119Z" fill="#FF90E8" stroke="black" stroke-width="2" stroke-miterlimit="10"/>
<path d="M86.6319 146.176L94.7675 146.656C93.9935 121.947 92.8512 70.9178 92.6836 52.159L81.5818 51.5041C78.6042 82.7863 74.8024 119.682 71.8861 145.306L79.937 145.781C80.7172 135.005 81.8312 120.223 83.13 105.074C84.3164 105.144 85.7571 105.229 86.9436 105.299C86.9186 122.536 86.7857 138.257 86.6319 146.176ZM83.8511 93.6657C84.8265 82.2726 85.7865 71.2561 86.6593 62.3735L86.9136 62.3885C86.9884 70.9495 87.0351 82.277 86.9867 93.8507C85.9698 93.7907 84.8681 93.7257 83.8511 93.6657Z" fill="#FF90E8" stroke="black" stroke-width="2" stroke-miterlimit="10"/>
<path d="M119.199 141.973C116.807 142.352 114.588 142.595 112.631 142.698C111.46 112.748 109.993 74.5835 109.685 58.6444L100.969 59.1025C101.758 76.0294 103.999 133.148 104.392 153.895C110.075 153.343 115.416 153.188 119.6 153.095L119.199 141.973Z" fill="#FF90E8" stroke="black" stroke-width="2" stroke-miterlimit="10"/>
<path d="M144.317 129.586C141.185 129.548 130.439 128.465 128.003 128.196C128.794 116.634 129.746 104.068 130.729 92.2198C133.669 92.544 136.937 93.0066 138.106 93.2376L138.827 83.7114C137.728 83.6923 134.452 83.3311 131.504 83.1082C131.849 78.5478 132.256 74.3007 132.57 70.1457C134.327 70.4416 136.511 70.6824 140.36 71.3112L141.059 62.089L125.098 60.3291C123.385 85.1765 120.866 118.417 119.339 136.336L143.603 139.011L144.317 129.586Z" fill="#FF90E8" stroke="black" stroke-width="2" stroke-miterlimit="10"/>
</svg>
