<svg width="136" height="161" viewBox="0 0 136 161" fill="none" xmlns="http://www.w3.org/2000/svg">
<path d="M134.472 1V159.232H1.00098L1 80.5547L1.00098 69.9121H28.2803V55.0605H57.9844V35.0957H81.6006V15.8623H101.565V1H134.472Z" fill="#F1F333" stroke="black" stroke-width="2"/>
<path d="M17.5908 78.9688C20.4052 78.9688 22.7921 79.6254 24.6309 80.4297L21.875 86.1025C20.834 85.5655 19.5998 85.2061 18.5107 85.2061C17.5059 85.2061 16.6034 85.5555 15.9629 86.2744C15.3354 86.9789 15.0576 87.9276 15.0576 88.9521C15.0577 89.8431 15.2362 91.1604 15.5215 92.7422C15.8104 94.344 16.2219 96.2824 16.7119 98.4443C17.6917 102.767 18.9974 108.031 20.2988 113.367C21.6022 118.711 22.9023 124.132 23.876 128.793C24.8561 133.485 25.4843 137.31 25.4844 139.511C25.4844 143.034 24.3828 145.54 22.6328 147.171C20.8712 148.813 18.3294 149.684 15.2402 149.684C12.7397 149.684 10.2275 149.185 7.9834 148.377L9.87598 142.136C11.1186 142.839 12.3894 143.162 13.502 143.162C14.643 143.162 15.7429 142.779 16.5654 142.001C17.3974 141.214 17.8749 140.09 17.875 138.754C17.875 136.479 17.2176 132.643 16.2725 128.146C15.3203 123.617 14.0523 118.309 12.7881 113.039C11.5221 107.762 10.26 102.524 9.31445 98.1084C8.36087 93.6549 7.75589 90.1522 7.75586 88.2891C7.75586 85.3585 8.76505 83.0549 10.4434 81.4795C12.1287 79.8975 14.5761 78.9688 17.5908 78.9688Z" fill="#F1F333" stroke="black" stroke-width="2"/>
<path d="M43.624 63.7656C46.185 63.7656 48.1521 64.8619 49.709 67.2217C51.309 69.647 52.4637 73.4015 53.2129 78.6338V78.6348C53.643 81.8779 53.8344 85.8227 53.8604 90.0244H46.7207C46.7797 86.2799 46.6865 82.9563 46.5107 80.499L46.5098 80.4873L46.4199 79.4688C46.2062 77.1811 45.9657 75.5068 45.666 74.3594C45.4967 73.7113 45.2874 73.1442 44.9961 72.7197C44.6886 72.2716 44.2051 71.874 43.5293 71.874C43.0712 71.8741 42.7123 72.09 42.4688 72.3105C42.2285 72.5283 42.0376 72.8049 41.8818 73.083C41.5691 73.6414 41.2922 74.4025 41.041 75.2939C40.5343 77.0922 40.0717 79.6432 39.6797 82.7275C38.894 88.909 38.373 97.367 38.373 106.532C38.3731 119.361 38.9169 128.085 39.6816 133.621C40.063 136.382 40.5054 138.394 40.9814 139.739C41.2175 140.406 41.4818 140.967 41.79 141.381C42.0795 141.769 42.5587 142.224 43.2461 142.224C43.998 142.224 44.4747 141.672 44.7354 141.255C45.0231 140.794 45.2643 140.164 45.4766 139.397C45.9052 137.849 46.2831 135.488 46.5801 132.151C47.1629 125.602 47.445 115.127 47.1016 99.2607H54.3584C54.7827 118.188 54.0391 130.924 52.0762 138.932C51.078 143.003 49.7885 145.749 48.2666 147.465C46.7824 149.138 45.0427 149.873 42.9629 149.873C41.1534 149.873 39.5093 149.034 38.0146 147.231C36.5 145.404 35.1782 142.626 34.0986 138.893C31.9413 131.431 30.832 120.457 30.832 106.532C30.832 92.7239 31.9893 81.8999 34.248 74.5615C35.3779 70.8909 36.7615 68.1661 38.3516 66.375C39.9194 64.609 41.6682 63.7657 43.624 63.7656Z" fill="#F1F333" stroke="black" stroke-width="2"/>
<path d="M76.3477 44.8633C77.4307 66.3866 80.869 121.244 82.8379 148.928H75.8174C75.6094 139.735 75.0582 122.619 74.3291 103.928L74.292 102.967H68.1221L68.0801 103.922C67.344 120.59 66.7878 136.854 66.4102 148.928H59.4775C61.5235 120.241 64.0081 79.5838 65.8691 44.8633H76.3477ZM70.0645 55.6865C69.4973 65.7342 68.9301 78.1852 68.3633 91.0537L68.3174 92.0977H73.8945L73.8574 91.0605C73.3849 78.0452 72.8172 65.3133 72.3447 55.6934L72.2979 54.7422H70.1172L70.0645 55.6865Z" fill="#F1F333" stroke="black" stroke-width="2"/>
<path d="M96.9121 24.8984C96.6445 46.6502 96.7361 96.4489 96.8291 135.648L96.832 136.646H97.8291C99.6451 136.646 101.662 136.52 103.819 136.271V148.893C99.8116 148.749 94.9091 148.633 89.6777 148.876C90.0317 120.879 89.8576 48.289 89.6738 24.8984H96.9121Z" fill="#F1F333" stroke="black" stroke-width="2"/>
<path d="M124.696 10.0762V24.1416C123.012 24.0171 121.635 23.945 120.466 23.8896C119.046 23.8224 117.965 23.7787 117 23.6924L115.911 23.5957V24.6885C115.911 28.3229 115.888 33.9501 115.864 39.6689C115.841 45.3856 115.816 51.1942 115.816 55.1885V56.2441L116.87 56.1875C118.508 56.0996 120.241 56.0553 121.735 56.0107C122.586 55.9854 123.383 55.9567 124.035 55.9199V70.4092C122.256 70.2697 119.356 70.1563 116.723 70.1562H115.727L115.723 71.1514C115.628 91.9119 115.628 113.915 115.723 134.144L115.727 135.139H116.723C119.202 135.139 122.062 134.993 125.169 134.579V148.929H108.753C108.935 117.384 108.935 53.0888 108.752 10.0762H124.696Z" fill="#F1F333" stroke="black" stroke-width="2"/>
</svg>
