<svg width="159" height="168" viewBox="0 0 159 168" fill="none" xmlns="http://www.w3.org/2000/svg">
<path d="M79.2617 1C122.434 1.00003 157.523 37.9741 157.523 83.7002C157.523 129.426 122.434 166.4 79.2617 166.4C36.0896 166.4 1 129.426 1 83.7002C1.00011 37.9741 36.0897 1 79.2617 1Z" fill="#FFC900" stroke="black" stroke-width="2"/>
<path d="M79.3623 16.1953V26.2236C77.0396 26.1216 75.1607 26.065 73.5752 26.0215C71.7527 25.9715 70.3362 25.9386 69.0713 25.873L68.0195 25.8184V26.8711C68.0195 29.5884 67.9895 37.0709 67.959 44.624C67.9285 52.1741 67.8975 59.7952 67.8975 62.7832V63.8145L68.9287 63.7822C72.4096 63.674 76.3478 63.6515 78.5088 63.5703V73.9287C76.2963 73.8187 72.3561 73.7246 68.7764 73.7246H67.7842L67.7764 74.7168C67.6544 90.2458 67.6544 126.616 67.7764 141.748L67.7842 142.74H68.7764C72.0517 142.74 75.8469 142.624 79.9717 142.294V152.549H58.1982C58.4298 128.048 58.4295 48.9042 58.1963 16.1953H79.3623ZM95.3916 16.1953C95.0504 34.8181 95.1685 109.259 95.2881 140.098L95.292 141.094H96.2881C98.7054 141.094 101.41 140.986 104.313 140.774V152.528C99.0064 152.41 92.4607 152.309 85.4775 152.517C85.9282 129.208 85.7045 36.1053 85.4688 16.1953H95.3916ZM42.1357 28.2695C45.6586 28.2695 48.6265 29.2812 50.874 30.4902L47.3076 39.1133C46.0668 38.3424 44.5646 37.8135 43.2334 37.8135C42.0219 37.8136 40.9886 38.3122 40.2871 39.2373C39.6108 40.1293 39.3066 41.3295 39.3066 42.6611C39.3067 44.9906 40.0889 50.1634 41.2236 56.6885C42.366 63.2575 43.8888 71.3173 45.4092 79.4912C46.9307 87.6709 48.45 95.9679 49.5889 103.03C50.7322 110.12 51.4775 115.884 51.4775 119.041C51.4775 124.11 50.1232 127.756 47.959 130.126C45.8034 132.486 42.7373 133.697 39.0625 133.697C35.9761 133.697 32.8714 132.951 30.1162 131.746L32.5703 122.246C34.0697 123.276 35.6223 123.756 36.9893 123.756C38.3587 123.756 39.6386 123.213 40.5674 122.182C41.4932 121.153 42.0137 119.706 42.0137 117.979C42.0137 114.866 41.2602 109.206 40.1562 102.38C39.0476 95.5246 37.57 87.4055 36.0947 79.3281C34.6185 71.2451 33.1441 63.204 32.0391 56.4873C30.9288 49.7386 30.2081 44.421 30.208 41.7324C30.208 37.4821 31.4596 34.1229 33.5312 31.8389C35.5951 29.5635 38.5482 28.2696 42.1357 28.2695ZM118.141 28.7568C117.8 46.2915 117.918 91.5424 118.037 122.362L118.041 123.358H119.037C121.455 123.358 124.159 123.251 127.062 123.039V132.615C121.756 132.497 115.21 132.396 108.228 132.604C108.677 110.234 108.454 47.6098 108.219 28.7568H118.141Z" fill="#FFC900" stroke="black" stroke-width="2"/>
</svg>
