<svg width="192" height="141" viewBox="0 0 192 141" fill="none" xmlns="http://www.w3.org/2000/svg">
<path d="M96.0935 95.339C98.5771 62.6239 110.779 56.0847 144.721 58.6615C179.528 61.304 190.614 69.5281 188.341 102.342C186.191 134.958 172.617 139.38 138.242 136.771C105.409 134.278 93.6192 127.93 96.0935 95.339Z" fill="#FF8FE7" stroke="black" stroke-width="2" stroke-miterlimit="10"/>
<path d="M167.171 74.7764C168.461 73.7118 170.231 73.1866 172.343 73.4033C174.235 73.5975 175.808 74.2156 177.023 74.9199L174.795 78.7656C174.104 78.3338 173.304 78.0157 172.552 77.9385C171.732 77.8544 170.96 78.0906 170.381 78.6621C169.824 79.212 169.537 79.9788 169.453 80.8008C169.313 82.1706 169.532 84.9822 169.891 88.3965C170.254 91.8594 170.779 96.0848 171.295 100.363C171.811 104.649 172.319 108.993 172.65 112.717C172.985 116.47 173.13 119.501 172.955 121.209C172.674 123.947 171.685 125.777 170.341 126.878C168.995 127.98 167.164 128.458 164.99 128.235C163.29 128.061 161.612 127.534 160.123 126.797L161.817 122.506C162.609 123.037 163.439 123.337 164.21 123.416C165.121 123.509 166.031 123.268 166.748 122.672C167.468 122.073 167.92 121.18 168.03 120.104C168.215 118.303 168.044 115.232 167.72 111.64C167.393 108.016 166.898 103.758 166.404 99.5342C165.91 95.3029 165.415 91.1048 165.084 87.5752C164.75 84.0104 164.594 81.235 164.742 79.792C164.975 77.5226 165.88 75.8413 167.171 74.7764ZM162.075 73.0986L161.591 77.8105C161.406 77.7872 161.211 77.7621 161.014 77.7393C160.274 77.6539 159.396 77.5631 158.581 77.4795L157.602 77.3789L157.486 78.3574C155.799 92.6793 153.431 116.372 152.546 126.358L147.437 125.833C148.593 115.933 151.102 92.1963 152.572 77.8682L152.674 76.873L151.679 76.7715C150.535 76.6541 149.338 76.533 148.44 76.4639L148.925 71.749L162.075 73.0986ZM145.63 71.4111L145.145 76.1367C143.916 75.9627 142.899 75.8274 142.028 75.7158C140.92 75.5737 140.065 75.4675 139.304 75.3525L138.268 75.1953L138.16 76.2393C138.005 77.7536 137.829 79.2859 137.648 80.8623C137.468 82.4367 137.282 84.0542 137.11 85.7305L137.006 86.7549L138.032 86.8301C139.937 86.9707 142.096 87.1774 143.476 87.2822L142.974 92.1748C141.582 91.9772 139.425 91.7127 137.448 91.5098L136.462 91.4092L136.352 92.3945C135.386 101.076 134.441 110.284 133.646 118.758L133.554 119.745L134.54 119.846C136.431 120.04 138.611 120.207 140.988 120.286L140.492 125.121L128.019 123.841C129.498 110.753 131.855 87.7931 133.525 70.1689L145.63 71.4111ZM113.251 67.8945C118.158 68.6064 121.955 69.9715 124.457 72.0322C127.065 74.1804 128.356 77.1554 127.935 81.2646C127.485 85.6462 124.919 87.8231 122.228 88.6816L121.604 88.8809L121.537 89.5322L121.514 89.7549L121.453 90.3438L121.94 90.6797C125.037 92.8179 126.747 97.9531 125.934 105.883C125.304 112.013 123.183 116.208 119.971 118.775C116.95 121.189 112.822 122.278 107.695 122.019C109.698 103.86 111.649 84.8496 113.251 67.8945ZM115.888 92.6924C115.059 100.038 114.346 107.708 113.586 115.115L113.396 116.959L115.042 116.104C118.183 114.473 120.647 111.216 121.297 104.882C121.7 100.956 121.488 98.0348 120.786 95.9316C120.073 93.794 118.833 92.4595 117.228 91.8662L116.03 91.4238L115.888 92.6924ZM117.677 75.2617C117.319 78.7497 116.93 82.5345 116.526 86.4678L116.401 87.6816L117.616 87.5654C118.971 87.4362 120.284 86.8694 121.309 85.7773C122.33 84.6879 123.003 83.1421 123.207 81.1543C123.367 79.6003 123.16 78.1806 122.437 76.9902C121.709 75.7934 120.535 74.9529 119 74.4189L117.806 74.0039L117.677 75.2617Z" fill="#FF8FE7" stroke="black" stroke-width="2"/>
<path d="M115.608 1.17526L1.17578 23.875L15.5605 96.3901L129.993 73.6904L115.608 1.17526Z" fill="#FF8FE7" stroke="black" stroke-width="2" stroke-miterlimit="10"/>
<path d="M18.4131 26.4346C20.6118 25.9811 22.5972 26.1362 24.1943 26.5098L23.0352 31.708C22.1198 31.4519 21.1076 31.3672 20.2461 31.5449C19.3641 31.7269 18.6447 32.224 18.2334 33.002C17.8366 33.7523 17.7873 34.6461 17.9727 35.5449C18.2852 37.0603 19.4769 40.0167 21.0352 43.5986C22.613 47.2256 24.6263 51.6239 26.6484 56.085C28.6736 60.5527 30.7093 65.0874 32.3428 69.0107C33.9875 72.9612 35.1876 76.2068 35.585 78.1328C36.222 81.2218 35.7763 83.5834 34.6719 85.2734C33.5663 86.9652 31.7094 88.1247 29.251 88.6318C27.2891 89.0365 25.2284 89.0304 23.3135 88.7197L23.7031 83.1943C24.7807 83.5387 25.8191 83.5923 26.7021 83.4102C27.6885 83.2067 28.5599 82.6521 29.1113 81.7949C29.6651 80.934 29.8447 79.8488 29.6025 78.6748C29.1903 76.676 27.9616 73.419 26.3809 69.6348C24.788 65.8214 22.7971 61.3795 20.8174 56.9707C18.8347 52.5555 16.8633 48.1742 15.2969 44.4609C13.7167 40.715 12.593 37.748 12.2568 36.1182C11.7272 33.5501 12.1342 31.3802 13.1914 29.75C14.2483 28.1203 16.0205 26.9281 18.4131 26.4346ZM55.6885 19.6025C60.471 41.9269 65.9293 65.6295 69.1768 79.7041L63.2861 80.9199C61.8419 73.4222 61.0137 67.893 58.7188 57.168L58.7168 57.1572L58.7139 57.1455L58.4746 56.1211C57.2564 50.8094 55.7443 42.7224 54.4219 35.916L54.3027 35.3008L53.6982 35.1396L53.5146 35.0918L52.1523 34.7285L52.2607 36.1348C53.3127 49.8039 55.0753 65.3985 56.0859 76.8262C55.088 76.9996 54.0023 77.2218 53.0879 77.4404C49.0774 65.3907 44.5447 51.1827 40.2568 38.1885L39.8096 36.834L38.6885 37.7168L38.5391 37.834L38.0469 38.2217L38.1807 38.833C39.7014 45.787 41.429 53.7431 42.8135 60.0361C44.6218 68.4043 46.4776 77.3895 47.79 84.1152L41.9736 85.3154C39.6201 71.0939 35.0691 46.592 31.0518 24.6914C31.8441 24.526 33.0171 24.2797 34.2002 24.0225C35.1704 23.8115 36.1528 23.5931 36.9395 23.4062C37.1929 23.346 37.4276 23.2848 37.6377 23.2314C39.9347 29.2405 44.9623 41.8618 48.875 52.4355L50.8115 52.0352C50.2477 41.4116 49.6531 26.4829 49.2695 20.8057C50.0981 20.6633 51.2988 20.4433 52.4629 20.2236C53.655 19.9986 54.8578 19.7648 55.6885 19.6025ZM74.0029 15.835C77.6058 28.3925 86.9984 59.092 92.0713 74.9824L86.1348 76.207C84.8112 70.7612 82.3026 61.0117 79.4639 50.4141L79.2207 49.5029L78.2959 49.6934C77.1337 49.9331 75.7227 50.2242 74.5605 50.4639L73.6436 50.6533L73.7715 51.5801C75.12 61.3344 76.5746 70.8278 77.6973 77.9473L71.832 79.1572C70.1618 62.0651 67.4698 38.1668 64.9365 17.7051L74.0029 15.835ZM88.9297 12.7559C90.9773 23.8081 96.0398 47.9546 100.053 67.0049L100.258 67.9795L101.233 67.7783C102.797 67.4557 104.523 67.0336 106.36 66.5303L107.445 71.793C103.952 72.441 99.7119 73.2589 95.2256 74.3047C92.6322 60.2514 85.3967 25.9011 82.7832 14.0234L88.9297 12.7559ZM104.416 9.56152C106.464 20.6137 111.526 44.761 115.539 63.8115L115.744 64.7852L116.72 64.584C118.284 64.2614 120.008 63.8401 121.846 63.3369L122.932 68.5986C119.439 69.2467 115.198 70.0656 110.712 71.1113C108.119 57.0583 100.883 22.7066 98.2695 10.8291L104.416 9.56152ZM70.7139 21.7422L70.4648 21.793L69.5645 21.9795L69.6738 22.8916C70.3927 28.8994 71.4029 36.3174 72.4629 43.9746L72.6094 45.0322L73.6553 44.8164C74.6514 44.611 75.7304 44.3881 76.7266 44.1826L77.7607 43.9697L77.4922 42.9482C75.4999 35.3887 73.4589 28.0133 71.8779 22.4482L71.624 21.5547L70.7139 21.7422Z" fill="#FF8FE7" stroke="black" stroke-width="2"/>
</svg>
