<svg width="203" height="194" viewBox="0 0 203 194" fill="none" xmlns="http://www.w3.org/2000/svg">
<path d="M139.71 142.822C126.591 152.215 120.85 130.21 104.815 128.423C88.7804 126.636 87.4511 138.537 71.4162 136.75C55.3812 134.963 56.7105 123.057 40.6756 121.265C24.6406 119.473 14.1909 139.676 3.46364 127.595C-6.18265 116.751 15.5008 109.851 17.098 95.4281C18.6951 81.0049 6.80401 79.6707 8.41579 65.2378C10.0276 50.8049 21.9284 52.1391 23.5402 37.711C25.152 23.283 5.52337 11.7766 17.3171 3.32332C30.4352 -6.06976 36.1762 15.9351 52.2112 17.7222C68.2461 19.5092 69.5755 7.60838 85.6104 9.39545C101.645 11.1825 100.316 23.0882 116.351 24.8802C132.386 26.6721 142.836 6.46896 153.563 18.5499C163.209 29.3941 141.526 36.2941 139.929 50.7173C138.331 65.1404 150.227 66.4746 148.616 80.9076C147.004 95.3405 131.193 95.7348 133.52 110.065C136.447 127.897 151.508 134.369 139.71 142.822Z" fill="#90A8ED"/>
<path d="M139.71 142.822C126.591 152.215 120.85 130.21 104.815 128.423C88.7804 126.636 87.4511 138.537 71.4162 136.75C55.3812 134.963 56.7105 123.057 40.6756 121.265C24.6406 119.473 14.1909 139.676 3.46364 127.595C-6.18265 116.751 15.5008 109.851 17.098 95.4281C18.6951 81.0049 6.80401 79.6707 8.41579 65.2378C10.0276 50.8049 21.9284 52.1391 23.5402 37.711C25.152 23.283 5.52337 11.7766 17.3171 3.32332C30.4352 -6.06976 36.1762 15.9351 52.2112 17.7222C68.2461 19.5092 69.5755 7.60838 85.6104 9.39545C101.645 11.1825 100.316 23.0882 116.351 24.8802C132.386 26.6721 142.836 6.46896 153.563 18.5499C163.209 29.3941 141.526 36.2941 139.929 50.7173C138.331 65.1404 150.227 66.4746 148.616 80.9076C147.004 95.3405 131.193 95.7348 133.52 110.065C136.447 127.897 151.508 134.369 139.71 142.822Z" stroke="black" stroke-width="2" stroke-miterlimit="10"/>
<path d="M33.6686 112.728C30.7187 112.364 27.8889 111.339 25.3906 109.728L29.0816 99.8726C30.3622 101.402 31.8329 102.142 33.0648 102.278C34.9054 102.483 36.6048 101.173 36.897 98.553C38.0559 88.186 32.4707 46.2702 33.5371 36.7116C34.3893 29.0763 39.3268 24.7815 45.7739 25.5119C48.7395 25.8522 51.5535 27.0048 53.9058 28.8426L49.202 37.5442C48.2587 36.4874 46.9882 35.7776 45.5938 35.5283C44.055 35.3578 42.9935 36.5021 42.7646 38.557C41.9125 46.1874 47.6681 89.3936 46.4215 100.559C45.4331 109.538 40.2228 113.458 33.6686 112.728Z" fill="#90A8ED" stroke="black" stroke-width="2" stroke-miterlimit="10"/>
<path d="M80.8376 73.6959C77.7358 101.495 71.6296 117.194 61.9006 116.108C52.1715 115.023 49.6784 98.3643 52.7802 70.5697C55.8187 43.34 61.7204 27.6168 71.6491 28.727C81.4658 29.8226 83.9005 46.1254 80.8376 73.6959ZM70.6119 72.5565C73.217 49.1834 72.3893 38.9576 70.5486 38.7482C68.708 38.5388 65.6402 48.3556 63.0351 71.7092C60.4153 95.1797 61.1409 106.331 62.9864 106.54C64.8319 106.749 67.9775 96.027 70.5973 72.5565H70.6119Z" fill="#90A8ED" stroke="black" stroke-width="2" stroke-miterlimit="10"/>
<path d="M96.8443 118.853C92.0431 118.201 85.9125 117.392 79.3145 116.905C81.8076 98.2652 87.3489 46.747 88.8438 31.457L98.8797 32.577C96.9709 46.8979 93.236 81.3148 90.3241 108.325C92.5786 108.579 95.1498 108.749 97.9399 108.812L96.8443 118.853Z" fill="#90A8ED" stroke="black" stroke-width="2" stroke-miterlimit="10"/>
<path d="M108.048 33.2461C122.924 35.598 132.594 46.4811 128.986 78.8383C125.845 106.979 114.057 120.657 98.4258 119.493C101.756 91.4695 105.326 59.5896 108.048 33.2461ZM116.365 46.9778C114.344 64.1716 111.904 86.045 109.742 106.336C114.758 101.359 118.254 91.3672 119.768 77.8108C121.512 62.2044 120.07 51.891 116.365 46.9778Z" fill="#90A8ED" stroke="black" stroke-width="2" stroke-miterlimit="10"/>
<path d="M181.273 90.3925L88.8828 113.994L108.872 192.245L201.263 168.644L181.273 90.3925Z" fill="#90A8ED" stroke="black" stroke-width="2" stroke-miterlimit="10"/>
<path d="M134.416 144.438C140.434 167.986 137.615 173.523 128.631 175.816C119.647 178.11 114.51 174.604 108.506 151.055C102.614 127.994 105.243 122.506 114.417 120.164C123.494 117.846 128.451 121.084 134.416 144.438ZM124.959 146.873C120.533 129.538 118.288 128.237 116.584 128.676C114.88 129.114 113.536 131.325 117.962 148.64C122.418 166.073 124.857 168.118 126.562 167.709C128.266 167.3 129.415 164.286 124.959 146.853V146.873Z" fill="#90A8ED" stroke="black" stroke-width="2" stroke-miterlimit="10"/>
<path d="M148.3 149.103C149.084 151.781 149.381 152.94 150.019 155.039C151.046 158.272 152.234 158.993 153.374 158.701C154.693 158.365 155.487 157.133 154.62 153.344C153.218 147.55 150.725 136.915 144.185 113.279L153.267 110.961C158.92 134.407 160.858 141.078 162.187 146.274C165.81 160.463 163.473 166.302 155.716 168.284C149.386 169.9 144.916 166.618 142.437 160.492C141.228 157.427 140.225 154.284 139.433 151.085C137.972 145.31 137.339 141.073 130.945 116.682L140.027 114.365C146.596 141.258 147.316 145.358 148.3 149.103Z" fill="#90A8ED" stroke="black" stroke-width="2" stroke-miterlimit="10"/>
<path d="M172.038 115.416C176.683 134.791 180.345 148.732 183.612 160.745L174.536 163.063C171.668 151.05 168.171 136.963 163.239 117.666C160.97 118.245 158.7 118.824 157.882 119.126L155.643 110.361L174.935 105.434L177.175 114.199C176.474 114.281 174.112 114.885 172.038 115.416Z" fill="#90A8ED" stroke="black" stroke-width="2" stroke-miterlimit="10"/>
</svg>
