<svg width="171" height="112" viewBox="0 0 171 112" fill="none" xmlns="http://www.w3.org/2000/svg">
<path d="M1 1H138.83L168.994 55.5373L138.83 110.075H1V1Z" fill="#FF8FE7" stroke="black" stroke-width="2" stroke-miterlimit="10"/>
<path d="M24.9404 16.3984C27.8424 16.422 30.2937 17.1828 32.1699 18.1006L29.2373 24.4785C28.1853 23.8858 26.9353 23.4808 25.8213 23.4717C24.7749 23.4632 23.8496 23.8513 23.2031 24.6221C22.5768 25.3689 22.296 26.3732 22.2871 27.4658C22.272 29.3387 22.9347 33.173 23.8848 37.8887C24.8446 42.6526 26.129 48.455 27.4082 54.3398C28.689 60.232 29.9656 66.2107 30.917 71.3516C31.8737 76.5212 32.4827 80.7527 32.4629 83.1953C32.431 87.1168 31.2707 89.9034 29.4541 91.7021C27.6359 93.5023 25.0412 94.4317 21.9092 94.4062C19.3437 94.3854 16.7686 93.8076 14.4746 92.8857L16.5088 85.8623C17.7635 86.6393 19.0565 87.0044 20.1982 87.0137C21.3799 87.0232 22.5082 86.6026 23.3447 85.7627C24.1846 84.9191 24.6632 83.7211 24.6748 82.2988C24.695 79.8159 24.0634 75.6062 23.1396 70.6465C22.2101 65.6558 20.9643 59.8064 19.7227 53.9961C18.4795 48.1789 17.2402 42.4015 16.3154 37.5312C15.384 32.6261 14.7937 28.747 14.8105 26.6748C14.8373 23.4021 15.9048 20.8392 17.6455 19.1035C19.386 17.3681 21.8853 16.3736 24.9404 16.3984ZM87.4736 17.665C95.1023 17.989 100.864 19.5732 104.729 22.3848C108.704 25.2775 110.79 29.555 110.742 35.4795C110.694 41.3647 107.94 45.2197 104.404 47.6328L103.858 48.0049L103.986 48.6523C106.691 62.3514 111.083 83.4416 113.561 94.3926L105.431 94.8242C103.879 84.8212 100.584 67.433 97.374 51.7314L97.1504 50.6357L96.0859 50.9805L95.7725 51.082L95.0908 51.3037L95.0811 52.0195C94.8455 68.6105 94.8076 84.7173 94.8311 94.165L86.8604 94.1006C87.3889 76.8636 87.6403 45.6106 87.4736 17.665ZM134.657 18.333L134.597 25.751C134.23 25.7359 133.815 25.7238 133.383 25.7148C132.346 25.6933 131.115 25.6831 129.971 25.6738L128.986 25.666L128.963 26.6504C128.493 46.9788 128.31 80.684 128.396 94.4385L120.422 94.374C120.731 80.7102 121.107 46.9188 121.272 26.6035L121.28 25.6035L120.28 25.5947C118.477 25.5801 116.607 25.5652 115.34 25.5986L115.4 18.1768L134.657 18.333ZM76.7891 17.8623C77.8669 33.8093 81.2771 73.6495 83.2783 94.0713L75.3506 94.0078C75.1703 87.17 74.6693 74.6855 73.9854 61.0703L73.9385 60.1279L72.9951 60.1201L68.3057 60.082L67.3691 60.0752L67.2998 61.0078C66.3958 73.177 65.6898 85.0553 65.2012 93.9248L57.3662 93.8613C59.7819 72.816 62.7398 43.159 64.9873 17.7656L76.7891 17.8623ZM56.4043 17.6963L56.3438 25.1143C55.9766 25.0992 55.5621 25.0871 55.1299 25.0781C54.0934 25.0566 52.8622 25.0464 51.7178 25.0371L50.7324 25.0293L50.71 26.0146C50.2396 46.343 50.0573 80.0472 50.1436 93.8018L42.1689 93.7373C42.4783 80.0733 42.8533 46.282 43.0186 25.9668L43.0273 24.9668L42.0273 24.959C40.2239 24.9443 38.3533 24.9285 37.0859 24.9619L37.1465 17.54L56.4043 17.6963ZM69.7793 25.4746C69.0929 32.8782 68.3927 42.0518 67.6904 51.5283L67.6113 52.5938L68.6787 52.6025L72.5342 52.6338L73.5908 52.6426L73.542 51.5879C73.0986 41.9898 72.5487 32.6001 72.085 25.5049L72.0244 24.5771L71.0957 24.5703L70.7832 24.5674L69.8643 24.5596L69.7793 25.4746ZM95.2773 27.8506C95.2375 32.748 95.1958 37.8541 95.1543 42.96L95.1426 44.3877L96.4883 43.9111C100.254 42.5764 102.914 39.4581 102.946 35.5205C102.965 33.2754 102.571 31.4106 101.491 29.9355C100.408 28.4565 98.7469 27.5197 96.5508 26.8965L95.2881 26.5391L95.2773 27.8506Z" fill="#FF8FE7" stroke="black" stroke-width="2"/>
</svg>
