<svg width="213" height="121" viewBox="0 0 213 121" fill="none" xmlns="http://www.w3.org/2000/svg">
<path d="M59.2676 1C69.251 1.00007 78.6455 3.53083 86.8574 7.99023C98.6714 14.4059 115.308 14.5978 127.268 8.46191C135.189 4.39807 144.156 2.10648 153.655 2.10645C185.828 2.10645 211.923 28.401 211.923 60.8535C211.923 93.3069 185.828 119.601 153.655 119.601C143.672 119.601 134.277 117.07 126.065 112.61C114.251 106.195 97.6147 106.003 85.6543 112.139C77.7335 116.202 68.7672 118.495 59.2676 118.495C27.0952 118.495 1 92.1996 1 59.7471C1.00015 27.2938 27.0953 1 59.2676 1Z" fill="#FF8FE7" stroke="black" stroke-width="2"/>
<mask id="path-2-inside-1_18182_3926" fill="white">
<path d="M38.7622 85.0158C38.7622 75.8754 31.1246 41.459 31.1246 35.2099C31.1246 33.531 31.7985 32.5051 32.9217 32.5051C33.8202 32.5051 34.9434 33.0647 35.6922 33.8108L38.3878 26.3493C36.8903 25.3233 34.7936 24.3906 32.2477 24.3906C27.5304 24.3906 24.3105 28.3079 24.3105 34.557C24.3105 42.3916 31.7236 75.7821 31.7236 84.2697C31.7236 86.4149 30.6004 87.6274 29.2526 87.6274C28.354 87.6274 27.2308 87.161 26.1825 86.0418L24.3105 94.3428C26.1825 95.3688 28.354 96.0216 30.5255 96.0216C35.3178 96.0216 38.7622 92.3841 38.7622 85.0158Z"/>
<path d="M48.9932 25.3233H41.8048C41.8797 40.0599 41.5802 61.7917 41.5802 76.2485C41.5802 78.9533 41.655 81.9379 42.0294 85.4822C42.7033 91.638 45.399 95.6486 50.4159 95.6486C56.556 95.6486 59.4014 90.8918 59.4014 77.1812C59.4014 63.284 59.3265 39.0339 59.4763 25.3233H52.2879C52.5125 39.407 52.5874 67.3879 52.4376 81.8447C52.3628 85.4822 51.5391 86.4149 50.4908 86.4149C49.5922 86.4149 48.8434 85.4822 48.6937 82.311C48.6188 80.2591 48.6188 79.1398 48.5439 76.5283C48.469 64.0302 48.8434 42.3916 48.9932 25.3233Z"/>
<path d="M62.6399 95.6486C74.2462 95.3688 81.21 87.8139 81.21 71.9581C81.21 61.885 78.9636 55.0763 75.1448 52.4648V52.1849C78.0651 50.5994 80.6858 47.1484 80.6858 41.0859C80.6858 29.9868 73.7221 25.3233 62.6399 25.0435C62.7897 47.0551 62.7897 71.9581 62.6399 95.6486ZM74.4708 71.3052C74.4708 78.9533 72.4491 82.8706 69.8283 85.0158C69.8283 75.6889 69.7535 66.0821 69.8283 56.8484C72.4491 57.6879 74.4708 61.6052 74.4708 71.3052ZM73.9467 41.5522C73.9467 46.1224 72.0747 48.4542 69.8283 49.0138C69.8283 44.0705 69.8283 39.3138 69.8283 34.9301C72.6737 35.7695 73.9467 38.008 73.9467 41.5522Z"/>
<path d="M96.9691 85.0158C96.9691 75.8754 89.3314 41.459 89.3314 35.2099C89.3314 33.531 90.0054 32.5051 91.1285 32.5051C92.0271 32.5051 93.1503 33.0647 93.8991 33.8108L96.5947 26.3493C95.0971 25.3233 93.0005 24.3906 90.4546 24.3906C85.7373 24.3906 82.5174 28.3079 82.5174 34.557C82.5174 42.3916 89.9305 75.7821 89.9305 84.2697C89.9305 86.4149 88.8073 87.6274 87.4595 87.6274C86.5609 87.6274 85.4377 87.161 84.3894 86.0418L82.5174 94.3428C84.3894 95.3688 86.5609 96.0216 88.7324 96.0216C93.5247 96.0216 96.9691 92.3841 96.9691 85.0158Z"/>
<path d="M111.992 53.4907C112.591 80.1658 111.094 88.3735 109.746 88.3735C108.398 88.3735 106.676 81.0052 106.676 60.2061C106.676 45.3763 108.323 32.8782 109.971 32.8782C110.719 32.8782 111.169 34.557 111.543 39.1272C111.693 41.2724 111.768 44.257 111.693 47.6147H118.956C118.956 43.884 118.806 40.3397 118.432 37.4484C117.234 28.8676 114.688 24.6704 110.045 24.6704C102.782 24.6704 99.1131 37.7282 99.1131 60.2061C99.1131 82.8706 102.632 96.2082 109.521 96.2082C117.009 96.2082 120.079 85.1091 119.331 53.4907H111.992Z"/>
<path d="M135.203 95.8351L142.541 95.2755C140.744 85.8553 137.299 66.0821 135.203 53.3975C137.898 51.0657 139.995 47.3349 139.995 41.7388C139.995 30.6397 133.555 25.3233 121.724 25.0435C122.024 50.7859 122.024 79.886 121.724 95.2755H128.913C128.838 86.9745 128.763 72.0514 128.838 56.6619L129.062 56.5686C131.533 71.0254 134.079 87.0678 135.203 95.8351ZM132.956 41.832C132.956 44.9099 131.309 47.4282 128.838 48.5474C128.838 43.9772 128.838 39.407 128.838 35.0234C131.833 36.0493 132.956 38.008 132.956 41.832Z"/>
<path d="M143.151 25.3233C143.301 40.9926 143.226 77.6475 143.151 95.2755H150.34C150.19 77.6475 150.19 40.9926 150.34 25.3233H143.151Z"/>
<path d="M153.533 95.6486C165.14 95.3688 172.103 87.8139 172.103 71.9581C172.103 61.885 169.857 55.0763 166.038 52.4648V52.1849C168.958 50.5994 171.579 47.1484 171.579 41.0859C171.579 29.9868 164.615 25.3233 153.533 25.0435C153.683 47.0551 153.683 71.9581 153.533 95.6486ZM165.364 71.3052C165.364 78.9533 163.343 82.8706 160.722 85.0158C160.722 75.6889 160.647 66.0821 160.722 56.8484C163.343 57.6879 165.364 61.6052 165.364 71.3052ZM164.84 41.5522C164.84 46.1224 162.968 48.4542 160.722 49.0138C160.722 44.0705 160.722 39.3138 160.722 34.9301C163.567 35.7695 164.84 38.008 164.84 41.5522Z"/>
<path d="M188.611 86.6014C185.841 86.8812 183.295 86.9745 181.123 86.9745C181.049 76.3418 181.049 64.7763 181.123 53.8638C183.744 53.8638 186.664 53.9571 187.713 54.0503V45.283C186.739 45.3763 183.819 45.3763 181.198 45.4695C181.198 41.2724 181.273 37.3551 181.273 33.531C182.846 33.6243 184.793 33.6243 188.237 33.8108V25.3233H174.01C174.16 48.1744 174.16 78.7668 174.01 95.2755H188.611V86.6014Z"/>
</mask>
<path d="M38.7622 85.0158C38.7622 75.8754 31.1246 41.459 31.1246 35.2099C31.1246 33.531 31.7985 32.5051 32.9217 32.5051C33.8202 32.5051 34.9434 33.0647 35.6922 33.8108L38.3878 26.3493C36.8903 25.3233 34.7936 24.3906 32.2477 24.3906C27.5304 24.3906 24.3105 28.3079 24.3105 34.557C24.3105 42.3916 31.7236 75.7821 31.7236 84.2697C31.7236 86.4149 30.6004 87.6274 29.2526 87.6274C28.354 87.6274 27.2308 87.161 26.1825 86.0418L24.3105 94.3428C26.1825 95.3688 28.354 96.0216 30.5255 96.0216C35.3178 96.0216 38.7622 92.3841 38.7622 85.0158Z" fill="#FF8FE7"/>
<path d="M48.9932 25.3233H41.8048C41.8797 40.0599 41.5802 61.7917 41.5802 76.2485C41.5802 78.9533 41.655 81.9379 42.0294 85.4822C42.7033 91.638 45.399 95.6486 50.4159 95.6486C56.556 95.6486 59.4014 90.8918 59.4014 77.1812C59.4014 63.284 59.3265 39.0339 59.4763 25.3233H52.2879C52.5125 39.407 52.5874 67.3879 52.4376 81.8447C52.3628 85.4822 51.5391 86.4149 50.4908 86.4149C49.5922 86.4149 48.8434 85.4822 48.6937 82.311C48.6188 80.2591 48.6188 79.1398 48.5439 76.5283C48.469 64.0302 48.8434 42.3916 48.9932 25.3233Z" fill="#FF8FE7"/>
<path d="M62.6399 95.6486C74.2462 95.3688 81.21 87.8139 81.21 71.9581C81.21 61.885 78.9636 55.0763 75.1448 52.4648V52.1849C78.0651 50.5994 80.6858 47.1484 80.6858 41.0859C80.6858 29.9868 73.7221 25.3233 62.6399 25.0435C62.7897 47.0551 62.7897 71.9581 62.6399 95.6486ZM74.4708 71.3052C74.4708 78.9533 72.4491 82.8706 69.8283 85.0158C69.8283 75.6889 69.7535 66.0821 69.8283 56.8484C72.4491 57.6879 74.4708 61.6052 74.4708 71.3052ZM73.9467 41.5522C73.9467 46.1224 72.0747 48.4542 69.8283 49.0138C69.8283 44.0705 69.8283 39.3138 69.8283 34.9301C72.6737 35.7695 73.9467 38.008 73.9467 41.5522Z" fill="#FF8FE7"/>
<path d="M96.9691 85.0158C96.9691 75.8754 89.3314 41.459 89.3314 35.2099C89.3314 33.531 90.0054 32.5051 91.1285 32.5051C92.0271 32.5051 93.1503 33.0647 93.8991 33.8108L96.5947 26.3493C95.0971 25.3233 93.0005 24.3906 90.4546 24.3906C85.7373 24.3906 82.5174 28.3079 82.5174 34.557C82.5174 42.3916 89.9305 75.7821 89.9305 84.2697C89.9305 86.4149 88.8073 87.6274 87.4595 87.6274C86.5609 87.6274 85.4377 87.161 84.3894 86.0418L82.5174 94.3428C84.3894 95.3688 86.5609 96.0216 88.7324 96.0216C93.5247 96.0216 96.9691 92.3841 96.9691 85.0158Z" fill="#FF8FE7"/>
<path d="M111.992 53.4907C112.591 80.1658 111.094 88.3735 109.746 88.3735C108.398 88.3735 106.676 81.0052 106.676 60.2061C106.676 45.3763 108.323 32.8782 109.971 32.8782C110.719 32.8782 111.169 34.557 111.543 39.1272C111.693 41.2724 111.768 44.257 111.693 47.6147H118.956C118.956 43.884 118.806 40.3397 118.432 37.4484C117.234 28.8676 114.688 24.6704 110.045 24.6704C102.782 24.6704 99.1131 37.7282 99.1131 60.2061C99.1131 82.8706 102.632 96.2082 109.521 96.2082C117.009 96.2082 120.079 85.1091 119.331 53.4907H111.992Z" fill="#FF8FE7"/>
<path d="M135.203 95.8351L142.541 95.2755C140.744 85.8553 137.299 66.0821 135.203 53.3975C137.898 51.0657 139.995 47.3349 139.995 41.7388C139.995 30.6397 133.555 25.3233 121.724 25.0435C122.024 50.7859 122.024 79.886 121.724 95.2755H128.913C128.838 86.9745 128.763 72.0514 128.838 56.6619L129.062 56.5686C131.533 71.0254 134.079 87.0678 135.203 95.8351ZM132.956 41.832C132.956 44.9099 131.309 47.4282 128.838 48.5474C128.838 43.9772 128.838 39.407 128.838 35.0234C131.833 36.0493 132.956 38.008 132.956 41.832Z" fill="#FF8FE7"/>
<path d="M143.151 25.3233C143.301 40.9926 143.226 77.6475 143.151 95.2755H150.34C150.19 77.6475 150.19 40.9926 150.34 25.3233H143.151Z" fill="#FF8FE7"/>
<path d="M153.533 95.6486C165.14 95.3688 172.103 87.8139 172.103 71.9581C172.103 61.885 169.857 55.0763 166.038 52.4648V52.1849C168.958 50.5994 171.579 47.1484 171.579 41.0859C171.579 29.9868 164.615 25.3233 153.533 25.0435C153.683 47.0551 153.683 71.9581 153.533 95.6486ZM165.364 71.3052C165.364 78.9533 163.343 82.8706 160.722 85.0158C160.722 75.6889 160.647 66.0821 160.722 56.8484C163.343 57.6879 165.364 61.6052 165.364 71.3052ZM164.84 41.5522C164.84 46.1224 162.968 48.4542 160.722 49.0138C160.722 44.0705 160.722 39.3138 160.722 34.9301C163.567 35.7695 164.84 38.008 164.84 41.5522Z" fill="#FF8FE7"/>
<path d="M188.611 86.6014C185.841 86.8812 183.295 86.9745 181.123 86.9745C181.049 76.3418 181.049 64.7763 181.123 53.8638C183.744 53.8638 186.664 53.9571 187.713 54.0503V45.283C186.739 45.3763 183.819 45.3763 181.198 45.4695C181.198 41.2724 181.273 37.3551 181.273 33.531C182.846 33.6243 184.793 33.6243 188.237 33.8108V25.3233H174.01C174.16 48.1744 174.16 78.7668 174.01 95.2755H188.611V86.6014Z" fill="#FF8FE7"/>
<path d="M38.7622 85.0158C38.7622 75.8754 31.1246 41.459 31.1246 35.2099C31.1246 33.531 31.7985 32.5051 32.9217 32.5051C33.8202 32.5051 34.9434 33.0647 35.6922 33.8108L38.3878 26.3493C36.8903 25.3233 34.7936 24.3906 32.2477 24.3906C27.5304 24.3906 24.3105 28.3079 24.3105 34.557C24.3105 42.3916 31.7236 75.7821 31.7236 84.2697C31.7236 86.4149 30.6004 87.6274 29.2526 87.6274C28.354 87.6274 27.2308 87.161 26.1825 86.0418L24.3105 94.3428C26.1825 95.3688 28.354 96.0216 30.5255 96.0216C35.3178 96.0216 38.7622 92.3841 38.7622 85.0158Z" stroke="black" stroke-width="4" mask="url(#path-2-inside-1_18182_3926)"/>
<path d="M48.9932 25.3233H41.8048C41.8797 40.0599 41.5802 61.7917 41.5802 76.2485C41.5802 78.9533 41.655 81.9379 42.0294 85.4822C42.7033 91.638 45.399 95.6486 50.4159 95.6486C56.556 95.6486 59.4014 90.8918 59.4014 77.1812C59.4014 63.284 59.3265 39.0339 59.4763 25.3233H52.2879C52.5125 39.407 52.5874 67.3879 52.4376 81.8447C52.3628 85.4822 51.5391 86.4149 50.4908 86.4149C49.5922 86.4149 48.8434 85.4822 48.6937 82.311C48.6188 80.2591 48.6188 79.1398 48.5439 76.5283C48.469 64.0302 48.8434 42.3916 48.9932 25.3233Z" stroke="black" stroke-width="4" mask="url(#path-2-inside-1_18182_3926)"/>
<path d="M62.6399 95.6486C74.2462 95.3688 81.21 87.8139 81.21 71.9581C81.21 61.885 78.9636 55.0763 75.1448 52.4648V52.1849C78.0651 50.5994 80.6858 47.1484 80.6858 41.0859C80.6858 29.9868 73.7221 25.3233 62.6399 25.0435C62.7897 47.0551 62.7897 71.9581 62.6399 95.6486ZM74.4708 71.3052C74.4708 78.9533 72.4491 82.8706 69.8283 85.0158C69.8283 75.6889 69.7535 66.0821 69.8283 56.8484C72.4491 57.6879 74.4708 61.6052 74.4708 71.3052ZM73.9467 41.5522C73.9467 46.1224 72.0747 48.4542 69.8283 49.0138C69.8283 44.0705 69.8283 39.3138 69.8283 34.9301C72.6737 35.7695 73.9467 38.008 73.9467 41.5522Z" stroke="black" stroke-width="4" mask="url(#path-2-inside-1_18182_3926)"/>
<path d="M96.9691 85.0158C96.9691 75.8754 89.3314 41.459 89.3314 35.2099C89.3314 33.531 90.0054 32.5051 91.1285 32.5051C92.0271 32.5051 93.1503 33.0647 93.8991 33.8108L96.5947 26.3493C95.0971 25.3233 93.0005 24.3906 90.4546 24.3906C85.7373 24.3906 82.5174 28.3079 82.5174 34.557C82.5174 42.3916 89.9305 75.7821 89.9305 84.2697C89.9305 86.4149 88.8073 87.6274 87.4595 87.6274C86.5609 87.6274 85.4377 87.161 84.3894 86.0418L82.5174 94.3428C84.3894 95.3688 86.5609 96.0216 88.7324 96.0216C93.5247 96.0216 96.9691 92.3841 96.9691 85.0158Z" stroke="black" stroke-width="4" mask="url(#path-2-inside-1_18182_3926)"/>
<path d="M111.992 53.4907C112.591 80.1658 111.094 88.3735 109.746 88.3735C108.398 88.3735 106.676 81.0052 106.676 60.2061C106.676 45.3763 108.323 32.8782 109.971 32.8782C110.719 32.8782 111.169 34.557 111.543 39.1272C111.693 41.2724 111.768 44.257 111.693 47.6147H118.956C118.956 43.884 118.806 40.3397 118.432 37.4484C117.234 28.8676 114.688 24.6704 110.045 24.6704C102.782 24.6704 99.1131 37.7282 99.1131 60.2061C99.1131 82.8706 102.632 96.2082 109.521 96.2082C117.009 96.2082 120.079 85.1091 119.331 53.4907H111.992Z" stroke="black" stroke-width="4" mask="url(#path-2-inside-1_18182_3926)"/>
<path d="M135.203 95.8351L142.541 95.2755C140.744 85.8553 137.299 66.0821 135.203 53.3975C137.898 51.0657 139.995 47.3349 139.995 41.7388C139.995 30.6397 133.555 25.3233 121.724 25.0435C122.024 50.7859 122.024 79.886 121.724 95.2755H128.913C128.838 86.9745 128.763 72.0514 128.838 56.6619L129.062 56.5686C131.533 71.0254 134.079 87.0678 135.203 95.8351ZM132.956 41.832C132.956 44.9099 131.309 47.4282 128.838 48.5474C128.838 43.9772 128.838 39.407 128.838 35.0234C131.833 36.0493 132.956 38.008 132.956 41.832Z" stroke="black" stroke-width="4" mask="url(#path-2-inside-1_18182_3926)"/>
<path d="M143.151 25.3233C143.301 40.9926 143.226 77.6475 143.151 95.2755H150.34C150.19 77.6475 150.19 40.9926 150.34 25.3233H143.151Z" stroke="black" stroke-width="4" mask="url(#path-2-inside-1_18182_3926)"/>
<path d="M153.533 95.6486C165.14 95.3688 172.103 87.8139 172.103 71.9581C172.103 61.885 169.857 55.0763 166.038 52.4648V52.1849C168.958 50.5994 171.579 47.1484 171.579 41.0859C171.579 29.9868 164.615 25.3233 153.533 25.0435C153.683 47.0551 153.683 71.9581 153.533 95.6486ZM165.364 71.3052C165.364 78.9533 163.343 82.8706 160.722 85.0158C160.722 75.6889 160.647 66.0821 160.722 56.8484C163.343 57.6879 165.364 61.6052 165.364 71.3052ZM164.84 41.5522C164.84 46.1224 162.968 48.4542 160.722 49.0138C160.722 44.0705 160.722 39.3138 160.722 34.9301C163.567 35.7695 164.84 38.008 164.84 41.5522Z" stroke="black" stroke-width="4" mask="url(#path-2-inside-1_18182_3926)"/>
<path d="M188.611 86.6014C185.841 86.8812 183.295 86.9745 181.123 86.9745C181.049 76.3418 181.049 64.7763 181.123 53.8638C183.744 53.8638 186.664 53.9571 187.713 54.0503V45.283C186.739 45.3763 183.819 45.3763 181.198 45.4695C181.198 41.2724 181.273 37.3551 181.273 33.531C182.846 33.6243 184.793 33.6243 188.237 33.8108V25.3233H174.01C174.16 48.1744 174.16 78.7668 174.01 95.2755H188.611V86.6014Z" stroke="black" stroke-width="4" mask="url(#path-2-inside-1_18182_3926)"/>
</svg>
