<svg width="135" height="130" viewBox="0 0 135 130" fill="none" xmlns="http://www.w3.org/2000/svg">
<path d="M40.3771 27.8729C27.8189 -1.66493 76.8537 -12.4604 77.8032 24.6737C110.759 -19.151 154.156 21.1531 113.769 67.9286C144.173 80.7449 138.554 97.3544 108.3 90.0941C124.51 127.545 95.2649 148.366 76.3619 100.88C62.8055 135.414 32.5371 123.537 42.1298 94.9733C-5.07901 123.255 -14.3551 67.3589 28.52 48.4364C1.07118 26.8259 15.285 14.9738 40.3771 27.8729Z" fill="#FFC900" stroke="black" stroke-width="2" stroke-miterlimit="10"/>
<path d="M31.6895 87.8185C34.0268 72.9279 33.9538 73.371 36.7196 54.541H34.1631L35.546 45.3914H38.1024C38.8474 40.6048 39.3782 36.6703 39.6947 34.3281H50.0082C49.5797 36.7628 48.9417 40.6048 48.1967 45.3914H52.5791L51.0893 54.541H46.8333C43.9604 73.371 44.2526 72.9279 41.9104 87.8185H31.6895Z" fill="#FFC900" stroke="black" stroke-width="2" stroke-miterlimit="10"/>
<path d="M71.0111 16.0312C70.159 21.5629 68.8833 29.4319 67.3933 38.4792C70.3734 35.1826 72.7156 33.5806 75.905 33.5806C79.6301 33.5806 81.7483 35.7085 81.7483 40.6023C81.6521 43.8089 81.3675 47.0071 80.8961 50.1804C78.4614 66.1374 74.1957 94.2241 72.7057 102.629H62.7039C64.3011 93.4791 68.664 64.4331 71.2156 48.2667C71.3775 47.2441 71.4848 46.2135 71.5371 45.1795C71.5371 43.9037 71.1086 43.2658 69.94 43.2658C68.7713 43.2658 67.7049 43.9037 66.3219 45.1795C63.3419 64.9688 59.7238 88.1569 57.703 102.638H47.3848C50.5791 83.0635 57.8103 35.5089 60.5761 16.041L71.0111 16.0312Z" fill="#FFC900" stroke="black" stroke-width="2" stroke-miterlimit="10"/>
<path d="M92.5584 94.318C86.0675 94.318 82.5566 88.2556 82.5566 76.5544C82.5566 53.6682 89.5784 24.3203 102.346 24.3203C108.837 24.3203 112.347 30.3827 112.347 42.0839C112.305 45.9898 112.057 49.8908 111.603 53.7705C106.602 53.5562 102.56 53.5562 98.3045 53.5562H94.6864C93.3035 61.1087 92.2517 69.8298 92.2517 77.2799C92.2517 81.7452 92.6753 84.1945 93.6345 84.1945C95.8696 84.1945 99.4778 71.7483 101.08 57.4907L110.975 58.4646C109.051 77.3092 102.774 94.318 92.5584 94.318ZM102.56 44.5332V41.2415C102.56 36.7762 102.132 34.3269 101.177 34.3269C100.009 34.3269 98.3043 38.4757 96.7072 44.5527H102.55L102.56 44.5332Z" fill="#FFC900" stroke="black" stroke-width="2" stroke-miterlimit="10"/>
</svg>
