<svg width="211" height="131" viewBox="0 0 211 131" fill="none" xmlns="http://www.w3.org/2000/svg">
<path d="M33.3135 3.30859C53.0696 0.17845 79.2733 -0.869829 105.194 7.3877C134.522 16.7306 161.023 17.5863 180.192 16.1064C189.778 15.3664 197.534 14.0424 202.899 12.9014C205.582 12.3308 207.668 11.8062 209.087 11.4229C209.415 11.3341 209.708 11.2521 209.964 11.1797V124.122C209.621 124.223 209.153 124.357 208.564 124.517C207.178 124.892 205.127 125.409 202.481 125.973C197.19 127.1 189.52 128.414 180.032 129.148C161.055 130.618 134.818 129.774 105.785 120.519C79.4677 112.13 52.9268 113.181 32.998 116.312C23.0281 117.879 14.6974 119.969 8.85645 121.668C5.93584 122.518 3.63629 123.27 2.06445 123.811C1.66126 123.949 1.30572 124.074 1 124.183V11.3809C1.39558 11.2349 1.97193 11.0272 2.7168 10.7695C4.26106 10.2354 6.53037 9.48919 9.41797 8.64453C15.1939 6.955 23.441 4.87279 33.3135 3.30859Z" fill="#E54326" stroke="black" stroke-width="2"/>
<path d="M174.222 43.125C175.3 59.0722 178.71 98.9124 180.711 119.334L172.784 119.27C172.604 112.432 172.103 99.9476 171.419 86.333L171.371 85.3906L170.428 85.3828C168.969 85.371 167.198 85.3566 165.739 85.3447L164.803 85.3369L164.733 86.2705C163.829 98.4399 163.122 110.318 162.634 119.188L154.8 119.123C157.216 98.0779 160.172 68.4213 162.42 43.0283L174.222 43.125ZM114.185 32.04C121.813 32.3641 127.574 33.9474 131.438 36.7588C135.415 39.6515 137.501 43.9298 137.453 49.8545C137.405 55.7397 134.65 59.5947 131.114 62.0078L130.569 62.3799L130.697 63.0273C133.402 76.7266 137.794 97.8168 140.271 108.768L132.142 109.198C130.59 99.1951 127.294 81.8076 124.084 66.1064L123.86 65.0107L122.796 65.3555L122.482 65.457L121.802 65.6787L121.791 66.3945C121.555 82.9855 121.519 99.0923 121.542 108.54L113.57 108.476C114.099 91.2387 114.351 59.9856 114.185 32.04ZM151.979 32.8604C151.641 50.5837 151.326 89.3335 151.36 109.012L143.372 108.947C143.632 89.2805 144.042 50.5257 143.996 32.7959L151.979 32.8604ZM192.979 32.0479C192.582 45.7442 192.434 76.2771 192.34 100.347L192.336 101.342L193.331 101.351C195.356 101.367 197.617 101.305 200.044 101.165L199.986 108.242C195.517 108.115 190.037 107.998 184.188 108.106C184.707 90.6179 184.879 46.7777 184.8 31.9814L192.979 32.0479ZM29.5889 31.6357L29.5283 39.0537C29.1614 39.0386 28.7473 39.0266 28.3154 39.0176C27.2791 38.996 26.0477 38.9859 24.9033 38.9766L23.918 38.9688L23.8955 39.9541C23.4252 60.2825 23.2419 93.9867 23.3281 107.741L15.3545 107.677C15.6638 94.0128 16.0389 60.2215 16.2041 39.9062L16.2119 38.9062L15.2119 38.8984C13.4088 38.8838 11.5387 38.8679 10.2715 38.9014L10.332 31.4795L29.5889 31.6357ZM95.4756 24.7969C97.705 24.815 99.5947 25.6265 101.211 27.2188C102.851 28.8346 104.236 31.2841 105.34 34.5957C107.55 41.2271 108.539 51.0273 108.437 63.6064C108.333 76.2876 107.158 86.2023 104.825 92.9033C102.484 99.6282 99.1326 102.755 94.8418 102.72C90.551 102.685 87.2509 99.5042 85.0195 92.7422C82.7962 86.0041 81.7816 76.071 81.8848 63.3896C81.9858 50.9665 83.1092 41.1829 85.415 34.5479C86.5667 31.2339 87.9888 28.7778 89.6611 27.165C91.3089 25.5759 93.2236 24.7786 95.4756 24.7969ZM95.417 31.9668C94.7423 31.9615 94.2466 32.3717 93.9258 32.7666C93.5952 33.1736 93.315 33.7232 93.0684 34.3623C92.5713 35.6505 92.1204 37.5424 91.7314 40.0469C90.9511 45.0719 90.3927 52.7557 90.3057 63.459C90.2182 74.2147 90.649 82.1371 91.3447 87.3916C91.6916 90.0113 92.1101 92.0131 92.5811 93.3828C92.8145 94.0616 93.0809 94.6447 93.3965 95.0781C93.6939 95.4865 94.1855 95.9609 94.8965 95.9668C95.6077 95.9726 96.1081 95.5061 96.4121 95.1025C96.7347 94.6742 97.0095 94.0949 97.2539 93.4199C97.747 92.0581 98.1985 90.0646 98.5879 87.4512C99.3691 82.2086 99.9291 74.2933 100.017 63.5371C100.104 52.8343 99.6702 45.1434 98.9717 40.1064C98.6235 37.596 98.2035 35.6965 97.7275 34.4004C97.4914 33.7575 97.2203 33.2033 96.8965 32.791C96.5821 32.3909 96.092 31.9723 95.417 31.9668ZM42.4883 14.3242C42.1196 33.2084 41.4282 56.8046 41.4189 70.5342V70.5488L41.4199 70.5625C41.4993 73.4409 41.4898 74.7449 41.5752 77.0342L41.5762 77.0479C41.669 78.8806 41.9856 80.2309 42.5547 81.1514C43.172 82.1495 44.0606 82.5946 45.0303 82.6025C45.5141 82.6065 46.0248 82.524 46.5137 82.2783C47.0076 82.03 47.4223 81.6431 47.752 81.127C48.3871 80.1322 48.7186 78.6373 48.7891 76.5527V76.54C49.1219 60.7213 49.2715 30.4222 49.1045 14.3779L57.0781 14.4434C56.7612 29.9251 56.6459 56.1983 56.5225 71.3789C56.4605 79.0006 55.4257 83.905 53.5039 86.8799C51.6552 89.7417 48.8916 90.9508 44.8584 90.918C41.5982 90.8914 39.1954 89.8335 37.4961 88.0596C35.7782 86.2662 34.6884 83.6449 34.2646 80.3418C33.783 76.4359 33.7061 73.147 33.7305 70.1514C33.8588 54.3705 34.4501 30.6851 34.502 14.2598L42.4883 14.3242ZM80.9775 14.4082L80.917 21.8262C80.5498 21.8111 80.1353 21.799 79.7031 21.79C78.6667 21.7685 77.4354 21.7583 76.291 21.749L75.3057 21.7412L75.2832 22.7266C74.8129 43.0549 74.6306 76.7591 74.7168 90.5137L66.7422 90.4492C67.0515 76.7852 67.4265 42.9939 67.5918 22.6787L67.6006 21.6787L66.6006 21.6709C64.7976 21.6562 62.9275 21.6404 61.6602 21.6738L61.7197 14.252L80.9775 14.4082ZM167.212 50.7373C166.526 58.141 165.825 67.3144 165.123 76.791L165.044 77.8564L166.112 77.8652L169.968 77.8965L171.023 77.9043L170.975 76.8496C170.531 67.2516 169.982 57.8617 169.519 50.7666L169.458 49.8398L168.528 49.832L168.216 49.8301L167.297 49.8223L167.212 50.7373ZM121.987 42.2256C121.947 47.1231 121.907 52.2291 121.865 57.335L121.854 58.7627L123.199 58.2852C126.965 56.9504 129.625 53.8329 129.657 49.8955C129.675 47.6506 129.282 45.7855 128.202 44.3105C127.119 42.8314 125.457 41.8947 123.261 41.2715L121.998 40.9131L121.987 42.2256Z" fill="#E54326" stroke="black" stroke-width="2"/>
</svg>
