<svg width="209" height="115" viewBox="0 0 209 115" fill="none" xmlns="http://www.w3.org/2000/svg">
<path d="M104.475 113.279C161.622 113.279 207.949 88.1449 207.949 57.1397C207.949 26.1346 161.622 1 104.475 1C47.3271 1 1 26.1346 1 57.1397C1 88.1449 47.3271 113.279 104.475 113.279Z" fill="#169286" stroke="black" stroke-width="2" stroke-miterlimit="10"/>
<path d="M24.9159 73.0386C25.0187 75.2128 25.0187 76.4208 25.2192 78.1118C25.6253 81.2524 26.9411 82.7019 29.6704 82.7019C32.5078 82.7019 33.9212 81.0108 34.1268 76.5801C34.3273 65.5495 34.1269 40.9132 33.9213 27.4668H40.8089C40.6033 39.6282 40.8089 61.9052 40.7061 74.1642C40.6033 84.2285 37.1647 88.2583 29.6704 88.2583C22.9884 88.2583 19.6524 84.7117 18.8403 79.8851C18.4727 77.5408 18.3007 75.1699 18.3263 72.797C18.2235 59.9983 18.7324 40.5945 18.6296 27.4668H25.5121C25.3116 42.6865 24.8028 61.9206 24.9159 73.0386Z" fill="#169286" stroke="black" stroke-width="2" stroke-miterlimit="10"/>
<path d="M53.4496 53.1052C53.4496 70.5815 53.4496 87.6567 53.5524 96.9756H46.6699C47.0708 79.592 46.9732 47.3433 46.6699 18.2402C60.0341 18.343 69.2399 22.9485 69.2399 35.7164C69.2399 47.0143 61.3448 52.1543 53.4496 53.1052ZM53.5524 25.9863V45.9863C58.9186 45.0405 62.6606 42.0079 62.6606 35.7062C62.6606 29.9647 59.9261 27.0349 53.5524 25.9863Z" fill="#169286" stroke="black" stroke-width="2" stroke-miterlimit="10"/>
<path d="M72.8828 15.0059C88.1642 16.1315 96.9742 29.1205 96.9742 57.36C96.9742 84.6023 87.5577 99.7141 72.8828 100.279C73.0833 72.1531 73.1861 41.323 72.8828 15.0059ZM79.7653 23.23C79.6625 42.4281 79.4621 68.2929 79.6625 91.4488C86.3446 87.1569 90.4927 75.0726 90.4927 57.3394C90.4927 38.8352 86.545 26.7509 79.7653 23.2505V23.23Z" fill="#169286" stroke="black" stroke-width="2" stroke-miterlimit="10"/>
<path d="M113.876 59.8116H108.109C106.891 75.3243 105.781 90.9501 105.071 102.083H98.0859C100.517 77.8069 103.74 42.875 106.31 13.2734H115.521C117.063 30.9141 121.494 78.876 123.925 102.083H116.837C116.41 94.0289 115.295 77.2158 113.876 59.8116ZM113.362 52.1015C112.653 40.9732 111.82 30.1945 111.131 22.2891H110.828C110.124 30.6931 109.209 41.1172 108.402 52.1015H113.362Z" fill="#169286" stroke="black" stroke-width="2" stroke-miterlimit="10"/>
<path d="M137.665 22.341C137.362 44.4947 137.562 85.5072 137.665 100.275H130.803C131.003 85.6203 131.209 44.4947 131.003 22.341C128.675 22.341 125.94 22.341 124.928 22.4541V15.0781H143.756V22.4592C142.825 22.341 139.993 22.341 137.665 22.341Z" fill="#169286" stroke="black" stroke-width="2" stroke-miterlimit="10"/>
<path d="M166.407 94.2677H147.764C147.964 76.9971 147.964 44.995 147.764 21.0938H165.882V27.6268C159.807 27.4315 157.381 27.3338 154.847 27.3338C154.749 32.2169 154.646 37.4854 154.646 43.047C158.491 43.047 163.554 43.047 165.07 42.9493V49.5851C163.451 49.4874 158.491 49.3898 154.543 49.3898C154.446 62.0755 154.446 75.7377 154.543 88.1253C157.884 88.1253 161.935 88.0276 166.366 87.7346L166.407 94.2677Z" fill="#169286" stroke="black" stroke-width="2" stroke-miterlimit="10"/>
<path d="M170.859 24.623C186.146 25.4969 194.951 35.556 194.951 57.4218C194.951 78.496 185.539 90.2205 170.859 90.6574C171.065 68.879 171.168 45.0034 170.859 24.623ZM177.747 31.007C177.644 45.8772 177.439 65.908 177.644 83.8366C184.326 80.5161 188.474 71.156 188.474 57.4218C188.474 43.081 184.527 33.7209 177.747 31.007Z" fill="#169286" stroke="black" stroke-width="2" stroke-miterlimit="10"/>
</svg>
