<svg width="218" height="82" viewBox="0 0 218 82" fill="none" xmlns="http://www.w3.org/2000/svg">
<path d="M216.206 1L190.499 80.876H1.34961L25.623 1H216.206Z" fill="#FFC900" stroke="black" stroke-width="2"/>
<path d="M72.5439 14.0244C75.1337 14.0246 77.2472 16.0023 78.7354 20.707C80.2091 25.3663 80.9111 32.2892 80.9111 41.2158C80.9111 50.2145 80.1925 57.2321 78.709 61.9678C77.2066 66.7635 75.087 68.7771 72.5439 68.7773C70.0007 68.7773 67.8804 66.7637 66.3779 61.9678C64.8945 57.2321 64.1758 50.2144 64.1758 41.2158C64.1758 32.3997 64.8609 25.4755 66.3271 20.7871C67.8093 16.0477 69.9262 14.0244 72.5439 14.0244ZM165.957 14.0244C168.547 14.0244 170.661 16.002 172.149 20.707C173.623 25.3663 174.324 32.2892 174.324 41.2158C174.324 50.2144 173.607 57.2321 172.123 61.9678C170.621 66.7637 168.5 68.7773 165.957 68.7773C163.414 68.7772 161.294 66.7635 159.792 61.9678C158.309 57.2321 157.59 50.2145 157.59 41.2158C157.59 32.3996 158.275 25.4755 159.741 20.7871C161.223 16.0479 163.339 14.0246 165.957 14.0244ZM130.577 13.8027C132.287 13.8028 133.753 14.2441 134.912 14.8066L133.26 18.7812C132.605 18.4528 131.873 18.2403 131.192 18.2402C130.385 18.2402 129.673 18.5756 129.191 19.207C128.735 19.8058 128.551 20.5812 128.551 21.3857C128.551 22.7429 129.012 25.4865 129.659 28.8213C130.315 32.2006 131.189 36.3166 132.06 40.4863C132.931 44.6626 133.8 48.8972 134.451 52.5381C135.107 56.2059 135.525 59.1877 135.525 60.8984C135.525 63.6473 134.787 65.5614 133.669 66.7793C132.559 67.9885 130.966 68.6289 129.004 68.6289C127.468 68.6289 125.917 68.2874 124.511 67.7227L125.64 63.3711C126.383 63.7735 127.142 63.9697 127.842 63.9697C128.727 63.9697 129.565 63.6188 130.173 62.9473C130.778 62.2787 131.098 61.3593 131.098 60.3066C131.098 58.5194 130.656 55.5131 130.024 52C129.387 48.4584 128.539 44.3092 127.693 40.1914C126.846 36.0672 126.002 31.9751 125.37 28.5254C124.732 25.0438 124.329 22.3148 124.329 20.8682C124.329 18.5853 125.003 16.8258 126.076 15.6494C127.141 14.4811 128.676 13.8027 130.577 13.8027ZM85.1689 14.3555C89.9501 14.578 93.5295 15.6512 95.9375 17.5146C98.4663 19.4718 99.8408 22.4077 99.8408 26.5654C99.8408 30.672 98.0886 33.3423 95.8633 35.0146L95.3652 35.3896L95.4824 36.001C97.3056 45.5842 100.247 60.2687 101.943 68.1162L97.3154 68.4219C96.2269 61.282 94.0005 49.1242 91.8389 38.1367L91.6143 36.9941L90.5186 37.3896L90.3135 37.4639L89.6562 37.7002L89.6523 38.3984C89.5873 50.0125 89.6472 61.2913 89.7119 68.0371H85.1777C85.4252 55.7963 85.4215 33.9613 85.1689 14.3555ZM119.951 17.0381C118.046 20.3048 115.791 24.5408 113.829 28.6504L113.688 28.9453L113.749 29.2676C115.796 40.0568 119.057 56.9348 121.499 68.0908L116.995 68.2939C116.026 62.8961 113.477 48.8463 111.475 38.292L109.518 38.2529C109.497 38.3399 109.465 38.4371 109.41 38.5947C109.362 38.733 109.292 38.9318 109.244 39.1406L109.219 39.249V39.3604C109.154 50.0706 109.214 61.1816 109.278 68.0371H104.727C104.791 54.9978 104.851 26.3101 104.732 14.542H109.27C109.219 17.8626 109.219 22.5484 109.219 27.8232L111.173 28.1211C112.621 23.4863 114.104 18.4327 115.693 14.2422L119.951 17.0381ZM178.58 14.3496C183.089 14.5393 186.676 15.5504 189.164 17.4297C191.787 19.4105 193.322 22.4574 193.322 26.9355C193.322 30.5254 192.2 33.2419 190.489 35.1689C188.77 37.1049 186.404 38.3034 183.827 38.751L182.998 38.8945V39.7363C182.998 50.8926 182.999 61.592 183.058 68.0371H178.586C178.772 55.746 178.77 34.1607 178.58 14.3496ZM34.5527 14.542C34.6772 17.6377 35.1236 23.4023 35.7461 31.2471L36.5068 40.8506C36.9845 47.3501 37.3941 55.2505 37.7363 61.251L37.79 62.1943H40.0293L40.0752 61.2432C40.3489 55.6164 40.7583 47.7953 41.3027 42.125L41.3037 42.1172V42.1094C41.7833 36.1044 42.0917 30.8971 42.3652 26.2354C42.6174 21.9372 42.8412 18.1119 43.1406 14.542H48.0762C48.7184 21.732 49.2039 26.7181 50.3193 38.7178C50.7966 44.3272 51.4109 54.4438 51.8213 61.2539L51.8779 62.1943H54.0322L54.0908 61.2568C54.4516 55.5306 54.7047 49.6921 55.1279 44.0176L55.3203 41.5967L55.3213 41.5859C55.9303 33.3847 55.9995 27.967 57.0928 14.542H61.4727C59.5623 30.7142 57.3134 55.4886 56.2119 68.0371H49.6396C49.24 63.0919 48.7251 55.3659 48.2109 47.3672L48.21 47.3594L47.9609 43.8262C47.394 35.6323 46.9376 27.8759 46.6387 22.4404L46.5869 21.4961H44.3799L44.3672 22.4824C44.2992 27.7832 43.9586 34.9404 43.3438 43.96L43.3428 43.9658C42.8295 52.2976 41.8917 62.9847 41.3848 68.0371H34.3369C33.5591 56.3002 31.6045 27.6714 30.332 14.542H34.5527ZM72.5439 18.5361C71.9151 18.5361 71.5 18.9495 71.2773 19.251C71.0378 19.5755 70.8462 19.9974 70.6846 20.4619C70.3573 21.4025 70.0687 22.767 69.8262 24.5527C69.3389 28.1401 69.0137 33.6107 69.0137 41.2158C69.0137 48.8584 69.3388 54.4924 69.8252 58.2334C70.0674 60.0964 70.3554 61.5321 70.6787 62.5234C70.8382 63.0125 71.0243 63.4537 71.2559 63.792C71.4603 64.0908 71.8771 64.5615 72.5439 64.5615C73.2105 64.5613 73.6266 64.0907 73.8311 63.792C74.0626 63.4537 74.2497 63.0125 74.4092 62.5234C74.7324 61.5321 75.0195 60.0963 75.2617 58.2334C75.7481 54.4924 76.0732 48.8584 76.0732 41.2158C76.0732 33.6107 75.748 28.1401 75.2607 24.5527C75.0182 22.767 74.7296 21.4025 74.4023 20.4619C74.2407 19.9974 74.0501 19.5755 73.8105 19.251C73.6019 18.9683 73.2239 18.5877 72.6592 18.541L72.5439 18.5361ZM165.957 18.5361C165.328 18.5363 164.913 18.9495 164.69 19.251C164.451 19.5755 164.26 19.9974 164.099 20.4619C163.771 21.4025 163.483 22.767 163.24 24.5527C162.753 28.1401 162.428 33.6107 162.428 41.2158C162.428 48.8584 162.753 54.4924 163.239 58.2334C163.481 60.0963 163.769 61.5321 164.092 62.5234C164.251 63.0125 164.438 63.4537 164.67 63.792C164.874 64.0907 165.29 64.5614 165.957 64.5615C166.624 64.5615 167.041 64.0908 167.245 63.792C167.477 63.4537 167.663 63.0125 167.822 62.5234C168.146 61.5321 168.434 60.0964 168.676 58.2334C169.162 54.4924 169.487 48.8584 169.487 41.2158C169.487 33.6107 169.162 28.1401 168.675 24.5527C168.432 22.767 168.144 21.4025 167.816 20.4619C167.655 19.9974 167.463 19.5755 167.224 19.251C167.015 18.9684 166.638 18.5877 166.073 18.541L165.957 18.5361ZM183.066 21.293C182.998 24.9296 182.998 28.7127 182.998 32.4844V33.8096L184.271 33.4463C185.715 33.0353 186.949 32.3293 187.814 31.21C188.682 30.0876 189.101 28.6528 189.101 26.9355C189.101 25.3007 188.788 23.8697 187.979 22.7168C187.161 21.5523 185.926 20.7995 184.339 20.3496L183.091 19.9961L183.066 21.293ZM89.6523 33.4346L91.0186 32.8975C93.6186 31.8743 95.4129 29.5321 95.4131 26.6396C95.4131 25.0261 95.1429 23.6451 94.3818 22.5391C93.6103 21.4181 92.4363 20.7253 90.9375 20.2793L89.6523 19.8965V33.4346ZM148.689 35.3232L147.757 35.2607C146.619 35.1838 145.41 35.1832 144.335 35.2607L143.407 35.3281V36.2588C143.407 47.5335 143.409 59.9776 143.529 68.0371H138.852C138.974 55.6055 138.974 27.0342 138.852 14.542H143.528C143.466 18.245 143.407 23.5771 143.407 29.5254V30.5254H148.7L148.689 29.5146C148.627 23.6404 148.617 18.3478 148.564 14.542H153.244C153.122 26.204 153.121 53.7591 153.245 68.0371H148.561C148.626 60.8403 148.689 48.0446 148.689 36.2588V35.3232Z" fill="#FFC900" stroke="black" stroke-width="2"/>
</svg>
