<svg width="88" height="188" viewBox="0 0 88 188" fill="none" xmlns="http://www.w3.org/2000/svg">
<path d="M58.3842 1.14969C46.1467 -0.0933404 36.4027 6.57905 29.6237 15.6234C24.5994 22.3266 20.5263 31.091 17.2692 41.3691L12.4288 40.8774C8.68303 40.4969 5.33806 43.225 4.95759 46.9708L1.03462 85.5919C0.65414 89.3376 3.38223 92.6826 7.12797 93.0631L7.95417 93.147C5.94066 116.251 6.31326 136.554 9.74787 152.035C13.231 167.735 21.4689 184.373 39.5862 186.213C48.1841 187.087 55.638 183.797 61.3665 178.231C66.7508 173.001 70.6697 165.775 73.655 157.837C79.645 141.909 83.2687 119.268 84.9748 91.8678L85.2949 86.7266C85.5225 83.0722 82.8226 79.8906 79.1799 79.5206L71.2385 78.714L72.1951 69.2963L77.3596 69.8209C80.9799 70.1887 84.2508 67.6481 84.7904 64.0494L85.5476 58.9985C86.2735 54.1562 87.3487 43.9506 86.32 34.3074L86.3153 34.2631L86.3103 34.2188C85.5096 27.2001 83.5242 19.6927 79.2002 13.4638C74.5869 6.81805 67.5716 2.08291 58.3842 1.14969Z" fill="#FF8FE7" stroke="black" stroke-width="2" stroke-miterlimit="10"/>
<path d="M58.2117 89.2115C55.2167 135.427 47.2482 161.595 40.3099 160.89C34.2127 160.271 29.9193 135.619 34.575 89.7844C34.8099 87.4717 35.0448 85.1589 35.2584 83.0564C44.9299 84.0388 47.6775 84.4898 50.5997 84.999L51.7316 73.8557C48.7667 73.767 46.2079 73.5477 36.7467 72.5866C37.1919 70.2952 37.4268 67.9825 37.8506 65.9013C47.1016 66.841 49.7118 67.3374 52.4237 67.8252L53.5556 56.682C50.8009 56.6146 48.8002 56.3926 39.9697 55.4956C45.0488 34.7696 51.0772 25.6106 54.8617 25.995C56.2071 25.8056 59.3365 26.5667 59.5368 32.9596C59.8225 38.5115 59.5382 45.4925 58.8335 52.4307L72.0793 53.7762C72.738 49.3823 73.6563 40.3415 72.7859 32.1812C71.4374 20.3611 67.0888 14.5011 56.2071 12.7493C43.1716 11.4252 32.13 26.0227 25.2308 54.2109C20.8369 53.5522 17.2626 53.1891 15.5806 53.0183L14.4915 63.741C15.9632 63.8905 19.1383 64.0006 23.1331 64.4064C22.7093 66.4875 22.2641 68.7789 21.7976 71.2806C18.2447 70.7073 15.3012 70.4083 13.8294 70.2588L12.7402 80.9816C14.0017 81.1097 16.9666 81.1984 20.3306 81.5401C20.117 83.6426 19.8821 85.9554 19.6472 88.2681C14.5857 138.097 20.7368 171.647 39.8695 173.591C57.7408 175.406 68.5133 144.637 71.878 90.5996L58.2117 89.2115Z" fill="#FF8FE7" stroke="black" stroke-width="2" stroke-miterlimit="10"/>
</svg>
