<svg width="82" height="190" viewBox="0 0 82 190" fill="none" xmlns="http://www.w3.org/2000/svg">
<path fill-rule="evenodd" clip-rule="evenodd" d="M24.1035 6.83298C29.0195 3.40394 34.4458 2.29956 39.1407 1.99305C49.2306 1.33434 58.4116 5.80604 64.124 11.4454L67.0824 14.3659C69.298 16.5532 69.7502 19.9636 68.1813 22.6527L56.3782 42.8827C54.6894 45.7773 50.7797 46.4131 48.2607 44.2028C48.3242 46.6985 48.488 49.7379 48.7843 53.4284C49.2574 53.372 49.686 53.3172 50.0671 53.2644C50.8109 53.1615 51.1836 53.0918 51.2883 53.0722C51.3241 53.0656 51.3058 53.0704 51.3058 53.0704L57.532 51.5134C61.6581 50.4816 65.7114 53.4386 65.9885 57.6828L67.6091 82.5069C67.8544 86.264 65.0076 89.5085 61.2505 89.7537L55.9056 90.1027C55.2364 90.1464 54.2856 90.1934 53.1684 90.2449C53.3619 91.6866 53.558 93.1667 53.7572 94.6929C56.5129 112.567 58.0897 127.796 57.396 139.943C57.2403 142.669 56.9623 145.393 56.5127 148.063C60.141 147.76 63.1388 147.489 64.8282 147.304L70.3895 146.698C74.2478 146.277 77.6785 149.158 77.9313 153.031L79.5252 177.445C79.777 181.301 76.777 184.595 72.9146 184.704L67.3584 184.86C61.9511 185.013 31.673 186.989 26.2918 187.541L20.8524 188.099C17.0523 188.489 13.6736 185.681 13.3623 181.873L12.8419 175.509L12.0516 165.843L11.6373 160.777C11.455 158.547 12.378 156.37 14.107 154.951L16.2762 153.171C18.1729 151.614 20.1582 149.063 20.7519 140.989C21.3836 132.395 20.2659 119.638 17.2763 99.7369C16.8848 97.333 16.5247 94.9817 16.1876 92.6957L12.6016 92.9298C8.84462 93.1751 5.60012 90.3282 5.35484 86.5712L3.8309 63.2283C3.58563 59.4713 6.43246 56.2268 10.1895 55.9815L11.8544 55.8728C10.7383 41.0144 11.2 29.6285 13.9293 21.2614C15.8222 15.4586 19.0248 10.3756 24.1035 6.83298ZM48.8095 35.0172C48.8095 35.0172 48.8038 35.038 48.7894 35.0748C48.8018 35.0348 48.8095 35.0172 48.8095 35.0172Z" fill="#E54326" stroke="black" stroke-width="2" stroke-miterlimit="10"/>
<path d="M39.9325 14.1396C26.0142 15.0483 20.2797 24.5293 25.1971 67.4118C20.9794 67.6871 17.8024 67.6827 16.3262 67.7791L17.1523 80.4321C18.6285 80.3357 22.1997 79.8908 26.6283 79.6017C27.4218 85.268 28.2428 91.3561 29.3022 97.8522C35.2922 137.7 34.6514 153.837 23.9978 162.58L25.0485 175.43C30.7286 174.848 61.3066 172.851 67.0142 172.691L66.1469 159.405C61.3103 159.932 46.984 161.08 36.6508 161.754C47.3182 153.222 47.2067 132.051 41.703 96.4072C40.8545 89.8974 40.061 84.2311 39.2813 78.7756C46.4513 78.3075 52.7915 78.1054 55.1113 77.954L54.2577 64.8792C51.9655 65.4524 45.0201 66.1176 37.8501 66.5857C33.8639 31.4784 36.9626 27.0404 42.8674 26.6549C45.6089 26.476 47.5756 27.4065 50.0468 29.5747L55.5704 20.1075C51.9485 16.5319 46.0481 13.7404 39.9325 14.1396Z" fill="#E54326" stroke="black" stroke-width="2" stroke-miterlimit="10"/>
</svg>
