<svg width="103" height="196" viewBox="0 0 103 196" fill="none" xmlns="http://www.w3.org/2000/svg">
<path fill-rule="evenodd" clip-rule="evenodd" d="M45.7697 9.06698C46.2032 5.77007 48.9521 3.26694 52.2751 3.14323L78.2244 2.17716C82.737 2.00916 86.163 6.19573 85.1056 10.586L83.4509 17.4558C79.3566 34.4545 75.8228 50.4445 72.7732 64.633L75.1006 64.1775C79.0881 63.397 82.8687 66.2557 83.2041 70.305L87.0603 116.864C87.3932 120.884 84.1829 124.312 80.1503 124.243L74.2324 124.142C74.2308 124.142 74.2213 124.142 74.2037 124.142C74.183 124.142 74.1538 124.142 74.1151 124.143C74.0367 124.144 73.9319 124.146 73.7975 124.15C73.5257 124.157 73.1776 124.172 72.7465 124.194C72.6345 124.2 72.5188 124.206 72.3994 124.213C74.3333 146.932 76.402 169.679 77.2417 177.619L77.8179 183.068C78.2203 186.873 75.4139 190.263 71.6013 190.579L45.5853 192.734C41.7092 193.055 38.3505 190.073 38.2099 186.186L38.0071 180.579C37.7309 172.942 35.904 150.201 34.0161 127.3C33.9662 127.306 33.9172 127.312 33.8692 127.318C33.3203 127.386 33.0728 127.432 33.0355 127.438L26.945 129.075C22.8374 130.178 18.7332 127.292 18.3821 123.054L14.4982 76.1592C14.169 72.1845 17.3072 68.7773 21.2955 68.7793L24.2838 68.7808C18.3103 53.788 11.4879 36.8453 6.12797 23.688L3.49729 17.2302C1.80732 13.0817 4.50947 8.45861 8.95344 7.89531L35.236 4.56379C38.5163 4.14799 41.622 6.14614 42.6033 9.30375L43.9362 13.5928C44.2089 14.4704 44.4987 15.3943 44.8033 16.3588C44.9353 15.3931 45.0611 14.4567 45.1799 13.553L45.7697 9.06698Z" fill="#169387" stroke="black" stroke-width="2" stroke-miterlimit="10"/>
<path d="M56.9444 15.3061C55.203 28.5509 51.7586 50.2338 49.437 67.0202L47.919 67.1459C43.1203 51.386 36.1735 30.782 32.006 17.3715L17.0969 19.2614C24.4966 37.4261 34.6755 62.7842 41.5877 80.3343C34.8651 80.891 29.4258 81.1232 26.8056 81.1219L27.9371 94.7838C30.5034 94.1345 36.1596 93.8844 42.8822 93.3276C43.3146 95.912 43.5301 98.5142 43.7636 101.333C36.8242 101.908 31.1859 102.375 28.5477 102.157L29.6793 115.819C32.0288 115.188 37.9018 114.919 44.8412 114.345C47.0145 140.584 49.529 170.944 49.8676 180.305L64.8306 179.066C63.8235 169.542 61.1101 139.417 58.9369 113.177C65.8762 112.603 71.9482 112.1 74.1347 112.137L73.0032 98.4749C70.8526 98.8714 64.7806 99.3743 57.8592 100.166C57.6257 97.3468 57.4102 94.7445 57.1947 92.1422C64.1341 91.5675 70.206 91.0646 72.3925 91.1018L71.261 77.4399C69.3273 77.8184 63.4722 78.3034 56.9844 79.059C60.7521 61.2795 65.4617 39.0551 71.3108 14.7712L56.9444 15.3061Z" fill="#169387" stroke="black" stroke-width="2" stroke-miterlimit="10"/>
</svg>
